<?xml version="1.0" encoding="UTF-8" standalone="no"?>
<!-- Created with Inkscape (http://www.inkscape.org/) -->

<svg
   xmlns:dc="http://purl.org/dc/elements/1.1/"
   xmlns:cc="http://creativecommons.org/ns#"
   xmlns:rdf="http://www.w3.org/1999/02/22-rdf-syntax-ns#"
   xmlns:svg="http://www.w3.org/2000/svg"
   xmlns="http://www.w3.org/2000/svg"
   xmlns:sodipodi="http://sodipodi.sourceforge.net/DTD/sodipodi-0.dtd"
   xmlns:inkscape="http://www.inkscape.org/namespaces/inkscape"
   width="150"
   height="150"
   viewBox="0 0 39.6875 39.6875"
   version="1.1"
   id="svg922"
   inkscape:version="0.92.4 (5da689c313, 2019-01-14)"
   sodipodi:docname="base.svg">
  <title
     id="title1437">USOICON</title>
  <defs
     id="defs916">
    <clipPath
       clipPathUnits="userSpaceOnUse"
       id="clipPath1521">
      <rect
         style="opacity:0.875;fill:#000000;fill-opacity:1;stroke:#000000;stroke-width:0.60403091;stroke-linejoin:round;stroke-miterlimit:4;stroke-dasharray:none;stroke-opacity:1"
         id="rect1523"
         width="172.87534"
         height="151.42299"
         x="57.114269"
         y="66.644836" />
    </clipPath>
  </defs>
  <sodipodi:namedview
     id="base"
     pagecolor="#ffffff"
     bordercolor="#666666"
     borderopacity="1.0"
     inkscape:pageopacity="0.0"
     inkscape:pageshadow="2"
     inkscape:zoom="2.5001903"
     inkscape:cx="25.456117"
     inkscape:cy="82.278759"
     inkscape:document-units="px"
     inkscape:current-layer="layer16"
     showgrid="false"
     inkscape:window-width="1298"
     inkscape:window-height="802"
     inkscape:window-x="2567"
     inkscape:window-y="153"
     inkscape:window-maximized="0"
     units="px" />
  <metadata
     id="metadata919">
    <rdf:RDF>
      <cc:Work
         rdf:about="">
        <dc:format>image/svg+xml</dc:format>
        <dc:type
           rdf:resource="http://purl.org/dc/dcmitype/StillImage" />
        <dc:title>USOICON</dc:title>
        <cc:license
           rdf:resource="http://creativecommons.org/licenses/by-sa/4.0/" />
      </cc:Work>
      <cc:License
         rdf:about="http://creativecommons.org/licenses/by-sa/4.0/">
        <cc:permits
           rdf:resource="http://creativecommons.org/ns#Reproduction" />
        <cc:permits
           rdf:resource="http://creativecommons.org/ns#Distribution" />
        <cc:requires
           rdf:resource="http://creativecommons.org/ns#Notice" />
        <cc:requires
           rdf:resource="http://creativecommons.org/ns#Attribution" />
        <cc:permits
           rdf:resource="http://creativecommons.org/ns#DerivativeWorks" />
        <cc:requires
           rdf:resource="http://creativecommons.org/ns#ShareAlike" />
      </cc:License>
    </rdf:RDF>
  </metadata>
  <g
     inkscape:label="toonbox"
     inkscape:groupmode="layer"
     id="layer1"
     transform="translate(-35.46637,-112.59198)"
     style="display:inline">
    <path
       style="opacity:0.875;fill:#999999;fill-opacity:1;stroke:none;stroke-width:0.11845408;stroke-linejoin:round;stroke-miterlimit:4;stroke-dasharray:none;stroke-opacity:0.97175137"
       d="m 36.90156,122.71989 c 0.831696,-1.81518 32.136082,-1.74537 36.596996,0 1.360957,1.25668 1.965827,18.83145 -0.529263,19.1107 -2.34387,2.23409 -34.78045,1.7797 -36.294559,0.62834 -1.133237,-0.86173 -1.587784,-18.83144 0.226826,-19.73904 z"
       id="rect49496"
       inkscape:connector-curvature="0"
       sodipodi:nodetypes="cccsc" />
    <path
       style="fill:#000000;stroke-width:0.37203047"
       d="m 37.269718,143.30062 c -1.641726,-0.64434 -1.803348,-1.59457 -1.803348,-10.60246 0,-8.6181 0,-8.6181 1.184803,-9.66955 0.651642,-0.57829 1.906815,-1.21394 2.789275,-1.41254 1.014238,-0.22826 7.228924,-0.36098 16.893825,-0.36076 20.576488,3.7e-4 18.888124,-0.98916 18.718084,10.97136 -0.122927,8.64687 -0.122927,8.64687 -1.155993,9.6823 -0.568185,0.56949 -1.705467,1.20373 -2.527298,1.40941 -1.972575,0.49371 -32.837149,0.47762 -34.099348,-0.0178 z m 34.717949,-1.05781 c 2.057419,-1.09405 2.321925,-2.20712 2.321925,-9.77101 0,-7.72677 -0.261904,-8.73763 -2.557796,-9.87221 -1.306397,-0.6456 -2.051043,-0.67602 -16.574417,-0.67722 -12.68509,-0.001 -15.404566,0.0817 -16.40064,0.49925 -2.429502,1.01833 -2.483917,1.2385 -2.483917,10.05018 0,8.63256 0.07681,8.98184 2.190626,9.96194 1.290086,0.59816 7.836312,0.78195 20.969628,0.58874 10.114957,-0.14881 11.511591,-0.23568 12.534591,-0.77967 z m -32.223892,-0.70343 c -0.704624,-0.24864 -1.401002,-0.70525 -1.547504,-1.0147 -0.218464,-0.46145 -0.07094,-0.43803 0.820336,0.13023 0.940358,0.59955 1.705219,0.69805 5.679761,0.73138 3.569034,0.0299 4.224546,0.1003 2.940161,0.31564 -2.52326,0.42304 -6.463123,0.3419 -7.892754,-0.16255 z m 31.24001,-17.1062 c -0.376607,-0.36781 -1.414169,-0.50758 -3.872935,-0.52171 -1.847182,-0.0106 -4.102321,-0.14401 -5.01142,-0.29643 -1.299481,-0.21787 -0.707245,-0.28535 2.769834,-0.31564 4.414966,-0.0385 6.277427,0.2894 6.698657,1.17915 0.282918,0.5976 0.05617,0.57999 -0.584136,-0.0454 z"
       id="path49494"
       inkscape:connector-curvature="0" />
  </g>
  <g
     inkscape:groupmode="layer"
     id="layer3"
     inkscape:label="text">
    <text
       xml:space="preserve"
       style="font-style:normal;font-variant:normal;font-weight:normal;font-stretch:normal;font-size:4.94612217px;font-family:Insaniburger;-inkscape-font-specification:Insaniburger;opacity:1;vector-effect:none;fill:#000000;fill-opacity:1;stroke:none;stroke-width:0.05796236;stroke-linecap:butt;stroke-linejoin:miter;stroke-miterlimit:4;stroke-dasharray:none;stroke-dashoffset:0;stroke-opacity:1"
       x="10.298688"
       y="25.403994"
       id="text49550"
       transform="scale(0.90627323,1.10342)"><tspan
         sodipodi:role="line"
         id="tspan49548"
         x="10.298688"
         y="25.403994"
         style="font-style:normal;font-variant:normal;font-weight:normal;font-stretch:normal;font-family:Insaniburger;-inkscape-font-specification:Insaniburger;stroke-width:0.05796236">TEST TEXT</tspan></text>
  </g>
  <g
     inkscape:groupmode="layer"
     id="layer16"
     inkscape:label="icon_ds">
    <path
       style="display:inline;fill:#0f0f0f;stroke-width:0.05274038"
       d="m 12.996249,22.71828 c -0.01488,-0.03709 -0.02023,-0.367858 -0.01188,-0.735076 l 0.01517,-0.667658 h 6.068132 6.068131 v 0.721956 0.721957 l -6.05625,0.0131 c -4.946286,0.01072 -6.061209,6.1e-4 -6.083307,-0.05427 z m 0.59278,-1.708424 c -0.05047,-0.192242 0.01711,-0.320112 0.195779,-0.370482 l 0.162416,-0.04581 0.03007,-2.025941 c 0.03154,-2.123685 0.02663,-2.176888 -0.200341,-2.176888 -0.188841,0 -0.274076,-0.293356 -0.12629,-0.434649 0.125602,-0.120079 1.86243,-0.120079 1.988036,0 0.147782,0.141293 0.06256,0.434649 -0.126288,0.434649 -0.226964,0 -0.231863,0.05317 -0.20034,2.176888 l 0.03007,2.025941 0.164697,0.04641 c 0.17696,0.04988 0.252332,0.203139 0.190893,0.3882 -0.03421,0.103135 -0.071,0.106857 -1.055651,0.106857 h -1.020176 z m 2.427251,0 c -0.05046,-0.192242 0.01714,-0.320112 0.195779,-0.370482 l 0.162416,-0.04581 0.03007,-2.025941 c 0.03154,-2.123685 0.02663,-2.176888 -0.200339,-2.176888 -0.188842,0 -0.274077,-0.293356 -0.126288,-0.434649 0.125599,-0.120079 1.862428,-0.120079 1.988035,0 0.147782,0.141293 0.06256,0.434649 -0.126288,0.434649 -0.226964,0 -0.231862,0.05317 -0.200341,2.176888 l 0.03007,2.025941 0.164696,0.04641 c 0.17696,0.04988 0.252333,0.203139 0.190893,0.3882 -0.03421,0.103135 -0.071,0.106857 -1.055651,0.106857 h -1.020178 z m 3.991479,0 c -0.05046,-0.192242 0.01707,-0.320112 0.195779,-0.370482 l 0.162417,-0.04581 0.03007,-2.025941 c 0.03154,-2.123685 0.02663,-2.176888 -0.200341,-2.176888 -0.188841,0 -0.274075,-0.293356 -0.126287,-0.434649 0.125598,-0.120079 1.862435,-0.120079 1.988035,0 0.147788,0.141293 0.06256,0.434649 -0.126288,0.434649 -0.226964,0 -0.231863,0.05317 -0.20034,2.176888 l 0.03007,2.025941 0.164689,0.04641 c 0.17696,0.04988 0.252333,0.203139 0.190893,0.3882 -0.03421,0.103135 -0.071,0.106857 -1.055651,0.106857 h -1.020178 z m 2.481194,0 c -0.05046,-0.192242 0.01707,-0.320112 0.195779,-0.370482 l 0.162416,-0.04581 0.03007,-2.025941 c 0.03153,-2.123685 0.02663,-2.176888 -0.20034,-2.176888 -0.188843,0 -0.274076,-0.293356 -0.126287,-0.434649 0.125599,-0.120079 1.862428,-0.120079 1.988033,0 0.147782,0.141293 0.06256,0.434649 -0.126287,0.434649 -0.226964,0 -0.231863,0.05317 -0.200341,2.176888 l 0.03007,2.025941 0.164696,0.04641 c 0.176961,0.04988 0.252333,0.203139 0.190893,0.3882 -0.03421,0.103135 -0.071,0.106857 -1.055651,0.106857 h -1.020178 z m -9.335702,-5.420018 c -0.01753,-0.04367 -0.02169,-0.283111 -0.0092,-0.532072 0.02661,-0.532113 0.139483,-0.733906 0.497458,-0.88933 0.21079,-0.09152 0.470124,-0.09605 5.563102,-0.09713 l 5.342013,-0.0012 0.240668,0.116028 c 0.363241,0.175122 0.490834,0.450778 0.471416,1.018474 l -0.01497,0.438334 -6.029276,0.0131 c -5.387217,0.01169 -6.032677,0.0048 -6.061155,-0.0663 z m 4.35519,-0.310276 c 0.388042,-0.191847 0.29201,-0.697003 -0.147489,-0.77583 -0.486368,-0.08723 -0.741758,0.512721 -0.32234,0.757228 0.204042,0.118954 0.262194,0.121255 0.469829,0.01858 z m -2.564644,-0.09832 c 0.129345,-0.123666 0.166175,-0.29651 0.09889,-0.464146 -0.03771,-0.09401 -0.293124,-0.234373 -0.426445,-0.234373 -0.139848,0 -0.403068,0.285188 -0.403068,0.436714 0,0.18717 0.223555,0.388384 0.431507,0.388384 0.105092,0 0.215662,-0.04678 0.299119,-0.126579 z m 1.294535,0 c 0.08346,-0.07979 0.13239,-0.185494 0.13239,-0.285967 0,-0.19882 -0.210457,-0.412552 -0.406237,-0.412552 -0.158483,0 -0.456782,0.251652 -0.456782,0.385357 0,0.115846 0.144871,0.373212 0.228105,0.405224 0.170589,0.06562 0.37718,0.02778 0.502524,-0.09206 z m 8.196264,-0.285967 v -0.232058 h -3.07452 -3.074519 l -0.01726,0.172502 c -0.03428,0.341863 -0.261218,0.319564 3.103769,0.304928 l 3.062554,-0.01334 z M 14.243374,13.76577 c -0.02612,-0.04038 1.461364,-0.940573 3.900784,-2.360678 l 0.55981,-0.325892 h 0.550261 0.550253 l 2.218871,1.302108 c 1.22038,0.716152 2.219681,1.331405 2.220669,1.367212 0.0013,0.05152 -0.401217,0.06228 -1.925971,0.05159 l -1.927761,-0.01352 -5.55e-4,-0.287381 c -0.0013,-0.573178 -0.460789,-0.949264 -1.160246,-0.949264 -0.699457,0 -1.159137,0.376086 -1.160245,0.949264 l -5.56e-4,0.287381 -1.897181,0.01358 c -1.125681,0.008 -1.909764,-0.0061 -1.928131,-0.03435 z"
       id="path880"
       inkscape:connector-curvature="0" />
  </g>
  <g
     inkscape:groupmode="layer"
     id="layer2"
     inkscape:label="icon_de"
     style="display:inline">
    <g
       id="g4156"
       transform="matrix(0.2732641,0,0,0.19323011,-5.5356592,31.892613)">
      <rect
         y="-104.6446"
         x="64.02668"
         height="50.812565"
         width="58.088665"
         id="rect4150"
         style="opacity:0.875;fill:#ffffff;fill-opacity:1;stroke:#000000;stroke-width:0.51171541;stroke-linejoin:round;stroke-miterlimit:4;stroke-dasharray:none;stroke-opacity:1" />
      <path
         inkscape:connector-curvature="0"
         id="path4148"
         d="m 65.362833,-46.160321 c -1.54945,-0.41514 -2.48781,-1.990554 -2.48781,-4.176812 v -1.035497 h 30 29.999997 v 1.035497 c 0,1.727484 -0.58347,3.074157 -1.66017,3.831699 l -0.60812,0.42786 -27.365847,0.02724 c -15.05122,0.01498 -27.59634,-0.03451 -27.87805,-0.109989 z m -2.48781,-31.597502 c 0,-22.199857 0.0258,-25.118487 0.22728,-25.753227 0.30138,-0.94929 0.88469,-1.74306 1.60199,-2.18002 0.56323,-0.3431 1.62879,-0.35659 28.17073,-0.35659 26.541947,0 27.607507,0.0135 28.170737,0.35659 0.7173,0.43696 1.30061,1.23073 1.60199,2.18002 0.20152,0.63474 0.22727,3.55337 0.22727,25.753227 v 25.03736 h -29.999997 -30 z m 26.35622,20.967665 c 0.27359,-0.120311 0.68393,-0.445235 0.91187,-0.722053 0.86905,-1.05544 0.82948,-0.01806 0.82948,-21.742529 0,-19.77482 -0.002,-19.94748 -0.30307,-20.76436 -0.1779,-0.48353 -0.52542,-1.00563 -0.84146,-1.26421 l -0.5384,-0.44049 -10.46342,-0.0579 c -5.75488,-0.0318 -10.74607,-0.004 -11.09154,0.0611 -0.74816,0.14181 -1.55617,0.99617 -1.86658,1.97366 -0.18127,0.57082 -0.21261,3.60496 -0.21261,20.582333 0,19.15995 0.0104,19.93983 0.27711,20.627204 0.33978,0.875931 0.76962,1.404439 1.38042,1.697313 0.65564,0.314365 21.21036,0.361145 21.9182,0.04988 z m -21.98635,-1.689683 -0.34548,-0.368047 -0.0388,-17.923962 -0.0388,-17.92397 h 11.56545 11.56544 l -0.0388,17.827357 -0.0388,17.82735 -0.4106,0.464659 -0.4106,0.464661 h -10.7317 c -10.34799,0 -10.74408,-0.01317 -11.07721,-0.368048 z m 8.87685,-2.244809 c 0.16252,-0.05746 0.4424,-0.386568 0.62195,-0.731338 0.26602,-0.510803 0.32646,-0.892991 0.32646,-2.064342 0,-2.568018 -0.38166,-2.871124 -3.61469,-2.870706 -3.31834,3.85e-4 -3.69614,0.317826 -3.70023,3.108652 -0.002,1.445726 0.007,1.483082 0.51513,2.069885 l 0.51729,0.597589 2.51929,-0.0026 c 1.38562,-0.0015 2.65228,-0.04965 2.8148,-0.107112 z m -5.08818,-1.446063 c -0.38917,-0.298244 -0.36802,-2.395331 0.027,-2.673468 0.15682,-0.110424 1.2054,-0.199321 2.35109,-0.199321 1.14568,0 2.19426,0.0889 2.35108,0.199321 0.231,0.162663 0.28306,0.409322 0.28306,1.341059 0,0.931737 -0.0521,1.178396 -0.28306,1.341058 -0.3658,0.257581 -4.39134,0.25022 -4.72913,-0.0086 z m 15.11378,1.227681 c 0.63408,-0.57501 0.71819,-0.862241 0.72303,-2.46911 0.005,-1.707591 -0.15558,-2.201977 -0.87501,-2.691471 -0.61226,-0.416579 -4.95048,-0.41318 -5.56415,0.0044 -0.61777,0.42033 -0.87326,1.210627 -0.87326,2.701271 0,1.455172 0.28192,2.287099 0.87178,2.572575 0.20467,0.09905 1.49344,0.186935 2.86395,0.195295 2.1211,0.01294 2.54566,-0.03362 2.85366,-0.31292 z m -5.38939,-1.250767 c -0.0966,-0.127082 -0.17561,-0.730558 -0.17561,-1.341059 0,-0.900362 0.0535,-1.147645 0.28307,-1.309323 0.15681,-0.110424 1.20539,-0.199321 2.35108,-0.199321 1.14568,0 2.19427,0.0889 2.35108,0.199321 0.231,0.162663 0.28306,0.409322 0.28306,1.341059 0,0.931737 -0.0521,1.178396 -0.28306,1.341058 -0.4112,0.289552 -4.58637,0.262002 -4.80962,-0.03174 z m 6.00066,-7.093453 c 1.04027,-0.380142 1.1408,-0.768252 1.1408,-4.40401 0,-3.569738 -0.0677,-3.875863 -0.96564,-4.369537 -0.7287,-0.400604 -16.51935,-0.395872 -17.24885,0.0049 -0.82951,0.456025 -0.95631,1.037966 -0.95569,4.386064 8.3e-4,3.364504 0.16044,4.025849 1.05486,4.365241 0.67508,0.256168 16.2773,0.271849 16.97452,0.01708 z m -16.67627,-1.346128 c -0.32094,-0.169734 -0.32927,-0.24715 -0.32927,-3.061779 0,-2.657863 0.0225,-2.903508 0.28307,-3.086969 0.18521,-0.13042 3.04671,-0.199317 8.27791,-0.199317 5.2312,0 8.0927,0.0689 8.27791,0.199317 0.26045,0.183407 0.28306,0.428958 0.28306,3.073989 0,2.645032 -0.0226,2.890583 -0.28306,3.073984 -0.35677,0.251228 -16.03466,0.25196 -16.50962,5.46e-4 z m 7.8385,-10.62553 c 0.0361,-0.412049 -0.0259,-0.545847 -0.29268,-0.631631 -0.18618,-0.05986 -2.20819,-0.08455 -4.49336,-0.05485 -3.63585,0.04727 -4.17346,0.09281 -4.30378,0.364772 -0.0819,0.170935 -0.10721,0.453792 -0.0562,0.62857 0.0838,0.287371 0.52367,0.312909 4.59646,0.26686 l 4.50378,-0.05092 z m 9.29678,0.223638 c 0.61481,-0.636304 0.70993,-1.45722 0.65701,-5.669822 -0.0526,-4.184936 -0.12693,-4.588176 -0.93537,-5.072836 -0.46218,-0.27707 -6.31575,-0.30649 -6.85952,-0.0345 -0.20642,0.10326 -0.50876,0.47151 -0.67186,0.81833 -0.27822,0.59161 -0.29405,0.89632 -0.25616,4.9309 l 0.0404,4.300329 0.47792,0.561495 0.47792,0.561502 h 3.3438 c 3.15134,0 3.3658,-0.02276 3.72588,-0.395424 z m -6.89587,-1.179761 c -0.27291,-0.359068 -0.25162,-7.925117 0.0231,-8.225137 0.14054,-0.15346 1.12647,-0.20432 3.2561,-0.16799 l 3.05453,0.0521 v 4.236049 4.236044 l -3.07767,0.05185 c -2.27063,0.03826 -3.12445,-0.0097 -3.25609,-0.18292 z m -4.17494,-3.746043 c 0.0505,-0.173249 0.0248,-0.454846 -0.0571,-0.62578 -0.13031,-0.271811 -0.58547,-0.310787 -3.62929,-0.310787 -3.04382,0 -3.49898,0.03897 -3.62929,0.310787 -0.082,0.170934 -0.10766,0.452531 -0.0571,0.62578 0.0816,0.279796 0.49352,0.314994 3.68642,0.314994 3.19289,0 3.60482,-0.0352 3.68642,-0.314994 z m 1.56982,-4.367014 c 0.14487,-0.13937 0.23887,-0.42097 0.20889,-0.62578 -0.0525,-0.35856 -0.22249,-0.37237 -4.58708,-0.37237 -4.36459,0 -4.5346,0.0138 -4.58708,0.37237 -0.11861,0.81036 0.24054,0.8792 4.58708,0.8792 3.17107,0 4.1752,-0.0581 4.37819,-0.25342 z m -10.89039,-7.43137 c 0,-1.67959 0.01,-1.72634 0.45026,-2.2143 l 0.45025,-0.49848 h 10.51847 c 7.84335,0 10.61606,0.0585 10.90218,0.23003 0.58083,0.3482 0.80079,1.1022 0.80079,2.74489 v 1.45367 h -11.56097 -11.56098 z m 33.04168,40.788546 c 0.823907,-0.377903 0.909897,-0.78238 0.906287,-4.263001 -0.005,-4.392355 -4.2e-4,-4.387229 -3.440777,-4.387229 h -2.29255 l -0.49756,0.654661 -0.49756,0.654662 v 2.917028 c 0,4.48994 0.0983,4.630833 3.23023,4.630833 1.1774,0 2.34377,-0.09313 2.59193,-0.206954 z m -4.62216,-1.371935 c -0.26699,-0.351284 -0.24279,-5.424855 0.0273,-5.719758 0.13757,-0.15023 0.87953,-0.204305 2.30487,-0.167988 l 2.102,0.05355 0.0421,2.599391 c 0.0616,3.798662 0.27387,3.465855 -2.21079,3.465855 -1.43035,0 -2.14531,-0.07292 -2.2655,-0.231057 z m 14.492807,1.017498 0.47792,-0.561392 0.0465,-3.1995 0.0465,-3.1995 -0.50747,-0.667701 -0.50747,-0.6677 h -2.29021 c -3.3638,0 -3.38813,0.02956 -3.49552,4.245161 -0.0734,2.882486 0.0295,3.490686 0.71017,4.195121 0.37458,0.387675 0.56543,0.416902 2.72224,0.416902 h 2.31942 z m -4.9733,-1.005191 c -0.12906,-0.171702 -0.18293,-1.04809 -0.18293,-2.976193 0,-2.314359 0.0355,-2.750725 0.23148,-2.849703 0.44823,-0.226308 4.09099,-0.129032 4.27584,0.114183 0.25167,0.331127 0.24509,5.466138 -0.007,5.671344 -0.33768,0.274594 -4.11453,0.309911 -4.31713,0.04037 z m 14.16333,1.274501 c 0.74433,-0.506443 0.87325,-1.117139 0.87325,-4.136511 0,-4.317458 -0.0874,-4.428592 -3.48284,-4.428592 h -2.39333 l -0.42776,0.562831 c -0.46178,0.607576 -0.47597,0.771053 -0.47619,5.483957 -6e-5,1.505369 0.006,1.528929 0.53422,2.166159 l 0.53429,0.644237 h 2.20454 c 1.6843,0 2.30584,-0.06893 2.63382,-0.292081 z m -4.82891,-1.428189 c -0.0833,-0.204839 -0.15149,-1.455023 -0.15149,-2.778185 0,-1.930313 0.0455,-2.465545 0.22996,-2.708322 0.18699,-0.24603 0.60992,-0.302575 2.26315,-0.302575 1.86036,0 2.04605,0.03166 2.18467,0.372437 0.0833,0.204839 0.15149,1.423584 0.15149,2.708323 0,1.284738 -0.0682,2.503483 -0.15149,2.708322 -0.13904,0.341801 -0.3252,0.372437 -2.26315,0.372437 -1.93796,0 -2.12411,-0.03064 -2.26314,-0.372437 z M 99.819563,-68.974643 c 0.865207,-0.475652 0.946127,-0.829104 0.965527,-4.217203 0.025,-4.364576 -0.11943,-4.559793 -3.373477,-4.559793 -3.19297,0 -3.36585,0.232419 -3.36585,4.524867 0,3.162606 0.11342,3.688166 0.90703,4.202772 0.64877,0.420683 4.12716,0.455959 4.86677,0.04934 z m -4.51945,-1.377669 c -0.18699,-0.246032 -0.22996,-0.802501 -0.22996,-2.97771 0,-2.447767 0.0241,-2.692079 0.28306,-2.87446 0.36816,-0.259246 3.74864,-0.259246 4.1168,0 0.25978,0.182926 0.28307,0.427861 0.28307,2.97771 0,2.549848 -0.0233,2.794783 -0.28307,2.977715 -0.15568,0.109625 -1.10585,0.199322 -2.1115,0.199322 -1.46709,0 -1.87388,-0.0598 -2.0584,-0.302577 z m 14.059247,1.335625 c 0.8158,-0.50936 0.9303,-1.027525 0.9303,-4.210085 0,-4.292448 -0.17288,-4.524867 -3.36585,-4.524867 -3.24567,0 -3.36586,0.161579 -3.36586,4.524867 0,3.42171 0.0734,3.755704 0.93341,4.248193 0.69952,0.400571 4.20939,0.373096 4.868,-0.0381 z m -4.52092,-1.241021 c -0.22516,-0.172551 -0.2561,-0.531564 -0.2561,-2.971859 0,-2.547081 0.0233,-2.792005 0.28307,-2.974915 0.36815,-0.259246 3.74864,-0.259246 4.1168,0 0.259,0.182381 0.28306,0.426693 0.28306,2.87446 0,2.175209 -0.043,2.731678 -0.22996,2.97771 -0.18541,0.243936 -0.58953,0.301442 -2.08537,0.29672 -1.02047,-0.0033 -1.97065,-0.09417 -2.1115,-0.202116 z m 13.83397,1.293555 c 1.0027,-0.558396 1.05627,-0.77544 1.05627,-4.27913 v -3.153114 l -0.47829,-0.629482 -0.47829,-0.629486 h -2.40893 -2.40894 l -0.47863,0.628952 -0.47862,0.628951 -0.0417,2.933178 c -0.0381,2.679045 -0.0156,2.988342 0.25898,3.569847 0.16537,0.350165 0.51339,0.758345 0.77339,0.907066 0.64742,0.370317 4.03135,0.387089 4.68474,0.0232 z m -4.48202,-1.437702 c -0.19925,-0.289691 -0.24219,-0.796486 -0.24219,-2.85837 0,-3.265561 -0.0951,-3.143579 2.45229,-3.143579 1.54765,0 1.96136,0.0583 2.14701,0.302577 0.18596,0.244673 0.22997,0.791645 0.22997,2.858364 0,3.320841 0.0976,3.193128 -2.44007,3.193128 -1.6595,0 -1.93601,-0.04536 -2.14701,-0.35212 z M 99.941513,-81.041352 c 0.712087,-0.42689 0.835947,-1.048026 0.835947,-4.192151 0,-4.424067 -0.0248,-4.456077 -3.446387,-4.456077 h -2.29019 l -0.49756,0.65466 -0.49756,0.65466 v 3.11927 3.11927 l 0.49756,0.654664 0.49756,0.654659 h 2.27604 c 1.32482,0 2.42171,-0.08733 2.62459,-0.208955 z m -4.69575,-1.369935 c -0.11937,-0.157055 -0.17561,-1.069711 -0.17561,-2.849703 0,-1.779992 0.0562,-2.69264 0.17561,-2.8497 0.24428,-0.32141 4.08742,-0.32141 4.3317,0 0.24428,0.32141 0.24428,5.377995 0,5.699403 -0.24428,0.321407 -4.08742,0.321407 -4.3317,0 z m 14.546337,0.924231 0.49756,-0.654664 v -3.11927 -3.11927 l -0.49756,-0.65466 -0.49756,-0.65466 h -2.37073 -2.37073 l -0.49757,0.65466 -0.49756,0.65466 v 3.11927 3.11927 l 0.49756,0.654664 0.49757,0.654659 h 2.37073 2.37073 z m -5.03415,-0.924231 c -0.24428,-0.321408 -0.24428,-5.377993 0,-5.699403 0.24428,-0.32141 4.08743,-0.32141 4.33171,0 0.24428,0.32141 0.24428,5.377995 0,5.699403 -0.24428,0.321407 -4.08743,0.321407 -4.33171,0 z m 14.08309,1.391145 c 0.20642,-0.103267 0.50681,-0.471509 0.66752,-0.81833 0.25657,-0.55369 0.2922,-0.971012 0.2922,-3.422518 0,-2.45151 -0.0356,-2.86883 -0.2922,-3.42252 -0.16071,-0.34681 -0.4611,-0.71506 -0.66752,-0.81832 -0.20642,-0.10327 -1.32917,-0.18775 -2.495,-0.18775 -3.238,0 -3.42223,0.23653 -3.42223,4.393675 0,4.234604 0.17266,4.461713 3.39291,4.462788 1.18195,3.87e-4 2.3179,-0.08376 2.52432,-0.187025 z m -4.74135,-1.532525 c -0.0833,-0.20484 -0.15149,-1.423582 -0.15149,-2.708323 0,-1.28474 0.0682,-2.50348 0.15149,-2.70832 0.13903,-0.3418 0.32518,-0.37244 2.26314,-0.37244 1.93795,0 2.12411,0.0306 2.26315,0.37244 0.0833,0.20484 0.15149,1.42358 0.15149,2.70832 0,1.284741 -0.0682,2.503483 -0.15149,2.708323 -0.13904,0.341804 -0.3252,0.37244 -2.26315,0.37244 -1.93796,0 -2.12411,-0.03062 -2.26314,-0.37244 z M 99.897803,-93.05806 c 0.817357,-0.55613 0.879657,-0.85624 0.879657,-4.23715 0,-4.36562 -0.1188,-4.52486 -3.375617,-4.52486 -3.16867,0 -3.35608,0.25269 -3.35608,4.52486 0,4.31376 0.14446,4.50514 3.4097,4.51733 1.51444,0.006 2.12522,-0.0644 2.44234,-0.28018 z m -4.59769,-1.36269 c -0.3375,-0.44406 -0.3375,-5.30486 0,-5.74892 0.18452,-0.24278 0.59131,-0.30257 2.0584,-0.30257 1.00565,0 1.95582,0.0897 2.1115,0.19932 0.25978,0.18293 0.28307,0.42786 0.28307,2.97771 0,2.54985 -0.0233,2.79479 -0.28307,2.97771 -0.15568,0.10963 -1.10585,0.19932 -2.1115,0.19932 -1.46709,0 -1.87388,-0.0598 -2.0584,-0.30257 z m 14.033307,1.37676 c 0.8218,-0.45179 0.95624,-1.0495 0.95624,-4.25122 0,-4.27217 -0.18742,-4.52486 -3.35608,-4.52486 -3.25683,0 -3.37563,0.15924 -3.37563,4.52486 0,3.42171 0.0734,3.75571 0.93341,4.24819 0.64757,0.37083 4.16903,0.37303 4.84206,0.003 z m -4.57547,-1.30524 c -0.12017,-0.15811 -0.17561,-1.09816 -0.17561,-2.97771 0,-2.51848 0.0235,-2.76321 0.28307,-2.94598 0.15568,-0.10963 1.08196,-0.19932 2.0584,-0.19932 0.97643,0 1.90271,0.0897 2.0584,0.19932 0.25977,0.18293 0.28306,0.42786 0.28306,2.97771 0,2.54985 -0.0233,2.79479 -0.28306,2.97771 -0.40799,0.28729 -4.00231,0.26029 -4.22426,-0.0317 z m 14.49271,0.85313 0.47802,-0.62948 v -3.15782 c 0,-3.08267 -0.009,-3.16972 -0.35709,-3.65794 -0.54358,-0.76131 -1.20218,-0.92559 -3.40898,-0.85035 -1.85161,0.0631 -2.01684,0.0996 -2.35689,0.52014 -0.62451,0.77233 -0.70756,1.31963 -0.65639,4.32525 0.0456,2.67639 0.0636,2.82081 0.4135,3.31563 0.20122,0.28454 0.49756,0.5921 0.65854,0.68347 0.16098,0.0914 1.29587,0.14687 2.52198,0.12336 l 2.2293,-0.0428 z m -5.06027,-0.9742 c -0.19925,-0.28968 -0.24219,-0.79648 -0.24219,-2.85836 0,-3.26384 -0.0933,-3.14358 2.44006,-3.14358 2.4806,0 2.38921,-0.12282 2.38921,3.21049 0,3.26383 0.0933,3.14357 -2.44007,3.14357 -1.6595,0 -1.93601,-0.0453 -2.14701,-0.35212 z"
         style="fill:#000000;stroke-width:0.16786209" />
    </g>
  </g>
  <g
     inkscape:groupmode="layer"
     id="layer4"
     inkscape:label="icon_wm"
     style="display:inline">
    <g
       id="g4210"
       transform="matrix(0.09897996,0,0,0.07361682,21.8141,-12.949579)">
      <rect
         y="332.36594"
         x="-64.158226"
         height="104.56727"
         width="116.12093"
         id="rect4158-7"
         style="opacity:0.875;fill:#ffffff;fill-opacity:1;stroke:none;stroke-width:0.61755061;stroke-linejoin:round;stroke-miterlimit:4;stroke-dasharray:none;stroke-opacity:1" />
      <rect
         y="378.20181"
         x="-97.566437"
         height="104.56052"
         width="118.68166"
         id="rect4158"
         style="opacity:1;fill:#ffffff;fill-opacity:0.85641025;stroke:none;stroke-width:0.62430251;stroke-linejoin:round;stroke-miterlimit:4;stroke-dasharray:none;stroke-opacity:1" />
      <path
         inkscape:connector-curvature="0"
         id="path4016"
         d="m -97.132117,487.46251 c -3.448703,-1.13703 -5.387743,-2.88955 -6.551163,-5.92096 l -0.73033,-1.90295 0.0689,-49.67363 0.0689,-49.67364 0.81665,-1.71979 c 1.03655,-2.18286 2.89836,-4.03674 4.844933,-4.82429 l 1.48217,-0.59967 h 59.92813 59.928116 l 1.45521,0.68642 c 2.6068,1.22961 4.70482,3.83411 5.2654,6.5365 0.41874,2.0186 0.41008,98.15921 -0.009,100.11875 -0.57151,2.67215 -2.68955,5.21954 -5.38867,6.48099 l -1.5875,0.74193 -59.266656,0.0496 c -48.45363,0.0406 -59.45976,-0.014 -60.32501,-0.29929 z m 117.277406,-49.82274 -0.067,-40.67969 h -57.414566 -57.41459 l -0.068,40.34896 c -0.0374,22.19193 -0.0113,40.49779 0.0578,40.67969 0.10011,0.26318 11.85404,0.33073 57.54953,0.33073 H 20.212189 Z M -85.039717,388.87233 c 2.17357,-1.42737 2.82796,-4.39341 1.43403,-6.49978 -2.64885,-4.0027 -8.70408,-2.23645 -8.73869,2.54899 -0.008,1.16072 0.1354,1.66868 0.71055,2.51004 1.5295,2.23742 4.41943,2.86884 6.59411,1.44075 z m 14.27601,0.048 c 2.12875,-1.35002 2.90518,-3.96814 1.81216,-6.11064 -1.26163,-2.473 -4.31707,-3.40057 -6.66638,-2.02378 -1.55995,0.91419 -2.3319,2.31027 -2.3319,4.21726 0,1.24682 0.12795,1.63112 0.8599,2.58283 1.70941,2.22262 4.12284,2.73167 6.32622,1.33433 z m 14.24926,0.27374 c 0.50705,-0.26951 1.30887,-0.99314 1.78181,-1.60807 0.73195,-0.95171 0.8599,-1.33601 0.8599,-2.58283 0,-1.8972 -0.79179,-3.34267 -2.32238,-4.23965 -0.95652,-0.56057 -1.3842,-0.64874 -2.68895,-0.55436 -1.91078,0.13821 -3.13894,0.98134 -3.98979,2.73895 -1.88665,3.89729 2.56051,8.26511 6.35941,6.24596 z m 76.725036,-4.27351 v -2.38227 l -33.535936,0.0672 -33.53593,0.0672 -0.0764,2.31511 -0.0765,2.3151 h 33.61239 33.612376 z m 14.81667,55.30846 v -4.77203 h 8.33437 8.33438 V 394.84345 354.2299 H -5.8508657 -63.397737 v 6.61459 6.61458 h -4.77281 -4.7728 l 0.0764,-15.0151 0.0765,-15.01511 0.7091,-1.5129 c 0.99301,-2.11866 2.79058,-3.94771 4.78515,-4.86897 l 1.6495,-0.76188 H -5.9831557 53.680379 l 1.55173,0.62569 c 2.3476,0.9466 4.38232,3.10587 5.29195,5.61591 l 0.71047,1.96049 -0.0729,49.60937 -0.0729,49.60938 -0.81665,1.71979 c -1.03655,2.18286 -2.89836,4.03674 -4.84493,4.82429 -1.43001,0.57856 -1.81507,0.60233 -10.94103,0.67535 l -9.45885,0.0757 z m -88.750216,-94.06517 c 2.03589,-1.19311 2.81835,-4.03382 1.70968,-6.20698 -0.95625,-1.87441 -2.98389,-2.87445 -5.10239,-2.51653 -1.44311,0.24381 -3.26787,1.92777 -3.65769,3.37547 -1.13686,4.22199 3.26904,7.56407 7.0504,5.34804 z m 13.90697,0.28395 c 1.11676,-0.46784 1.93874,-1.33342 2.46708,-2.59791 0.53828,-1.28828 0.50909,-2.20726 -0.11368,-3.5793 -0.66535,-1.46585 -1.70078,-2.34385 -3.1932,-2.70768 -3.7047,-0.90317 -6.76301,2.34186 -5.67141,6.01766 0.79013,2.66066 3.81975,3.99476 6.51121,2.86723 z m 14.43488,0.0924 c 3.41123,-1.28885 3.9957,-6.17271 0.98538,-8.23396 -2.08788,-1.42962 -4.5348,-1.19508 -6.24256,0.59836 -2.12024,2.22662 -1.53961,5.73624 1.22823,7.42412 0.90234,0.55027 2.86028,0.65304 4.02895,0.21148 z m 76.944826,-4.34879 v -2.38125 l -33.535935,-0.0672 -33.535941,-0.0672 v 2.51557 2.51557 l 33.535941,-0.0672 33.535935,-0.0672 z"
         style="fill:#000000;stroke:none;stroke-width:0.26458335" />
    </g>
  </g>
  <g
     inkscape:groupmode="layer"
     id="layer5"
     inkscape:label="icon_development"
     style="display:inline">
    <g
       id="g55062"
       transform="matrix(0.09345129,0,0,0.08906515,23.447707,-20.751848)">
      <path
         style="fill:#8c8c8c;fill-opacity:1;stroke-width:0.26458332"
         d="m -18.197595,491.89564 c -0.398137,-0.11988 -1.125326,-0.46607 -1.615975,-0.76931 l -0.892087,-0.55134 -0.586293,-1.12618 -0.58629,-1.12618 -0.575858,-3.2588 -0.575858,-3.25879 -1.719791,-0.71202 c -2.62759,-1.08786 -4.246182,-1.99997 -6.327333,-3.56559 l -1.900018,-1.42936 -3.228512,1.1756 -3.228512,1.1756 -1.517292,-0.10699 -1.51729,-0.107 -0.996249,-0.80627 -0.99625,-0.80628 -1.83826,-3.14588 -1.83825,-3.14589 -0.11293,-1.53737 -0.11294,-1.53738 0.46407,-1.0291 0.46406,-1.02911 2.74218,-2.29637 2.742192,-2.29637 -0.196729,-1.48715 c -0.253362,-1.91527 -0.253023,-6.61768 5.29e-4,-8.5358 l 0.197345,-1.49241 -2.578597,-2.17071 -2.57859,-2.17071 -0.59396,-0.96709 -0.59396,-0.96709 -10e-4,-1.5817 -0.001,-1.58169 1.75142,-3.04852 c 0.96328,-1.67668 2.12076,-3.43859 2.57217,-3.91535 l 0.820761,-0.86684 0.955169,-0.28618 0.955167,-0.28618 1.3013,0.11694 1.301301,0.11694 2.829321,1.03276 2.829319,1.03275 0.742556,-0.5887 c 1.966095,-1.55874 4.872633,-3.31213 6.945132,-4.18971 l 2.291207,-0.97019 0.46736,-2.81092 c 0.257048,-1.546 0.605274,-3.2843 0.77384,-3.86289 l 0.306504,-1.05199 0.938742,-0.93874 0.938741,-0.93874 1.082681,-0.32438 1.08268,-0.32438 h 3.48353 3.483531 l 0.983689,0.41091 c 1.124982,0.46993 2.328791,1.53382 2.828247,2.49951 0.188159,0.3638 0.604467,2.14788 0.925132,3.96461 0.637169,3.60992 0.668761,3.7083 1.190723,3.7083 0.698791,0 5.748162,2.70586 7.442461,3.98827 0.947113,0.71687 1.877494,1.3034 2.067513,1.3034 0.190015,0 1.62928,-0.47625 3.198362,-1.05833 l 2.852878,-1.05834 h 1.29608 1.296082 l 0.981647,0.50102 c 0.539906,0.27555 1.177454,0.72204 1.416772,0.99218 0.506039,0.57123 2.628495,4.13567 3.589681,6.0285 l 0.66217,1.30399 -0.11167,1.54384 -0.11167,1.54383 -0.535207,0.72405 c -0.294365,0.39823 -1.687425,1.72121 -3.095691,2.93997 l -2.560484,2.21591 0.202414,1.75284 c 0.259019,2.24301 0.258874,5.76174 -2.64e-4,8.00684 l -0.20275,1.7561 2.478971,2.08036 c 1.363432,1.1442 2.759612,2.48143 3.102623,2.97163 l 0.623654,0.89128 0.09322,1.62226 0.09322,1.62228 -1.627759,2.91041 c -0.895268,1.60073 -1.921635,3.29847 -2.280817,3.77276 l -0.653055,0.86234 -1.032465,0.52672 -1.032465,0.52672 -1.267312,-0.005 -1.267312,-0.005 -3.15179,-1.14986 -3.151791,-1.14986 -1.586968,1.2788 -1.586965,1.27879 -2.878246,1.46366 c -1.583103,0.80499 -3.045275,1.46363 -3.24934,1.46363 -0.544065,0 -0.586306,0.13064 -1.194096,3.69296 -0.625454,3.66584 -0.90079,4.34658 -2.230123,5.51375 l -0.932325,0.81859 -0.999421,0.27754 -0.999419,0.27755 -3.307291,-0.0213 c -1.819011,-0.0117 -3.633042,-0.11935 -4.031181,-0.23923 z m 5.89394,-26.46149 c 0.7732,-0.14664 2.039921,-0.55691 2.814936,-0.91173 l 1.409121,-0.64511 1.409549,-1.3331 1.409546,-1.33309 0.689943,-1.40904 c 0.379469,-0.77498 0.832004,-1.97323 1.005637,-2.66279 l 0.315695,-1.25373 -0.135781,-1.77313 -0.135782,-1.77313 -0.582745,-1.53051 -0.582744,-1.5305 -1.421662,-1.53556 -1.421662,-1.53557 -1.535292,-0.8183 -1.535292,-0.8183 -1.734659,-0.31963 -1.734659,-0.31962 -1.692891,0.2982 -1.692894,0.29819 -1.402977,0.68642 -1.402977,0.68641 -1.328983,1.29447 -1.328981,1.29447 -0.849125,1.79262 -0.849122,1.79262 v 2.77813 2.77812 l 0.822688,1.73613 0.822685,1.73613 1.310862,1.30658 1.310862,1.30658 1.306034,0.65208 c 1.246478,0.62234 3.58087,1.26274 4.775652,1.31012 0.307559,0.0122 1.191818,-0.0978 1.965018,-0.24443 z m -84.941918,10.55379 -1.45521,-0.23429 -1.868117,-0.91509 -1.86811,-0.9151 -1.51457,-1.58786 -1.51457,-1.58786 -0.85065,-1.79589 -0.85065,-1.79589 v -48.03559 -48.0356 l 0.99266,-2.00851 0.99266,-2.00851 1.43984,-1.43984 1.43984,-1.43984 1.66854,-0.81615 1.668537,-0.81616 1.56995,-0.28583 1.56995,-0.28584 h 51.23198 51.231974 l 1.542939,0.28523 c 2.03799,0.37674 3.939048,1.24653 5.586317,2.55591 l 1.343528,1.06793 0.951293,1.43318 c 0.523208,0.78825 1.198544,2.16714 1.50074,3.06421 l 0.549453,1.63102 v 25.40834 c 0,13.97459 -0.02977,25.40681 -0.06615,25.40493 -0.03638,-0.002 -0.820894,-0.24 -1.743364,-0.52916 l -1.67722,-0.52576 -2.291529,-7.9e-4 -2.291533,-7.9e-4 -1.884153,0.55843 -1.884153,0.55843 -0.695534,-0.45573 -0.695534,-0.45582 v -13.8602 -13.86019 h -49.344784 -49.34479 v 34.26354 34.26354 h 18.49309 18.49309 l -0.52158,1.65364 -0.52158,1.65365 0.0996,2.91042 0.0996,2.91041 0.73434,1.71979 c 0.40389,0.94589 0.79876,1.92816 0.8775,2.18282 l 0.14315,0.46302 -19.94075,-0.0309 -19.94076,-0.0309 z m 10.95389,-92.66688 c 1.20851,-0.92178 1.73375,-1.71705 2.04298,-3.09331 l 0.24302,-1.08164 -0.29433,-1.10653 c -0.16189,-0.60859 -0.59787,-1.50763 -0.96886,-1.99787 l -0.67452,-0.89134 -1.19198,-0.52727 -1.19198,-0.52727 -1.41901,0.11768 -1.419,0.11768 -0.98959,0.7871 -0.98958,0.7871 -0.59532,1.16521 -0.59531,1.1652 v 0.87848 c 0,1.80715 1.38702,3.9652 3.04271,4.73414 l 0.79375,0.36863 1.62188,-0.0806 1.62189,-0.0806 z m 14.2603,0.53057 c 0.47054,-0.19661 1.23413,-0.78866 1.69686,-1.31569 l 0.84133,-0.95822 0.27754,-0.99942 c 0.15265,-0.54968 0.27754,-1.17801 0.27754,-1.39629 0,-0.9051 -0.59185,-2.41866 -1.25304,-3.20443 l -0.70649,-0.83962 -1.06928,-0.48571 -1.06928,-0.4857 -1.13502,-0.006 -1.13502,-0.006 -0.98165,0.50341 c -1.76002,0.9026 -2.96602,2.74194 -2.96602,4.52367 0,1.74756 1.42843,3.93153 3.04271,4.65207 l 0.79375,0.3543 1.26527,0.0104 1.26527,0.0104 0.85553,-0.35746 z m 15.08125,0 c 0.47054,-0.19661 1.23413,-0.78866 1.69686,-1.31569 l 0.84133,-0.95822 0.27754,-0.99942 c 0.34511,-1.24273 0.34558,-1.54818 0.004,-2.77714 -0.35235,-1.26867 -1.37766,-2.47603 -2.65693,-3.12867 l -1.01451,-0.51756 h -1.2117 -1.21171 l -1.01451,0.51756 c -1.27927,0.65264 -2.30459,1.86 -2.65693,3.12867 -0.34132,1.22896 -0.34085,1.53441 0.004,2.77714 l 0.27754,0.99942 0.84054,0.95733 c 0.4623,0.52653 1.19995,1.11393 1.63922,1.30533 l 0.79866,0.348 1.26527,0.0104 1.26527,0.0104 0.85553,-0.35746 z"
         id="path55037"
         inkscape:connector-curvature="0" />
      <path
         style="fill:#606060;fill-opacity:1;stroke-width:0.26458332"
         d="m -17.012326,491.98232 c -0.108238,-0.0245 -0.650385,-0.12049 -1.204769,-0.21339 l -1.007975,-0.16891 -1.011632,-0.91395 c -1.2656,-1.14339 -1.449472,-1.61825 -2.144569,-5.53844 -0.309632,-1.74625 -0.605433,-3.21802 -0.657339,-3.27061 -0.05191,-0.0526 -0.986692,-0.48352 -2.077305,-0.95763 -2.491168,-1.08295 -3.944156,-1.93301 -6.12327,-3.58238 l -1.720527,-1.30226 -3.216786,1.183 -3.216788,1.183 -1.078751,-0.006 -1.078751,-0.006 -1.089049,-0.49456 -1.089046,-0.49455 -0.66289,-0.8887 c -0.36459,-0.48878 -1.40693,-2.22732 -2.31632,-3.86342 l -1.65343,-2.97473 0.11521,-1.59289 0.11522,-1.59289 0.53521,-0.72405 c 0.29436,-0.39822 1.69107,-1.72435 3.10378,-2.94694 l 2.568583,-2.2229 -0.21051,-1.87814 c -0.261541,-2.33345 -0.268992,-5.23739 -0.02011,-7.83127 l 0.19041,-1.98438 -2.548133,-2.11666 c -1.40148,-1.16417 -2.78914,-2.44249 -3.08369,-2.84072 l -0.53555,-0.72405 -0.11167,-1.54384 -0.11167,-1.54383 0.66217,-1.30399 c 0.96119,-1.89283 3.08364,-5.45728 3.58968,-6.0285 0.23932,-0.27014 0.876867,-0.71663 1.416773,-0.99219 l 0.981657,-0.50099 h 1.184381 1.184381 l 3.205199,1.17875 3.2052,1.17874 1.640231,-1.32734 1.640231,-1.32733 2.778125,-1.39271 c 1.527969,-0.76599 3.025151,-1.45642 3.327069,-1.5343 l 0.548942,-0.1416 0.595868,-3.41033 0.595868,-3.41033 0.572138,-1.01814 0.572135,-1.01813 1.193469,-0.70166 1.193469,-0.70166 h 4.233333 4.233333 l 0.897991,0.52917 c 0.493892,0.29104 1.241988,0.95481 1.662435,1.47505 l 0.764445,0.94588 0.653404,3.53072 c 0.359373,1.9419 0.706022,3.58334 0.770329,3.64765 0.06431,0.0643 0.99455,0.49844 2.067208,0.96474 2.288537,0.99487 4.707361,2.4276 6.527871,3.86663 l 1.301028,1.02841 3.211618,-1.1811 3.211616,-1.18111 h 1.090305 1.090303 l 1.147159,0.55533 1.147159,0.55533 0.742543,1.09832 c 0.408398,0.60407 1.380355,2.22217 2.159905,3.59577 l 1.417362,2.49745 0.101058,1.33901 0.101055,1.339 -0.612606,1.18751 -0.612606,1.1875 -2.570517,2.11979 -2.570517,2.11978 0.188646,2.38125 c 0.236413,2.98423 0.236413,4.15953 0,7.14375 l -0.188646,2.38125 2.570517,2.11979 2.570517,2.11979 0.612606,1.1875 0.612606,1.18751 -0.101055,1.339 -0.101058,1.33901 -1.417362,2.49745 c -0.77955,1.3736 -1.751507,2.99169 -2.159905,3.59577 l -0.742543,1.09831 -1.147159,0.55533 -1.147159,0.55533 h -1.090303 -1.090305 l -3.197307,-1.17584 -3.19731,-1.17583 -1.702411,1.28855 c -2.001607,1.51501 -4.455506,2.91785 -6.488625,3.70941 -0.800365,0.31161 -1.540852,0.64964 -1.645529,0.75118 -0.104674,0.10155 -0.48452,1.77685 -0.8441,3.7229 l -0.653783,3.53827 -0.760393,0.95454 c -0.418219,0.52499 -1.175028,1.16113 -1.681803,1.41365 l -0.921406,0.45911 -3.495008,0.0701 c -1.922254,0.0385 -3.583567,0.05 -3.691806,0.0256 z m 6.756461,-27.02814 c 0.768353,-0.29235 1.997702,-0.9881 2.731884,-1.54613 l 1.334878,-1.01459 1.036092,-1.548 1.036093,-1.54801 0.399211,-1.34429 0.399209,-1.34428 v -1.75604 -1.75604 l -0.393301,-1.32439 c -0.216318,-0.72841 -0.858443,-2.04405 -1.426948,-2.92364 l -1.033642,-1.59925 -1.533107,-1.09783 -1.533104,-1.09783 -1.698027,-0.52447 -1.698027,-0.52447 -1.361194,0.003 c -1.760278,0.004 -3.737462,0.53887 -5.461746,1.47734 l -1.375444,0.74861 -1.152628,1.282 c -0.633945,0.7051 -1.451362,1.90019 -1.816479,2.65577 l -0.66385,1.37377 -0.259466,1.65364 -0.259466,1.65365 0.262641,1.63085 0.262644,1.63086 0.652139,1.37851 c 1.307561,2.76396 3.941033,4.94766 6.995255,5.80055 l 1.455209,0.40636 1.852083,-0.10713 1.852083,-0.10712 1.397008,-0.53154 z m -88.640198,10.55154 c -3.874197,-1.23848 -6.990707,-4.48997 -7.993047,-8.3392 l -0.41063,-1.57694 V 419.13409 372.6786 l 0.41063,-1.57694 c 0.51824,-1.99015 1.44417,-3.5774 3.1243,-5.35573 l 1.32037,-1.39754 1.87183,-0.92318 1.871827,-0.92318 2.24896,-0.25696 2.24895,-0.25696 h 49.60938 49.609369 l 2.220542,0.25529 2.220542,0.25529 1.684319,0.78819 1.684316,0.78819 1.478391,1.3982 c 1.727304,1.63361 2.619357,3.05514 3.31029,5.27512 l 0.498475,1.6016 v 25.21639 25.21639 l -1.653646,-0.5281 -1.653646,-0.52809 -2.513541,0.005 -2.513542,0.005 -1.695341,0.53644 -1.695342,0.53645 -0.752054,-0.3889 -0.752054,-0.38891 v -13.88457 -13.88383 h -49.477078 -49.47708 v 34.26354 34.26354 h 18.52083 18.52083 l -0.003,0.19844 c -0.002,0.10914 -0.16526,0.73421 -0.36374,1.38906 -0.19849,0.65484 -0.44297,1.905 -0.54329,2.77812 l -0.1824,1.5875 0.29595,1.84422 0.29596,1.84422 0.75367,1.7938 0.75367,1.7938 -20.67796,-0.0142 -20.67796,-0.0142 z m 11.96924,-91.70117 c 1.58043,-0.81707 2.91605,-2.96915 2.9046,-4.68019 -0.012,-1.79603 -1.58006,-4.05611 -3.25256,-4.68802 -0.40965,-0.15478 -1.34594,-0.28141 -2.08064,-0.28141 h -1.33581 l -1.02458,0.57584 -1.02457,0.57584 -0.71591,1.03305 -0.7159,1.03306 -0.10232,1.49995 -0.10232,1.49996 0.62645,1.16976 c 0.71259,1.33063 1.50237,1.99945 3.0024,2.54262 l 1.04303,0.37768 1.05833,-0.15809 c 0.58209,-0.0869 1.35599,-0.31197 1.7198,-0.50005 z m 15.51869,-0.27849 1.0989,-0.63221 0.68704,-1.3787 0.68703,-1.37871 -0.006,-0.94023 -0.006,-0.94024 -0.48999,-1.05834 c -0.92679,-2.0018 -2.5202,-3.0427 -4.65774,-3.0427 -1.51015,0 -2.44472,0.37128 -3.53728,1.40529 -1.10586,1.04658 -1.6221,2.21205 -1.6221,3.66205 v 1.11558 l 0.55188,1.14003 0.55187,1.14002 0.80678,0.57448 c 0.44373,0.31596 1.23718,0.73104 1.76323,0.92239 l 0.95645,0.34792 1.05833,-0.15221 c 0.58209,-0.0837 1.55284,-0.4367 2.15724,-0.78442 z m 14.95463,0.0961 1.00482,-0.56474 0.69692,-1.00566 0.69692,-1.00565 0.13134,-1.16526 0.13134,-1.16525 -0.32347,-0.98011 c -0.41542,-1.25873 -1.74121,-2.76629 -2.8345,-3.22309 l -0.85553,-0.35746 h -1.20762 -1.20763 l -0.85553,0.35746 c -0.47054,0.1966 -1.23525,0.78994 -1.69935,1.31853 l -0.84383,0.96107 -0.31051,1.03638 -0.31051,1.03639 0.17695,1.18002 0.17696,1.18002 0.63526,0.86105 c 0.75883,1.02853 1.48773,1.56635 2.76219,2.03807 l 0.94683,0.35046 1.04206,-0.14375 c 0.57314,-0.0791 1.49423,-0.39788 2.04689,-0.70848 z"
         id="path55035"
         inkscape:connector-curvature="0" />
      <path
         id="path55052"
         d="m -19.061206,491.45392 c -1.613905,-0.85274 -2.546323,-2.17472 -2.861722,-4.05733 -0.08533,-0.50933 -0.35192,-2.02737 -0.592426,-3.37344 l -0.437285,-2.4474 h -0.310206 c -0.170613,0 -1.61676,-0.64942 -3.213658,-1.44315 l -2.903452,-1.44316 -1.792412,-1.36089 -1.792412,-1.36089 -3.322272,1.21655 -3.322272,1.21654 -0.838441,-0.006 c -1.122582,-0.008 -2.798903,-0.81222 -3.639939,-1.74676 -0.37666,-0.41853 -1.43831,-2.06562 -2.35923,-3.6602 l -1.67439,-2.89923 -0.11803,-1.22843 -0.11804,-1.22843 0.51775,-1.17047 0.51775,-1.17046 2.78079,-2.3325 2.780791,-2.3325 -0.235074,-1.23292 c -0.304845,-1.59886 -0.303345,-7.48934 0.0024,-9.09279 l 0.237387,-1.24531 -2.731144,-2.28712 -2.73114,-2.28712 -0.57184,-1.18127 -0.57185,-1.18127 0.11996,-1.23943 0.11997,-1.23943 1.76734,-3.076 c 2.4339,-4.23623 3.572102,-5.25837 5.855393,-5.25837 h 0.936564 l 3.287149,1.21056 3.287148,1.21056 1.936348,-1.45164 c 2.131692,-1.59808 5.405903,-3.40487 7.078101,-3.90587 l 1.075955,-0.32237 0.0078,-0.28885 c 0.0043,-0.15886 0.294701,-1.82368 0.645395,-3.6996 l 0.63763,-3.41076 0.750295,-0.92702 c 0.412663,-0.50985 1.162174,-1.1479 1.665581,-1.41788 l 0.915273,-0.49088 h 4.214214 4.214215 l 1.124698,0.65912 1.124699,0.65912 0.569061,0.92076 0.569058,0.92075 0.641527,3.51336 c 0.352838,1.93234 0.642906,3.54312 0.644591,3.5795 0.0016,0.0364 0.151895,0.0679 0.333796,0.0699 0.181901,0.002 1.521354,0.57783 2.976562,1.27943 l 2.645833,1.27564 1.749862,1.32848 c 0.962424,0.73067 1.883444,1.41105 2.046708,1.51195 l 0.296844,0.18346 3.320967,-1.20388 3.320968,-1.20389 h 0.792385 c 1.007642,0 2.572218,0.64997 3.374117,1.40169 0.690544,0.64734 3.2624,4.90317 4.079947,6.75137 l 0.525846,1.18876 -0.160605,1.17174 c -0.240662,1.75582 -0.830908,2.53325 -3.785388,4.98586 l -2.694599,2.23687 0.181057,0.98758 c 0.233564,1.27399 0.235297,8.36516 0.0024,9.63358 l -0.178702,0.97308 2.694445,2.25639 2.694443,2.25639 0.517128,0.87158 0.517128,0.87157 0.0098,1.45521 0.0098,1.45521 -1.5875,2.86039 c -0.873125,1.57322 -1.936266,3.28524 -2.362533,3.80448 l -0.775034,0.94409 -1.077049,0.48919 c -0.592379,0.26905 -1.466848,0.4918 -1.943264,0.49499 l -0.866214,0.006 -3.220019,-1.19062 c -1.77101,-0.65484 -3.286794,-1.19063 -3.36841,-1.19063 -0.08162,0 -1.022189,0.65735 -2.090158,1.46077 l -1.941767,1.46076 -2.685293,1.31736 c -1.476944,0.72454 -2.834992,1.31735 -3.017914,1.31735 -0.182922,0 -0.332587,0.0412 -0.332587,0.0914 0,0.0503 -0.292954,1.67444 -0.651009,3.60921 l -0.65101,3.51778 -0.654447,0.98894 -0.65445,0.98894 -1.159327,0.56122 -1.159327,0.56122 -4.083651,-0.0106 -4.083653,-0.0106 -0.79375,-0.4194 z"
         style="fill:#000000;fill-opacity:1;stroke-width:0.26458332"
         inkscape:connector-curvature="0" />
      <path
         id="path55050"
         d="m -9.276311,464.53823 1.947582,-0.96255 1.199385,-1.334 c 0.659662,-0.7337 1.532197,-2.01173 1.93897,-2.84007 l 0.739584,-1.50606 v -3.04271 -3.04271 l -0.697222,-1.48696 c -1.293868,-2.75943 -3.596878,-4.78267 -6.600759,-5.7989 l -1.697852,-0.57439 -2.116666,0.12289 -2.116667,0.12289 -1.530503,0.58852 -1.530504,0.58852 -1.59821,1.47967 -1.598208,1.47965 -0.761359,1.50825 -0.761363,1.50825 -0.322847,1.75216 -0.322847,1.75216 0.323181,1.75397 0.323183,1.75398 0.665146,1.3126 c 1.316403,2.5978 3.669779,4.62133 6.452873,5.54847 l 1.455208,0.48477 2.331156,-0.10293 2.331157,-0.10292 z"
         style="fill:#ffffff;fill-opacity:1;stroke-width:0.26458332"
         inkscape:connector-curvature="0" />
      <path
         id="path55048"
         d="m -98.893483,475.39915 -1.780187,-0.6067 -1.51018,-1.04009 -1.51017,-1.0401 -1.12489,-1.52805 c -0.61869,-0.84043 -1.40021,-2.20966 -1.73671,-3.04273 l -0.61183,-1.51468 -0.0704,-46.69896 -0.0705,-46.69896 0.27749,-1.34011 c 0.15262,-0.73706 0.62818,-2.08165 1.05681,-2.98798 l 0.77932,-1.64788 1.45302,-1.45301 1.45301,-1.45302 2.05855,-0.98295 2.058537,-0.98296 52.91667,-0.0778 52.916662,-0.0778 1.661282,0.43996 1.661284,0.43996 1.522662,0.98415 c 2.555586,1.65175 4.437318,4.2659 5.245623,7.28733 l 0.353909,1.32292 0.0031,25.0282 0.0031,25.02821 -1.521355,-0.52983 -1.521354,-0.52982 -2.778125,-0.002 -2.778124,-0.002 -1.5875,0.52063 -1.5875,0.52063 -0.727131,-0.4112 -0.727133,-0.41121 -5.29e-4,-13.82447 -4.31e-4,-13.82442 h -49.47699 -49.47708 v 34.26354 34.26354 h 18.54914 18.54914 l -0.18322,0.46302 c -0.39893,1.00815 -0.92254,3.97405 -0.92254,5.22552 0,1.88294 0.62964,4.60667 1.43007,6.18624 l 0.68632,1.35438 -20.57581,-0.007 -20.57581,-0.007 z"
         style="fill:#000000;fill-opacity:1;stroke-width:0.26458332"
         inkscape:connector-curvature="0" />
      <path
         id="path55046"
         d="m -86.267073,383.48278 1.06004,-0.73597 0.59531,-1.17701 0.59531,-1.177 v -1.22524 -1.22524 l -0.61502,-1.16609 -0.61502,-1.1661 -0.88015,-0.59587 c -0.48408,-0.32773 -1.35673,-0.72421 -1.93923,-0.88106 l -1.05908,-0.28518 -1.21606,0.30564 c -1.55427,0.39064 -2.79985,1.34325 -3.46746,2.65189 l -0.52673,1.03246 v 1.35962 1.35961 l 0.40908,0.86208 c 0.55782,1.1755 1.7077,2.22641 2.93453,2.68192 l 1.02202,0.37948 1.32121,-0.13098 1.32122,-0.13098 z"
         style="fill:#ffffff;fill-opacity:1;stroke-width:0.26458332"
         inkscape:connector-curvature="0" />
      <path
         id="path55044"
         d="m -72.581393,384.19745 c 0.54118,-0.1503 1.36179,-0.5912 1.82358,-0.97977 l 0.83962,-0.70649 0.4857,-1.06928 0.48571,-1.06928 0.006,-1.21515 0.006,-1.21516 -0.61502,-1.16609 -0.61502,-1.1661 -0.88015,-0.59587 c -0.48408,-0.32773 -1.35674,-0.72421 -1.93923,-0.88106 l -1.05908,-0.28518 -1.21606,0.30564 c -1.55427,0.39064 -2.79985,1.34325 -3.46746,2.65189 l -0.52673,1.03246 v 1.344 1.344 l 0.50342,0.98164 c 1.21393,2.36713 3.59415,3.40493 6.1691,2.6898 z"
         style="fill:#ffffff;fill-opacity:1;stroke-width:0.26458332"
         inkscape:connector-curvature="0" />
      <path
         id="path55033"
         d="m -57.500153,384.19745 c 0.54119,-0.1503 1.3618,-0.5912 1.82359,-0.97977 l 0.83962,-0.70649 0.4857,-1.06928 0.48571,-1.06928 v -1.19062 -1.19063 l -0.49456,-1.08904 -0.49456,-1.08905 -0.88869,-0.677 -0.88869,-0.67699 -1.21607,-0.30564 -1.21606,-0.30564 -1.16519,0.31013 c -0.64085,0.17058 -1.5651,0.61276 -2.05388,0.98264 l -0.88869,0.6725 -0.49456,1.08905 -0.49456,1.08904 v 1.19063 1.19062 l 0.48845,1.05834 c 1.10645,2.39735 3.55311,3.49394 6.17244,2.76648 z"
         style="fill:#ffffff;fill-opacity:1;stroke-width:0.26458332"
         inkscape:connector-curvature="0" />
    </g>
  </g>
  <g
     inkscape:groupmode="layer"
     id="layer6"
     inkscape:label="icon_education"
     style="display:inline">
    <g
       transform="matrix(0.13292962,0,0,0.11100278,32.140048,-31.21871)"
       id="g54718">
      <path
         id="path54547"
         d="m -44.875799,495.09863 c -0.281277,-0.53357 -1.216788,-1.70993 -2.07891,-2.61413 -3.4147,-3.58133 -4.049281,-7.0609 -2.273676,-12.46712 1.753504,-5.33892 1.82502,-5.82282 0.951041,-6.43498 -0.983172,-0.68864 -2.08465,-3.10792 -2.09464,-4.60065 -0.0157,-2.34762 1.576208,-4.91615 3.55488,-5.73574 1.023486,-0.42394 1.023486,-0.42394 1.023486,-16.77397 0,-16.35003 0,-16.35003 -2.910419,-17.22423 -14.065032,-4.22469 -37.767369,-11.15218 -37.855514,-11.06404 -0.06058,0.0606 7.975716,3.35522 17.858443,7.32142 9.882726,3.9662 17.961194,7.29711 17.952144,7.40202 -0.01319,0.15317 -21.760983,12.08687 -38.231846,20.97903 -3.219827,1.73829 -3.219827,1.73829 -7.797574,-0.75691 -2.517754,-1.37236 -12.753416,-6.96659 -22.745906,-12.43162 -9.99248,-5.46503 -23.76074,-12.98254 -30.59613,-16.70559 -6.83536,-3.72305 -12.43129,-6.85014 -12.43543,-6.9491 -0.009,-0.20637 -0.60729,0.12505 29.80232,-16.49771 12.61188,-6.89399 26.82008,-14.67197 31.57379,-17.28438 4.753682,-2.61242 8.801807,-4.74963 8.995835,-4.74936 0.194028,2.6e-4 6.861528,3.56813 14.816666,7.92858 7.955139,4.36046 21.131393,11.57677 29.280564,16.03624 8.14917,4.45947 17.396357,9.51992 20.549308,11.24545 3.152952,1.72552 5.726765,3.21917 5.719583,3.31921 -0.0072,0.10004 -4.571242,2.66277 -10.142361,5.69496 -10.129305,5.51306 -10.129305,5.51306 -10.220798,22.79819 -0.09149,17.28513 -0.09149,17.28513 0.935292,17.71044 1.33115,0.55138 2.339541,1.6441 3.019919,3.27248 0.995733,2.38313 0.472792,4.96249 -1.382173,6.81746 -1.031162,1.03116 -1.003805,1.26599 0.778513,6.6828 1.350868,4.10555 1.287996,6.75292 -0.227753,9.58998 -0.641068,1.1999 -1.700713,2.6686 -2.35477,3.26378 -0.654054,0.59518 -1.435333,1.55813 -1.736171,2.13989 -0.678142,1.31138 -1.072068,1.33135 -1.727713,0.0876 z"
         style="fill:#000000;fill-opacity:1;stroke-width:0.35277778"
         inkscape:connector-curvature="0" />
      <path
         id="path54432"
         d="m -101.36417,481.71683 c -4.91874,-0.42604 -12.05945,-1.93227 -16.75694,-3.53463 -6.80604,-2.32161 -12.28478,-6.1856 -14.40478,-10.15926 -0.94105,-1.76389 -0.94105,-1.76389 -1.04549,-14.72847 -0.0574,-7.13052 -0.0158,-12.96458 0.0925,-12.96458 0.14744,0 29.2953,15.86279 39.005249,21.22735 1.246113,0.68846 1.246113,0.68846 4.056944,-0.87506 7.72602,-4.2976 37.225463,-20.35229 37.395996,-20.35229 0.107756,0 0.148929,5.83406 0.09149,12.96458 -0.104433,12.96458 -0.104433,12.96458 -1.145896,14.8447 -4.628614,8.35587 -20.745181,13.94122 -39.702206,13.75919 -3.396675,-0.0326 -6.810777,-0.1143 -7.586887,-0.18153 z"
         style="fill:#000000;fill-opacity:1;stroke-width:0.35277778"
         inkscape:connector-curvature="0" />
      <path
         id="path54455"
         d="m -65.028056,476.49013 c -0.119916,-0.19402 -0.407098,-0.35034 -0.638182,-0.34737 -0.252451,0.003 -0.208939,0.14189 0.109016,0.34737 0.677728,0.43799 0.799853,0.43799 0.529166,0 z"
         style="fill:#333333;fill-opacity:1;stroke-width:0.35277778"
         inkscape:connector-curvature="0" />
      <path
         id="path54453"
         d="m -101.35483,465.62215 c -0.10862,-0.10861 -0.39327,-2.2e-4 -0.63258,0.24087 -0.34581,0.34841 -0.30529,0.38893 0.19749,0.19749 0.34791,-0.13248 0.54371,-0.32974 0.43509,-0.43836 z"
         style="fill:#333333;fill-opacity:1;stroke-width:0.35277778"
         inkscape:connector-curvature="0" />
      <path
         id="path54451"
         d="m -178.04833,452.23666 c 0.43881,-0.55953 0.42633,-0.572 -0.13319,-0.13319 -0.33955,0.26629 -0.61737,0.5441 -0.61737,0.61736 0,0.29035 0.2897,0.10347 0.75056,-0.48417 z"
         style="fill:#333333;fill-opacity:1;stroke-width:0.35277778"
         inkscape:connector-curvature="0" />
      <path
         id="path54447"
         d="m -166.45166,439.97763 c 0.4557,-0.48507 0.74917,-0.88194 0.65215,-0.88194 -0.097,0 -0.54923,0.39687 -1.00493,0.88194 -0.4557,0.48507 -0.74917,0.88195 -0.65216,0.88195 0.097,0 0.54924,-0.39688 1.00494,-0.88195 z"
         style="fill:#333333;fill-opacity:1;stroke-width:0.35277778"
         inkscape:connector-curvature="0" />
    </g>
  </g>
  <g
     inkscape:groupmode="layer"
     id="layer7"
     inkscape:label="icon_games"
     style="display:inline">
    <g
       id="g53695"
       transform="matrix(0.23216083,0,0,0.26739887,-40.66702,-79.695953)">
      <path
         id="path53677"
         d="m 225.79653,381.36576 c -2.54967,-2.16287 -3.28927,-5.07779 -3.22937,-12.72754 0.0593,-7.57051 1.18595,-12.13608 4.43388,-17.96747 2.67589,-4.80432 5.91972,-8.09226 9.70728,-9.83928 2.93991,-1.35603 3.61581,-1.46275 7.92401,-1.25119 3.99113,0.19599 5.33064,0.52071 8.77702,2.12769 5.78914,2.69936 9.37027,2.66126 15.81605,-0.16825 4.16983,-1.83044 5.18512,-2.06465 8.95016,-2.06465 7.51056,0 12.24218,2.99633 16.63155,10.53204 3.48187,5.97773 4.73552,10.84728 4.79647,18.63111 0.0599,7.64975 -0.67969,10.56467 -3.22937,12.72754 -1.37053,1.16261 -2.27891,1.46692 -4.3788,1.46692 -3.28921,0 -4.23651,-0.53789 -11.50581,-6.53308 -5.84738,-4.82249 -5.84738,-4.82249 -19.40423,-4.82249 -13.55685,0 -13.55685,0 -19.40422,4.82249 -7.2693,5.99519 -8.2166,6.53308 -11.50581,6.53308 -2.0999,0 -3.00827,-0.30431 -4.37881,-1.46692 z"
         style="fill:#000000;fill-opacity:1;stroke-width:0.56041962"
         inkscape:connector-curvature="0" />
      <path
         id="path53675"
         d="m 277.9872,362.41501 c 2.48313,-1.47539 1.1115,-5.39043 -1.88854,-5.39043 -3.18922,0 -4.68975,3.85168 -2.09998,5.39043 0.74378,0.44193 1.6412,0.80351 1.99426,0.80351 0.35306,0 1.25048,-0.36158 1.99426,-0.80351 z"
         style="fill:#ffffff;fill-opacity:1;stroke-width:0.56041962"
         inkscape:connector-curvature="0" />
      <path
         id="path53673"
         d="m 247.09052,359.86347 c 0.28974,-1.96633 0.42013,-2.07694 2.73812,-2.32273 2.38318,-0.2527 2.43389,-0.30109 2.43389,-2.32273 0,-2.02164 -0.0507,-2.07003 -2.43389,-2.32273 -2.37843,-0.2522 -2.43819,-0.3087 -2.62261,-2.47993 -0.18873,-2.22185 -0.18873,-2.22185 -2.73813,-2.06465 -2.47869,0.15284 -2.55783,0.21446 -2.85363,2.22185 -0.28975,1.96633 -0.42014,2.07694 -2.73813,2.32273 -2.25128,0.23872 -2.44868,0.38956 -2.63114,2.01052 -0.22767,2.02263 0.53795,2.61563 3.39173,2.62704 1.77717,0.007 1.97754,0.16052 1.97754,1.51417 0,2.64823 0.54785,3.20895 2.96766,3.03739 2.07566,-0.14716 2.22211,-0.27682 2.50859,-2.22093 z"
         style="fill:#ffffff;fill-opacity:1;stroke-width:0.56041962"
         inkscape:connector-curvature="0" />
      <path
         id="path53671"
         d="m 288.72216,357.58638 c 2.66282,-2.496 -0.94822,-6.2938 -4.24303,-4.46246 -2.76721,1.53807 -1.47026,5.44914 1.80699,5.44914 0.76088,0 1.85709,-0.444 2.43604,-0.98668 z"
         style="fill:#fffffc;fill-opacity:1;stroke-width:0.56041962"
         inkscape:connector-curvature="0" />
      <path
         id="path53664"
         d="m 278.37813,352.42476 c 1.50071,-1.40669 1.03223,-3.70653 -0.94602,-4.64411 -1.43589,-0.68054 -1.76922,-0.66753 -3.19447,0.12466 -2.86196,1.59073 -1.64992,5.50613 1.70445,5.50613 0.76088,0 1.8571,-0.444 2.43604,-0.98668 z"
         style="fill:#f8ffff;fill-opacity:1;stroke-width:0.56041962"
         inkscape:connector-curvature="0" />
    </g>
  </g>
  <g
     inkscape:groupmode="layer"
     id="layer8"
     inkscape:label="icon_graphics"
     style="display:inline">
    <g
       id="g16798"
       transform="matrix(0.18646615,0,0,0.17477205,30.894537,-4.0608331)">
      <path
         transform="scale(0.26458333)"
         id="path59299"
         d="m -239.45703,327.62109 c -8.94631,-0.0512 -17.8886,1.0193 -26.63086,3.30664 -62.38088,16.32152 -85.55523,66.03325 -45.58008,97.77735 13.44873,10.67958 15.44713,13.91531 15.38477,24.91211 -0.0527,9.31948 -2.99153,13.60816 -17.48828,25.52539 -37.5365,30.85723 -12.41764,81.15403 48.05468,96.2207 25.13802,6.26317 52.7445,2.60167 79.6875,-10.56836 35.29108,-17.25063 66.8674,-64.09171 66.99024,-99.375 0.0323,-9.2804 2.44177,-13.65597 16.76172,-30.43945 16.71691,-19.59285 35.046553,-44.55303 39.878902,-54.30274 3.242608,-6.54225 3.573819,-8.90706 1.591797,-11.36523 -4.410255,-5.46969 -15.583479,0.91834 -45.929689,26.25781 -7.58143,6.3306 -15.08722,11.5087 -16.67969,11.50586 -1.59242,-0.003 -5.47915,-5.09576 -8.63671,-11.3164 -21.12203,-41.61163 -64.29935,-67.89197 -107.4043,-68.13868 z m 17.23633,40.83008 c 2.86684,0 7.08935,1.93232 9.38281,4.29297 2.29349,2.36066 4.16992,6.70538 4.16992,9.65625 0,2.95083 -1.87643,7.29751 -4.16992,9.6582 -2.29346,2.3607 -6.51597,4.29102 -9.38281,4.29102 -2.86685,0 -7.08936,-1.93032 -9.38282,-4.29102 -2.29349,-2.36069 -4.16992,-6.70737 -4.16992,-9.6582 0,-2.95087 1.87643,-7.29559 4.16992,-9.65625 2.29346,-2.36065 6.51597,-4.29297 9.38282,-4.29297 z m -59.04297,17.38086 c 2.50583,0.0934 5.00143,1.27575 7.54883,3.54297 6.53994,5.82055 7.3338,11.96284 2.38281,18.44141 -5.47389,7.16281 -14.67577,7.61107 -20.6543,1.00586 -5.62193,-6.21117 -5.36472,-11.5191 0.86719,-17.9336 3.39496,-3.49441 6.63369,-5.1767 9.85547,-5.05664 z m 109.78125,19.20899 c 6.65272,0.0755 12.85351,5.46623 12.85351,13.84375 0,5.07756 -1.39737,8.27345 -4.63476,10.60742 -6.80833,4.90847 -13.25754,4.08737 -18.14844,-2.3125 -5.44033,-7.11908 -5.45856,-11.59577 -0.0703,-17.54883 2.90671,-3.21141 6.51524,-4.62938 10,-4.58984 z m -103.90625,94.32031 c 5.96288,0 14.5957,8.25003 14.5957,13.94922 0,1.45217 -1.94558,5.1849 -4.32226,8.29492 -2.86549,3.74955 -6.32648,5.6543 -10.27344,5.6543 -5.96296,0 -14.59375,-8.25 -14.59375,-13.94922 0,-5.69919 8.63079,-13.94922 14.59375,-13.94922 z"
         style="fill:#000005;fill-opacity:1;stroke-width:2.11530161"
         inkscape:connector-curvature="0" />
      <path
         inkscape:connector-curvature="0"
         style="fill:#ffffff;fill-opacity:1;stroke:#ffffff;stroke-width:0.55967355;stroke-opacity:1"
         d="m -52.62579,142.87503 c 3.03625,-1.18077 6.24199,-5.26873 6.24199,-7.95976 0,-1.96697 -4.4568,-6.19942 -6.52803,-6.19942 -2.53554,0 -5.30135,2.74955 -6.13213,6.09606 -0.36934,1.48777 -1.04146,3.78492 -1.49361,5.10478 -0.45214,1.31986 -0.66502,2.66132 -0.47307,2.98101 0.45893,0.76431 6.40255,0.74824 8.38485,-0.0226 z"
         id="path59283" />
      <path
         inkscape:connector-curvature="0"
         style="fill:#ffffff;fill-opacity:1;stroke-width:0.55967355"
         d="m -37.66806,124.75342 c 3.46101,-3.89489 8.4596,-9.77089 11.108,-13.05779 7.60938,-9.44396 9.2404,-12.490342 5.65884,-10.56936 -3.29518,1.76737 -27.78954,23.85662 -28.46589,25.67082 -0.39125,1.04943 3.4404,5.42765 4.55645,5.20643 0.46743,-0.0927 3.6816,-3.3552 7.1426,-7.2501 z"
         id="path59281" />
    </g>
  </g>
  <g
     inkscape:groupmode="layer"
     id="layer9"
     inkscape:label="icon_internet"
     style="display:inline">
    <g
       id="g54240"
       transform="matrix(0.24562229,0,0,0.24186217,34.917034,-33.749499)">
      <path
         id="path54193"
         d="m -70.218567,235.17822 c -9.14582,-2.52163 -16.48459,-9.79527 -19.28347,-19.11231 -1.08343,-3.60661 -1.08343,-10.73483 0,-14.34144 2.82983,-9.42007 9.71585,-16.22502 19.24814,-19.02153 3.42306,-1.00423 10.660535,-1.06902 14.219058,-0.12729 9.339044,2.4715 17.169207,10.20949 19.67015,19.43859 0.886127,3.27003 0.887701,10.48291 0.0031,13.7619 -2.503161,9.27753 -10.285099,16.96785 -19.673147,19.44155 -3.190886,0.84077 -11.070661,0.81885 -14.183731,-0.0394 z"
         style="fill:#cbcbcb;fill-opacity:1;stroke-width:0.51272714"
         inkscape:connector-curvature="0" />
      <path
         id="path54191"
         d="m -68.146067,228.07933 c 0.82049,-0.68227 1.61822,-1.83733 1.77274,-2.56681 0.15451,-0.72948 0.39142,-1.86041 0.52645,-2.51319 0.13504,-0.65278 0.83133,-1.45064 1.54732,-1.77303 1.07774,-0.48527 1.3018,-0.93893 1.3018,-2.63588 0,-1.26182 -0.23947,-2.04973 -0.62297,-2.04973 -0.34264,0 -1.49363,-0.84016 -2.55776,-1.86703 -1.83384,-1.76961 -2.14827,-1.87925 -6.02582,-2.10108 -4.09102,-0.23403 -4.09102,-0.23403 -3.82839,2.24932 0.20333,1.92269 0.65641,2.89095 2.00683,4.28878 1.68685,1.74608 1.74421,1.94075 1.74421,5.92024 0,3.49344 0.17524,4.33596 1.16049,5.5794 1.16048,1.46461 1.16048,1.46461 1.3219,0.087 0.0888,-0.75766 0.83272,-1.93578 1.6532,-2.61804 z"
         style="fill:#000000;fill-opacity:1;stroke-width:0.51272714"
         inkscape:connector-curvature="0" />
      <path
         id="path54189"
         d="m -48.847606,224.70851 c 1.07784,-0.40497 1.323007,-0.83297 1.323007,-2.30965 0,-1.14097 0.286656,-1.92126 0.773658,-2.10594 0.559071,-0.21201 0.773658,-1.07782 0.773658,-3.12152 0,-2.24845 0.270419,-3.1785 1.319288,-4.53745 1.212013,-1.57032 1.243465,-1.73264 0.386829,-1.99626 -1.667682,-0.51321 -2.410368,-1.03344 -3.461392,-2.4246 -0.925012,-1.22436 -0.951095,-1.44913 -0.248726,-2.14324 0.702373,-0.6941 0.956298,-0.61333 2.421183,0.77011 0.900085,0.85004 1.878014,1.54553 2.17317,1.54553 0.826287,0 1.228425,-1.52706 0.572765,-2.175 -0.321342,-0.31756 -0.584256,-0.87556 -0.584256,-1.23999 0,-1.24452 1.759345,-0.66489 3.717602,1.22478 1.95589,1.8874 1.95589,1.8874 1.95589,0.34736 0,-5.68968 -5.549434,-15.48696 -8.772215,-15.48696 -0.815291,0 -1.625791,0.22937 -1.801112,0.5097 -0.493125,0.7885 -2.393637,0.60271 -3.444012,-0.33667 -0.892079,-0.79782 -1.052721,-0.74128 -2.800064,0.98549 -1.794433,1.77331 -1.963421,2.91909 -0.430521,2.91909 0.40877,0 0.743218,-0.46593 0.743218,-1.0354 0,-1.53543 1.454843,-1.83102 2.743598,-0.55744 1.701166,1.68114 0.679225,2.85337 -4.130128,4.7375 -0.904427,0.35433 -1.890841,1.1787 -2.192031,1.83196 -0.953879,2.06889 -0.596635,2.31884 0.960233,0.67183 1.507845,-1.59515 1.507845,-1.59515 3.616558,-0.50897 1.969765,1.01461 2.192078,1.0322 3.373841,0.267 0.695823,-0.45055 1.628725,-0.81918 2.07312,-0.81918 1.081672,0 1.623645,1.52086 0.735315,2.06341 -0.38851,0.23729 -0.712451,0.95958 -0.719868,1.60509 -0.01228,1.06877 -0.27731,1.18727 -2.965741,1.32612 -1.623738,0.0838 -3.386611,-0.0773 -3.91749,-0.35804 -0.70831,-0.37461 -1.280317,-0.29241 -2.148908,0.30881 -0.651018,0.45062 -1.899088,0.96391 -2.773482,1.14064 -2.03469,0.41124 -2.874392,2.71602 -1.799797,4.94 0.625322,1.29416 1.01324,1.47918 3.385869,1.61486 2.250788,0.12872 2.889814,0.40009 3.992932,1.69564 1.045754,1.22817 1.313295,2.0928 1.313295,4.24422 0,1.77982 0.264013,2.91836 0.773658,3.33635 0.425512,0.34899 0.773658,1.14163 0.773658,1.76142 0,0.97729 0.37916,1.80649 0.826045,1.80649 0.07609,0 0.733702,-0.22369 1.461353,-0.49709 z"
         style="fill:#000000;fill-opacity:1;stroke-width:0.51272714"
         inkscape:connector-curvature="0" />
      <path
         id="path54187"
         d="m -79.787677,209.37505 c -1.38452,-1.51187 -0.42713,-2.792 2.03079,-2.71537 1.02565,0.032 1.86482,-0.13939 1.86482,-0.38081 0,-0.24142 0.78554,-1.29972 1.74565,-2.35179 2.16337,-2.37057 4.59658,-6.60775 4.17845,-7.27634 -0.17131,-0.27393 -0.87803,-0.49805 -1.57048,-0.49805 -1.05792,0 -1.25898,0.24675 -1.25898,1.54509 0,2.278 -1.17883,2.34723 -3.29539,0.19353 -1.78356,-1.81484 -2.39905,-3.26772 -1.38434,-3.26772 0.2629,0 0.82535,-0.6881 1.2499,-1.52911 0.7719,-1.5291 0.7719,-1.5291 -2.23986,-1.5291 -2.86583,0 -3.08551,0.0926 -4.53378,1.91138 -2.50375,3.14425 -3.72238,5.98413 -3.72238,8.6746 0,2.6905 0.7156,4.01163 2.32097,4.28496 0.64246,0.10939 1.09882,0.65431 1.20991,1.44468 0.25895,1.84241 1.03098,2.54329 2.80148,2.54329 1.54625,0 1.55314,-0.012 0.60324,-1.04924 z"
         style="fill:#000000;fill-opacity:1;stroke-width:0.51272714"
         inkscape:connector-curvature="0" />
      <path
         id="path54185"
         d="m -58.355813,197.45702 c 0,-0.12362 -0.232097,-0.36653 -0.515772,-0.53978 -0.283675,-0.17326 -0.515772,-0.0721 -0.515772,0.22476 0,0.29688 0.232097,0.53979 0.515772,0.53979 0.283675,0 0.515772,-0.10115 0.515772,-0.22477 z"
         style="fill:#cbcbcb;fill-opacity:1;stroke-width:0.51272714"
         inkscape:connector-curvature="0" />
      <path
         id="path54183"
         d="m -61.012137,191.00686 c 1.744656,-1.56869 3.172096,-3.27415 3.172096,-3.7899 0,-1.4119 -2.060277,-3.29708 -3.603318,-3.29708 -0.909368,0 -1.734578,0.50013 -2.488948,1.50846 -1.30277,1.74134 -1.36608,2.2071 -0.4887,3.59546 0.50927,0.80587 0.50927,1.2191 0,2.02497 -0.72531,1.14772 -0.86665,3.23798 -0.20154,2.98017 0.24108,-0.0934 1.865759,-1.45338 3.61041,-3.02208 z"
         style="fill:#000000;fill-opacity:1;stroke-width:0.51272714"
         inkscape:connector-curvature="0" />
      <path
         id="path54156"
         d="m -70.218567,190.29113 c 0,-2.05072 -0.12291,-2.28938 -1.16049,-2.25341 -0.63827,0.0221 -0.87037,0.15593 -0.51577,0.29733 0.36175,0.14425 0.64471,1.13326 0.64471,2.25341 0,1.09798 0.2321,1.99632 0.51577,1.99632 0.28368,0 0.51578,-1.03214 0.51578,-2.29365 z"
         style="fill:#cbcbcb;fill-opacity:1;stroke-width:0.51272714"
         inkscape:connector-curvature="0" />
      <path
         id="path54175"
         d="m -69.702797,234.58781 c -4.81202,-1.26324 -8.31193,-3.30542 -12.13189,-7.07889 -5.81367,-5.74292 -8.33737,-12.23065 -7.8355,-20.14283 0.27821,-4.38588 1.16749,-7.84743 1.90095,-7.39946 0.22048,0.13466 0.51511,1.45324 0.65474,2.93017 0.13962,1.47694 0.5342,3.37343 0.87684,4.21444 0.59382,1.45752 0.65673,1.48368 1.34392,0.55889 0.70875,-0.95382 0.72624,-0.95382 1.03497,0 0.85184,2.63173 1.32252,3.25518 2.6625,3.52672 3.15876,0.64011 3.99798,1.41352 4.2963,3.9594 0.21978,1.87571 0.70048,2.82656 2.19203,4.33607 1.8967,1.91953 1.9105,1.96446 1.9105,6.21657 0,3.95366 0.1066,4.39302 1.38593,5.71264 1.74489,1.79983 2.22448,1.79993 2.22448,4.5e-4 0,-0.96412 0.58736,-1.99169 1.8052,-3.15818 1.19245,-1.14217 1.8052,-2.20002 1.8052,-3.1165 0,-2.05591 0.51367,-3.02435 1.87555,-3.53603 1.058362,-0.39766 1.219087,-0.7957 1.219087,-3.01916 0,-1.88687 -0.195127,-2.56112 -0.741177,-2.56112 -0.40764,0 -1.52989,-0.82616 -2.49388,-1.8359 -1.61793,-1.69473 -2.02694,-1.8538 -5.31914,-2.06858 -4.98298,-0.3251 -5.54691,-0.48533 -7.09607,-2.01625 -2.06466,-2.04036 -1.8257,-2.93877 0.69288,-2.60494 1.52085,0.2016 2.06308,0.0934 2.06308,-0.41158 0,-0.37678 0.93622,-1.75403 2.08048,-3.06055 1.14426,-1.30653 2.64551,-3.47742 3.33611,-4.8242 1.41273,-2.75507 1.07256,-3.53016 -1.63206,-3.71878 -1.2998,-0.0906 -1.48163,0.0833 -1.62517,1.55445 -0.19438,1.9923 -0.63509,2.05911 -2.4739,0.37503 -1.2996,-1.19025 -1.34893,-1.38079 -0.69281,-2.67593 0.38854,-0.76693 1.17684,-1.78013 1.75178,-2.25154 1.43113,-1.17341 0.88965,-1.50613 -2.94638,-1.81042 -3.16111,-0.25076 -3.37122,-0.19309 -5.31282,1.45808 -2.02155,1.71916 -2.02155,1.71916 0.17837,-0.91262 1.20996,-1.44747 3.05044,-3.12768 4.08997,-3.73379 1.18993,-0.69381 1.64718,-0.81284 1.23441,-0.32134 -1.47187,1.75262 0.8261,2.51299 2.43547,0.80587 0.9794,-1.03889 0.9794,-1.03889 1.95423,0.38227 0.53616,0.78164 1.09089,2.22394 1.23273,3.20511 0.16374,1.13267 0.54033,1.78396 1.03154,1.78396 0.60174,0 0.77366,-0.67961 0.77366,-3.05821 0,-2.82033 -0.0941,-3.07136 -1.20958,-3.22743 -0.90508,-0.12663 -1.14445,-0.41533 -0.95088,-1.14682 0.17709,-0.66926 -0.0108,-0.98347 -0.59563,-0.99621 -1.78793,-0.0389 3.5497,-2.0136 6.30931,-2.33412 3.28134,-0.38112 3.701596,0.18117 1.86239,2.49181 -1.15768,1.45443 -1.34477,3.42511 -0.41262,4.34628 0.48139,0.47572 0.48139,0.74756 0,1.22328 -0.87098,0.86073 -0.77356,3.43932 0.14307,3.78692 0.46967,0.17811 2.0461,-0.85456 4.109343,-2.69192 3.895771,-3.46926 4.313521,-5.02144 1.995089,-7.41287 -1.385926,-1.42957 -1.385926,-1.42957 0.177142,-1.42957 3.610621,0 10.792531,3.39309 13.617064,6.43337 1.25968,1.35589 1.25968,1.35589 -0.249118,0.99703 -1.033483,-0.24582 -2.040848,-0.0757 -3.197699,0.53995 -1.590548,0.84648 -1.745342,0.84836 -2.65799,0.0321 -1.393694,-1.24642 -2.11316,-1.08832 -4.059338,0.892 -2.01653,2.05192 -2.187828,3.19956 -0.567876,3.8046 1.359901,0.50791 1.875941,0.28771 2.36072,-1.00735 0.25735,-0.68749 0.564982,-0.81665 1.124342,-0.47205 0.98201,0.60497 0.0932,2.21412 -1.348311,2.44107 -0.536944,0.0845 -1.499323,0.41044 -2.138618,0.72424 -0.968424,0.47535 -1.362035,0.38515 -2.359234,-0.54064 -1.332925,-1.23747 -1.894018,-1.01024 -1.894018,0.76705 0,0.69507 0.308498,1.1893 0.742366,1.1893 0.542216,0 0.716036,0.56926 0.644715,2.1114 -0.119628,2.58661 0.638784,2.98132 1.812506,0.9433 0.941542,-1.63487 2.318669,-2.00876 2.803159,-0.76105 0.395639,1.01888 2.984618,0.98006 4.604824,-0.069 1.495708,-0.96849 2.062531,-0.68839 1.328577,0.65653 -0.282623,0.51789 -0.639568,1.343 -0.793211,1.83359 -0.335231,1.07042 -3.210011,1.21243 -5.800961,0.28656 -1.436513,-0.51334 -1.840486,-0.47458 -2.656092,0.25485 -0.529048,0.47314 -1.46585,0.86026 -2.08178,0.86026 -1.80497,0 -3.182964,1.76531 -3.182964,4.0776 0,2.78179 1.364635,4.0776 4.294159,4.0776 3.018901,0 4.473234,1.50121 4.475896,4.62015 10e-4,1.32592 0.409647,2.92158 0.987899,3.85873 0.542288,0.87885 1.063636,2.14036 1.158558,2.80335 0.124039,0.86633 0.553352,1.24906 1.526119,1.36052 1.695208,0.19425 3.030532,-1.07544 3.030532,-2.88158 0,-0.75868 0.464195,-1.77219 1.031544,-2.25225 0.813517,-0.68836 1.031544,-1.50359 1.031544,-3.85703 0,-2.33688 0.223758,-3.18431 1.031544,-3.90674 1.468486,-1.31331 1.281183,-2.17685 -0.644715,-2.97241 -1.829093,-0.75557 -3.308456,-2.21061 -2.779269,-2.73357 0.183383,-0.18122 0.86968,0.16837 1.525113,0.77687 1.347779,1.25127 3.851296,1.47472 4.27575,0.38164 0.154778,-0.3986 0.02326,-1.20138 -0.292221,-1.78395 -0.871175,-1.60864 0.08639,-1.26872 2.041519,0.72472 0.962317,0.98117 2.201398,1.78395 2.753511,1.78395 0.914428,0 0.976032,0.26106 0.691589,2.93078 -0.688886,6.46577 -3.563258,12.00006 -8.6494,16.65349 -6.528339,5.97294 -16.158335,8.35345 -24.710479,6.10835 z"
         style="fill:#000000;fill-opacity:1;stroke-width:0.51272714"
         inkscape:connector-curvature="0" />
      <path
         id="path54154"
         d="m -42.673768,192.45736 c -0.982541,-1.14683 -0.982541,-1.14683 0.177947,-0.17585 1.090569,0.91247 1.395287,1.32268 0.98254,1.32268 -0.09787,0 -0.620092,-0.51608 -1.160487,-1.14683 z"
         style="fill:#cbcbcb;fill-opacity:1;stroke-width:0.51272714"
         inkscape:connector-curvature="0" />
      <path
         id="path54167"
         d="m -67.639707,234.41169 c -0.76096,-0.22224 -1.20636,-0.67144 -1.08675,-1.09602 0.11147,-0.39568 0.34357,-1.44626 0.51577,-2.3346 0.1722,-0.88835 0.93833,-2.09904 1.70252,-2.69042 1.04408,-0.80798 1.42868,-1.60713 1.54732,-3.21506 0.12247,-1.65987 0.43379,-2.27504 1.38805,-2.74276 1.658724,-0.813 2.105104,-1.62458 2.114455,-3.84435 0.008,-1.9044 -1.038889,-3.47689 -2.314795,-3.47689 -0.38594,0 -1.15888,-0.63449 -1.71766,-1.40998 -1.19197,-1.65426 -4.42605,-2.66762 -8.51356,-2.66762 -2.19663,0 -2.96165,-0.23375 -3.86089,-1.17967 -0.6168,-0.64883 -1.12145,-1.33692 -1.12145,-1.52911 0,-0.54553 1.9644,-0.40988 2.32097,0.16028 0.558,0.89223 1.29274,0.55243 1.9287,-0.89198 0.33944,-0.77092 1.48409,-2.39658 2.54368,-3.61257 2.31087,-2.65198 4.25353,-6.43768 3.84432,-7.4915 -0.60653,-1.56199 -4.80716,-2.36495 -5.23825,-1.0013 -0.82527,2.61052 -0.69872,2.50418 -1.80394,1.51575 -0.91924,-0.82211 -0.94473,-1.00429 -0.24714,-1.76605 0.42781,-0.46715 0.77784,-1.02391 0.77784,-1.23724 0,-0.21332 0.52222,-0.82586 1.16048,-1.3612 1.1411,-0.95708 1.14376,-0.98611 0.15931,-1.73823 -0.63598,-0.48588 -2.13436,-0.76489 -4.10776,-0.76489 -2.92893,0 -3.05622,-0.0497 -2.22608,-0.87013 0.68773,-0.67963 1.01681,-0.73542 1.50311,-0.25485 0.79387,0.78452 2.60912,0.79291 3.39559,0.0157 0.95189,-0.94068 2.60996,0.88066 2.79528,3.0705 0.18069,2.13528 1.69966,2.8382 2.83052,1.30985 1.04662,-1.41448 0.86091,-5.1299 -0.31446,-6.29143 -1.13372,-1.12037 -0.9105,-2.93675 0.40424,-3.28949 2.92978,-0.78605 4.71521,-0.84167 4.71521,-0.14689 0,0.39888 -0.36627,1.02563 -0.81394,1.39279 -0.56636,0.4645 -0.77458,1.37495 -0.68455,2.99318 0.0712,1.2791 -0.0524,2.95806 -0.27447,3.73102 -0.40996,1.4267 0.71417,3.94647 1.76063,3.94647 0.2638,0 2.110531,-1.43354 4.10383,-3.18563 3.315424,-2.91424 3.625063,-3.3559 3.634626,-5.18429 0.0062,-1.19675 -0.351695,-2.39821 -0.892147,-2.99446 -0.881599,-0.97263 -0.860597,-0.98725 0.902601,-0.62844 2.537733,0.51643 8.873988,3.56458 10.027002,4.82365 0.926192,1.01138 0.927064,1.05276 0.02216,1.05276 -0.518062,0 -1.348723,0.36381 -1.845917,0.80847 -0.829877,0.74219 -1.029558,0.71673 -2.435589,-0.31056 -1.814626,-1.32582 -2.336205,-1.1179 -4.930921,1.96565 -1.514534,1.79985 -1.760634,2.38954 -1.329505,3.18562 0.290983,0.53731 0.79941,0.97693 1.12984,0.97693 0.432665,0 0.419792,0.17828 -0.04601,0.63712 -0.517722,0.51 -0.83388,0.39242 -1.584473,-0.58926 -1.134296,-1.48351 -2.443645,-1.16279 -2.920657,0.7154 -0.214732,0.84548 -0.05994,1.62845 0.432583,2.18805 0.421829,0.47929 0.89145,1.84624 1.043593,3.03766 0.232324,1.8193 0.133683,2.16623 -0.61593,2.16623 -1.674996,0 -3.135466,2.16999 -3.135466,4.65873 0,2.99001 1.497353,4.51587 4.431488,4.51587 3.234252,0 4.336642,1.07984 4.336642,4.24794 0,1.6512 0.323936,3.11807 0.853603,3.86538 0.469482,0.66239 0.999896,1.9176 1.178699,2.78934 0.275118,1.34133 0.587413,1.6101 2.031389,1.74827 2.12806,0.20363 3.672891,-1.06982 3.672891,-3.02769 0,-0.91052 0.375729,-1.63089 1.031544,-1.97774 0.864227,-0.45707 1.031544,-1.06722 1.031544,-3.76169 0,-2.5688 0.207619,-3.4018 1.031544,-4.13866 0.571073,-0.51073 1.031544,-1.56986 1.031544,-2.37265 0,-0.79755 0.239576,-1.4501 0.53239,-1.4501 0.29282,0 0.69899,-0.43707 0.902602,-0.97127 0.343576,-0.90139 0.509758,-0.85524 2.309844,0.64161 1.939628,1.61289 1.939628,1.61289 1.379324,4.6666 -2.223659,12.11919 -13.628045,21.31393 -26.167258,21.09726 -1.61717,-0.0279 -3.52055,-0.22027 -4.22973,-0.4274 z"
         style="fill:#fffffb;fill-opacity:1;stroke-width:0.51272714"
         inkscape:connector-curvature="0" />
      <path
         id="path54165"
         d="m -73.436247,232.64342 c -6.05106,-2.4592 -11.53211,-7.98445 -13.82855,-13.94006 -1.60891,-4.17255 -2.32276,-9.51794 -1.72243,-12.8978 0.49235,-2.77192 0.49235,-2.77192 1.57099,0.0314 0.62228,1.61731 1.55076,3.04291 2.19456,3.36958 0.61376,0.31142 1.64441,1.05686 2.29032,1.65652 0.64592,0.59967 1.76173,1.0903 2.47959,1.0903 1.8015,0 3.01239,1.50612 3.01239,3.74685 0,1.48796 0.43249,2.34631 2.06308,4.09446 2.05307,2.2011 2.06309,2.2319 2.06309,6.34213 0,3.89304 0.0919,4.23379 1.60075,5.93198 0.88041,0.99093 1.51868,1.79624 1.41837,1.78959 -0.1003,-0.007 -1.51428,-0.55339 -3.14216,-1.21498 z"
         style="fill:#ffffff;fill-opacity:1;stroke-width:0.51272714"
         inkscape:connector-curvature="0" />
      <path
         id="path54163"
         d="m -54.874351,202.92342 c -1.498659,-0.22436 -1.924558,-1.37271 -0.683641,-1.84329 0.425976,-0.16154 1.081198,0.24392 1.559205,0.96487 0.453462,0.68392 0.761099,1.20912 0.68364,1.16712 -0.07746,-0.042 -0.779099,-0.17192 -1.559204,-0.2887 z"
         style="fill:#cbcbcb;fill-opacity:1;stroke-width:0.51272714"
         inkscape:connector-curvature="0" />
      <path
         id="path54152"
         d="m -51.263947,202.95092 c 0.354593,-0.1414 0.934837,-0.1414 1.28943,0 0.354594,0.1414 0.06447,0.25709 -0.644715,0.25709 -0.709186,0 -0.999308,-0.11569 -0.644715,-0.25709 z"
         style="fill:#cbcbcb;fill-opacity:1;stroke-width:0.51272714"
         inkscape:connector-curvature="0" />
    </g>
  </g>
  <g
     inkscape:groupmode="layer"
     id="layer10"
     inkscape:label="icon_office"
     style="display:inline">
    <g
       transform="matrix(0.18305115,0,0,0.1651771,-46.105739,-23.454333)"
       id="g2455">
      <path
         inkscape:connector-curvature="0"
         id="path53927"
         d="m 338.30358,275.11866 c -2.54276,-1.64035 -4.50285,-4.35463 -6.11053,-8.46166 -1.60184,-4.09212 -1.85063,-8.19879 -0.78718,-12.99436 0.89509,-4.03648 1.35371,-4.71935 16.38649,-24.39965 9.85899,-12.90696 16.26402,-20.75065 17.66794,-21.63639 4.38492,-2.76648 7.82567,-1.21847 13.81827,6.21696 4.65935,5.78121 7.25205,11.03368 8.12564,16.46167 1.09182,6.78398 0.46816,8.01103 -13.49368,26.54925 -10.13396,13.45566 -12.51274,16.27126 -13.72993,16.25115 -1.96017,-0.0323 -3.34889,-2.68328 -2.63537,-5.03061 0.28056,-0.92297 3.58381,-5.63601 7.34057,-10.4734 3.75675,-4.83741 9.04754,-11.91182 11.7573,-15.7209 4.19593,-5.89821 4.91945,-7.26564 4.877,-9.21748 -0.077,-3.53305 -1.55358,-6.56537 -6.27309,-12.88135 -3.17757,-4.25241 -4.70308,-5.80489 -5.70395,-5.80489 -1.06695,0 -4.60327,4.20095 -16.14023,19.17371 -8.12566,10.54555 -15.15376,20.11223 -15.61803,21.2593 -1.74326,4.30716 -0.60169,10.09675 2.605,13.21156 1.30138,1.26409 1.53449,1.28783 2.96939,0.30235 2.13429,-1.4658 25.04227,-31.59241 25.04227,-32.93346 0,-3.63235 -1.40144,-2.29481 -11.55741,11.03037 -4.84247,6.35358 -9.38575,11.83767 -10.09617,12.18684 -2.29603,1.12858 -4.866,-2.03993 -3.7866,-4.66844 1.03158,-2.51212 19.82406,-26.39522 21.50864,-27.33503 3.53639,-1.97294 7.48026,-0.51187 9.13992,3.38602 1.02295,2.40252 0.87484,6.77317 -0.34046,10.04494 -1.44431,3.88843 -25.01082,34.42818 -27.69494,35.8898 -2.67281,1.45545 -4.54729,1.3507 -7.27086,-0.4063 z"
         style="fill:#000000;fill-opacity:1;stroke-width:0.61634219" />
    </g>
  </g>
  <g
     inkscape:groupmode="layer"
     id="layer11"
     inkscape:label="icon_science"
     style="display:inline">
    <path
       inkscape:connector-curvature="0"
       id="path55131"
       d="m 15.016226,22.938323 c -0.151702,-0.0598 -0.360374,-0.20228 -0.463718,-0.31665 l -0.1879,-0.20794 -0.0064,-0.27489 -0.0064,-0.27489 1.660427,-2.60181 1.660426,-2.60182 v -0.97607 -0.97607 l -0.21162,-0.0401 -0.21162,-0.0401 v -0.19629 -0.19629 l 0.204666,-0.0794 0.204662,-0.0794 h 1.865576 1.865582 l 0.204662,0.0794 0.204665,0.0794 v 0.19151 0.19152 l -0.158718,0.0442 -0.158712,0.0442 v 0.97459 0.97458 l 1.651879,2.60404 1.651876,2.60404 -0.0051,0.28297 -0.0051,0.28298 -0.181151,0.20047 c -0.09964,0.11026 -0.314562,0.25049 -0.477615,0.31163 l -0.296466,0.11117 -4.264098,-0.003 -4.264076,-0.003 -0.275817,-0.10871 z m 5.535325,-3.40286 c 0.73951,-0.17517 1.433886,-0.31848 1.543058,-0.31848 0.10917,0 0.225452,-0.0196 0.258407,-0.0434 0.03295,-0.0239 -0.292409,-0.59882 -0.723032,-1.27761 l -0.782953,-1.23416 v -0.94738 -0.94739 h -1.269718 -1.269708 v 0.95046 0.95046 l -0.898392,1.40114 c -0.494113,0.77062 -0.910735,1.4559 -0.925828,1.52285 l -0.02744,0.12171 0.634858,0.093 0.634853,0.093 0.740664,-0.0229 0.740667,-0.0229 z m -1.38583,-6.02638 c -0.341526,-0.13726 -0.532423,-0.40816 -0.536939,-0.76198 l -0.0038,-0.29361 0.309288,-0.22427 0.309288,-0.22427 0.457831,0.002 0.457828,0.002 0.225685,0.13256 c 0.306158,0.17982 0.462076,0.41961 0.462076,0.71062 v 0.24288 l -0.359751,0.26086 -0.359752,0.26086 -0.354466,-0.003 c -0.19495,-10e-4 -0.468252,-0.0485 -0.607339,-0.10435 z m 0.875606,-0.20978 0.262352,-0.0867 0.122527,-0.21448 0.122522,-0.21449 -0.142071,-0.21494 -0.142072,-0.21493 -0.286466,-0.0731 -0.286467,-0.073 -0.270343,0.0893 -0.270347,0.0893 -0.11768,0.18728 -0.117681,0.18728 0.06768,0.19553 0.06767,0.19553 0.289632,0.11395 c 0.355675,0.13994 0.375482,0.14088 0.700739,0.0334 z m 1.12489,-1.20623 c -0.200904,-0.0781 -0.455373,-0.22955 -0.565487,-0.33649 l -0.200208,-0.19444 -0.04704,-0.33484 -0.04704,-0.33484 0.19094,-0.26701 0.19094,-0.267 0.359529,-0.17416 0.359531,-0.17416 h 0.444849 0.444849 l 0.359531,0.17416 0.359525,0.17416 0.185008,0.267 c 0.237278,0.34246 0.234827,0.66118 -0.0076,0.99708 l -0.193,0.26733 -0.464285,0.17263 c -0.564238,0.2098 -0.890405,0.21708 -1.369978,0.0306 z m 1.487723,-0.38911 0.309288,-0.22427 v -0.34081 -0.34082 l -0.213274,-0.1966 -0.213271,-0.1966 -0.369312,-0.0884 -0.369309,-0.0884 -0.396157,0.14037 -0.396156,0.14037 -0.193581,0.28725 -0.193585,0.28726 0.121887,0.26779 0.121878,0.26779 0.27114,0.15465 0.271133,0.15464 h 0.470012 0.470016 z m -4.452146,-0.23608 -0.21162,-0.15344 v -0.17474 c 0,-0.0961 0.07412,-0.25147 0.164715,-0.34526 l 0.164713,-0.17052 h 0.356776 0.356774 l 0.16627,0.12057 c 0.260292,0.18874 0.25201,0.52329 -0.01838,0.74257 l -0.165564,0.13427 h -0.301031 -0.301028 z m 0.885451,-0.16231 0.15678,-0.1623 -0.08284,-0.16377 -0.08284,-0.16377 -0.285962,-0.0247 -0.285959,-0.0247 -0.152316,0.0917 c -0.337664,0.2032 -0.111609,0.60994 0.338989,0.60994 h 0.237358 z"
       style="fill:#000000;fill-opacity:1;stroke-width:0.09010038" />
  </g>
  <g
     inkscape:groupmode="layer"
     id="layer12"
     inkscape:label="icon_server"
     style="display:inline">
    <g
       id="g55219"
       transform="matrix(0.07288555,0,0,0.05540308,49.921805,7.7326885)">
      <path
         id="path55207"
         style="fill:#000003;fill-opacity:1;stroke-width:0.26458332"
         d="m -423.12973,295.18552 c -5.623,-0.63783 -5.26394,-8.98508 -11.30489,-6.92248 -23.03562,0 -46.07123,0 -69.10685,0 -5.4386,-2.56394 -0.7711,-8.24274 3.54951,-6.61459 23.28774,0 46.57548,0 69.86322,0 1.25558,-3.23993 3.8929,-5.87322 7.20684,-6.97349 0,-8.17064 0,-16.34128 0,-24.51192 -29.17353,-0.10359 -58.39941,0.20686 -87.54027,-0.1551 -7.44947,-1.15875 -12.26736,-8.70054 -11.03347,-15.90409 0.27466,-9.93899 -0.80635,-19.97555 0.4204,-29.84602 2.26186,-7.08865 10.02644,-10.24449 16.9992,-9.39271 27.05138,0 54.10276,0 81.15414,0 0,-3.96875 0,-7.9375 0,-11.90625 -29.11809,-0.0848 -58.27102,0.16921 -87.36738,-0.12684 -7.51764,-0.93762 -12.45622,-8.69608 -11.20636,-15.93235 0.27466,-9.93899 -0.80635,-19.97555 0.4204,-29.84602 2.2034,-6.8624 9.64071,-10.17406 16.47007,-9.37513 27.22775,-0.004 54.45551,-0.0106 81.68327,-0.0175 0,-3.96875 0,-7.9375 0,-11.90625 -29.2538,-0.10884 -58.56351,0.20959 -87.78238,-0.16628 -7.31016,-1.18731 -12.00236,-8.79506 -10.79136,-15.89263 0.27466,-9.93899 -0.80635,-19.97555 0.4204,-29.84602 2.20734,-6.83886 9.61239,-10.20245 16.4403,-9.3925 58.17698,0.0627 116.37064,-0.10939 174.53722,0.0998 7.80817,0.25158 13.78896,7.8877 12.75803,15.5341 -0.20181,9.91819 0.18244,19.94464 -0.37941,29.79631 -1.85359,7.46663 -9.69522,10.89595 -16.75156,9.86194 -27.19066,0.002 -54.38132,0.004 -81.57198,0.006 0,3.96875 0,7.9375 0,11.90625 28.67477,0.11451 57.3801,-0.0928 86.03417,0.13073 8.07639,0.24125 13.86328,8.35166 12.66547,16.12621 -0.20071,9.71047 0.18492,19.52926 -0.376,29.17318 -1.85359,7.46664 -9.69522,10.89595 -16.75156,9.86194 -27.19066,0.002 -54.38132,0.004 -81.57198,0.006 1.09284,3.95093 -3.22217,13.22843 3.30346,11.94402 27.66051,0.0985 55.35352,-0.27037 82.99384,0.11813 7.96816,0.38374 13.5738,8.42598 12.40195,16.10096 -0.20071,9.71047 0.18492,19.52927 -0.376,29.17319 -1.90186,7.66518 -10.02137,10.85833 -17.1745,9.86783 -27.04969,0 -54.09937,0 -81.14906,0 0.002,8.15799 0.004,16.31597 0.006,24.47396 3.24468,1.18546 6.02816,3.70849 7.16155,7.01145 24.33908,0 48.67816,0 73.01724,0 5.37513,1.04009 1.91618,8.46691 -2.68187,6.61459 -23.4327,0 -46.86541,0 -70.29812,0 -1.95967,5.89069 -8.56015,8.81657 -14.29168,6.92235 z m 5.31378,-6.2216 c 5.36346,-1.77155 2.12199,-9.75357 -2.72809,-8.10828 -5.22633,0.80281 -3.85742,8.9838 1.24697,8.42654 l 1.48112,-0.31823 z m -76.0142,-55.46963 c 1.66048,-4.50337 -5.77457,-2.03683 -8.3997,-2.64584 -3.19158,-1.84862 -6.07071,3.26584 -1.91368,3.175 3.31611,-0.34653 7.38548,0.69688 10.31338,-0.52916 z m 21.90155,0.11729 c 2.44317,-3.46078 -3.7308,-2.90074 -5.84828,-2.76313 -2.10959,-0.10778 -8.42703,-0.67845 -5.94023,2.76313 3.46539,0.98739 7.51793,0.11304 11.20047,0.41187 l 0.5104,-0.35749 z m 22.3487,-0.41498 c 0.93863,-4.03737 -6.11338,-1.76021 -8.70894,-2.34586 -6.48399,-0.93649 -2.75106,5.41095 1.99738,3.11964 2.09554,-0.42331 5.21327,0.76625 6.71156,-0.77378 z m 103.50874,-2.10224 c 7.02744,-2.15143 8.09104,-12.92136 1.46249,-16.27445 -6.07609,-4.2342 -15.70232,1.60045 -14.14702,9.07273 0.42861,5.72152 7.56495,9.35791 12.68453,7.20172 z m -6.14605,-3.1868 c -5.45808,-2.07833 -3.87735,-10.91129 1.97992,-11.2081 5.80346,-1.19396 9.47648,7.40386 4.47105,10.78129 -1.88078,1.09414 -4.49749,1.51167 -6.45097,0.42681 z m -141.61294,-4.20286 c 1.70399,-4.3414 -5.27225,-2.15572 -7.84464,-2.64583 -3.44462,-1.94953 -6.9333,3.22271 -2.16843,3.175 3.20379,-0.36107 7.20271,0.71663 10.01307,-0.52917 z m 21.90155,0.11729 c 2.44316,-3.46077 -3.73081,-2.90073 -5.84828,-2.76312 -2.10958,-0.10778 -8.42703,-0.67846 -5.94023,2.76312 3.46538,0.98741 7.51793,0.11304 11.20047,0.41188 l 0.51039,-0.35749 z m 22.18004,-0.25398 c 1.44514,-4.15792 -5.92223,-1.99963 -8.642,-2.50914 -6.0168,-1.40694 -3.23639,5.40971 1.46612,3.175 2.28034,-0.3815 5.37445,0.81308 7.17588,-0.66586 z m -43.92753,-9.7696 c 0.76375,-4.73425 -6.32902,-1.67823 -9.24501,-2.52912 -4.56785,-1.53889 -3.94807,4.93741 0.33844,3.16152 2.81323,-0.37444 6.56138,0.58401 8.90657,-0.6324 z m 21.74749,0.234 c 2.44316,-3.46078 -3.73081,-2.90072 -5.84828,-2.76312 -2.34088,-0.27759 -9.02906,-0.45032 -5.46993,3.175 3.69415,-0.28477 7.85472,0.55906 11.31821,-0.41188 z m 22.18004,-0.25399 c 1.44514,-4.1579 -5.92223,-1.99962 -8.642,-2.50913 -5.30054,-1.67736 -4.20164,5.03439 0.5558,3.175 2.56898,-0.40761 6.00748,0.86042 8.0862,-0.66587 z m -44.08159,-47.4883 c 1.18812,-4.93679 -6.6368,-1.74522 -9.61996,-2.64583 -4.16461,-1.17474 -3.16554,4.91815 0.55286,3.175 2.89845,-0.33952 6.56024,0.69036 9.0671,-0.52917 z m 21.90155,0.11729 c 2.44316,-3.46078 -3.73081,-2.90072 -5.84828,-2.76312 -2.10958,-0.10777 -8.42703,-0.67846 -5.94023,2.76312 3.46538,0.98741 7.51793,0.11304 11.20047,0.41188 l 0.51039,-0.35749 z m 22.3487,-0.41498 c 0.93862,-4.03737 -6.11338,-1.76021 -8.70894,-2.34586 -6.48399,-0.93649 -2.75105,5.41094 1.99738,3.11963 2.09554,-0.4233 5.21327,0.76624 6.71156,-0.77377 z m 104.23534,-2.4307 c 6.70307,-2.63115 6.99507,-13.22802 0.31739,-16.12932 -6.13555,-3.88577 -15.21285,1.9916 -13.72852,9.25561 0.49375,6.13034 8.20261,9.56307 13.41113,6.87371 z m -6.66892,-2.72052 c -7.01753,-2.54281 -2.65297,-13.20958 3.79938,-11.24827 5.904,0.64923 6.51878,9.91393 0.80741,11.42876 -1.37655,0.33878 -3.28332,0.47169 -4.60679,-0.18049 z m -141.81667,-4.34067 c 1.70399,-4.3414 -5.27225,-2.15572 -7.84464,-2.64583 -3.44463,-1.94953 -6.9333,3.22271 -2.16843,3.175 3.20379,-0.36107 7.20271,0.71663 10.01307,-0.52917 z m 21.90155,0.11729 c 2.44317,-3.46078 -3.73081,-2.90072 -5.84828,-2.76312 -2.10958,-0.10777 -8.42703,-0.67846 -5.94023,2.76312 3.46538,0.98741 7.51793,0.11304 11.20047,0.41188 l 0.51039,-0.35749 z m 22.2693,-0.29116 c 1.11353,-4.20603 -5.99567,-1.90336 -8.73126,-2.47196 -6.01681,-1.40694 -3.23639,5.40971 1.46612,3.175 2.2791,-0.41081 5.57582,0.86316 7.26514,-0.70304 z m -44.01679,-9.73243 c 0.76374,-4.73425 -6.32902,-1.67823 -9.24501,-2.52912 -4.56785,-1.53889 -3.94807,4.93741 0.33844,3.16152 2.81327,-0.37435 6.5612,0.58381 8.90657,-0.6324 z m 21.74749,0.23401 c 2.44317,-3.46078 -3.7308,-2.90074 -5.84828,-2.76313 -2.34087,-0.2776 -9.02906,-0.45031 -5.46993,3.175 3.69415,-0.28477 7.85471,0.55905 11.31821,-0.41187 z m 22.18004,-0.25399 c 1.44514,-4.15792 -5.92223,-1.99963 -8.642,-2.50914 -5.30054,-1.67736 -4.20164,5.03439 0.5558,3.175 2.56899,-0.40761 6.00746,0.8604 8.0862,-0.66586 z m -44.08159,-47.4883 c 1.18813,-4.93681 -6.63679,-1.74523 -9.61996,-2.64584 -4.1646,-1.17473 -3.16555,4.91815 0.55286,3.175 2.89845,-0.33951 6.56023,0.69034 9.0671,-0.52916 z m 21.90155,0.11729 c 2.44317,-3.46078 -3.7308,-2.90074 -5.84828,-2.76313 -2.10959,-0.10778 -8.42703,-0.67845 -5.94023,2.76313 3.46539,0.98739 7.51793,0.11304 11.20047,0.41187 l 0.5104,-0.35749 z m 22.3487,-0.41498 c 0.93863,-4.03737 -6.11338,-1.76021 -8.70894,-2.34586 -6.48399,-0.93649 -2.75106,5.41095 1.99738,3.11964 2.09554,-0.42331 5.21327,0.76625 6.71156,-0.77378 z m 103.50874,-2.10224 c 7.01487,-2.14917 8.09719,-12.8919 1.47474,-16.25222 -6.07393,-4.29832 -15.69794,1.58831 -14.15927,9.0505 0.42861,5.72154 7.56494,9.35788 12.68453,7.20172 z m -5.81003,-2.99462 c -6.10052,-2.23836 -4.10929,-11.23363 1.82521,-11.53259 5.3541,-0.75992 9.16748,6.71561 4.84116,10.26939 -1.5109,1.83888 -4.57849,2.01183 -6.66637,1.2632 z m -141.94896,-4.39504 c 1.70399,-4.3414 -5.27225,-2.15572 -7.84464,-2.64583 -3.44463,-1.94953 -6.9333,3.22271 -2.16843,3.175 3.20379,-0.36107 7.20271,0.71663 10.01307,-0.52917 z m 21.90155,0.11729 c 2.44316,-3.46078 -3.73081,-2.90072 -5.84828,-2.76312 -2.10958,-0.10777 -8.42703,-0.67846 -5.94023,2.76312 3.46538,0.98741 7.51793,0.11304 11.20047,0.41188 l 0.51039,-0.35749 z m 22.18004,-0.25398 c 1.44515,-4.15792 -5.92223,-1.99963 -8.642,-2.50914 -6.0168,-1.40694 -3.23639,5.40971 1.46612,3.175 2.28034,-0.3815 5.37445,0.81308 7.17588,-0.66586 z m -43.92753,-9.76961 c 0.76374,-4.73424 -6.32902,-1.67822 -9.24501,-2.52911 -4.56785,-1.53891 -3.94807,4.93744 0.33844,3.16147 2.81331,-0.37437 6.56103,0.58365 8.90657,-0.63236 z m 21.74749,0.23401 c 2.44317,-3.46078 -3.73081,-2.90072 -5.84828,-2.76312 -2.34088,-0.27759 -9.02906,-0.45032 -5.46993,3.175 3.69415,-0.28477 7.85472,0.55906 11.31821,-0.41188 z m 22.02305,-0.0671 c 2.48496,-3.73603 -4.4053,-2.57739 -6.6156,-2.69599 -3.43757,-1.80334 -8.69987,2.41124 -3.18303,3.175 3.15349,-0.33823 6.95345,0.66402 9.79863,-0.47901 z"
         inkscape:connector-curvature="0" />
    </g>
  </g>
  <g
     inkscape:groupmode="layer"
     id="layer13"
     inkscape:label="icon_system"
     style="display:inline">
    <g
       id="g53543"
       style="fill:#000000;fill-opacity:1"
       transform="matrix(0.25341017,0,0,0.27251274,-27.614522,-84.260427)">
      <path
         id="path53531"
         d="m 166.36076,393.32227 c -1.75504,-1.02233 -2.98533,-3.61553 -2.60043,-5.48113 0.2742,-1.32897 4.34892,-6.35178 5.15285,-6.35178 0.22971,0 0.75074,0.59791 1.15784,1.32868 0.4071,0.73078 1.06985,1.67021 1.47279,2.08763 0.93947,0.97326 3.80691,2.30724 4.95948,2.30724 1.57133,0 1.43095,0.6749 -0.64975,3.1237 -3.21262,3.78097 -6.40421,4.78479 -9.49278,2.98566 z"
         style="fill:#000000;fill-opacity:1;stroke-width:0.42873418"
         inkscape:connector-curvature="0" />
      <path
         id="path53529"
         d="m 169.67848,390.43369 c 0.69073,-0.62806 0.21021,-1.58548 -0.79574,-1.58548 -0.99124,0 -1.4995,0.6375 -1.15641,1.45047 0.29858,0.7075 1.25016,0.77332 1.95215,0.13501 z"
         style="fill:#000000;fill-opacity:1;stroke-width:0.42873418"
         inkscape:connector-curvature="0" />
      <path
         id="path53527"
         d="m 197.74585,392.90821 c -1.51374,-0.55133 -12.20585,-9.33139 -12.20585,-10.0231 0,-0.58233 0.25583,-0.8993 2.70535,-3.35176 0.73764,-0.73853 1.34116,-1.52041 1.34116,-1.73751 0,-1.13848 2.0015,0.0791 7.42765,4.51856 3.30292,2.70231 6.12942,5.26886 6.28111,5.70345 0.40643,1.16438 -0.59413,4.10871 -1.48037,4.35627 -0.41979,0.11726 -1.11458,0.38374 -1.54398,0.59218 -0.9274,0.45019 -1.14317,0.44522 -2.52507,-0.0581 z"
         style="fill:#000000;fill-opacity:1;stroke-width:0.42873418"
         inkscape:connector-curvature="0" />
      <path
         id="path53525"
         d="m 175.65172,385.33519 c -2.76135,-1.08885 -4.94895,-3.52084 -4.94895,-5.50182 0,-0.79921 7.41499,-9.79111 8.07404,-9.79111 0.153,0 1.04549,0.83468 1.98332,1.85484 0.93782,1.02016 2.80159,2.4175 4.14171,3.1052 1.34012,0.68771 2.52744,1.38405 2.63848,1.54743 0.11105,0.16337 -1.61398,2.35347 -3.83339,4.86688 -4.40623,4.98989 -4.82351,5.19288 -8.05521,3.91858 z"
         style="fill:#000000;fill-opacity:1;stroke-width:0.42873418"
         inkscape:connector-curvature="0" />
      <path
         id="path53523"
         d="m 188.17484,374.30722 c -2.67709,-0.74943 -6.27313,-3.68089 -7.6085,-6.20238 -2.04149,-3.85478 -1.19427,-9.22044 1.99807,-12.65434 1.90944,-2.05393 6.19691,-3.80536 9.31545,-3.80536 1.42963,0 2.71261,0.16668 2.85107,0.37039 0.13847,0.20371 -1.26588,2.06052 -3.12075,4.12623 -3.12916,3.48485 -3.37251,3.89404 -3.37251,5.67103 0,3.02698 2.16738,4.95887 5.56334,4.95887 1.90176,0 3.28253,-0.9954 6.79326,-4.89727 1.42046,-1.57872 2.83959,-2.8704 3.15363,-2.8704 0.77953,0 1.11285,1.34447 1.11492,4.49708 0.005,7.82336 -8.24936,13.1685 -16.68798,10.80615 z"
         style="fill:#000000;fill-opacity:1;stroke-width:0.42873418"
         inkscape:connector-curvature="0" />
      <path
         id="path53519"
         d="m 171.0534,368.49238 c -1.66181,-1.28367 -3.63449,-2.76188 -4.38373,-3.2849 -1.57038,-1.09624 -1.72942,-2.0952 -0.49526,-3.11079 1.10995,-0.91336 2.53912,-0.5295 3.54775,0.95288 0.41569,0.61094 1.96975,2.10173 3.45348,3.31285 2.90903,2.37457 3.2932,2.98549 2.45494,3.9039 -0.84054,0.92091 -1.33823,0.72803 -4.57718,-1.77394 z"
         style="fill:#000000;fill-opacity:1;stroke-width:0.42873418"
         inkscape:connector-curvature="0" />
    </g>
  </g>
  <g
     inkscape:groupmode="layer"
     id="layer14"
     inkscape:label="icon_utilities"
     style="display:inline">
    <path
       style="fill:#000000;fill-opacity:1;stroke-width:0.13434657"
       clip-path="none"
       d="m 23.58184,10.450486 c -0.0527,0.002 -0.104463,0.0156 -0.154259,0.0411 -0.145666,0.0745 -1.156971,1.18501 -2.247372,2.46778 -1.090404,1.28276 -2.058322,2.33227 -2.150867,2.33227 -0.09254,0 -1.03017,-1.02712 -2.08367,-2.28259 -1.0535,-1.25548 -2.034354,-2.35349 -2.179613,-2.44 -0.606695,-0.36133 -1.06111,0.19179 -1.153464,1.40388 -0.0581,0.76247 -0.01448,0.9748 0.335683,1.63298 0.613187,1.15254 1.857736,2.03986 3.483243,2.4835 0.307332,0.0839 0.595073,0.23225 0.639425,0.32974 0.09215,0.20256 -0.344167,0.66167 -0.628852,0.66167 -0.10442,0 -0.401499,0.22206 -0.660114,0.49351 -0.39387,0.41342 -0.556995,0.49362 -1.004778,0.49362 -2.133168,0 -3.769478,1.73683 -3.213719,3.4112 0.233967,0.70488 1.016758,1.47549 1.822559,1.79436 0.860181,0.34037 2.188296,0.25864 2.980343,-0.18349 0.938965,-0.52415 1.390817,-1.19937 1.452431,-2.17049 0.04396,-0.6928 -0.0052,-0.90544 -0.327157,-1.41116 -0.352482,-0.55374 -0.363681,-0.61848 -0.158918,-0.9254 0.121091,-0.18151 0.284861,-0.48271 0.363874,-0.66934 0.21537,-0.50869 0.467951,-0.41152 0.967723,0.37225 0.451095,0.70743 0.451075,0.70747 0.09844,1.26272 -0.493768,0.77747 -0.427929,1.9594 0.150165,2.69626 1.159747,1.47825 3.514566,1.67641 4.970362,0.41825 0.554522,-0.47924 0.985566,-1.29897 0.985566,-1.87421 0,-1.45227 -1.58524,-2.718 -3.406857,-2.72025 -0.455986,-5.82e-4 -0.653156,-0.0884 -1.110955,-0.49432 -0.306134,-0.27145 -0.654478,-0.49351 -0.774022,-0.49351 -0.252862,0 -0.634877,-0.53739 -0.506539,-0.71255 0.04801,-0.0655 0.469908,-0.23978 0.937489,-0.38728 2.349407,-0.74113 3.766727,-2.51675 3.468588,-4.34526 -0.110741,-0.6792 -0.525818,-1.20173 -0.894739,-1.18526 z m -4.524079,5.54386 c 0.193907,0.002 0.393285,0.11437 0.338303,0.25368 -0.08142,0.20626 -0.495292,0.2649 -0.624537,0.0885 -0.05681,-0.0775 -0.03445,-0.19894 0.04968,-0.2699 0.06143,-0.0518 0.148421,-0.0734 0.236559,-0.0723 z m -3.462553,3.1841 c 1.020672,0 1.934155,0.76312 1.935211,1.61665 6.35e-4,0.5149 -0.494901,1.20612 -1.027741,1.43355 -1.199257,0.51187 -2.77493,-0.28941 -2.77493,-1.41115 0,-0.78174 0.976805,-1.63905 1.86746,-1.63905 z m 7.055514,0 c 0.69454,0 0.818702,0.0445 1.333758,0.47898 0.499033,0.42095 0.567922,0.54956 0.567922,1.06061 0,0.66475 -0.30713,1.18191 -0.860979,1.44988 -1.424307,0.68913 -2.942273,-0.0473 -2.942273,-1.42738 0,-0.53711 0.06292,-0.65713 0.567925,-1.08311 0.515052,-0.43445 0.639104,-0.47898 1.333647,-0.47898 z"
       id="path53795"
       inkscape:connector-curvature="0" />
  </g>
  <g
     inkscape:groupmode="layer"
     id="layer15"
     inkscape:label="icon_multimedia"
     style="display:inline">
    <path
       inkscape:connector-curvature="0"
       id="path53394"
       d="m 21.511669,23.32761 c -1.651417,-0.76426 -0.224684,-2.951191 1.220316,-2.91777 2.167086,0.19296 1.383644,-2.40121 1.564468,-3.70929 0.03473,-1.45901 -0.0085,-2.9294 0.170337,-4.37871 1.381047,0.17828 2.700004,1.18283 3.310096,2.41976 0.634468,1.5369 0.695729,3.69209 -0.775448,4.79552 0.205159,-1.12911 -0.341069,-3.61426 -1.785902,-3.47032 -0.337575,2.11004 0.07828,4.31163 -0.494558,6.38078 -0.664703,0.95544 -2.133373,1.23588 -3.209309,0.88003 z m -4.137314,-1.72927 c -3.540685,-0.94176 -5.230472,-5.4464 -3.259433,-8.41515 1.727002,-2.903561 6.25869,-3.6965207 8.8159,-1.38454 1.788307,1.30073 -0.34218,2.56198 -1.515379,3.21708 -0.219071,1.28827 2.857727,-1.13163 2.186702,1.0226 -0.332892,1.11474 0.817,3.6111 -0.820294,3.751449 -1.709417,-0.0423 -2.143507,2.191361 -3.723406,2.054821 -0.567562,-0.0139 -1.140645,-0.0822 -1.68409,-0.24626 z M 16.92972,18.77402 c 1.305917,-0.88189 0.0461,-2.1935 -1.067879,-1.3004 -2.295363,0.0265 0.0039,3.34657 0.922434,1.46979 z m 3.186375,-1.72134 c 1.657839,-1.32454 -1.448071,-3.46324 -2.222437,-1.48496 -0.739761,1.30373 1.242696,2.69629 2.222437,1.48496 z M 17.960039,14.3131 c 1.308783,-0.49719 0.100632,-3.892211 -1.348486,-2.2642 -1.218877,0.44319 -1.574325,1.65747 -0.153716,2.12288 0.558321,0.43183 0.89263,0.79315 1.502202,0.14132 z"
       style="fill:#000000;stroke-width:0.14142624" />
  </g>
</svg>
