<?xml version="1.0" encoding="UTF-8" standalone="no"?>
<!-- Created with Inkscape (http://www.inkscape.org/) -->

<svg
   xmlns:dc="http://purl.org/dc/elements/1.1/"
   xmlns:cc="http://creativecommons.org/ns#"
   xmlns:rdf="http://www.w3.org/1999/02/22-rdf-syntax-ns#"
   xmlns:svg="http://www.w3.org/2000/svg"
   xmlns="http://www.w3.org/2000/svg"
   xmlns:sodipodi="http://sodipodi.sourceforge.net/DTD/sodipodi-0.dtd"
   xmlns:inkscape="http://www.inkscape.org/namespaces/inkscape"
   width="150"
   height="150"
   viewBox="0 0 39.687499 39.687501"
   version="1.1"
   id="svg922"
   inkscape:version="0.92.4 (5da689c313, 2019-01-14)"
   sodipodi:docname="USO_GRAPHICS_background_and_toonbox.svg">
  <defs
     id="defs916">
    <clipPath
       clipPathUnits="userSpaceOnUse"
       id="clipPath1521">
      <rect
         style="opacity:0.875;fill:#000000;fill-opacity:1;stroke:#000000;stroke-width:0.60403091;stroke-linejoin:round;stroke-miterlimit:4;stroke-dasharray:none;stroke-opacity:1"
         id="rect1523"
         width="172.87534"
         height="151.42299"
         x="57.114269"
         y="66.644836" />
    </clipPath>
  </defs>
  <sodipodi:namedview
     id="base"
     pagecolor="#ffffff"
     bordercolor="#666666"
     borderopacity="1.0"
     inkscape:pageopacity="0.0"
     inkscape:pageshadow="2"
     inkscape:zoom="1.1519081"
     inkscape:cx="206.006"
     inkscape:cy="67.224109"
     inkscape:document-units="mm"
     inkscape:current-layer="layer1"
     showgrid="false"
     inkscape:window-width="1262"
     inkscape:window-height="792"
     inkscape:window-x="2235"
     inkscape:window-y="62"
     inkscape:window-maximized="0"
     units="px" />
  <metadata
     id="metadata919">
    <rdf:RDF>
      <cc:Work
         rdf:about="">
        <dc:format>image/svg+xml</dc:format>
        <dc:type
           rdf:resource="http://purl.org/dc/dcmitype/StillImage" />
        <dc:title></dc:title>
      </cc:Work>
    </rdf:RDF>
  </metadata>
  <g
     inkscape:label="Layer 1"
     inkscape:groupmode="layer"
     id="layer1"
     transform="translate(0,-257.31248)">
    <g
       id="g1031"
       transform="matrix(0.29810629,0,0,0.28984518,-10.572748,244.26355)">
      <path
         sodipodi:nodetypes="cccsc"
         inkscape:connector-curvature="0"
         id="rect49496"
         d="m 40.541649,79.335309 c 2.80732,-6.317614 108.472621,-6.074633 123.530051,0 4.5938,4.373733 6.63549,65.541321 -1.78648,66.513261 -7.91153,7.77553 -117.398454,6.1941 -122.509204,2.18686 -3.825143,-2.9992 -5.359428,-65.541314 0.765633,-68.700121 z"
         style="opacity:0.875;fill:#999999;fill-opacity:1;stroke:none;stroke-width:0.40600324;stroke-linejoin:round;stroke-miterlimit:4;stroke-dasharray:none;stroke-opacity:0.97175137" />
      <path
         inkscape:connector-curvature="0"
         id="path49494"
         d="m 41.515717,150.96879 c -5.507184,-2.22305 -6.049347,-5.50145 -6.049347,-36.57973 0,-29.733461 0,-29.733461 3.974431,-33.36108 2.18594,-1.995188 6.396428,-4.188245 9.356647,-4.873451 3.402268,-0.787527 24.249485,-1.245399 56.670472,-1.244663 69.024,0.0013 63.36037,-3.412696 62.78997,37.852504 -0.41236,29.83272 -0.41236,29.83272 -3.87779,33.40508 -1.90598,1.96481 -5.721,4.15299 -8.47784,4.86263 -6.61702,1.70333 -110.152487,1.64784 -114.386543,-0.0613 z m 116.461643,-3.64957 c 6.90163,-3.77461 7.78892,-7.61481 7.78892,-33.71112 0,-26.658265 -0.87856,-30.145852 -8.58015,-34.060309 -4.38232,-2.227388 -6.88024,-2.332355 -55.59902,-2.336486 -42.552236,-0.0039 -51.67474,0.28201 -55.016081,1.722465 -8.149785,3.513384 -8.332321,4.272983 -8.332321,34.67433 0,29.78332 0.257651,30.98838 7.348474,34.36985 4.327606,2.06374 26.286976,2.69784 70.342788,2.03122 33.93071,-0.51341 38.61573,-0.81313 42.04739,-2.68995 z M 49.882052,144.89229 c -2.363667,-0.85781 -4.699673,-2.43317 -5.191116,-3.50081 -0.73284,-1.59207 -0.237972,-1.51128 2.751823,0.44929 3.15444,2.06854 5.720171,2.40835 19.052805,2.52335 11.972356,0.10326 14.171275,0.34606 9.862796,1.08899 -8.464296,1.45955 -21.680601,1.1796 -26.476308,-0.56082 z M 154.67692,85.873908 c -1.26333,-1.269008 -4.74384,-1.751225 -12.99179,-1.799981 -6.19639,-0.0366 -13.76127,-0.496843 -16.81085,-1.022698 -4.35912,-0.751666 -2.37246,-0.984513 9.29143,-1.08899 14.81004,-0.132662 21.05768,0.998442 22.4707,4.068194 0.94905,2.061795 0.18841,2.001034 -1.95949,-0.156525 z"
         style="fill:#000000;stroke-width:1.26563919" />
      <text
         transform="scale(0.88602741,1.1286333)"
         id="text49550"
         y="125.00746"
         x="74.932625"
         style="font-style:normal;font-variant:normal;font-weight:normal;font-stretch:normal;font-size:16.97093201px;font-family:Insaniburger;-inkscape-font-specification:Insaniburger;opacity:1;vector-effect:none;fill:#000000;fill-opacity:1;stroke:none;stroke-width:0.19887809;stroke-linecap:butt;stroke-linejoin:miter;stroke-miterlimit:4;stroke-dasharray:none;stroke-dashoffset:0;stroke-opacity:1"
         xml:space="preserve"><tspan
           style="font-style:normal;font-variant:normal;font-weight:normal;font-stretch:normal;font-family:Insaniburger;-inkscape-font-specification:Insaniburger;stroke-width:0.19887809"
           y="125.00746"
           x="74.932625"
           id="tspan49548"
           sodipodi:role="line">TEST TEXT</tspan></text>
      <g
         transform="matrix(0.62550222,0,0,0.60298415,137.31195,29.870051)"
         id="g16798">
        <path
           inkscape:connector-curvature="0"
           style="fill:#000005;fill-opacity:1;stroke-width:2.11530161"
           d="m -239.45703,327.62109 c -8.94631,-0.0512 -17.8886,1.0193 -26.63086,3.30664 -62.38088,16.32152 -85.55523,66.03325 -45.58008,97.77735 13.44873,10.67958 15.44713,13.91531 15.38477,24.91211 -0.0527,9.31948 -2.99153,13.60816 -17.48828,25.52539 -37.5365,30.85723 -12.41764,81.15403 48.05468,96.2207 25.13802,6.26317 52.7445,2.60167 79.6875,-10.56836 35.29108,-17.25063 66.8674,-64.09171 66.99024,-99.375 0.0323,-9.2804 2.44177,-13.65597 16.76172,-30.43945 16.71691,-19.59285 35.046553,-44.55303 39.878902,-54.30274 3.242608,-6.54225 3.573819,-8.90706 1.591797,-11.36523 -4.410255,-5.46969 -15.583479,0.91834 -45.929689,26.25781 -7.58143,6.3306 -15.08722,11.5087 -16.67969,11.50586 -1.59242,-0.003 -5.47915,-5.09576 -8.63671,-11.3164 -21.12203,-41.61163 -64.29935,-67.89197 -107.4043,-68.13868 z m 17.23633,40.83008 c 2.86684,0 7.08935,1.93232 9.38281,4.29297 2.29349,2.36066 4.16992,6.70538 4.16992,9.65625 0,2.95083 -1.87643,7.29751 -4.16992,9.6582 -2.29346,2.3607 -6.51597,4.29102 -9.38281,4.29102 -2.86685,0 -7.08936,-1.93032 -9.38282,-4.29102 -2.29349,-2.36069 -4.16992,-6.70737 -4.16992,-9.6582 0,-2.95087 1.87643,-7.29559 4.16992,-9.65625 2.29346,-2.36065 6.51597,-4.29297 9.38282,-4.29297 z m -59.04297,17.38086 c 2.50583,0.0934 5.00143,1.27575 7.54883,3.54297 6.53994,5.82055 7.3338,11.96284 2.38281,18.44141 -5.47389,7.16281 -14.67577,7.61107 -20.6543,1.00586 -5.62193,-6.21117 -5.36472,-11.5191 0.86719,-17.9336 3.39496,-3.49441 6.63369,-5.1767 9.85547,-5.05664 z m 109.78125,19.20899 c 6.65272,0.0755 12.85351,5.46623 12.85351,13.84375 0,5.07756 -1.39737,8.27345 -4.63476,10.60742 -6.80833,4.90847 -13.25754,4.08737 -18.14844,-2.3125 -5.44033,-7.11908 -5.45856,-11.59577 -0.0703,-17.54883 2.90671,-3.21141 6.51524,-4.62938 10,-4.58984 z m -103.90625,94.32031 c 5.96288,0 14.5957,8.25003 14.5957,13.94922 0,1.45217 -1.94558,5.1849 -4.32226,8.29492 -2.86549,3.74955 -6.32648,5.6543 -10.27344,5.6543 -5.96296,0 -14.59375,-8.25 -14.59375,-13.94922 0,-5.69919 8.63079,-13.94922 14.59375,-13.94922 z"
           id="path59299"
           transform="scale(0.26458333)" />
        <path
           id="path59283"
           d="m -52.62579,142.87503 c 3.03625,-1.18077 6.24199,-5.26873 6.24199,-7.95976 0,-1.96697 -4.4568,-6.19942 -6.52803,-6.19942 -2.53554,0 -5.30135,2.74955 -6.13213,6.09606 -0.36934,1.48777 -1.04146,3.78492 -1.49361,5.10478 -0.45214,1.31986 -0.66502,2.66132 -0.47307,2.98101 0.45893,0.76431 6.40255,0.74824 8.38485,-0.0226 z"
           style="fill:#ffffff;fill-opacity:1;stroke:#ffffff;stroke-width:0.55967355;stroke-opacity:1"
           inkscape:connector-curvature="0" />
        <path
           id="path59281"
           d="m -37.66806,124.75342 c 3.46101,-3.89489 8.4596,-9.77089 11.108,-13.05779 7.60938,-9.44396 9.2404,-12.490342 5.65884,-10.56936 -3.29518,1.76737 -27.78954,23.85662 -28.46589,25.67082 -0.39125,1.04943 3.4404,5.42765 4.55645,5.20643 0.46743,-0.0927 3.6816,-3.3552 7.1426,-7.2501 z"
           style="fill:#ffffff;fill-opacity:1;stroke-width:0.55967355"
           inkscape:connector-curvature="0" />
      </g>
    </g>
  </g>
</svg>
