<?xml version="1.0" encoding="UTF-8" standalone="no"?>
<!-- Created with Inkscape (http://www.inkscape.org/) -->

<svg
   xmlns:dc="http://purl.org/dc/elements/1.1/"
   xmlns:cc="http://creativecommons.org/ns#"
   xmlns:rdf="http://www.w3.org/1999/02/22-rdf-syntax-ns#"
   xmlns:svg="http://www.w3.org/2000/svg"
   xmlns="http://www.w3.org/2000/svg"
   xmlns:sodipodi="http://sodipodi.sourceforge.net/DTD/sodipodi-0.dtd"
   xmlns:inkscape="http://www.inkscape.org/namespaces/inkscape"
   width="150"
   height="150"
   viewBox="0 0 39.687499 39.687501"
   version="1.1"
   id="svg922"
   inkscape:version="0.92.4 (5da689c313, 2019-01-14)"
   sodipodi:docname="USO_SYSTEM_background_and_toonbox.svg">
  <defs
     id="defs916">
    <clipPath
       clipPathUnits="userSpaceOnUse"
       id="clipPath1521">
      <rect
         style="opacity:0.875;fill:#000000;fill-opacity:1;stroke:#000000;stroke-width:0.60403091;stroke-linejoin:round;stroke-miterlimit:4;stroke-dasharray:none;stroke-opacity:1"
         id="rect1523"
         width="172.87534"
         height="151.42299"
         x="57.114269"
         y="66.644836" />
    </clipPath>
  </defs>
  <sodipodi:namedview
     id="base"
     pagecolor="#ffffff"
     bordercolor="#666666"
     borderopacity="1.0"
     inkscape:pageopacity="0.0"
     inkscape:pageshadow="2"
     inkscape:zoom="1.7308594"
     inkscape:cx="123.93374"
     inkscape:cy="74.691944"
     inkscape:document-units="mm"
     inkscape:current-layer="layer1"
     showgrid="false"
     inkscape:window-width="1262"
     inkscape:window-height="792"
     inkscape:window-x="2182"
     inkscape:window-y="78"
     inkscape:window-maximized="0"
     units="px" />
  <metadata
     id="metadata919">
    <rdf:RDF>
      <cc:Work
         rdf:about="">
        <dc:format>image/svg+xml</dc:format>
        <dc:type
           rdf:resource="http://purl.org/dc/dcmitype/StillImage" />
        <dc:title></dc:title>
      </cc:Work>
    </rdf:RDF>
  </metadata>
  <g
     inkscape:label="Layer 1"
     inkscape:groupmode="layer"
     id="layer1"
     transform="translate(0,-257.31248)">
    <g
       id="g3145"
       transform="matrix(0.29810629,0,0,0.28984518,-10.572748,244.26355)">
      <path
         sodipodi:nodetypes="cccsc"
         inkscape:connector-curvature="0"
         id="rect49496"
         d="m 40.541649,79.335309 c 2.80732,-6.317614 108.472621,-6.074633 123.530051,0 4.5938,4.373733 6.63549,65.541321 -1.78648,66.513261 -7.91153,7.77553 -117.398454,6.1941 -122.509204,2.18686 -3.825143,-2.9992 -5.359428,-65.541314 0.765633,-68.700121 z"
         style="opacity:0.875;fill:#999999;fill-opacity:1;stroke:none;stroke-width:0.40600324;stroke-linejoin:round;stroke-miterlimit:4;stroke-dasharray:none;stroke-opacity:0.97175137" />
      <path
         inkscape:connector-curvature="0"
         id="path49494"
         d="m 41.515717,150.96879 c -5.507184,-2.22305 -6.049347,-5.50145 -6.049347,-36.57973 0,-29.733461 0,-29.733461 3.974431,-33.36108 2.18594,-1.995188 6.396428,-4.188245 9.356647,-4.873451 3.402268,-0.787527 24.249485,-1.245399 56.670472,-1.244663 69.024,0.0013 63.36037,-3.412696 62.78997,37.852504 -0.41236,29.83272 -0.41236,29.83272 -3.87779,33.40508 -1.90598,1.96481 -5.721,4.15299 -8.47784,4.86263 -6.61702,1.70333 -110.152487,1.64784 -114.386543,-0.0613 z m 116.461643,-3.64957 c 6.90163,-3.77461 7.78892,-7.61481 7.78892,-33.71112 0,-26.658265 -0.87856,-30.145852 -8.58015,-34.060309 -4.38232,-2.227388 -6.88024,-2.332355 -55.59902,-2.336486 -42.552236,-0.0039 -51.67474,0.28201 -55.016081,1.722465 -8.149785,3.513384 -8.332321,4.272983 -8.332321,34.67433 0,29.78332 0.257651,30.98838 7.348474,34.36985 4.327606,2.06374 26.286976,2.69784 70.342788,2.03122 33.93071,-0.51341 38.61573,-0.81313 42.04739,-2.68995 z M 49.882052,144.89229 c -2.363667,-0.85781 -4.699673,-2.43317 -5.191116,-3.50081 -0.73284,-1.59207 -0.237972,-1.51128 2.751823,0.44929 3.15444,2.06854 5.720171,2.40835 19.052805,2.52335 11.972356,0.10326 14.171275,0.34606 9.862796,1.08899 -8.464296,1.45955 -21.680601,1.1796 -26.476308,-0.56082 z M 154.67692,85.873908 c -1.26333,-1.269008 -4.74384,-1.751225 -12.99179,-1.799981 -6.19639,-0.0366 -13.76127,-0.496843 -16.81085,-1.022698 -4.35912,-0.751666 -2.37246,-0.984513 9.29143,-1.08899 14.81004,-0.132662 21.05768,0.998442 22.4707,4.068194 0.94905,2.061795 0.18841,2.001034 -1.95949,-0.156525 z"
         style="fill:#000000;stroke-width:1.26563919" />
      <text
         transform="scale(0.88602741,1.1286333)"
         id="text49550"
         y="125.00746"
         x="74.932625"
         style="font-style:normal;font-variant:normal;font-weight:normal;font-stretch:normal;font-size:16.97093201px;font-family:Insaniburger;-inkscape-font-specification:Insaniburger;opacity:1;vector-effect:none;fill:#000000;fill-opacity:1;stroke:none;stroke-width:0.19887809;stroke-linecap:butt;stroke-linejoin:miter;stroke-miterlimit:4;stroke-dasharray:none;stroke-dashoffset:0;stroke-opacity:1"
         xml:space="preserve"><tspan
           style="font-style:normal;font-variant:normal;font-weight:normal;font-stretch:normal;font-family:Insaniburger;-inkscape-font-specification:Insaniburger;stroke-width:0.19887809"
           y="125.00746"
           x="74.932625"
           id="tspan49548"
           sodipodi:role="line">TEST TEXT</tspan></text>
      <g
         transform="matrix(0.8500665,0,0,0.94020108,-56.249307,-244.49938)"
         style="fill:#000000;fill-opacity:1"
         id="g53543">
        <path
           inkscape:connector-curvature="0"
           style="fill:#000000;fill-opacity:1;stroke-width:0.42873418"
           d="m 166.36076,393.32227 c -1.75504,-1.02233 -2.98533,-3.61553 -2.60043,-5.48113 0.2742,-1.32897 4.34892,-6.35178 5.15285,-6.35178 0.22971,0 0.75074,0.59791 1.15784,1.32868 0.4071,0.73078 1.06985,1.67021 1.47279,2.08763 0.93947,0.97326 3.80691,2.30724 4.95948,2.30724 1.57133,0 1.43095,0.6749 -0.64975,3.1237 -3.21262,3.78097 -6.40421,4.78479 -9.49278,2.98566 z"
           id="path53531" />
        <path
           inkscape:connector-curvature="0"
           style="fill:#000000;fill-opacity:1;stroke-width:0.42873418"
           d="m 169.67848,390.43369 c 0.69073,-0.62806 0.21021,-1.58548 -0.79574,-1.58548 -0.99124,0 -1.4995,0.6375 -1.15641,1.45047 0.29858,0.7075 1.25016,0.77332 1.95215,0.13501 z"
           id="path53529" />
        <path
           inkscape:connector-curvature="0"
           style="fill:#000000;fill-opacity:1;stroke-width:0.42873418"
           d="m 197.74585,392.90821 c -1.51374,-0.55133 -12.20585,-9.33139 -12.20585,-10.0231 0,-0.58233 0.25583,-0.8993 2.70535,-3.35176 0.73764,-0.73853 1.34116,-1.52041 1.34116,-1.73751 0,-1.13848 2.0015,0.0791 7.42765,4.51856 3.30292,2.70231 6.12942,5.26886 6.28111,5.70345 0.40643,1.16438 -0.59413,4.10871 -1.48037,4.35627 -0.41979,0.11726 -1.11458,0.38374 -1.54398,0.59218 -0.9274,0.45019 -1.14317,0.44522 -2.52507,-0.0581 z"
           id="path53527" />
        <path
           inkscape:connector-curvature="0"
           style="fill:#000000;fill-opacity:1;stroke-width:0.42873418"
           d="m 175.65172,385.33519 c -2.76135,-1.08885 -4.94895,-3.52084 -4.94895,-5.50182 0,-0.79921 7.41499,-9.79111 8.07404,-9.79111 0.153,0 1.04549,0.83468 1.98332,1.85484 0.93782,1.02016 2.80159,2.4175 4.14171,3.1052 1.34012,0.68771 2.52744,1.38405 2.63848,1.54743 0.11105,0.16337 -1.61398,2.35347 -3.83339,4.86688 -4.40623,4.98989 -4.82351,5.19288 -8.05521,3.91858 z"
           id="path53525" />
        <path
           inkscape:connector-curvature="0"
           style="fill:#000000;fill-opacity:1;stroke-width:0.42873418"
           d="m 188.17484,374.30722 c -2.67709,-0.74943 -6.27313,-3.68089 -7.6085,-6.20238 -2.04149,-3.85478 -1.19427,-9.22044 1.99807,-12.65434 1.90944,-2.05393 6.19691,-3.80536 9.31545,-3.80536 1.42963,0 2.71261,0.16668 2.85107,0.37039 0.13847,0.20371 -1.26588,2.06052 -3.12075,4.12623 -3.12916,3.48485 -3.37251,3.89404 -3.37251,5.67103 0,3.02698 2.16738,4.95887 5.56334,4.95887 1.90176,0 3.28253,-0.9954 6.79326,-4.89727 1.42046,-1.57872 2.83959,-2.8704 3.15363,-2.8704 0.77953,0 1.11285,1.34447 1.11492,4.49708 0.005,7.82336 -8.24936,13.1685 -16.68798,10.80615 z"
           id="path53523" />
        <path
           inkscape:connector-curvature="0"
           style="fill:#000000;fill-opacity:1;stroke-width:0.42873418"
           d="m 171.0534,368.49238 c -1.66181,-1.28367 -3.63449,-2.76188 -4.38373,-3.2849 -1.57038,-1.09624 -1.72942,-2.0952 -0.49526,-3.11079 1.10995,-0.91336 2.53912,-0.5295 3.54775,0.95288 0.41569,0.61094 1.96975,2.10173 3.45348,3.31285 2.90903,2.37457 3.2932,2.98549 2.45494,3.9039 -0.84054,0.92091 -1.33823,0.72803 -4.57718,-1.77394 z"
           id="path53519" />
      </g>
    </g>
  </g>
</svg>
