<?xml version="1.0" encoding="UTF-8" standalone="no"?>
<!-- Created with Inkscape (http://www.inkscape.org/) -->

<svg
   xmlns:dc="http://purl.org/dc/elements/1.1/"
   xmlns:cc="http://creativecommons.org/ns#"
   xmlns:rdf="http://www.w3.org/1999/02/22-rdf-syntax-ns#"
   xmlns:svg="http://www.w3.org/2000/svg"
   xmlns="http://www.w3.org/2000/svg"
   xmlns:sodipodi="http://sodipodi.sourceforge.net/DTD/sodipodi-0.dtd"
   xmlns:inkscape="http://www.inkscape.org/namespaces/inkscape"
   width="150"
   height="150"
   viewBox="0 0 39.687499 39.687501"
   version="1.1"
   id="svg922"
   inkscape:version="0.92.4 (5da689c313, 2019-01-14)"
   sodipodi:docname="USO_INTERNET_background_and_toonbox.svg">
  <defs
     id="defs916">
    <clipPath
       clipPathUnits="userSpaceOnUse"
       id="clipPath1521">
      <rect
         style="opacity:0.875;fill:#000000;fill-opacity:1;stroke:#000000;stroke-width:0.60403091;stroke-linejoin:round;stroke-miterlimit:4;stroke-dasharray:none;stroke-opacity:1"
         id="rect1523"
         width="172.87534"
         height="151.42299"
         x="57.114269"
         y="66.644836" />
    </clipPath>
  </defs>
  <sodipodi:namedview
     id="base"
     pagecolor="#ffffff"
     bordercolor="#666666"
     borderopacity="1.0"
     inkscape:pageopacity="0.0"
     inkscape:pageshadow="2"
     inkscape:zoom="1.7308594"
     inkscape:cx="123.93374"
     inkscape:cy="67.442169"
     inkscape:document-units="mm"
     inkscape:current-layer="layer1"
     showgrid="false"
     inkscape:window-width="1262"
     inkscape:window-height="792"
     inkscape:window-x="2182"
     inkscape:window-y="78"
     inkscape:window-maximized="0"
     units="px" />
  <metadata
     id="metadata919">
    <rdf:RDF>
      <cc:Work
         rdf:about="">
        <dc:format>image/svg+xml</dc:format>
        <dc:type
           rdf:resource="http://purl.org/dc/dcmitype/StillImage" />
        <dc:title></dc:title>
      </cc:Work>
    </rdf:RDF>
  </metadata>
  <g
     inkscape:label="Layer 1"
     inkscape:groupmode="layer"
     id="layer1"
     transform="translate(0,-257.31248)">
    <g
       id="g6464"
       transform="matrix(0.29810629,0,0,0.28984518,-10.572748,244.26355)">
      <path
         sodipodi:nodetypes="cccsc"
         inkscape:connector-curvature="0"
         id="rect49496"
         d="m 40.541649,79.335309 c 2.80732,-6.317614 108.472621,-6.074633 123.530051,0 4.5938,4.373733 6.63549,65.541321 -1.78648,66.513261 -7.91153,7.77553 -117.398454,6.1941 -122.509204,2.18686 -3.825143,-2.9992 -5.359428,-65.541314 0.765633,-68.700121 z"
         style="opacity:0.875;fill:#999999;fill-opacity:1;stroke:none;stroke-width:0.40600324;stroke-linejoin:round;stroke-miterlimit:4;stroke-dasharray:none;stroke-opacity:0.97175137" />
      <path
         inkscape:connector-curvature="0"
         id="path49494"
         d="m 41.515717,150.96879 c -5.507184,-2.22305 -6.049347,-5.50145 -6.049347,-36.57973 0,-29.733461 0,-29.733461 3.974431,-33.36108 2.18594,-1.995188 6.396428,-4.188245 9.356647,-4.873451 3.402268,-0.787527 24.249485,-1.245399 56.670472,-1.244663 69.024,0.0013 63.36037,-3.412696 62.78997,37.852504 -0.41236,29.83272 -0.41236,29.83272 -3.87779,33.40508 -1.90598,1.96481 -5.721,4.15299 -8.47784,4.86263 -6.61702,1.70333 -110.152487,1.64784 -114.386543,-0.0613 z m 116.461643,-3.64957 c 6.90163,-3.77461 7.78892,-7.61481 7.78892,-33.71112 0,-26.658265 -0.87856,-30.145852 -8.58015,-34.060309 -4.38232,-2.227388 -6.88024,-2.332355 -55.59902,-2.336486 -42.552236,-0.0039 -51.67474,0.28201 -55.016081,1.722465 -8.149785,3.513384 -8.332321,4.272983 -8.332321,34.67433 0,29.78332 0.257651,30.98838 7.348474,34.36985 4.327606,2.06374 26.286976,2.69784 70.342788,2.03122 33.93071,-0.51341 38.61573,-0.81313 42.04739,-2.68995 z M 49.882052,144.89229 c -2.363667,-0.85781 -4.699673,-2.43317 -5.191116,-3.50081 -0.73284,-1.59207 -0.237972,-1.51128 2.751823,0.44929 3.15444,2.06854 5.720171,2.40835 19.052805,2.52335 11.972356,0.10326 14.171275,0.34606 9.862796,1.08899 -8.464296,1.45955 -21.680601,1.1796 -26.476308,-0.56082 z M 154.67692,85.873908 c -1.26333,-1.269008 -4.74384,-1.751225 -12.99179,-1.799981 -6.19639,-0.0366 -13.76127,-0.496843 -16.81085,-1.022698 -4.35912,-0.751666 -2.37246,-0.984513 9.29143,-1.08899 14.81004,-0.132662 21.05768,0.998442 22.4707,4.068194 0.94905,2.061795 0.18841,2.001034 -1.95949,-0.156525 z"
         style="fill:#000000;stroke-width:1.26563919" />
      <text
         transform="scale(0.88602741,1.1286333)"
         id="text49550"
         y="125.00746"
         x="74.932625"
         style="font-style:normal;font-variant:normal;font-weight:normal;font-stretch:normal;font-size:16.97093201px;font-family:Insaniburger;-inkscape-font-specification:Insaniburger;opacity:1;vector-effect:none;fill:#000000;fill-opacity:1;stroke:none;stroke-width:0.19887809;stroke-linecap:butt;stroke-linejoin:miter;stroke-miterlimit:4;stroke-dasharray:none;stroke-dashoffset:0;stroke-opacity:1"
         xml:space="preserve"><tspan
           style="font-style:normal;font-variant:normal;font-weight:normal;font-stretch:normal;font-family:Insaniburger;-inkscape-font-specification:Insaniburger;stroke-width:0.19887809"
           y="125.00746"
           x="74.932625"
           id="tspan49548"
           sodipodi:role="line">TEST TEXT</tspan></text>
      <g
         transform="matrix(0.823942,0,0,0.83445295,152.00754,-69.981661)"
         id="g54240">
        <path
           inkscape:connector-curvature="0"
           style="fill:#cbcbcb;fill-opacity:1;stroke-width:0.51272714"
           d="m -70.218567,235.17822 c -9.14582,-2.52163 -16.48459,-9.79527 -19.28347,-19.11231 -1.08343,-3.60661 -1.08343,-10.73483 0,-14.34144 2.82983,-9.42007 9.71585,-16.22502 19.24814,-19.02153 3.42306,-1.00423 10.660535,-1.06902 14.219058,-0.12729 9.339044,2.4715 17.169207,10.20949 19.67015,19.43859 0.886127,3.27003 0.887701,10.48291 0.0031,13.7619 -2.503161,9.27753 -10.285099,16.96785 -19.673147,19.44155 -3.190886,0.84077 -11.070661,0.81885 -14.183731,-0.0394 z"
           id="path54193" />
        <path
           inkscape:connector-curvature="0"
           style="fill:#000000;fill-opacity:1;stroke-width:0.51272714"
           d="m -68.146067,228.07933 c 0.82049,-0.68227 1.61822,-1.83733 1.77274,-2.56681 0.15451,-0.72948 0.39142,-1.86041 0.52645,-2.51319 0.13504,-0.65278 0.83133,-1.45064 1.54732,-1.77303 1.07774,-0.48527 1.3018,-0.93893 1.3018,-2.63588 0,-1.26182 -0.23947,-2.04973 -0.62297,-2.04973 -0.34264,0 -1.49363,-0.84016 -2.55776,-1.86703 -1.83384,-1.76961 -2.14827,-1.87925 -6.02582,-2.10108 -4.09102,-0.23403 -4.09102,-0.23403 -3.82839,2.24932 0.20333,1.92269 0.65641,2.89095 2.00683,4.28878 1.68685,1.74608 1.74421,1.94075 1.74421,5.92024 0,3.49344 0.17524,4.33596 1.16049,5.5794 1.16048,1.46461 1.16048,1.46461 1.3219,0.087 0.0888,-0.75766 0.83272,-1.93578 1.6532,-2.61804 z"
           id="path54191" />
        <path
           inkscape:connector-curvature="0"
           style="fill:#000000;fill-opacity:1;stroke-width:0.51272714"
           d="m -48.847606,224.70851 c 1.07784,-0.40497 1.323007,-0.83297 1.323007,-2.30965 0,-1.14097 0.286656,-1.92126 0.773658,-2.10594 0.559071,-0.21201 0.773658,-1.07782 0.773658,-3.12152 0,-2.24845 0.270419,-3.1785 1.319288,-4.53745 1.212013,-1.57032 1.243465,-1.73264 0.386829,-1.99626 -1.667682,-0.51321 -2.410368,-1.03344 -3.461392,-2.4246 -0.925012,-1.22436 -0.951095,-1.44913 -0.248726,-2.14324 0.702373,-0.6941 0.956298,-0.61333 2.421183,0.77011 0.900085,0.85004 1.878014,1.54553 2.17317,1.54553 0.826287,0 1.228425,-1.52706 0.572765,-2.175 -0.321342,-0.31756 -0.584256,-0.87556 -0.584256,-1.23999 0,-1.24452 1.759345,-0.66489 3.717602,1.22478 1.95589,1.8874 1.95589,1.8874 1.95589,0.34736 0,-5.68968 -5.549434,-15.48696 -8.772215,-15.48696 -0.815291,0 -1.625791,0.22937 -1.801112,0.5097 -0.493125,0.7885 -2.393637,0.60271 -3.444012,-0.33667 -0.892079,-0.79782 -1.052721,-0.74128 -2.800064,0.98549 -1.794433,1.77331 -1.963421,2.91909 -0.430521,2.91909 0.40877,0 0.743218,-0.46593 0.743218,-1.0354 0,-1.53543 1.454843,-1.83102 2.743598,-0.55744 1.701166,1.68114 0.679225,2.85337 -4.130128,4.7375 -0.904427,0.35433 -1.890841,1.1787 -2.192031,1.83196 -0.953879,2.06889 -0.596635,2.31884 0.960233,0.67183 1.507845,-1.59515 1.507845,-1.59515 3.616558,-0.50897 1.969765,1.01461 2.192078,1.0322 3.373841,0.267 0.695823,-0.45055 1.628725,-0.81918 2.07312,-0.81918 1.081672,0 1.623645,1.52086 0.735315,2.06341 -0.38851,0.23729 -0.712451,0.95958 -0.719868,1.60509 -0.01228,1.06877 -0.27731,1.18727 -2.965741,1.32612 -1.623738,0.0838 -3.386611,-0.0773 -3.91749,-0.35804 -0.70831,-0.37461 -1.280317,-0.29241 -2.148908,0.30881 -0.651018,0.45062 -1.899088,0.96391 -2.773482,1.14064 -2.03469,0.41124 -2.874392,2.71602 -1.799797,4.94 0.625322,1.29416 1.01324,1.47918 3.385869,1.61486 2.250788,0.12872 2.889814,0.40009 3.992932,1.69564 1.045754,1.22817 1.313295,2.0928 1.313295,4.24422 0,1.77982 0.264013,2.91836 0.773658,3.33635 0.425512,0.34899 0.773658,1.14163 0.773658,1.76142 0,0.97729 0.37916,1.80649 0.826045,1.80649 0.07609,0 0.733702,-0.22369 1.461353,-0.49709 z"
           id="path54189" />
        <path
           inkscape:connector-curvature="0"
           style="fill:#000000;fill-opacity:1;stroke-width:0.51272714"
           d="m -79.787677,209.37505 c -1.38452,-1.51187 -0.42713,-2.792 2.03079,-2.71537 1.02565,0.032 1.86482,-0.13939 1.86482,-0.38081 0,-0.24142 0.78554,-1.29972 1.74565,-2.35179 2.16337,-2.37057 4.59658,-6.60775 4.17845,-7.27634 -0.17131,-0.27393 -0.87803,-0.49805 -1.57048,-0.49805 -1.05792,0 -1.25898,0.24675 -1.25898,1.54509 0,2.278 -1.17883,2.34723 -3.29539,0.19353 -1.78356,-1.81484 -2.39905,-3.26772 -1.38434,-3.26772 0.2629,0 0.82535,-0.6881 1.2499,-1.52911 0.7719,-1.5291 0.7719,-1.5291 -2.23986,-1.5291 -2.86583,0 -3.08551,0.0926 -4.53378,1.91138 -2.50375,3.14425 -3.72238,5.98413 -3.72238,8.6746 0,2.6905 0.7156,4.01163 2.32097,4.28496 0.64246,0.10939 1.09882,0.65431 1.20991,1.44468 0.25895,1.84241 1.03098,2.54329 2.80148,2.54329 1.54625,0 1.55314,-0.012 0.60324,-1.04924 z"
           id="path54187" />
        <path
           inkscape:connector-curvature="0"
           style="fill:#cbcbcb;fill-opacity:1;stroke-width:0.51272714"
           d="m -58.355813,197.45702 c 0,-0.12362 -0.232097,-0.36653 -0.515772,-0.53978 -0.283675,-0.17326 -0.515772,-0.0721 -0.515772,0.22476 0,0.29688 0.232097,0.53979 0.515772,0.53979 0.283675,0 0.515772,-0.10115 0.515772,-0.22477 z"
           id="path54185" />
        <path
           inkscape:connector-curvature="0"
           style="fill:#000000;fill-opacity:1;stroke-width:0.51272714"
           d="m -61.012137,191.00686 c 1.744656,-1.56869 3.172096,-3.27415 3.172096,-3.7899 0,-1.4119 -2.060277,-3.29708 -3.603318,-3.29708 -0.909368,0 -1.734578,0.50013 -2.488948,1.50846 -1.30277,1.74134 -1.36608,2.2071 -0.4887,3.59546 0.50927,0.80587 0.50927,1.2191 0,2.02497 -0.72531,1.14772 -0.86665,3.23798 -0.20154,2.98017 0.24108,-0.0934 1.865759,-1.45338 3.61041,-3.02208 z"
           id="path54183" />
        <path
           inkscape:connector-curvature="0"
           style="fill:#cbcbcb;fill-opacity:1;stroke-width:0.51272714"
           d="m -70.218567,190.29113 c 0,-2.05072 -0.12291,-2.28938 -1.16049,-2.25341 -0.63827,0.0221 -0.87037,0.15593 -0.51577,0.29733 0.36175,0.14425 0.64471,1.13326 0.64471,2.25341 0,1.09798 0.2321,1.99632 0.51577,1.99632 0.28368,0 0.51578,-1.03214 0.51578,-2.29365 z"
           id="path54156" />
        <path
           inkscape:connector-curvature="0"
           style="fill:#000000;fill-opacity:1;stroke-width:0.51272714"
           d="m -69.702797,234.58781 c -4.81202,-1.26324 -8.31193,-3.30542 -12.13189,-7.07889 -5.81367,-5.74292 -8.33737,-12.23065 -7.8355,-20.14283 0.27821,-4.38588 1.16749,-7.84743 1.90095,-7.39946 0.22048,0.13466 0.51511,1.45324 0.65474,2.93017 0.13962,1.47694 0.5342,3.37343 0.87684,4.21444 0.59382,1.45752 0.65673,1.48368 1.34392,0.55889 0.70875,-0.95382 0.72624,-0.95382 1.03497,0 0.85184,2.63173 1.32252,3.25518 2.6625,3.52672 3.15876,0.64011 3.99798,1.41352 4.2963,3.9594 0.21978,1.87571 0.70048,2.82656 2.19203,4.33607 1.8967,1.91953 1.9105,1.96446 1.9105,6.21657 0,3.95366 0.1066,4.39302 1.38593,5.71264 1.74489,1.79983 2.22448,1.79993 2.22448,4.5e-4 0,-0.96412 0.58736,-1.99169 1.8052,-3.15818 1.19245,-1.14217 1.8052,-2.20002 1.8052,-3.1165 0,-2.05591 0.51367,-3.02435 1.87555,-3.53603 1.058362,-0.39766 1.219087,-0.7957 1.219087,-3.01916 0,-1.88687 -0.195127,-2.56112 -0.741177,-2.56112 -0.40764,0 -1.52989,-0.82616 -2.49388,-1.8359 -1.61793,-1.69473 -2.02694,-1.8538 -5.31914,-2.06858 -4.98298,-0.3251 -5.54691,-0.48533 -7.09607,-2.01625 -2.06466,-2.04036 -1.8257,-2.93877 0.69288,-2.60494 1.52085,0.2016 2.06308,0.0934 2.06308,-0.41158 0,-0.37678 0.93622,-1.75403 2.08048,-3.06055 1.14426,-1.30653 2.64551,-3.47742 3.33611,-4.8242 1.41273,-2.75507 1.07256,-3.53016 -1.63206,-3.71878 -1.2998,-0.0906 -1.48163,0.0833 -1.62517,1.55445 -0.19438,1.9923 -0.63509,2.05911 -2.4739,0.37503 -1.2996,-1.19025 -1.34893,-1.38079 -0.69281,-2.67593 0.38854,-0.76693 1.17684,-1.78013 1.75178,-2.25154 1.43113,-1.17341 0.88965,-1.50613 -2.94638,-1.81042 -3.16111,-0.25076 -3.37122,-0.19309 -5.31282,1.45808 -2.02155,1.71916 -2.02155,1.71916 0.17837,-0.91262 1.20996,-1.44747 3.05044,-3.12768 4.08997,-3.73379 1.18993,-0.69381 1.64718,-0.81284 1.23441,-0.32134 -1.47187,1.75262 0.8261,2.51299 2.43547,0.80587 0.9794,-1.03889 0.9794,-1.03889 1.95423,0.38227 0.53616,0.78164 1.09089,2.22394 1.23273,3.20511 0.16374,1.13267 0.54033,1.78396 1.03154,1.78396 0.60174,0 0.77366,-0.67961 0.77366,-3.05821 0,-2.82033 -0.0941,-3.07136 -1.20958,-3.22743 -0.90508,-0.12663 -1.14445,-0.41533 -0.95088,-1.14682 0.17709,-0.66926 -0.0108,-0.98347 -0.59563,-0.99621 -1.78793,-0.0389 3.5497,-2.0136 6.30931,-2.33412 3.28134,-0.38112 3.701596,0.18117 1.86239,2.49181 -1.15768,1.45443 -1.34477,3.42511 -0.41262,4.34628 0.48139,0.47572 0.48139,0.74756 0,1.22328 -0.87098,0.86073 -0.77356,3.43932 0.14307,3.78692 0.46967,0.17811 2.0461,-0.85456 4.109343,-2.69192 3.895771,-3.46926 4.313521,-5.02144 1.995089,-7.41287 -1.385926,-1.42957 -1.385926,-1.42957 0.177142,-1.42957 3.610621,0 10.792531,3.39309 13.617064,6.43337 1.25968,1.35589 1.25968,1.35589 -0.249118,0.99703 -1.033483,-0.24582 -2.040848,-0.0757 -3.197699,0.53995 -1.590548,0.84648 -1.745342,0.84836 -2.65799,0.0321 -1.393694,-1.24642 -2.11316,-1.08832 -4.059338,0.892 -2.01653,2.05192 -2.187828,3.19956 -0.567876,3.8046 1.359901,0.50791 1.875941,0.28771 2.36072,-1.00735 0.25735,-0.68749 0.564982,-0.81665 1.124342,-0.47205 0.98201,0.60497 0.0932,2.21412 -1.348311,2.44107 -0.536944,0.0845 -1.499323,0.41044 -2.138618,0.72424 -0.968424,0.47535 -1.362035,0.38515 -2.359234,-0.54064 -1.332925,-1.23747 -1.894018,-1.01024 -1.894018,0.76705 0,0.69507 0.308498,1.1893 0.742366,1.1893 0.542216,0 0.716036,0.56926 0.644715,2.1114 -0.119628,2.58661 0.638784,2.98132 1.812506,0.9433 0.941542,-1.63487 2.318669,-2.00876 2.803159,-0.76105 0.395639,1.01888 2.984618,0.98006 4.604824,-0.069 1.495708,-0.96849 2.062531,-0.68839 1.328577,0.65653 -0.282623,0.51789 -0.639568,1.343 -0.793211,1.83359 -0.335231,1.07042 -3.210011,1.21243 -5.800961,0.28656 -1.436513,-0.51334 -1.840486,-0.47458 -2.656092,0.25485 -0.529048,0.47314 -1.46585,0.86026 -2.08178,0.86026 -1.80497,0 -3.182964,1.76531 -3.182964,4.0776 0,2.78179 1.364635,4.0776 4.294159,4.0776 3.018901,0 4.473234,1.50121 4.475896,4.62015 10e-4,1.32592 0.409647,2.92158 0.987899,3.85873 0.542288,0.87885 1.063636,2.14036 1.158558,2.80335 0.124039,0.86633 0.553352,1.24906 1.526119,1.36052 1.695208,0.19425 3.030532,-1.07544 3.030532,-2.88158 0,-0.75868 0.464195,-1.77219 1.031544,-2.25225 0.813517,-0.68836 1.031544,-1.50359 1.031544,-3.85703 0,-2.33688 0.223758,-3.18431 1.031544,-3.90674 1.468486,-1.31331 1.281183,-2.17685 -0.644715,-2.97241 -1.829093,-0.75557 -3.308456,-2.21061 -2.779269,-2.73357 0.183383,-0.18122 0.86968,0.16837 1.525113,0.77687 1.347779,1.25127 3.851296,1.47472 4.27575,0.38164 0.154778,-0.3986 0.02326,-1.20138 -0.292221,-1.78395 -0.871175,-1.60864 0.08639,-1.26872 2.041519,0.72472 0.962317,0.98117 2.201398,1.78395 2.753511,1.78395 0.914428,0 0.976032,0.26106 0.691589,2.93078 -0.688886,6.46577 -3.563258,12.00006 -8.6494,16.65349 -6.528339,5.97294 -16.158335,8.35345 -24.710479,6.10835 z"
           id="path54175" />
        <path
           inkscape:connector-curvature="0"
           style="fill:#cbcbcb;fill-opacity:1;stroke-width:0.51272714"
           d="m -42.673768,192.45736 c -0.982541,-1.14683 -0.982541,-1.14683 0.177947,-0.17585 1.090569,0.91247 1.395287,1.32268 0.98254,1.32268 -0.09787,0 -0.620092,-0.51608 -1.160487,-1.14683 z"
           id="path54154" />
        <path
           inkscape:connector-curvature="0"
           style="fill:#fffffb;fill-opacity:1;stroke-width:0.51272714"
           d="m -67.639707,234.41169 c -0.76096,-0.22224 -1.20636,-0.67144 -1.08675,-1.09602 0.11147,-0.39568 0.34357,-1.44626 0.51577,-2.3346 0.1722,-0.88835 0.93833,-2.09904 1.70252,-2.69042 1.04408,-0.80798 1.42868,-1.60713 1.54732,-3.21506 0.12247,-1.65987 0.43379,-2.27504 1.38805,-2.74276 1.658724,-0.813 2.105104,-1.62458 2.114455,-3.84435 0.008,-1.9044 -1.038889,-3.47689 -2.314795,-3.47689 -0.38594,0 -1.15888,-0.63449 -1.71766,-1.40998 -1.19197,-1.65426 -4.42605,-2.66762 -8.51356,-2.66762 -2.19663,0 -2.96165,-0.23375 -3.86089,-1.17967 -0.6168,-0.64883 -1.12145,-1.33692 -1.12145,-1.52911 0,-0.54553 1.9644,-0.40988 2.32097,0.16028 0.558,0.89223 1.29274,0.55243 1.9287,-0.89198 0.33944,-0.77092 1.48409,-2.39658 2.54368,-3.61257 2.31087,-2.65198 4.25353,-6.43768 3.84432,-7.4915 -0.60653,-1.56199 -4.80716,-2.36495 -5.23825,-1.0013 -0.82527,2.61052 -0.69872,2.50418 -1.80394,1.51575 -0.91924,-0.82211 -0.94473,-1.00429 -0.24714,-1.76605 0.42781,-0.46715 0.77784,-1.02391 0.77784,-1.23724 0,-0.21332 0.52222,-0.82586 1.16048,-1.3612 1.1411,-0.95708 1.14376,-0.98611 0.15931,-1.73823 -0.63598,-0.48588 -2.13436,-0.76489 -4.10776,-0.76489 -2.92893,0 -3.05622,-0.0497 -2.22608,-0.87013 0.68773,-0.67963 1.01681,-0.73542 1.50311,-0.25485 0.79387,0.78452 2.60912,0.79291 3.39559,0.0157 0.95189,-0.94068 2.60996,0.88066 2.79528,3.0705 0.18069,2.13528 1.69966,2.8382 2.83052,1.30985 1.04662,-1.41448 0.86091,-5.1299 -0.31446,-6.29143 -1.13372,-1.12037 -0.9105,-2.93675 0.40424,-3.28949 2.92978,-0.78605 4.71521,-0.84167 4.71521,-0.14689 0,0.39888 -0.36627,1.02563 -0.81394,1.39279 -0.56636,0.4645 -0.77458,1.37495 -0.68455,2.99318 0.0712,1.2791 -0.0524,2.95806 -0.27447,3.73102 -0.40996,1.4267 0.71417,3.94647 1.76063,3.94647 0.2638,0 2.110531,-1.43354 4.10383,-3.18563 3.315424,-2.91424 3.625063,-3.3559 3.634626,-5.18429 0.0062,-1.19675 -0.351695,-2.39821 -0.892147,-2.99446 -0.881599,-0.97263 -0.860597,-0.98725 0.902601,-0.62844 2.537733,0.51643 8.873988,3.56458 10.027002,4.82365 0.926192,1.01138 0.927064,1.05276 0.02216,1.05276 -0.518062,0 -1.348723,0.36381 -1.845917,0.80847 -0.829877,0.74219 -1.029558,0.71673 -2.435589,-0.31056 -1.814626,-1.32582 -2.336205,-1.1179 -4.930921,1.96565 -1.514534,1.79985 -1.760634,2.38954 -1.329505,3.18562 0.290983,0.53731 0.79941,0.97693 1.12984,0.97693 0.432665,0 0.419792,0.17828 -0.04601,0.63712 -0.517722,0.51 -0.83388,0.39242 -1.584473,-0.58926 -1.134296,-1.48351 -2.443645,-1.16279 -2.920657,0.7154 -0.214732,0.84548 -0.05994,1.62845 0.432583,2.18805 0.421829,0.47929 0.89145,1.84624 1.043593,3.03766 0.232324,1.8193 0.133683,2.16623 -0.61593,2.16623 -1.674996,0 -3.135466,2.16999 -3.135466,4.65873 0,2.99001 1.497353,4.51587 4.431488,4.51587 3.234252,0 4.336642,1.07984 4.336642,4.24794 0,1.6512 0.323936,3.11807 0.853603,3.86538 0.469482,0.66239 0.999896,1.9176 1.178699,2.78934 0.275118,1.34133 0.587413,1.6101 2.031389,1.74827 2.12806,0.20363 3.672891,-1.06982 3.672891,-3.02769 0,-0.91052 0.375729,-1.63089 1.031544,-1.97774 0.864227,-0.45707 1.031544,-1.06722 1.031544,-3.76169 0,-2.5688 0.207619,-3.4018 1.031544,-4.13866 0.571073,-0.51073 1.031544,-1.56986 1.031544,-2.37265 0,-0.79755 0.239576,-1.4501 0.53239,-1.4501 0.29282,0 0.69899,-0.43707 0.902602,-0.97127 0.343576,-0.90139 0.509758,-0.85524 2.309844,0.64161 1.939628,1.61289 1.939628,1.61289 1.379324,4.6666 -2.223659,12.11919 -13.628045,21.31393 -26.167258,21.09726 -1.61717,-0.0279 -3.52055,-0.22027 -4.22973,-0.4274 z"
           id="path54167" />
        <path
           inkscape:connector-curvature="0"
           style="fill:#ffffff;fill-opacity:1;stroke-width:0.51272714"
           d="m -73.436247,232.64342 c -6.05106,-2.4592 -11.53211,-7.98445 -13.82855,-13.94006 -1.60891,-4.17255 -2.32276,-9.51794 -1.72243,-12.8978 0.49235,-2.77192 0.49235,-2.77192 1.57099,0.0314 0.62228,1.61731 1.55076,3.04291 2.19456,3.36958 0.61376,0.31142 1.64441,1.05686 2.29032,1.65652 0.64592,0.59967 1.76173,1.0903 2.47959,1.0903 1.8015,0 3.01239,1.50612 3.01239,3.74685 0,1.48796 0.43249,2.34631 2.06308,4.09446 2.05307,2.2011 2.06309,2.2319 2.06309,6.34213 0,3.89304 0.0919,4.23379 1.60075,5.93198 0.88041,0.99093 1.51868,1.79624 1.41837,1.78959 -0.1003,-0.007 -1.51428,-0.55339 -3.14216,-1.21498 z"
           id="path54165" />
        <path
           inkscape:connector-curvature="0"
           style="fill:#cbcbcb;fill-opacity:1;stroke-width:0.51272714"
           d="m -54.874351,202.92342 c -1.498659,-0.22436 -1.924558,-1.37271 -0.683641,-1.84329 0.425976,-0.16154 1.081198,0.24392 1.559205,0.96487 0.453462,0.68392 0.761099,1.20912 0.68364,1.16712 -0.07746,-0.042 -0.779099,-0.17192 -1.559204,-0.2887 z"
           id="path54163" />
        <path
           inkscape:connector-curvature="0"
           style="fill:#cbcbcb;fill-opacity:1;stroke-width:0.51272714"
           d="m -51.263947,202.95092 c 0.354593,-0.1414 0.934837,-0.1414 1.28943,0 0.354594,0.1414 0.06447,0.25709 -0.644715,0.25709 -0.709186,0 -0.999308,-0.11569 -0.644715,-0.25709 z"
           id="path54152" />
      </g>
    </g>
  </g>
</svg>
