<?xml version="1.0" encoding="UTF-8" standalone="no"?>
<!-- Created with Inkscape (http://www.inkscape.org/) -->

<svg
   xmlns:dc="http://purl.org/dc/elements/1.1/"
   xmlns:cc="http://creativecommons.org/ns#"
   xmlns:rdf="http://www.w3.org/1999/02/22-rdf-syntax-ns#"
   xmlns:svg="http://www.w3.org/2000/svg"
   xmlns="http://www.w3.org/2000/svg"
   xmlns:sodipodi="http://sodipodi.sourceforge.net/DTD/sodipodi-0.dtd"
   xmlns:inkscape="http://www.inkscape.org/namespaces/inkscape"
   width="150"
   height="150"
   viewBox="0 0 39.6875 39.6875"
   version="1.1"
   id="svg922"
   inkscape:version="0.92.4 (5da689c313, 2019-01-14)"
   sodipodi:docname="USO_DESKTOP_ENVIRONMENT_background_and_toonbox.svg">
  <defs
     id="defs916">
    <clipPath
       clipPathUnits="userSpaceOnUse"
       id="clipPath1521">
      <rect
         style="opacity:0.875;fill:#000000;fill-opacity:1;stroke:#000000;stroke-width:0.60403091;stroke-linejoin:round;stroke-miterlimit:4;stroke-dasharray:none;stroke-opacity:1"
         id="rect1523"
         width="172.87534"
         height="151.42299"
         x="57.114269"
         y="66.644836" />
    </clipPath>
  </defs>
  <sodipodi:namedview
     id="base"
     pagecolor="#ffffff"
     bordercolor="#666666"
     borderopacity="1.0"
     inkscape:pageopacity="0.0"
     inkscape:pageshadow="2"
     inkscape:zoom="0.75304862"
     inkscape:cx="107.64132"
     inkscape:cy="93.53664"
     inkscape:document-units="px"
     inkscape:current-layer="layer1"
     showgrid="false"
     inkscape:window-width="1063"
     inkscape:window-height="662"
     inkscape:window-x="2024"
     inkscape:window-y="105"
     inkscape:window-maximized="0"
     units="px" />
  <metadata
     id="metadata919">
    <rdf:RDF>
      <cc:Work
         rdf:about="">
        <dc:format>image/svg+xml</dc:format>
        <dc:type
           rdf:resource="http://purl.org/dc/dcmitype/StillImage" />
        <dc:title></dc:title>
      </cc:Work>
    </rdf:RDF>
  </metadata>
  <g
     inkscape:label="Layer 1"
     inkscape:groupmode="layer"
     id="layer1"
     transform="translate(-35.46637,-112.59198)">
    <g
       id="g7061"
       transform="matrix(0.29810628,0,0,0.28984517,22.379401,110.03664)">
      <path
         sodipodi:nodetypes="cccsc"
         inkscape:connector-curvature="0"
         id="rect49496"
         d="m 48.975626,43.131166 c 2.80732,-6.317614 108.472624,-6.074633 123.530054,0 4.5938,4.373733 6.63549,65.541324 -1.78648,66.513264 -7.91153,7.77553 -117.398457,6.1941 -122.509207,2.18686 -3.825143,-2.9992 -5.359428,-65.541317 0.765633,-68.700124 z"
         style="opacity:0.875;fill:#999999;fill-opacity:1;stroke:none;stroke-width:0.40600324;stroke-linejoin:round;stroke-miterlimit:4;stroke-dasharray:none;stroke-opacity:0.97175137" />
      <text
         transform="scale(0.88602738,1.1286333)"
         id="text49550"
         y="92.929604"
         x="84.451492"
         style="font-style:normal;font-variant:normal;font-weight:normal;font-stretch:normal;font-size:16.97093201px;font-family:Insaniburger;-inkscape-font-specification:Insaniburger;opacity:1;vector-effect:none;fill:#000000;fill-opacity:1;stroke:none;stroke-width:0.19887809;stroke-linecap:butt;stroke-linejoin:miter;stroke-miterlimit:4;stroke-dasharray:none;stroke-dashoffset:0;stroke-opacity:1"
         xml:space="preserve"><tspan
           style="font-style:normal;font-variant:normal;font-weight:normal;font-stretch:normal;font-family:Insaniburger;-inkscape-font-specification:Insaniburger;stroke-width:0.19887809"
           y="92.929604"
           x="84.451492"
           id="tspan49548"
           sodipodi:role="line">TEST TEXT</tspan></text>
      <path
         inkscape:connector-curvature="0"
         id="path49494"
         d="m 49.949694,114.76465 c -5.507184,-2.22305 -6.049347,-5.50145 -6.049347,-36.579733 0,-29.733461 0,-29.733461 3.974431,-33.36108 2.18594,-1.995188 6.396428,-4.188245 9.356647,-4.873451 3.402268,-0.787527 24.249485,-1.245399 56.670475,-1.244663 69.024,0.0013 63.36037,-3.412696 62.78997,37.852504 -0.41236,29.832723 -0.41236,29.832723 -3.87779,33.405083 -1.90598,1.96481 -5.721,4.15299 -8.47784,4.86263 -6.61702,1.70333 -110.15249,1.64784 -114.386546,-0.0613 z m 116.461646,-3.64957 c 6.90163,-3.77461 7.78892,-7.61481 7.78892,-33.711123 0,-26.658265 -0.87856,-30.145852 -8.58015,-34.060309 -4.38232,-2.227388 -6.88024,-2.332355 -55.59902,-2.336486 -42.552239,-0.0039 -51.674743,0.28201 -55.016084,1.722465 -8.149785,3.513384 -8.332321,4.272983 -8.332321,34.67433 0,29.783323 0.257651,30.988383 7.348474,34.369853 4.327606,2.06374 26.286976,2.69784 70.342791,2.03122 33.93071,-0.51341 38.61573,-0.81313 42.04739,-2.68995 z M 58.316029,108.68815 c -2.363667,-0.85781 -4.699673,-2.43317 -5.191116,-3.50081 -0.73284,-1.59207 -0.237972,-1.51128 2.751823,0.44929 3.15444,2.06854 5.720171,2.40835 19.052805,2.52335 11.972356,0.10326 14.171275,0.34606 9.862796,1.08899 -8.464296,1.45955 -21.680601,1.1796 -26.476308,-0.56082 z M 163.1109,49.669765 c -1.26333,-1.269008 -4.74384,-1.751225 -12.99179,-1.799981 -6.19639,-0.0366 -13.76127,-0.496843 -16.81085,-1.022698 -4.35912,-0.751666 -2.37246,-0.984513 9.29143,-1.08899 14.81004,-0.132662 21.05768,0.998442 22.4707,4.068194 0.94905,2.061795 0.18841,2.001034 -1.95949,-0.156525 z"
         style="fill:#000000;stroke-width:1.26563919" />
      <g
         transform="matrix(0.91666671,0,0,0.66666666,24.665455,120.37415)"
         id="g4156">
        <rect
           style="opacity:0.875;fill:#ffffff;fill-opacity:1;stroke:#000000;stroke-width:0.51171541;stroke-linejoin:round;stroke-miterlimit:4;stroke-dasharray:none;stroke-opacity:1"
           id="rect4150"
           width="58.088665"
           height="50.812565"
           x="64.02668"
           y="-104.6446" />
        <path
           style="fill:#000000;stroke-width:0.16786209"
           d="m 65.362833,-46.160321 c -1.54945,-0.41514 -2.48781,-1.990554 -2.48781,-4.176812 v -1.035497 h 30 29.999997 v 1.035497 c 0,1.727484 -0.58347,3.074157 -1.66017,3.831699 l -0.60812,0.42786 -27.365847,0.02724 c -15.05122,0.01498 -27.59634,-0.03451 -27.87805,-0.109989 z m -2.48781,-31.597502 c 0,-22.199857 0.0258,-25.118487 0.22728,-25.753227 0.30138,-0.94929 0.88469,-1.74306 1.60199,-2.18002 0.56323,-0.3431 1.62879,-0.35659 28.17073,-0.35659 26.541947,0 27.607507,0.0135 28.170737,0.35659 0.7173,0.43696 1.30061,1.23073 1.60199,2.18002 0.20152,0.63474 0.22727,3.55337 0.22727,25.753227 v 25.03736 h -29.999997 -30 z m 26.35622,20.967665 c 0.27359,-0.120311 0.68393,-0.445235 0.91187,-0.722053 0.86905,-1.05544 0.82948,-0.01806 0.82948,-21.742529 0,-19.77482 -0.002,-19.94748 -0.30307,-20.76436 -0.1779,-0.48353 -0.52542,-1.00563 -0.84146,-1.26421 l -0.5384,-0.44049 -10.46342,-0.0579 c -5.75488,-0.0318 -10.74607,-0.004 -11.09154,0.0611 -0.74816,0.14181 -1.55617,0.99617 -1.86658,1.97366 -0.18127,0.57082 -0.21261,3.60496 -0.21261,20.582333 0,19.15995 0.0104,19.93983 0.27711,20.627204 0.33978,0.875931 0.76962,1.404439 1.38042,1.697313 0.65564,0.314365 21.21036,0.361145 21.9182,0.04988 z m -21.98635,-1.689683 -0.34548,-0.368047 -0.0388,-17.923962 -0.0388,-17.92397 h 11.56545 11.56544 l -0.0388,17.827357 -0.0388,17.82735 -0.4106,0.464659 -0.4106,0.464661 h -10.7317 c -10.34799,0 -10.74408,-0.01317 -11.07721,-0.368048 z m 8.87685,-2.244809 c 0.16252,-0.05746 0.4424,-0.386568 0.62195,-0.731338 0.26602,-0.510803 0.32646,-0.892991 0.32646,-2.064342 0,-2.568018 -0.38166,-2.871124 -3.61469,-2.870706 -3.31834,3.85e-4 -3.69614,0.317826 -3.70023,3.108652 -0.002,1.445726 0.007,1.483082 0.51513,2.069885 l 0.51729,0.597589 2.51929,-0.0026 c 1.38562,-0.0015 2.65228,-0.04965 2.8148,-0.107112 z m -5.08818,-1.446063 c -0.38917,-0.298244 -0.36802,-2.395331 0.027,-2.673468 0.15682,-0.110424 1.2054,-0.199321 2.35109,-0.199321 1.14568,0 2.19426,0.0889 2.35108,0.199321 0.231,0.162663 0.28306,0.409322 0.28306,1.341059 0,0.931737 -0.0521,1.178396 -0.28306,1.341058 -0.3658,0.257581 -4.39134,0.25022 -4.72913,-0.0086 z m 15.11378,1.227681 c 0.63408,-0.57501 0.71819,-0.862241 0.72303,-2.46911 0.005,-1.707591 -0.15558,-2.201977 -0.87501,-2.691471 -0.61226,-0.416579 -4.95048,-0.41318 -5.56415,0.0044 -0.61777,0.42033 -0.87326,1.210627 -0.87326,2.701271 0,1.455172 0.28192,2.287099 0.87178,2.572575 0.20467,0.09905 1.49344,0.186935 2.86395,0.195295 2.1211,0.01294 2.54566,-0.03362 2.85366,-0.31292 z m -5.38939,-1.250767 c -0.0966,-0.127082 -0.17561,-0.730558 -0.17561,-1.341059 0,-0.900362 0.0535,-1.147645 0.28307,-1.309323 0.15681,-0.110424 1.20539,-0.199321 2.35108,-0.199321 1.14568,0 2.19427,0.0889 2.35108,0.199321 0.231,0.162663 0.28306,0.409322 0.28306,1.341059 0,0.931737 -0.0521,1.178396 -0.28306,1.341058 -0.4112,0.289552 -4.58637,0.262002 -4.80962,-0.03174 z m 6.00066,-7.093453 c 1.04027,-0.380142 1.1408,-0.768252 1.1408,-4.40401 0,-3.569738 -0.0677,-3.875863 -0.96564,-4.369537 -0.7287,-0.400604 -16.51935,-0.395872 -17.24885,0.0049 -0.82951,0.456025 -0.95631,1.037966 -0.95569,4.386064 8.3e-4,3.364504 0.16044,4.025849 1.05486,4.365241 0.67508,0.256168 16.2773,0.271849 16.97452,0.01708 z m -16.67627,-1.346128 c -0.32094,-0.169734 -0.32927,-0.24715 -0.32927,-3.061779 0,-2.657863 0.0225,-2.903508 0.28307,-3.086969 0.18521,-0.13042 3.04671,-0.199317 8.27791,-0.199317 5.2312,0 8.0927,0.0689 8.27791,0.199317 0.26045,0.183407 0.28306,0.428958 0.28306,3.073989 0,2.645032 -0.0226,2.890583 -0.28306,3.073984 -0.35677,0.251228 -16.03466,0.25196 -16.50962,5.46e-4 z m 7.8385,-10.62553 c 0.0361,-0.412049 -0.0259,-0.545847 -0.29268,-0.631631 -0.18618,-0.05986 -2.20819,-0.08455 -4.49336,-0.05485 -3.63585,0.04727 -4.17346,0.09281 -4.30378,0.364772 -0.0819,0.170935 -0.10721,0.453792 -0.0562,0.62857 0.0838,0.287371 0.52367,0.312909 4.59646,0.26686 l 4.50378,-0.05092 z m 9.29678,0.223638 c 0.61481,-0.636304 0.70993,-1.45722 0.65701,-5.669822 -0.0526,-4.184936 -0.12693,-4.588176 -0.93537,-5.072836 -0.46218,-0.27707 -6.31575,-0.30649 -6.85952,-0.0345 -0.20642,0.10326 -0.50876,0.47151 -0.67186,0.81833 -0.27822,0.59161 -0.29405,0.89632 -0.25616,4.9309 l 0.0404,4.300329 0.47792,0.561495 0.47792,0.561502 h 3.3438 c 3.15134,0 3.3658,-0.02276 3.72588,-0.395424 z m -6.89587,-1.179761 c -0.27291,-0.359068 -0.25162,-7.925117 0.0231,-8.225137 0.14054,-0.15346 1.12647,-0.20432 3.2561,-0.16799 l 3.05453,0.0521 v 4.236049 4.236044 l -3.07767,0.05185 c -2.27063,0.03826 -3.12445,-0.0097 -3.25609,-0.18292 z m -4.17494,-3.746043 c 0.0505,-0.173249 0.0248,-0.454846 -0.0571,-0.62578 -0.13031,-0.271811 -0.58547,-0.310787 -3.62929,-0.310787 -3.04382,0 -3.49898,0.03897 -3.62929,0.310787 -0.082,0.170934 -0.10766,0.452531 -0.0571,0.62578 0.0816,0.279796 0.49352,0.314994 3.68642,0.314994 3.19289,0 3.60482,-0.0352 3.68642,-0.314994 z m 1.56982,-4.367014 c 0.14487,-0.13937 0.23887,-0.42097 0.20889,-0.62578 -0.0525,-0.35856 -0.22249,-0.37237 -4.58708,-0.37237 -4.36459,0 -4.5346,0.0138 -4.58708,0.37237 -0.11861,0.81036 0.24054,0.8792 4.58708,0.8792 3.17107,0 4.1752,-0.0581 4.37819,-0.25342 z m -10.89039,-7.43137 c 0,-1.67959 0.01,-1.72634 0.45026,-2.2143 l 0.45025,-0.49848 h 10.51847 c 7.84335,0 10.61606,0.0585 10.90218,0.23003 0.58083,0.3482 0.80079,1.1022 0.80079,2.74489 v 1.45367 h -11.56097 -11.56098 z m 33.04168,40.788546 c 0.823907,-0.377903 0.909897,-0.78238 0.906287,-4.263001 -0.005,-4.392355 -4.2e-4,-4.387229 -3.440777,-4.387229 h -2.29255 l -0.49756,0.654661 -0.49756,0.654662 v 2.917028 c 0,4.48994 0.0983,4.630833 3.23023,4.630833 1.1774,0 2.34377,-0.09313 2.59193,-0.206954 z m -4.62216,-1.371935 c -0.26699,-0.351284 -0.24279,-5.424855 0.0273,-5.719758 0.13757,-0.15023 0.87953,-0.204305 2.30487,-0.167988 l 2.102,0.05355 0.0421,2.599391 c 0.0616,3.798662 0.27387,3.465855 -2.21079,3.465855 -1.43035,0 -2.14531,-0.07292 -2.2655,-0.231057 z m 14.492807,1.017498 0.47792,-0.561392 0.0465,-3.1995 0.0465,-3.1995 -0.50747,-0.667701 -0.50747,-0.6677 h -2.29021 c -3.3638,0 -3.38813,0.02956 -3.49552,4.245161 -0.0734,2.882486 0.0295,3.490686 0.71017,4.195121 0.37458,0.387675 0.56543,0.416902 2.72224,0.416902 h 2.31942 z m -4.9733,-1.005191 c -0.12906,-0.171702 -0.18293,-1.04809 -0.18293,-2.976193 0,-2.314359 0.0355,-2.750725 0.23148,-2.849703 0.44823,-0.226308 4.09099,-0.129032 4.27584,0.114183 0.25167,0.331127 0.24509,5.466138 -0.007,5.671344 -0.33768,0.274594 -4.11453,0.309911 -4.31713,0.04037 z m 14.16333,1.274501 c 0.74433,-0.506443 0.87325,-1.117139 0.87325,-4.136511 0,-4.317458 -0.0874,-4.428592 -3.48284,-4.428592 h -2.39333 l -0.42776,0.562831 c -0.46178,0.607576 -0.47597,0.771053 -0.47619,5.483957 -6e-5,1.505369 0.006,1.528929 0.53422,2.166159 l 0.53429,0.644237 h 2.20454 c 1.6843,0 2.30584,-0.06893 2.63382,-0.292081 z m -4.82891,-1.428189 c -0.0833,-0.204839 -0.15149,-1.455023 -0.15149,-2.778185 0,-1.930313 0.0455,-2.465545 0.22996,-2.708322 0.18699,-0.24603 0.60992,-0.302575 2.26315,-0.302575 1.86036,0 2.04605,0.03166 2.18467,0.372437 0.0833,0.204839 0.15149,1.423584 0.15149,2.708323 0,1.284738 -0.0682,2.503483 -0.15149,2.708322 -0.13904,0.341801 -0.3252,0.372437 -2.26315,0.372437 -1.93796,0 -2.12411,-0.03064 -2.26314,-0.372437 z M 99.819563,-68.974643 c 0.865207,-0.475652 0.946127,-0.829104 0.965527,-4.217203 0.025,-4.364576 -0.11943,-4.559793 -3.373477,-4.559793 -3.19297,0 -3.36585,0.232419 -3.36585,4.524867 0,3.162606 0.11342,3.688166 0.90703,4.202772 0.64877,0.420683 4.12716,0.455959 4.86677,0.04934 z m -4.51945,-1.377669 c -0.18699,-0.246032 -0.22996,-0.802501 -0.22996,-2.97771 0,-2.447767 0.0241,-2.692079 0.28306,-2.87446 0.36816,-0.259246 3.74864,-0.259246 4.1168,0 0.25978,0.182926 0.28307,0.427861 0.28307,2.97771 0,2.549848 -0.0233,2.794783 -0.28307,2.977715 -0.15568,0.109625 -1.10585,0.199322 -2.1115,0.199322 -1.46709,0 -1.87388,-0.0598 -2.0584,-0.302577 z m 14.059247,1.335625 c 0.8158,-0.50936 0.9303,-1.027525 0.9303,-4.210085 0,-4.292448 -0.17288,-4.524867 -3.36585,-4.524867 -3.24567,0 -3.36586,0.161579 -3.36586,4.524867 0,3.42171 0.0734,3.755704 0.93341,4.248193 0.69952,0.400571 4.20939,0.373096 4.868,-0.0381 z m -4.52092,-1.241021 c -0.22516,-0.172551 -0.2561,-0.531564 -0.2561,-2.971859 0,-2.547081 0.0233,-2.792005 0.28307,-2.974915 0.36815,-0.259246 3.74864,-0.259246 4.1168,0 0.259,0.182381 0.28306,0.426693 0.28306,2.87446 0,2.175209 -0.043,2.731678 -0.22996,2.97771 -0.18541,0.243936 -0.58953,0.301442 -2.08537,0.29672 -1.02047,-0.0033 -1.97065,-0.09417 -2.1115,-0.202116 z m 13.83397,1.293555 c 1.0027,-0.558396 1.05627,-0.77544 1.05627,-4.27913 v -3.153114 l -0.47829,-0.629482 -0.47829,-0.629486 h -2.40893 -2.40894 l -0.47863,0.628952 -0.47862,0.628951 -0.0417,2.933178 c -0.0381,2.679045 -0.0156,2.988342 0.25898,3.569847 0.16537,0.350165 0.51339,0.758345 0.77339,0.907066 0.64742,0.370317 4.03135,0.387089 4.68474,0.0232 z m -4.48202,-1.437702 c -0.19925,-0.289691 -0.24219,-0.796486 -0.24219,-2.85837 0,-3.265561 -0.0951,-3.143579 2.45229,-3.143579 1.54765,0 1.96136,0.0583 2.14701,0.302577 0.18596,0.244673 0.22997,0.791645 0.22997,2.858364 0,3.320841 0.0976,3.193128 -2.44007,3.193128 -1.6595,0 -1.93601,-0.04536 -2.14701,-0.35212 z M 99.941513,-81.041352 c 0.712087,-0.42689 0.835947,-1.048026 0.835947,-4.192151 0,-4.424067 -0.0248,-4.456077 -3.446387,-4.456077 h -2.29019 l -0.49756,0.65466 -0.49756,0.65466 v 3.11927 3.11927 l 0.49756,0.654664 0.49756,0.654659 h 2.27604 c 1.32482,0 2.42171,-0.08733 2.62459,-0.208955 z m -4.69575,-1.369935 c -0.11937,-0.157055 -0.17561,-1.069711 -0.17561,-2.849703 0,-1.779992 0.0562,-2.69264 0.17561,-2.8497 0.24428,-0.32141 4.08742,-0.32141 4.3317,0 0.24428,0.32141 0.24428,5.377995 0,5.699403 -0.24428,0.321407 -4.08742,0.321407 -4.3317,0 z m 14.546337,0.924231 0.49756,-0.654664 v -3.11927 -3.11927 l -0.49756,-0.65466 -0.49756,-0.65466 h -2.37073 -2.37073 l -0.49757,0.65466 -0.49756,0.65466 v 3.11927 3.11927 l 0.49756,0.654664 0.49757,0.654659 h 2.37073 2.37073 z m -5.03415,-0.924231 c -0.24428,-0.321408 -0.24428,-5.377993 0,-5.699403 0.24428,-0.32141 4.08743,-0.32141 4.33171,0 0.24428,0.32141 0.24428,5.377995 0,5.699403 -0.24428,0.321407 -4.08743,0.321407 -4.33171,0 z m 14.08309,1.391145 c 0.20642,-0.103267 0.50681,-0.471509 0.66752,-0.81833 0.25657,-0.55369 0.2922,-0.971012 0.2922,-3.422518 0,-2.45151 -0.0356,-2.86883 -0.2922,-3.42252 -0.16071,-0.34681 -0.4611,-0.71506 -0.66752,-0.81832 -0.20642,-0.10327 -1.32917,-0.18775 -2.495,-0.18775 -3.238,0 -3.42223,0.23653 -3.42223,4.393675 0,4.234604 0.17266,4.461713 3.39291,4.462788 1.18195,3.87e-4 2.3179,-0.08376 2.52432,-0.187025 z m -4.74135,-1.532525 c -0.0833,-0.20484 -0.15149,-1.423582 -0.15149,-2.708323 0,-1.28474 0.0682,-2.50348 0.15149,-2.70832 0.13903,-0.3418 0.32518,-0.37244 2.26314,-0.37244 1.93795,0 2.12411,0.0306 2.26315,0.37244 0.0833,0.20484 0.15149,1.42358 0.15149,2.70832 0,1.284741 -0.0682,2.503483 -0.15149,2.708323 -0.13904,0.341804 -0.3252,0.37244 -2.26315,0.37244 -1.93796,0 -2.12411,-0.03062 -2.26314,-0.37244 z M 99.897803,-93.05806 c 0.817357,-0.55613 0.879657,-0.85624 0.879657,-4.23715 0,-4.36562 -0.1188,-4.52486 -3.375617,-4.52486 -3.16867,0 -3.35608,0.25269 -3.35608,4.52486 0,4.31376 0.14446,4.50514 3.4097,4.51733 1.51444,0.006 2.12522,-0.0644 2.44234,-0.28018 z m -4.59769,-1.36269 c -0.3375,-0.44406 -0.3375,-5.30486 0,-5.74892 0.18452,-0.24278 0.59131,-0.30257 2.0584,-0.30257 1.00565,0 1.95582,0.0897 2.1115,0.19932 0.25978,0.18293 0.28307,0.42786 0.28307,2.97771 0,2.54985 -0.0233,2.79479 -0.28307,2.97771 -0.15568,0.10963 -1.10585,0.19932 -2.1115,0.19932 -1.46709,0 -1.87388,-0.0598 -2.0584,-0.30257 z m 14.033307,1.37676 c 0.8218,-0.45179 0.95624,-1.0495 0.95624,-4.25122 0,-4.27217 -0.18742,-4.52486 -3.35608,-4.52486 -3.25683,0 -3.37563,0.15924 -3.37563,4.52486 0,3.42171 0.0734,3.75571 0.93341,4.24819 0.64757,0.37083 4.16903,0.37303 4.84206,0.003 z m -4.57547,-1.30524 c -0.12017,-0.15811 -0.17561,-1.09816 -0.17561,-2.97771 0,-2.51848 0.0235,-2.76321 0.28307,-2.94598 0.15568,-0.10963 1.08196,-0.19932 2.0584,-0.19932 0.97643,0 1.90271,0.0897 2.0584,0.19932 0.25977,0.18293 0.28306,0.42786 0.28306,2.97771 0,2.54985 -0.0233,2.79479 -0.28306,2.97771 -0.40799,0.28729 -4.00231,0.26029 -4.22426,-0.0317 z m 14.49271,0.85313 0.47802,-0.62948 v -3.15782 c 0,-3.08267 -0.009,-3.16972 -0.35709,-3.65794 -0.54358,-0.76131 -1.20218,-0.92559 -3.40898,-0.85035 -1.85161,0.0631 -2.01684,0.0996 -2.35689,0.52014 -0.62451,0.77233 -0.70756,1.31963 -0.65639,4.32525 0.0456,2.67639 0.0636,2.82081 0.4135,3.31563 0.20122,0.28454 0.49756,0.5921 0.65854,0.68347 0.16098,0.0914 1.29587,0.14687 2.52198,0.12336 l 2.2293,-0.0428 z m -5.06027,-0.9742 c -0.19925,-0.28968 -0.24219,-0.79648 -0.24219,-2.85836 0,-3.26384 -0.0933,-3.14358 2.44006,-3.14358 2.4806,0 2.38921,-0.12282 2.38921,3.21049 0,3.26383 0.0933,3.14357 -2.44007,3.14357 -1.6595,0 -1.93601,-0.0453 -2.14701,-0.35212 z"
           id="path4148"
           inkscape:connector-curvature="0" />
      </g>
    </g>
  </g>
</svg>
