<?xml version="1.0" encoding="UTF-8" standalone="no"?>
<!-- Created with Inkscape (http://www.inkscape.org/) -->

<svg
   xmlns:dc="http://purl.org/dc/elements/1.1/"
   xmlns:cc="http://creativecommons.org/ns#"
   xmlns:rdf="http://www.w3.org/1999/02/22-rdf-syntax-ns#"
   xmlns:svg="http://www.w3.org/2000/svg"
   xmlns="http://www.w3.org/2000/svg"
   xmlns:sodipodi="http://sodipodi.sourceforge.net/DTD/sodipodi-0.dtd"
   xmlns:inkscape="http://www.inkscape.org/namespaces/inkscape"
   width="150"
   height="150"
   viewBox="0 0 39.687499 39.687501"
   version="1.1"
   id="svg922"
   inkscape:version="0.92.4 (5da689c313, 2019-01-14)"
   sodipodi:docname="USO_SCIENCE_background_and_toonbox.svg">
  <defs
     id="defs916">
    <clipPath
       clipPathUnits="userSpaceOnUse"
       id="clipPath1521">
      <rect
         style="opacity:0.875;fill:#000000;fill-opacity:1;stroke:#000000;stroke-width:0.60403091;stroke-linejoin:round;stroke-miterlimit:4;stroke-dasharray:none;stroke-opacity:1"
         id="rect1523"
         width="172.87534"
         height="151.42299"
         x="57.114269"
         y="66.644836" />
    </clipPath>
  </defs>
  <sodipodi:namedview
     id="base"
     pagecolor="#ffffff"
     bordercolor="#666666"
     borderopacity="1.0"
     inkscape:pageopacity="0.0"
     inkscape:pageshadow="2"
     inkscape:zoom="1.7308594"
     inkscape:cx="123.93374"
     inkscape:cy="37.082487"
     inkscape:document-units="mm"
     inkscape:current-layer="layer1"
     showgrid="false"
     inkscape:window-width="1262"
     inkscape:window-height="792"
     inkscape:window-x="2182"
     inkscape:window-y="78"
     inkscape:window-maximized="0"
     units="px" />
  <metadata
     id="metadata919">
    <rdf:RDF>
      <cc:Work
         rdf:about="">
        <dc:format>image/svg+xml</dc:format>
        <dc:type
           rdf:resource="http://purl.org/dc/dcmitype/StillImage" />
        <dc:title></dc:title>
      </cc:Work>
    </rdf:RDF>
  </metadata>
  <g
     inkscape:label="Layer 1"
     inkscape:groupmode="layer"
     id="layer1"
     transform="translate(0,-257.31248)">
    <g
       id="g4457"
       transform="matrix(0.29810629,0,0,0.28984518,-10.572748,244.26355)">
      <path
         sodipodi:nodetypes="cccsc"
         inkscape:connector-curvature="0"
         id="rect49496"
         d="m 40.541649,79.335309 c 2.80732,-6.317614 108.472621,-6.074633 123.530051,0 4.5938,4.373733 6.63549,65.541321 -1.78648,66.513261 -7.91153,7.77553 -117.398454,6.1941 -122.509204,2.18686 -3.825143,-2.9992 -5.359428,-65.541314 0.765633,-68.700121 z"
         style="opacity:0.875;fill:#999999;fill-opacity:1;stroke:none;stroke-width:0.40600324;stroke-linejoin:round;stroke-miterlimit:4;stroke-dasharray:none;stroke-opacity:0.97175137" />
      <path
         inkscape:connector-curvature="0"
         id="path49494"
         d="m 41.515717,150.96879 c -5.507184,-2.22305 -6.049347,-5.50145 -6.049347,-36.57973 0,-29.733461 0,-29.733461 3.974431,-33.36108 2.18594,-1.995188 6.396428,-4.188245 9.356647,-4.873451 3.402268,-0.787527 24.249485,-1.245399 56.670472,-1.244663 69.024,0.0013 63.36037,-3.412696 62.78997,37.852504 -0.41236,29.83272 -0.41236,29.83272 -3.87779,33.40508 -1.90598,1.96481 -5.721,4.15299 -8.47784,4.86263 -6.61702,1.70333 -110.152487,1.64784 -114.386543,-0.0613 z m 116.461643,-3.64957 c 6.90163,-3.77461 7.78892,-7.61481 7.78892,-33.71112 0,-26.658265 -0.87856,-30.145852 -8.58015,-34.060309 -4.38232,-2.227388 -6.88024,-2.332355 -55.59902,-2.336486 -42.552236,-0.0039 -51.67474,0.28201 -55.016081,1.722465 -8.149785,3.513384 -8.332321,4.272983 -8.332321,34.67433 0,29.78332 0.257651,30.98838 7.348474,34.36985 4.327606,2.06374 26.286976,2.69784 70.342788,2.03122 33.93071,-0.51341 38.61573,-0.81313 42.04739,-2.68995 z M 49.882052,144.89229 c -2.363667,-0.85781 -4.699673,-2.43317 -5.191116,-3.50081 -0.73284,-1.59207 -0.237972,-1.51128 2.751823,0.44929 3.15444,2.06854 5.720171,2.40835 19.052805,2.52335 11.972356,0.10326 14.171275,0.34606 9.862796,1.08899 -8.464296,1.45955 -21.680601,1.1796 -26.476308,-0.56082 z M 154.67692,85.873908 c -1.26333,-1.269008 -4.74384,-1.751225 -12.99179,-1.799981 -6.19639,-0.0366 -13.76127,-0.496843 -16.81085,-1.022698 -4.35912,-0.751666 -2.37246,-0.984513 9.29143,-1.08899 14.81004,-0.132662 21.05768,0.998442 22.4707,4.068194 0.94905,2.061795 0.18841,2.001034 -1.95949,-0.156525 z"
         style="fill:#000000;stroke-width:1.26563919" />
      <text
         transform="scale(0.88602741,1.1286333)"
         id="text49550"
         y="125.00746"
         x="74.932625"
         style="font-style:normal;font-variant:normal;font-weight:normal;font-stretch:normal;font-size:16.97093201px;font-family:Insaniburger;-inkscape-font-specification:Insaniburger;opacity:1;vector-effect:none;fill:#000000;fill-opacity:1;stroke:none;stroke-width:0.19887809;stroke-linecap:butt;stroke-linejoin:miter;stroke-miterlimit:4;stroke-dasharray:none;stroke-dashoffset:0;stroke-opacity:1"
         xml:space="preserve"><tspan
           style="font-style:normal;font-variant:normal;font-weight:normal;font-stretch:normal;font-family:Insaniburger;-inkscape-font-specification:Insaniburger;stroke-width:0.19887809"
           y="125.00746"
           x="74.932625"
           id="tspan49548"
           sodipodi:role="line">TEST TEXT</tspan></text>
      <path
         style="fill:#000000;fill-opacity:1;stroke-width:0.30651942"
         d="m 85.063605,126.73358 c -0.508886,-0.20628 -1.208876,-0.69788 -1.555546,-1.09247 l -0.63031,-0.71742 -0.02138,-0.94841 -0.02138,-0.9484 5.569915,-8.97656 5.569917,-8.97658 v -3.36756 -3.367551 l -0.709886,-0.13845 -0.709879,-0.13844 v -0.67723 -0.67723 l 0.686553,-0.27403 0.68654,-0.27402 h 6.258091 6.25811 l 0.68654,0.27402 0.68655,0.27403 v 0.66075 0.66076 l -0.53242,0.15237 -0.5324,0.15237 v 3.362441 3.36244 l 5.54124,8.98423 5.54123,8.98424 -0.0172,0.9763 -0.0172,0.97629 -0.60767,0.69165 c -0.33423,0.3804 -1.0552,0.86423 -1.60216,1.07517 l -0.9945,0.38353 -14.30395,-0.0106 -14.303879,-0.0106 -0.925229,-0.37505 z M 103.6319,114.99332 c 2.48069,-0.60434 4.80998,-1.09879 5.1762,-1.09879 0.36621,0 0.75628,-0.0675 0.86683,-0.14989 0.11054,-0.0824 -0.98089,-2.066 -2.42542,-4.40789 l -2.62642,-4.25799 v -3.26858 -3.268591 h -4.25928 -4.259246 v 3.279181 3.2792 l -3.013659,4.8341 c -1.657509,2.65873 -3.055072,5.02304 -3.105702,5.25401 l -0.09206,0.41993 2.129636,0.321 2.129619,0.32098 2.484568,-0.079 2.484569,-0.0789 z M 98.98312,94.201599 c -1.14565,-0.47356 -1.786013,-1.4082 -1.801164,-2.62891 l -0.01258,-1.01301 1.037507,-0.77375 1.037512,-0.77375 1.535795,0.006 1.53579,0.006 0.75706,0.45734 c 1.02701,0.62041 1.55004,1.44771 1.55004,2.45172 v 0.83799 l -1.20679,0.9 -1.20679,0.9 -1.18906,-0.009 c -0.65396,-0.005 -1.570755,-0.16717 -2.037323,-0.36002 z m 2.93723,-0.72376 0.88006,-0.29905 0.41102,-0.74 0.411,-0.74001 -0.47658,-0.74155 -0.47658,-0.74156 -0.96095,-0.25204 -0.96096,-0.25204 -0.906867,0.30816 -0.906881,0.30816 -0.394757,0.64613 -0.394764,0.64616 0.227032,0.67459 0.227019,0.67459 0.971571,0.39316 c 1.193117,0.48279 1.259557,0.48605 2.350637,0.1153 z m 3.77345,-4.16164 c -0.67393,-0.26954 -1.52755,-0.79197 -1.89693,-1.16094 l -0.6716,-0.670842 -0.1578,-1.155232 -0.1578,-1.155245 0.64051,-0.921194 0.64051,-0.921199 1.20604,-0.600867 1.20605,-0.600861 h 1.49225 1.49225 l 1.20605,0.600861 1.20603,0.600867 0.62061,0.921199 c 0.79595,1.181503 0.78773,2.281133 -0.0256,3.440026 l -0.64742,0.922337 -1.55745,0.5956 c -1.89274,0.72381 -2.98687,0.74893 -4.5956,0.10549 z m 4.99058,-1.34248 1.03751,-0.773759 v -1.175839 -1.175846 l -0.71543,-0.678308 -0.71542,-0.678296 -1.23886,-0.304923 -1.23885,-0.304911 -1.32891,0.484284 -1.32891,0.484285 -0.64937,0.99107 -0.64938,0.991076 0.40887,0.923904 0.40884,0.923911 0.90954,0.533552 0.90952,0.53354 h 1.57666 1.57667 z m -14.934759,-0.814488 -0.70988,-0.529409 v -0.602863 c 0,-0.331577 0.248651,-0.867606 0.55254,-1.191179 l 0.552527,-0.588315 h 1.196808 1.196802 l 0.557755,0.415964 c 0.87315,0.65117 0.84537,1.805433 -0.06167,2.561979 l -0.555389,0.463237 h -1.009799 -1.009799 z m 2.970252,-0.559985 0.525921,-0.559984 -0.277883,-0.56501 -0.277884,-0.565017 -0.95926,-0.08531 -0.959254,-0.08531 -0.510946,0.316251 c -1.132696,0.701064 -0.374391,2.104355 1.137142,2.104355 h 0.796223 z"
         id="path55131"
         inkscape:connector-curvature="0" />
    </g>
  </g>
</svg>
