<?xml version="1.0" encoding="UTF-8" standalone="no"?>
<!-- Created with Inkscape (http://www.inkscape.org/) -->

<svg
   xmlns:dc="http://purl.org/dc/elements/1.1/"
   xmlns:cc="http://creativecommons.org/ns#"
   xmlns:rdf="http://www.w3.org/1999/02/22-rdf-syntax-ns#"
   xmlns:svg="http://www.w3.org/2000/svg"
   xmlns="http://www.w3.org/2000/svg"
   xmlns:sodipodi="http://sodipodi.sourceforge.net/DTD/sodipodi-0.dtd"
   xmlns:inkscape="http://www.inkscape.org/namespaces/inkscape"
   width="150"
   height="150"
   viewBox="0 0 39.687499 39.687501"
   version="1.1"
   id="svg922"
   inkscape:version="0.92.4 (5da689c313, 2019-01-14)"
   sodipodi:docname="USO_EDUCATION_background_and_toonbox.svg">
  <defs
     id="defs916">
    <clipPath
       clipPathUnits="userSpaceOnUse"
       id="clipPath1521">
      <rect
         style="opacity:0.875;fill:#000000;fill-opacity:1;stroke:#000000;stroke-width:0.60403091;stroke-linejoin:round;stroke-miterlimit:4;stroke-dasharray:none;stroke-opacity:1"
         id="rect1523"
         width="172.87534"
         height="151.42299"
         x="57.114269"
         y="66.644836" />
    </clipPath>
  </defs>
  <sodipodi:namedview
     id="base"
     pagecolor="#ffffff"
     bordercolor="#666666"
     borderopacity="1.0"
     inkscape:pageopacity="0.0"
     inkscape:pageshadow="2"
     inkscape:zoom="1.7308594"
     inkscape:cx="123.93374"
     inkscape:cy="70.72691"
     inkscape:document-units="mm"
     inkscape:current-layer="layer1"
     showgrid="false"
     inkscape:window-width="1262"
     inkscape:window-height="792"
     inkscape:window-x="2182"
     inkscape:window-y="78"
     inkscape:window-maximized="0"
     units="px" />
  <metadata
     id="metadata919">
    <rdf:RDF>
      <cc:Work
         rdf:about="">
        <dc:format>image/svg+xml</dc:format>
        <dc:type
           rdf:resource="http://purl.org/dc/dcmitype/StillImage" />
        <dc:title></dc:title>
      </cc:Work>
    </rdf:RDF>
  </metadata>
  <g
     inkscape:label="Layer 1"
     inkscape:groupmode="layer"
     id="layer1"
     transform="translate(0,-257.31248)">
    <g
       id="g3810"
       transform="matrix(0.29810629,0,0,0.28984518,-10.572748,244.26355)">
      <path
         sodipodi:nodetypes="cccsc"
         inkscape:connector-curvature="0"
         id="rect49496"
         d="m 40.541649,79.335309 c 2.80732,-6.317614 108.472621,-6.074633 123.530051,0 4.5938,4.373733 6.63549,65.541321 -1.78648,66.513261 -7.91153,7.77553 -117.398454,6.1941 -122.509204,2.18686 -3.825143,-2.9992 -5.359428,-65.541314 0.765633,-68.700121 z"
         style="opacity:0.875;fill:#999999;fill-opacity:1;stroke:none;stroke-width:0.40600324;stroke-linejoin:round;stroke-miterlimit:4;stroke-dasharray:none;stroke-opacity:0.97175137" />
      <path
         inkscape:connector-curvature="0"
         id="path49494"
         d="m 41.515717,150.96879 c -5.507184,-2.22305 -6.049347,-5.50145 -6.049347,-36.57973 0,-29.733461 0,-29.733461 3.974431,-33.36108 2.18594,-1.995188 6.396428,-4.188245 9.356647,-4.873451 3.402268,-0.787527 24.249485,-1.245399 56.670472,-1.244663 69.024,0.0013 63.36037,-3.412696 62.78997,37.852504 -0.41236,29.83272 -0.41236,29.83272 -3.87779,33.40508 -1.90598,1.96481 -5.721,4.15299 -8.47784,4.86263 -6.61702,1.70333 -110.152487,1.64784 -114.386543,-0.0613 z m 116.461643,-3.64957 c 6.90163,-3.77461 7.78892,-7.61481 7.78892,-33.71112 0,-26.658265 -0.87856,-30.145852 -8.58015,-34.060309 -4.38232,-2.227388 -6.88024,-2.332355 -55.59902,-2.336486 -42.552236,-0.0039 -51.67474,0.28201 -55.016081,1.722465 -8.149785,3.513384 -8.332321,4.272983 -8.332321,34.67433 0,29.78332 0.257651,30.98838 7.348474,34.36985 4.327606,2.06374 26.286976,2.69784 70.342788,2.03122 33.93071,-0.51341 38.61573,-0.81313 42.04739,-2.68995 z M 49.882052,144.89229 c -2.363667,-0.85781 -4.699673,-2.43317 -5.191116,-3.50081 -0.73284,-1.59207 -0.237972,-1.51128 2.751823,0.44929 3.15444,2.06854 5.720171,2.40835 19.052805,2.52335 11.972356,0.10326 14.171275,0.34606 9.862796,1.08899 -8.464296,1.45955 -21.680601,1.1796 -26.476308,-0.56082 z M 154.67692,85.873908 c -1.26333,-1.269008 -4.74384,-1.751225 -12.99179,-1.799981 -6.19639,-0.0366 -13.76127,-0.496843 -16.81085,-1.022698 -4.35912,-0.751666 -2.37246,-0.984513 9.29143,-1.08899 14.81004,-0.132662 21.05768,0.998442 22.4707,4.068194 0.94905,2.061795 0.18841,2.001034 -1.95949,-0.156525 z"
         style="fill:#000000;stroke-width:1.26563919" />
      <text
         transform="scale(0.88602741,1.1286333)"
         id="text49550"
         y="125.00746"
         x="74.932625"
         style="font-style:normal;font-variant:normal;font-weight:normal;font-stretch:normal;font-size:16.97093201px;font-family:Insaniburger;-inkscape-font-specification:Insaniburger;opacity:1;vector-effect:none;fill:#000000;fill-opacity:1;stroke:none;stroke-width:0.19887809;stroke-linecap:butt;stroke-linejoin:miter;stroke-miterlimit:4;stroke-dasharray:none;stroke-dashoffset:0;stroke-opacity:1"
         xml:space="preserve"><tspan
           style="font-style:normal;font-variant:normal;font-weight:normal;font-stretch:normal;font-family:Insaniburger;-inkscape-font-specification:Insaniburger;stroke-width:0.19887809"
           y="125.00746"
           x="74.932625"
           id="tspan49548"
           sodipodi:role="line">TEST TEXT</tspan></text>
      <g
         id="g54718"
         transform="matrix(0.44591349,0,0,0.38297267,142.57606,-62.723855)">
        <path
           inkscape:connector-curvature="0"
           style="fill:#000000;fill-opacity:1;stroke-width:0.35277778"
           d="m -44.875799,495.09863 c -0.281277,-0.53357 -1.216788,-1.70993 -2.07891,-2.61413 -3.4147,-3.58133 -4.049281,-7.0609 -2.273676,-12.46712 1.753504,-5.33892 1.82502,-5.82282 0.951041,-6.43498 -0.983172,-0.68864 -2.08465,-3.10792 -2.09464,-4.60065 -0.0157,-2.34762 1.576208,-4.91615 3.55488,-5.73574 1.023486,-0.42394 1.023486,-0.42394 1.023486,-16.77397 0,-16.35003 0,-16.35003 -2.910419,-17.22423 -14.065032,-4.22469 -37.767369,-11.15218 -37.855514,-11.06404 -0.06058,0.0606 7.975716,3.35522 17.858443,7.32142 9.882726,3.9662 17.961194,7.29711 17.952144,7.40202 -0.01319,0.15317 -21.760983,12.08687 -38.231846,20.97903 -3.219827,1.73829 -3.219827,1.73829 -7.797574,-0.75691 -2.517754,-1.37236 -12.753416,-6.96659 -22.745906,-12.43162 -9.99248,-5.46503 -23.76074,-12.98254 -30.59613,-16.70559 -6.83536,-3.72305 -12.43129,-6.85014 -12.43543,-6.9491 -0.009,-0.20637 -0.60729,0.12505 29.80232,-16.49771 12.61188,-6.89399 26.82008,-14.67197 31.57379,-17.28438 4.753682,-2.61242 8.801807,-4.74963 8.995835,-4.74936 0.194028,2.6e-4 6.861528,3.56813 14.816666,7.92858 7.955139,4.36046 21.131393,11.57677 29.280564,16.03624 8.14917,4.45947 17.396357,9.51992 20.549308,11.24545 3.152952,1.72552 5.726765,3.21917 5.719583,3.31921 -0.0072,0.10004 -4.571242,2.66277 -10.142361,5.69496 -10.129305,5.51306 -10.129305,5.51306 -10.220798,22.79819 -0.09149,17.28513 -0.09149,17.28513 0.935292,17.71044 1.33115,0.55138 2.339541,1.6441 3.019919,3.27248 0.995733,2.38313 0.472792,4.96249 -1.382173,6.81746 -1.031162,1.03116 -1.003805,1.26599 0.778513,6.6828 1.350868,4.10555 1.287996,6.75292 -0.227753,9.58998 -0.641068,1.1999 -1.700713,2.6686 -2.35477,3.26378 -0.654054,0.59518 -1.435333,1.55813 -1.736171,2.13989 -0.678142,1.31138 -1.072068,1.33135 -1.727713,0.0876 z"
           id="path54547" />
        <path
           inkscape:connector-curvature="0"
           style="fill:#000000;fill-opacity:1;stroke-width:0.35277778"
           d="m -101.36417,481.71683 c -4.91874,-0.42604 -12.05945,-1.93227 -16.75694,-3.53463 -6.80604,-2.32161 -12.28478,-6.1856 -14.40478,-10.15926 -0.94105,-1.76389 -0.94105,-1.76389 -1.04549,-14.72847 -0.0574,-7.13052 -0.0158,-12.96458 0.0925,-12.96458 0.14744,0 29.2953,15.86279 39.005249,21.22735 1.246113,0.68846 1.246113,0.68846 4.056944,-0.87506 7.72602,-4.2976 37.225463,-20.35229 37.395996,-20.35229 0.107756,0 0.148929,5.83406 0.09149,12.96458 -0.104433,12.96458 -0.104433,12.96458 -1.145896,14.8447 -4.628614,8.35587 -20.745181,13.94122 -39.702206,13.75919 -3.396675,-0.0326 -6.810777,-0.1143 -7.586887,-0.18153 z"
           id="path54432" />
        <path
           inkscape:connector-curvature="0"
           style="fill:#333333;fill-opacity:1;stroke-width:0.35277778"
           d="m -65.028056,476.49013 c -0.119916,-0.19402 -0.407098,-0.35034 -0.638182,-0.34737 -0.252451,0.003 -0.208939,0.14189 0.109016,0.34737 0.677728,0.43799 0.799853,0.43799 0.529166,0 z"
           id="path54455" />
        <path
           inkscape:connector-curvature="0"
           style="fill:#333333;fill-opacity:1;stroke-width:0.35277778"
           d="m -101.35483,465.62215 c -0.10862,-0.10861 -0.39327,-2.2e-4 -0.63258,0.24087 -0.34581,0.34841 -0.30529,0.38893 0.19749,0.19749 0.34791,-0.13248 0.54371,-0.32974 0.43509,-0.43836 z"
           id="path54453" />
        <path
           inkscape:connector-curvature="0"
           style="fill:#333333;fill-opacity:1;stroke-width:0.35277778"
           d="m -178.04833,452.23666 c 0.43881,-0.55953 0.42633,-0.572 -0.13319,-0.13319 -0.33955,0.26629 -0.61737,0.5441 -0.61737,0.61736 0,0.29035 0.2897,0.10347 0.75056,-0.48417 z"
           id="path54451" />
        <path
           inkscape:connector-curvature="0"
           style="fill:#333333;fill-opacity:1;stroke-width:0.35277778"
           d="m -166.45166,439.97763 c 0.4557,-0.48507 0.74917,-0.88194 0.65215,-0.88194 -0.097,0 -0.54923,0.39687 -1.00493,0.88194 -0.4557,0.48507 -0.74917,0.88195 -0.65216,0.88195 0.097,0 0.54924,-0.39688 1.00494,-0.88195 z"
           id="path54447" />
      </g>
    </g>
  </g>
</svg>
