<?xml version="1.0" encoding="UTF-8" standalone="no"?>
<!-- Created with Inkscape (http://www.inkscape.org/) -->

<svg
   xmlns:dc="http://purl.org/dc/elements/1.1/"
   xmlns:cc="http://creativecommons.org/ns#"
   xmlns:rdf="http://www.w3.org/1999/02/22-rdf-syntax-ns#"
   xmlns:svg="http://www.w3.org/2000/svg"
   xmlns="http://www.w3.org/2000/svg"
   xmlns:sodipodi="http://sodipodi.sourceforge.net/DTD/sodipodi-0.dtd"
   xmlns:inkscape="http://www.inkscape.org/namespaces/inkscape"
   width="150"
   height="150"
   viewBox="0 0 39.687499 39.687501"
   version="1.1"
   id="svg922"
   inkscape:version="0.92.4 (5da689c313, 2019-01-14)"
   sodipodi:docname="USO_UTILITIES_background_and_toonbox.svg">
  <defs
     id="defs916">
    <clipPath
       clipPathUnits="userSpaceOnUse"
       id="clipPath1521">
      <rect
         style="opacity:0.875;fill:#000000;fill-opacity:1;stroke:#000000;stroke-width:0.60403091;stroke-linejoin:round;stroke-miterlimit:4;stroke-dasharray:none;stroke-opacity:1"
         id="rect1523"
         width="172.87534"
         height="151.42299"
         x="57.114269"
         y="66.644836" />
    </clipPath>
  </defs>
  <sodipodi:namedview
     id="base"
     pagecolor="#ffffff"
     bordercolor="#666666"
     borderopacity="1.0"
     inkscape:pageopacity="0.0"
     inkscape:pageshadow="2"
     inkscape:zoom="1.2239024"
     inkscape:cx="123.93374"
     inkscape:cy="73.049573"
     inkscape:document-units="mm"
     inkscape:current-layer="layer1"
     showgrid="false"
     inkscape:window-width="1262"
     inkscape:window-height="792"
     inkscape:window-x="2182"
     inkscape:window-y="78"
     inkscape:window-maximized="0"
     units="px" />
  <metadata
     id="metadata919">
    <rdf:RDF>
      <cc:Work
         rdf:about="">
        <dc:format>image/svg+xml</dc:format>
        <dc:type
           rdf:resource="http://purl.org/dc/dcmitype/StillImage" />
        <dc:title></dc:title>
      </cc:Work>
    </rdf:RDF>
  </metadata>
  <g
     inkscape:label="Layer 1"
     inkscape:groupmode="layer"
     id="layer1"
     transform="translate(0,-257.31247)">
    <g
       id="g2460"
       transform="matrix(0.29810629,0,0,0.28984518,-10.572748,244.26354)">
      <path
         sodipodi:nodetypes="cccsc"
         inkscape:connector-curvature="0"
         id="rect49496"
         d="m 40.541649,79.335309 c 2.80732,-6.317614 108.472621,-6.074633 123.530051,0 4.5938,4.373733 6.63549,65.541321 -1.78648,66.513261 -7.91153,7.77553 -117.398454,6.1941 -122.509204,2.18686 -3.825143,-2.9992 -5.359428,-65.541314 0.765633,-68.700121 z"
         style="opacity:0.875;fill:#999999;fill-opacity:1;stroke:none;stroke-width:0.40600324;stroke-linejoin:round;stroke-miterlimit:4;stroke-dasharray:none;stroke-opacity:0.97175137" />
      <path
         inkscape:connector-curvature="0"
         id="path49494"
         d="m 41.515717,150.96879 c -5.507184,-2.22305 -6.049347,-5.50145 -6.049347,-36.57973 0,-29.733461 0,-29.733461 3.974431,-33.36108 2.18594,-1.995188 6.396428,-4.188245 9.356647,-4.873451 3.402268,-0.787527 24.249485,-1.245399 56.670472,-1.244663 69.024,0.0013 63.36037,-3.412696 62.78997,37.852504 -0.41236,29.83272 -0.41236,29.83272 -3.87779,33.40508 -1.90598,1.96481 -5.721,4.15299 -8.47784,4.86263 -6.61702,1.70333 -110.152487,1.64784 -114.386543,-0.0613 z m 116.461643,-3.64957 c 6.90163,-3.77461 7.78892,-7.61481 7.78892,-33.71112 0,-26.658265 -0.87856,-30.145852 -8.58015,-34.060309 -4.38232,-2.227388 -6.88024,-2.332355 -55.59902,-2.336486 -42.552236,-0.0039 -51.67474,0.28201 -55.016081,1.722465 -8.149785,3.513384 -8.332321,4.272983 -8.332321,34.67433 0,29.78332 0.257651,30.98838 7.348474,34.36985 4.327606,2.06374 26.286976,2.69784 70.342788,2.03122 33.93071,-0.51341 38.61573,-0.81313 42.04739,-2.68995 z M 49.882052,144.89229 c -2.363667,-0.85781 -4.699673,-2.43317 -5.191116,-3.50081 -0.73284,-1.59207 -0.237972,-1.51128 2.751823,0.44929 3.15444,2.06854 5.720171,2.40835 19.052805,2.52335 11.972356,0.10326 14.171275,0.34606 9.862796,1.08899 -8.464296,1.45955 -21.680601,1.1796 -26.476308,-0.56082 z M 154.67692,85.873908 c -1.26333,-1.269008 -4.74384,-1.751225 -12.99179,-1.799981 -6.19639,-0.0366 -13.76127,-0.496843 -16.81085,-1.022698 -4.35912,-0.751666 -2.37246,-0.984513 9.29143,-1.08899 14.81004,-0.132662 21.05768,0.998442 22.4707,4.068194 0.94905,2.061795 0.18841,2.001034 -1.95949,-0.156525 z"
         style="fill:#000000;stroke-width:1.26563919" />
      <text
         transform="scale(0.88602741,1.1286333)"
         id="text49550"
         y="125.00746"
         x="74.932625"
         style="font-style:normal;font-variant:normal;font-weight:normal;font-stretch:normal;font-size:16.97093201px;font-family:Insaniburger;-inkscape-font-specification:Insaniburger;opacity:1;vector-effect:none;fill:#000000;fill-opacity:1;stroke:none;stroke-width:0.19887809;stroke-linecap:butt;stroke-linejoin:miter;stroke-miterlimit:4;stroke-dasharray:none;stroke-dashoffset:0;stroke-opacity:1"
         xml:space="preserve"><tspan
           style="font-style:normal;font-variant:normal;font-weight:normal;font-stretch:normal;font-family:Insaniburger;-inkscape-font-specification:Insaniburger;stroke-width:0.19887809"
           y="125.00746"
           x="74.932625"
           id="tspan49548"
           sodipodi:role="line">TEST TEXT</tspan></text>
      <path
         inkscape:connector-curvature="0"
         id="path53795"
         d="m 115.3685,82.597346 c -0.17679,0.0081 -0.35042,0.05399 -0.51746,0.141862 -0.48864,0.257046 -3.88107,4.088423 -7.53883,8.514113 -3.65777,4.4257 -6.90466,8.046625 -7.2151,8.046625 -0.310438,0 -3.455713,-3.543685 -6.989689,-7.875215 -3.533975,-4.33154 -6.824256,-8.119817 -7.31153,-8.418287 -2.035164,-1.246623 -3.5595,0.661718 -3.869305,4.843567 -0.194887,2.63061 -0.04858,3.36316 1.126052,5.63395 2.056943,3.97643 6.231793,7.037769 11.684568,8.568369 1.030947,0.2894 1.996176,0.80129 2.144955,1.13765 0.309119,0.69887 -1.154508,2.28284 -2.109492,2.28284 -0.350275,0 -1.346827,0.76613 -2.214356,1.70268 -1.321237,1.42635 -1.868442,1.70303 -3.370533,1.70303 -7.15573,0 -12.644747,5.99229 -10.780446,11.76905 0.784843,2.43192 3.410721,5.09063 6.113789,6.19074 2.885482,1.17434 7.340656,0.89234 9.997584,-0.63306 3.149764,-1.80835 4.665508,-4.13797 4.872193,-7.48845 0.147448,-2.39022 -0.01761,-3.12387 -1.097455,-4.86864 -1.1824,-1.91047 -1.219968,-2.13385 -0.533093,-3.19276 0.406205,-0.62621 0.955569,-1.66541 1.220623,-2.30928 0.722459,-1.75506 1.569745,-1.41979 3.246235,1.28431 1.5132,2.44071 1.51313,2.44083 0.33023,4.3565 -1.65635,2.68238 -1.43549,6.76018 0.50373,9.30242 3.89038,5.10016 11.78964,5.78381 16.67312,1.44301 1.86015,-1.65342 3.30609,-4.4816 3.30609,-6.46622 0,-5.01051 -5.3177,-9.37744 -11.42833,-9.38521 -1.52961,-0.002 -2.19102,-0.3049 -3.72671,-1.70544 -1.02693,-0.93655 -2.19545,-1.70268 -2.59646,-1.70268 -0.84823,0 -2.1297,-1.85404 -1.69919,-2.45837 0.16104,-0.22605 1.57631,-0.82729 3.14481,-1.33618 7.88111,-2.556964 12.63552,-8.683069 11.63541,-14.991662 -0.37148,-2.343306 -1.76386,-4.146092 -3.00141,-4.089262 z M 100.19244,101.7243 c 0.65046,0.008 1.31928,0.39461 1.13484,0.87522 -0.27313,0.71163 -1.661461,0.91395 -2.095012,0.30536 -0.190564,-0.2675 -0.115557,-0.68639 0.166639,-0.9312 0.206076,-0.17879 0.497877,-0.25322 0.793533,-0.24938 z m -11.615161,10.98553 c 3.423851,0 6.488139,2.63285 6.49168,5.57762 0.0021,1.77648 -1.660148,4.16127 -3.447563,4.94593 -4.022918,1.76602 -9.308528,-0.9985 -9.308528,-4.86865 0,-2.69709 3.276701,-5.6549 6.264411,-5.6549 z m 23.667781,0 c 2.32984,0 2.74634,0.15362 4.4741,1.65254 1.67401,1.45231 1.9051,1.89604 1.9051,3.65921 0,2.29349 -1.03027,4.07773 -2.88816,5.00226 -4.77785,2.3776 -9.86988,-0.16303 -9.86988,-4.92463 0,-1.85307 0.21107,-2.26716 1.90511,-3.73684 1.72774,-1.49892 2.14388,-1.65254 4.47373,-1.65254 z"
         clip-path="none"
         style="fill:#000000;fill-opacity:1;stroke-width:0.45704398" />
    </g>
  </g>
</svg>
