<?xml version="1.0" encoding="UTF-8" standalone="no"?>
<!-- Created with Inkscape (http://www.inkscape.org/) -->

<svg
   xmlns:dc="http://purl.org/dc/elements/1.1/"
   xmlns:cc="http://creativecommons.org/ns#"
   xmlns:rdf="http://www.w3.org/1999/02/22-rdf-syntax-ns#"
   xmlns:svg="http://www.w3.org/2000/svg"
   xmlns="http://www.w3.org/2000/svg"
   xmlns:sodipodi="http://sodipodi.sourceforge.net/DTD/sodipodi-0.dtd"
   xmlns:inkscape="http://www.inkscape.org/namespaces/inkscape"
   width="150"
   height="150"
   viewBox="0 0 39.6875 39.6875"
   version="1.1"
   id="svg922"
   inkscape:version="0.92.4 (5da689c313, 2019-01-14)"
   sodipodi:docname="USO_WINDOW_MANAGER_background_and_toonbox.svg">
  <defs
     id="defs916">
    <clipPath
       clipPathUnits="userSpaceOnUse"
       id="clipPath1521">
      <rect
         style="opacity:0.875;fill:#000000;fill-opacity:1;stroke:#000000;stroke-width:0.60403091;stroke-linejoin:round;stroke-miterlimit:4;stroke-dasharray:none;stroke-opacity:1"
         id="rect1523"
         width="172.87534"
         height="151.42299"
         x="57.114269"
         y="66.644836" />
    </clipPath>
  </defs>
  <sodipodi:namedview
     id="base"
     pagecolor="#ffffff"
     bordercolor="#666666"
     borderopacity="1.0"
     inkscape:pageopacity="0.0"
     inkscape:pageshadow="2"
     inkscape:zoom="0.93537183"
     inkscape:cx="124.92111"
     inkscape:cy="48.365079"
     inkscape:document-units="px"
     inkscape:current-layer="layer1"
     showgrid="false"
     inkscape:window-width="1262"
     inkscape:window-height="792"
     inkscape:window-x="2123"
     inkscape:window-y="71"
     inkscape:window-maximized="0"
     units="px" />
  <metadata
     id="metadata919">
    <rdf:RDF>
      <cc:Work
         rdf:about="">
        <dc:format>image/svg+xml</dc:format>
        <dc:type
           rdf:resource="http://purl.org/dc/dcmitype/StillImage" />
        <dc:title></dc:title>
      </cc:Work>
    </rdf:RDF>
  </metadata>
  <g
     inkscape:label="Layer 1"
     inkscape:groupmode="layer"
     id="layer1"
     transform="translate(-35.46637,-112.59198)">
    <g
       id="g1516"
       transform="matrix(0.29810629,0,0,0.28984517,22.3794,109.73336)">
      <path
         sodipodi:nodetypes="cccsc"
         inkscape:connector-curvature="0"
         id="rect49496"
         d="m 48.975627,43.131167 c 2.80732,-6.317614 108.472623,-6.074633 123.530053,0 4.5938,4.373733 6.63549,65.541323 -1.78648,66.513263 -7.91153,7.77553 -117.398456,6.1941 -122.509206,2.18686 -3.825143,-2.9992 -5.359428,-65.541316 0.765633,-68.700123 z"
         style="opacity:0.875;fill:#999999;fill-opacity:1;stroke:none;stroke-width:0.40600324;stroke-linejoin:round;stroke-miterlimit:4;stroke-dasharray:none;stroke-opacity:0.97175137" />
      <path
         inkscape:connector-curvature="0"
         id="path49494"
         d="m 49.949695,114.76465 c -5.507184,-2.22305 -6.049347,-5.50145 -6.049347,-36.579732 0,-29.733461 0,-29.733461 3.974431,-33.36108 2.18594,-1.995188 6.396428,-4.188245 9.356647,-4.873451 3.402268,-0.787527 24.249485,-1.245399 56.670474,-1.244663 69.024,0.0013 63.36037,-3.412696 62.78997,37.852504 -0.41236,29.832722 -0.41236,29.832722 -3.87779,33.405082 -1.90598,1.96481 -5.721,4.15299 -8.47784,4.86263 -6.61702,1.70333 -110.152489,1.64784 -114.386545,-0.0613 z m 116.461645,-3.64957 c 6.90163,-3.77461 7.78892,-7.61481 7.78892,-33.711122 0,-26.658265 -0.87856,-30.145852 -8.58015,-34.060309 -4.38232,-2.227388 -6.88024,-2.332355 -55.59902,-2.336486 -42.552238,-0.0039 -51.674742,0.28201 -55.016083,1.722465 -8.149785,3.513384 -8.332321,4.272983 -8.332321,34.67433 0,29.783322 0.257651,30.988382 7.348474,34.369852 4.327606,2.06374 26.286976,2.69784 70.34279,2.03122 33.93071,-0.51341 38.61573,-0.81313 42.04739,-2.68995 z M 58.31603,108.68815 c -2.363667,-0.85781 -4.699673,-2.43317 -5.191116,-3.50081 -0.73284,-1.59207 -0.237972,-1.51128 2.751823,0.44929 3.15444,2.06854 5.720171,2.40835 19.052805,2.52335 11.972356,0.10326 14.171275,0.34606 9.862796,1.08899 -8.464296,1.45955 -21.680601,1.1796 -26.476308,-0.56082 z M 163.1109,49.669766 c -1.26333,-1.269008 -4.74384,-1.751225 -12.99179,-1.799981 -6.19639,-0.0366 -13.76127,-0.496843 -16.81085,-1.022698 -4.35912,-0.751666 -2.37246,-0.984513 9.29143,-1.08899 14.81004,-0.132662 21.05768,0.998442 22.4707,4.068194 0.94905,2.061795 0.18841,2.001034 -1.95949,-0.156525 z"
         style="fill:#000000;stroke-width:1.26563919" />
      <text
         transform="scale(0.88602739,1.1286333)"
         id="text49550"
         y="92.929604"
         x="84.451492"
         style="font-style:normal;font-variant:normal;font-weight:normal;font-stretch:normal;font-size:16.97093201px;font-family:Insaniburger;-inkscape-font-specification:Insaniburger;opacity:1;vector-effect:none;fill:#000000;fill-opacity:1;stroke:none;stroke-width:0.19887809;stroke-linecap:butt;stroke-linejoin:miter;stroke-miterlimit:4;stroke-dasharray:none;stroke-dashoffset:0;stroke-opacity:1"
         xml:space="preserve"><tspan
           style="font-style:normal;font-variant:normal;font-weight:normal;font-stretch:normal;font-family:Insaniburger;-inkscape-font-specification:Insaniburger;stroke-width:0.19887809"
           y="92.929604"
           x="84.451492"
           id="tspan49548"
           sodipodi:role="line">TEST TEXT</tspan></text>
      <g
         transform="matrix(0.33202908,0,0,0.2539867,116.06295,-34.336697)"
         id="g4210">
        <rect
           style="opacity:0.875;fill:#ffffff;fill-opacity:1;stroke:none;stroke-width:0.61755061;stroke-linejoin:round;stroke-miterlimit:4;stroke-dasharray:none;stroke-opacity:1"
           id="rect4158-7"
           width="116.12093"
           height="104.56727"
           x="-64.158226"
           y="332.36594" />
        <rect
           style="opacity:1;fill:#ffffff;fill-opacity:0.85641025;stroke:none;stroke-width:0.62430251;stroke-linejoin:round;stroke-miterlimit:4;stroke-dasharray:none;stroke-opacity:1"
           id="rect4158"
           width="118.68166"
           height="104.56052"
           x="-97.566437"
           y="378.20181" />
        <path
           style="fill:#000000;stroke:none;stroke-width:0.26458335"
           d="m -97.132117,487.46251 c -3.448703,-1.13703 -5.387743,-2.88955 -6.551163,-5.92096 l -0.73033,-1.90295 0.0689,-49.67363 0.0689,-49.67364 0.81665,-1.71979 c 1.03655,-2.18286 2.89836,-4.03674 4.844933,-4.82429 l 1.48217,-0.59967 h 59.92813 59.928116 l 1.45521,0.68642 c 2.6068,1.22961 4.70482,3.83411 5.2654,6.5365 0.41874,2.0186 0.41008,98.15921 -0.009,100.11875 -0.57151,2.67215 -2.68955,5.21954 -5.38867,6.48099 l -1.5875,0.74193 -59.266656,0.0496 c -48.45363,0.0406 -59.45976,-0.014 -60.32501,-0.29929 z m 117.277406,-49.82274 -0.067,-40.67969 h -57.414566 -57.41459 l -0.068,40.34896 c -0.0374,22.19193 -0.0113,40.49779 0.0578,40.67969 0.10011,0.26318 11.85404,0.33073 57.54953,0.33073 H 20.212189 Z M -85.039717,388.87233 c 2.17357,-1.42737 2.82796,-4.39341 1.43403,-6.49978 -2.64885,-4.0027 -8.70408,-2.23645 -8.73869,2.54899 -0.008,1.16072 0.1354,1.66868 0.71055,2.51004 1.5295,2.23742 4.41943,2.86884 6.59411,1.44075 z m 14.27601,0.048 c 2.12875,-1.35002 2.90518,-3.96814 1.81216,-6.11064 -1.26163,-2.473 -4.31707,-3.40057 -6.66638,-2.02378 -1.55995,0.91419 -2.3319,2.31027 -2.3319,4.21726 0,1.24682 0.12795,1.63112 0.8599,2.58283 1.70941,2.22262 4.12284,2.73167 6.32622,1.33433 z m 14.24926,0.27374 c 0.50705,-0.26951 1.30887,-0.99314 1.78181,-1.60807 0.73195,-0.95171 0.8599,-1.33601 0.8599,-2.58283 0,-1.8972 -0.79179,-3.34267 -2.32238,-4.23965 -0.95652,-0.56057 -1.3842,-0.64874 -2.68895,-0.55436 -1.91078,0.13821 -3.13894,0.98134 -3.98979,2.73895 -1.88665,3.89729 2.56051,8.26511 6.35941,6.24596 z m 76.725036,-4.27351 v -2.38227 l -33.535936,0.0672 -33.53593,0.0672 -0.0764,2.31511 -0.0765,2.3151 h 33.61239 33.612376 z m 14.81667,55.30846 v -4.77203 h 8.33437 8.33438 V 394.84345 354.2299 H -5.8508657 -63.397737 v 6.61459 6.61458 h -4.77281 -4.7728 l 0.0764,-15.0151 0.0765,-15.01511 0.7091,-1.5129 c 0.99301,-2.11866 2.79058,-3.94771 4.78515,-4.86897 l 1.6495,-0.76188 H -5.9831557 53.680379 l 1.55173,0.62569 c 2.3476,0.9466 4.38232,3.10587 5.29195,5.61591 l 0.71047,1.96049 -0.0729,49.60937 -0.0729,49.60938 -0.81665,1.71979 c -1.03655,2.18286 -2.89836,4.03674 -4.84493,4.82429 -1.43001,0.57856 -1.81507,0.60233 -10.94103,0.67535 l -9.45885,0.0757 z m -88.750216,-94.06517 c 2.03589,-1.19311 2.81835,-4.03382 1.70968,-6.20698 -0.95625,-1.87441 -2.98389,-2.87445 -5.10239,-2.51653 -1.44311,0.24381 -3.26787,1.92777 -3.65769,3.37547 -1.13686,4.22199 3.26904,7.56407 7.0504,5.34804 z m 13.90697,0.28395 c 1.11676,-0.46784 1.93874,-1.33342 2.46708,-2.59791 0.53828,-1.28828 0.50909,-2.20726 -0.11368,-3.5793 -0.66535,-1.46585 -1.70078,-2.34385 -3.1932,-2.70768 -3.7047,-0.90317 -6.76301,2.34186 -5.67141,6.01766 0.79013,2.66066 3.81975,3.99476 6.51121,2.86723 z m 14.43488,0.0924 c 3.41123,-1.28885 3.9957,-6.17271 0.98538,-8.23396 -2.08788,-1.42962 -4.5348,-1.19508 -6.24256,0.59836 -2.12024,2.22662 -1.53961,5.73624 1.22823,7.42412 0.90234,0.55027 2.86028,0.65304 4.02895,0.21148 z m 76.944826,-4.34879 v -2.38125 l -33.535935,-0.0672 -33.535941,-0.0672 v 2.51557 2.51557 l 33.535941,-0.0672 33.535935,-0.0672 z"
           id="path4016"
           inkscape:connector-curvature="0" />
      </g>
    </g>
  </g>
</svg>
