<?xml version="1.0" encoding="UTF-8" standalone="no"?>
<!-- Created with Inkscape (http://www.inkscape.org/) -->

<svg
   xmlns:dc="http://purl.org/dc/elements/1.1/"
   xmlns:cc="http://creativecommons.org/ns#"
   xmlns:rdf="http://www.w3.org/1999/02/22-rdf-syntax-ns#"
   xmlns:svg="http://www.w3.org/2000/svg"
   xmlns="http://www.w3.org/2000/svg"
   xmlns:sodipodi="http://sodipodi.sourceforge.net/DTD/sodipodi-0.dtd"
   xmlns:inkscape="http://www.inkscape.org/namespaces/inkscape"
   width="150"
   height="150"
   viewBox="0 0 39.687499 39.687501"
   version="1.1"
   id="svg922"
   inkscape:version="0.92.4 (5da689c313, 2019-01-14)"
   sodipodi:docname="USO_OFFICE_background_and_toonbox.svg">
  <defs
     id="defs916">
    <clipPath
       clipPathUnits="userSpaceOnUse"
       id="clipPath1521">
      <rect
         style="opacity:0.875;fill:#000000;fill-opacity:1;stroke:#000000;stroke-width:0.60403091;stroke-linejoin:round;stroke-miterlimit:4;stroke-dasharray:none;stroke-opacity:1"
         id="rect1523"
         width="172.87534"
         height="151.42299"
         x="57.114269"
         y="66.644836" />
    </clipPath>
  </defs>
  <sodipodi:namedview
     id="base"
     pagecolor="#ffffff"
     bordercolor="#666666"
     borderopacity="1.0"
     inkscape:pageopacity="0.0"
     inkscape:pageshadow="2"
     inkscape:zoom="0.43271484"
     inkscape:cx="85.8833"
     inkscape:cy="560"
     inkscape:document-units="mm"
     inkscape:current-layer="layer1"
     showgrid="false"
     inkscape:window-width="1262"
     inkscape:window-height="792"
     inkscape:window-x="2182"
     inkscape:window-y="78"
     inkscape:window-maximized="0"
     units="px" />
  <metadata
     id="metadata919">
    <rdf:RDF>
      <cc:Work
         rdf:about="">
        <dc:format>image/svg+xml</dc:format>
        <dc:type
           rdf:resource="http://purl.org/dc/dcmitype/StillImage" />
        <dc:title></dc:title>
      </cc:Work>
    </rdf:RDF>
  </metadata>
  <g
     inkscape:label="Layer 1"
     inkscape:groupmode="layer"
     id="layer1"
     transform="translate(0,-257.31248)">
    <g
       id="g5107"
       transform="matrix(0.29810629,0,0,0.28984518,-10.572748,244.26355)">
      <path
         sodipodi:nodetypes="cccsc"
         inkscape:connector-curvature="0"
         id="rect49496"
         d="m 40.541649,79.335309 c 2.80732,-6.317614 108.472621,-6.074633 123.530051,0 4.5938,4.373733 6.63549,65.541321 -1.78648,66.513261 -7.91153,7.77553 -117.398454,6.1941 -122.509204,2.18686 -3.825143,-2.9992 -5.359428,-65.541314 0.765633,-68.700121 z"
         style="opacity:0.875;fill:#999999;fill-opacity:1;stroke:none;stroke-width:0.40600324;stroke-linejoin:round;stroke-miterlimit:4;stroke-dasharray:none;stroke-opacity:0.97175137" />
      <path
         inkscape:connector-curvature="0"
         id="path49494"
         d="m 41.515717,150.96879 c -5.507184,-2.22305 -6.049347,-5.50145 -6.049347,-36.57973 0,-29.733461 0,-29.733461 3.974431,-33.36108 2.18594,-1.995188 6.396428,-4.188245 9.356647,-4.873451 3.402268,-0.787527 24.249485,-1.245399 56.670472,-1.244663 69.024,0.0013 63.36037,-3.412696 62.78997,37.852504 -0.41236,29.83272 -0.41236,29.83272 -3.87779,33.40508 -1.90598,1.96481 -5.721,4.15299 -8.47784,4.86263 -6.61702,1.70333 -110.152487,1.64784 -114.386543,-0.0613 z m 116.461643,-3.64957 c 6.90163,-3.77461 7.78892,-7.61481 7.78892,-33.71112 0,-26.658265 -0.87856,-30.145852 -8.58015,-34.060309 -4.38232,-2.227388 -6.88024,-2.332355 -55.59902,-2.336486 -42.552236,-0.0039 -51.67474,0.28201 -55.016081,1.722465 -8.149785,3.513384 -8.332321,4.272983 -8.332321,34.67433 0,29.78332 0.257651,30.98838 7.348474,34.36985 4.327606,2.06374 26.286976,2.69784 70.342788,2.03122 33.93071,-0.51341 38.61573,-0.81313 42.04739,-2.68995 z M 49.882052,144.89229 c -2.363667,-0.85781 -4.699673,-2.43317 -5.191116,-3.50081 -0.73284,-1.59207 -0.237972,-1.51128 2.751823,0.44929 3.15444,2.06854 5.720171,2.40835 19.052805,2.52335 11.972356,0.10326 14.171275,0.34606 9.862796,1.08899 -8.464296,1.45955 -21.680601,1.1796 -26.476308,-0.56082 z M 154.67692,85.873908 c -1.26333,-1.269008 -4.74384,-1.751225 -12.99179,-1.799981 -6.19639,-0.0366 -13.76127,-0.496843 -16.81085,-1.022698 -4.35912,-0.751666 -2.37246,-0.984513 9.29143,-1.08899 14.81004,-0.132662 21.05768,0.998442 22.4707,4.068194 0.94905,2.061795 0.18841,2.001034 -1.95949,-0.156525 z"
         style="fill:#000000;stroke-width:1.26563919" />
      <text
         transform="scale(0.88602741,1.1286333)"
         id="text49550"
         y="125.00746"
         x="74.932625"
         style="font-style:normal;font-variant:normal;font-weight:normal;font-stretch:normal;font-size:16.97093201px;font-family:Insaniburger;-inkscape-font-specification:Insaniburger;opacity:1;vector-effect:none;fill:#000000;fill-opacity:1;stroke:none;stroke-width:0.19887809;stroke-linecap:butt;stroke-linejoin:miter;stroke-miterlimit:4;stroke-dasharray:none;stroke-dashoffset:0;stroke-opacity:1"
         xml:space="preserve"><tspan
           style="font-style:normal;font-variant:normal;font-weight:normal;font-stretch:normal;font-family:Insaniburger;-inkscape-font-specification:Insaniburger;stroke-width:0.19887809"
           y="125.00746"
           x="74.932625"
           id="tspan49548"
           sodipodi:role="line">TEST TEXT</tspan></text>
      <g
         id="g2455"
         transform="matrix(0.6140466,0,0,0.56988043,-121.06551,-34.188207)">
        <path
           style="fill:#000000;fill-opacity:1;stroke-width:0.61634219"
           d="m 338.30358,275.11866 c -2.54276,-1.64035 -4.50285,-4.35463 -6.11053,-8.46166 -1.60184,-4.09212 -1.85063,-8.19879 -0.78718,-12.99436 0.89509,-4.03648 1.35371,-4.71935 16.38649,-24.39965 9.85899,-12.90696 16.26402,-20.75065 17.66794,-21.63639 4.38492,-2.76648 7.82567,-1.21847 13.81827,6.21696 4.65935,5.78121 7.25205,11.03368 8.12564,16.46167 1.09182,6.78398 0.46816,8.01103 -13.49368,26.54925 -10.13396,13.45566 -12.51274,16.27126 -13.72993,16.25115 -1.96017,-0.0323 -3.34889,-2.68328 -2.63537,-5.03061 0.28056,-0.92297 3.58381,-5.63601 7.34057,-10.4734 3.75675,-4.83741 9.04754,-11.91182 11.7573,-15.7209 4.19593,-5.89821 4.91945,-7.26564 4.877,-9.21748 -0.077,-3.53305 -1.55358,-6.56537 -6.27309,-12.88135 -3.17757,-4.25241 -4.70308,-5.80489 -5.70395,-5.80489 -1.06695,0 -4.60327,4.20095 -16.14023,19.17371 -8.12566,10.54555 -15.15376,20.11223 -15.61803,21.2593 -1.74326,4.30716 -0.60169,10.09675 2.605,13.21156 1.30138,1.26409 1.53449,1.28783 2.96939,0.30235 2.13429,-1.4658 25.04227,-31.59241 25.04227,-32.93346 0,-3.63235 -1.40144,-2.29481 -11.55741,11.03037 -4.84247,6.35358 -9.38575,11.83767 -10.09617,12.18684 -2.29603,1.12858 -4.866,-2.03993 -3.7866,-4.66844 1.03158,-2.51212 19.82406,-26.39522 21.50864,-27.33503 3.53639,-1.97294 7.48026,-0.51187 9.13992,3.38602 1.02295,2.40252 0.87484,6.77317 -0.34046,10.04494 -1.44431,3.88843 -25.01082,34.42818 -27.69494,35.8898 -2.67281,1.45545 -4.54729,1.3507 -7.27086,-0.4063 z"
           id="path53927"
           inkscape:connector-curvature="0" />
      </g>
    </g>
  </g>
</svg>
