<svg style="position: absolute; width: 0; height: 0; overflow: hidden;" version="1.1" xmlns="http://www.w3.org/2000/svg" xmlns:xlink="http://www.w3.org/1999/xlink">
<defs>
<!--
Font Awesome SVG Icons (Refer readme.txt for more info)
-->
<symbol id="icon-play" viewBox="0 0 25 32">
<path d="M24.714 16.554l-23.714 13.179c-0.554 0.304-1 0.036-1-0.589v-26.286c0-0.625 0.446-0.893 1-0.589l23.714 13.179c0.554 0.304 0.554 0.804 0 1.107z"></path>
</symbol>
<symbol id="icon-play-circle" viewBox="0 0 27 32">
<path d="M13.714 2.286c7.571 0 13.714 6.143 13.714 13.714s-6.143 13.714-13.714 13.714-13.714-6.143-13.714-13.714 6.143-13.714 13.714-13.714zM20.571 16.982c0.357-0.196 0.571-0.571 0.571-0.982s-0.214-0.786-0.571-0.982l-9.714-5.714c-0.339-0.214-0.786-0.214-1.143-0.018-0.357 0.214-0.571 0.589-0.571 1v11.429c0 0.411 0.214 0.786 0.571 1 0.179 0.089 0.375 0.143 0.571 0.143s0.393-0.054 0.571-0.161z"></path>
</symbol>
<symbol id="icon-caret-down" viewBox="0 0 18 32">
<path d="M18.286 12.571c0 0.304-0.125 0.589-0.339 0.804l-8 8c-0.214 0.214-0.5 0.339-0.804 0.339s-0.589-0.125-0.804-0.339l-8-8c-0.214-0.214-0.339-0.5-0.339-0.804 0-0.625 0.518-1.143 1.143-1.143h16c0.625 0 1.143 0.518 1.143 1.143z"></path>
</symbol>
<symbol id="icon-email" viewBox="0 0 32 32">
<path d="M29.714 26.857v-13.714c-0.375 0.429-0.786 0.821-1.232 1.179-2.554 1.964-5.125 3.964-7.607 6.036-1.339 1.125-3 2.5-4.857 2.5h-0.036c-1.857 0-3.518-1.375-4.857-2.5-2.482-2.071-5.054-4.071-7.607-6.036-0.446-0.357-0.857-0.75-1.232-1.179v13.714c0 0.304 0.268 0.571 0.571 0.571h26.286c0.304 0 0.571-0.268 0.571-0.571zM29.714 8.089c0-0.446 0.107-1.232-0.571-1.232h-26.286c-0.304 0-0.571 0.268-0.571 0.571 0 2.036 1.018 3.804 2.625 5.071 2.393 1.875 4.786 3.768 7.161 5.661 0.946 0.768 2.661 2.411 3.911 2.411h0.036c1.25 0 2.964-1.643 3.911-2.411 2.375-1.893 4.768-3.786 7.161-5.661 1.161-0.911 2.625-2.893 2.625-4.411zM32 7.429v19.429c0 1.571-1.286 2.857-2.857 2.857h-26.286c-1.571 0-2.857-1.286-2.857-2.857v-19.429c0-1.571 1.286-2.857 2.857-2.857h26.286c1.571 0 2.857 1.286 2.857 2.857z"></path>
</symbol>
<symbol id="icon-twitter" viewBox="0 0 30 32">
<path d="M28.929 7.286c-0.786 1.143-1.768 2.161-2.893 2.982 0.018 0.25 0.018 0.5 0.018 0.75 0 7.625-5.804 16.411-16.411 16.411-3.268 0-6.304-0.946-8.857-2.589 0.464 0.054 0.911 0.071 1.393 0.071 2.696 0 5.179-0.911 7.161-2.464-2.536-0.054-4.661-1.714-5.393-4 0.357 0.054 0.714 0.089 1.089 0.089 0.518 0 1.036-0.071 1.518-0.196-2.643-0.536-4.625-2.857-4.625-5.661v-0.071c0.768 0.429 1.661 0.696 2.607 0.732-1.554-1.036-2.571-2.804-2.571-4.804 0-1.071 0.286-2.054 0.786-2.911 2.839 3.5 7.107 5.786 11.893 6.036-0.089-0.429-0.143-0.875-0.143-1.321 0-3.179 2.571-5.768 5.768-5.768 1.661 0 3.161 0.696 4.214 1.821 1.304-0.25 2.554-0.732 3.661-1.393-0.429 1.339-1.339 2.464-2.536 3.179 1.161-0.125 2.286-0.446 3.321-0.893z"></path>
</symbol>
<symbol id="icon-facebook" viewBox="0 0 19 32">
<path d="M17.125 0.214v4.714h-2.804c-2.196 0-2.607 1.054-2.607 2.571v3.375h5.232l-0.696 5.286h-4.536v13.554h-5.464v-13.554h-4.554v-5.286h4.554v-3.893c0-4.518 2.768-6.982 6.804-6.982 1.929 0 3.589 0.143 4.071 0.214z"></path>
</symbol>
<symbol id="icon-linkedin" viewBox="0 0 27 32">
<path d="M6.232 11.161v17.696h-5.893v-17.696h5.893zM6.607 5.696c0.018 1.696-1.268 3.054-3.321 3.054v0h-0.036c-1.982 0-3.25-1.357-3.25-3.054 0-1.732 1.321-3.054 3.321-3.054 2.018 0 3.268 1.321 3.286 3.054zM27.429 18.714v10.143h-5.875v-9.464c0-2.375-0.857-4-2.982-4-1.625 0-2.589 1.089-3.018 2.143-0.143 0.393-0.196 0.911-0.196 1.446v9.875h-5.875c0.071-16.036 0-17.696 0-17.696h5.875v2.571h-0.036c0.768-1.214 2.161-2.982 5.339-2.982 3.875 0 6.768 2.536 6.768 7.964z"></path>
</symbol>
<symbol id="icon-download" viewBox="0 0 34 32">
<path d="M22.857 16.571c0-0.321-0.25-0.571-0.571-0.571h-4v-6.286c0-0.304-0.268-0.571-0.571-0.571h-3.429c-0.304 0-0.571 0.268-0.571 0.571v6.286h-4c-0.321 0-0.571 0.268-0.571 0.571 0 0.143 0.054 0.304 0.161 0.411l6.286 6.286c0.107 0.107 0.25 0.161 0.411 0.161 0.143 0 0.304-0.054 0.411-0.161l6.268-6.268c0.107-0.125 0.179-0.268 0.179-0.429zM34.286 20.571c0 3.786-3.071 6.857-6.857 6.857h-19.429c-4.411 0-8-3.589-8-8 0-3.107 1.804-5.929 4.607-7.232-0.018-0.268-0.036-0.518-0.036-0.768 0-5.054 4.089-9.143 9.143-9.143 3.714 0 7.054 2.25 8.464 5.679 0.821-0.714 1.875-1.107 2.964-1.107 2.518 0 4.571 2.054 4.571 4.571 0 0.875-0.25 1.732-0.732 2.464 3.107 0.732 5.304 3.5 5.304 6.679z"></path>
</symbol>
<symbol id="icon-search" viewBox="0 0 30 32">
<path d="M20.571 14.857c0-4.411-3.589-8-8-8s-8 3.589-8 8 3.589 8 8 8 8-3.589 8-8zM29.714 29.714c0 1.25-1.036 2.286-2.286 2.286-0.607 0-1.196-0.25-1.607-0.679l-6.125-6.107c-2.089 1.446-4.589 2.214-7.125 2.214-6.946 0-12.571-5.625-12.571-12.571s5.625-12.571 12.571-12.571 12.571 5.625 12.571 12.571c0 2.536-0.768 5.036-2.214 7.125l6.125 6.125c0.411 0.411 0.661 1 0.661 1.607z"></path>
</symbol>
<!--
Entypo+ SVG Icons (Refer credits.txt for more info)
Daniel Bruce — CC BY-SA 4.0 [http://www.entypo.com/]
-->
<symbol id="icon-dots-three-horizontal" viewBox="0 0 32 32">
<path d="M16.002 12.48c-1.944 0-3.522 1.576-3.522 3.52s1.578 3.52 3.522 3.52c1.944 0 3.518-1.576 3.518-3.52s-1.574-3.52-3.518-3.52zM4.802 12.48c-1.944 0-3.522 1.576-3.522 3.52s1.578 3.52 3.522 3.52c1.944 0 3.518-1.578 3.518-3.52s-1.574-3.52-3.518-3.52zM27.202 12.48c-1.944 0-3.522 1.576-3.522 3.52s1.578 3.52 3.522 3.52c1.944 0 3.518-1.576 3.518-3.52s-1.574-3.52-3.518-3.52z"></path>
</symbol>
<!--
Icomoon free svg icons. [https://icomoon.io]
Keyamoon - GPL / CC BY 4.0
-->
<symbol id="icon-maximize" viewBox="0 0 32 32">
<path d="M32 0h-13l5 5-6 6 3 3 6-6 5 5z"></path>
<path d="M32 32v-13l-5 5-6-6-3 3 6 6-5 5z"></path>
<path d="M0 32h13l-5-5 6-6-3-3-6 6-5-5z"></path>
<path d="M0 0v13l5-5 6 6 3-3-6-6 5-5z"></path>
</symbol>
<symbol id="icon-minimize" viewBox="0 0 32 32">
<path d="M18 14h13l-5-5 6-6-3-3-6 6-5-5z"></path>
<path d="M18 18v13l5-5 6 6 3-3-6-6 5-5z"></path>
<path d="M14 18h-13l5 5-6 6 3 3 6-6 5 5z"></path>
<path d="M14 14v-13l-5 5-6-6-3 3 6 6-5 5z"></path>
</symbol>
<symbol id="icon-loading" viewBox="0 0 32 32">
<path d="M32 16c-0.040-2.089-0.493-4.172-1.331-6.077-0.834-1.906-2.046-3.633-3.533-5.060-1.486-1.428-3.248-2.557-5.156-3.302-1.906-0.748-3.956-1.105-5.981-1.061-2.025 0.040-4.042 0.48-5.885 1.292-1.845 0.809-3.517 1.983-4.898 3.424s-2.474 3.147-3.193 4.994c-0.722 1.846-1.067 3.829-1.023 5.79 0.040 1.961 0.468 3.911 1.254 5.694 0.784 1.784 1.921 3.401 3.316 4.736 1.394 1.336 3.046 2.391 4.832 3.085 1.785 0.697 3.701 1.028 5.598 0.985 1.897-0.040 3.78-0.455 5.502-1.216 1.723-0.759 3.285-1.859 4.574-3.208 1.29-1.348 2.308-2.945 2.977-4.67 0.407-1.046 0.684-2.137 0.829-3.244 0.039 0.002 0.078 0.004 0.118 0.004 1.105 0 2-0.895 2-2 0-0.056-0.003-0.112-0.007-0.167h0.007zM28.822 21.311c-0.733 1.663-1.796 3.169-3.099 4.412s-2.844 2.225-4.508 2.868c-1.663 0.646-3.447 0.952-5.215 0.909-1.769-0.041-3.519-0.429-5.119-1.14-1.602-0.708-3.053-1.734-4.25-2.991s-2.141-2.743-2.76-4.346c-0.621-1.603-0.913-3.319-0.871-5.024 0.041-1.705 0.417-3.388 1.102-4.928 0.683-1.541 1.672-2.937 2.883-4.088s2.642-2.058 4.184-2.652c1.542-0.596 3.192-0.875 4.832-0.833 1.641 0.041 3.257 0.404 4.736 1.064 1.48 0.658 2.82 1.609 3.926 2.774s1.975 2.54 2.543 4.021c0.57 1.481 0.837 3.064 0.794 4.641h0.007c-0.005 0.055-0.007 0.11-0.007 0.167 0 1.032 0.781 1.88 1.784 1.988-0.195 1.088-0.517 2.151-0.962 3.156z"></path>
</symbol>
<symbol id="icon-pause" viewBox="0 0 32 32">
<path d="M4 4h10v24h-10zM18 4h10v24h-10z"></path>
</symbol>
<symbol id="icon-cross" viewBox="0 0 32 32">
<path d="M31.708 25.708c-0-0-0-0-0-0l-9.708-9.708 9.708-9.708c0-0 0-0 0-0 0.105-0.105 0.18-0.227 0.229-0.357 0.133-0.356 0.057-0.771-0.229-1.057l-4.586-4.586c-0.286-0.286-0.702-0.361-1.057-0.229-0.13 0.048-0.252 0.124-0.357 0.228 0 0-0 0-0 0l-9.708 9.708-9.708-9.708c-0-0-0-0-0-0-0.105-0.104-0.227-0.18-0.357-0.228-0.356-0.133-0.771-0.057-1.057 0.229l-4.586 4.586c-0.286 0.286-0.361 0.702-0.229 1.057 0.049 0.13 0.124 0.252 0.229 0.357 0 0 0 0 0 0l9.708 9.708-9.708 9.708c-0 0-0 0-0 0-0.104 0.105-0.18 0.227-0.229 0.357-0.133 0.355-0.057 0.771 0.229 1.057l4.586 4.586c0.286 0.286 0.702 0.361 1.057 0.229 0.13-0.049 0.252-0.124 0.357-0.229 0-0 0-0 0-0l9.708-9.708 9.708 9.708c0 0 0 0 0 0 0.105 0.105 0.227 0.18 0.357 0.229 0.356 0.133 0.771 0.057 1.057-0.229l4.586-4.586c0.286-0.286 0.362-0.702 0.229-1.057-0.049-0.13-0.124-0.252-0.229-0.357z"></path>
</symbol>
<!--
Mediaelement js svg icons. [https://github.com/mediaelement/mediaelement-plugins]
John Dyer and Rafael Miranda - MIT
-->
<symbol id="icon-skipback" viewBox="0 0 32 32">
<path d="M19.2 0v7.242l-7.242-3.705 7.242-3.537z"></path>
<path d="M14.653 0v7.242l-7.242-3.705 7.242-3.537z"></path>
<path fill="none" stroke-linejoin="miter" stroke-linecap="butt" stroke-miterlimit="4" stroke-width="3.3684" d="M29.474 17.179v0c0 0 0 0 0 0 0-7.579-6.232-13.642-13.811-13.642"></path>
<path fill="none" stroke-linejoin="miter" stroke-linecap="butt" stroke-miterlimit="4" stroke-width="3.3684" d="M15.663 30.316v0c0 0 0 0 0 0 7.579 0 13.642-6.232 13.642-13.811"></path>
<path fill="none" stroke-linejoin="miter" stroke-linecap="butt" stroke-miterlimit="4" stroke-width="3.3684" d="M2.526 16.674v0c0 0 0 0 0 0 0 7.579 6.232 13.642 13.811 13.642"></path>
</symbol>
<symbol id="icon-jumpforward" viewBox="0 0 32 32">
<path d="M20.042 3.537l-7.242 3.705v-7.242z"></path>
<path d="M24.589 3.537l-7.242 3.705v-7.242z"></path>
<path fill="none" stroke-linejoin="miter" stroke-linecap="butt" stroke-miterlimit="4" stroke-width="3.3684" d="M16.337 3.537c-0.025-0-0.055-0-0.084-0-7.551 0-13.678 6.098-13.726 13.638l-0 0.005"></path>
<path fill="none" stroke-linejoin="miter" stroke-linecap="butt" stroke-miterlimit="4" stroke-width="3.3684" d="M2.695 16.505c-0 0.025-0 0.055-0 0.084 0 7.551 6.098 13.678 13.638 13.726l0.005 0"></path>
<path fill="none" stroke-linejoin="miter" stroke-linecap="butt" stroke-miterlimit="4" stroke-width="3.3684" d="M15.663 30.316c0.025 0 0.055 0 0.084 0 7.551 0 13.678-6.098 13.726-13.638l0-0.005"></path>
</symbol>
</defs>
</svg>
