<?xml version="1.0" encoding="UTF-8" standalone="no"?>
<!-- Created with Inkscape (http://www.inkscape.org/) -->

<svg
   xmlns:dc="http://purl.org/dc/elements/1.1/"
   xmlns:cc="http://creativecommons.org/ns#"
   xmlns:rdf="http://www.w3.org/1999/02/22-rdf-syntax-ns#"
   xmlns:svg="http://www.w3.org/2000/svg"
   xmlns="http://www.w3.org/2000/svg"
   xmlns:sodipodi="http://sodipodi.sourceforge.net/DTD/sodipodi-0.dtd"
   xmlns:inkscape="http://www.inkscape.org/namespaces/inkscape"
   width="150"
   height="150"
   viewBox="0 0 39.6875 39.6875"
   version="1.1"
   id="svg922"
   inkscape:version="0.92.4 (5da689c313, 2019-01-14)"
   sodipodi:docname="USO_internet_etherape.svg">
  <title
     id="title1437">USOICON</title>
  <defs
     id="defs916">
    <clipPath
       id="clipPath1521"
       clipPathUnits="userSpaceOnUse">
      <rect
         y="66.644836"
         x="57.114269"
         height="151.42299"
         width="172.87534"
         id="rect1523"
         style="opacity:0.875;fill:#000000;fill-opacity:1;stroke:#000000;stroke-width:0.60403091;stroke-linejoin:round;stroke-miterlimit:4;stroke-dasharray:none;stroke-opacity:1" />
    </clipPath>
  </defs>
  <sodipodi:namedview
     id="base"
     pagecolor="#ffffff"
     bordercolor="#666666"
     borderopacity="1.0"
     inkscape:pageopacity="0.0"
     inkscape:pageshadow="2"
     inkscape:zoom="2.1270354"
     inkscape:cx="46.4255"
     inkscape:cy="57.798367"
     inkscape:document-units="px"
     inkscape:current-layer="layer9"
     showgrid="false"
     inkscape:window-width="948"
     inkscape:window-height="677"
     inkscape:window-x="2808"
     inkscape:window-y="101"
     inkscape:window-maximized="0"
     units="px" />
  <metadata
     id="metadata919">
    <rdf:RDF>
      <cc:Work
         rdf:about="">
        <dc:format>image/svg+xml</dc:format>
        <dc:type
           rdf:resource="http://purl.org/dc/dcmitype/StillImage" />
        <dc:title>USOICON</dc:title>
        <cc:license
           rdf:resource="http://creativecommons.org/licenses/by-sa/4.0/" />
      </cc:Work>
      <cc:License
         rdf:about="http://creativecommons.org/licenses/by-sa/4.0/">
        <cc:permits
           rdf:resource="http://creativecommons.org/ns#Reproduction" />
        <cc:permits
           rdf:resource="http://creativecommons.org/ns#Distribution" />
        <cc:requires
           rdf:resource="http://creativecommons.org/ns#Notice" />
        <cc:requires
           rdf:resource="http://creativecommons.org/ns#Attribution" />
        <cc:permits
           rdf:resource="http://creativecommons.org/ns#DerivativeWorks" />
        <cc:requires
           rdf:resource="http://creativecommons.org/ns#ShareAlike" />
      </cc:License>
    </rdf:RDF>
  </metadata>
  <g
     style="display:inline"
     transform="translate(-35.46637,-112.59198)"
     id="layer1"
     inkscape:groupmode="layer"
     inkscape:label="toonbox" />
  <g
     inkscape:label="text"
     id="layer3"
     inkscape:groupmode="layer" />
  <g
     style="display:inline"
     inkscape:label="icon_internet"
     id="layer9"
     inkscape:groupmode="layer">
    <g
       id="g1442">
      <path
         style="display:inline;opacity:0.875;fill:#999999;fill-opacity:1;stroke:none;stroke-width:0.11845408;stroke-linejoin:round;stroke-miterlimit:4;stroke-dasharray:none;stroke-opacity:0.97175137"
         d="M 1.435191,10.12791 C 3.4582963,9.0379363 5.8928512,9.337124 8.1077944,9.055917 17.193498,8.6070741 26.328744,8.6621892 35.384422,9.5671831 c 3.132834,-0.4321267 3.562828,2.6350279 3.576797,5.0261129 0.32259,4.55608 0.561339,9.238369 -0.59013,13.701298 -1.230107,1.994091 -3.899222,1.654068 -5.920986,2.010159 C 23.892305,31.04743 15.278424,30.876908 6.7046399,30.552633 4.7032238,30.069455 0.8474285,31.16351 0.6577215,28.17916 0.21601793,22.466351 -0.22387495,16.621412 0.92302025,10.958821 L 1.1169107,10.501528 Z"
         id="rect49496"
         inkscape:connector-curvature="0" />
      <path
         style="display:inline;fill:#000000;stroke-width:0.37203047"
         d="M 1.803349,30.70864 C -0.30720478,29.781603 0.25663955,27.02039 0.05829938,25.162506 -0.0104808,20.795042 -0.10733056,16.408459 0.17005907,12.052376 1.0656241,9.3229642 4.4182873,8.7172018 6.9359935,8.8208601 15.965523,8.6517952 25.006727,8.5316384 34.035255,8.7762114 c 2.374317,-0.036055 5.529354,0.8763556 5.569071,3.7520276 0.131665,4.303977 -0.04336,8.621539 -0.143935,12.928164 0.222066,2.148146 -0.665928,4.465332 -2.943655,5.042138 -2.30846,0.62828 -4.777969,0.353562 -7.156078,0.52121 -8.966239,0.06371 -17.943876,0.208983 -26.9020946,-0.23401 -0.2264334,0.03128 -0.4399903,-0.03086 -0.6552144,-0.0771 z m 34.717949,-1.05781 c 2.530718,-1.160779 2.146655,-4.383728 2.287167,-6.685829 0.03526,-3.466904 0.196748,-6.982283 -0.352541,-10.413487 C 37.904726,9.8990612 34.808554,9.3260478 32.515334,9.4048631 23.214058,9.3524247 13.898531,9.1548276 4.6038084,9.5618039 1.6069642,9.4786569 0.57643065,12.533362 0.84702954,15.047711 0.97486451,19.417857 0.47428281,23.84514 1.248235,28.17114 c 0.9907034,2.349473 3.9970701,2.011745 6.0920892,2.182321 8.9697088,0.314531 17.9531918,0.106067 26.9188308,-0.19202 0.770869,-0.07525 1.54051,-0.222586 2.262143,-0.510611 z M 4.297406,28.9474 C 3.0056564,28.857812 2.2069807,26.881031 3.89456,28.232913 c 2.3204463,0.90278 4.8882183,0.402992 7.316752,0.573807 3.10995,0.122079 -1.2520947,0.648512 -2.2599211,0.583506 -1.5609651,0.04277 -3.133754,-0.07357 -4.6539849,-0.442826 z m 31.24001,-17.1062 c -2.122006,-0.919231 -4.512112,-0.315925 -6.74876,-0.616829 -1.095255,0.119726 -3.830618,-0.557683 -1.176338,-0.470953 2.665804,-0.04528 5.484043,-0.282004 8.020707,0.592924 0.589244,0.310213 0.701563,1.499938 -0.09561,0.494858 z"
         id="path49494"
         inkscape:connector-curvature="0" />
      <path
         style="font-style:normal;font-variant:normal;font-weight:normal;font-stretch:normal;font-size:4.94612217px;font-family:Insaniburger;-inkscape-font-specification:Insaniburger;opacity:1;vector-effect:none;fill:#000000;fill-opacity:1;stroke:none;stroke-width:0.05796236;stroke-linecap:butt;stroke-linejoin:miter;stroke-miterlimit:4;stroke-dasharray:none;stroke-dashoffset:0;stroke-opacity:1"
         d="m 11.865794,28.015285 c 1.173663,-0.801028 -1.9105623,-1.069053 0.215972,-1.685153 -0.192802,-0.493981 -1.586976,-1.042875 -0.03972,-1.183381 -0.06897,-1.819936 -2.652197,-0.188186 -1.648963,1.366122 -0.29851,1.258961 0.283899,1.737201 1.472714,1.502412 z m 2.177797,-2.750144 c 0.277173,0.870012 -0.201375,4.062466 -0.875807,1.950774 0.877659,-1.330936 -1.960713,-2.894183 0.274395,-2.790849 0.903421,-0.542864 2.203817,0.878527 0.601412,0.840075 z m 2.869437,-0.847427 c 1.17755,0.602355 0.07576,5.55477 -0.447034,2.431966 -0.700504,-1.21381 -0.638956,2.484427 -1.444037,0.601298 -0.266555,-1.947587 0.2835,-4.147649 1.346286,-1.649562 0.397958,-0.30448 -0.279129,-1.46478 0.544785,-1.383702 z m 2.136209,3.597571 c 1.173662,-0.801029 -1.910565,-1.069053 0.215971,-1.685153 -0.192801,-0.493981 -1.586976,-1.042874 -0.03972,-1.183381 -0.06897,-1.819936 -2.652197,-0.188186 -1.648962,1.366122 -0.246529,1.350774 0.207355,1.682298 1.472715,1.502412 z m 2.372593,-1.529634 c 1.233585,1.273679 -0.515861,2.056643 -0.892211,0.292195 -0.140483,2.449859 -1.428672,0.110703 -0.93531,-1.157792 -0.4598,-2.494686 3.787613,-0.833186 1.827521,0.865597 z m -0.949912,-1.343093 c -0.463911,1.844034 1.636941,0.02112 0,0 z m 3.19337,1.385731 c 0.104162,-1.26669 -0.766608,0.15597 0,0 z m -0.634735,0.852758 c -1.683894,2.047808 -0.179651,-4.473884 0.957096,-2.36341 0.602624,0.937365 1.313681,3.950928 -0.337641,2.36341 -0.206485,0 -0.41297,0 -0.619455,0 z m 3.315941,-0.564952 c 2.541372,-0.615889 -0.586779,-4.051314 -1.350536,-1.654637 -0.275465,1.089248 0.428306,4.381168 0.946258,1.790725 0.05441,-0.24746 0.247339,-0.129087 0.404278,-0.136088 z m -0.192609,-1.673537 c 1.416655,1.15042 -1.502542,0.805811 0,0 z m 2.814719,2.872727 c 1.173661,-0.801028 -1.910563,-1.069053 0.215971,-1.685153 -0.192801,-0.493981 -1.586976,-1.042874 -0.03972,-1.183381 -0.06897,-1.819936 -2.652197,-0.188186 -1.648962,1.366122 -0.246529,1.350774 0.207355,1.682298 1.472715,1.502412 z"
         id="text49550"
         inkscape:connector-curvature="0" />
      <g
         id="g54240"
         transform="matrix(0.24562229,0,0,0.24186217,34.917034,-33.749499)">
        <path
           style="fill:#cbcbcb;fill-opacity:1;stroke-width:0.51272714"
           d="m -70.218567,235.17822 c -16.65144,-4.00914 -25.877187,-25.3856 -16.47974,-39.98168 8.332846,-14.88214 30.956862,-18.09356 42.824352,-5.69102 12.330102,10.96724 10.507905,32.84949 -3.465738,41.63124 -6.602222,4.83021 -15.048691,5.72722 -22.878874,4.04146 z"
           id="path54193"
           inkscape:connector-curvature="0" />
        <path
           style="fill:#000000;fill-opacity:1;stroke-width:0.51272714"
           d="m -68.146067,228.07933 c 6.455333,-6.12277 5.73226,-16.02248 -4.700967,-15.85021 -7.56705,2.19207 3.278097,10.38711 0.952471,16.02252 2.264011,5.59497 1.417858,2.49277 3.748496,-0.17231 z"
           id="path54191"
           inkscape:connector-curvature="0" />
        <path
           style="fill:#000000;fill-opacity:1;stroke-width:0.51272714"
           d="m -48.847606,224.70851 c 3.884592,-6.64403 5.381854,-13.37508 1.022179,-18.44279 2.894228,0.29126 5.907237,3.7716 5.056853,-2.00286 10.332762,9.01744 1.721478,-16.80038 -6.510957,-12.87022 -2.335566,-1.5446 -7.363927,0.9265 -5.690121,3.24525 6.694427,-4.51308 2.307588,5.16545 -2.345409,4.95236 -2.08129,3.79846 3.519914,-1.28878 5.594799,1.20377 8.648502,-3.37865 2.749864,7.1785 -3.251255,3.84824 -7.955059,-1.5286 -8.948585,8.7291 -0.773461,8.51439 6.066793,0.8092 0.732545,12.26422 6.897372,11.55186 z"
           id="path54189"
           inkscape:connector-curvature="0" />
        <path
           style="fill:#000000;fill-opacity:1;stroke-width:0.51272714"
           d="m -79.787677,209.37505 c 0.831311,-3.85545 12.323823,-7.3031 8.456394,-13.08796 -1.518954,6.53969 -9.838976,-1.25285 -4.496778,-4.07662 -8.643206,-3.50701 -14.841915,11.11305 -7.50305,16.10888 -0.35754,1.2749 5.540783,3.23608 3.543434,1.0557 z"
           id="path54187"
           inkscape:connector-curvature="0" />
        <path
           style="fill:#cbcbcb;fill-opacity:1;stroke-width:0.51272714"
           d="m -58.355813,197.45702 c -0.962724,-2.19373 -1.553804,1.19023 0,0 z"
           id="path54185"
           inkscape:connector-curvature="0" />
        <path
           style="fill:#000000;fill-opacity:1;stroke-width:0.51272714"
           d="m -61.012137,191.00686 c 8.331931,-3.76751 -5.363656,-11.42486 -3.465218,-1.95232 -0.97194,5.47419 -0.189271,5.73721 3.465218,1.95232 z"
           id="path54183"
           inkscape:connector-curvature="0" />
        <path
           style="fill:#cbcbcb;fill-opacity:1;stroke-width:0.51272714"
           d="m -70.218567,190.29113 c -1.760456,-7.99354 -0.946155,6.62153 0,0 z"
           id="path54156"
           inkscape:connector-curvature="0" />
        <path
           style="fill:#000000;fill-opacity:1;stroke-width:0.51272714"
           d="m -69.702797,234.58781 c -14.226647,-3.37675 -24.172713,-20.17981 -18.597358,-33.99865 0.463993,7.44373 10.307618,10.32019 13.050975,17.55727 3.264406,2.84979 2.362055,20.45994 7.439014,10.61881 8.848621,-7.8509 3.935487,-17.88262 -7.1984,-17.32492 -10.282633,-3.60877 4.228084,-4.47908 4.360535,-10.88904 3.448432,-6.38814 -2.24412,-4.57168 -4.374812,-2.51303 -4.692316,-3.10152 4.966629,-8.93589 -4.037502,-7.32352 -8.046269,4.04816 -2.887515,-1.00769 1.120144,-3.51035 1.306798,1.40985 7.207954,0.0346 6.860473,6.0255 4.7364,-3.98793 -6.630265,-10.50599 3.19444,-10.45756 9.112747,-3.52637 -3.165818,16.66349 6.902785,9.42884 6.654814,-3.4553 -1.608723,-12.42499 7.025793,-8.30402 5.425097,1.33995 13.96305,8.30561 3.567195,7.07676 -5.798931,-3.33727 -7.759034,8.02183 -1.773433,3.14623 -0.651733,6.42483 -11.577378,-1.00803 -6.182452,7.65763 0.898426,-0.17406 15.540323,-2.53834 8.11785,2.14314 -5.573321,-1.80043 -17.52307,2.70088 -9.626396,8.5127 9.915285,-1.4088 3.769061,15.02666 12.10959,12.10306 4.004545,-5.37099 4.17471,-15.60641 1.734882,-16.98145 5.26162,5.50431 2.912814,-6.13255 7.445435,0.117 6.311186,9.01482 -4.77045,21.33575 -13.18094,25.23628 -5.564429,2.55904 -12.018271,3.2689 -17.957818,1.67932 z"
           id="path54175"
           inkscape:connector-curvature="0" />
        <path
           style="fill:#cbcbcb;fill-opacity:1;stroke-width:0.51272714"
           d="m -42.673768,192.45736 c -2.045022,-2.94756 3.734131,3.91935 0,0 z"
           id="path54154"
           inkscape:connector-curvature="0" />
        <path
           style="fill:#fffffb;fill-opacity:1;stroke-width:0.51272714"
           d="m -67.639707,234.41169 c -1.461381,-7.67454 13.421282,-18.79495 -1.041952,-22.68403 -2.79499,0.53118 -14.33996,-3.72275 -7.048953,-2.91192 3.788166,-2.87531 11.20755,-16.61539 2.187871,-12.63554 -5.884773,2.98945 5.072608,-8.73238 -4.105746,-6.14392 -5.98299,-1.16868 8.144499,-2.6859 6.375781,3.28158 5.385862,1.56383 -2.429258,-14.04215 6.727629,-9.73832 -4.638644,5.17201 -0.208857,16.89383 5.666627,7.66711 4.576398,-3.7171 -2.28337,-10.75282 5.808468,-6.31512 9.458925,3.2753 4.59191,6.18519 -1.985765,5.47855 -3.960996,3.13641 1.050944,8.1221 -5.032687,5.73618 0.221784,4.8147 1.358891,8.65879 -2.9565,11.70935 0.51308,7.12738 11.422878,5.67453 9.856085,14.51291 6.411375,10.70009 9.240175,-7.47319 10.98126,-12.15939 8.397044,-4.93399 4.189103,12.49813 -0.705387,15.28019 -5.939344,6.97995 -15.665115,10.71669 -24.726731,8.92237 z"
           id="path54167"
           inkscape:connector-curvature="0" />
        <path
           style="fill:#ffffff;fill-opacity:1;stroke-width:0.51272714"
           d="m -73.436247,232.64342 c -11.470904,-2.70096 -18.555794,-22.09463 -14.627451,-27.53947 5.012573,6.60313 13.675005,9.97599 14.655254,19.36516 -0.560326,2.28632 4.284905,11.50208 -0.0278,8.17431 z"
           id="path54165"
           inkscape:connector-curvature="0" />
        <path
           style="fill:#cbcbcb;fill-opacity:1;stroke-width:0.51272714"
           d="m -54.874351,202.92342 c -4.224177,-2.7817 4.424718,-0.16092 0,0 z"
           id="path54163"
           inkscape:connector-curvature="0" />
        <path
           style="fill:#cbcbcb;fill-opacity:1;stroke-width:0.51272714"
           d="m -51.263947,202.95092 c 2.885952,-0.60351 1.214691,0.61897 0,0 z"
           id="path54152"
           inkscape:connector-curvature="0" />
      </g>
    </g>
  </g>
</svg>
