<?xml version="1.0" encoding="UTF-8" standalone="no"?>
<!-- Created with Inkscape (http://www.inkscape.org/) -->

<svg
   xmlns:dc="http://purl.org/dc/elements/1.1/"
   xmlns:cc="http://creativecommons.org/ns#"
   xmlns:rdf="http://www.w3.org/1999/02/22-rdf-syntax-ns#"
   xmlns:svg="http://www.w3.org/2000/svg"
   xmlns="http://www.w3.org/2000/svg"
   xmlns:sodipodi="http://sodipodi.sourceforge.net/DTD/sodipodi-0.dtd"
   xmlns:inkscape="http://www.inkscape.org/namespaces/inkscape"
   width="150"
   height="150"
   viewBox="0 0 39.6875 39.6875"
   version="1.1"
   id="svg922"
   inkscape:version="0.92.4 (5da689c313, 2019-01-14)"
   sodipodi:docname="USO_games_worldforge.svg">
  <title
     id="title1437">USOICON</title>
  <defs
     id="defs916">
    <clipPath
       id="clipPath1521"
       clipPathUnits="userSpaceOnUse">
      <rect
         y="66.644836"
         x="57.114269"
         height="151.42299"
         width="172.87534"
         id="rect1523"
         style="opacity:0.875;fill:#000000;fill-opacity:1;stroke:#000000;stroke-width:0.60403091;stroke-linejoin:round;stroke-miterlimit:4;stroke-dasharray:none;stroke-opacity:1" />
    </clipPath>
  </defs>
  <sodipodi:namedview
     id="base"
     pagecolor="#ffffff"
     bordercolor="#666666"
     borderopacity="1.0"
     inkscape:pageopacity="0.0"
     inkscape:pageshadow="2"
     inkscape:zoom="1.8809321"
     inkscape:cx="63.225553"
     inkscape:cy="54.481426"
     inkscape:document-units="px"
     inkscape:current-layer="layer7"
     showgrid="false"
     inkscape:window-width="982"
     inkscape:window-height="587"
     inkscape:window-x="2784"
     inkscape:window-y="99"
     inkscape:window-maximized="0"
     units="px" />
  <metadata
     id="metadata919">
    <rdf:RDF>
      <cc:Work
         rdf:about="">
        <dc:format>image/svg+xml</dc:format>
        <dc:type
           rdf:resource="http://purl.org/dc/dcmitype/StillImage" />
        <dc:title>USOICON</dc:title>
        <cc:license
           rdf:resource="http://creativecommons.org/licenses/by-sa/4.0/" />
      </cc:Work>
      <cc:License
         rdf:about="http://creativecommons.org/licenses/by-sa/4.0/">
        <cc:permits
           rdf:resource="http://creativecommons.org/ns#Reproduction" />
        <cc:permits
           rdf:resource="http://creativecommons.org/ns#Distribution" />
        <cc:requires
           rdf:resource="http://creativecommons.org/ns#Notice" />
        <cc:requires
           rdf:resource="http://creativecommons.org/ns#Attribution" />
        <cc:permits
           rdf:resource="http://creativecommons.org/ns#DerivativeWorks" />
        <cc:requires
           rdf:resource="http://creativecommons.org/ns#ShareAlike" />
      </cc:License>
    </rdf:RDF>
  </metadata>
  <g
     style="display:inline"
     transform="translate(-35.46637,-112.59198)"
     id="layer1"
     inkscape:groupmode="layer"
     inkscape:label="toonbox" />
  <g
     inkscape:label="text"
     id="layer3"
     inkscape:groupmode="layer" />
  <g
     style="display:inline"
     inkscape:label="icon_games"
     id="layer7"
     inkscape:groupmode="layer">
    <g
       id="g6529">
      <path
         style="display:inline;opacity:0.875;fill:#999999;fill-opacity:1;stroke:none;stroke-width:0.11845408;stroke-linejoin:round;stroke-miterlimit:4;stroke-dasharray:none;stroke-opacity:0.97175137"
         d="M 1.435191,10.12791 C 2.670256,9.29705 4.324329,9.43582 5.75553,9.20511 14.11545,8.61268 22.517162,8.68995 30.881762,9.1576 c 2.392119,0.20608 4.838324,0.26932 7.150425,0.97031 0.872353,1.67498 0.817461,3.66984 1.026746,5.51683 0.208491,4.02511 0.362445,8.13136 -0.532305,12.08777 -0.230317,1.64927 -2.017724,2.0517 -3.40708,2.25864 C 28.802681,30.85612 22.40423,30.81147 16.04062,30.81293 11.303807,30.71862 6.537542,30.74635 1.839737,30.07418 0.173005,29.52829 0.822947,27.03924 0.434179,25.65651 0.154966,21.09087 0.021365,16.47217 0.692557,11.93449 0.848231,11.32021 0.903907,10.54918 1.435191,10.12791 Z"
         id="rect49496"
         inkscape:connector-curvature="0" />
      <path
         style="display:inline;fill:#000000;stroke-width:0.37203047"
         d="M 1.803349,30.70864 C 0.056742,30.0892 0.231437,27.93756 0.087588,26.427 -0.022935,21.93179 -0.070132,17.42779 0.099217,12.93387 -0.027874,11.27811 1.27784,10.0868 2.683582,9.49431 4.615709,8.56731 6.836395,8.9315 8.909365,8.7639 16.59615,8.63948 24.285544,8.62691 31.972812,8.67993 c 2.150882,0.14121 4.537543,-0.0199 6.403551,1.23592 1.58486,1.37874 1.255708,3.71898 1.302004,5.60595 -0.178243,4.07095 0.01584,8.16305 -0.388876,12.21995 -0.293352,1.71142 -2.120394,2.65314 -3.654582,3.02944 -6.368162,0.39372 -12.757085,0.28816 -19.135233,0.3134 C 11.668868,31.0283 6.826658,31.10952 2.006621,30.75364 L 1.803349,30.7086 Z m 34.717949,-1.05781 c 1.660436,-0.66982 2.120657,-2.56797 2.182495,-4.18169 C 38.903556,21.6571 38.926032,17.82461 38.6784,14.01451 38.609934,12.47205 38.055319,10.73538 36.494762,10.11382 34.51138,9.13075 32.202264,9.50823 30.063573,9.36171 22.019563,9.34057 13.971808,9.23982 5.930238,9.4697 4.247551,9.52117 2.061367,9.74531 1.291134,11.49417 c -0.682107,2.6627 -0.37748,5.45735 -0.46467,8.18069 0.080658,2.82901 -0.202804,5.71611 0.421771,8.49628 0.655233,1.84726 2.893842,2.0042 4.558802,2.11114 8.176545,0.4213 16.369453,0.15886 24.551012,0.03302 2.04628,-0.14679 4.225389,0.10711 6.163249,-0.66447 z M 4.297406,28.9474 c -0.939032,0.02717 -2.493051,-2.1182 -0.727168,-0.88447 1.706475,0.99084 3.797167,0.59334 5.679761,0.73138 0.843628,0.09701 3.276883,-0.14441 3.328971,0.24148 -2.712643,0.43249 -5.596207,0.56419 -8.281564,-0.08839 z m 31.24001,-17.1062 c -1.499147,-0.78086 -3.308903,-0.4003 -4.94344,-0.53994 -1.173066,-0.10336 -4.022293,-0.01807 -4.347208,-0.50636 2.904245,-0.07023 5.874879,-0.31161 8.734279,0.31742 0.913242,-0.14345 1.834744,2.01352 0.556369,0.72888 z"
         id="path49494"
         inkscape:connector-curvature="0" />
      <path
         style="font-style:normal;font-variant:normal;font-weight:normal;font-stretch:normal;font-size:4.31089687px;font-family:Insaniburger;-inkscape-font-specification:Insaniburger;opacity:1;vector-effect:none;fill:#000000;fill-opacity:1;stroke:none;stroke-width:0.05051832;stroke-linecap:butt;stroke-linejoin:miter;stroke-miterlimit:4;stroke-dasharray:none;stroke-dashoffset:0;stroke-opacity:1"
         d="M 9.6197584,28.029859 C 9.0038825,27.459807 9.0299436,26.855508 8.5927767,27.952629 7.7633423,28.14075 7.8405723,26.863642 7.5495383,26.286296 6.869098,25.241181 8.1679422,24.608052 8.2856603,25.913814 c 0.057597,1.162019 0.838562,-1.289715 1.2046277,0.285309 0.2906103,0.406412 0.2489548,-1.792585 1.068367,-0.995235 0.212784,0.68401 -0.284631,1.39088 -0.411871,2.078067 -0.09999,0.291461 -0.143705,0.738117 -0.5270256,0.747904 z m 4.0936696,-1.505443 c 0.02805,2.628714 -4.0858632,1.363277 -2.683288,-0.875774 0.729881,-1.204716 2.789275,-0.645479 2.683288,0.875774 z m -0.965372,-0.546051 c -1.748398,-1.139798 -1.070385,2.627026 0.136964,0.844093 0.08627,-0.279931 0.05846,-0.620335 -0.136964,-0.844093 z m 2.828908,0.794057 c 0.801631,0.449672 0.253475,1.866582 -0.386764,0.844026 -0.45249,-0.8075 -0.560061,-0.701641 -0.522346,0.191782 -0.85661,0.75002 -0.841359,-0.697506 -0.781311,-1.296567 0.01734,-0.572908 -0.208352,-1.62935 0.667952,-1.427427 0.993671,-0.249411 2.075418,0.795932 1.022469,1.688186 z m -0.883906,-1.096451 c -0.442187,1.187943 1.228346,0.404313 0.232178,0 -0.07739,0 -0.154785,0 -0.232178,0 z m 2.987768,2.345186 c -0.52857,-0.05512 -1.592551,0.272752 -1.437877,-0.661276 0.05863,-0.719679 -0.122895,-1.505964 0.100815,-2.181011 0.959036,-0.439119 0.667139,0.926453 0.7057,1.509107 -0.433244,1.115916 1.189979,0.16394 0.82077,1.246704 l -0.07892,0.06486 z m 1.678201,0 c -0.599244,0.07367 -1.457337,0.04816 -1.221991,-0.849768 0.05683,-0.657232 -0.120381,-1.379767 0.100815,-1.992519 1.045819,-0.445218 2.509899,0.29276 2.144594,1.713204 -0.09095,0.551623 -0.458829,1.096503 -1.023418,1.129083 z m 0.307534,-1.494567 c -0.271413,-1.532301 -1.014892,-0.608724 -0.723011,0.374586 -0.245281,1.06086 0.89652,0.313315 0.723011,-0.374586 z m 1.72708,1.116031 c -0.404683,-1.069098 0.844858,-0.418947 0.786912,-1.248735 -0.449738,-0.07205 -1.319907,-0.588723 -0.345754,-0.617842 1.040341,-0.222575 -0.05916,-0.988538 -0.660905,-0.691808 -0.843195,-0.133309 -0.531875,0.960429 -0.586766,1.509494 -0.08191,0.588902 -0.03717,1.955235 0.78131,1.213685 z m 3.973508,-1.118205 c 0.02805,2.628714 -4.085863,1.363277 -2.683288,-0.875774 0.72988,-1.204716 2.789275,-0.645479 2.683288,0.875774 z m -0.965373,-0.546051 c -1.748398,-1.139798 -1.070383,2.627026 0.136965,0.844093 0.08627,-0.279931 0.05846,-0.620335 -0.136965,-0.844093 z m 2.82891,0.794057 c 0.80163,0.449672 0.253474,1.866582 -0.386764,0.844026 -0.452491,-0.8075 -0.560062,-0.701641 -0.522347,0.191782 -0.856611,0.75002 -0.841358,-0.697506 -0.78131,-1.296567 0.01734,-0.572908 -0.208352,-1.62935 0.667952,-1.427427 0.99367,-0.249411 2.075418,0.795932 1.022469,1.688186 z m -0.883907,-1.096451 c -0.442186,1.187943 1.228346,0.404313 0.232179,0 -0.07739,0 -0.154786,0 -0.232179,0 z m 3.788172,0.543874 c -0.941246,-0.251823 -1.1555,0.598242 -0.496561,0.906367 -1.338191,0.799521 -1.202345,-2.169549 0.17477,-1.252271 1.572591,0.03979 -0.670101,-1.64569 -1.32586,-0.6381 -1.96141,1.308197 0.925986,4.176988 1.961295,2.176177 -0.07284,-0.371449 0.207514,-1.127951 -0.313644,-1.192173 z m 1.896122,1.801312 c 1.070159,-0.742012 -0.79396,-0.443205 -0.574335,-1.068794 0.691386,0.221063 1.18908,-0.91915 0.139943,-0.754273 -0.708721,-0.660158 1.004727,-0.112457 0.728434,-0.919284 -0.388393,-0.279674 -1.486572,-0.41138 -1.674892,0.183967 0.06066,0.81349 -0.125705,1.695054 0.100814,2.46375 0.387026,0.183793 0.86252,0.05686 1.280036,0.09463 z"
         id="text49550"
         inkscape:connector-curvature="0" />
      <g
         id="g53695"
         transform="matrix(0.23216083,0,0,0.26739887,-40.66702,-79.695953)">
        <path
           style="fill:#000000;fill-opacity:1;stroke-width:0.56041962"
           d="m 225.79653,381.36576 c -5.04874,-5.70045 -3.09798,-14.35633 -2.45039,-21.29598 2.14357,-8.89697 7.83465,-18.94365 17.6609,-20.54413 7.25222,-1.3964 13.14991,3.76259 20.06409,4.17152 6.86243,-0.25136 12.65893,-5.79643 19.79539,-4.07863 10.07438,0.99305 15.61039,11.35051 17.88548,20.14 0.72391,7.0246 2.71218,15.81255 -2.37779,21.60722 -6.22795,4.55619 -12.2931,-2.23293 -16.91721,-5.91504 -5.78798,-5.77763 -14.55245,-3.45633 -21.84303,-3.96964 -6.37158,-0.56289 -12.86431,0.86093 -17.22384,5.87987 -3.90129,3.36771 -9.44686,8.07986 -14.5936,4.00481 z"
           id="path53677"
           inkscape:connector-curvature="0" />
        <path
           style="fill:#ffffff;fill-opacity:1;stroke-width:0.56041962"
           d="m 277.9872,362.41501 c 5.58994,-5.40079 -8.06317,-7.57497 -4.77264,-0.67341 1.23932,1.3571 3.24548,2.00683 4.77264,0.67341 z"
           id="path53675"
           inkscape:connector-curvature="0" />
        <path
           style="fill:#ffffff;fill-opacity:1;stroke-width:0.56041962"
           d="m 247.09052,359.86347 c 0.27723,-3.25746 8.70112,-2.32963 4.12382,-6.78295 -5.26871,1.19244 -3.64993,-8.73224 -9.37797,-3.68051 1.20337,5.19333 -8.41269,2.02905 -5.05105,7.57352 3.38408,0.29645 5.45041,0.84964 5.40535,4.6496 1.57622,0.88603 5.19447,0.91959 4.89985,-1.75966 z"
           id="path53673"
           inkscape:connector-curvature="0" />
        <path
           style="fill:#fffffc;fill-opacity:1;stroke-width:0.56041962"
           d="m 288.72216,357.58638 c 4.50178,-7.79772 -11.51832,-3.99212 -3.56811,0.81562 1.22542,0.443 2.60725,-0.0116 3.56811,-0.81562 z"
           id="path53671"
           inkscape:connector-curvature="0" />
        <path
           style="fill:#f8ffff;fill-opacity:1;stroke-width:0.56041962"
           d="m 278.37813,352.42476 c 4.38079,-8.166 -11.41132,-4.0188 -3.58973,0.81533 1.23238,0.44154 2.62307,-0.004 3.58973,-0.81533 z"
           id="path53664"
           inkscape:connector-curvature="0" />
      </g>
    </g>
  </g>
</svg>
