<?xml version="1.0" encoding="UTF-8" standalone="no"?>
<!-- Created with Inkscape (http://www.inkscape.org/) -->

<svg
   xmlns:dc="http://purl.org/dc/elements/1.1/"
   xmlns:cc="http://creativecommons.org/ns#"
   xmlns:rdf="http://www.w3.org/1999/02/22-rdf-syntax-ns#"
   xmlns:svg="http://www.w3.org/2000/svg"
   xmlns="http://www.w3.org/2000/svg"
   xmlns:sodipodi="http://sodipodi.sourceforge.net/DTD/sodipodi-0.dtd"
   xmlns:inkscape="http://www.inkscape.org/namespaces/inkscape"
   width="150"
   height="150"
   viewBox="0 0 39.6875 39.6875"
   version="1.1"
   id="svg922"
   inkscape:version="0.92.4 (5da689c313, 2019-01-14)"
   sodipodi:docname="USO_science_betaflight.svg">
  <title
     id="title1437">USOICON</title>
  <defs
     id="defs916">
    <clipPath
       id="clipPath1521"
       clipPathUnits="userSpaceOnUse">
      <rect
         y="66.644836"
         x="57.114269"
         height="151.42299"
         width="172.87534"
         id="rect1523"
         style="opacity:0.875;fill:#000000;fill-opacity:1;stroke:#000000;stroke-width:0.60403091;stroke-linejoin:round;stroke-miterlimit:4;stroke-dasharray:none;stroke-opacity:1" />
    </clipPath>
  </defs>
  <sodipodi:namedview
     id="base"
     pagecolor="#ffffff"
     bordercolor="#666666"
     borderopacity="1.0"
     inkscape:pageopacity="0.0"
     inkscape:pageshadow="2"
     inkscape:zoom="1.2876475"
     inkscape:cx="47.194925"
     inkscape:cy="99.593534"
     inkscape:document-units="px"
     inkscape:current-layer="layer11"
     showgrid="false"
     inkscape:window-width="757"
     inkscape:window-height="528"
     inkscape:window-x="2816"
     inkscape:window-y="129"
     inkscape:window-maximized="0"
     units="px" />
  <metadata
     id="metadata919">
    <rdf:RDF>
      <cc:Work
         rdf:about="">
        <dc:format>image/svg+xml</dc:format>
        <dc:type
           rdf:resource="http://purl.org/dc/dcmitype/StillImage" />
        <dc:title>USOICON</dc:title>
        <cc:license
           rdf:resource="http://creativecommons.org/licenses/by-sa/4.0/" />
      </cc:Work>
      <cc:License
         rdf:about="http://creativecommons.org/licenses/by-sa/4.0/">
        <cc:permits
           rdf:resource="http://creativecommons.org/ns#Reproduction" />
        <cc:permits
           rdf:resource="http://creativecommons.org/ns#Distribution" />
        <cc:requires
           rdf:resource="http://creativecommons.org/ns#Notice" />
        <cc:requires
           rdf:resource="http://creativecommons.org/ns#Attribution" />
        <cc:permits
           rdf:resource="http://creativecommons.org/ns#DerivativeWorks" />
        <cc:requires
           rdf:resource="http://creativecommons.org/ns#ShareAlike" />
      </cc:License>
    </rdf:RDF>
  </metadata>
  <g
     style="display:inline"
     transform="translate(-35.46637,-112.59198)"
     id="layer1"
     inkscape:groupmode="layer"
     inkscape:label="toonbox" />
  <g
     inkscape:label="text"
     id="layer3"
     inkscape:groupmode="layer" />
  <g
     style="display:inline"
     inkscape:label="icon_science"
     id="layer11"
     inkscape:groupmode="layer">
    <g
       id="g2016">
      <path
         style="display:inline;opacity:0.875;fill:#999999;fill-opacity:1;stroke:none;stroke-width:0.11845408;stroke-linejoin:round;stroke-miterlimit:4;stroke-dasharray:none;stroke-opacity:0.97175137"
         d="M 1.435191,10.12791 C 2.670256,9.29705 4.324329,9.43582 5.75553,9.20511 14.11545,8.61268 22.517162,8.68995 30.881762,9.1576 c 2.392119,0.20608 4.838324,0.26932 7.150425,0.97031 0.872353,1.67498 0.817461,3.66984 1.026746,5.51683 0.208491,4.02511 0.362445,8.13136 -0.532305,12.08777 -0.230317,1.64927 -2.017724,2.0517 -3.40708,2.25864 C 28.802681,30.85612 22.40423,30.81147 16.04062,30.81293 11.303807,30.71862 6.537542,30.74635 1.839737,30.07418 0.173005,29.52829 0.822947,27.03924 0.434179,25.65651 0.154966,21.09087 0.021365,16.47217 0.692557,11.93449 0.848231,11.32021 0.903907,10.54918 1.435191,10.12791 Z"
         id="rect49496"
         inkscape:connector-curvature="0" />
      <path
         style="display:inline;fill:#000000;stroke-width:0.37203047"
         d="M 1.803349,30.70864 C 0.056742,30.0892 0.231437,27.93756 0.087588,26.427 -0.022935,21.93179 -0.070132,17.42779 0.099217,12.93387 -0.027874,11.27811 1.27784,10.0868 2.683582,9.49431 4.615709,8.56731 6.836395,8.9315 8.909365,8.7639 16.59615,8.63948 24.285544,8.62691 31.972812,8.67993 c 2.150882,0.14121 4.537543,-0.0199 6.403551,1.23592 1.58486,1.37874 1.255708,3.71898 1.302004,5.60595 -0.178243,4.07095 0.01584,8.16305 -0.388876,12.21995 -0.293352,1.71142 -2.120394,2.65314 -3.654582,3.02944 -6.368162,0.39372 -12.757085,0.28816 -19.135233,0.3134 C 11.668868,31.0283 6.826658,31.10952 2.006621,30.75364 L 1.803349,30.7086 Z m 34.717949,-1.05781 c 1.660436,-0.66982 2.120657,-2.56797 2.182495,-4.18169 C 38.903556,21.6571 38.926032,17.82461 38.6784,14.01451 38.609934,12.47205 38.055319,10.73538 36.494762,10.11382 34.51138,9.13075 32.202264,9.50823 30.063573,9.36171 22.019563,9.34057 13.971808,9.23982 5.930238,9.4697 4.247551,9.52117 2.061367,9.74531 1.291134,11.49417 c -0.682107,2.6627 -0.37748,5.45735 -0.46467,8.18069 0.080658,2.82901 -0.202804,5.71611 0.421771,8.49628 0.655233,1.84726 2.893842,2.0042 4.558802,2.11114 8.176545,0.4213 16.369453,0.15886 24.551012,0.03302 2.04628,-0.14679 4.225389,0.10711 6.163249,-0.66447 z M 4.297406,28.9474 c -0.939032,0.02717 -2.493051,-2.1182 -0.727168,-0.88447 1.706475,0.99084 3.797167,0.59334 5.679761,0.73138 0.843628,0.09701 3.276883,-0.14441 3.328971,0.24148 -2.712643,0.43249 -5.596207,0.56419 -8.281564,-0.08839 z m 31.24001,-17.1062 c -1.499147,-0.78086 -3.308903,-0.4003 -4.94344,-0.53994 -1.173066,-0.10336 -4.022293,-0.01807 -4.347208,-0.50636 2.904245,-0.07023 5.874879,-0.31161 8.734279,0.31742 0.913242,-0.14345 1.834744,2.01352 0.556369,0.72888 z"
         id="path49494"
         inkscape:connector-curvature="0" />
      <path
         style="font-style:normal;font-variant:normal;font-weight:normal;font-stretch:normal;font-size:4.94612217px;font-family:Insaniburger;-inkscape-font-specification:Insaniburger;opacity:1;vector-effect:none;fill:#000000;fill-opacity:1;stroke:none;stroke-width:0.05796236;stroke-linecap:butt;stroke-linejoin:miter;stroke-miterlimit:4;stroke-dasharray:none;stroke-dashoffset:0;stroke-opacity:1"
         d="m 10.849125,26.949339 c 0.03534,1.298764 -1.1609918,1.053744 -1.8735601,1.065946 C 8.2336417,27.878461 8.652056,26.69129 8.5421946,26.042295 8.552561,25.384046 8.352742,24.193801 9.2234924,24.417714 c 0.8598316,-0.308774 2.1626266,0.67275 1.1616216,1.641559 0.286689,0.147234 0.479481,0.510156 0.464011,0.890066 z M 9.9823847,26.890711 C 9.7191722,25.705215 8.9447215,27.275034 9.6568632,27.279782 9.8442778,27.314573 10.0061,27.11822 9.9823847,26.890711 Z M 9.9211007,25.48899 c -0.3777292,-1.204239 -0.9231341,0.836494 -0.068946,0.259825 l 0.051709,-0.10826 z m 2.5980333,2.526295 c 1.089784,-0.787744 -0.638092,-0.675927 -0.617225,-1.149289 0.09475,-0.286101 1.544869,-0.445578 0.529675,-1.08387 -0.672394,0.337877 -0.734829,-0.830943 -0.03382,-0.516985 1.039892,-0.235357 0.0066,-1.198611 -0.622413,-0.847427 -0.859467,-0.253587 -0.768623,0.875944 -0.740182,1.570508 0.09149,0.651535 -0.221547,1.554236 0.243771,1.998083 0.410116,0.05966 0.827526,0.01535 1.240194,0.02898 z m 2.177795,-2.750144 c -0.05701,0.872755 0.123216,1.820584 -0.108342,2.639552 -0.960995,0.542835 -0.748477,-0.973149 -0.758398,-1.655827 0.202717,-0.971569 -0.226454,-0.939469 -0.766059,-1.222063 -0.09112,-0.986296 0.989838,-0.488485 1.485306,-0.609089 0.7499,-0.415828 1.400813,0.939212 0.341692,0.847427 -0.06473,0 -0.129466,0 -0.194199,0 z m 1.998319,1.263148 c -0.07464,-1.412416 -0.720453,0.360706 0,0 z m -0.634733,0.852758 c -0.566394,1.512044 -1.252612,-0.248485 -0.562097,-1.020922 0.33324,-0.643461 0.384984,-1.648478 1.006411,-1.942411 0.627098,0.319018 0.692768,1.341871 1.034194,2.008483 0.693162,0.768046 -0.06497,2.446845 -0.585503,0.95485 -0.297669,0 -0.595337,0 -0.893005,0 z m 2.873814,0.170552 c -0.185004,-0.899047 0.171482,-0.963911 0.782474,-1.02331 0.525066,-1.179145 -1.107356,-0.265942 -0.782474,-1.263148 0.743067,0.418167 1.430281,-0.916653 0.369297,-0.847427 -0.595136,-0.07745 -1.462087,-0.05039 -1.236038,0.966788 0.05727,0.831518 -0.123685,1.73843 0.108342,2.516194 0.247867,0.227391 0.794691,0.138547 0.758399,-0.349097 z m 2.718413,0.463686 c -0.512243,-0.118117 -1.495733,0.357784 -1.545249,-0.564307 0.01722,-0.923341 -0.03502,-1.853512 0.02708,-2.77244 0.839116,-0.896527 0.932883,0.694164 0.839656,1.410305 -0.06156,0.702945 -0.06924,1.340283 0.66114,1.079015 0.387501,-0.05324 0.397493,0.871305 0.01737,0.847427 z m 1.357019,-0.463686 c -0.52598,1.251734 -1.104303,-0.307077 -0.86674,-1.106822 0.09148,-0.651535 -0.221547,-1.554237 0.24377,-1.998083 0.924336,-0.21333 0.546091,1.182805 0.62297,1.843389 0,0.420505 0,0.84101 0,1.261516 z m 2.624299,-1.742825 c -0.780767,-0.358017 -1.523044,0.767961 -0.512165,0.970012 -0.942137,1.416055 -1.715774,-2.173186 -0.0777,-1.492992 1.363909,0.853329 0.772032,-1.493338 -0.360048,-0.974675 -2.503481,0.06131 -1.416806,4.948644 0.83049,3.61023 0.563108,-0.172583 0.691385,-1.920472 0.119423,-2.112575 z m 2.444821,-1.39106 c 0.741923,0.136824 0.32351,1.323995 0.433371,1.97299 0.104732,0.710387 -0.02259,2.252575 -0.839655,1.363757 -0.045,-0.624928 0.14235,-1.414629 -0.618046,-1.119577 0.324046,0.857336 -0.600947,2.122724 -0.86674,0.816094 0.01722,-0.923341 -0.03502,-1.853512 0.02708,-2.77244 1.012092,-1.108876 0.612796,1.079841 1.087583,1.103588 0.822732,0.291066 -0.149124,-1.502182 0.776402,-1.364412 z m 2.274101,0.847427 c -0.05701,0.872755 0.123215,1.820584 -0.108343,2.639552 -0.960994,0.542835 -0.748477,-0.973149 -0.758398,-1.655827 0.202717,-0.971569 -0.226453,-0.939469 -0.766058,-1.222063 -0.09112,-0.986296 0.989837,-0.488485 1.485305,-0.609089 0.749901,-0.415828 1.400813,0.939212 0.341692,0.847427 -0.06473,0 -0.129465,0 -0.194198,0 z"
         id="text49550"
         inkscape:connector-curvature="0" />
      <path
         style="fill:#000000;fill-opacity:1;stroke-width:0.09010038"
         d="m 15.016226,22.938323 c -0.678651,-0.162544 -0.890782,-0.992093 -0.419134,-1.458718 1.025192,-1.606426 2.050381,-3.212853 3.075569,-4.819282 0,-0.650713 0,-1.301427 0,-1.95214 -0.650954,0.09287 -0.497178,-0.722235 0.07728,-0.63158 1.239486,0.02262 2.495781,-0.04456 3.724985,0.03298 0.791413,0.232466 -0.08948,0.561563 0.0069,0.962006 0.05127,0.756418 -0.205433,1.602281 0.390777,2.200436 0.970994,1.530685 1.941986,3.06137 2.912978,4.592056 0.201304,0.797554 -0.729454,1.284261 -1.421379,1.188899 -2.716889,-0.02425 -5.450757,0.04073 -8.157065,-0.03912 -0.06299,-0.02547 -0.128539,-0.04978 -0.190889,-0.07554 z m 5.535325,-3.40286 c 0.996335,-0.215326 2.456484,-0.193758 1.234488,-1.390686 -0.332533,-0.702192 -1.109145,-1.273801 -0.939008,-2.12129 -0.124785,-0.415615 0.322666,-1.403467 -0.364758,-1.256444 -0.724889,0 -1.449779,0 -2.174668,0 -0.06516,0.675338 0.129669,1.426867 -0.09844,2.05445 -0.581879,0.963479 -1.291701,1.869464 -1.753219,2.89217 1.365366,0.279255 2.761459,0.235569 4.095606,-0.1782 z m -1.38583,-6.02638 c -0.868146,-0.323649 -0.609115,-1.389029 0.169026,-1.503732 0.650208,-0.09968 1.549507,0.09254 1.512231,0.937971 -0.203192,0.579811 -1.097404,0.875287 -1.681257,0.565761 z m 0.875606,-0.20978 c 0.619638,-0.06711 0.569853,-0.983684 -0.04182,-1.013181 -0.518953,-0.24751 -1.355434,0.284519 -0.94856,0.865761 0.31942,0.104199 0.646557,0.349958 0.990376,0.14742 z m 1.12489,-1.20623 c -0.699885,-0.111839 -1.142031,-1.033069 -0.615791,-1.541794 0.529822,-0.6399552 1.578263,-0.7283984 2.27032,-0.287476 0.803507,0.334667 0.630576,1.681515 -0.247564,1.784961 -0.444339,0.185187 -0.955713,0.25675 -1.406965,0.04431 z m 1.487723,-0.38911 c 0.510608,-0.206523 0.404845,-0.994368 -0.03808,-1.226114 -0.448837,-0.278054 -1.005076,-0.279358 -1.471813,-0.01805 -0.468263,0.223152 -0.655129,0.860859 -0.202486,1.204272 0.409678,0.340711 1.001711,0.316388 1.47692,0.210588 0.07849,-0.0569 0.156974,-0.113798 0.235461,-0.170697 z m -4.452146,-0.23608 c -0.659123,-0.480454 0.402853,-1.152693 0.905181,-0.790428 0.85812,0.649483 -0.406026,1.288188 -0.905181,0.790428 z m 0.885451,-0.16231 c 0.43868,-0.407317 -0.424469,-0.716121 -0.733137,-0.44754 -0.575427,0.413488 0.509922,0.88411 0.733137,0.44754 z"
         id="path55131"
         inkscape:connector-curvature="0" />
    </g>
  </g>
</svg>
