<?xml version="1.0" encoding="UTF-8" standalone="no"?>
<!-- Created with Inkscape (http://www.inkscape.org/) -->

<svg
   xmlns:dc="http://purl.org/dc/elements/1.1/"
   xmlns:cc="http://creativecommons.org/ns#"
   xmlns:rdf="http://www.w3.org/1999/02/22-rdf-syntax-ns#"
   xmlns:svg="http://www.w3.org/2000/svg"
   xmlns="http://www.w3.org/2000/svg"
   xmlns:sodipodi="http://sodipodi.sourceforge.net/DTD/sodipodi-0.dtd"
   xmlns:inkscape="http://www.inkscape.org/namespaces/inkscape"
   width="150"
   height="150"
   viewBox="0 0 39.6875 39.6875"
   version="1.1"
   id="svg922"
   inkscape:version="0.92.4 (5da689c313, 2019-01-14)"
   sodipodi:docname="USO_office_gnomedictionary.svg">
  <title
     id="title1437">USOICON</title>
  <defs
     id="defs916">
    <clipPath
       id="clipPath1521"
       clipPathUnits="userSpaceOnUse">
      <rect
         y="66.644836"
         x="57.114269"
         height="151.42299"
         width="172.87534"
         id="rect1523"
         style="opacity:0.875;fill:#000000;fill-opacity:1;stroke:#000000;stroke-width:0.60403091;stroke-linejoin:round;stroke-miterlimit:4;stroke-dasharray:none;stroke-opacity:1" />
    </clipPath>
  </defs>
  <sodipodi:namedview
     id="base"
     pagecolor="#ffffff"
     bordercolor="#666666"
     borderopacity="1.0"
     inkscape:pageopacity="0.0"
     inkscape:pageshadow="2"
     inkscape:zoom="1.6172501"
     inkscape:cx="79.73942"
     inkscape:cy="85.597826"
     inkscape:document-units="px"
     inkscape:current-layer="layer10"
     showgrid="false"
     inkscape:window-width="832"
     inkscape:window-height="606"
     inkscape:window-x="2728"
     inkscape:window-y="190"
     inkscape:window-maximized="0"
     units="px" />
  <metadata
     id="metadata919">
    <rdf:RDF>
      <cc:Work
         rdf:about="">
        <dc:format>image/svg+xml</dc:format>
        <dc:type
           rdf:resource="http://purl.org/dc/dcmitype/StillImage" />
        <dc:title>USOICON</dc:title>
        <cc:license
           rdf:resource="http://creativecommons.org/licenses/by-sa/4.0/" />
      </cc:Work>
      <cc:License
         rdf:about="http://creativecommons.org/licenses/by-sa/4.0/">
        <cc:permits
           rdf:resource="http://creativecommons.org/ns#Reproduction" />
        <cc:permits
           rdf:resource="http://creativecommons.org/ns#Distribution" />
        <cc:requires
           rdf:resource="http://creativecommons.org/ns#Notice" />
        <cc:requires
           rdf:resource="http://creativecommons.org/ns#Attribution" />
        <cc:permits
           rdf:resource="http://creativecommons.org/ns#DerivativeWorks" />
        <cc:requires
           rdf:resource="http://creativecommons.org/ns#ShareAlike" />
      </cc:License>
    </rdf:RDF>
  </metadata>
  <g
     style="display:inline"
     transform="translate(-35.46637,-112.59198)"
     id="layer1"
     inkscape:groupmode="layer"
     inkscape:label="toonbox" />
  <g
     inkscape:label="text"
     id="layer3"
     inkscape:groupmode="layer" />
  <g
     style="display:inline"
     inkscape:label="icon_office"
     id="layer10"
     inkscape:groupmode="layer">
    <g
       id="g2638">
      <path
         style="display:inline;opacity:0.875;fill:#999999;fill-opacity:1;stroke:none;stroke-width:0.11845408;stroke-linejoin:round;stroke-miterlimit:4;stroke-dasharray:none;stroke-opacity:0.97175137"
         d="M 1.435191,10.12791 C 2.670256,9.29705 4.324329,9.43582 5.75553,9.20511 14.11545,8.61268 22.517162,8.68995 30.881762,9.1576 c 2.392119,0.20608 4.838324,0.26932 7.150425,0.97031 0.872353,1.67498 0.817461,3.66984 1.026746,5.51683 0.208491,4.02511 0.362445,8.13136 -0.532305,12.08777 -0.230317,1.64927 -2.017724,2.0517 -3.40708,2.25864 C 28.802681,30.85612 22.40423,30.81147 16.04062,30.81293 11.303807,30.71862 6.537542,30.74635 1.839737,30.07418 0.173005,29.52829 0.822947,27.03924 0.434179,25.65651 0.154966,21.09087 0.021365,16.47217 0.692557,11.93449 0.848231,11.32021 0.903907,10.54918 1.435191,10.12791 Z"
         id="rect49496"
         inkscape:connector-curvature="0" />
      <path
         style="display:inline;fill:#000000;stroke-width:0.37203047"
         d="M 1.803349,30.70864 C 0.056742,30.0892 0.231437,27.93756 0.087588,26.427 -0.022935,21.93179 -0.070132,17.42779 0.099217,12.93387 -0.027874,11.27811 1.27784,10.0868 2.683582,9.49431 4.615709,8.56731 6.836395,8.9315 8.909365,8.7639 16.59615,8.63948 24.285544,8.62691 31.972812,8.67993 c 2.150882,0.14121 4.537543,-0.0199 6.403551,1.23592 1.58486,1.37874 1.255708,3.71898 1.302004,5.60595 -0.178243,4.07095 0.01584,8.16305 -0.388876,12.21995 -0.293352,1.71142 -2.120394,2.65314 -3.654582,3.02944 -6.368162,0.39372 -12.757085,0.28816 -19.135233,0.3134 C 11.668868,31.0283 6.826658,31.10952 2.006621,30.75364 L 1.803349,30.7086 Z m 34.717949,-1.05781 c 1.660436,-0.66982 2.120657,-2.56797 2.182495,-4.18169 C 38.903556,21.6571 38.926032,17.82461 38.6784,14.01451 38.609934,12.47205 38.055319,10.73538 36.494762,10.11382 34.51138,9.13075 32.202264,9.50823 30.063573,9.36171 22.019563,9.34057 13.971808,9.23982 5.930238,9.4697 4.247551,9.52117 2.061367,9.74531 1.291134,11.49417 c -0.682107,2.6627 -0.37748,5.45735 -0.46467,8.18069 0.080658,2.82901 -0.202804,5.71611 0.421771,8.49628 0.655233,1.84726 2.893842,2.0042 4.558802,2.11114 8.176545,0.4213 16.369453,0.15886 24.551012,0.03302 2.04628,-0.14679 4.225389,0.10711 6.163249,-0.66447 z M 4.297406,28.9474 c -0.939032,0.02717 -2.493051,-2.1182 -0.727168,-0.88447 1.706475,0.99084 3.797167,0.59334 5.679761,0.73138 0.843628,0.09701 3.276883,-0.14441 3.328971,0.24148 -2.712643,0.43249 -5.596207,0.56419 -8.281564,-0.08839 z m 31.24001,-17.1062 c -1.499147,-0.78086 -3.308903,-0.4003 -4.94344,-0.53994 -1.173066,-0.10336 -4.022293,-0.01807 -4.347208,-0.50636 2.904245,-0.07023 5.874879,-0.31161 8.734279,0.31742 0.913242,-0.14345 1.834744,2.01352 0.556369,0.72888 z"
         id="path49494"
         inkscape:connector-curvature="0" />
      <path
         style="font-style:normal;font-variant:normal;font-weight:normal;font-stretch:normal;font-size:4.08878422px;font-family:Insaniburger;-inkscape-font-specification:Insaniburger;opacity:1;vector-effect:none;fill:#000000;fill-opacity:1;stroke:none;stroke-width:0.04791544;stroke-linecap:butt;stroke-linejoin:miter;stroke-miterlimit:4;stroke-dasharray:none;stroke-dashoffset:0;stroke-opacity:1"
         d="M 5.2680897,26.200855 C 4.4296633,25.941479 4.2401242,26.807745 4.8259738,27.11664 3.3973154,27.794175 4.014273,24.695507 5.2463296,25.956866 6.1295419,24.509905 2.7946972,24.681819 3.2480244,26.508589 c -0.2486262,1.697136 2.516778,2.245568 2.2993203,0.394833 -0.00215,-0.262246 0.050792,-0.719599 -0.279255,-0.702567 z m 1.9384648,0.175848 c -0.2719148,-0.724921 0.4221219,-2.027194 0.7180842,-0.84039 -0.049425,0.789785 0.105177,1.643812 -0.08976,2.388955 -0.6727769,0.330644 -0.9544758,-0.787513 -1.3843938,-1.224059 0.1957962,0.617055 -0.2684994,1.998688 -0.7236187,0.937206 0.050072,-0.822715 -0.1061049,-1.710342 0.08976,-2.488254 0.6476726,-0.386504 0.9774237,0.820389 1.3899283,1.226542 z m 3.4653005,0.131886 c 0.02497,2.656031 -3.6378709,1.377445 -2.3890806,-0.884873 0.6498534,-1.217235 2.4834466,-0.652186 2.3890806,0.884873 z M 9.8123298,25.956866 c -1.867477,-1.068691 -0.4910909,2.954341 0.1632011,0.549525 l -0.0408,-0.303338 z m 2.2104662,0.01099 c 0.223413,-0.643073 1.278851,-1.456317 1.196808,-0.230745 -0.04811,0.723152 0.103273,1.50951 -0.08976,2.188157 -0.844599,0.447651 -0.599143,-0.917191 -0.628324,-1.500207 -0.300104,0.919213 -0.745118,0.386955 -0.957446,0.104796 0.06535,0.599451 0.05608,2.028652 -0.695644,1.275888 -3.81e-4,-0.875515 -0.115262,-1.825307 0.06732,-2.65998 0.527574,-0.384815 0.799704,0.47644 1.107046,0.822091 z m 2.60759,2.053029 c 0.961763,-0.769521 -0.737554,-0.421874 -0.511363,-1.100592 0.673688,0.273849 1.020582,-0.952202 0.107529,-0.741419 -0.590466,-0.69777 0.914145,-0.09354 0.665635,-0.928836 -0.344517,-0.281651 -1.449727,-0.452393 -1.491249,0.286275 0.04943,0.789785 -0.105177,1.643812 0.08976,2.388955 0.347214,0.186717 0.766189,0.05683 1.139688,0.09562 z m 2.448014,0 c -0.607787,0.123851 -1.312666,-0.04811 -1.088007,-0.984863 0.08792,-0.635097 -0.202027,-1.497843 0.201962,-1.958672 1.199379,-0.454775 2.40319,1.060137 1.576249,2.459678 -0.152062,0.280558 -0.417492,0.453518 -0.690204,0.483857 z m 0.273815,-1.510097 c -0.278392,-1.605009 -0.895455,-0.542784 -0.643737,0.445725 -0.198986,1.014567 0.843803,0.155227 0.643737,-0.445725 z m 1.537716,1.127627 c -0.53416,1.09255 -0.894263,-0.436667 -0.718084,-1.104386 -0.177885,-0.667262 0.187147,-2.188886 0.718084,-1.098114 0,0.734166 0,1.468333 0,2.2025 z m 2.428067,-0.149471 c -1.20766,2.036261 -3.501155,-1.451776 -1.496462,-2.416266 0.731857,-0.819524 2.256311,1.003104 0.887178,0.763292 -1.701015,-0.280604 -0.651515,2.126476 0.522243,1.369419 l 0.06528,0.132435 z m 1.525022,-1.736502 c -0.04858,0.719363 0.104008,1.502442 -0.08976,2.177222 -0.876312,0.440433 -0.583157,-0.991987 -0.628323,-1.592037 0.362911,-0.822611 -1.300524,-0.584539 -0.36267,-1.284182 0.550489,0.05069 1.140765,-0.10625 1.66465,0.08737 0.293537,0.588414 -0.241624,0.661813 -0.583897,0.611623 z m 1.52865,1.885973 c -0.53416,1.09255 -0.894264,-0.436667 -0.718084,-1.104386 -0.177884,-0.667262 0.187148,-2.188886 0.718084,-1.098114 0,0.734166 0,1.468333 0,2.2025 z m 2.747216,-1.129826 c 0.02497,2.656031 -3.637872,1.377445 -2.389081,-0.884873 0.649853,-1.217235 2.483446,-0.652186 2.389081,0.884873 z M 26.25936,25.956866 c -1.867477,-1.068691 -0.491091,2.954341 0.163202,0.549525 l -0.0408,-0.303338 z m 2.493348,0.419837 c -0.271915,-0.724921 0.422122,-2.027194 0.718085,-0.84039 -0.04943,0.789785 0.105177,1.643812 -0.08976,2.388955 -0.672776,0.330644 -0.954476,-0.787513 -1.384394,-1.224059 0.195796,0.617055 -0.268499,1.998688 -0.723619,0.937206 0.05007,-0.822715 -0.106104,-1.710342 0.08976,-2.488254 0.647673,-0.386504 0.977424,0.820389 1.389928,1.226542 z m 2.165133,0.41764 c -0.106842,-1.201542 -0.577765,0.29096 0,0 z m -0.52587,0.703393 c -0.595038,1.324466 -0.953795,-0.443271 -0.377596,-1.075892 0.16233,-0.68566 0.783845,-2.065449 1.192076,-0.795717 0.222886,0.655963 0.537096,1.274227 0.694222,1.957336 -0.405908,1.148469 -0.762076,-0.584659 -1.508702,-0.08573 z m 3.167913,-0.738562 c 0.767173,0.54009 0.110692,1.906245 -0.401676,0.760011 -0.563622,-1.121763 -0.194053,0.0016 -0.587276,0.477796 -0.82679,0.139606 -0.419686,-1.165361 -0.516123,-1.764148 -0.175415,-0.83877 0.226833,-1.40381 0.938815,-1.179388 0.835551,-0.216962 1.302426,1.185317 0.56626,1.705729 z m -0.786991,-1.107845 c -0.35936,1.303311 1.153828,0.228255 0.123896,0 h -0.08282 z m 2.50967,0.347301 c 0.224901,-0.994089 1.656226,-1.143355 0.890018,0.06369 -0.319455,0.467764 -0.67209,0.921881 -0.53823,1.576096 -0.600734,1.108887 -0.703134,-0.437106 -0.867407,-0.966114 -0.621645,-0.468394 -0.852863,-2.295092 0.163184,-1.235594 0.117477,0.187307 0.234956,0.374614 0.352435,0.561923 z"
         id="text49550"
         inkscape:connector-curvature="0" />
      <g
         transform="matrix(0.18305115,0,0,0.1651771,-46.105739,-23.454333)"
         id="g2455">
        <path
           style="fill:#000000;fill-opacity:1;stroke-width:0.61634219"
           d="m 338.30358,275.11866 c -9.70179,-7.31832 -9.75134,-22.92001 -1.45706,-31.38693 9.38081,-12.14271 18.15386,-24.86583 28.61378,-36.10513 9.274,-4.22849 15.14571,8.10718 19.30075,14.58025 4.07931,7.21295 3.99328,16.413 -1.97686,22.60527 -6.9397,9.34536 -13.5691,19.00508 -21.36987,27.65495 -9.88851,-1.89149 3.33849,-13.70543 6.51238,-18.82697 4.45043,-7.31817 12.63356,-13.49328 13.49532,-22.28567 -2.182,-5.73961 -9.44516,-23.21491 -16.02282,-13.40536 -9.52992,11.89433 -19.02244,23.87031 -27.6144,36.46094 -4.02796,6.95503 4.53215,20.63551 9.49994,9.03891 7.2613,-9.30698 14.79475,-18.481 21.11672,-28.45846 -3.32669,-3.50864 -8.87038,9.19134 -12.461,12.21044 -2.68427,4.4941 -13.28949,17.80635 -12.58614,5.62769 6.56381,-9.22161 13.43554,-18.30469 21.1156,-26.62439 10.19457,-4.41092 12.62387,11.51935 6.66621,16.99307 -8.0252,11.12705 -16.01896,22.45357 -25.56169,32.32769 -2.25464,1.5425 -5.16742,1.14656 -7.27086,-0.4063 z"
           id="path53927"
           inkscape:connector-curvature="0" />
      </g>
    </g>
  </g>
</svg>
