<?xml version="1.0" encoding="UTF-8" standalone="no"?>
<!-- Created with Inkscape (http://www.inkscape.org/) -->

<svg
   xmlns:dc="http://purl.org/dc/elements/1.1/"
   xmlns:cc="http://creativecommons.org/ns#"
   xmlns:rdf="http://www.w3.org/1999/02/22-rdf-syntax-ns#"
   xmlns:svg="http://www.w3.org/2000/svg"
   xmlns="http://www.w3.org/2000/svg"
   xmlns:sodipodi="http://sodipodi.sourceforge.net/DTD/sodipodi-0.dtd"
   xmlns:inkscape="http://www.inkscape.org/namespaces/inkscape"
   width="150"
   height="150"
   viewBox="0 0 39.6875 39.6875"
   version="1.1"
   id="svg922"
   inkscape:version="0.92.4 (5da689c313, 2019-01-14)"
   sodipodi:docname="USO_office_kitscenarist.svg">
  <title
     id="title1437">USOICON</title>
  <defs
     id="defs916">
    <clipPath
       id="clipPath1521"
       clipPathUnits="userSpaceOnUse">
      <rect
         y="66.644836"
         x="57.114269"
         height="151.42299"
         width="172.87534"
         id="rect1523"
         style="opacity:0.875;fill:#000000;fill-opacity:1;stroke:#000000;stroke-width:0.60403091;stroke-linejoin:round;stroke-miterlimit:4;stroke-dasharray:none;stroke-opacity:1" />
    </clipPath>
  </defs>
  <sodipodi:namedview
     id="base"
     pagecolor="#ffffff"
     bordercolor="#666666"
     borderopacity="1.0"
     inkscape:pageopacity="0.0"
     inkscape:pageshadow="2"
     inkscape:zoom="2.1050619"
     inkscape:cx="80.704533"
     inkscape:cy="60.053383"
     inkscape:document-units="px"
     inkscape:current-layer="layer10"
     showgrid="false"
     inkscape:window-width="977"
     inkscape:window-height="638"
     inkscape:window-x="2734"
     inkscape:window-y="119"
     inkscape:window-maximized="0"
     units="px" />
  <metadata
     id="metadata919">
    <rdf:RDF>
      <cc:Work
         rdf:about="">
        <dc:format>image/svg+xml</dc:format>
        <dc:type
           rdf:resource="http://purl.org/dc/dcmitype/StillImage" />
        <dc:title>USOICON</dc:title>
        <cc:license
           rdf:resource="http://creativecommons.org/licenses/by-sa/4.0/" />
      </cc:Work>
      <cc:License
         rdf:about="http://creativecommons.org/licenses/by-sa/4.0/">
        <cc:permits
           rdf:resource="http://creativecommons.org/ns#Reproduction" />
        <cc:permits
           rdf:resource="http://creativecommons.org/ns#Distribution" />
        <cc:requires
           rdf:resource="http://creativecommons.org/ns#Notice" />
        <cc:requires
           rdf:resource="http://creativecommons.org/ns#Attribution" />
        <cc:permits
           rdf:resource="http://creativecommons.org/ns#DerivativeWorks" />
        <cc:requires
           rdf:resource="http://creativecommons.org/ns#ShareAlike" />
      </cc:License>
    </rdf:RDF>
  </metadata>
  <g
     style="display:inline"
     transform="translate(-35.46637,-112.59198)"
     id="layer1"
     inkscape:groupmode="layer"
     inkscape:label="toonbox" />
  <g
     inkscape:label="text"
     id="layer3"
     inkscape:groupmode="layer" />
  <g
     style="display:inline"
     inkscape:label="icon_office"
     id="layer10"
     inkscape:groupmode="layer">
    <g
       id="g1406">
      <path
         style="display:inline;opacity:0.875;fill:#999999;fill-opacity:1;stroke:none;stroke-width:0.11845408;stroke-linejoin:round;stroke-miterlimit:4;stroke-dasharray:none;stroke-opacity:0.97175137"
         d="M 1.435191,10.12791 C 2.670256,9.29705 4.324329,9.43582 5.75553,9.20511 14.11545,8.61268 22.517162,8.68995 30.881762,9.1576 c 2.392119,0.20608 4.838324,0.26932 7.150425,0.97031 0.872353,1.67498 0.817461,3.66984 1.026746,5.51683 0.208491,4.02511 0.362445,8.13136 -0.532305,12.08777 -0.230317,1.64927 -2.017724,2.0517 -3.40708,2.25864 C 28.802681,30.85612 22.40423,30.81147 16.04062,30.81293 11.303807,30.71862 6.537542,30.74635 1.839737,30.07418 0.173005,29.52829 0.822947,27.03924 0.434179,25.65651 0.154966,21.09087 0.021365,16.47217 0.692557,11.93449 0.848231,11.32021 0.903907,10.54918 1.435191,10.12791 Z"
         id="rect49496"
         inkscape:connector-curvature="0" />
      <path
         style="display:inline;fill:#000000;stroke-width:0.37203047"
         d="M 1.803349,30.70864 C 0.056742,30.0892 0.231437,27.93756 0.087588,26.427 -0.022935,21.93179 -0.070132,17.42779 0.099217,12.93387 -0.027874,11.27811 1.27784,10.0868 2.683582,9.49431 4.615709,8.56731 6.836395,8.9315 8.909365,8.7639 16.59615,8.63948 24.285544,8.62691 31.972812,8.67993 c 2.150882,0.14121 4.537543,-0.0199 6.403551,1.23592 1.58486,1.37874 1.255708,3.71898 1.302004,5.60595 -0.178243,4.07095 0.01584,8.16305 -0.388876,12.21995 -0.293352,1.71142 -2.120394,2.65314 -3.654582,3.02944 -6.368162,0.39372 -12.757085,0.28816 -19.135233,0.3134 C 11.668868,31.0283 6.826658,31.10952 2.006621,30.75364 L 1.803349,30.7086 Z m 34.717949,-1.05781 c 1.660436,-0.66982 2.120657,-2.56797 2.182495,-4.18169 C 38.903556,21.6571 38.926032,17.82461 38.6784,14.01451 38.609934,12.47205 38.055319,10.73538 36.494762,10.11382 34.51138,9.13075 32.202264,9.50823 30.063573,9.36171 22.019563,9.34057 13.971808,9.23982 5.930238,9.4697 4.247551,9.52117 2.061367,9.74531 1.291134,11.49417 c -0.682107,2.6627 -0.37748,5.45735 -0.46467,8.18069 0.080658,2.82901 -0.202804,5.71611 0.421771,8.49628 0.655233,1.84726 2.893842,2.0042 4.558802,2.11114 8.176545,0.4213 16.369453,0.15886 24.551012,0.03302 2.04628,-0.14679 4.225389,0.10711 6.163249,-0.66447 z M 4.297406,28.9474 c -0.939032,0.02717 -2.493051,-2.1182 -0.727168,-0.88447 1.706475,0.99084 3.797167,0.59334 5.679761,0.73138 0.843628,0.09701 3.276883,-0.14441 3.328971,0.24148 -2.712643,0.43249 -5.596207,0.56419 -8.281564,-0.08839 z m 31.24001,-17.1062 c -1.499147,-0.78086 -3.308903,-0.4003 -4.94344,-0.53994 -1.173066,-0.10336 -4.022293,-0.01807 -4.347208,-0.50636 2.904245,-0.07023 5.874879,-0.31161 8.734279,0.31742 0.913242,-0.14345 1.834744,2.01352 0.556369,0.72888 z"
         id="path49494"
         inkscape:connector-curvature="0" />
      <path
         style="font-style:normal;font-variant:normal;font-weight:normal;font-stretch:normal;font-size:4.94612217px;font-family:Insaniburger;-inkscape-font-specification:Insaniburger;opacity:1;vector-effect:none;fill:#000000;fill-opacity:1;stroke:none;stroke-width:0.05796236;stroke-linecap:butt;stroke-linejoin:miter;stroke-miterlimit:4;stroke-dasharray:none;stroke-dashoffset:0;stroke-opacity:1"
         d="m 7.0232101,26.208505 c 0.32077,0.498787 1.3930693,1.446705 0.4421253,1.80678 -0.5208676,-0.288376 -0.8244147,-0.969289 -1.243204,-1.439028 0.312192,0.858954 -0.564314,2.211198 -0.8667407,0.874721 0.017222,-0.923341 -0.035022,-1.853512 0.027086,-2.77244 0.9119134,-1.176699 0.7778699,1.154662 0.9519192,1.019847 0.4435467,-0.397757 0.7863313,-1.550852 1.4176646,-1.142098 0.4043696,0.627807 -0.4902257,1.153594 -0.7288501,1.652218 z m 1.9195243,1.343094 C 8.4167543,28.803333 7.8384312,27.244522 8.0759936,26.444777 8.1674795,25.793242 7.8544472,24.89054 8.3197644,24.446694 c 0.9243366,-0.21333 0.5460914,1.182805 0.62297,1.843389 0,0.420505 0,0.84101 0,1.261516 z m 1.8407296,-2.286458 c -0.05701,0.872755 0.123215,1.820584 -0.108342,2.639552 C 9.7141279,28.447528 9.9266444,26.931544 9.9167234,26.248866 10.11944,25.277297 9.6902693,25.309397 9.1506643,25.026803 c -0.091117,-0.986296 0.9898377,-0.488485 1.4853067,-0.609089 0.749899,-0.415828 1.400813,0.939212 0.341691,0.847427 -0.06473,0 -0.129466,0 -0.194198,0 z m 3.243711,2.760803 c -0.897497,0.52993 -1.805392,-1.558493 -0.53624,-1.015314 1.397307,0.440818 0.377595,-0.716038 -0.322839,-0.898726 -1.173736,-1.660868 2.155254,-2.616389 1.647026,-0.821446 -0.624542,-0.249817 -1.676303,0.04711 -0.496844,0.54763 1.122854,0.240524 0.785984,2.298941 -0.291103,2.187856 z m 3.887202,-0.655557 c -1.254254,2.267628 -4.115062,-1.22594 -2.072326,-2.766966 0.598282,-1.027953 2.999411,0.338957 1.573293,0.850926 -1.497949,-1.266161 -1.94107,2.366613 -0.236384,1.537629 0.300062,-0.216886 0.736246,-0.133571 0.735417,0.378411 z m 1.702838,0.644898 c 1.089784,-0.787744 -0.638092,-0.675927 -0.617224,-1.149289 0.09475,-0.286101 1.544869,-0.445578 0.529675,-1.08387 -0.672395,0.337877 -0.734829,-0.830943 -0.03382,-0.516985 1.039891,-0.235357 0.0066,-1.198611 -0.622413,-0.847427 -0.859466,-0.253587 -0.768623,0.875944 -0.740183,1.570508 0.09149,0.651535 -0.221546,1.554236 0.243771,1.998083 0.410116,0.05966 0.827528,0.01535 1.240194,0.02898 z m 2.341952,-1.993321 c -0.109852,-0.708062 0.03229,-2.228727 0.839655,-1.343426 0.04366,1.019343 0.0459,2.056606 0,3.075923 -0.627519,0.780676 -1.124027,-0.53403 -1.531768,-1.019858 -0.487323,-0.828463 -0.02457,0.879555 -0.3355,1.16476 -0.960994,0.542834 -0.748478,-0.973149 -0.758399,-1.655827 0.05873,-0.663143 -0.280009,-2.092676 0.671943,-1.772525 0.415518,0.461515 0.7387,1.040324 1.114069,1.550953 z m 2.613355,0.506325 c -0.07464,-1.412416 -0.720455,0.360706 0,0 z m -0.634735,0.852758 c -0.566394,1.512044 -1.252612,-0.248485 -0.562096,-1.020922 0.33324,-0.643461 0.384985,-1.648478 1.00641,-1.942411 0.627098,0.319018 0.692768,1.341871 1.034196,2.008483 0.693161,0.768046 -0.06497,2.446845 -0.585505,0.95485 -0.297668,0 -0.595337,0 -0.893005,0 z m 3.823728,-0.895396 c 0.751418,0.47974 0.431736,2.205764 -0.344212,1.150033 -0.268376,-0.370144 -0.749479,-1.518255 -0.605701,-0.38109 0.0372,1.398228 -1.250699,0.513412 -0.866741,-0.507957 0.05437,-0.73114 -0.119467,-1.535413 0.108343,-2.213001 0.635438,-0.140008 1.57962,-0.367835 2.015008,0.397564 0.261818,0.497909 0.139851,1.275001 -0.306697,1.554451 z m -0.949913,-1.343093 c -0.411356,1.012917 0.869051,1.096255 0.525298,0.102597 -0.147081,-0.150599 -0.350646,-0.08937 -0.525298,-0.102597 z m 2.532372,2.409041 c -0.52598,1.251734 -1.104303,-0.307077 -0.866741,-1.106822 0.09149,-0.651535 -0.221546,-1.554237 0.243771,-1.998083 0.924336,-0.21333 0.546091,1.182805 0.62297,1.843389 0,0.420505 0,0.84101 0,1.261516 z m 1.398603,0.474345 c -0.897498,0.52993 -1.805393,-1.558493 -0.536241,-1.015314 1.397307,0.440818 0.377595,-0.716038 -0.322839,-0.898726 -1.173736,-1.660868 2.155254,-2.616389 1.647026,-0.821446 -0.624542,-0.249817 -1.676303,0.04711 -0.496844,0.54763 1.122854,0.240524 0.785984,2.298941 -0.291102,2.187856 z m 2.797208,-2.760803 c -0.05701,0.872755 0.123215,1.820584 -0.108342,2.639552 -0.960994,0.542835 -0.748477,-0.973149 -0.758398,-1.655827 0.202717,-0.971569 -0.226454,-0.939469 -0.766059,-1.222063 -0.09112,-0.986296 0.989838,-0.488485 1.485306,-0.609089 0.7499,-0.415828 1.400813,0.939212 0.341691,0.847427 -0.06473,0 -0.129464,0 -0.194198,0 z"
         id="text49550"
         inkscape:connector-curvature="0" />
      <g
         transform="matrix(0.18305115,0,0,0.1651771,-46.105739,-23.454333)"
         id="g2455">
        <path
           style="fill:#000000;fill-opacity:1;stroke-width:0.61634219"
           d="m 338.30358,275.11866 c -9.70179,-7.31832 -9.75134,-22.92001 -1.45706,-31.38693 9.38081,-12.14271 18.15386,-24.86583 28.61378,-36.10513 9.274,-4.22849 15.14571,8.10718 19.30075,14.58025 4.07931,7.21295 3.99328,16.413 -1.97686,22.60527 -6.9397,9.34536 -13.5691,19.00508 -21.36987,27.65495 -9.88851,-1.89149 3.33849,-13.70543 6.51238,-18.82697 4.45043,-7.31817 12.63356,-13.49328 13.49532,-22.28567 -2.182,-5.73961 -9.44516,-23.21491 -16.02282,-13.40536 -9.52992,11.89433 -19.02244,23.87031 -27.6144,36.46094 -4.02796,6.95503 4.53215,20.63551 9.49994,9.03891 7.2613,-9.30698 14.79475,-18.481 21.11672,-28.45846 -3.32669,-3.50864 -8.87038,9.19134 -12.461,12.21044 -2.68427,4.4941 -13.28949,17.80635 -12.58614,5.62769 6.56381,-9.22161 13.43554,-18.30469 21.1156,-26.62439 10.19457,-4.41092 12.62387,11.51935 6.66621,16.99307 -8.0252,11.12705 -16.01896,22.45357 -25.56169,32.32769 -2.25464,1.5425 -5.16742,1.14656 -7.27086,-0.4063 z"
           id="path53927"
           inkscape:connector-curvature="0" />
      </g>
    </g>
  </g>
</svg>
