<?xml version="1.0" encoding="UTF-8" standalone="no"?>
<!-- Created with Inkscape (http://www.inkscape.org/) -->

<svg
   xmlns:dc="http://purl.org/dc/elements/1.1/"
   xmlns:cc="http://creativecommons.org/ns#"
   xmlns:rdf="http://www.w3.org/1999/02/22-rdf-syntax-ns#"
   xmlns:svg="http://www.w3.org/2000/svg"
   xmlns="http://www.w3.org/2000/svg"
   xmlns:sodipodi="http://sodipodi.sourceforge.net/DTD/sodipodi-0.dtd"
   xmlns:inkscape="http://www.inkscape.org/namespaces/inkscape"
   width="150"
   height="150"
   viewBox="0 0 39.6875 39.6875"
   version="1.1"
   id="svg922"
   inkscape:version="0.92.4 (5da689c313, 2019-01-14)"
   sodipodi:docname="USO_games_globulation.svg">
  <title
     id="title1437">USOICON</title>
  <defs
     id="defs916">
    <clipPath
       id="clipPath1521"
       clipPathUnits="userSpaceOnUse">
      <rect
         y="66.644836"
         x="57.114269"
         height="151.42299"
         width="172.87534"
         id="rect1523"
         style="opacity:0.875;fill:#000000;fill-opacity:1;stroke:#000000;stroke-width:0.60403091;stroke-linejoin:round;stroke-miterlimit:4;stroke-dasharray:none;stroke-opacity:1" />
    </clipPath>
  </defs>
  <sodipodi:namedview
     id="base"
     pagecolor="#ffffff"
     bordercolor="#666666"
     borderopacity="1.0"
     inkscape:pageopacity="0.0"
     inkscape:pageshadow="2"
     inkscape:zoom="1.8809321"
     inkscape:cx="63.225553"
     inkscape:cy="54.481426"
     inkscape:document-units="px"
     inkscape:current-layer="layer7"
     showgrid="false"
     inkscape:window-width="982"
     inkscape:window-height="587"
     inkscape:window-x="2784"
     inkscape:window-y="99"
     inkscape:window-maximized="0"
     units="px" />
  <metadata
     id="metadata919">
    <rdf:RDF>
      <cc:Work
         rdf:about="">
        <dc:format>image/svg+xml</dc:format>
        <dc:type
           rdf:resource="http://purl.org/dc/dcmitype/StillImage" />
        <dc:title>USOICON</dc:title>
        <cc:license
           rdf:resource="http://creativecommons.org/licenses/by-sa/4.0/" />
      </cc:Work>
      <cc:License
         rdf:about="http://creativecommons.org/licenses/by-sa/4.0/">
        <cc:permits
           rdf:resource="http://creativecommons.org/ns#Reproduction" />
        <cc:permits
           rdf:resource="http://creativecommons.org/ns#Distribution" />
        <cc:requires
           rdf:resource="http://creativecommons.org/ns#Notice" />
        <cc:requires
           rdf:resource="http://creativecommons.org/ns#Attribution" />
        <cc:permits
           rdf:resource="http://creativecommons.org/ns#DerivativeWorks" />
        <cc:requires
           rdf:resource="http://creativecommons.org/ns#ShareAlike" />
      </cc:License>
    </rdf:RDF>
  </metadata>
  <g
     style="display:inline"
     transform="translate(-35.46637,-112.59198)"
     id="layer1"
     inkscape:groupmode="layer"
     inkscape:label="toonbox" />
  <g
     inkscape:label="text"
     id="layer3"
     inkscape:groupmode="layer" />
  <g
     style="display:inline"
     inkscape:label="icon_games"
     id="layer7"
     inkscape:groupmode="layer">
    <g
       id="g6572">
      <path
         style="display:inline;opacity:0.875;fill:#999999;fill-opacity:1;stroke:none;stroke-width:0.11845408;stroke-linejoin:round;stroke-miterlimit:4;stroke-dasharray:none;stroke-opacity:0.97175137"
         d="M 1.435191,10.12791 C 2.670256,9.29705 4.324329,9.43582 5.75553,9.20511 14.11545,8.61268 22.517162,8.68995 30.881762,9.1576 c 2.392119,0.20608 4.838324,0.26932 7.150425,0.97031 0.872353,1.67498 0.817461,3.66984 1.026746,5.51683 0.208491,4.02511 0.362445,8.13136 -0.532305,12.08777 -0.230317,1.64927 -2.017724,2.0517 -3.40708,2.25864 C 28.802681,30.85612 22.40423,30.81147 16.04062,30.81293 11.303807,30.71862 6.537542,30.74635 1.839737,30.07418 0.173005,29.52829 0.822947,27.03924 0.434179,25.65651 0.154966,21.09087 0.021365,16.47217 0.692557,11.93449 0.848231,11.32021 0.903907,10.54918 1.435191,10.12791 Z"
         id="rect49496"
         inkscape:connector-curvature="0" />
      <path
         style="display:inline;fill:#000000;stroke-width:0.37203047"
         d="M 1.803349,30.70864 C 0.056742,30.0892 0.231437,27.93756 0.087588,26.427 -0.022935,21.93179 -0.070132,17.42779 0.099217,12.93387 -0.027874,11.27811 1.27784,10.0868 2.683582,9.49431 4.615709,8.56731 6.836395,8.9315 8.909365,8.7639 16.59615,8.63948 24.285544,8.62691 31.972812,8.67993 c 2.150882,0.14121 4.537543,-0.0199 6.403551,1.23592 1.58486,1.37874 1.255708,3.71898 1.302004,5.60595 -0.178243,4.07095 0.01584,8.16305 -0.388876,12.21995 -0.293352,1.71142 -2.120394,2.65314 -3.654582,3.02944 -6.368162,0.39372 -12.757085,0.28816 -19.135233,0.3134 C 11.668868,31.0283 6.826658,31.10952 2.006621,30.75364 L 1.803349,30.7086 Z m 34.717949,-1.05781 c 1.660436,-0.66982 2.120657,-2.56797 2.182495,-4.18169 C 38.903556,21.6571 38.926032,17.82461 38.6784,14.01451 38.609934,12.47205 38.055319,10.73538 36.494762,10.11382 34.51138,9.13075 32.202264,9.50823 30.063573,9.36171 22.019563,9.34057 13.971808,9.23982 5.930238,9.4697 4.247551,9.52117 2.061367,9.74531 1.291134,11.49417 c -0.682107,2.6627 -0.37748,5.45735 -0.46467,8.18069 0.080658,2.82901 -0.202804,5.71611 0.421771,8.49628 0.655233,1.84726 2.893842,2.0042 4.558802,2.11114 8.176545,0.4213 16.369453,0.15886 24.551012,0.03302 2.04628,-0.14679 4.225389,0.10711 6.163249,-0.66447 z M 4.297406,28.9474 c -0.939032,0.02717 -2.493051,-2.1182 -0.727168,-0.88447 1.706475,0.99084 3.797167,0.59334 5.679761,0.73138 0.843628,0.09701 3.276883,-0.14441 3.328971,0.24148 -2.712643,0.43249 -5.596207,0.56419 -8.281564,-0.08839 z m 31.24001,-17.1062 c -1.499147,-0.78086 -3.308903,-0.4003 -4.94344,-0.53994 -1.173066,-0.10336 -4.022293,-0.01807 -4.347208,-0.50636 2.904245,-0.07023 5.874879,-0.31161 8.734279,0.31742 0.913242,-0.14345 1.834744,2.01352 0.556369,0.72888 z"
         id="path49494"
         inkscape:connector-curvature="0" />
      <path
         style="font-style:normal;font-variant:normal;font-weight:normal;font-stretch:normal;font-size:4.31089687px;font-family:Insaniburger;-inkscape-font-specification:Insaniburger;opacity:1;vector-effect:none;fill:#000000;fill-opacity:1;stroke:none;stroke-width:0.05051832;stroke-linecap:butt;stroke-linejoin:miter;stroke-miterlimit:4;stroke-dasharray:none;stroke-dashoffset:0;stroke-opacity:1"
         d="m 9.37536,26.219845 c -0.9412466,-0.251823 -1.1555,0.598242 -0.4965611,0.906367 -1.3381906,0.799521 -1.202345,-2.169549 0.1747702,-1.252271 1.5725909,0.03979 -0.6701014,-1.64569 -1.3258603,-0.6381 -1.9614103,1.308197 0.925987,4.176988 1.9612952,2.176177 -0.072838,-0.371449 0.2075132,-1.127951 -0.313644,-1.192173 z m 1.953149,1.801312 c -0.528569,-0.05512 -1.5925511,0.272752 -1.4378765,-0.661276 0.058629,-0.719679 -0.122895,-1.505964 0.1008142,-2.181011 0.9590363,-0.439119 0.6671393,0.926453 0.7057003,1.509107 -0.433243,1.115916 1.18998,0.16394 0.820771,1.246704 l -0.07892,0.06486 z m 3.338073,-1.496741 c 0.02805,2.628714 -4.085865,1.363277 -2.68329,-0.875774 0.729881,-1.204716 2.789276,-0.645479 2.68329,0.875774 z m -0.965373,-0.546051 c -1.748399,-1.139798 -1.070385,2.627026 0.136964,0.844093 0.08627,-0.279931 0.05846,-0.620335 -0.136964,-0.844093 z m 3.285119,1.172593 c 0.0083,1.087476 -1.528607,1.042597 -2.121428,0.657272 -0.03974,-0.832072 -0.04405,-1.679038 0,-2.511067 0.560803,-0.390673 2.184156,-0.424943 1.998974,0.700509 -0.558417,0.61875 0.09751,0.405813 0.122454,1.153286 z m -0.806515,-0.04786 c -0.394065,-1.10521 -0.962089,0.768134 -0.0723,0.238217 l 0.05423,-0.09926 z m -0.05703,-1.144312 c -0.630745,-1.10801 -0.609743,1.112813 0,0 z m 3.203654,1.266139 c -0.09948,1.239709 -2.431331,1.053394 -2.166998,-0.282739 0.09514,-0.595388 -0.221608,-1.410651 0.226832,-1.834292 0.909521,-0.149527 0.48193,1.097859 0.579683,1.674329 0.119253,1.202371 0.825483,-0.03213 0.553968,-0.720188 -0.375927,-0.959734 1.01375,-1.377507 0.806515,-0.222277 0,0.461722 0,0.923445 0,1.385167 z m 1.64154,0.796232 c -0.528569,-0.05512 -1.592551,0.272752 -1.437876,-0.661276 0.05863,-0.719679 -0.122895,-1.505964 0.100814,-2.181011 0.959037,-0.439119 0.66714,0.926453 0.705701,1.509107 -0.433244,1.115916 1.189979,0.16394 0.82077,1.246704 l -0.07892,0.06486 z m 1.877794,-1.213928 c -0.125851,-1.160115 -0.639973,0.276678 0,0 z m -0.590629,0.69616 c -0.637825,1.29781 -1.086718,-0.392192 -0.444009,-1.018258 0.218369,-0.598673 0.762629,-2.089133 1.315986,-0.933717 0.264898,0.682313 0.631308,1.327701 0.822517,2.036819 -0.467325,1.14573 -0.825062,-0.566912 -1.694494,-0.08484 z m 2.881862,-1.727345 c -0.05391,0.712171 0.115863,1.486692 -0.100815,2.15483 -0.959035,0.439119 -0.667138,-0.926453 -0.705699,-1.509107 0.451237,-0.957671 -1.248651,-0.430484 -0.549896,-1.315912 0.662879,0.0024 1.376871,-0.11492 2.012212,0.06486 0.330189,0.582802 -0.272011,0.653948 -0.655802,0.605332 z m 1.716897,1.866577 c -0.567966,1.065119 -1.012246,-0.378186 -0.806515,-1.036712 0.02205,-0.568017 -0.225678,-1.866813 0.705701,-1.427039 0.21863,0.757293 0.04544,1.659317 0.100814,2.463751 z m 3.085528,-1.118205 c 0.02805,2.628714 -4.085864,1.363277 -2.683289,-0.875774 0.729881,-1.204716 2.789275,-0.645479 2.683289,0.875774 z M 28.97406,25.978365 c -1.748398,-1.139798 -1.070383,2.627026 0.136965,0.844093 0.08627,-0.279931 0.05846,-0.620335 -0.136965,-0.844093 z m 2.800396,0.415521 c -0.29059,-0.713816 0.462088,-2.005275 0.806513,-0.836867 -0.06006,0.782203 0.124875,1.632047 -0.100814,2.369504 -0.733306,0.333148 -1.044978,-0.732119 -1.508606,-1.152694 0.08214,0.285133 -0.258294,2.051412 -0.859001,0.868792 0.06075,-0.81309 -0.125825,-1.694472 0.100814,-2.462663 0.710493,-0.392511 1.109132,0.819965 1.561094,1.213928 z"
         id="text49550"
         inkscape:connector-curvature="0" />
      <g
         id="g53695"
         transform="matrix(0.23216083,0,0,0.26739887,-40.66702,-79.695953)">
        <path
           style="fill:#000000;fill-opacity:1;stroke-width:0.56041962"
           d="m 225.79653,381.36576 c -5.04874,-5.70045 -3.09798,-14.35633 -2.45039,-21.29598 2.14357,-8.89697 7.83465,-18.94365 17.6609,-20.54413 7.25222,-1.3964 13.14991,3.76259 20.06409,4.17152 6.86243,-0.25136 12.65893,-5.79643 19.79539,-4.07863 10.07438,0.99305 15.61039,11.35051 17.88548,20.14 0.72391,7.0246 2.71218,15.81255 -2.37779,21.60722 -6.22795,4.55619 -12.2931,-2.23293 -16.91721,-5.91504 -5.78798,-5.77763 -14.55245,-3.45633 -21.84303,-3.96964 -6.37158,-0.56289 -12.86431,0.86093 -17.22384,5.87987 -3.90129,3.36771 -9.44686,8.07986 -14.5936,4.00481 z"
           id="path53677"
           inkscape:connector-curvature="0" />
        <path
           style="fill:#ffffff;fill-opacity:1;stroke-width:0.56041962"
           d="m 277.9872,362.41501 c 5.58994,-5.40079 -8.06317,-7.57497 -4.77264,-0.67341 1.23932,1.3571 3.24548,2.00683 4.77264,0.67341 z"
           id="path53675"
           inkscape:connector-curvature="0" />
        <path
           style="fill:#ffffff;fill-opacity:1;stroke-width:0.56041962"
           d="m 247.09052,359.86347 c 0.27723,-3.25746 8.70112,-2.32963 4.12382,-6.78295 -5.26871,1.19244 -3.64993,-8.73224 -9.37797,-3.68051 1.20337,5.19333 -8.41269,2.02905 -5.05105,7.57352 3.38408,0.29645 5.45041,0.84964 5.40535,4.6496 1.57622,0.88603 5.19447,0.91959 4.89985,-1.75966 z"
           id="path53673"
           inkscape:connector-curvature="0" />
        <path
           style="fill:#fffffc;fill-opacity:1;stroke-width:0.56041962"
           d="m 288.72216,357.58638 c 4.50178,-7.79772 -11.51832,-3.99212 -3.56811,0.81562 1.22542,0.443 2.60725,-0.0116 3.56811,-0.81562 z"
           id="path53671"
           inkscape:connector-curvature="0" />
        <path
           style="fill:#f8ffff;fill-opacity:1;stroke-width:0.56041962"
           d="m 278.37813,352.42476 c 4.38079,-8.166 -11.41132,-4.0188 -3.58973,0.81533 1.23238,0.44154 2.62307,-0.004 3.58973,-0.81533 z"
           id="path53664"
           inkscape:connector-curvature="0" />
      </g>
    </g>
  </g>
</svg>
