<?xml version="1.0" encoding="UTF-8" standalone="no"?>
<!-- Created with Inkscape (http://www.inkscape.org/) -->

<svg
   xmlns:dc="http://purl.org/dc/elements/1.1/"
   xmlns:cc="http://creativecommons.org/ns#"
   xmlns:rdf="http://www.w3.org/1999/02/22-rdf-syntax-ns#"
   xmlns:svg="http://www.w3.org/2000/svg"
   xmlns="http://www.w3.org/2000/svg"
   xmlns:sodipodi="http://sodipodi.sourceforge.net/DTD/sodipodi-0.dtd"
   xmlns:inkscape="http://www.inkscape.org/namespaces/inkscape"
   width="150"
   height="150"
   viewBox="0 0 39.6875 39.6875"
   version="1.1"
   id="svg922"
   inkscape:version="0.92.4 (5da689c313, 2019-01-14)"
   sodipodi:docname="USO_games_extremetuxracer.svg">
  <title
     id="title1437">USOICON</title>
  <defs
     id="defs916">
    <clipPath
       id="clipPath1521"
       clipPathUnits="userSpaceOnUse">
      <rect
         y="66.644836"
         x="57.114269"
         height="151.42299"
         width="172.87534"
         id="rect1523"
         style="opacity:0.875;fill:#000000;fill-opacity:1;stroke:#000000;stroke-width:0.60403091;stroke-linejoin:round;stroke-miterlimit:4;stroke-dasharray:none;stroke-opacity:1" />
    </clipPath>
  </defs>
  <sodipodi:namedview
     id="base"
     pagecolor="#ffffff"
     bordercolor="#666666"
     borderopacity="1.0"
     inkscape:pageopacity="0.0"
     inkscape:pageshadow="2"
     inkscape:zoom="1.4760735"
     inkscape:cx="83.230267"
     inkscape:cy="107.29934"
     inkscape:document-units="px"
     inkscape:current-layer="layer7"
     showgrid="false"
     inkscape:window-width="939"
     inkscape:window-height="661"
     inkscape:window-x="2631"
     inkscape:window-y="201"
     inkscape:window-maximized="0"
     units="px" />
  <metadata
     id="metadata919">
    <rdf:RDF>
      <cc:Work
         rdf:about="">
        <dc:format>image/svg+xml</dc:format>
        <dc:type
           rdf:resource="http://purl.org/dc/dcmitype/StillImage" />
        <dc:title>USOICON</dc:title>
        <cc:license
           rdf:resource="http://creativecommons.org/licenses/by-sa/4.0/" />
      </cc:Work>
      <cc:License
         rdf:about="http://creativecommons.org/licenses/by-sa/4.0/">
        <cc:permits
           rdf:resource="http://creativecommons.org/ns#Reproduction" />
        <cc:permits
           rdf:resource="http://creativecommons.org/ns#Distribution" />
        <cc:requires
           rdf:resource="http://creativecommons.org/ns#Notice" />
        <cc:requires
           rdf:resource="http://creativecommons.org/ns#Attribution" />
        <cc:permits
           rdf:resource="http://creativecommons.org/ns#DerivativeWorks" />
        <cc:requires
           rdf:resource="http://creativecommons.org/ns#ShareAlike" />
      </cc:License>
    </rdf:RDF>
  </metadata>
  <g
     style="display:inline"
     transform="translate(-35.46637,-112.59198)"
     id="layer1"
     inkscape:groupmode="layer"
     inkscape:label="toonbox" />
  <g
     inkscape:label="text"
     id="layer3"
     inkscape:groupmode="layer" />
  <g
     style="display:inline"
     inkscape:label="icon_games"
     id="layer7"
     inkscape:groupmode="layer">
    <g
       id="g12140">
      <path
         style="display:inline;opacity:0.875;fill:#999999;fill-opacity:1;stroke:none;stroke-width:0.11845408;stroke-linejoin:round;stroke-miterlimit:4;stroke-dasharray:none;stroke-opacity:0.97175137"
         d="M 1.435191,10.12791 C 2.670256,9.29705 4.324329,9.43582 5.75553,9.20511 14.11545,8.61268 22.517162,8.68995 30.881762,9.1576 c 2.392119,0.20608 4.838324,0.26932 7.150425,0.97031 0.872353,1.67498 0.817461,3.66984 1.026746,5.51683 0.208491,4.02511 0.362445,8.13136 -0.532305,12.08777 -0.230317,1.64927 -2.017724,2.0517 -3.40708,2.25864 C 28.802681,30.85612 22.40423,30.81147 16.04062,30.81293 11.303807,30.71862 6.537542,30.74635 1.839737,30.07418 0.173005,29.52829 0.822947,27.03924 0.434179,25.65651 0.154966,21.09087 0.021365,16.47217 0.692557,11.93449 0.848231,11.32021 0.903907,10.54918 1.435191,10.12791 Z"
         id="rect49496"
         inkscape:connector-curvature="0" />
      <path
         style="display:inline;fill:#000000;stroke-width:0.37203047"
         d="M 1.803349,30.70864 C 0.056742,30.0892 0.231437,27.93756 0.087588,26.427 -0.022935,21.93179 -0.070132,17.42779 0.099217,12.93387 -0.027874,11.27811 1.27784,10.0868 2.683582,9.49431 4.615709,8.56731 6.836395,8.9315 8.909365,8.7639 16.59615,8.63948 24.285544,8.62691 31.972812,8.67993 c 2.150882,0.14121 4.537543,-0.0199 6.403551,1.23592 1.58486,1.37874 1.255708,3.71898 1.302004,5.60595 -0.178243,4.07095 0.01584,8.16305 -0.388876,12.21995 -0.293352,1.71142 -2.120394,2.65314 -3.654582,3.02944 -6.368162,0.39372 -12.757085,0.28816 -19.135233,0.3134 C 11.668868,31.0283 6.826658,31.10952 2.006621,30.75364 L 1.803349,30.7086 Z m 34.717949,-1.05781 c 1.660436,-0.66982 2.120657,-2.56797 2.182495,-4.18169 C 38.903556,21.6571 38.926032,17.82461 38.6784,14.01451 38.609934,12.47205 38.055319,10.73538 36.494762,10.11382 34.51138,9.13075 32.202264,9.50823 30.063573,9.36171 22.019563,9.34057 13.971808,9.23982 5.930238,9.4697 4.247551,9.52117 2.061367,9.74531 1.291134,11.49417 c -0.682107,2.6627 -0.37748,5.45735 -0.46467,8.18069 0.080658,2.82901 -0.202804,5.71611 0.421771,8.49628 0.655233,1.84726 2.893842,2.0042 4.558802,2.11114 8.176545,0.4213 16.369453,0.15886 24.551012,0.03302 2.04628,-0.14679 4.225389,0.10711 6.163249,-0.66447 z M 4.297406,28.9474 c -0.939032,0.02717 -2.493051,-2.1182 -0.727168,-0.88447 1.706475,0.99084 3.797167,0.59334 5.679761,0.73138 0.843628,0.09701 3.276883,-0.14441 3.328971,0.24148 -2.712643,0.43249 -5.596207,0.56419 -8.281564,-0.08839 z m 31.24001,-17.1062 c -1.499147,-0.78086 -3.308903,-0.4003 -4.94344,-0.53994 -1.173066,-0.10336 -4.022293,-0.01807 -4.347208,-0.50636 2.904245,-0.07023 5.874879,-0.31161 8.734279,0.31742 0.913242,-0.14345 1.834744,2.01352 0.556369,0.72888 z"
         id="path49494"
         inkscape:connector-curvature="0" />
      <path
         style="font-style:normal;font-variant:normal;font-weight:normal;font-stretch:normal;font-size:3.97246337px;font-family:Insaniburger;-inkscape-font-specification:Insaniburger;opacity:1;vector-effect:none;fill:#000000;fill-opacity:1;stroke:none;stroke-width:0.0465523;stroke-linecap:butt;stroke-linejoin:miter;stroke-miterlimit:4;stroke-dasharray:none;stroke-dashoffset:0;stroke-opacity:1"
         d="m 4.8277847,27.737847 c 0.9336517,-0.743256 -0.7448863,-0.423439 -0.49762,-1.104437 0.8193813,0.325905 0.8658939,-0.996079 0.012241,-0.682278 -0.3152272,-0.776168 1.2873825,-0.126689 0.6042696,-1.070457 -0.476443,0.01553 -1.457572,-0.303173 -1.3152961,0.65051 0.050428,0.697508 -0.1059288,1.460118 0.087348,2.113915 0.3375554,0.181627 0.745844,0.05475 1.1090573,0.09275 z M 6.9012013,26.317856 C 7.366429,26.650708 8.0408571,28.013193 7.010607,27.622712 6.6676105,27.044009 6.3246139,26.653784 5.9816173,27.465955 5.1957246,28.300057 5.1571356,26.845779 5.8311314,26.495929 6.2224253,26.012979 4.7170365,25.427583 5.4678969,24.887738 6.0468972,24.584839 6.2996964,26.339953 6.714621,25.371621 7.1324515,24.35031 8.068774,25.283784 7.2170206,25.90326 7.1117475,26.041458 7.0064744,26.179658 6.9012013,26.317856 Z M 9.0822588,25.537502 C 9.0317227,26.234292 9.1883483,26.9963 8.9949106,27.649364 8.1302038,28.074446 8.433345,26.656463 8.3834733,26.068049 8.7188916,25.296533 7.1102666,25.537434 8.0305514,24.859487 c 0.5361239,0.04668 1.1094504,-0.09928 1.6199118,0.08475 0.285421,0.570512 -0.2348538,0.642531 -0.5682044,0.593263 z m 2.2534072,0.976509 c 0.801813,0.629232 0.0076,1.829761 -0.446266,0.647833 -0.591713,-1.202814 0.0015,0.585498 -0.668967,0.576003 -0.6404576,-0.182253 -0.2351853,-1.273375 -0.3493935,-1.874535 -0.2127143,-0.878061 0.3969805,-1.1553 1.0130645,-1.003825 0.776474,-0.146173 1.117261,1.220406 0.451562,1.654524 z m -0.765841,-1.074588 c -0.353677,1.273376 1.126939,0.212843 0.118206,0 h -0.08296 z m 2.539274,2.298424 c 0.933652,-0.743256 -0.744886,-0.423439 -0.49762,-1.104437 0.819381,0.325905 0.865894,-0.996079 0.01224,-0.682278 -0.315227,-0.776168 1.287383,-0.126689 0.604269,-1.070457 -0.476443,0.01553 -1.457572,-0.303173 -1.315295,0.65051 0.05043,0.697508 -0.10593,1.460118 0.08735,2.113915 0.337555,0.181627 0.745844,0.05475 1.109057,0.09275 z m 1.612853,-1.991399 c 0.214545,-0.632402 1.251968,-1.409989 1.164643,-0.215263 -0.05043,0.697508 0.105929,1.460118 -0.08735,2.113915 -0.90018,0.571443 -0.488967,-1.22434 -0.665224,-1.378858 -0.261182,1.084649 -0.792523,-0.118848 -0.877926,0.128425 0.256491,0.706043 -0.381644,2.052902 -0.698786,0.871955 0.05157,-0.765189 -0.107506,-1.595926 0.08735,-2.317586 0.513224,-0.373805 0.778063,0.462101 1.077294,0.797412 z m 2.537508,1.991399 c 0.933652,-0.743256 -0.744885,-0.423439 -0.497619,-1.104437 0.819381,0.325905 0.865893,-0.996079 0.01224,-0.682278 -0.315226,-0.776168 1.287383,-0.126689 0.60427,-1.070457 -0.476442,0.01553 -1.457572,-0.303173 -1.315296,0.65051 0.05043,0.697508 -0.105928,1.460118 0.08735,2.113915 0.337556,0.181627 0.745844,0.05475 1.109057,0.09275 z m 2.631034,-2.200345 c -0.05054,0.69679 0.10609,1.458798 -0.08735,2.111862 -0.864707,0.425082 -0.561565,-0.992901 -0.611437,-1.581315 0.335419,-0.771516 -1.273206,-0.530615 -0.352922,-1.208562 0.536124,0.04668 1.109451,-0.09928 1.619912,0.08475 0.285421,0.570512 -0.234854,0.642531 -0.568205,0.593263 z m 2.666325,1.41999 c -0.423304,1.609351 -2.320096,0.581235 -1.877545,-0.902129 -0.325184,-0.786767 0.600918,-1.838978 0.698786,-0.624415 -0.03499,0.54073 -0.07411,2.266823 0.479974,1.302644 0.114184,-0.601038 -0.291026,-1.691959 0.349393,-1.874105 0.640456,0.182253 0.235184,1.273375 0.349392,1.874536 0,0.07449 0,0.148979 0,0.223469 z m 1.801668,-0.639636 c 0.465227,0.332852 1.139655,1.695337 0.109406,1.304856 -0.342997,-0.578703 -0.685994,-0.968928 -1.028989,-0.156757 -0.785894,0.834102 -0.824482,-0.620176 -0.150487,-0.970026 0.391294,-0.48295 -1.114095,-1.068346 -0.363234,-1.608191 0.579,-0.302899 0.831799,1.452215 1.246724,0.483883 0.417831,-1.021311 1.354153,-0.08784 0.502399,0.531639 -0.105272,0.138198 -0.210546,0.276398 -0.315819,0.414596 z m 3.213354,0.196155 c 0.801813,0.629232 0.0076,1.829761 -0.446267,0.647833 -0.591712,-1.202814 0.0015,0.585498 -0.668967,0.576003 -0.640457,-0.182253 -0.235184,-1.273375 -0.349393,-1.874535 -0.212714,-0.878061 0.39698,-1.1553 1.013065,-1.003825 0.776473,-0.146173 1.11726,1.220406 0.451562,1.654524 z M 26.806,25.439423 c -0.353678,1.273376 1.126938,0.212843 0.118206,0 h -0.08296 z m 2.574565,1.108702 c -0.08859,-1.150583 -0.578956,0.259261 0,0 z m -0.511736,0.682278 c -0.593864,1.29167 -0.920206,-0.45587 -0.357642,-1.069533 0.147684,-0.673223 0.766748,-1.967057 1.153185,-0.738117 0.213823,0.634539 0.523733,1.229541 0.672613,1.890802 -0.396057,1.117479 -0.740352,-0.571117 -1.468156,-0.08315 z m 3.804499,-0.0085 c -1.175203,1.975133 -3.40706,-1.408194 -1.456244,-2.34373 0.689376,-0.781002 2.223109,0.955042 0.863336,0.740377 -1.454078,-0.600065 -0.897467,2.315458 0.321158,1.206779 0.160645,0.0081 0.273474,0.216044 0.27175,0.396574 z m 1.372866,0.515973 c 0.933651,-0.743256 -0.744887,-0.423439 -0.497621,-1.104437 0.819382,0.325905 0.865894,-0.996079 0.01224,-0.682278 -0.315228,-0.776168 1.287382,-0.126689 0.604269,-1.070457 -0.476443,0.01553 -1.457572,-0.303173 -1.315296,0.65051 0.05043,0.697508 -0.105929,1.460118 0.08735,2.113915 0.337555,0.181627 0.745844,0.05475 1.109058,0.09275 z m 1.912836,-1.223836 c 0.801814,0.629232 0.0076,1.829761 -0.446265,0.647833 -0.591713,-1.202814 0.0015,0.585498 -0.668968,0.576003 -0.640457,-0.182253 -0.235184,-1.273375 -0.349393,-1.874535 -0.212714,-0.878061 0.39698,-1.1553 1.013064,-1.003825 0.776474,-0.146173 1.117261,1.220406 0.451562,1.654524 z m -0.765841,-1.074588 c -0.353677,1.273376 1.126939,0.212843 0.118207,0 h -0.08296 z"
         id="text49550"
         inkscape:connector-curvature="0" />
      <g
         id="g53695"
         transform="matrix(0.23216083,0,0,0.26739887,-40.66702,-79.695953)">
        <path
           style="fill:#000000;fill-opacity:1;stroke-width:0.56041962"
           d="m 225.79653,381.36576 c -5.04874,-5.70045 -3.09798,-14.35633 -2.45039,-21.29598 2.14357,-8.89697 7.83465,-18.94365 17.6609,-20.54413 7.25222,-1.3964 13.14991,3.76259 20.06409,4.17152 6.86243,-0.25136 12.65893,-5.79643 19.79539,-4.07863 10.07438,0.99305 15.61039,11.35051 17.88548,20.14 0.72391,7.0246 2.71218,15.81255 -2.37779,21.60722 -6.22795,4.55619 -12.2931,-2.23293 -16.91721,-5.91504 -5.78798,-5.77763 -14.55245,-3.45633 -21.84303,-3.96964 -6.37158,-0.56289 -12.86431,0.86093 -17.22384,5.87987 -3.90129,3.36771 -9.44686,8.07986 -14.5936,4.00481 z"
           id="path53677"
           inkscape:connector-curvature="0" />
        <path
           style="fill:#ffffff;fill-opacity:1;stroke-width:0.56041962"
           d="m 277.9872,362.41501 c 5.58994,-5.40079 -8.06317,-7.57497 -4.77264,-0.67341 1.23932,1.3571 3.24548,2.00683 4.77264,0.67341 z"
           id="path53675"
           inkscape:connector-curvature="0" />
        <path
           style="fill:#ffffff;fill-opacity:1;stroke-width:0.56041962"
           d="m 247.09052,359.86347 c 0.27723,-3.25746 8.70112,-2.32963 4.12382,-6.78295 -5.26871,1.19244 -3.64993,-8.73224 -9.37797,-3.68051 1.20337,5.19333 -8.41269,2.02905 -5.05105,7.57352 3.38408,0.29645 5.45041,0.84964 5.40535,4.6496 1.57622,0.88603 5.19447,0.91959 4.89985,-1.75966 z"
           id="path53673"
           inkscape:connector-curvature="0" />
        <path
           style="fill:#fffffc;fill-opacity:1;stroke-width:0.56041962"
           d="m 288.72216,357.58638 c 4.50178,-7.79772 -11.51832,-3.99212 -3.56811,0.81562 1.22542,0.443 2.60725,-0.0116 3.56811,-0.81562 z"
           id="path53671"
           inkscape:connector-curvature="0" />
        <path
           style="fill:#f8ffff;fill-opacity:1;stroke-width:0.56041962"
           d="m 278.37813,352.42476 c 4.38079,-8.166 -11.41132,-4.0188 -3.58973,0.81533 1.23238,0.44154 2.62307,-0.004 3.58973,-0.81533 z"
           id="path53664"
           inkscape:connector-curvature="0" />
      </g>
    </g>
  </g>
</svg>
