<?xml version="1.0" encoding="UTF-8" standalone="no"?>
<!-- Created with Inkscape (http://www.inkscape.org/) -->

<svg
   xmlns:dc="http://purl.org/dc/elements/1.1/"
   xmlns:cc="http://creativecommons.org/ns#"
   xmlns:rdf="http://www.w3.org/1999/02/22-rdf-syntax-ns#"
   xmlns:svg="http://www.w3.org/2000/svg"
   xmlns="http://www.w3.org/2000/svg"
   xmlns:sodipodi="http://sodipodi.sourceforge.net/DTD/sodipodi-0.dtd"
   xmlns:inkscape="http://www.inkscape.org/namespaces/inkscape"
   version="1.1"
   id="svg4588"
   width="546.1333"
   height="546.1333"
   viewBox="0 0 546.1333 546.1333"
   sodipodi:docname="userspaceorg-tagline.svg"
   inkscape:version="0.92.4 (5da689c313, 2019-01-14)">
  <metadata
     id="metadata4594">
    <rdf:RDF>
      <cc:Work
         rdf:about="">
        <dc:format>image/svg+xml</dc:format>
        <dc:type
           rdf:resource="http://purl.org/dc/dcmitype/StillImage" />
        <dc:title></dc:title>
      </cc:Work>
    </rdf:RDF>
  </metadata>
  <defs
     id="defs4592" />
  <sodipodi:namedview
     pagecolor="#ffffff"
     bordercolor="#666666"
     borderopacity="1"
     objecttolerance="10"
     gridtolerance="10"
     guidetolerance="10"
     inkscape:pageopacity="0"
     inkscape:pageshadow="2"
     inkscape:window-width="1257"
     inkscape:window-height="878"
     id="namedview4590"
     showgrid="false"
     inkscape:zoom="3.1645463"
     inkscape:cx="101.00131"
     inkscape:cy="512.41391"
     inkscape:window-x="2472"
     inkscape:window-y="113"
     inkscape:window-maximized="0"
     inkscape:current-layer="svg4588" />
  <path
     style="fill:#000000;stroke-width:0.04556199"
     d="m 127.82548,50.197555 c -2.36831,-0.24993 -4.69458,-1.286 -6.3384,-3.01666 -1.43306,-1.50455 -2.38207,-3.47791 -2.68784,-5.5281 -0.10162,-1.7243 -0.11819,-3.51616 0.61416,-5.12223 0.87031,-2.28445 2.62089,-4.22701 4.8542,-5.24931 2.62494,-1.32718 5.84949,-1.38783 8.53456,-0.19381 0.98824,0.44006 1.94533,0.98655 2.72907,1.73934 -0.65484,0.29924 -1.83079,0.99043 -2.56639,0.35409 -2.18754,-1.276 -4.9624,-1.55945 -7.30848,-0.55313 -2.0986,0.8217 -3.81662,2.53411 -4.57688,4.65698 -1.00348,2.46055 -0.62909,5.39135 0.86879,7.57727 0.96833,1.40683 2.37472,2.48516 3.98472,3.06575 3.22519,1.24532 7.15324,0.10952 9.2637,-2.60612 1.15245,-1.47557 1.75964,-3.32889 1.76443,-5.19651 -0.13002,-1.04864 0.80732,-1.81573 1.34319,-2.62256 0.43226,0.62995 0.40288,1.72039 0.4304,2.5474 0.122,2.07809 -0.57871,4.12521 -1.707,5.85295 -1.96871,2.96861 -5.66835,4.61232 -9.20223,4.29465 z m -0.12877,-4.23293 c -1.39588,-0.1746 -2.72009,-0.98847 -3.33386,-2.27849 -0.27373,-0.60034 -1.39987,-2.32234 0.0244,-1.98772 1.39813,-0.43174 1.27191,1.19915 2.10673,1.83042 1.55654,1.51906 4.52693,0.84908 5.24656,-1.21566 0.52907,-1.31194 0.47231,-2.85421 -0.0372,-4.16204 -0.54473,-1.25566 -1.94588,-1.9905 -3.2933,-1.78716 -1.28107,0.11395 -2.34547,1.07352 -2.78241,2.25155 -0.3548,0.52471 -1.64184,0.47827 -1.98975,0.15096 0.31131,-1.87506 1.73378,-3.56937 3.6393,-3.9471 1.4668,-0.31977 3.0817,-0.25663 4.3956,0.53485 1.66321,0.36804 3.27515,-0.42519 4.86742,-0.78823 0.89627,-0.28014 1.99463,0.40854 1.20089,1.33667 -1.01142,1.49873 -2.43146,2.70815 -3.19607,4.37622 -0.56091,0.83121 -0.73971,1.80746 -1.05588,2.73622 -0.62226,1.72228 -2.34858,2.89745 -4.16909,2.95283 -0.54011,0.0276 -1.08409,0.0498 -1.62333,-0.003 z m 1.98448,-5.81988 c -1.05863,-0.16344 -1.1767,-1.82421 -0.15956,-2.1505 1.02785,-0.41353 1.85048,1.08887 1.09276,1.82023 -0.22695,0.2561 -0.5947,0.38987 -0.9332,0.33027 z"
     id="path4598"
     inkscape:connector-curvature="0" />
  <flowRoot
     xml:space="preserve"
     id="flowRoot878"
     style="font-variant-east_asian:normal;opacity:1;vector-effect:none;fill:#000000;fill-opacity:1;stroke:none;stroke-width:0.99999999;stroke-linecap:butt;stroke-linejoin:miter;stroke-miterlimit:4;stroke-dasharray:none;stroke-dashoffset:0;stroke-opacity:1;line-height:1.25;letter-spacing:0px;word-spacing:0px;-inkscape-font-specification:Insaniburger;font-family:Insaniburger;font-weight:normal;font-style:normal;font-stretch:normal;font-variant:normal"><flowRegion
       id="flowRegion880"><rect
         id="rect882"
         width="133.84445"
         height="35.304546"
         x="0.2234465"
         y="32.653248" /></flowRegion><flowPara
       id="flowPara884"></flowPara></flowRoot>  <text
     xml:space="preserve"
     style="font-style:normal;font-variant:normal;font-weight:normal;font-stretch:normal;font-size:24.41711807px;line-height:1.25;font-family:Insaniburger;-inkscape-font-specification:Insaniburger;letter-spacing:0px;word-spacing:0px;opacity:1;vector-effect:none;fill:#000000;fill-opacity:1;stroke:none;stroke-width:2.03475976;stroke-linecap:butt;stroke-linejoin:miter;stroke-miterlimit:4;stroke-dasharray:none;stroke-dashoffset:0;stroke-opacity:1"
     x="16.767511"
     y="51.648544"
     id="text888"
     transform="scale(1.0849704,0.92168412)"><tspan
       sodipodi:role="line"
       id="tspan886"
       x="16.767511"
       y="51.648544"
       style="stroke-width:2.03475976">USERSPA   E</tspan></text>
</svg>
