<?xml version="1.0" encoding="UTF-8" standalone="no"?>
<!-- Created with Inkscape (http://www.inkscape.org/) -->

<svg
   xmlns:dc="http://purl.org/dc/elements/1.1/"
   xmlns:cc="http://creativecommons.org/ns#"
   xmlns:rdf="http://www.w3.org/1999/02/22-rdf-syntax-ns#"
   xmlns:svg="http://www.w3.org/2000/svg"
   xmlns="http://www.w3.org/2000/svg"
   xmlns:sodipodi="http://sodipodi.sourceforge.net/DTD/sodipodi-0.dtd"
   xmlns:inkscape="http://www.inkscape.org/namespaces/inkscape"
   version="1.1"
   id="svg4588"
   width="546.1333"
   height="546.1333"
   viewBox="0 0 546.1333 546.1333"
   sodipodi:docname="userspaceorg-copyleft.svg"
   inkscape:version="0.92.4 (5da689c313, 2019-01-14)">
  <metadata
     id="metadata4594">
    <rdf:RDF>
      <cc:Work
         rdf:about="">
        <dc:format>image/svg+xml</dc:format>
        <dc:type
           rdf:resource="http://purl.org/dc/dcmitype/StillImage" />
        <dc:title></dc:title>
      </cc:Work>
    </rdf:RDF>
  </metadata>
  <defs
     id="defs4592" />
  <sodipodi:namedview
     pagecolor="#ffffff"
     bordercolor="#666666"
     borderopacity="1"
     objecttolerance="10"
     gridtolerance="10"
     guidetolerance="10"
     inkscape:pageopacity="0"
     inkscape:pageshadow="2"
     inkscape:window-width="1257"
     inkscape:window-height="878"
     id="namedview4590"
     showgrid="false"
     inkscape:zoom="3.4109717"
     inkscape:cx="14.93813"
     inkscape:cy="476.66247"
     inkscape:window-x="2120"
     inkscape:window-y="145"
     inkscape:window-maximized="0"
     inkscape:current-layer="svg4588" />
  <path
     style="fill:#000000;stroke-width:0.04556199"
     d="m 15.655343,29.640478 c -2.368311,-0.24993 -4.694585,-1.286 -6.3384028,-3.01666 -1.433065,-1.50455 -2.382072,-3.47791 -2.687844,-5.5281 -0.101621,-1.7243 -0.118186,-3.51616 0.614163,-5.12223 0.870311,-2.28445 2.620892,-4.22701 4.8542018,-5.24931 2.624933,-1.3271804 5.849489,-1.3878304 8.534555,-0.19381 0.988244,0.44006 1.945328,0.98655 2.729074,1.73934 -0.654838,0.29924 -1.830793,0.99043 -2.56639,0.35409 -2.187541,-1.276 -4.962399,-1.55945 -7.308479,-0.55313 -2.098601,0.8217 -3.8166188,2.53411 -4.5768858,4.65698 -1.003479,2.46055 -0.629085,5.39135 0.868789,7.57727 0.9683318,1.40683 2.3747228,2.48516 3.9847258,3.06575 3.225187,1.24532 7.153238,0.10952 9.2637,-2.60612 1.152453,-1.47557 1.759641,-3.32889 1.764427,-5.19651 -0.13002,-1.04864 0.807323,-1.81573 1.343194,-2.62256 0.432261,0.62995 0.402881,1.72039 0.430397,2.5474 0.122003,2.07809 -0.578711,4.12521 -1.707001,5.85295 -1.968709,2.96861 -5.668351,4.61232 -9.202224,4.29465 z m -0.128773,-4.23293 c -1.395882,-0.1746 -2.720091,-0.98847 -3.333866,-2.27849 -0.273728,-0.60034 -1.399868,-2.32234 0.02438,-1.98772 1.398134,-0.43174 1.271915,1.19915 2.106733,1.83042 1.556537,1.51906 4.526928,0.84908 5.246559,-1.21566 0.529076,-1.31194 0.472317,-2.85421 -0.03718,-4.16204 -0.544727,-1.25566 -1.94588,-1.9905 -3.293294,-1.78716 -1.281076,0.11395 -2.345477,1.07352 -2.78241,2.25155 -0.354803,0.52471 -1.641839,0.47827 -1.989756,0.15096 0.311313,-1.87506 1.73378,-3.56937 3.639304,-3.9471 1.466796,-0.31977 3.081697,-0.25663 4.3956,0.53485 1.66321,0.36804 3.275152,-0.42519 4.867416,-0.78823 0.896275,-0.28014 1.994634,0.40854 1.200891,1.33667 -1.011419,1.49873 -2.431456,2.70815 -3.196066,4.37622 -0.560911,0.83121 -0.739708,1.80746 -1.055878,2.73622 -0.62226,1.72228 -2.348587,2.89745 -4.169092,2.95283 -0.540117,0.0276 -1.084089,0.0498 -1.623335,-0.003 z m 1.984482,-5.81988 c -1.058629,-0.16344 -1.176702,-1.82421 -0.159564,-2.1505 1.027848,-0.41353 1.85048,1.08887 1.092762,1.82023 -0.226952,0.2561 -0.594701,0.38987 -0.933198,0.33027 z"
     id="path4598"
     inkscape:connector-curvature="0" />
</svg>
