<?xml version="1.0" encoding="UTF-8" standalone="no"?>
<!-- Created with Inkscape (http://www.inkscape.org/) -->

<svg
   xmlns:dc="http://purl.org/dc/elements/1.1/"
   xmlns:cc="http://creativecommons.org/ns#"
   xmlns:rdf="http://www.w3.org/1999/02/22-rdf-syntax-ns#"
   xmlns:svg="http://www.w3.org/2000/svg"
   xmlns="http://www.w3.org/2000/svg"
   xmlns:sodipodi="http://sodipodi.sourceforge.net/DTD/sodipodi-0.dtd"
   xmlns:inkscape="http://www.inkscape.org/namespaces/inkscape"
   width="150"
   height="150"
   viewBox="0 0 39.6875 39.6875"
   version="1.1"
   id="svg922"
   inkscape:version="0.92.4 (5da689c313, 2019-01-14)"
   sodipodi:docname="USO_ungoogledchromium_internet.svg">
  <title
     id="title1437">USOICON</title>
  <defs
     id="defs916">
    <clipPath
       id="clipPath1521"
       clipPathUnits="userSpaceOnUse">
      <rect
         y="66.644836"
         x="57.114269"
         height="151.42299"
         width="172.87534"
         id="rect1523"
         style="opacity:0.875;fill:#000000;fill-opacity:1;stroke:#000000;stroke-width:0.60403091;stroke-linejoin:round;stroke-miterlimit:4;stroke-dasharray:none;stroke-opacity:1" />
    </clipPath>
  </defs>
  <sodipodi:namedview
     id="base"
     pagecolor="#ffffff"
     bordercolor="#666666"
     borderopacity="1.0"
     inkscape:pageopacity="0.0"
     inkscape:pageshadow="2"
     inkscape:zoom="1.5382239"
     inkscape:cx="98.244952"
     inkscape:cy="26.037938"
     inkscape:document-units="px"
     inkscape:current-layer="layer9"
     showgrid="false"
     inkscape:window-width="959"
     inkscape:window-height="671"
     inkscape:window-x="2112"
     inkscape:window-y="197"
     inkscape:window-maximized="0"
     units="px" />
  <metadata
     id="metadata919">
    <rdf:RDF>
      <cc:Work
         rdf:about="">
        <dc:format>image/svg+xml</dc:format>
        <dc:type
           rdf:resource="http://purl.org/dc/dcmitype/StillImage" />
        <dc:title>USOICON</dc:title>
        <cc:license
           rdf:resource="http://creativecommons.org/licenses/by-sa/4.0/" />
      </cc:Work>
      <cc:License
         rdf:about="http://creativecommons.org/licenses/by-sa/4.0/">
        <cc:permits
           rdf:resource="http://creativecommons.org/ns#Reproduction" />
        <cc:permits
           rdf:resource="http://creativecommons.org/ns#Distribution" />
        <cc:requires
           rdf:resource="http://creativecommons.org/ns#Notice" />
        <cc:requires
           rdf:resource="http://creativecommons.org/ns#Attribution" />
        <cc:permits
           rdf:resource="http://creativecommons.org/ns#DerivativeWorks" />
        <cc:requires
           rdf:resource="http://creativecommons.org/ns#ShareAlike" />
      </cc:License>
    </rdf:RDF>
  </metadata>
  <g
     style="display:inline"
     transform="translate(-35.46637,-112.59198)"
     id="layer1"
     inkscape:groupmode="layer"
     inkscape:label="toonbox" />
  <g
     inkscape:label="text"
     id="layer3"
     inkscape:groupmode="layer" />
  <g
     style="display:inline"
     inkscape:label="icon_internet"
     id="layer9"
     inkscape:groupmode="layer">
    <g
       id="g1442">
      <path
         style="display:inline;opacity:0.875;fill:#999999;fill-opacity:1;stroke:none;stroke-width:0.11845408;stroke-linejoin:round;stroke-miterlimit:4;stroke-dasharray:none;stroke-opacity:0.97175137"
         d="M 1.435191,10.12791 C 2.670256,9.29705 4.324329,9.43582 5.75553,9.20511 14.11545,8.61268 22.517162,8.68995 30.881762,9.1576 c 2.392119,0.20608 4.838324,0.26932 7.150425,0.97031 0.872353,1.67498 0.817461,3.66984 1.026746,5.51683 0.208491,4.02511 0.362445,8.13136 -0.532305,12.08777 -0.230317,1.64927 -2.017724,2.0517 -3.40708,2.25864 C 28.802681,30.85612 22.40423,30.81147 16.04062,30.81293 11.303807,30.71862 6.537542,30.74635 1.839737,30.07418 0.173005,29.52829 0.822947,27.03924 0.434179,25.65651 0.154966,21.09087 0.021365,16.47217 0.692557,11.93449 0.848231,11.32021 0.903907,10.54918 1.435191,10.12791 Z"
         id="rect49496"
         inkscape:connector-curvature="0" />
      <path
         style="display:inline;fill:#000000;stroke-width:0.37203047"
         d="M 1.803349,30.70864 C 0.056742,30.0892 0.231437,27.93756 0.087588,26.427 -0.022935,21.93179 -0.070132,17.42779 0.099217,12.93387 -0.027874,11.27811 1.27784,10.0868 2.683582,9.49431 4.615709,8.56731 6.836395,8.9315 8.909365,8.7639 16.59615,8.63948 24.285544,8.62691 31.972812,8.67993 c 2.150882,0.14121 4.537543,-0.0199 6.403551,1.23592 1.58486,1.37874 1.255708,3.71898 1.302004,5.60595 -0.178243,4.07095 0.01584,8.16305 -0.388876,12.21995 -0.293352,1.71142 -2.120394,2.65314 -3.654582,3.02944 -6.368162,0.39372 -12.757085,0.28816 -19.135233,0.3134 C 11.668868,31.0283 6.826658,31.10952 2.006621,30.75364 L 1.803349,30.7086 Z m 34.717949,-1.05781 c 1.660436,-0.66982 2.120657,-2.56797 2.182495,-4.18169 C 38.903556,21.6571 38.926032,17.82461 38.6784,14.01451 38.609934,12.47205 38.055319,10.73538 36.494762,10.11382 34.51138,9.13075 32.202264,9.50823 30.063573,9.36171 22.019563,9.34057 13.971808,9.23982 5.930238,9.4697 4.247551,9.52117 2.061367,9.74531 1.291134,11.49417 c -0.682107,2.6627 -0.37748,5.45735 -0.46467,8.18069 0.080658,2.82901 -0.202804,5.71611 0.421771,8.49628 0.655233,1.84726 2.893842,2.0042 4.558802,2.11114 8.176545,0.4213 16.369453,0.15886 24.551012,0.03302 2.04628,-0.14679 4.225389,0.10711 6.163249,-0.66447 z M 4.297406,28.9474 c -0.939032,0.02717 -2.493051,-2.1182 -0.727168,-0.88447 1.706475,0.99084 3.797167,0.59334 5.679761,0.73138 0.843628,0.09701 3.276883,-0.14441 3.328971,0.24148 -2.712643,0.43249 -5.596207,0.56419 -8.281564,-0.08839 z m 31.24001,-17.1062 c -1.499147,-0.78086 -3.308903,-0.4003 -4.94344,-0.53994 -1.173066,-0.10336 -4.022293,-0.01807 -4.347208,-0.50636 2.904245,-0.07023 5.874879,-0.31161 8.734279,0.31742 0.913242,-0.14345 1.834744,2.01352 0.556369,0.72888 z"
         id="path49494"
         inkscape:connector-curvature="0" />
      <path
         style="font-style:normal;font-variant:normal;font-weight:normal;font-stretch:normal;font-size:3.52343369px;font-family:Insaniburger;-inkscape-font-specification:Insaniburger;opacity:1;vector-effect:none;fill:#000000;fill-opacity:1;stroke:none;stroke-width:0.04129023;stroke-linecap:butt;stroke-linejoin:miter;stroke-miterlimit:4;stroke-dasharray:none;stroke-dashoffset:0;stroke-opacity:1"
         d="m 5.1338203,27.318197 c -0.5486934,1.637254 -2.0483607,0.263887 -1.6328168,-1.124546 -0.2069968,-1.103888 0.9211727,-0.807222 0.6077025,0.175645 -0.2659272,0.96547 0.5777904,1.396997 0.4174118,0.223644 -0.2973985,-0.732567 0.5067735,-1.805402 0.6077025,-0.63257 0,0.45261 0,0.905218 0,1.357827 z M 6.539516,26.581413 C 6.2398298,25.84836 7.0526623,24.794346 7.1472184,25.96037 c -0.042418,0.653892 0.089856,1.365264 -0.075963,1.97985 -0.549165,0.442717 -0.9215629,-1.033185 -1.1762726,-0.978835 0.3273685,0.83213 -0.6697109,1.593091 -0.6077025,0.420438 0.082572,-0.626946 -0.1832901,-1.467647 0.1709164,-1.93982 0.5060015,-0.105904 0.7486944,0.787943 1.0813191,1.13941 z m 2.4476908,-0.1543 C 8.1254035,26.22225 8.3174584,26.959663 8.5678763,27.303731 7.1920189,27.347442 8.2189329,25.362465 9.1268549,26.097297 8.9489057,24.17435 6.2288323,26.246549 7.5861145,27.675016 c 0.852136,1.084849 2.2828764,-0.193733 1.4010923,-1.247903 z m 2.5597162,0.270026 c 0.02114,2.330565 -3.0786684,1.208654 -2.0218386,-0.776444 0.5499596,-1.068076 2.1016996,-0.572267 2.0218386,0.776444 z m -0.727401,-0.484117 c -1.3174054,-1.010523 -0.806527,2.329068 0.103202,0.748356 0.065,-0.248182 0.04405,-0.549977 -0.103202,-0.748356 z m 3.029305,0.484117 c 0.02113,2.330565 -3.078669,1.208654 -2.021838,-0.776444 0.549959,-1.068076 2.101698,-0.572267 2.021838,0.776444 z m -0.727402,-0.484117 c -1.317405,-1.010523 -0.806526,2.329068 0.103202,0.748356 0.06501,-0.248182 0.04405,-0.549977 -0.103202,-0.748356 z m 2.54437,0.214091 c -0.861803,-0.204863 -0.669748,0.53255 -0.41933,0.876618 -1.375857,0.04371 -0.348944,-1.941266 0.558978,-1.206434 -0.177949,-1.922947 -2.898022,0.149252 -1.54074,1.577719 0.852136,1.084849 2.282876,-0.193733 1.401092,-1.247903 z m 1.471684,1.597007 c -0.519484,0.05456 -1.302,0.105251 -1.083429,-0.84676 0.104008,-0.568931 -0.301999,-1.826174 0.436786,-1.73608 0.353728,0.475744 0.08861,1.319783 0.170916,1.950331 0.29997,-0.05858 1.067086,0.129853 0.475727,0.632509 z m 1.384211,0 c 0.851957,-0.52488 -1.279155,-0.806087 -0.06138,-0.999094 0.777838,-0.467168 -1.197852,-0.921458 0.06138,-0.991378 0.813633,-0.626669 -1.099205,-1.021096 -1.04046,-0.175509 0.04301,0.687838 -0.09071,1.433607 0.07596,2.082081 0.289515,0.165803 0.651378,0.04851 0.964497,0.0839 z m 1.31055,0 c -0.625766,0.185753 -1.112687,-0.194943 -0.920761,-1.051223 0.04793,-0.585413 -0.236341,-1.756269 0.547871,-1.552593 1.295734,-0.373258 1.63502,2.363153 0.37289,2.603816 z m 0.231726,-1.325053 c -0.325044,-1.54624 -0.733028,-0.27677 -0.544785,0.574867 -0.05813,0.657624 0.761366,-0.215203 0.544785,-0.574867 z m 3.356174,0.858295 c -1.022022,1.786741 -2.962969,-1.273878 -1.266431,-2.120181 0.887497,-0.783997 1.887633,1.2641 0.465368,0.584894 -1.116205,0.237077 -0.180197,2.028518 0.649904,1.204024 l 0.0775,0.08245 z m 1.479357,-2.137058 c 0.577282,0.209148 0.191727,1.27636 0.303851,1.869075 0.161307,1.155284 -0.930318,0.66893 -0.607703,-0.264353 -0.800074,-0.413285 -0.05101,1.471763 -0.946082,0.915194 -0.155343,-0.730707 -0.05697,-1.564207 -0.05697,-2.331139 0.857014,-0.861577 0.251252,1.204229 0.995412,0.798745 0.0601,-0.31643 -0.148962,-1.019334 0.311494,-0.987522 z m 1.731031,1.496712 c 0.768066,0.695281 -0.126757,1.583215 -0.464408,0.457962 -0.373932,-0.993971 -0.01407,1.493049 -0.790321,0.460365 9.06e-4,-0.76676 -0.09942,-1.600661 0.05697,-2.331138 0.735077,-0.408622 2.186226,0.281456 1.197757,1.412811 z m -0.666017,-0.972091 c -0.252649,1.388741 1.103312,-0.005 0,0 z m 3.339295,0.752214 c 0.02113,2.330565 -3.078669,1.208654 -2.021838,-0.776444 0.549959,-1.068076 2.101698,-0.572267 2.021838,0.776444 z m -0.727402,-0.484117 c -1.317405,-1.010523 -0.806526,2.329068 0.103202,0.748356 0.06501,-0.248182 0.04405,-0.549977 -0.103202,-0.748356 z m 1.870679,0.0096 c 0.207537,-0.690071 1.181389,-1.208065 1.012838,-0.05783 -0.111712,0.589846 0.27285,1.652762 -0.303852,1.859287 -0.664966,0.13159 0.0128,-1.954028 -0.514802,-1.088946 -0.32462,0.640497 -0.749431,-0.960064 -0.599318,0.40815 0.103516,1.161274 -0.935816,0.516332 -0.607703,-0.370427 -0.02058,-0.5844 -0.127661,-2.110451 0.635405,-1.316091 0.125811,0.18862 0.251621,0.37724 0.377432,0.56586 z m 1.774001,1.465851 c -0.523158,0.996982 -0.735641,-0.53178 -0.607703,-1.124546 -0.32186,-0.831039 0.628507,-1.732274 0.607703,-0.501369 0,0.541972 0,1.083944 0,1.625915 z m 1.786278,-0.37032 c -0.548694,1.637254 -2.04836,0.263887 -1.632817,-1.124546 -0.206996,-1.103888 0.921173,-0.807222 0.607703,0.175645 -0.265927,0.96547 0.577791,1.396997 0.417412,0.223644 -0.297399,-0.732567 0.506773,-1.805402 0.607702,-0.63257 0,0.45261 0,0.905218 0,1.357827 z m 1.166296,-1.095531 c 0.207537,-0.690071 1.181389,-1.208065 1.012838,-0.05783 -0.111712,0.589846 0.27285,1.652762 -0.303852,1.859287 -0.664966,0.13159 0.0128,-1.954028 -0.514802,-1.088946 -0.32462,0.640497 -0.749431,-0.960064 -0.599318,0.40815 0.103516,1.161274 -0.935816,0.516332 -0.607703,-0.370427 -0.02058,-0.5844 -0.127661,-2.110451 0.635404,-1.316091 0.125812,0.18862 0.251622,0.37724 0.377433,0.56586 z"
         id="text49550"
         inkscape:connector-curvature="0" />
      <g
         id="g54240"
         transform="matrix(0.24562229,0,0,0.24186217,34.917034,-33.749499)">
        <path
           style="fill:#cbcbcb;fill-opacity:1;stroke-width:0.51272714"
           d="m -70.218567,235.17822 c -12.862837,-3.37294 -22.146947,-16.9426 -19.892899,-30.19854 1.688093,-14.0586 15.885809,-24.83833 29.891373,-22.99407 14.099424,0.8715 26.133071,14.67954 24.479911,28.85743 -0.402665,14.62378 -14.991058,26.80176 -29.463762,24.94656 -1.681818,-0.0827 -3.375866,-0.19674 -5.014623,-0.61138 z"
           id="path54193"
           inkscape:connector-curvature="0" />
        <path
           style="fill:#000000;fill-opacity:1;stroke-width:0.51272714"
           d="m -68.146067,228.07933 c 1.470528,-3.72107 4.77959,-6.4705 5.104901,-10.34151 -1.439345,-4.2219 -14.349032,-9.09597 -12.782087,-1.63123 5.124665,3.81778 1.691695,12.1514 5.912533,15.36428 0.05995,-1.31926 0.770982,-2.5505 1.764653,-3.39154 z"
           id="path54191"
           inkscape:connector-curvature="0" />
        <path
           style="fill:#000000;fill-opacity:1;stroke-width:0.51272714"
           d="m -48.847606,224.70851 c 2.86438,-3.57631 3.228577,-10.50306 4.57644,-14.07082 -4.491468,-0.0116 -5.053504,-8.16525 -0.61116,-3.19763 4.710403,3.53409 -1.039291,-6.81819 4.479531,-1.89099 5.313001,5.73787 1.283188,-6.86306 -0.4997,-8.88354 -1.706281,-4.69221 -5.768384,-6.3154 -9.927866,-4.87703 -3.642316,-4.38542 -6.542548,7.2949 -3.151819,1.39543 6.088595,-0.63837 1.465629,5.46747 -2.315691,5.43788 -3.321169,2.77965 -1.601068,4.11104 1.03286,0.89995 2.579905,3.69837 7.418376,-1.68097 8.627862,1.71094 -1.67634,6.7895 -10.054964,0.79241 -14.228188,5.20654 -4.912207,7.91667 10.052866,3.94578 8.183017,11.8621 0.554077,1.69683 0.866763,8.41181 3.834714,6.40717 z"
           id="path54189"
           inkscape:connector-curvature="0" />
        <path
           style="fill:#000000;fill-opacity:1;stroke-width:0.51272714"
           d="m -79.787677,209.37505 c -1.905053,-4.05621 6.04785,-1.90569 6.459076,-6.41382 2.177539,-1.47186 5.294288,-8.91296 0.57912,-6.05261 -0.06466,6.31432 -8.590587,-2.62897 -3.07858,-4.69815 -6.184998,-3.50321 -11.886093,5.85384 -10.75832,11.70703 2.259719,1.91776 3.980124,7.8008 7.322628,6.05908 z"
           id="path54187"
           inkscape:connector-curvature="0" />
        <path
           style="fill:#cbcbcb;fill-opacity:1;stroke-width:0.51272714"
           d="m -58.355813,197.45702 c -1.296964,-1.99326 -1.422422,1.07058 0,0 z"
           id="path54185"
           inkscape:connector-curvature="0" />
        <path
           style="fill:#000000;fill-opacity:1;stroke-width:0.51272714"
           d="m -61.012137,191.00686 c 6.737387,-2.64092 -0.738329,-11.02485 -3.669517,-4.47734 1.166941,2.1812 -2.315061,10.79008 2.403268,5.5982 l 0.620097,-0.54445 z"
           id="path54183"
           inkscape:connector-curvature="0" />
        <path
           style="fill:#cbcbcb;fill-opacity:1;stroke-width:0.51272714"
           d="m -70.218567,190.29113 c -2.411731,-9.1819 -0.656215,7.68451 0,0 z"
           id="path54156"
           inkscape:connector-curvature="0" />
        <path
           style="fill:#000000;fill-opacity:1;stroke-width:0.51272714"
           d="m -69.702797,234.58781 c -12.896189,-3.23592 -22.45669,-17.00854 -19.65614,-30.29117 -0.203782,-2.99828 2.279054,-6.42173 2.24444,-1.39984 -0.03898,3.09592 1.420455,6.12879 3.25573,4.77333 0.966106,4.85189 8.348088,3.6916 7.577901,9.79148 6.214632,3.23851 0.531542,13.4232 6.991639,14.97256 1.414135,-5.15254 5.518999,-9.09451 6.807237,-13.84206 -0.898195,-7.48961 -10.920417,-5.2796 -15.650267,-8.48185 -4.350336,-4.37696 4.24357,-0.61823 4.02863,-5.10066 2.895821,-2.06038 8.075619,-11.70637 1.018394,-8.8412 -0.05635,5.95934 -6.945323,-2.1054 -1.546634,-3.67618 1.417549,-4.16012 -10.1198,-0.65642 -9.321072,0.22968 1.536992,-1.78295 7.113194,-8.63483 6.626892,-3.84943 3.863868,-3.17829 5.281869,0.61351 6.246319,4.35741 3.611153,-2.39103 -0.834511,-7.05715 -1.793572,-8.64525 2.613649,-1.81707 13.032563,-4.17628 7.644271,1.65688 1.023297,2.59874 -1.474992,6.70293 0.964485,8.10624 4.471629,-2.08982 9.385238,-7.72574 4.849497,-11.42493 5.579789,0.0853 12.53602,3.49902 15.102531,7.59434 -3.535438,-0.0902 -6.424902,1.02254 -9.508291,0.12767 -5.008363,2.48272 -1.262317,7.37654 1.657859,3.4753 0.829205,4.08332 -6.082455,3.20052 -7.631683,2.34805 0.97158,1.66704 0.815457,5.66618 2.295898,6.36381 1.929106,-4.49525 6.747689,0.32468 9.844132,-2.05582 -1.598713,7.56413 -11.87996,-1.05277 -14.583875,6.5064 -2.400834,8.08742 11.284136,3.57961 8.804021,12.38552 0.291315,3.65908 4.783828,9.28076 6.425628,3.06587 2.293319,-3.6821 2.435243,-8.93687 3.569648,-12.37305 -3.072102,-0.5377 -5.72069,-5.42345 -1.196896,-1.83085 5.437259,2.86179 0.509073,-6.66089 4.848057,-1.41882 7.323717,2.56995 1.577609,12.1395 -1.083219,16.74602 -6.223517,9.08123 -18.188526,13.5647 -28.83156,10.73055 z"
           id="path54175"
           inkscape:connector-curvature="0" />
        <path
           style="fill:#cbcbcb;fill-opacity:1;stroke-width:0.51272714"
           d="m -42.673768,192.45736 c -2.262572,-2.97887 3.560552,3.49723 0,0 z"
           id="path54154"
           inkscape:connector-curvature="0" />
        <path
           style="fill:#fffffb;fill-opacity:1;stroke-width:0.51272714"
           d="m -67.639707,234.41169 c -2.885131,-3.5202 3.518245,-8.34978 4.06691,-12.07886 6.634033,-6.19112 -5.865837,-12.72229 -11.835072,-11.45014 -3.845502,-0.22462 -4.165174,-4.86862 -0.322743,-2.06695 2.233486,-3.80378 12.576731,-13.56778 3.058384,-14.06609 -0.679378,2.12812 -3.822614,3.74533 -2.966129,0.38819 3.465101,-2.73349 3.002768,-5.74838 -2.01013,-5.10156 -5.04478,0.0341 -0.388739,-2.03811 1.921905,-0.67352 3.819284,-3.15693 3.991132,9.48968 6.93421,2.52816 -0.6616,-4.27752 -3.020914,-10.70209 4.247295,-8.31138 -2.989321,3.24551 -2.616439,16.51934 3.353689,9.51775 3.311163,-1.94084 6.187427,-6.26736 2.939792,-9.63218 3.700099,0.62068 11.186467,3.31476 11.492261,6.06148 -3.167477,3.26615 -6.948186,-3.1377 -9.212427,2.46356 -3.696814,1.91659 2.579643,7.46394 -2.697952,3.43222 -5.404993,1.13965 3.406554,9.18191 -3.388463,10.28162 -3.967169,6.32093 3.364064,7.76972 7.309161,9.29014 0.535365,4.05315 2.072714,15.17266 7.98131,9.4393 2.981639,-4.90243 1.840043,-11.50991 5.835799,-15.9998 7.275421,0.44662 2.400203,11.72182 -0.839637,15.61521 -5.809953,7.90767 -16.171507,12.26994 -25.868163,10.36285 z"
           id="path54167"
           inkscape:connector-curvature="0" />
        <path
           style="fill:#ffffff;fill-opacity:1;stroke-width:0.51272714"
           d="m -73.436247,232.64342 c -10.999955,-4.38011 -18.094185,-17.40958 -14.985344,-28.91287 1.361744,7.85318 11.882619,6.88113 12.035033,14.8961 4.164902,3.21377 3.334423,13.82786 5.094233,14.8697 l -0.980302,-0.385 -1.16362,-0.46796 z"
           id="path54165"
           inkscape:connector-curvature="0" />
        <path
           style="fill:#cbcbcb;fill-opacity:1;stroke-width:0.51272714"
           d="m -54.874351,202.92342 c -4.157463,-2.04926 2.940749,-1.86935 1.043094,0.17239 z"
           id="path54163"
           inkscape:connector-curvature="0" />
        <path
           style="fill:#cbcbcb;fill-opacity:1;stroke-width:0.51272714"
           d="m -51.263947,202.95092 c 2.359267,-0.59778 1.804997,0.57205 0,0 z"
           id="path54152"
           inkscape:connector-curvature="0" />
      </g>
    </g>
  </g>
</svg>
