<?xml version="1.0" encoding="UTF-8" standalone="no"?>
<!-- Created with Inkscape (http://www.inkscape.org/) -->

<svg
   xmlns:dc="http://purl.org/dc/elements/1.1/"
   xmlns:cc="http://creativecommons.org/ns#"
   xmlns:rdf="http://www.w3.org/1999/02/22-rdf-syntax-ns#"
   xmlns:svg="http://www.w3.org/2000/svg"
   xmlns="http://www.w3.org/2000/svg"
   xmlns:sodipodi="http://sodipodi.sourceforge.net/DTD/sodipodi-0.dtd"
   xmlns:inkscape="http://www.inkscape.org/namespaces/inkscape"
   width="150"
   height="150"
   viewBox="0 0 39.6875 39.6875"
   version="1.1"
   id="svg922"
   inkscape:version="0.92.4 (5da689c313, 2019-01-14)"
   sodipodi:docname="USO_server_concrete5.svg">
  <title
     id="title1437">USOICON</title>
  <defs
     id="defs916">
    <clipPath
       id="clipPath1521"
       clipPathUnits="userSpaceOnUse">
      <rect
         y="66.644836"
         x="57.114269"
         height="151.42299"
         width="172.87534"
         id="rect1523"
         style="opacity:0.875;fill:#000000;fill-opacity:1;stroke:#000000;stroke-width:0.60403091;stroke-linejoin:round;stroke-miterlimit:4;stroke-dasharray:none;stroke-opacity:1" />
    </clipPath>
  </defs>
  <sodipodi:namedview
     id="base"
     pagecolor="#ffffff"
     bordercolor="#666666"
     borderopacity="1.0"
     inkscape:pageopacity="0.0"
     inkscape:pageshadow="2"
     inkscape:zoom="1.2065"
     inkscape:cx="72.008697"
     inkscape:cy="106.29921"
     inkscape:document-units="px"
     inkscape:current-layer="layer12"
     showgrid="false"
     inkscape:window-width="806"
     inkscape:window-height="644"
     inkscape:window-x="2878"
     inkscape:window-y="99"
     inkscape:window-maximized="0"
     units="px" />
  <metadata
     id="metadata919">
    <rdf:RDF>
      <cc:Work
         rdf:about="">
        <dc:format>image/svg+xml</dc:format>
        <dc:type
           rdf:resource="http://purl.org/dc/dcmitype/StillImage" />
        <dc:title>USOICON</dc:title>
        <cc:license
           rdf:resource="http://creativecommons.org/licenses/by-sa/4.0/" />
      </cc:Work>
      <cc:License
         rdf:about="http://creativecommons.org/licenses/by-sa/4.0/">
        <cc:permits
           rdf:resource="http://creativecommons.org/ns#Reproduction" />
        <cc:permits
           rdf:resource="http://creativecommons.org/ns#Distribution" />
        <cc:requires
           rdf:resource="http://creativecommons.org/ns#Notice" />
        <cc:requires
           rdf:resource="http://creativecommons.org/ns#Attribution" />
        <cc:permits
           rdf:resource="http://creativecommons.org/ns#DerivativeWorks" />
        <cc:requires
           rdf:resource="http://creativecommons.org/ns#ShareAlike" />
      </cc:License>
    </rdf:RDF>
  </metadata>
  <g
     style="display:inline"
     transform="translate(-35.46637,-112.59198)"
     id="layer1"
     inkscape:groupmode="layer"
     inkscape:label="toonbox" />
  <g
     inkscape:label="text"
     id="layer3"
     inkscape:groupmode="layer" />
  <g
     style="display:inline"
     inkscape:label="icon_server"
     id="layer12"
     inkscape:groupmode="layer">
    <g
       id="g2110">
      <path
         style="display:inline;opacity:0.875;fill:#999999;fill-opacity:1;stroke:none;stroke-width:0.11845408;stroke-linejoin:round;stroke-miterlimit:4;stroke-dasharray:none;stroke-opacity:0.97175137"
         d="m 1.435191,10.12791 c 1.65225,-0.96054 3.659442,-0.76728 5.49622,-1.00172 9.025394,-0.54015 18.093875,-0.44846 27.105305,0.28525 1.35304,0.26809 3.161035,0.09288 4.148462,1.03417 0.930988,2.49612 0.827559,5.22349 0.992342,7.84985 0.101546,3.343 0.06524,6.75049 -0.806431,9.99914 -0.965247,1.77182 -3.300452,1.63171 -5.030215,1.91664 C 25.305735,31.03043 17.210373,30.85425 9.147836,30.66838 6.704743,30.58142 4.261007,30.42069 1.839737,30.07419 -3.11e-4,29.15089 0.840794,26.66481 0.395942,25.01414 0.159319,20.41642 -0.017094,15.74708 0.855858,11.20402 0.952174,10.80641 1.101582,10.38983 1.435191,10.12791 Z"
         id="rect49496"
         inkscape:connector-curvature="0" />
      <path
         style="display:inline;fill:#000000;stroke-width:0.37203047"
         d="M 1.803349,30.70864 C -0.121197,29.92497 0.21973,27.48611 0.072479,25.79481 -0.01077,21.21651 -0.112764,16.61958 0.17006,12.05238 0.887494,9.75654 3.555219,8.89431 5.743658,8.84433 14.755417,8.64366 23.775982,8.57709 32.788968,8.72204 c 1.994757,0.10569 4.28402,0.05004 5.862686,1.46322 1.415944,1.70124 0.952432,4.0619 0.99742,6.10005 -0.156589,3.92023 0.08057,7.87262 -0.432112,11.76833 -0.721063,2.01499 -3.085809,2.87216 -5.074955,2.80096 -8.669713,0.36404 -17.351179,0.22006 -26.025708,0.15917 -2.103763,-0.05891 -4.222111,-0.07536 -6.31295,-0.30513 z m 34.717949,-1.05781 c 2.161606,-0.92417 2.2054,-3.60872 2.248915,-5.61208 0.10745,-3.72883 0.207169,-7.48912 -0.242436,-11.19704 C 38.291839,11.11476 36.798361,9.92696 35.151603,9.64427 32.916412,9.24184 30.626433,9.44654 28.366741,9.35622 20.559328,9.34371 12.746073,9.21543 4.943279,9.52579 2.949637,9.49447 0.889619,10.83617 1.002434,13.00452 0.660283,16.54896 0.924007,20.11909 0.830901,23.67445 c 0.088525,1.70522 -0.055501,3.55707 0.733057,5.11338 1.443949,1.73629 3.938212,1.40062 5.968055,1.57346 8.712003,0.31616 17.433195,0.06617 26.143675,-0.15453 0.966787,-0.05673 1.941234,-0.19483 2.84561,-0.55593 z M 4.297406,28.9474 c -0.849572,0.16519 -2.313133,-2.01022 -0.727168,-0.88447 2.011795,1.08337 4.37192,0.54648 6.548493,0.75577 0.502052,0.0034 2.664739,-0.12201 2.205439,0.25674 C 9.670034,29.4751 6.924822,29.58147 4.297406,28.9474 Z m 31.24001,-17.1062 c -1.901508,-0.88335 -4.056292,-0.33186 -6.071887,-0.594 -0.797266,-0.02914 -3.150385,-0.0436 -2.946299,-0.45935 2.983014,-0.07743 6.057713,-0.31839 8.961831,0.44855 0.617665,0.28503 1.020931,1.63234 0.05636,0.6048 z"
         id="path49494"
         inkscape:connector-curvature="0" />
      <path
         style="font-style:normal;font-variant:normal;font-weight:normal;font-stretch:normal;font-size:4.94612217px;font-family:Insaniburger;-inkscape-font-specification:Insaniburger;opacity:1;vector-effect:none;fill:#000000;fill-opacity:1;stroke:none;stroke-width:0.05796236;stroke-linecap:butt;stroke-linejoin:miter;stroke-miterlimit:4;stroke-dasharray:none;stroke-dashoffset:0;stroke-opacity:1"
         d="m 10.921355,27.370387 c -0.834088,1.664242 -2.9461038,0.05435 -2.7866841,-1.365622 -0.082112,-1.36287 1.7719959,-2.481028 2.6751891,-1.181684 0.178675,1.208701 -1.8208414,-0.335472 -1.7067182,1.236139 -0.2909382,2.002816 1.5718452,0.127686 1.8182132,1.311167 z m 3.315939,-1.188531 c 0.341468,1.916085 -2.473919,2.410412 -3.06475,0.704747 -0.746327,-1.519415 1.290857,-3.542382 2.601865,-2.079945 0.346995,0.362909 0.495382,0.880757 0.462885,1.375198 z m -1.037463,-0.668882 c -1.829164,-1.380444 -1.12533,3.241602 0.148707,1.023908 0.09572,-0.340363 0.06024,-0.730171 -0.148707,-1.023908 z m 3.009517,0.50899 c -0.545694,-1.009995 0.879126,-2.400457 0.859802,-0.768392 0.01381,0.861454 0.321606,3.704414 -1.053529,2.223061 -0.407742,-0.871325 -0.965612,-1.283677 -0.71882,0.0039 -0.659265,1.478111 -1.15887,-0.805694 -0.866774,-1.516699 -0.458081,-1.188544 0.706637,-2.160549 1.237343,-0.735777 0.179265,0.265563 0.352198,0.535574 0.541978,0.793894 z m 3.797464,1.348423 c -0.834088,1.664242 -2.946104,0.05435 -2.786684,-1.365622 -0.08211,-1.36287 1.771996,-2.481028 2.675189,-1.181684 0.178676,1.208702 -1.820841,-0.335473 -1.706718,1.236139 -0.290938,2.002816 1.571845,0.127686 1.818213,1.311167 z m 2.035526,-0.884736 c 1.077697,0.693644 -0.09064,2.264636 -0.572292,0.774419 -0.67534,-1.520415 -0.06724,1.615775 -1.129042,0.464805 -0.261581,-1.280958 -0.59546,-4.14803 1.598866,-3.198386 0.703032,0.361261 0.725178,1.517688 0.102468,1.959162 z m -0.949912,-1.343093 c -0.399894,1.737918 1.441984,0.0098 0,0 z m 3.149596,2.872727 c 1.18293,-0.70382 -1.746627,-1.078248 0.06384,-1.559153 0.755398,-0.532845 -1.67482,-0.988487 -0.185211,-1.190991 1.472003,-0.898577 -1.999386,-1.507579 -1.379803,0.149009 0.168725,1.22421 -0.601917,3.135171 1.501172,2.601135 z m 2.177796,-2.750144 c -0.145187,0.731989 0.479256,3.190817 -0.768001,2.534191 -0.431184,-0.91883 0.558325,-2.487057 -0.864799,-2.77253 -0.394747,-1.360842 4.3031,-0.3389 1.6328,0.238339 z m 2.46233,2.750144 c 1.182929,-0.70382 -1.746626,-1.078248 0.06384,-1.559153 0.755397,-0.532845 -1.674821,-0.988487 -0.185212,-1.190991 1.472002,-0.898577 -1.999386,-1.507578 -1.379803,0.149009 0.168732,1.224209 -0.601919,3.135173 1.501172,2.601135 z m 1.869183,-1.145893 c -0.747633,0.137068 -1.964413,0.483028 -0.745569,1.213733 1.742902,0.457876 1.934191,-2.355097 0.40343,-2.6665 1.594472,-0.05232 0.758239,-1.513982 -0.423746,-0.958419 -0.905752,0.511536 -0.539977,2.375483 0.707683,2.171093 l 0.04738,0.09923 0.01082,0.14087 z"
         id="text49550"
         inkscape:connector-curvature="0" />
      <g
         id="g55219"
         transform="matrix(0.07288555,0,0,0.05540308,49.921805,7.7326885)">
        <path
           style="fill:#000003;fill-opacity:1;stroke-width:0.26458332"
           d="m -423.12973,295.18552 c -11.70752,-12.40249 -30.4823,-5.20832 -45.74428,-6.92248 -11.55582,0 -23.11164,0 -34.66746,0 2.21887,-13.72642 27.02613,-3.98099 39.42392,-6.61459 11.3296,0 22.65921,0 33.98881,0 14.8411,-13.18688 9.47765,-40.9907 -13.96535,-32.12281 -24.99352,0.42781 -51.45904,5.33565 -75.14107,-5.20295 -7.96191,-20.38967 -3.80097,-58.57957 26.63898,-49.45757 23.22476,0 46.44952,0 69.67428,0 -2.00681,-26.91866 -40.92304,-5.01303 -58.52124,-11.03134 -31.79338,9.20987 -52.36516,-21.74221 -36.96539,-48.50628 19.31083,-17.35863 46.99748,-2.96825 69.96061,-7.66016 10.50958,5.70657 39.2673,-5.25846 19.48974,-12.73303 -29.75574,-3.35239 -63.82296,11.57858 -90.17694,-7.87723 -12.57091,-23.915005 4.34122,-60.151289 35.63535,-46.586186 51.13401,0.01307 102.26822,-0.09762 153.40205,0.08626 23.55393,11.092844 18.42491,63.098705 -12.98277,55.193005 -24.32072,0.002 -48.64143,0.004 -72.96215,0.006 1.73076,26.6984 40.40207,5.29266 57.74883,10.98689 30.64986,-8.43687 50.99029,17.7194 40.71838,45.39739 -16.45282,20.71929 -46.98061,6.84244 -69.68538,10.81798 -12.45644,-2.40895 -42.91025,0.1042 -20.36346,12.88651 27.33713,2.68134 57.23922,-10.33618 82.40624,3.85799 20.44549,17.97816 8.14843,60.36412 -22.69814,50.49013 -22.70876,-0.0623 -45.4178,-0.0121 -68.12668,-0.0283 -8.10947,25.50394 13.53311,37.3307 36.04388,31.54789 12.50406,2.77796 44.51212,-6.52727 43.57264,5.88892 -23.85417,1.31575 -48.27572,0.36545 -72.41172,0.66319 -1.77487,5.75547 -8.71879,8.89357 -14.29168,6.9211 z m 5.31378,-6.2216 c 14.04212,-17.45904 -20.38854,-1.41418 0,0 z m -76.0142,-55.46963 c -9.39675,-9.71035 -18.35338,6.77764 0,0 z m 21.90155,0.11729 c -8.45483,-9.74159 -19.34452,5.66373 0,0 z m 22.3487,-0.41498 c -6.43933,-8.91585 -21.34683,6.11547 0,0 z m 103.50874,-2.10224 c 23.86703,-19.31647 -31.86315,-18.93674 -6.16554,0.17842 l 3.09085,0.44358 z m -6.14605,-3.1868 c -14.00661,-23.45952 24.69877,-0.90413 0,0 z m -141.61294,-4.20286 c -9.42672,-10.83952 -17.70014,7.42507 0,0 z m 21.90155,0.11729 c -8.4549,-9.74158 -19.34445,5.66375 0,0 z m 22.18004,-0.25398 c -8.54202,-9.24365 -15.60414,6.80179 -0.24333,0.10514 z m -43.92753,-9.7696 c -10.36899,-11.02498 -18.13153,7.99449 0,0 z m 21.74749,0.234 c -9.2306,-10.14026 -16.85532,6.46027 0,0 z m 22.18004,-0.25399 c -10.55582,-10.71766 -16.67306,7.4228 0,0 z m -44.08159,-47.4883 c -10.02614,-11.37305 -18.2614,7.86811 0,0 z m 21.90155,0.11729 c -8.45489,-9.74158 -19.34446,5.66375 0,0 z m 22.3487,-0.41498 c -6.43927,-8.91584 -21.34691,6.11542 0,0 z m 104.23534,-2.4307 c 22.1092,-20.79443 -33.17229,-16.8086 -6.40092,0.62845 l 3.24926,0.25877 z m -6.66892,-2.72052 c -17.39551,-26.08151 28.81676,-1.79302 0,0 z m -141.81667,-4.34067 c -9.42673,-10.83952 -17.70013,7.42507 0,0 z m 21.90155,0.11729 c -8.45488,-9.74158 -19.34447,5.66376 0,0 z m 22.2693,-0.29116 c -8.85691,-9.19339 -15.4796,6.90122 -0.22707,0.10597 z m -44.01679,-9.73243 c -10.36901,-11.02496 -18.1315,7.99446 0,0 z m 21.74749,0.23401 c -9.23056,-10.14029 -16.85535,6.46025 0,0 z m 22.18004,-0.25399 c -10.55578,-10.71767 -16.6731,7.42277 0,0 z m -44.08159,-47.4883 c -10.02611,-11.373079 -18.26142,7.86809 0,0 z m 21.90155,0.11729 c -8.45483,-9.741592 -19.34452,5.66373 0,0 z m 22.3487,-0.41498 c -6.43931,-8.915853 -21.34687,6.11545 0,0 z m 103.50874,-2.10224 c 23.85281,-19.311696 -31.8564,-18.934188 -6.16554,0.17841 l 3.09086,0.443579 z m -5.81003,-2.99462 c -15.60925,-20.059401 26.14724,-4.470774 0,0 z m -141.94896,-4.39504 c -9.42673,-10.839522 -17.70013,7.425071 0,0 z m 21.90155,0.11729 c -8.45489,-9.74158 -19.34446,5.663756 0,0 z m 22.18004,-0.25398 c -8.54202,-9.243653 -15.60415,6.801791 -0.24333,0.105143 z m -43.92753,-9.76961 c -10.36904,-11.024875 -18.13146,7.994333 0,0 z m 21.74749,0.23401 c -9.23059,-10.140267 -16.85533,6.460267 0,0 z m 22.02305,-0.0671 c -8.94306,-10.361559 -17.49017,6.713324 0,0 z"
           id="path55207"
           inkscape:connector-curvature="0" />
      </g>
    </g>
  </g>
</svg>
