<?xml version="1.0" encoding="UTF-8" standalone="no"?>
<!-- Created with Inkscape (http://www.inkscape.org/) -->

<svg
   xmlns:dc="http://purl.org/dc/elements/1.1/"
   xmlns:cc="http://creativecommons.org/ns#"
   xmlns:rdf="http://www.w3.org/1999/02/22-rdf-syntax-ns#"
   xmlns:svg="http://www.w3.org/2000/svg"
   xmlns="http://www.w3.org/2000/svg"
   xmlns:sodipodi="http://sodipodi.sourceforge.net/DTD/sodipodi-0.dtd"
   xmlns:inkscape="http://www.inkscape.org/namespaces/inkscape"
   width="150"
   height="150"
   viewBox="0 0 39.6875 39.6875"
   version="1.1"
   id="svg922"
   inkscape:version="0.92.4 (5da689c313, 2019-01-14)"
   sodipodi:docname="USO_games_doomlegacy.svg">
  <title
     id="title1437">USOICON</title>
  <defs
     id="defs916">
    <clipPath
       id="clipPath1521"
       clipPathUnits="userSpaceOnUse">
      <rect
         y="66.644836"
         x="57.114269"
         height="151.42299"
         width="172.87534"
         id="rect1523"
         style="opacity:0.875;fill:#000000;fill-opacity:1;stroke:#000000;stroke-width:0.60403091;stroke-linejoin:round;stroke-miterlimit:4;stroke-dasharray:none;stroke-opacity:1" />
    </clipPath>
  </defs>
  <sodipodi:namedview
     id="base"
     pagecolor="#ffffff"
     bordercolor="#666666"
     borderopacity="1.0"
     inkscape:pageopacity="0.0"
     inkscape:pageshadow="2"
     inkscape:zoom="2.6541646"
     inkscape:cx="86.881873"
     inkscape:cy="70.333314"
     inkscape:document-units="px"
     inkscape:current-layer="layer7"
     showgrid="false"
     inkscape:window-width="1019"
     inkscape:window-height="691"
     inkscape:window-x="2833"
     inkscape:window-y="95"
     inkscape:window-maximized="0"
     units="px" />
  <metadata
     id="metadata919">
    <rdf:RDF>
      <cc:Work
         rdf:about="">
        <dc:format>image/svg+xml</dc:format>
        <dc:type
           rdf:resource="http://purl.org/dc/dcmitype/StillImage" />
        <dc:title>USOICON</dc:title>
        <cc:license
           rdf:resource="http://creativecommons.org/licenses/by-sa/4.0/" />
      </cc:Work>
      <cc:License
         rdf:about="http://creativecommons.org/licenses/by-sa/4.0/">
        <cc:permits
           rdf:resource="http://creativecommons.org/ns#Reproduction" />
        <cc:permits
           rdf:resource="http://creativecommons.org/ns#Distribution" />
        <cc:requires
           rdf:resource="http://creativecommons.org/ns#Notice" />
        <cc:requires
           rdf:resource="http://creativecommons.org/ns#Attribution" />
        <cc:permits
           rdf:resource="http://creativecommons.org/ns#DerivativeWorks" />
        <cc:requires
           rdf:resource="http://creativecommons.org/ns#ShareAlike" />
      </cc:License>
    </rdf:RDF>
  </metadata>
  <g
     style="display:inline"
     transform="translate(-35.46637,-112.59198)"
     id="layer1"
     inkscape:groupmode="layer"
     inkscape:label="toonbox" />
  <g
     inkscape:label="text"
     id="layer3"
     inkscape:groupmode="layer" />
  <g
     style="display:inline"
     inkscape:label="icon_games"
     id="layer7"
     inkscape:groupmode="layer">
    <g
       id="g1776">
      <path
         style="display:inline;opacity:0.875;fill:#999999;fill-opacity:1;stroke:none;stroke-width:0.11845408;stroke-linejoin:round;stroke-miterlimit:4;stroke-dasharray:none;stroke-opacity:0.97175137"
         d="M 1.435191,10.12791 C 2.670256,9.29705 4.324329,9.43582 5.75553,9.20511 14.11545,8.61268 22.517162,8.68995 30.881762,9.1576 c 2.392119,0.20608 4.838324,0.26932 7.150425,0.97031 0.872353,1.67498 0.817461,3.66984 1.026746,5.51683 0.208491,4.02511 0.362445,8.13136 -0.532305,12.08777 -0.230317,1.64927 -2.017724,2.0517 -3.40708,2.25864 C 28.802681,30.85612 22.40423,30.81147 16.04062,30.81293 11.303807,30.71862 6.537542,30.74635 1.839737,30.07418 0.173005,29.52829 0.822947,27.03924 0.434179,25.65651 0.154966,21.09087 0.021365,16.47217 0.692557,11.93449 0.848231,11.32021 0.903907,10.54918 1.435191,10.12791 Z"
         id="rect49496"
         inkscape:connector-curvature="0" />
      <path
         style="display:inline;fill:#000000;stroke-width:0.37203047"
         d="M 1.803349,30.70864 C 0.056742,30.0892 0.231437,27.93756 0.087588,26.427 -0.022935,21.93179 -0.070132,17.42779 0.099217,12.93387 -0.027874,11.27811 1.27784,10.0868 2.683582,9.49431 4.615709,8.56731 6.836395,8.9315 8.909365,8.7639 16.59615,8.63948 24.285544,8.62691 31.972812,8.67993 c 2.150882,0.14121 4.537543,-0.0199 6.403551,1.23592 1.58486,1.37874 1.255708,3.71898 1.302004,5.60595 -0.178243,4.07095 0.01584,8.16305 -0.388876,12.21995 -0.293352,1.71142 -2.120394,2.65314 -3.654582,3.02944 -6.368162,0.39372 -12.757085,0.28816 -19.135233,0.3134 C 11.668868,31.0283 6.826658,31.10952 2.006621,30.75364 L 1.803349,30.7086 Z m 34.717949,-1.05781 c 1.660436,-0.66982 2.120657,-2.56797 2.182495,-4.18169 C 38.903556,21.6571 38.926032,17.82461 38.6784,14.01451 38.609934,12.47205 38.055319,10.73538 36.494762,10.11382 34.51138,9.13075 32.202264,9.50823 30.063573,9.36171 22.019563,9.34057 13.971808,9.23982 5.930238,9.4697 4.247551,9.52117 2.061367,9.74531 1.291134,11.49417 c -0.682107,2.6627 -0.37748,5.45735 -0.46467,8.18069 0.080658,2.82901 -0.202804,5.71611 0.421771,8.49628 0.655233,1.84726 2.893842,2.0042 4.558802,2.11114 8.176545,0.4213 16.369453,0.15886 24.551012,0.03302 2.04628,-0.14679 4.225389,0.10711 6.163249,-0.66447 z M 4.297406,28.9474 c -0.939032,0.02717 -2.493051,-2.1182 -0.727168,-0.88447 1.706475,0.99084 3.797167,0.59334 5.679761,0.73138 0.843628,0.09701 3.276883,-0.14441 3.328971,0.24148 -2.712643,0.43249 -5.596207,0.56419 -8.281564,-0.08839 z m 31.24001,-17.1062 c -1.499147,-0.78086 -3.308903,-0.4003 -4.94344,-0.53994 -1.173066,-0.10336 -4.022293,-0.01807 -4.347208,-0.50636 2.904245,-0.07023 5.874879,-0.31161 8.734279,0.31742 0.913242,-0.14345 1.834744,2.01352 0.556369,0.72888 z"
         id="path49494"
         inkscape:connector-curvature="0" />
      <path
         style="font-style:normal;font-variant:normal;font-weight:normal;font-stretch:normal;font-size:4.29137707px;font-family:Insaniburger;-inkscape-font-specification:Insaniburger;opacity:1;vector-effect:none;fill:#000000;fill-opacity:1;stroke:none;stroke-width:0.05028957;stroke-linecap:butt;stroke-linejoin:miter;stroke-miterlimit:4;stroke-dasharray:none;stroke-dashoffset:0;stroke-opacity:1"
         d="m 8.0168783,28.020403 c -0.5784641,0.07699 -1.4042414,0.04819 -1.1769982,-0.876488 0.055474,-0.675245 -0.117036,-1.418405 0.097102,-2.047788 1.0073805,-0.45861 2.4174518,0.301366 2.065632,1.762623 -0.087604,0.567534 -0.4419351,1.128132 -0.9857361,1.161653 z m 0.2962113,-1.537679 c -0.2648027,-1.581469 -0.9768201,-0.620148 -0.6963907,0.391124 -0.2369706,1.089549 0.8681725,0.30704 0.6963907,-0.391124 z m 3.6624274,-0.0022 c 0.02702,2.704543 -3.9354263,1.402603 -2.5844925,-0.901036 0.7030065,-1.239465 2.6865755,-0.664097 2.5844925,0.901036 z m -0.929829,-0.561801 c -1.6840238,-1.172677 -1.030974,2.702805 0.131921,0.868442 0.0831,-0.288006 0.05631,-0.638229 -0.131921,-0.868442 z m 3.872324,0.561801 c 0.02702,2.704543 -3.935426,1.402603 -2.584492,-0.901036 0.703007,-1.239465 2.686576,-0.664097 2.584492,0.901036 z m -0.929829,-0.561801 c -1.684023,-1.172677 -1.030973,2.702805 0.131922,0.868442 0.0831,-0.288006 0.0563,-0.638229 -0.131922,-0.868442 z m 2.391268,0.01119 c 0.247008,-0.640985 1.369418,-1.487268 1.294699,-0.249438 -0.05721,0.739786 0.119451,1.548831 -0.0971,2.242601 -0.914246,0.453755 -0.647331,-0.932781 -0.679716,-1.527607 -0.338328,0.702925 -0.677552,0.766209 -1.017898,0.02825 -0.124373,0.436529 0.291336,1.787126 -0.576199,1.572378 -0.431874,-0.447877 -0.126712,-1.299044 -0.218481,-1.923613 -0.282381,-0.938159 0.60781,-1.469242 1.019656,-0.516918 0.09168,0.124782 0.183362,0.249564 0.275042,0.374346 z m 3.848785,2.090527 c -0.50953,-0.0563 -1.534704,0.280428 -1.384935,-0.681675 0.05721,-0.739786 -0.11945,-1.548831 0.0971,-2.242601 0.925803,-0.451541 0.641587,0.957956 0.679717,1.558372 -0.417045,1.145942 1.150609,0.159935 0.790551,1.276933 l -0.07602,0.06673 z m 1.76942,0 c 1.031576,-0.765131 -0.767511,-0.453752 -0.553189,-1.101389 0.671228,0.231834 1.141881,-0.947736 0.133246,-0.774267 -0.67897,-0.68179 0.969523,-0.114005 0.703159,-0.945801 -0.374067,-0.287428 -1.431822,-0.424043 -1.613224,0.189273 0.05915,0.83675 -0.122114,1.744246 0.0971,2.53482 0.372751,0.189152 0.830749,0.05847 1.232905,0.09736 z m 2.654133,-1.853273 c -0.906584,-0.259476 -1.112901,0.615693 -0.478279,0.932512 -1.288919,0.822583 -1.158075,-2.232132 0.168336,-1.288394 1.514689,0.04094 -0.64543,-1.693161 -1.277044,-0.656507 -1.889192,1.345934 0.891893,4.297478 1.889082,2.238951 -0.07021,-0.382098 0.199883,-1.160278 -0.302095,-1.226562 z m 1.865541,0.604328 c -0.120673,-1.195759 -0.617118,0.285762 0,0 z m -0.568882,0.716241 c -0.616817,1.336397 -1.045492,-0.407513 -0.426055,-1.051642 0.208824,-0.616211 0.734665,-2.144585 1.266249,-0.955838 0.254704,0.701858 0.608341,1.365274 0.79191,2.094771 -0.449905,1.17937 -0.79451,-0.583754 -1.632104,-0.08729 z m 4.229347,-0.009 c -1.124128,1.904604 -3.688136,-1.029679 -1.857328,-2.324004 0.536211,-0.863389 2.688231,0.284693 1.410068,0.714702 -1.915251,-0.710812 -1.136126,2.164162 0.3531,1.320568 l 0.07062,0.134855 z m 1.418284,-1.517533 c 0.243941,-0.990146 1.777714,-1.185146 0.973113,0.04953 -0.320381,0.473574 -0.742876,0.907614 -0.59255,1.563421 -0.458593,1.166076 -0.885891,-0.223066 -0.879426,-0.837552 -0.378862,-0.456497 -1.28685,-1.833878 -0.137697,-1.643844 0.260645,0.238546 0.426614,0.577281 0.63656,0.868442 z"
         id="text49550"
         inkscape:connector-curvature="0" />
      <g
         id="g53695"
         transform="matrix(0.23216083,0,0,0.26739887,-40.66702,-79.695953)">
        <path
           style="fill:#000000;fill-opacity:1;stroke-width:0.56041962"
           d="m 225.79653,381.36576 c -5.04874,-5.70045 -3.09798,-14.35633 -2.45039,-21.29598 2.14357,-8.89697 7.83465,-18.94365 17.6609,-20.54413 7.25222,-1.3964 13.14991,3.76259 20.06409,4.17152 6.86243,-0.25136 12.65893,-5.79643 19.79539,-4.07863 10.07438,0.99305 15.61039,11.35051 17.88548,20.14 0.72391,7.0246 2.71218,15.81255 -2.37779,21.60722 -6.22795,4.55619 -12.2931,-2.23293 -16.91721,-5.91504 -5.78798,-5.77763 -14.55245,-3.45633 -21.84303,-3.96964 -6.37158,-0.56289 -12.86431,0.86093 -17.22384,5.87987 -3.90129,3.36771 -9.44686,8.07986 -14.5936,4.00481 z"
           id="path53677"
           inkscape:connector-curvature="0" />
        <path
           style="fill:#ffffff;fill-opacity:1;stroke-width:0.56041962"
           d="m 277.9872,362.41501 c 5.58994,-5.40079 -8.06317,-7.57497 -4.77264,-0.67341 1.23932,1.3571 3.24548,2.00683 4.77264,0.67341 z"
           id="path53675"
           inkscape:connector-curvature="0" />
        <path
           style="fill:#ffffff;fill-opacity:1;stroke-width:0.56041962"
           d="m 247.09052,359.86347 c 0.27723,-3.25746 8.70112,-2.32963 4.12382,-6.78295 -5.26871,1.19244 -3.64993,-8.73224 -9.37797,-3.68051 1.20337,5.19333 -8.41269,2.02905 -5.05105,7.57352 3.38408,0.29645 5.45041,0.84964 5.40535,4.6496 1.57622,0.88603 5.19447,0.91959 4.89985,-1.75966 z"
           id="path53673"
           inkscape:connector-curvature="0" />
        <path
           style="fill:#fffffc;fill-opacity:1;stroke-width:0.56041962"
           d="m 288.72216,357.58638 c 4.50178,-7.79772 -11.51832,-3.99212 -3.56811,0.81562 1.22542,0.443 2.60725,-0.0116 3.56811,-0.81562 z"
           id="path53671"
           inkscape:connector-curvature="0" />
        <path
           style="fill:#f8ffff;fill-opacity:1;stroke-width:0.56041962"
           d="m 278.37813,352.42476 c 4.38079,-8.166 -11.41132,-4.0188 -3.58973,0.81533 1.23238,0.44154 2.62307,-0.004 3.58973,-0.81533 z"
           id="path53664"
           inkscape:connector-curvature="0" />
      </g>
    </g>
  </g>
</svg>
