<?xml version="1.0" encoding="UTF-8" standalone="no"?>
<!-- Created with Inkscape (http://www.inkscape.org/) -->

<svg
   xmlns:dc="http://purl.org/dc/elements/1.1/"
   xmlns:cc="http://creativecommons.org/ns#"
   xmlns:rdf="http://www.w3.org/1999/02/22-rdf-syntax-ns#"
   xmlns:svg="http://www.w3.org/2000/svg"
   xmlns="http://www.w3.org/2000/svg"
   xmlns:sodipodi="http://sodipodi.sourceforge.net/DTD/sodipodi-0.dtd"
   xmlns:inkscape="http://www.inkscape.org/namespaces/inkscape"
   width="150"
   height="150"
   viewBox="0 0 39.6875 39.6875"
   version="1.1"
   id="svg922"
   inkscape:version="0.92.4 (5da689c313, 2019-01-14)"
   sodipodi:docname="USO_development_doomsdayengine.svg">
  <title
     id="title1437">USOICON</title>
  <defs
     id="defs916">
    <clipPath
       id="clipPath1521"
       clipPathUnits="userSpaceOnUse">
      <rect
         y="66.644836"
         x="57.114269"
         height="151.42299"
         width="172.87534"
         id="rect1523"
         style="opacity:0.875;fill:#000000;fill-opacity:1;stroke:#000000;stroke-width:0.60403091;stroke-linejoin:round;stroke-miterlimit:4;stroke-dasharray:none;stroke-opacity:1" />
    </clipPath>
  </defs>
  <sodipodi:namedview
     id="base"
     pagecolor="#ffffff"
     bordercolor="#666666"
     borderopacity="1.0"
     inkscape:pageopacity="0.0"
     inkscape:pageshadow="2"
     inkscape:zoom="1.9248792"
     inkscape:cx="71.357761"
     inkscape:cy="73.390647"
     inkscape:document-units="px"
     inkscape:current-layer="layer3"
     showgrid="false"
     inkscape:window-width="902"
     inkscape:window-height="622"
     inkscape:window-x="2964"
     inkscape:window-y="132"
     inkscape:window-maximized="0"
     units="px" />
  <metadata
     id="metadata919">
    <rdf:RDF>
      <cc:Work
         rdf:about="">
        <dc:format>image/svg+xml</dc:format>
        <dc:type
           rdf:resource="http://purl.org/dc/dcmitype/StillImage" />
        <dc:title>USOICON</dc:title>
        <cc:license
           rdf:resource="http://creativecommons.org/licenses/by-sa/4.0/" />
      </cc:Work>
      <cc:License
         rdf:about="http://creativecommons.org/licenses/by-sa/4.0/">
        <cc:permits
           rdf:resource="http://creativecommons.org/ns#Reproduction" />
        <cc:permits
           rdf:resource="http://creativecommons.org/ns#Distribution" />
        <cc:requires
           rdf:resource="http://creativecommons.org/ns#Notice" />
        <cc:requires
           rdf:resource="http://creativecommons.org/ns#Attribution" />
        <cc:permits
           rdf:resource="http://creativecommons.org/ns#DerivativeWorks" />
        <cc:requires
           rdf:resource="http://creativecommons.org/ns#ShareAlike" />
      </cc:License>
    </rdf:RDF>
  </metadata>
  <g
     style="display:inline"
     transform="translate(-35.46637,-112.59198)"
     id="layer1"
     inkscape:groupmode="layer"
     inkscape:label="toonbox">
    <path
       sodipodi:nodetypes="cccsc"
       inkscape:connector-curvature="0"
       id="rect49496"
       d="m 36.90156,122.71989 c 0.831696,-1.81518 32.136082,-1.74537 36.596996,0 1.360957,1.25668 1.965827,18.83145 -0.529263,19.1107 -2.34387,2.23409 -34.78045,1.7797 -36.294559,0.62834 -1.133237,-0.86173 -1.587784,-18.83144 0.226826,-19.73904 z"
       style="opacity:0.875;fill:#999999;fill-opacity:1;stroke:none;stroke-width:0.11845408;stroke-linejoin:round;stroke-miterlimit:4;stroke-dasharray:none;stroke-opacity:0.97175137" />
    <path
       inkscape:connector-curvature="0"
       id="path49494"
       d="m 37.269718,143.30062 c -1.641726,-0.64434 -1.803348,-1.59457 -1.803348,-10.60246 0,-8.6181 0,-8.6181 1.184803,-9.66955 0.651642,-0.57829 1.906815,-1.21394 2.789275,-1.41254 1.014238,-0.22826 7.228924,-0.36098 16.893825,-0.36076 20.576488,3.7e-4 18.888124,-0.98916 18.718084,10.97136 -0.122927,8.64687 -0.122927,8.64687 -1.155993,9.6823 -0.568185,0.56949 -1.705467,1.20373 -2.527298,1.40941 -1.972575,0.49371 -32.837149,0.47762 -34.099348,-0.0178 z m 34.717949,-1.05781 c 2.057419,-1.09405 2.321925,-2.20712 2.321925,-9.77101 0,-7.72677 -0.261904,-8.73763 -2.557796,-9.87221 -1.306397,-0.6456 -2.051043,-0.67602 -16.574417,-0.67722 -12.68509,-0.001 -15.404566,0.0817 -16.40064,0.49925 -2.429502,1.01833 -2.483917,1.2385 -2.483917,10.05018 0,8.63256 0.07681,8.98184 2.190626,9.96194 1.290086,0.59816 7.836312,0.78195 20.969628,0.58874 10.114957,-0.14881 11.511591,-0.23568 12.534591,-0.77967 z m -32.223892,-0.70343 c -0.704624,-0.24864 -1.401002,-0.70525 -1.547504,-1.0147 -0.218464,-0.46145 -0.07094,-0.43803 0.820336,0.13023 0.940358,0.59955 1.705219,0.69805 5.679761,0.73138 3.569034,0.0299 4.224546,0.1003 2.940161,0.31564 -2.52326,0.42304 -6.463123,0.3419 -7.892754,-0.16255 z m 31.24001,-17.1062 c -0.376607,-0.36781 -1.414169,-0.50758 -3.872935,-0.52171 -1.847182,-0.0106 -4.102321,-0.14401 -5.01142,-0.29643 -1.299481,-0.21787 -0.707245,-0.28535 2.769834,-0.31564 4.414966,-0.0385 6.277427,0.2894 6.698657,1.17915 0.282918,0.5976 0.05617,0.57999 -0.584136,-0.0454 z"
       style="fill:#000000;stroke-width:0.37203047" />
  </g>
  <g
     inkscape:label="text"
     id="layer3"
     inkscape:groupmode="layer">
    <text
       transform="scale(0.93823763,1.0658281)"
       id="text49550"
       y="26.302755"
       x="4.1129389"
       style="font-style:normal;font-variant:normal;font-weight:normal;font-stretch:normal;font-size:4.17863178px;font-family:Insaniburger;-inkscape-font-specification:Insaniburger;opacity:1;vector-effect:none;fill:#000000;fill-opacity:1;stroke:none;stroke-width:0.04896833;stroke-linecap:butt;stroke-linejoin:miter;stroke-miterlimit:4;stroke-dasharray:none;stroke-dashoffset:0;stroke-opacity:1"
       xml:space="preserve"><tspan
         style="font-style:normal;font-variant:normal;font-weight:normal;font-stretch:normal;font-family:Insaniburger;-inkscape-font-specification:Insaniburger;stroke-width:0.04896833"
         y="26.302755"
         x="4.1129389"
         id="tspan49548"
         sodipodi:role="line">doomsday Engine</tspan></text>
  </g>
  <g
     style="display:inline"
     inkscape:label="icon_development"
     id="layer5"
     inkscape:groupmode="layer">
    <g
       transform="matrix(0.09345129,0,0,0.08906515,23.447707,-20.751848)"
       id="g55062">
      <path
         inkscape:connector-curvature="0"
         id="path55037"
         d="m -18.197595,491.89564 c -0.398137,-0.11988 -1.125326,-0.46607 -1.615975,-0.76931 l -0.892087,-0.55134 -0.586293,-1.12618 -0.58629,-1.12618 -0.575858,-3.2588 -0.575858,-3.25879 -1.719791,-0.71202 c -2.62759,-1.08786 -4.246182,-1.99997 -6.327333,-3.56559 l -1.900018,-1.42936 -3.228512,1.1756 -3.228512,1.1756 -1.517292,-0.10699 -1.51729,-0.107 -0.996249,-0.80627 -0.99625,-0.80628 -1.83826,-3.14588 -1.83825,-3.14589 -0.11293,-1.53737 -0.11294,-1.53738 0.46407,-1.0291 0.46406,-1.02911 2.74218,-2.29637 2.742192,-2.29637 -0.196729,-1.48715 c -0.253362,-1.91527 -0.253023,-6.61768 5.29e-4,-8.5358 l 0.197345,-1.49241 -2.578597,-2.17071 -2.57859,-2.17071 -0.59396,-0.96709 -0.59396,-0.96709 -10e-4,-1.5817 -0.001,-1.58169 1.75142,-3.04852 c 0.96328,-1.67668 2.12076,-3.43859 2.57217,-3.91535 l 0.820761,-0.86684 0.955169,-0.28618 0.955167,-0.28618 1.3013,0.11694 1.301301,0.11694 2.829321,1.03276 2.829319,1.03275 0.742556,-0.5887 c 1.966095,-1.55874 4.872633,-3.31213 6.945132,-4.18971 l 2.291207,-0.97019 0.46736,-2.81092 c 0.257048,-1.546 0.605274,-3.2843 0.77384,-3.86289 l 0.306504,-1.05199 0.938742,-0.93874 0.938741,-0.93874 1.082681,-0.32438 1.08268,-0.32438 h 3.48353 3.483531 l 0.983689,0.41091 c 1.124982,0.46993 2.328791,1.53382 2.828247,2.49951 0.188159,0.3638 0.604467,2.14788 0.925132,3.96461 0.637169,3.60992 0.668761,3.7083 1.190723,3.7083 0.698791,0 5.748162,2.70586 7.442461,3.98827 0.947113,0.71687 1.877494,1.3034 2.067513,1.3034 0.190015,0 1.62928,-0.47625 3.198362,-1.05833 l 2.852878,-1.05834 h 1.29608 1.296082 l 0.981647,0.50102 c 0.539906,0.27555 1.177454,0.72204 1.416772,0.99218 0.506039,0.57123 2.628495,4.13567 3.589681,6.0285 l 0.66217,1.30399 -0.11167,1.54384 -0.11167,1.54383 -0.535207,0.72405 c -0.294365,0.39823 -1.687425,1.72121 -3.095691,2.93997 l -2.560484,2.21591 0.202414,1.75284 c 0.259019,2.24301 0.258874,5.76174 -2.64e-4,8.00684 l -0.20275,1.7561 2.478971,2.08036 c 1.363432,1.1442 2.759612,2.48143 3.102623,2.97163 l 0.623654,0.89128 0.09322,1.62226 0.09322,1.62228 -1.627759,2.91041 c -0.895268,1.60073 -1.921635,3.29847 -2.280817,3.77276 l -0.653055,0.86234 -1.032465,0.52672 -1.032465,0.52672 -1.267312,-0.005 -1.267312,-0.005 -3.15179,-1.14986 -3.151791,-1.14986 -1.586968,1.2788 -1.586965,1.27879 -2.878246,1.46366 c -1.583103,0.80499 -3.045275,1.46363 -3.24934,1.46363 -0.544065,0 -0.586306,0.13064 -1.194096,3.69296 -0.625454,3.66584 -0.90079,4.34658 -2.230123,5.51375 l -0.932325,0.81859 -0.999421,0.27754 -0.999419,0.27755 -3.307291,-0.0213 c -1.819011,-0.0117 -3.633042,-0.11935 -4.031181,-0.23923 z m 5.89394,-26.46149 c 0.7732,-0.14664 2.039921,-0.55691 2.814936,-0.91173 l 1.409121,-0.64511 1.409549,-1.3331 1.409546,-1.33309 0.689943,-1.40904 c 0.379469,-0.77498 0.832004,-1.97323 1.005637,-2.66279 l 0.315695,-1.25373 -0.135781,-1.77313 -0.135782,-1.77313 -0.582745,-1.53051 -0.582744,-1.5305 -1.421662,-1.53556 -1.421662,-1.53557 -1.535292,-0.8183 -1.535292,-0.8183 -1.734659,-0.31963 -1.734659,-0.31962 -1.692891,0.2982 -1.692894,0.29819 -1.402977,0.68642 -1.402977,0.68641 -1.328983,1.29447 -1.328981,1.29447 -0.849125,1.79262 -0.849122,1.79262 v 2.77813 2.77812 l 0.822688,1.73613 0.822685,1.73613 1.310862,1.30658 1.310862,1.30658 1.306034,0.65208 c 1.246478,0.62234 3.58087,1.26274 4.775652,1.31012 0.307559,0.0122 1.191818,-0.0978 1.965018,-0.24443 z m -84.941918,10.55379 -1.45521,-0.23429 -1.868117,-0.91509 -1.86811,-0.9151 -1.51457,-1.58786 -1.51457,-1.58786 -0.85065,-1.79589 -0.85065,-1.79589 v -48.03559 -48.0356 l 0.99266,-2.00851 0.99266,-2.00851 1.43984,-1.43984 1.43984,-1.43984 1.66854,-0.81615 1.668537,-0.81616 1.56995,-0.28583 1.56995,-0.28584 h 51.23198 51.231974 l 1.542939,0.28523 c 2.03799,0.37674 3.939048,1.24653 5.586317,2.55591 l 1.343528,1.06793 0.951293,1.43318 c 0.523208,0.78825 1.198544,2.16714 1.50074,3.06421 l 0.549453,1.63102 v 25.40834 c 0,13.97459 -0.02977,25.40681 -0.06615,25.40493 -0.03638,-0.002 -0.820894,-0.24 -1.743364,-0.52916 l -1.67722,-0.52576 -2.291529,-7.9e-4 -2.291533,-7.9e-4 -1.884153,0.55843 -1.884153,0.55843 -0.695534,-0.45573 -0.695534,-0.45582 v -13.8602 -13.86019 h -49.344784 -49.34479 v 34.26354 34.26354 h 18.49309 18.49309 l -0.52158,1.65364 -0.52158,1.65365 0.0996,2.91042 0.0996,2.91041 0.73434,1.71979 c 0.40389,0.94589 0.79876,1.92816 0.8775,2.18282 l 0.14315,0.46302 -19.94075,-0.0309 -19.94076,-0.0309 z m 10.95389,-92.66688 c 1.20851,-0.92178 1.73375,-1.71705 2.04298,-3.09331 l 0.24302,-1.08164 -0.29433,-1.10653 c -0.16189,-0.60859 -0.59787,-1.50763 -0.96886,-1.99787 l -0.67452,-0.89134 -1.19198,-0.52727 -1.19198,-0.52727 -1.41901,0.11768 -1.419,0.11768 -0.98959,0.7871 -0.98958,0.7871 -0.59532,1.16521 -0.59531,1.1652 v 0.87848 c 0,1.80715 1.38702,3.9652 3.04271,4.73414 l 0.79375,0.36863 1.62188,-0.0806 1.62189,-0.0806 z m 14.2603,0.53057 c 0.47054,-0.19661 1.23413,-0.78866 1.69686,-1.31569 l 0.84133,-0.95822 0.27754,-0.99942 c 0.15265,-0.54968 0.27754,-1.17801 0.27754,-1.39629 0,-0.9051 -0.59185,-2.41866 -1.25304,-3.20443 l -0.70649,-0.83962 -1.06928,-0.48571 -1.06928,-0.4857 -1.13502,-0.006 -1.13502,-0.006 -0.98165,0.50341 c -1.76002,0.9026 -2.96602,2.74194 -2.96602,4.52367 0,1.74756 1.42843,3.93153 3.04271,4.65207 l 0.79375,0.3543 1.26527,0.0104 1.26527,0.0104 0.85553,-0.35746 z m 15.08125,0 c 0.47054,-0.19661 1.23413,-0.78866 1.69686,-1.31569 l 0.84133,-0.95822 0.27754,-0.99942 c 0.34511,-1.24273 0.34558,-1.54818 0.004,-2.77714 -0.35235,-1.26867 -1.37766,-2.47603 -2.65693,-3.12867 l -1.01451,-0.51756 h -1.2117 -1.21171 l -1.01451,0.51756 c -1.27927,0.65264 -2.30459,1.86 -2.65693,3.12867 -0.34132,1.22896 -0.34085,1.53441 0.004,2.77714 l 0.27754,0.99942 0.84054,0.95733 c 0.4623,0.52653 1.19995,1.11393 1.63922,1.30533 l 0.79866,0.348 1.26527,0.0104 1.26527,0.0104 0.85553,-0.35746 z"
         style="fill:#8c8c8c;fill-opacity:1;stroke-width:0.26458332" />
      <path
         inkscape:connector-curvature="0"
         id="path55035"
         d="m -17.012326,491.98232 c -0.108238,-0.0245 -0.650385,-0.12049 -1.204769,-0.21339 l -1.007975,-0.16891 -1.011632,-0.91395 c -1.2656,-1.14339 -1.449472,-1.61825 -2.144569,-5.53844 -0.309632,-1.74625 -0.605433,-3.21802 -0.657339,-3.27061 -0.05191,-0.0526 -0.986692,-0.48352 -2.077305,-0.95763 -2.491168,-1.08295 -3.944156,-1.93301 -6.12327,-3.58238 l -1.720527,-1.30226 -3.216786,1.183 -3.216788,1.183 -1.078751,-0.006 -1.078751,-0.006 -1.089049,-0.49456 -1.089046,-0.49455 -0.66289,-0.8887 c -0.36459,-0.48878 -1.40693,-2.22732 -2.31632,-3.86342 l -1.65343,-2.97473 0.11521,-1.59289 0.11522,-1.59289 0.53521,-0.72405 c 0.29436,-0.39822 1.69107,-1.72435 3.10378,-2.94694 l 2.568583,-2.2229 -0.21051,-1.87814 c -0.261541,-2.33345 -0.268992,-5.23739 -0.02011,-7.83127 l 0.19041,-1.98438 -2.548133,-2.11666 c -1.40148,-1.16417 -2.78914,-2.44249 -3.08369,-2.84072 l -0.53555,-0.72405 -0.11167,-1.54384 -0.11167,-1.54383 0.66217,-1.30399 c 0.96119,-1.89283 3.08364,-5.45728 3.58968,-6.0285 0.23932,-0.27014 0.876867,-0.71663 1.416773,-0.99219 l 0.981657,-0.50099 h 1.184381 1.184381 l 3.205199,1.17875 3.2052,1.17874 1.640231,-1.32734 1.640231,-1.32733 2.778125,-1.39271 c 1.527969,-0.76599 3.025151,-1.45642 3.327069,-1.5343 l 0.548942,-0.1416 0.595868,-3.41033 0.595868,-3.41033 0.572138,-1.01814 0.572135,-1.01813 1.193469,-0.70166 1.193469,-0.70166 h 4.233333 4.233333 l 0.897991,0.52917 c 0.493892,0.29104 1.241988,0.95481 1.662435,1.47505 l 0.764445,0.94588 0.653404,3.53072 c 0.359373,1.9419 0.706022,3.58334 0.770329,3.64765 0.06431,0.0643 0.99455,0.49844 2.067208,0.96474 2.288537,0.99487 4.707361,2.4276 6.527871,3.86663 l 1.301028,1.02841 3.211618,-1.1811 3.211616,-1.18111 h 1.090305 1.090303 l 1.147159,0.55533 1.147159,0.55533 0.742543,1.09832 c 0.408398,0.60407 1.380355,2.22217 2.159905,3.59577 l 1.417362,2.49745 0.101058,1.33901 0.101055,1.339 -0.612606,1.18751 -0.612606,1.1875 -2.570517,2.11979 -2.570517,2.11978 0.188646,2.38125 c 0.236413,2.98423 0.236413,4.15953 0,7.14375 l -0.188646,2.38125 2.570517,2.11979 2.570517,2.11979 0.612606,1.1875 0.612606,1.18751 -0.101055,1.339 -0.101058,1.33901 -1.417362,2.49745 c -0.77955,1.3736 -1.751507,2.99169 -2.159905,3.59577 l -0.742543,1.09831 -1.147159,0.55533 -1.147159,0.55533 h -1.090303 -1.090305 l -3.197307,-1.17584 -3.19731,-1.17583 -1.702411,1.28855 c -2.001607,1.51501 -4.455506,2.91785 -6.488625,3.70941 -0.800365,0.31161 -1.540852,0.64964 -1.645529,0.75118 -0.104674,0.10155 -0.48452,1.77685 -0.8441,3.7229 l -0.653783,3.53827 -0.760393,0.95454 c -0.418219,0.52499 -1.175028,1.16113 -1.681803,1.41365 l -0.921406,0.45911 -3.495008,0.0701 c -1.922254,0.0385 -3.583567,0.05 -3.691806,0.0256 z m 6.756461,-27.02814 c 0.768353,-0.29235 1.997702,-0.9881 2.731884,-1.54613 l 1.334878,-1.01459 1.036092,-1.548 1.036093,-1.54801 0.399211,-1.34429 0.399209,-1.34428 v -1.75604 -1.75604 l -0.393301,-1.32439 c -0.216318,-0.72841 -0.858443,-2.04405 -1.426948,-2.92364 l -1.033642,-1.59925 -1.533107,-1.09783 -1.533104,-1.09783 -1.698027,-0.52447 -1.698027,-0.52447 -1.361194,0.003 c -1.760278,0.004 -3.737462,0.53887 -5.461746,1.47734 l -1.375444,0.74861 -1.152628,1.282 c -0.633945,0.7051 -1.451362,1.90019 -1.816479,2.65577 l -0.66385,1.37377 -0.259466,1.65364 -0.259466,1.65365 0.262641,1.63085 0.262644,1.63086 0.652139,1.37851 c 1.307561,2.76396 3.941033,4.94766 6.995255,5.80055 l 1.455209,0.40636 1.852083,-0.10713 1.852083,-0.10712 1.397008,-0.53154 z m -88.640198,10.55154 c -3.874197,-1.23848 -6.990707,-4.48997 -7.993047,-8.3392 l -0.41063,-1.57694 V 419.13409 372.6786 l 0.41063,-1.57694 c 0.51824,-1.99015 1.44417,-3.5774 3.1243,-5.35573 l 1.32037,-1.39754 1.87183,-0.92318 1.871827,-0.92318 2.24896,-0.25696 2.24895,-0.25696 h 49.60938 49.609369 l 2.220542,0.25529 2.220542,0.25529 1.684319,0.78819 1.684316,0.78819 1.478391,1.3982 c 1.727304,1.63361 2.619357,3.05514 3.31029,5.27512 l 0.498475,1.6016 v 25.21639 25.21639 l -1.653646,-0.5281 -1.653646,-0.52809 -2.513541,0.005 -2.513542,0.005 -1.695341,0.53644 -1.695342,0.53645 -0.752054,-0.3889 -0.752054,-0.38891 v -13.88457 -13.88383 h -49.477078 -49.47708 v 34.26354 34.26354 h 18.52083 18.52083 l -0.003,0.19844 c -0.002,0.10914 -0.16526,0.73421 -0.36374,1.38906 -0.19849,0.65484 -0.44297,1.905 -0.54329,2.77812 l -0.1824,1.5875 0.29595,1.84422 0.29596,1.84422 0.75367,1.7938 0.75367,1.7938 -20.67796,-0.0142 -20.67796,-0.0142 z m 11.96924,-91.70117 c 1.58043,-0.81707 2.91605,-2.96915 2.9046,-4.68019 -0.012,-1.79603 -1.58006,-4.05611 -3.25256,-4.68802 -0.40965,-0.15478 -1.34594,-0.28141 -2.08064,-0.28141 h -1.33581 l -1.02458,0.57584 -1.02457,0.57584 -0.71591,1.03305 -0.7159,1.03306 -0.10232,1.49995 -0.10232,1.49996 0.62645,1.16976 c 0.71259,1.33063 1.50237,1.99945 3.0024,2.54262 l 1.04303,0.37768 1.05833,-0.15809 c 0.58209,-0.0869 1.35599,-0.31197 1.7198,-0.50005 z m 15.51869,-0.27849 1.0989,-0.63221 0.68704,-1.3787 0.68703,-1.37871 -0.006,-0.94023 -0.006,-0.94024 -0.48999,-1.05834 c -0.92679,-2.0018 -2.5202,-3.0427 -4.65774,-3.0427 -1.51015,0 -2.44472,0.37128 -3.53728,1.40529 -1.10586,1.04658 -1.6221,2.21205 -1.6221,3.66205 v 1.11558 l 0.55188,1.14003 0.55187,1.14002 0.80678,0.57448 c 0.44373,0.31596 1.23718,0.73104 1.76323,0.92239 l 0.95645,0.34792 1.05833,-0.15221 c 0.58209,-0.0837 1.55284,-0.4367 2.15724,-0.78442 z m 14.95463,0.0961 1.00482,-0.56474 0.69692,-1.00566 0.69692,-1.00565 0.13134,-1.16526 0.13134,-1.16525 -0.32347,-0.98011 c -0.41542,-1.25873 -1.74121,-2.76629 -2.8345,-3.22309 l -0.85553,-0.35746 h -1.20762 -1.20763 l -0.85553,0.35746 c -0.47054,0.1966 -1.23525,0.78994 -1.69935,1.31853 l -0.84383,0.96107 -0.31051,1.03638 -0.31051,1.03639 0.17695,1.18002 0.17696,1.18002 0.63526,0.86105 c 0.75883,1.02853 1.48773,1.56635 2.76219,2.03807 l 0.94683,0.35046 1.04206,-0.14375 c 0.57314,-0.0791 1.49423,-0.39788 2.04689,-0.70848 z"
         style="fill:#606060;fill-opacity:1;stroke-width:0.26458332" />
      <path
         inkscape:connector-curvature="0"
         style="fill:#000000;fill-opacity:1;stroke-width:0.26458332"
         d="m -19.061206,491.45392 c -1.613905,-0.85274 -2.546323,-2.17472 -2.861722,-4.05733 -0.08533,-0.50933 -0.35192,-2.02737 -0.592426,-3.37344 l -0.437285,-2.4474 h -0.310206 c -0.170613,0 -1.61676,-0.64942 -3.213658,-1.44315 l -2.903452,-1.44316 -1.792412,-1.36089 -1.792412,-1.36089 -3.322272,1.21655 -3.322272,1.21654 -0.838441,-0.006 c -1.122582,-0.008 -2.798903,-0.81222 -3.639939,-1.74676 -0.37666,-0.41853 -1.43831,-2.06562 -2.35923,-3.6602 l -1.67439,-2.89923 -0.11803,-1.22843 -0.11804,-1.22843 0.51775,-1.17047 0.51775,-1.17046 2.78079,-2.3325 2.780791,-2.3325 -0.235074,-1.23292 c -0.304845,-1.59886 -0.303345,-7.48934 0.0024,-9.09279 l 0.237387,-1.24531 -2.731144,-2.28712 -2.73114,-2.28712 -0.57184,-1.18127 -0.57185,-1.18127 0.11996,-1.23943 0.11997,-1.23943 1.76734,-3.076 c 2.4339,-4.23623 3.572102,-5.25837 5.855393,-5.25837 h 0.936564 l 3.287149,1.21056 3.287148,1.21056 1.936348,-1.45164 c 2.131692,-1.59808 5.405903,-3.40487 7.078101,-3.90587 l 1.075955,-0.32237 0.0078,-0.28885 c 0.0043,-0.15886 0.294701,-1.82368 0.645395,-3.6996 l 0.63763,-3.41076 0.750295,-0.92702 c 0.412663,-0.50985 1.162174,-1.1479 1.665581,-1.41788 l 0.915273,-0.49088 h 4.214214 4.214215 l 1.124698,0.65912 1.124699,0.65912 0.569061,0.92076 0.569058,0.92075 0.641527,3.51336 c 0.352838,1.93234 0.642906,3.54312 0.644591,3.5795 0.0016,0.0364 0.151895,0.0679 0.333796,0.0699 0.181901,0.002 1.521354,0.57783 2.976562,1.27943 l 2.645833,1.27564 1.749862,1.32848 c 0.962424,0.73067 1.883444,1.41105 2.046708,1.51195 l 0.296844,0.18346 3.320967,-1.20388 3.320968,-1.20389 h 0.792385 c 1.007642,0 2.572218,0.64997 3.374117,1.40169 0.690544,0.64734 3.2624,4.90317 4.079947,6.75137 l 0.525846,1.18876 -0.160605,1.17174 c -0.240662,1.75582 -0.830908,2.53325 -3.785388,4.98586 l -2.694599,2.23687 0.181057,0.98758 c 0.233564,1.27399 0.235297,8.36516 0.0024,9.63358 l -0.178702,0.97308 2.694445,2.25639 2.694443,2.25639 0.517128,0.87158 0.517128,0.87157 0.0098,1.45521 0.0098,1.45521 -1.5875,2.86039 c -0.873125,1.57322 -1.936266,3.28524 -2.362533,3.80448 l -0.775034,0.94409 -1.077049,0.48919 c -0.592379,0.26905 -1.466848,0.4918 -1.943264,0.49499 l -0.866214,0.006 -3.220019,-1.19062 c -1.77101,-0.65484 -3.286794,-1.19063 -3.36841,-1.19063 -0.08162,0 -1.022189,0.65735 -2.090158,1.46077 l -1.941767,1.46076 -2.685293,1.31736 c -1.476944,0.72454 -2.834992,1.31735 -3.017914,1.31735 -0.182922,0 -0.332587,0.0412 -0.332587,0.0914 0,0.0503 -0.292954,1.67444 -0.651009,3.60921 l -0.65101,3.51778 -0.654447,0.98894 -0.65445,0.98894 -1.159327,0.56122 -1.159327,0.56122 -4.083651,-0.0106 -4.083653,-0.0106 -0.79375,-0.4194 z"
         id="path55052" />
      <path
         inkscape:connector-curvature="0"
         style="fill:#ffffff;fill-opacity:1;stroke-width:0.26458332"
         d="m -9.276311,464.53823 1.947582,-0.96255 1.199385,-1.334 c 0.659662,-0.7337 1.532197,-2.01173 1.93897,-2.84007 l 0.739584,-1.50606 v -3.04271 -3.04271 l -0.697222,-1.48696 c -1.293868,-2.75943 -3.596878,-4.78267 -6.600759,-5.7989 l -1.697852,-0.57439 -2.116666,0.12289 -2.116667,0.12289 -1.530503,0.58852 -1.530504,0.58852 -1.59821,1.47967 -1.598208,1.47965 -0.761359,1.50825 -0.761363,1.50825 -0.322847,1.75216 -0.322847,1.75216 0.323181,1.75397 0.323183,1.75398 0.665146,1.3126 c 1.316403,2.5978 3.669779,4.62133 6.452873,5.54847 l 1.455208,0.48477 2.331156,-0.10293 2.331157,-0.10292 z"
         id="path55050" />
      <path
         inkscape:connector-curvature="0"
         style="fill:#000000;fill-opacity:1;stroke-width:0.26458332"
         d="m -98.893483,475.39915 -1.780187,-0.6067 -1.51018,-1.04009 -1.51017,-1.0401 -1.12489,-1.52805 c -0.61869,-0.84043 -1.40021,-2.20966 -1.73671,-3.04273 l -0.61183,-1.51468 -0.0704,-46.69896 -0.0705,-46.69896 0.27749,-1.34011 c 0.15262,-0.73706 0.62818,-2.08165 1.05681,-2.98798 l 0.77932,-1.64788 1.45302,-1.45301 1.45301,-1.45302 2.05855,-0.98295 2.058537,-0.98296 52.91667,-0.0778 52.916662,-0.0778 1.661282,0.43996 1.661284,0.43996 1.522662,0.98415 c 2.555586,1.65175 4.437318,4.2659 5.245623,7.28733 l 0.353909,1.32292 0.0031,25.0282 0.0031,25.02821 -1.521355,-0.52983 -1.521354,-0.52982 -2.778125,-0.002 -2.778124,-0.002 -1.5875,0.52063 -1.5875,0.52063 -0.727131,-0.4112 -0.727133,-0.41121 -5.29e-4,-13.82447 -4.31e-4,-13.82442 h -49.47699 -49.47708 v 34.26354 34.26354 h 18.54914 18.54914 l -0.18322,0.46302 c -0.39893,1.00815 -0.92254,3.97405 -0.92254,5.22552 0,1.88294 0.62964,4.60667 1.43007,6.18624 l 0.68632,1.35438 -20.57581,-0.007 -20.57581,-0.007 z"
         id="path55048" />
      <path
         inkscape:connector-curvature="0"
         style="fill:#ffffff;fill-opacity:1;stroke-width:0.26458332"
         d="m -86.267073,383.48278 1.06004,-0.73597 0.59531,-1.17701 0.59531,-1.177 v -1.22524 -1.22524 l -0.61502,-1.16609 -0.61502,-1.1661 -0.88015,-0.59587 c -0.48408,-0.32773 -1.35673,-0.72421 -1.93923,-0.88106 l -1.05908,-0.28518 -1.21606,0.30564 c -1.55427,0.39064 -2.79985,1.34325 -3.46746,2.65189 l -0.52673,1.03246 v 1.35962 1.35961 l 0.40908,0.86208 c 0.55782,1.1755 1.7077,2.22641 2.93453,2.68192 l 1.02202,0.37948 1.32121,-0.13098 1.32122,-0.13098 z"
         id="path55046" />
      <path
         inkscape:connector-curvature="0"
         style="fill:#ffffff;fill-opacity:1;stroke-width:0.26458332"
         d="m -72.581393,384.19745 c 0.54118,-0.1503 1.36179,-0.5912 1.82358,-0.97977 l 0.83962,-0.70649 0.4857,-1.06928 0.48571,-1.06928 0.006,-1.21515 0.006,-1.21516 -0.61502,-1.16609 -0.61502,-1.1661 -0.88015,-0.59587 c -0.48408,-0.32773 -1.35674,-0.72421 -1.93923,-0.88106 l -1.05908,-0.28518 -1.21606,0.30564 c -1.55427,0.39064 -2.79985,1.34325 -3.46746,2.65189 l -0.52673,1.03246 v 1.344 1.344 l 0.50342,0.98164 c 1.21393,2.36713 3.59415,3.40493 6.1691,2.6898 z"
         id="path55044" />
      <path
         inkscape:connector-curvature="0"
         style="fill:#ffffff;fill-opacity:1;stroke-width:0.26458332"
         d="m -57.500153,384.19745 c 0.54119,-0.1503 1.3618,-0.5912 1.82359,-0.97977 l 0.83962,-0.70649 0.4857,-1.06928 0.48571,-1.06928 v -1.19062 -1.19063 l -0.49456,-1.08904 -0.49456,-1.08905 -0.88869,-0.677 -0.88869,-0.67699 -1.21607,-0.30564 -1.21606,-0.30564 -1.16519,0.31013 c -0.64085,0.17058 -1.5651,0.61276 -2.05388,0.98264 l -0.88869,0.6725 -0.49456,1.08905 -0.49456,1.08904 v 1.19063 1.19062 l 0.48845,1.05834 c 1.10645,2.39735 3.55311,3.49394 6.17244,2.76648 z"
         id="path55033" />
    </g>
  </g>
</svg>
