<?xml version="1.0" encoding="UTF-8" standalone="no"?>
<!-- Created with Inkscape (http://www.inkscape.org/) -->

<svg
   xmlns:dc="http://purl.org/dc/elements/1.1/"
   xmlns:cc="http://creativecommons.org/ns#"
   xmlns:rdf="http://www.w3.org/1999/02/22-rdf-syntax-ns#"
   xmlns:svg="http://www.w3.org/2000/svg"
   xmlns="http://www.w3.org/2000/svg"
   xmlns:sodipodi="http://sodipodi.sourceforge.net/DTD/sodipodi-0.dtd"
   xmlns:inkscape="http://www.inkscape.org/namespaces/inkscape"
   width="150"
   height="150"
   viewBox="0 0 39.6875 39.6875"
   version="1.1"
   id="svg922"
   inkscape:version="0.92.4 (5da689c313, 2019-01-14)"
   sodipodi:docname="USO_server_akaunting.svg">
  <title
     id="title1437">USOICON</title>
  <defs
     id="defs916">
    <clipPath
       id="clipPath1521"
       clipPathUnits="userSpaceOnUse">
      <rect
         y="66.644836"
         x="57.114269"
         height="151.42299"
         width="172.87534"
         id="rect1523"
         style="opacity:0.875;fill:#000000;fill-opacity:1;stroke:#000000;stroke-width:0.60403091;stroke-linejoin:round;stroke-miterlimit:4;stroke-dasharray:none;stroke-opacity:1" />
    </clipPath>
  </defs>
  <sodipodi:namedview
     id="base"
     pagecolor="#ffffff"
     bordercolor="#666666"
     borderopacity="1.0"
     inkscape:pageopacity="0.0"
     inkscape:pageshadow="2"
     inkscape:zoom="1.8018275"
     inkscape:cx="74.369271"
     inkscape:cy="76.23962"
     inkscape:document-units="px"
     inkscape:current-layer="layer3"
     showgrid="false"
     inkscape:window-width="874"
     inkscape:window-height="591"
     inkscape:window-x="2670"
     inkscape:window-y="80"
     inkscape:window-maximized="0"
     units="px" />
  <metadata
     id="metadata919">
    <rdf:RDF>
      <cc:Work
         rdf:about="">
        <dc:format>image/svg+xml</dc:format>
        <dc:type
           rdf:resource="http://purl.org/dc/dcmitype/StillImage" />
        <dc:title>USOICON</dc:title>
        <cc:license
           rdf:resource="http://creativecommons.org/licenses/by-sa/4.0/" />
      </cc:Work>
      <cc:License
         rdf:about="http://creativecommons.org/licenses/by-sa/4.0/">
        <cc:permits
           rdf:resource="http://creativecommons.org/ns#Reproduction" />
        <cc:permits
           rdf:resource="http://creativecommons.org/ns#Distribution" />
        <cc:requires
           rdf:resource="http://creativecommons.org/ns#Notice" />
        <cc:requires
           rdf:resource="http://creativecommons.org/ns#Attribution" />
        <cc:permits
           rdf:resource="http://creativecommons.org/ns#DerivativeWorks" />
        <cc:requires
           rdf:resource="http://creativecommons.org/ns#ShareAlike" />
      </cc:License>
    </rdf:RDF>
  </metadata>
  <g
     style="display:inline"
     transform="translate(-35.46637,-112.59198)"
     id="layer1"
     inkscape:groupmode="layer"
     inkscape:label="toonbox">
    <path
       sodipodi:nodetypes="cccsc"
       inkscape:connector-curvature="0"
       id="rect49496"
       d="m 36.90156,122.71989 c 0.831696,-1.81518 32.136082,-1.74537 36.596996,0 1.360957,1.25668 1.965827,18.83145 -0.529263,19.1107 -2.34387,2.23409 -34.78045,1.7797 -36.294559,0.62834 -1.133237,-0.86173 -1.587784,-18.83144 0.226826,-19.73904 z"
       style="opacity:0.875;fill:#999999;fill-opacity:1;stroke:none;stroke-width:0.11845408;stroke-linejoin:round;stroke-miterlimit:4;stroke-dasharray:none;stroke-opacity:0.97175137" />
    <path
       inkscape:connector-curvature="0"
       id="path49494"
       d="m 37.269718,143.30062 c -1.641726,-0.64434 -1.803348,-1.59457 -1.803348,-10.60246 0,-8.6181 0,-8.6181 1.184803,-9.66955 0.651642,-0.57829 1.906815,-1.21394 2.789275,-1.41254 1.014238,-0.22826 7.228924,-0.36098 16.893825,-0.36076 20.576488,3.7e-4 18.888124,-0.98916 18.718084,10.97136 -0.122927,8.64687 -0.122927,8.64687 -1.155993,9.6823 -0.568185,0.56949 -1.705467,1.20373 -2.527298,1.40941 -1.972575,0.49371 -32.837149,0.47762 -34.099348,-0.0178 z m 34.717949,-1.05781 c 2.057419,-1.09405 2.321925,-2.20712 2.321925,-9.77101 0,-7.72677 -0.261904,-8.73763 -2.557796,-9.87221 -1.306397,-0.6456 -2.051043,-0.67602 -16.574417,-0.67722 -12.68509,-0.001 -15.404566,0.0817 -16.40064,0.49925 -2.429502,1.01833 -2.483917,1.2385 -2.483917,10.05018 0,8.63256 0.07681,8.98184 2.190626,9.96194 1.290086,0.59816 7.836312,0.78195 20.969628,0.58874 10.114957,-0.14881 11.511591,-0.23568 12.534591,-0.77967 z m -32.223892,-0.70343 c -0.704624,-0.24864 -1.401002,-0.70525 -1.547504,-1.0147 -0.218464,-0.46145 -0.07094,-0.43803 0.820336,0.13023 0.940358,0.59955 1.705219,0.69805 5.679761,0.73138 3.569034,0.0299 4.224546,0.1003 2.940161,0.31564 -2.52326,0.42304 -6.463123,0.3419 -7.892754,-0.16255 z m 31.24001,-17.1062 c -0.376607,-0.36781 -1.414169,-0.50758 -3.872935,-0.52171 -1.847182,-0.0106 -4.102321,-0.14401 -5.01142,-0.29643 -1.299481,-0.21787 -0.707245,-0.28535 2.769834,-0.31564 4.414966,-0.0385 6.277427,0.2894 6.698657,1.17915 0.282918,0.5976 0.05617,0.57999 -0.584136,-0.0454 z"
       style="fill:#000000;stroke-width:0.37203047" />
  </g>
  <g
     inkscape:label="text"
     id="layer3"
     inkscape:groupmode="layer">
    <text
       transform="scale(0.90627323,1.10342)"
       id="text49550"
       y="25.403994"
       x="8.5470095"
       style="font-style:normal;font-variant:normal;font-weight:normal;font-stretch:normal;font-size:4.94612217px;font-family:Insaniburger;-inkscape-font-specification:Insaniburger;opacity:1;vector-effect:none;fill:#000000;fill-opacity:1;stroke:none;stroke-width:0.05796236;stroke-linecap:butt;stroke-linejoin:miter;stroke-miterlimit:4;stroke-dasharray:none;stroke-dashoffset:0;stroke-opacity:1"
       xml:space="preserve"><tspan
         style="font-style:normal;font-variant:normal;font-weight:normal;font-stretch:normal;font-family:Insaniburger;-inkscape-font-specification:Insaniburger;stroke-width:0.05796236"
         y="25.403994"
         x="8.5470095"
         id="tspan49548"
         sodipodi:role="line">akaunting</tspan></text>
  </g>
  <g
     style="display:inline"
     inkscape:label="icon_server"
     id="layer12"
     inkscape:groupmode="layer">
    <g
       transform="matrix(0.07288555,0,0,0.05540308,49.921805,7.7326885)"
       id="g55219">
      <path
         inkscape:connector-curvature="0"
         d="m -423.12973,295.18552 c -5.623,-0.63783 -5.26394,-8.98508 -11.30489,-6.92248 -23.03562,0 -46.07123,0 -69.10685,0 -5.4386,-2.56394 -0.7711,-8.24274 3.54951,-6.61459 23.28774,0 46.57548,0 69.86322,0 1.25558,-3.23993 3.8929,-5.87322 7.20684,-6.97349 0,-8.17064 0,-16.34128 0,-24.51192 -29.17353,-0.10359 -58.39941,0.20686 -87.54027,-0.1551 -7.44947,-1.15875 -12.26736,-8.70054 -11.03347,-15.90409 0.27466,-9.93899 -0.80635,-19.97555 0.4204,-29.84602 2.26186,-7.08865 10.02644,-10.24449 16.9992,-9.39271 27.05138,0 54.10276,0 81.15414,0 0,-3.96875 0,-7.9375 0,-11.90625 -29.11809,-0.0848 -58.27102,0.16921 -87.36738,-0.12684 -7.51764,-0.93762 -12.45622,-8.69608 -11.20636,-15.93235 0.27466,-9.93899 -0.80635,-19.97555 0.4204,-29.84602 2.2034,-6.8624 9.64071,-10.17406 16.47007,-9.37513 27.22775,-0.004 54.45551,-0.0106 81.68327,-0.0175 0,-3.96875 0,-7.9375 0,-11.90625 -29.2538,-0.10884 -58.56351,0.20959 -87.78238,-0.16628 -7.31016,-1.18731 -12.00236,-8.79506 -10.79136,-15.89263 0.27466,-9.93899 -0.80635,-19.97555 0.4204,-29.84602 2.20734,-6.83886 9.61239,-10.20245 16.4403,-9.3925 58.17698,0.0627 116.37064,-0.10939 174.53722,0.0998 7.80817,0.25158 13.78896,7.8877 12.75803,15.5341 -0.20181,9.91819 0.18244,19.94464 -0.37941,29.79631 -1.85359,7.46663 -9.69522,10.89595 -16.75156,9.86194 -27.19066,0.002 -54.38132,0.004 -81.57198,0.006 0,3.96875 0,7.9375 0,11.90625 28.67477,0.11451 57.3801,-0.0928 86.03417,0.13073 8.07639,0.24125 13.86328,8.35166 12.66547,16.12621 -0.20071,9.71047 0.18492,19.52926 -0.376,29.17318 -1.85359,7.46664 -9.69522,10.89595 -16.75156,9.86194 -27.19066,0.002 -54.38132,0.004 -81.57198,0.006 1.09284,3.95093 -3.22217,13.22843 3.30346,11.94402 27.66051,0.0985 55.35352,-0.27037 82.99384,0.11813 7.96816,0.38374 13.5738,8.42598 12.40195,16.10096 -0.20071,9.71047 0.18492,19.52927 -0.376,29.17319 -1.90186,7.66518 -10.02137,10.85833 -17.1745,9.86783 -27.04969,0 -54.09937,0 -81.14906,0 0.002,8.15799 0.004,16.31597 0.006,24.47396 3.24468,1.18546 6.02816,3.70849 7.16155,7.01145 24.33908,0 48.67816,0 73.01724,0 5.37513,1.04009 1.91618,8.46691 -2.68187,6.61459 -23.4327,0 -46.86541,0 -70.29812,0 -1.95967,5.89069 -8.56015,8.81657 -14.29168,6.92235 z m 5.31378,-6.2216 c 5.36346,-1.77155 2.12199,-9.75357 -2.72809,-8.10828 -5.22633,0.80281 -3.85742,8.9838 1.24697,8.42654 l 1.48112,-0.31823 z m -76.0142,-55.46963 c 1.66048,-4.50337 -5.77457,-2.03683 -8.3997,-2.64584 -3.19158,-1.84862 -6.07071,3.26584 -1.91368,3.175 3.31611,-0.34653 7.38548,0.69688 10.31338,-0.52916 z m 21.90155,0.11729 c 2.44317,-3.46078 -3.7308,-2.90074 -5.84828,-2.76313 -2.10959,-0.10778 -8.42703,-0.67845 -5.94023,2.76313 3.46539,0.98739 7.51793,0.11304 11.20047,0.41187 l 0.5104,-0.35749 z m 22.3487,-0.41498 c 0.93863,-4.03737 -6.11338,-1.76021 -8.70894,-2.34586 -6.48399,-0.93649 -2.75106,5.41095 1.99738,3.11964 2.09554,-0.42331 5.21327,0.76625 6.71156,-0.77378 z m 103.50874,-2.10224 c 7.02744,-2.15143 8.09104,-12.92136 1.46249,-16.27445 -6.07609,-4.2342 -15.70232,1.60045 -14.14702,9.07273 0.42861,5.72152 7.56495,9.35791 12.68453,7.20172 z m -6.14605,-3.1868 c -5.45808,-2.07833 -3.87735,-10.91129 1.97992,-11.2081 5.80346,-1.19396 9.47648,7.40386 4.47105,10.78129 -1.88078,1.09414 -4.49749,1.51167 -6.45097,0.42681 z m -141.61294,-4.20286 c 1.70399,-4.3414 -5.27225,-2.15572 -7.84464,-2.64583 -3.44462,-1.94953 -6.9333,3.22271 -2.16843,3.175 3.20379,-0.36107 7.20271,0.71663 10.01307,-0.52917 z m 21.90155,0.11729 c 2.44316,-3.46077 -3.73081,-2.90073 -5.84828,-2.76312 -2.10958,-0.10778 -8.42703,-0.67846 -5.94023,2.76312 3.46538,0.98741 7.51793,0.11304 11.20047,0.41188 l 0.51039,-0.35749 z m 22.18004,-0.25398 c 1.44514,-4.15792 -5.92223,-1.99963 -8.642,-2.50914 -6.0168,-1.40694 -3.23639,5.40971 1.46612,3.175 2.28034,-0.3815 5.37445,0.81308 7.17588,-0.66586 z m -43.92753,-9.7696 c 0.76375,-4.73425 -6.32902,-1.67823 -9.24501,-2.52912 -4.56785,-1.53889 -3.94807,4.93741 0.33844,3.16152 2.81323,-0.37444 6.56138,0.58401 8.90657,-0.6324 z m 21.74749,0.234 c 2.44316,-3.46078 -3.73081,-2.90072 -5.84828,-2.76312 -2.34088,-0.27759 -9.02906,-0.45032 -5.46993,3.175 3.69415,-0.28477 7.85472,0.55906 11.31821,-0.41188 z m 22.18004,-0.25399 c 1.44514,-4.1579 -5.92223,-1.99962 -8.642,-2.50913 -5.30054,-1.67736 -4.20164,5.03439 0.5558,3.175 2.56898,-0.40761 6.00748,0.86042 8.0862,-0.66587 z m -44.08159,-47.4883 c 1.18812,-4.93679 -6.6368,-1.74522 -9.61996,-2.64583 -4.16461,-1.17474 -3.16554,4.91815 0.55286,3.175 2.89845,-0.33952 6.56024,0.69036 9.0671,-0.52917 z m 21.90155,0.11729 c 2.44316,-3.46078 -3.73081,-2.90072 -5.84828,-2.76312 -2.10958,-0.10777 -8.42703,-0.67846 -5.94023,2.76312 3.46538,0.98741 7.51793,0.11304 11.20047,0.41188 l 0.51039,-0.35749 z m 22.3487,-0.41498 c 0.93862,-4.03737 -6.11338,-1.76021 -8.70894,-2.34586 -6.48399,-0.93649 -2.75105,5.41094 1.99738,3.11963 2.09554,-0.4233 5.21327,0.76624 6.71156,-0.77377 z m 104.23534,-2.4307 c 6.70307,-2.63115 6.99507,-13.22802 0.31739,-16.12932 -6.13555,-3.88577 -15.21285,1.9916 -13.72852,9.25561 0.49375,6.13034 8.20261,9.56307 13.41113,6.87371 z m -6.66892,-2.72052 c -7.01753,-2.54281 -2.65297,-13.20958 3.79938,-11.24827 5.904,0.64923 6.51878,9.91393 0.80741,11.42876 -1.37655,0.33878 -3.28332,0.47169 -4.60679,-0.18049 z m -141.81667,-4.34067 c 1.70399,-4.3414 -5.27225,-2.15572 -7.84464,-2.64583 -3.44463,-1.94953 -6.9333,3.22271 -2.16843,3.175 3.20379,-0.36107 7.20271,0.71663 10.01307,-0.52917 z m 21.90155,0.11729 c 2.44317,-3.46078 -3.73081,-2.90072 -5.84828,-2.76312 -2.10958,-0.10777 -8.42703,-0.67846 -5.94023,2.76312 3.46538,0.98741 7.51793,0.11304 11.20047,0.41188 l 0.51039,-0.35749 z m 22.2693,-0.29116 c 1.11353,-4.20603 -5.99567,-1.90336 -8.73126,-2.47196 -6.01681,-1.40694 -3.23639,5.40971 1.46612,3.175 2.2791,-0.41081 5.57582,0.86316 7.26514,-0.70304 z m -44.01679,-9.73243 c 0.76374,-4.73425 -6.32902,-1.67823 -9.24501,-2.52912 -4.56785,-1.53889 -3.94807,4.93741 0.33844,3.16152 2.81327,-0.37435 6.5612,0.58381 8.90657,-0.6324 z m 21.74749,0.23401 c 2.44317,-3.46078 -3.7308,-2.90074 -5.84828,-2.76313 -2.34087,-0.2776 -9.02906,-0.45031 -5.46993,3.175 3.69415,-0.28477 7.85471,0.55905 11.31821,-0.41187 z m 22.18004,-0.25399 c 1.44514,-4.15792 -5.92223,-1.99963 -8.642,-2.50914 -5.30054,-1.67736 -4.20164,5.03439 0.5558,3.175 2.56899,-0.40761 6.00746,0.8604 8.0862,-0.66586 z m -44.08159,-47.4883 c 1.18813,-4.93681 -6.63679,-1.74523 -9.61996,-2.64584 -4.1646,-1.17473 -3.16555,4.91815 0.55286,3.175 2.89845,-0.33951 6.56023,0.69034 9.0671,-0.52916 z m 21.90155,0.11729 c 2.44317,-3.46078 -3.7308,-2.90074 -5.84828,-2.76313 -2.10959,-0.10778 -8.42703,-0.67845 -5.94023,2.76313 3.46539,0.98739 7.51793,0.11304 11.20047,0.41187 l 0.5104,-0.35749 z m 22.3487,-0.41498 c 0.93863,-4.03737 -6.11338,-1.76021 -8.70894,-2.34586 -6.48399,-0.93649 -2.75106,5.41095 1.99738,3.11964 2.09554,-0.42331 5.21327,0.76625 6.71156,-0.77378 z m 103.50874,-2.10224 c 7.01487,-2.14917 8.09719,-12.8919 1.47474,-16.25222 -6.07393,-4.29832 -15.69794,1.58831 -14.15927,9.0505 0.42861,5.72154 7.56494,9.35788 12.68453,7.20172 z m -5.81003,-2.99462 c -6.10052,-2.23836 -4.10929,-11.23363 1.82521,-11.53259 5.3541,-0.75992 9.16748,6.71561 4.84116,10.26939 -1.5109,1.83888 -4.57849,2.01183 -6.66637,1.2632 z m -141.94896,-4.39504 c 1.70399,-4.3414 -5.27225,-2.15572 -7.84464,-2.64583 -3.44463,-1.94953 -6.9333,3.22271 -2.16843,3.175 3.20379,-0.36107 7.20271,0.71663 10.01307,-0.52917 z m 21.90155,0.11729 c 2.44316,-3.46078 -3.73081,-2.90072 -5.84828,-2.76312 -2.10958,-0.10777 -8.42703,-0.67846 -5.94023,2.76312 3.46538,0.98741 7.51793,0.11304 11.20047,0.41188 l 0.51039,-0.35749 z m 22.18004,-0.25398 c 1.44515,-4.15792 -5.92223,-1.99963 -8.642,-2.50914 -6.0168,-1.40694 -3.23639,5.40971 1.46612,3.175 2.28034,-0.3815 5.37445,0.81308 7.17588,-0.66586 z m -43.92753,-9.76961 c 0.76374,-4.73424 -6.32902,-1.67822 -9.24501,-2.52911 -4.56785,-1.53891 -3.94807,4.93744 0.33844,3.16147 2.81331,-0.37437 6.56103,0.58365 8.90657,-0.63236 z m 21.74749,0.23401 c 2.44317,-3.46078 -3.73081,-2.90072 -5.84828,-2.76312 -2.34088,-0.27759 -9.02906,-0.45032 -5.46993,3.175 3.69415,-0.28477 7.85472,0.55906 11.31821,-0.41188 z m 22.02305,-0.0671 c 2.48496,-3.73603 -4.4053,-2.57739 -6.6156,-2.69599 -3.43757,-1.80334 -8.69987,2.41124 -3.18303,3.175 3.15349,-0.33823 6.95345,0.66402 9.79863,-0.47901 z"
         style="fill:#000003;fill-opacity:1;stroke-width:0.26458332"
         id="path55207" />
    </g>
  </g>
</svg>
