<?xml version="1.0" encoding="UTF-8" standalone="no"?>
<!-- Created with Inkscape (http://www.inkscape.org/) -->

<svg
   xmlns:dc="http://purl.org/dc/elements/1.1/"
   xmlns:cc="http://creativecommons.org/ns#"
   xmlns:rdf="http://www.w3.org/1999/02/22-rdf-syntax-ns#"
   xmlns:svg="http://www.w3.org/2000/svg"
   xmlns="http://www.w3.org/2000/svg"
   xmlns:sodipodi="http://sodipodi.sourceforge.net/DTD/sodipodi-0.dtd"
   xmlns:inkscape="http://www.inkscape.org/namespaces/inkscape"
   width="150"
   height="150"
   viewBox="0 0 39.6875 39.6875"
   version="1.1"
   id="svg922"
   inkscape:version="0.92.4 (5da689c313, 2019-01-14)"
   sodipodi:docname="USO_multimedia_webcamoid.svg">
  <title
     id="title1437">USOICON</title>
  <defs
     id="defs916">
    <clipPath
       id="clipPath1521"
       clipPathUnits="userSpaceOnUse">
      <rect
         y="66.644836"
         x="57.114269"
         height="151.42299"
         width="172.87534"
         id="rect1523"
         style="opacity:0.875;fill:#000000;fill-opacity:1;stroke:#000000;stroke-width:0.60403091;stroke-linejoin:round;stroke-miterlimit:4;stroke-dasharray:none;stroke-opacity:1" />
    </clipPath>
  </defs>
  <sodipodi:namedview
     id="base"
     pagecolor="#ffffff"
     bordercolor="#666666"
     borderopacity="1.0"
     inkscape:pageopacity="0.0"
     inkscape:pageshadow="2"
     inkscape:zoom="0.97975127"
     inkscape:cx="26.065094"
     inkscape:cy="128.96907"
     inkscape:document-units="px"
     inkscape:current-layer="layer15"
     showgrid="false"
     inkscape:window-width="937"
     inkscape:window-height="652"
     inkscape:window-x="2103"
     inkscape:window-y="65"
     inkscape:window-maximized="0"
     units="px" />
  <metadata
     id="metadata919">
    <rdf:RDF>
      <cc:Work
         rdf:about="">
        <dc:format>image/svg+xml</dc:format>
        <dc:type
           rdf:resource="http://purl.org/dc/dcmitype/StillImage" />
        <dc:title>USOICON</dc:title>
        <cc:license
           rdf:resource="http://creativecommons.org/licenses/by-sa/4.0/" />
      </cc:Work>
      <cc:License
         rdf:about="http://creativecommons.org/licenses/by-sa/4.0/">
        <cc:permits
           rdf:resource="http://creativecommons.org/ns#Reproduction" />
        <cc:permits
           rdf:resource="http://creativecommons.org/ns#Distribution" />
        <cc:requires
           rdf:resource="http://creativecommons.org/ns#Notice" />
        <cc:requires
           rdf:resource="http://creativecommons.org/ns#Attribution" />
        <cc:permits
           rdf:resource="http://creativecommons.org/ns#DerivativeWorks" />
        <cc:requires
           rdf:resource="http://creativecommons.org/ns#ShareAlike" />
      </cc:License>
    </rdf:RDF>
  </metadata>
  <g
     style="display:inline"
     transform="translate(-35.46637,-112.59198)"
     id="layer1"
     inkscape:groupmode="layer"
     inkscape:label="toonbox" />
  <g
     inkscape:label="text"
     id="layer3"
     inkscape:groupmode="layer" />
  <g
     inkscape:label="icon_multimedia"
     id="layer15"
     inkscape:groupmode="layer">
    <g
       id="g2082">
      <path
         style="display:inline;opacity:0.875;fill:#999999;fill-opacity:1;stroke:none;stroke-width:0.11845408;stroke-linejoin:round;stroke-miterlimit:4;stroke-dasharray:none;stroke-opacity:0.97175137"
         d="M 1.435191,10.12791 C 2.670256,9.29705 4.324329,9.43582 5.75553,9.20511 14.11545,8.61268 22.517162,8.68995 30.881762,9.1576 c 2.392119,0.20608 4.838324,0.26932 7.150425,0.97031 0.872353,1.67498 0.817461,3.66984 1.026746,5.51683 0.208491,4.02511 0.362445,8.13136 -0.532305,12.08777 -0.230317,1.64927 -2.017724,2.0517 -3.40708,2.25864 C 28.802681,30.85612 22.40423,30.81147 16.04062,30.81293 11.303807,30.71862 6.537542,30.74635 1.839737,30.07418 0.173005,29.52829 0.822947,27.03924 0.434179,25.65651 0.154966,21.09087 0.021365,16.47217 0.692557,11.93449 0.848231,11.32021 0.903907,10.54918 1.435191,10.12791 Z"
         id="rect49496"
         inkscape:connector-curvature="0" />
      <path
         style="display:inline;fill:#000000;stroke-width:0.37203047"
         d="M 1.803349,30.70864 C 0.056742,30.0892 0.231437,27.93756 0.087588,26.427 -0.022935,21.93179 -0.070132,17.42779 0.099217,12.93387 -0.027874,11.27811 1.27784,10.0868 2.683582,9.49431 4.615709,8.56731 6.836395,8.9315 8.909365,8.7639 16.59615,8.63948 24.285544,8.62691 31.972812,8.67993 c 2.150882,0.14121 4.537543,-0.0199 6.403551,1.23592 1.58486,1.37874 1.255708,3.71898 1.302004,5.60595 -0.178243,4.07095 0.01584,8.16305 -0.388876,12.21995 -0.293352,1.71142 -2.120394,2.65314 -3.654582,3.02944 -6.368162,0.39372 -12.757085,0.28816 -19.135233,0.3134 C 11.668868,31.0283 6.826658,31.10952 2.006621,30.75364 L 1.803349,30.7086 Z m 34.717949,-1.05781 c 1.660436,-0.66982 2.120657,-2.56797 2.182495,-4.18169 C 38.903556,21.6571 38.926032,17.82461 38.6784,14.01451 38.609934,12.47205 38.055319,10.73538 36.494762,10.11382 34.51138,9.13075 32.202264,9.50823 30.063573,9.36171 22.019563,9.34057 13.971808,9.23982 5.930238,9.4697 4.247551,9.52117 2.061367,9.74531 1.291134,11.49417 c -0.682107,2.6627 -0.37748,5.45735 -0.46467,8.18069 0.080658,2.82901 -0.202804,5.71611 0.421771,8.49628 0.655233,1.84726 2.893842,2.0042 4.558802,2.11114 8.176545,0.4213 16.369453,0.15886 24.551012,0.03302 2.04628,-0.14679 4.225389,0.10711 6.163249,-0.66447 z M 4.297406,28.9474 c -0.939032,0.02717 -2.493051,-2.1182 -0.727168,-0.88447 1.706475,0.99084 3.797167,0.59334 5.679761,0.73138 0.843628,0.09701 3.276883,-0.14441 3.328971,0.24148 -2.712643,0.43249 -5.596207,0.56419 -8.281564,-0.08839 z m 31.24001,-17.1062 c -1.499147,-0.78086 -3.308903,-0.4003 -4.94344,-0.53994 -1.173066,-0.10336 -4.022293,-0.01807 -4.347208,-0.50636 2.904245,-0.07023 5.874879,-0.31161 8.734279,0.31742 0.913242,-0.14345 1.834744,2.01352 0.556369,0.72888 z"
         id="path49494"
         inkscape:connector-curvature="0" />
      <g
         id="g2069"
         style="">
        <path
           style="font-style:normal;font-variant:normal;font-weight:normal;font-stretch:normal;font-size:4.94612217px;font-family:Insaniburger;-inkscape-font-specification:Insaniburger;opacity:1;vector-effect:none;fill:#000000;fill-opacity:1;stroke:none;stroke-width:0.05796236;stroke-linecap:butt;stroke-linejoin:miter;stroke-miterlimit:4;stroke-dasharray:none;stroke-dashoffset:0;stroke-opacity:1"
           d="M 10.272393,28.025944 C 9.7006988,27.829276 9.646645,26.297212 9.3421798,27.647533 8.6679455,28.726506 8.3069948,26.968153 8.1584945,26.307327 7.9463229,25.67335 7.4806214,24.09576 8.5230437,24.498325 c 0.3136493,0.290953 0.3520028,2.115293 0.6418646,1.056054 0.5214705,-1.60021 1.1044317,1.359808 1.2071307,-0.116796 -0.01632,-1.353764 1.48833,-1.157107 0.863829,0.188906 -0.257911,0.757378 -0.319378,1.642108 -0.72326,2.304853 l -0.112857,0.07095 z m 2.786266,-0.01066 c 1.089783,-0.787744 -0.638093,-0.675927 -0.617225,-1.149289 0.09475,-0.286101 1.544869,-0.445578 0.529675,-1.08387 -0.672395,0.337877 -0.734829,-0.830943 -0.03382,-0.516985 1.03989,-0.235357 0.0066,-1.198611 -0.622413,-0.847427 -0.859467,-0.253587 -0.768624,0.875944 -0.740184,1.570508 0.09149,0.651535 -0.221545,1.554236 0.243771,1.998083 0.410116,0.05966 0.827528,0.01535 1.240195,0.02898 z m 2.862871,-1.065946 c 0.03534,1.298764 -1.160993,1.053744 -1.873562,1.065946 -0.741923,-0.136824 -0.323508,-1.323995 -0.43337,-1.97299 0.01037,-0.658249 -0.189452,-1.848494 0.681299,-1.624581 0.859831,-0.308774 2.162627,0.67275 1.16162,1.641559 0.286689,0.147234 0.479481,0.510156 0.464013,0.890066 z m -0.866741,-0.05863 c -0.263214,-1.185496 -1.037664,0.384323 -0.325523,0.389071 0.187415,0.03479 0.349237,-0.161562 0.325523,-0.389071 z m -0.06128,-1.401721 c -0.377729,-1.204239 -0.923134,0.836494 -0.06894,0.259825 l 0.05171,-0.10826 z m 3.825917,1.881397 c -1.254254,2.267628 -4.115063,-1.22594 -2.072326,-2.766966 0.59828,-1.027953 2.999411,0.338957 1.573293,0.850926 -1.497949,-1.266161 -1.94107,2.366613 -0.236384,1.537629 0.300062,-0.216886 0.736246,-0.133571 0.735417,0.378411 z m 1.746614,-0.842098 c -0.07464,-1.412416 -0.720454,0.360706 0,0 z m -0.634734,0.852758 c -0.566394,1.512044 -1.252612,-0.248485 -0.562097,-1.020922 0.33324,-0.643461 0.384985,-1.648478 1.006411,-1.942411 0.627099,0.319018 0.692768,1.341871 1.034195,2.008483 0.693162,0.768046 -0.06497,2.446845 -0.585504,0.95485 -0.297669,0 -0.595337,0 -0.893005,0 z m 3.451641,-1.854748 c 0.281825,-0.593133 1.263526,-1.794056 1.444568,-0.544279 -0.01722,0.923342 0.03502,1.853513 -0.02709,2.772441 -0.839114,0.896527 -0.932882,-0.694164 -0.839655,-1.410305 -0.02616,-0.705271 -0.591569,1.253068 -0.846742,0.180561 -0.482565,-0.959607 -0.261685,0.39604 -0.308912,0.869267 -0.181424,1.355908 -1.208551,0.156301 -0.866741,-0.747968 0.05288,-0.69934 -0.117267,-1.470072 0.108343,-2.116378 0.636217,-0.464191 0.966226,0.577858 1.336225,0.996661 z m 4.760509,0.655557 c 0.03014,3.220036 -4.390978,1.669942 -2.883665,-1.072776 0.791713,-1.473202 2.988535,-0.799555 2.883665,1.072776 z m -1.037463,-0.668882 c -1.547224,-1.391739 -1.552518,2.725651 -0.0022,1.332435 0.268303,-0.357575 0.267963,-0.973193 0.0022,-1.332435 z m 2.090247,2.038625 c -0.52598,1.251734 -1.104304,-0.307077 -0.866741,-1.106822 0.09149,-0.651535 -0.221547,-1.554237 0.24377,-1.998083 0.924336,-0.21333 0.546091,1.182805 0.622971,1.843389 0,0.420505 0,0.84101 0,1.261516 z m 1.532115,0.463686 c -0.552926,0.01537 -1.516621,0.173422 -1.313243,-0.866168 0.05821,-0.864363 -0.125039,-1.805092 0.108342,-2.615481 0.753887,-0.244972 1.907307,-0.272018 2.202966,0.859419 0.352431,0.976701 0.0022,2.516016 -0.998065,2.62223 z m 0.3305,-1.830764 c -0.09402,-1.532687 -1.13131,-1.089496 -0.777002,0.165479 -0.329795,1.413575 0.80179,1.06446 0.777002,-0.165479 z"
           id="text49550"
           inkscape:connector-curvature="0" />
      </g>
      <path
         style="fill:#000000;stroke-width:0.14142624"
         d="m 21.511669,23.32761 c -1.866944,-1.066301 0.310761,-3.390853 1.902313,-2.968101 1.612914,-1.039568 0.560694,-3.411784 0.901347,-5.029124 0.141004,-1.140796 -0.482669,-3.917241 1.408264,-2.61746 2.407805,1.06011 3.369993,4.636887 1.535967,6.605384 -0.500464,0.304863 -0.0539,-1.732809 -0.651348,-2.264473 -0.421606,-1.210102 -1.875719,-1.252003 -1.514582,0.208041 -0.09476,1.728579 0.09371,3.495994 -0.372652,5.185703 -0.703572,0.975334 -2.112236,1.226595 -3.209309,0.88003 z m -4.137314,-1.72927 c -3.702692,-0.914497 -5.408714,-6.018206 -2.903919,-8.934591 2.092249,-2.6972316 6.694078,-3.0393499 8.956831,-0.380283 1.065516,1.597372 -2.180419,2.145554 -1.833871,3.120415 1.059994,-0.295907 2.724492,-0.628934 1.94508,1.10994 0.219975,1.435547 0.516651,3.613523 -1.599625,3.46158 -1.201264,0.987176 -2.394499,2.449555 -4.151904,1.728675 l -0.20748,-0.04862 z M 16.92972,18.77402 c 1.396491,-0.833764 -0.309475,-2.213853 -1.269791,-1.288526 -2.065466,0.369264 0.490466,3.394836 1.269791,1.288526 z m 3.186375,-1.72134 c 1.85281,-1.662192 -2.280726,-3.503965 -2.379519,-0.997157 -0.109361,1.186614 1.620466,2.022295 2.379519,0.997157 z M 17.960039,14.3131 c 1.586398,-1.058588 -0.419159,-3.86946 -1.763309,-2.064828 -1.874561,0.885216 0.854202,3.096441 1.763309,2.064828 z"
         id="path53394"
         inkscape:connector-curvature="0" />
    </g>
  </g>
</svg>
