<?xml version="1.0" encoding="UTF-8" standalone="no"?>
<!-- Created with Inkscape (http://www.inkscape.org/) -->

<svg
   xmlns:dc="http://purl.org/dc/elements/1.1/"
   xmlns:cc="http://creativecommons.org/ns#"
   xmlns:rdf="http://www.w3.org/1999/02/22-rdf-syntax-ns#"
   xmlns:svg="http://www.w3.org/2000/svg"
   xmlns="http://www.w3.org/2000/svg"
   xmlns:sodipodi="http://sodipodi.sourceforge.net/DTD/sodipodi-0.dtd"
   xmlns:inkscape="http://www.inkscape.org/namespaces/inkscape"
   width="150"
   height="150"
   viewBox="0 0 39.6875 39.6875"
   version="1.1"
   id="svg922"
   inkscape:version="0.92.4 (5da689c313, 2019-01-14)"
   sodipodi:docname="USO_games_enemyterritory.svg">
  <title
     id="title1437">USOICON</title>
  <defs
     id="defs916">
    <clipPath
       id="clipPath1521"
       clipPathUnits="userSpaceOnUse">
      <rect
         y="66.644836"
         x="57.114269"
         height="151.42299"
         width="172.87534"
         id="rect1523"
         style="opacity:0.875;fill:#000000;fill-opacity:1;stroke:#000000;stroke-width:0.60403091;stroke-linejoin:round;stroke-miterlimit:4;stroke-dasharray:none;stroke-opacity:1" />
    </clipPath>
  </defs>
  <sodipodi:namedview
     id="base"
     pagecolor="#ffffff"
     bordercolor="#666666"
     borderopacity="1.0"
     inkscape:pageopacity="0.0"
     inkscape:pageshadow="2"
     inkscape:zoom="1.9907997"
     inkscape:cx="75.585202"
     inkscape:cy="65.427569"
     inkscape:document-units="px"
     inkscape:current-layer="layer7"
     showgrid="false"
     inkscape:window-width="917"
     inkscape:window-height="680"
     inkscape:window-x="2506"
     inkscape:window-y="278"
     inkscape:window-maximized="0"
     units="px" />
  <metadata
     id="metadata919">
    <rdf:RDF>
      <cc:Work
         rdf:about="">
        <dc:format>image/svg+xml</dc:format>
        <dc:type
           rdf:resource="http://purl.org/dc/dcmitype/StillImage" />
        <dc:title>USOICON</dc:title>
        <cc:license
           rdf:resource="http://creativecommons.org/licenses/by-sa/4.0/" />
      </cc:Work>
      <cc:License
         rdf:about="http://creativecommons.org/licenses/by-sa/4.0/">
        <cc:permits
           rdf:resource="http://creativecommons.org/ns#Reproduction" />
        <cc:permits
           rdf:resource="http://creativecommons.org/ns#Distribution" />
        <cc:requires
           rdf:resource="http://creativecommons.org/ns#Notice" />
        <cc:requires
           rdf:resource="http://creativecommons.org/ns#Attribution" />
        <cc:permits
           rdf:resource="http://creativecommons.org/ns#DerivativeWorks" />
        <cc:requires
           rdf:resource="http://creativecommons.org/ns#ShareAlike" />
      </cc:License>
    </rdf:RDF>
  </metadata>
  <g
     style="display:inline"
     transform="translate(-35.46637,-112.59198)"
     id="layer1"
     inkscape:groupmode="layer"
     inkscape:label="toonbox" />
  <g
     inkscape:label="text"
     id="layer3"
     inkscape:groupmode="layer" />
  <g
     style="display:inline"
     inkscape:label="icon_games"
     id="layer7"
     inkscape:groupmode="layer">
    <g
       id="g10307">
      <path
         style="display:inline;opacity:0.875;fill:#999999;fill-opacity:1;stroke:none;stroke-width:0.11845408;stroke-linejoin:round;stroke-miterlimit:4;stroke-dasharray:none;stroke-opacity:0.97175137"
         d="M 1.435191,10.12791 C 2.670256,9.29705 4.324329,9.43582 5.75553,9.20511 14.11545,8.61268 22.517162,8.68995 30.881762,9.1576 c 2.392119,0.20608 4.838324,0.26932 7.150425,0.97031 0.872353,1.67498 0.817461,3.66984 1.026746,5.51683 0.208491,4.02511 0.362445,8.13136 -0.532305,12.08777 -0.230317,1.64927 -2.017724,2.0517 -3.40708,2.25864 C 28.802681,30.85612 22.40423,30.81147 16.04062,30.81293 11.303807,30.71862 6.537542,30.74635 1.839737,30.07418 0.173005,29.52829 0.822947,27.03924 0.434179,25.65651 0.154966,21.09087 0.021365,16.47217 0.692557,11.93449 0.848231,11.32021 0.903907,10.54918 1.435191,10.12791 Z"
         id="rect49496"
         inkscape:connector-curvature="0" />
      <path
         style="display:inline;fill:#000000;stroke-width:0.37203047"
         d="M 1.803349,30.70864 C 0.056742,30.0892 0.231437,27.93756 0.087588,26.427 -0.022935,21.93179 -0.070132,17.42779 0.099217,12.93387 -0.027874,11.27811 1.27784,10.0868 2.683582,9.49431 4.615709,8.56731 6.836395,8.9315 8.909365,8.7639 16.59615,8.63948 24.285544,8.62691 31.972812,8.67993 c 2.150882,0.14121 4.537543,-0.0199 6.403551,1.23592 1.58486,1.37874 1.255708,3.71898 1.302004,5.60595 -0.178243,4.07095 0.01584,8.16305 -0.388876,12.21995 -0.293352,1.71142 -2.120394,2.65314 -3.654582,3.02944 -6.368162,0.39372 -12.757085,0.28816 -19.135233,0.3134 C 11.668868,31.0283 6.826658,31.10952 2.006621,30.75364 L 1.803349,30.7086 Z m 34.717949,-1.05781 c 1.660436,-0.66982 2.120657,-2.56797 2.182495,-4.18169 C 38.903556,21.6571 38.926032,17.82461 38.6784,14.01451 38.609934,12.47205 38.055319,10.73538 36.494762,10.11382 34.51138,9.13075 32.202264,9.50823 30.063573,9.36171 22.019563,9.34057 13.971808,9.23982 5.930238,9.4697 4.247551,9.52117 2.061367,9.74531 1.291134,11.49417 c -0.682107,2.6627 -0.37748,5.45735 -0.46467,8.18069 0.080658,2.82901 -0.202804,5.71611 0.421771,8.49628 0.655233,1.84726 2.893842,2.0042 4.558802,2.11114 8.176545,0.4213 16.369453,0.15886 24.551012,0.03302 2.04628,-0.14679 4.225389,0.10711 6.163249,-0.66447 z M 4.297406,28.9474 c -0.939032,0.02717 -2.493051,-2.1182 -0.727168,-0.88447 1.706475,0.99084 3.797167,0.59334 5.679761,0.73138 0.843628,0.09701 3.276883,-0.14441 3.328971,0.24148 -2.712643,0.43249 -5.596207,0.56419 -8.281564,-0.08839 z m 31.24001,-17.1062 c -1.499147,-0.78086 -3.308903,-0.4003 -4.94344,-0.53994 -1.173066,-0.10336 -4.022293,-0.01807 -4.347208,-0.50636 2.904245,-0.07023 5.874879,-0.31161 8.734279,0.31742 0.913242,-0.14345 1.834744,2.01352 0.556369,0.72888 z"
         id="path49494"
         inkscape:connector-curvature="0" />
      <path
         style="font-style:normal;font-variant:normal;font-weight:normal;font-stretch:normal;font-size:4.37130737px;font-family:Insaniburger;-inkscape-font-specification:Insaniburger;opacity:1;vector-effect:none;fill:#000000;fill-opacity:1;stroke:none;stroke-width:0.05122625;stroke-linecap:butt;stroke-linejoin:miter;stroke-miterlimit:4;stroke-dasharray:none;stroke-dashoffset:0;stroke-opacity:1"
         d="m 4.6931077,26.962636 c 1.0899784,-0.742133 -0.8016552,-0.45303 -0.586396,-1.07111 0.6888141,0.20947 1.225016,-0.919423 0.1478623,-0.764857 C 3.5192141,24.4695 5.2746119,25.008395 4.9933238,24.20088 4.5967242,23.91838 3.475412,23.788829 3.283262,24.386148 c 0.059676,0.819843 -0.1250542,1.70618 0.1029312,2.481185 0.3952595,0.184884 0.880636,0.0574 1.3069145,0.0953 z M 6.9180855,25.323849 C 6.6771509,24.666127 7.22807,23.347859 7.7415353,24.386148 7.6818593,25.205991 7.8665894,26.092328 7.638604,26.867333 6.8957689,27.204244 6.5786803,26.142194 6.1103376,25.72154 5.9459547,25.804298 6.2889029,27.484596 5.3242113,26.867333 5.101083,26.091067 5.2776783,25.206843 5.22128,24.386148 c 0.3985348,-0.98478 1.1759583,0.283553 1.5322095,0.73087 0.054865,0.06894 0.1097307,0.137888 0.164596,0.206831 z m 2.4412375,1.638787 c 1.089978,-0.742133 -0.8016551,-0.45303 -0.586396,-1.07111 0.6888142,0.20947 1.2250163,-0.919423 0.1478624,-0.764857 C 8.1854295,24.4695 9.9408273,25.008395 9.6595391,24.20088 9.2629395,23.91838 8.1416274,23.788829 7.9494773,24.386148 c 0.059676,0.819843 -0.1250542,1.70618 0.1029312,2.481185 0.3952596,0.184884 0.8806361,0.0574 1.3069145,0.0953 z m 1.900588,-2.046292 c 0.249738,-0.555728 1.341483,-1.480282 1.372416,-0.342993 -0.05834,0.757724 0.123184,1.580985 -0.102931,2.293982 -0.969368,0.443422 -0.68585,-0.912667 -0.720518,-1.495284 -0.35544,0.669845 -0.711759,0.760294 -1.069309,0.03957 -0.157755,0.363775 0.310764,1.758525 -0.620479,1.527194 -0.4557589,-0.429924 -0.1356451,-1.252415 -0.2315949,-1.855017 -0.2942598,-0.912254 0.6169929,-1.489371 1.0755489,-0.540555 0.09896,0.124369 0.197911,0.248737 0.296867,0.373106 z m 2.875836,0.03067 c 0.258859,-0.961481 1.878751,-1.167543 1.035555,0.04295 -0.335045,0.463443 -0.787977,0.884741 -0.632148,1.52367 -0.46098,1.156245 -0.951611,-0.193984 -0.930228,-0.804839 -0.401058,-0.448484 -1.364846,-1.800656 -0.14795,-1.611849 0.276224,0.233575 0.452275,0.565017 0.674771,0.850066 z m 4.07566,-0.24538 c -0.05945,0.716087 0.124886,1.498895 -0.102932,2.170078 -0.972427,0.442917 -0.684336,-0.918786 -0.720518,-1.502733 0.448064,-1.019422 -1.056286,-0.356223 -0.665414,-1.27696 0.649739,-0.174537 1.376913,-0.06804 2.054466,-0.06532 0.554113,0.489313 -0.111665,0.7824 -0.565602,0.674931 z m 2.339345,2.261 c 1.089979,-0.742133 -0.801655,-0.45303 -0.586395,-1.07111 0.688814,0.20947 1.225016,-0.919423 0.147862,-0.764857 -0.73536,-0.657169 1.020038,-0.118274 0.738749,-0.925789 -0.396599,-0.2825 -1.517911,-0.412051 -1.710061,0.185268 0.05968,0.819843 -0.125055,1.70618 0.102931,2.481185 0.39526,0.184884 0.880636,0.0574 1.306914,0.0953 z m 2.25409,-1.257571 c 0.814006,0.451756 0.264189,1.87755 -0.392646,0.853148 -0.459852,-0.806194 -0.575243,-0.71375 -0.535554,0.18999 -0.866615,0.753687 -0.862041,-0.688326 -0.797717,-1.290003 0.02273,-0.577806 -0.218978,-1.653615 0.678243,-1.453268 1.015815,-0.24928 2.124469,0.796825 1.047674,1.700133 z m -0.902468,-1.10421 c -0.447876,1.192293 1.252503,0.409125 0.237054,0 -0.07902,0 -0.158035,0 -0.237054,0 z m 3.308357,1.10421 c 0.814005,0.451756 0.264187,1.87755 -0.392647,0.853148 -0.459851,-0.806194 -0.575242,-0.71375 -0.535553,0.18999 -0.866616,0.753687 -0.862042,-0.688326 -0.797717,-1.290003 0.02273,-0.577806 -0.218979,-1.653615 0.678242,-1.453268 1.015816,-0.24928 2.12447,0.796825 1.047675,1.700133 z m -0.902468,-1.10421 c -0.447878,1.192293 1.252502,0.409125 0.237054,0 -0.07902,0 -0.158036,0 -0.237054,0 z m 2.405887,1.980566 c -0.571461,1.068312 -1.035422,-0.367028 -0.82345,-1.029619 0.02566,-0.574748 -0.233978,-1.894667 0.720519,-1.451565 0.223049,0.762677 0.04652,1.671207 0.102931,2.481184 z m 1.74879,-1.879785 c -0.05944,0.716087 0.124886,1.498895 -0.102931,2.170078 -0.972427,0.442917 -0.684336,-0.918786 -0.720518,-1.502733 0.448064,-1.019422 -1.056286,-0.356223 -0.665414,-1.27696 0.649738,-0.174537 1.376912,-0.06804 2.054466,-0.06532 0.554113,0.489313 -0.111665,0.7824 -0.565603,0.674931 z m 3.871877,0.753667 c 0.02864,2.647316 -4.17166,1.372924 -2.739633,-0.881971 0.745207,-1.21324 2.847846,-0.650046 2.739633,0.881971 z m -0.985643,-0.549914 c -1.785112,-1.147864 -1.092861,2.645615 0.13984,0.850066 0.08808,-0.281912 0.05968,-0.624725 -0.13984,-0.850066 z m 2.888311,0.799676 c 0.814006,0.451756 0.264188,1.87755 -0.392646,0.853148 -0.459851,-0.806194 -0.575242,-0.71375 -0.535554,0.18999 -0.866616,0.753687 -0.862041,-0.688326 -0.797716,-1.290003 0.02273,-0.577806 -0.218978,-1.653615 0.678241,-1.453268 1.015817,-0.24928 2.124471,0.796825 1.047675,1.700133 z m -0.902467,-1.10421 c -0.447878,1.192293 1.252502,0.409125 0.237054,0 -0.07902,0 -0.158036,0 -0.237054,0 z m 2.877915,0.346161 c 0.258858,-0.961481 1.878751,-1.167543 1.035555,0.04295 -0.335046,0.463443 -0.787977,0.884741 -0.632148,1.52367 -0.46098,1.156245 -0.951611,-0.193984 -0.930228,-0.804839 -0.401059,-0.448484 -1.364847,-1.800656 -0.147951,-1.611849 0.276225,0.233575 0.452276,0.565017 0.674772,0.850066 z"
         id="text49550"
         inkscape:connector-curvature="0" />
      <g
         id="g53695"
         transform="matrix(0.23216083,0,0,0.26739887,-40.66702,-79.695953)">
        <path
           style="fill:#000000;fill-opacity:1;stroke-width:0.56041962"
           d="m 225.79653,381.36576 c -5.04874,-5.70045 -3.09798,-14.35633 -2.45039,-21.29598 2.14357,-8.89697 7.83465,-18.94365 17.6609,-20.54413 7.25222,-1.3964 13.14991,3.76259 20.06409,4.17152 6.86243,-0.25136 12.65893,-5.79643 19.79539,-4.07863 10.07438,0.99305 15.61039,11.35051 17.88548,20.14 0.72391,7.0246 2.71218,15.81255 -2.37779,21.60722 -6.22795,4.55619 -12.2931,-2.23293 -16.91721,-5.91504 -5.78798,-5.77763 -14.55245,-3.45633 -21.84303,-3.96964 -6.37158,-0.56289 -12.86431,0.86093 -17.22384,5.87987 -3.90129,3.36771 -9.44686,8.07986 -14.5936,4.00481 z"
           id="path53677"
           inkscape:connector-curvature="0" />
        <path
           style="fill:#ffffff;fill-opacity:1;stroke-width:0.56041962"
           d="m 277.9872,362.41501 c 5.58994,-5.40079 -8.06317,-7.57497 -4.77264,-0.67341 1.23932,1.3571 3.24548,2.00683 4.77264,0.67341 z"
           id="path53675"
           inkscape:connector-curvature="0" />
        <path
           style="fill:#ffffff;fill-opacity:1;stroke-width:0.56041962"
           d="m 247.09052,359.86347 c 0.27723,-3.25746 8.70112,-2.32963 4.12382,-6.78295 -5.26871,1.19244 -3.64993,-8.73224 -9.37797,-3.68051 1.20337,5.19333 -8.41269,2.02905 -5.05105,7.57352 3.38408,0.29645 5.45041,0.84964 5.40535,4.6496 1.57622,0.88603 5.19447,0.91959 4.89985,-1.75966 z"
           id="path53673"
           inkscape:connector-curvature="0" />
        <path
           style="fill:#fffffc;fill-opacity:1;stroke-width:0.56041962"
           d="m 288.72216,357.58638 c 4.50178,-7.79772 -11.51832,-3.99212 -3.56811,0.81562 1.22542,0.443 2.60725,-0.0116 3.56811,-0.81562 z"
           id="path53671"
           inkscape:connector-curvature="0" />
        <path
           style="fill:#f8ffff;fill-opacity:1;stroke-width:0.56041962"
           d="m 278.37813,352.42476 c 4.38079,-8.166 -11.41132,-4.0188 -3.58973,0.81533 1.23238,0.44154 2.62307,-0.004 3.58973,-0.81533 z"
           id="path53664"
           inkscape:connector-curvature="0" />
      </g>
    </g>
  </g>
</svg>
