<?xml version="1.0" encoding="UTF-8" standalone="no"?>
<!-- Created with Inkscape (http://www.inkscape.org/) -->

<svg
   xmlns:dc="http://purl.org/dc/elements/1.1/"
   xmlns:cc="http://creativecommons.org/ns#"
   xmlns:rdf="http://www.w3.org/1999/02/22-rdf-syntax-ns#"
   xmlns:svg="http://www.w3.org/2000/svg"
   xmlns="http://www.w3.org/2000/svg"
   xmlns:sodipodi="http://sodipodi.sourceforge.net/DTD/sodipodi-0.dtd"
   xmlns:inkscape="http://www.inkscape.org/namespaces/inkscape"
   width="150"
   height="150"
   viewBox="0 0 39.6875 39.6875"
   version="1.1"
   id="svg922"
   inkscape:version="0.92.4 (5da689c313, 2019-01-14)"
   sodipodi:docname="USO_server_opendedup.svg">
  <title
     id="title1437">USOICON</title>
  <defs
     id="defs916">
    <clipPath
       id="clipPath1521"
       clipPathUnits="userSpaceOnUse">
      <rect
         y="66.644836"
         x="57.114269"
         height="151.42299"
         width="172.87534"
         id="rect1523"
         style="opacity:0.875;fill:#000000;fill-opacity:1;stroke:#000000;stroke-width:0.60403091;stroke-linejoin:round;stroke-miterlimit:4;stroke-dasharray:none;stroke-opacity:1" />
    </clipPath>
  </defs>
  <sodipodi:namedview
     id="base"
     pagecolor="#ffffff"
     bordercolor="#666666"
     borderopacity="1.0"
     inkscape:pageopacity="0.0"
     inkscape:pageshadow="2"
     inkscape:zoom="1.9701696"
     inkscape:cx="75.847055"
     inkscape:cy="53.764375"
     inkscape:document-units="px"
     inkscape:current-layer="layer12"
     showgrid="false"
     inkscape:window-width="781"
     inkscape:window-height="753"
     inkscape:window-x="2932"
     inkscape:window-y="113"
     inkscape:window-maximized="0"
     units="px" />
  <metadata
     id="metadata919">
    <rdf:RDF>
      <cc:Work
         rdf:about="">
        <dc:format>image/svg+xml</dc:format>
        <dc:type
           rdf:resource="http://purl.org/dc/dcmitype/StillImage" />
        <dc:title>USOICON</dc:title>
        <cc:license
           rdf:resource="http://creativecommons.org/licenses/by-sa/4.0/" />
      </cc:Work>
      <cc:License
         rdf:about="http://creativecommons.org/licenses/by-sa/4.0/">
        <cc:permits
           rdf:resource="http://creativecommons.org/ns#Reproduction" />
        <cc:permits
           rdf:resource="http://creativecommons.org/ns#Distribution" />
        <cc:requires
           rdf:resource="http://creativecommons.org/ns#Notice" />
        <cc:requires
           rdf:resource="http://creativecommons.org/ns#Attribution" />
        <cc:permits
           rdf:resource="http://creativecommons.org/ns#DerivativeWorks" />
        <cc:requires
           rdf:resource="http://creativecommons.org/ns#ShareAlike" />
      </cc:License>
    </rdf:RDF>
  </metadata>
  <g
     style="display:inline"
     transform="translate(-35.46637,-112.59198)"
     id="layer1"
     inkscape:groupmode="layer"
     inkscape:label="toonbox">
    <path
       sodipodi:nodetypes="cccsc"
       inkscape:connector-curvature="0"
       id="rect49496"
       d="m 36.90156,122.71989 c 0.831696,-1.81518 32.136082,-1.74537 36.596996,0 1.360957,1.25668 1.965827,18.83145 -0.529263,19.1107 -2.34387,2.23409 -34.78045,1.7797 -36.294559,0.62834 -1.133237,-0.86173 -1.587784,-18.83144 0.226826,-19.73904 z"
       style="opacity:0.875;fill:#999999;fill-opacity:1;stroke:none;stroke-width:0.11845408;stroke-linejoin:round;stroke-miterlimit:4;stroke-dasharray:none;stroke-opacity:0.97175137" />
    <path
       inkscape:connector-curvature="0"
       id="path49494"
       d="m 37.269718,143.30062 c -1.641726,-0.64434 -1.803348,-1.59457 -1.803348,-10.60246 0,-8.6181 0,-8.6181 1.184803,-9.66955 0.651642,-0.57829 1.906815,-1.21394 2.789275,-1.41254 1.014238,-0.22826 7.228924,-0.36098 16.893825,-0.36076 20.576488,3.7e-4 18.888124,-0.98916 18.718084,10.97136 -0.122927,8.64687 -0.122927,8.64687 -1.155993,9.6823 -0.568185,0.56949 -1.705467,1.20373 -2.527298,1.40941 -1.972575,0.49371 -32.837149,0.47762 -34.099348,-0.0178 z m 34.717949,-1.05781 c 2.057419,-1.09405 2.321925,-2.20712 2.321925,-9.77101 0,-7.72677 -0.261904,-8.73763 -2.557796,-9.87221 -1.306397,-0.6456 -2.051043,-0.67602 -16.574417,-0.67722 -12.68509,-0.001 -15.404566,0.0817 -16.40064,0.49925 -2.429502,1.01833 -2.483917,1.2385 -2.483917,10.05018 0,8.63256 0.07681,8.98184 2.190626,9.96194 1.290086,0.59816 7.836312,0.78195 20.969628,0.58874 10.114957,-0.14881 11.511591,-0.23568 12.534591,-0.77967 z m -32.223892,-0.70343 c -0.704624,-0.24864 -1.401002,-0.70525 -1.547504,-1.0147 -0.218464,-0.46145 -0.07094,-0.43803 0.820336,0.13023 0.940358,0.59955 1.705219,0.69805 5.679761,0.73138 3.569034,0.0299 4.224546,0.1003 2.940161,0.31564 -2.52326,0.42304 -6.463123,0.3419 -7.892754,-0.16255 z m 31.24001,-17.1062 c -0.376607,-0.36781 -1.414169,-0.50758 -3.872935,-0.52171 -1.847182,-0.0106 -4.102321,-0.14401 -5.01142,-0.29643 -1.299481,-0.21787 -0.707245,-0.28535 2.769834,-0.31564 4.414966,-0.0385 6.277427,0.2894 6.698657,1.17915 0.282918,0.5976 0.05617,0.57999 -0.584136,-0.0454 z"
       style="fill:#000000;stroke-width:0.37203047" />
  </g>
  <g
     inkscape:label="text"
     id="layer3"
     inkscape:groupmode="layer" />
  <g
     style="display:inline"
     inkscape:label="icon_server"
     id="layer12"
     inkscape:groupmode="layer">
    <g
       id="g4417">
      <path
         style="font-style:normal;font-variant:normal;font-weight:normal;font-stretch:normal;font-size:4.94612217px;font-family:Insaniburger;-inkscape-font-specification:Insaniburger;opacity:1;vector-effect:none;fill:#000000;fill-opacity:1;stroke:none;stroke-width:0.05796236;stroke-linecap:butt;stroke-linejoin:miter;stroke-miterlimit:4;stroke-dasharray:none;stroke-dashoffset:0;stroke-opacity:1"
         d="m 11.578838,26.181856 c 0.08318,1.364597 -1.216055,2.245518 -2.1898338,1.736828 -1.2499411,-0.499053 -1.248648,-2.974973 -0.00164,-3.477653 1.0042171,-0.489177 2.2561631,0.332841 2.1914751,1.740825 z M 10.541376,25.512974 C 9.6281171,24.39229 8.6482801,26.77796 9.8587627,27.092908 10.597923,27.31869 11.014837,26.128103 10.541376,25.512974 Z m 2.532371,1.303121 c 1.262778,0.07762 1.231914,-2.60903 -0.04945,-2.387722 -0.409989,0.06577 -0.945736,-0.183504 -1.23233,0.260824 -0.06052,0.949071 -0.01099,1.908962 -0.02709,2.862402 0.29664,1.0736 1.111904,0.08224 0.866741,-0.689777 0.05253,-0.106593 0.322304,-0.01518 0.442125,-0.04573 z m -0.192609,-1.673537 c 1.028118,0.125182 -0.3791,1.494517 -0.249516,0.444537 0.01369,-0.287445 -0.0946,-0.555117 0.249516,-0.444537 z m 2.814718,2.872727 c 0.815642,-0.356974 -0.03584,-1.095612 -0.566534,-0.847427 -0.200944,-0.346167 0.02793,-0.696904 0.412839,-0.532974 0.831504,-0.134035 0.178118,-1.149709 -0.397383,-0.852758 -0.213057,-0.244895 -0.02628,-0.717488 0.34588,-0.516985 0.831508,0.160627 0.537652,-1.167435 -0.155324,-0.847427 -0.397376,0.05125 -1.128793,-0.21874 -1.123443,0.526394 0.01653,0.936046 -0.03404,1.878692 0.02709,2.810353 0.284378,0.443661 0.82167,0.195362 1.230336,0.260824 0.07552,0 0.151029,0 0.226543,0 z m 2.341952,-1.993321 c 0.03964,-0.493752 -0.09718,-1.046014 0.108343,-1.488328 0.738187,-0.515103 0.824779,0.550861 0.758398,1.162956 -0.01545,0.685324 0.03256,1.376889 -0.02708,2.057869 -0.414685,0.675139 -0.921212,-0.07225 -1.184896,-0.517628 -0.178506,-0.213272 -0.451492,-0.742065 -0.57403,-0.768421 -0.03812,0.474975 0.09471,1.00719 -0.108342,1.430951 -0.738187,0.515103 -0.824781,-0.550861 -0.758399,-1.162956 0.01548,-0.684986 -0.0326,-1.376251 0.02709,-2.056871 0.427777,-0.686148 0.931052,0.0807 1.201725,0.533314 0.185733,0.269705 0.371466,0.539409 0.5572,0.809114 z m 2.398859,1.993321 c -0.400855,-0.03815 -0.833351,0.09704 -1.204901,-0.115922 -0.211325,-0.562564 -0.06487,-1.238314 -0.108343,-1.852732 0.03898,-0.502159 -0.09599,-1.062134 0.108343,-1.512995 0.428202,-0.189937 0.925597,-0.123321 1.378973,-0.07853 1.345036,0.408612 1.254986,3.400805 -0.174072,3.56018 z m 0.3305,-1.830764 c 0.300274,-0.669895 -0.95977,-1.615586 -0.777003,-0.603015 0,0.564316 0,1.128631 0,1.692947 0.521464,0.104596 0.825892,-0.515361 0.777003,-1.089932 z m 2.473274,1.830764 c 0.815641,-0.356974 -0.03585,-1.095612 -0.566535,-0.847427 -0.200944,-0.346167 0.02794,-0.696904 0.41284,-0.532974 0.831503,-0.134035 0.178118,-1.149709 -0.397383,-0.852758 -0.213058,-0.244895 -0.02628,-0.717488 0.345879,-0.516985 0.831509,0.160627 0.537652,-1.167435 -0.155323,-0.847427 -0.397377,0.05125 -1.128794,-0.21874 -1.123443,0.526394 0.01653,0.936046 -0.03404,1.878692 0.02708,2.810353 0.284378,0.443661 0.82167,0.195362 1.230337,0.260824 0.07551,0 0.151028,0 0.226543,0 z m 1.869183,0 c -0.400854,-0.03815 -0.83335,0.09704 -1.204901,-0.115922 -0.211324,-0.562564 -0.06487,-1.238314 -0.108343,-1.852732 0.03898,-0.502159 -0.09599,-1.062134 0.108343,-1.512995 0.428203,-0.189937 0.925598,-0.123321 1.378974,-0.07853 1.345035,0.408612 1.254984,3.400805 -0.174073,3.56018 z m 0.330499,-1.830764 c 0.300276,-0.669895 -0.959768,-1.615586 -0.777002,-0.603015 0,0.564316 0,1.128631 0,1.692947 0.521465,0.104596 0.825893,-0.515361 0.777002,-1.089932 z m 3.31813,0.855423 c -0.1077,1.228291 -1.714061,1.296844 -2.240174,0.4437 -0.175765,-0.830314 -0.05128,-1.718934 -0.08864,-2.575738 0.219955,-1.070792 1.123879,-0.183177 0.86674,0.600565 0.03692,0.530501 -0.08133,1.112368 0.07442,1.604756 0.626319,0.366465 0.528532,-0.586989 0.52092,-1.043036 0.03848,-0.510143 -0.09507,-1.077599 0.108342,-1.536555 0.738187,-0.515103 0.82478,0.550861 0.758398,1.162956 0,0.447783 0,0.895567 0,1.343352 z m 1.52774,-0.223849 c 1.262778,0.07762 1.231914,-2.60903 -0.04945,-2.387722 -0.409988,0.06577 -0.945736,-0.183504 -1.232331,0.260824 -0.06051,0.949071 -0.01099,1.908962 -0.02708,2.862402 0.29664,1.0736 1.111904,0.08224 0.866741,-0.689777 0.05253,-0.106593 0.322304,-0.01518 0.442125,-0.04573 z m -0.192609,-1.673537 c 1.028117,0.125182 -0.3791,1.494517 -0.249516,0.444537 0.01369,-0.287445 -0.0946,-0.555117 0.249516,-0.444537 z"
         id="text49550"
         inkscape:connector-curvature="0" />
      <g
         id="g55219"
         transform="matrix(0.07288555,0,0,0.05540308,49.921805,7.7326885)">
        <path
           style="fill:#000003;fill-opacity:1;stroke-width:0.26458332"
           d="m -423.12973,295.18552 c -5.97022,-6.54237 -13.13182,-7.93531 -22.03659,-6.92248 -19.45839,0 -38.91677,0 -58.37515,0 -7.44341,-8.20179 8.20423,-6.72168 13.3869,-6.61459 20.00861,0 40.01722,0 60.02583,0 7.19537,-5.2532 8.1472,-11.66667 7.20684,-20.38812 3.38578,-12.54456 -5.78172,-12.58643 -16.41473,-11.11905 -24.56512,-0.44031 -49.38428,1.07896 -73.78906,-0.85395 -13.85891,-7.16832 -6.57388,-25.11159 -8.49415,-37.59963 -2.3672,-14.06392 12.61599,-18.69192 23.80396,-16.82258 24.96466,0 49.92932,0 74.89398,0 2.25343,-10.76494 -2.14564,-14.90576 -13.65131,-11.92458 -25.44328,-0.41455 -51.09617,0.98286 -76.40724,-0.7655 -14.03905,-7.05899 -6.72032,-25.16771 -8.63939,-37.69151 -2.1736,-19.99942 21.71089,-17.2874 34.88288,-16.80797 21.27169,-0.004 42.54337,-0.009 63.81506,-0.0145 2.27618,-10.80717 -2.20404,-14.89431 -13.71625,-11.93025 -25.52645,-0.46242 -51.32075,1.11071 -76.67831,-0.87494 -13.60388,-7.34659 -6.38962,-25.108637 -8.30338,-37.576115 -2.08348,-20.566234 22.68383,-17.100497 36.07476,-16.809422 52.74932,0.29319 105.5836,-0.656737 158.27964,0.512937 15.54277,5.811926 8.22261,24.898429 9.81427,37.487219 2.90909,14.163731 -11.88141,19.373171 -23.27965,17.279501 -25.10394,0.002 -50.20788,0.004 -75.31182,0.006 -2.17992,10.61986 1.95931,14.95499 13.44322,11.93923 25.15686,0.30363 50.40244,-0.6538 75.50311,0.54106 15.37504,6.02125 8.03209,24.97603 9.64447,37.59478 2.8386,14.10791 -11.95981,19.18166 -23.27888,17.1237 -25.10394,0.002 -50.20788,0.004 -75.31182,0.006 -5.74126,20.09351 20.59695,9.3335 31.83642,11.92967 19.09694,0.23432 38.30188,-0.71161 57.32957,0.6197 15.11881,6.20795 7.79987,24.95087 9.42442,37.52563 2.8581,14.3341 -12.31472,19.13251 -23.70182,17.12913 -24.96297,0 -49.92593,0 -74.8889,0 0.002,8.15799 0.004,16.31597 0.006,24.47396 5.45417,6.93151 11.87361,7.96259 20.57618,7.01145 19.86754,0 39.73507,0 59.60261,0 8.19801,7.35505 -7.3099,7.15762 -12.51926,6.61459 -20.15358,0 -40.30715,0 -60.46073,0 -1.80046,5.76571 -8.68632,8.88295 -14.29168,6.92158 z m 5.31378,-6.2216 c 10.93573,-9.66114 -14.43305,-9.63311 -3.21458,0.1491 1.10319,0.50407 2.15124,0.0425 3.21458,-0.1491 z m -76.0142,-55.46963 c -1.78278,-8.58595 -21.68261,2.05459 -5.01111,0.5944 l 2.63076,-0.0432 z m 21.90155,0.11729 c 1.13296,-7.52258 -22.49618,0.35375 -6.26971,0.46414 1.85859,-1.09097 4.63821,1.15835 6.26971,-0.46414 z m 22.3487,-0.41498 c -3.57607,-8.08466 -20.29094,2.61182 -4.98952,0.69086 1.64483,0.008 3.60196,0.57577 4.98952,-0.69086 z m 103.50874,-2.10224 c 17.63065,-8.06871 -8.34187,-28.64501 -12.77241,-9.91059 -1.2427,6.92862 6.50581,12.503 12.77241,9.91059 z m -6.14605,-3.1868 c -12.93335,-9.48859 13.89183,-17.05604 7.93399,-1.90873 -1.63783,2.4827 -5.35567,3.21608 -7.93399,1.90873 z m -141.61294,-4.20286 c -1.64599,-8.50708 -21.95287,2.05716 -4.859,0.59636 l 2.55937,-0.0389 z m 21.90155,0.11729 c 1.13293,-7.52256 -22.49616,0.35374 -6.26971,0.46415 1.85858,-1.09099 4.63823,1.15837 6.26971,-0.46415 z m 22.18004,-0.25398 c -2.42169,-8.30089 -20.6253,2.01102 -5.34596,0.60885 1.76706,0.0505 3.78391,0.57787 5.34596,-0.60885 z m -43.92753,-9.7696 c -1.5822,-8.14493 -21.08267,1.31389 -6.65788,0.54668 2.21274,0.007 4.5609,0.43851 6.65788,-0.54668 z m 21.74749,0.234 c 0.4961,-7.84368 -22.88714,0.83207 -5.57261,0.46325 l 2.86247,-0.0293 z m 22.18004,-0.25399 c -1.66306,-8.08967 -20.899,1.46233 -6.03126,0.6045 1.99529,0.0559 4.2252,0.61905 6.03126,-0.6045 z m -44.08159,-47.4883 c -0.94245,-8.16374 -21.03833,0.83243 -6.78011,0.47475 2.25197,0.0498 4.63279,0.49504 6.78011,-0.47475 z m 21.90155,0.11729 c 1.13294,-7.52256 -22.49616,0.35374 -6.26971,0.46415 1.85858,-1.09099 4.63823,1.15837 6.26971,-0.46415 z m 22.3487,-0.41498 c -3.57607,-8.08465 -20.29093,2.61181 -4.98952,0.69085 1.64483,0.008 3.60195,0.57577 4.98952,-0.69085 z m 104.23534,-2.4307 c 20.97094,-17.52695 -25.9733,-23.44508 -10.32412,-1.29572 2.84368,2.2579 7.02342,2.98352 10.32412,1.29572 z m -6.66892,-2.72052 c -14.12411,-11.3349 17.04172,-15.60806 6.45404,-0.71888 -1.84496,1.32614 -4.35815,1.50467 -6.45404,0.71888 z m -141.81667,-4.34067 c -1.64599,-8.50708 -21.95287,2.05716 -4.859,0.59636 l 2.55937,-0.0389 z m 21.90155,0.11729 c 1.13295,-7.52255 -22.49617,0.35374 -6.26971,0.46415 1.85858,-1.09099 4.63823,1.15837 6.26971,-0.46415 z m 22.2693,-0.29116 c -2.77064,-8.24936 -20.60586,2.08201 -5.40603,0.64013 1.78147,0.0346 3.85822,0.6415 5.40603,-0.64013 z m -44.01679,-9.73243 c -1.5822,-8.14492 -21.08266,1.31387 -6.65789,0.54669 2.21275,0.007 4.56087,0.43832 6.65789,-0.54669 z m 21.74749,0.23401 c 0.49613,-7.8437 -22.88715,0.83206 -5.57261,0.46324 l 2.86247,-0.0293 z m 22.18004,-0.25399 c -1.66304,-8.0897 -20.89901,1.46232 -6.03126,0.60449 1.99529,0.0559 4.22519,0.61903 6.03126,-0.60449 z m -44.08159,-47.4883 c -0.94241,-8.163756 -21.03834,0.832422 -6.78011,0.47474 2.25197,0.04977 4.63279,0.49502 6.78011,-0.47474 z m 21.90155,0.11729 c 1.13296,-7.522582 -22.49618,0.353751 -6.26971,0.464145 1.85859,-1.090971 4.63821,1.158345 6.26971,-0.464145 z m 22.3487,-0.41498 c -3.57607,-8.084663 -20.29094,2.61182 -4.98952,0.69086 1.64483,0.0084 3.60196,0.57577 4.98952,-0.69086 z m 103.50874,-2.10224 c 17.62534,-8.05511 -8.34542,-28.654261 -12.76702,-9.909372 -1.25455,6.928475 6.50488,12.501212 12.76702,9.909372 z m -5.81003,-2.99462 c -13.47137,-8.572348 12.39296,-18.04461 7.92008,-2.755955 -1.58643,2.690358 -4.90067,4.010286 -7.92008,2.755955 z m -141.94896,-4.39504 c -1.64599,-8.507077 -21.95287,2.057158 -4.859,0.596359 l 2.55937,-0.03888 z m 21.90155,0.11729 c 1.13294,-7.522555 -22.49616,0.353745 -6.26971,0.464154 1.85858,-1.09099 4.63823,1.158366 6.26971,-0.464154 z m 22.18004,-0.25398 c -2.42168,-8.300893 -20.62531,2.011018 -5.34596,0.60885 1.76706,0.05052 3.78391,0.577874 5.34596,-0.60885 z m -43.92753,-9.76961 c -1.58221,-8.14493 -21.08265,1.313935 -6.65789,0.546618 2.21275,0.0071 4.56082,0.438207 6.65789,-0.546618 z m 21.74749,0.23401 c 0.49611,-7.843677 -22.88715,0.832071 -5.57261,0.463254 l 2.86247,-0.02933 z m 22.02305,-0.0671 c -0.46521,-8.211825 -22.15299,1.601996 -4.7837,0.541305 l 2.49581,-0.03181 z"
           id="path55207"
           inkscape:connector-curvature="0" />
      </g>
    </g>
  </g>
</svg>
