<?xml version="1.0" encoding="UTF-8" standalone="no"?>
<!-- Created with Inkscape (http://www.inkscape.org/) -->

<svg
   xmlns:dc="http://purl.org/dc/elements/1.1/"
   xmlns:cc="http://creativecommons.org/ns#"
   xmlns:rdf="http://www.w3.org/1999/02/22-rdf-syntax-ns#"
   xmlns:svg="http://www.w3.org/2000/svg"
   xmlns="http://www.w3.org/2000/svg"
   xmlns:sodipodi="http://sodipodi.sourceforge.net/DTD/sodipodi-0.dtd"
   xmlns:inkscape="http://www.inkscape.org/namespaces/inkscape"
   width="150"
   height="150"
   viewBox="0 0 39.6875 39.6875"
   version="1.1"
   id="svg922"
   inkscape:version="0.92.4 (5da689c313, 2019-01-14)"
   sodipodi:docname="USO_system_ubuntusoftwarecenter.svg">
  <title
     id="title1437">USOICON</title>
  <defs
     id="defs916">
    <clipPath
       id="clipPath1521"
       clipPathUnits="userSpaceOnUse">
      <rect
         y="66.644836"
         x="57.114269"
         height="151.42299"
         width="172.87534"
         id="rect1523"
         style="opacity:0.875;fill:#000000;fill-opacity:1;stroke:#000000;stroke-width:0.60403091;stroke-linejoin:round;stroke-miterlimit:4;stroke-dasharray:none;stroke-opacity:1" />
    </clipPath>
  </defs>
  <sodipodi:namedview
     id="base"
     pagecolor="#ffffff"
     bordercolor="#666666"
     borderopacity="1.0"
     inkscape:pageopacity="0.0"
     inkscape:pageshadow="2"
     inkscape:zoom="1.9210432"
     inkscape:cx="135.82094"
     inkscape:cy="66.601263"
     inkscape:document-units="px"
     inkscape:current-layer="layer13"
     showgrid="false"
     inkscape:window-width="1063"
     inkscape:window-height="598"
     inkscape:window-x="2577"
     inkscape:window-y="133"
     inkscape:window-maximized="0"
     units="px" />
  <metadata
     id="metadata919">
    <rdf:RDF>
      <cc:Work
         rdf:about="">
        <dc:format>image/svg+xml</dc:format>
        <dc:type
           rdf:resource="http://purl.org/dc/dcmitype/StillImage" />
        <dc:title>USOICON</dc:title>
        <cc:license
           rdf:resource="http://creativecommons.org/licenses/by-sa/4.0/" />
      </cc:Work>
      <cc:License
         rdf:about="http://creativecommons.org/licenses/by-sa/4.0/">
        <cc:permits
           rdf:resource="http://creativecommons.org/ns#Reproduction" />
        <cc:permits
           rdf:resource="http://creativecommons.org/ns#Distribution" />
        <cc:requires
           rdf:resource="http://creativecommons.org/ns#Notice" />
        <cc:requires
           rdf:resource="http://creativecommons.org/ns#Attribution" />
        <cc:permits
           rdf:resource="http://creativecommons.org/ns#DerivativeWorks" />
        <cc:requires
           rdf:resource="http://creativecommons.org/ns#ShareAlike" />
      </cc:License>
    </rdf:RDF>
  </metadata>
  <g
     style="display:inline"
     transform="translate(-35.46637,-112.59198)"
     id="layer1"
     inkscape:groupmode="layer"
     inkscape:label="toonbox" />
  <g
     inkscape:label="text"
     id="layer3"
     inkscape:groupmode="layer" />
  <g
     style="display:inline"
     inkscape:label="icon_system"
     id="layer13"
     inkscape:groupmode="layer">
    <g
       id="g7209">
      <path
         style="display:inline;opacity:0.875;fill:#999999;fill-opacity:1;stroke:none;stroke-width:0.11845408;stroke-linejoin:round;stroke-miterlimit:4;stroke-dasharray:none;stroke-opacity:0.97175137"
         d="M 1.435191,10.12791 C 2.670256,9.29705 4.324329,9.43582 5.75553,9.20511 14.11545,8.61268 22.517162,8.68995 30.881762,9.1576 c 2.392119,0.20608 4.838324,0.26932 7.150425,0.97031 0.872353,1.67498 0.817461,3.66984 1.026746,5.51683 0.208491,4.02511 0.362445,8.13136 -0.532305,12.08777 -0.230317,1.64927 -2.017724,2.0517 -3.40708,2.25864 C 28.802681,30.85612 22.40423,30.81147 16.04062,30.81293 11.303807,30.71862 6.537542,30.74635 1.839737,30.07418 0.173005,29.52829 0.822947,27.03924 0.434179,25.65651 0.154966,21.09087 0.021365,16.47217 0.692557,11.93449 0.848231,11.32021 0.903907,10.54918 1.435191,10.12791 Z"
         id="rect49496"
         inkscape:connector-curvature="0" />
      <path
         style="display:inline;fill:#000000;stroke-width:0.37203047"
         d="M 1.803349,30.70864 C 0.056742,30.0892 0.231437,27.93756 0.087588,26.427 -0.022935,21.93179 -0.070132,17.42779 0.099217,12.93387 -0.027874,11.27811 1.27784,10.0868 2.683582,9.49431 4.615709,8.56731 6.836395,8.9315 8.909365,8.7639 16.59615,8.63948 24.285544,8.62691 31.972812,8.67993 c 2.150882,0.14121 4.537543,-0.0199 6.403551,1.23592 1.58486,1.37874 1.255708,3.71898 1.302004,5.60595 -0.178243,4.07095 0.01584,8.16305 -0.388876,12.21995 -0.293352,1.71142 -2.120394,2.65314 -3.654582,3.02944 -6.368162,0.39372 -12.757085,0.28816 -19.135233,0.3134 C 11.668868,31.0283 6.826658,31.10952 2.006621,30.75364 L 1.803349,30.7086 Z m 34.717949,-1.05781 c 1.660436,-0.66982 2.120657,-2.56797 2.182495,-4.18169 C 38.903556,21.6571 38.926032,17.82461 38.6784,14.01451 38.609934,12.47205 38.055319,10.73538 36.494762,10.11382 34.51138,9.13075 32.202264,9.50823 30.063573,9.36171 22.019563,9.34057 13.971808,9.23982 5.930238,9.4697 4.247551,9.52117 2.061367,9.74531 1.291134,11.49417 c -0.682107,2.6627 -0.37748,5.45735 -0.46467,8.18069 0.080658,2.82901 -0.202804,5.71611 0.421771,8.49628 0.655233,1.84726 2.893842,2.0042 4.558802,2.11114 8.176545,0.4213 16.369453,0.15886 24.551012,0.03302 2.04628,-0.14679 4.225389,0.10711 6.163249,-0.66447 z M 4.297406,28.9474 c -0.939032,0.02717 -2.493051,-2.1182 -0.727168,-0.88447 1.706475,0.99084 3.797167,0.59334 5.679761,0.73138 0.843628,0.09701 3.276883,-0.14441 3.328971,0.24148 -2.712643,0.43249 -5.596207,0.56419 -8.281564,-0.08839 z m 31.24001,-17.1062 c -1.499147,-0.78086 -3.308903,-0.4003 -4.94344,-0.53994 -1.173066,-0.10336 -4.022293,-0.01807 -4.347208,-0.50636 2.904245,-0.07023 5.874879,-0.31161 8.734279,0.31742 0.913242,-0.14345 1.834744,2.01352 0.556369,0.72888 z"
         id="path49494"
         inkscape:connector-curvature="0" />
      <path
         style="font-style:normal;font-variant:normal;font-weight:normal;font-stretch:normal;font-size:3.62684989px;font-family:Insaniburger;-inkscape-font-specification:Insaniburger;opacity:1;vector-effect:none;fill:#000000;fill-opacity:1;stroke:none;stroke-width:0.04250215;stroke-linecap:butt;stroke-linejoin:miter;stroke-miterlimit:4;stroke-dasharray:none;stroke-dashoffset:0;stroke-opacity:1"
         d="m 4.2603567,26.775293 c -0.4772655,1.909051 -1.839194,0.342239 -1.468751,-1.286856 -0.2035323,-1.30277 0.8187792,-1.037305 0.5466404,0.148524 -0.2330038,1.108455 0.507139,1.699266 0.3754702,0.304639 -0.2573317,-0.855544 0.4392127,-2.159747 0.5466404,-0.772587 0,0.535426 0,1.070854 0,1.60628 z m 1.5929875,-0.07725 c 0.090152,1.083363 -1.4756489,1.381779 -1.454947,0.279479 0.039989,-0.771818 -0.083599,-1.61382 0.06833,-2.338973 0.7270789,-0.493979 1.654006,0.336375 1.2220036,1.435 0.1123846,0.149067 0.1678842,0.391205 0.1646133,0.624494 z m -0.5466404,-0.04998 c -0.5202856,-1.33869 -0.4857428,1.314998 0,0 z m -0.038651,-1.195028 c -0.4652896,-1.208235 -0.4428548,1.194865 0,0 z m 2.171377,1.322256 c -0.4772655,1.909051 -1.839194,0.342239 -1.4687511,-1.286856 -0.2035322,-1.30277 0.8187793,-1.037305 0.5466404,0.148524 -0.2330037,1.108455 0.5071391,1.699266 0.3754702,0.304639 -0.2573316,-0.855544 0.4392127,-2.159747 0.5466405,-0.772587 0,0.535426 0,1.070854 0,1.60628 z M 8.7038812,25.90742 c -0.2624466,-0.856459 0.4537538,-2.105842 0.5466401,-0.738407 -0.039988,0.771817 0.0836,1.61382 -0.06833,2.338973 -0.49587,0.509784 -0.8242898,-1.197795 -1.0580802,-1.156422 0.2885344,0.969307 -0.5918413,1.886703 -0.5466404,0.508976 0.039426,-0.732596 -0.082814,-1.534952 0.06833,-2.220851 0.4919248,-0.407712 0.7431025,0.849608 1.0580808,1.267731 z m 1.7075608,-0.645225 c -0.0384,0.742862 0.08126,1.553854 -0.06833,2.250335 -0.706023,0.443671 -0.424129,-1.166904 -0.4783109,-1.817315 0.1059973,-0.600092 -1.0309293,-0.793767 -0.1339199,-1.15549 0.4060878,-0.09531 1.6700608,-0.02217 0.8883218,0.72247 -0.06925,0 -0.138508,0 -0.207761,0 z m 2.085793,1.513098 c -0.477266,1.909051 -1.839195,0.342239 -1.468752,-1.286856 -0.203532,-1.30277 0.818779,-1.037305 0.546641,0.148524 -0.233004,1.108455 0.507139,1.699266 0.37547,0.304639 -0.257332,-0.855544 0.439213,-2.159747 0.546641,-0.772587 0,0.535426 0,1.070854 0,1.60628 z m 1.566759,0.840609 c -0.953445,0.228303 -0.887733,-1.607722 0.0097,-0.740645 0.44399,-0.642512 -1.362067,-0.940966 -0.494185,-2.144691 0.675649,-1.163445 1.658364,1.136512 0.407219,0.431665 -0.30251,0.647596 1.372265,0.988514 0.519033,2.187857 l -0.198088,0.199361 z m 2.694551,-1.572166 c 0.01901,2.745221 -2.769324,1.423699 -1.818684,-0.914589 0.4947,-1.25811 1.890519,-0.674087 1.818684,0.914589 z m -0.654312,-0.570252 c -1.185032,-1.190316 -0.725487,2.743459 0.09283,0.881504 0.05847,-0.292339 0.03962,-0.647829 -0.09283,-0.881504 z m 1.318287,1.738017 c -0.341011,-1.043764 1.149428,-0.921016 0.191897,-1.508554 -0.785628,-0.334888 1.186854,-0.735369 0.05522,-1.163222 -0.548343,-0.220869 -0.956453,0.251144 -0.793753,1.214222 0.04706,0.638178 -0.216196,2.202857 0.478309,1.752904 l 0.05125,-0.123253 z m 1.762777,-1.949306 c -0.0384,0.742862 0.08126,1.553854 -0.06833,2.250335 -0.706022,0.443671 -0.424128,-1.166904 -0.47831,-1.817315 0.105998,-0.600092 -1.030929,-0.793767 -0.133919,-1.15549 0.406086,-0.09531 1.670059,-0.02217 0.888321,0.72247 -0.06925,0 -0.138508,0 -0.207761,0 z m 2.139628,2.353707 c -0.419315,-0.590619 -0.39838,-1.229395 -0.696069,-0.08065 -0.605742,0.141566 -0.532527,-1.349568 -0.762669,-2.022764 -0.27093,-1.62562 0.699803,-0.692329 0.651201,0.385847 0.104462,-1.155077 0.730814,-0.467851 0.795155,-0.111174 -0.03201,-1.275116 1.004778,-1.638475 0.596529,-0.09823 -0.194941,0.619857 -0.148025,1.649753 -0.584147,1.926971 z m 1.784864,-1.276817 c -0.08062,-1.219889 -0.434591,0.304091 0,0 z m -0.400318,0.727013 c -0.502564,1.399663 -0.6977,-0.57814 -0.25408,-1.232241 0.0958,-0.974676 0.748114,-1.829725 0.943452,-0.453538 0.108837,0.70148 0.79502,1.852042 0.159578,2.226496 -0.260171,-0.511266 -0.390081,-0.639042 -0.84895,-0.540717 z m 2.411568,-0.763364 c 0.682884,0.804924 -0.101523,1.869628 -0.410241,0.555933 -0.344873,-1.200787 -0.01853,1.729352 -0.718412,0.525785 0.0029,-0.90247 -0.09246,-1.886507 0.05125,-2.745898 0.661359,-0.477605 1.966991,0.331237 1.077406,1.66418 z m -0.599095,-1.145047 c -0.2332,1.637953 1.008479,-0.0061 0,0 z m 1.986401,2.449128 c 0.764193,-0.617815 -1.147216,-0.952561 -0.05522,-1.176853 0.697114,-0.551032 -1.073706,-1.086581 0.05522,-1.167767 0.731438,-0.739827 -0.986433,-1.197478 -0.935914,-0.210169 0.04054,0.810643 -0.08436,1.692048 0.06833,2.45596 0.260629,0.194781 0.585905,0.05749 0.867584,0.09883 z m 2.745627,-0.549805 c -0.919329,2.104641 -2.665248,-1.500528 -1.139179,-2.497406 0.798321,-0.923487 1.697963,1.48901 0.418608,0.68896 -1.004049,0.279257 -0.162091,2.389434 0.584601,1.418244 l 0.06971,0.09713 z m 1.073956,0.549805 C 31.09212,26.989 29.18071,26.654254 30.272711,26.429962 c 0.697114,-0.551032 -1.073706,-1.086581 0.05522,-1.167767 0.731437,-0.739827 -0.986434,-1.197478 -0.935915,-0.210169 0.04054,0.810643 -0.08436,1.692048 0.06833,2.45596 0.260629,0.194781 0.585904,0.05749 0.867585,0.09883 z m 1.477034,-1.699395 c -0.262447,-0.856459 0.453753,-2.105842 0.546641,-0.738407 -0.03999,0.771817 0.0836,1.61382 -0.06833,2.338973 -0.495871,0.509784 -0.82429,-1.197795 -1.05808,-1.156422 0.288534,0.969307 -0.591842,1.886703 -0.546641,0.508976 0.03943,-0.732596 -0.08281,-1.534952 0.06833,-2.220851 0.491925,-0.407712 0.743102,0.849608 1.058081,1.267731 z m 1.707559,-0.645225 c -0.0384,0.742862 0.08126,1.553854 -0.06833,2.250335 -0.706023,0.443671 -0.424128,-1.166904 -0.47831,-1.817315 0.105997,-0.600092 -1.03093,-0.793767 -0.13392,-1.15549 0.406087,-0.09531 1.67006,-0.02217 0.888321,0.72247 -0.06925,0 -0.138507,0 -0.207761,0 z m 1.552958,2.34462 c 0.764192,-0.617815 -1.147218,-0.952561 -0.05522,-1.176853 0.697113,-0.551032 -1.073707,-1.086581 0.05522,-1.167767 0.731438,-0.739827 -0.986433,-1.197478 -0.935915,-0.210169 0.04054,0.810643 -0.08436,1.692048 0.06833,2.45596 0.260629,0.194781 0.585905,0.05749 0.867585,0.09883 z m 1.496357,-1.304081 c 0.682884,0.804924 -0.101524,1.869628 -0.410242,0.555933 -0.344872,-1.200787 -0.01853,1.729352 -0.718412,0.525785 0.0029,-0.90247 -0.09246,-1.886507 0.05125,-2.745898 0.66136,-0.477605 1.966992,0.331237 1.077407,1.66418 z M 35.96274,25.157687 c -0.2332,1.637953 1.008479,-0.0061 0,0 z"
         id="text49550"
         inkscape:connector-curvature="0" />
      <g
         id="g53543"
         style="fill:#000000;fill-opacity:1"
         transform="matrix(0.25341017,0,0,0.27251274,-27.614522,-84.260427)">
        <path
           style="fill:#000000;fill-opacity:1;stroke-width:0.42873418"
           d="m 166.36076,393.32227 c -6.6134,-2.35074 1.40407,-16.00593 4.44822,-9.34291 1.75745,3.52187 10.43794,2.40171 4.44246,7.03363 -2.13986,2.47494 -5.79675,4.34475 -8.89068,2.30928 z"
           id="path53531"
           inkscape:connector-curvature="0" />
        <path
           style="fill:#000000;fill-opacity:1;stroke-width:0.42873418"
           d="m 169.67848,390.43369 c 0.71695,-4.76657 -5.09417,1.66151 0,0 z"
           id="path53529"
           inkscape:connector-curvature="0" />
        <path
           style="fill:#000000;fill-opacity:1;stroke-width:0.42873418"
           d="m 197.74585,392.90821 c -3.72311,-3.26509 -10.96211,-6.37597 -11.77174,-10.99768 2.43562,-3.56617 4.96089,-6.1461 8.33965,-1.75923 3.55128,3.04611 13.85593,8.94102 5.95716,12.815 -0.79619,0.62641 -1.73229,0.225 -2.52507,-0.0581 z"
           id="path53527"
           inkscape:connector-curvature="0" />
        <path
           style="fill:#000000;fill-opacity:1;stroke-width:0.42873418"
           d="m 175.65172,385.33519 c -8.64636,-2.76003 -2.63159,-10.12124 1.58548,-13.87546 3.13419,-3.16351 6.34151,4.71751 10.30312,5.09 -3.04466,3.08279 -6.52036,11.38606 -11.8886,8.78546 z"
           id="path53525"
           inkscape:connector-curvature="0" />
        <path
           style="fill:#000000;fill-opacity:1;stroke-width:0.42873418"
           d="m 188.17484,374.30722 c -6.19614,-1.85432 -10.75606,-8.92336 -7.89961,-15.17655 1.67427,-5.50861 10.13373,-9.09087 14.28734,-6.67497 -3.6462,3.67491 -10.64309,11.94092 -1.97562,14.22704 5.41143,2.3806 9.02121,-10.41422 12.12773,-5.99 1.67197,7.23454 -4.64886,14.21802 -11.86578,14.16487 -1.57427,0.0675 -3.15746,-0.12517 -4.67406,-0.55039 z"
           id="path53523"
           inkscape:connector-curvature="0" />
        <path
           style="fill:#000000;fill-opacity:1;stroke-width:0.42873418"
           d="m 171.0534,368.49238 c -2.25957,-1.53114 -8.99443,-5.85664 -3.06712,-6.81765 1.83418,2.77874 9.30269,5.62109 7.02999,9.05476 -1.60099,0.0425 -2.70108,-1.49148 -3.96287,-2.23711 z"
           id="path53519"
           inkscape:connector-curvature="0" />
      </g>
    </g>
  </g>
</svg>
