<?xml version="1.0" encoding="UTF-8" standalone="no"?>
<!-- Created with Inkscape (http://www.inkscape.org/) -->

<svg
   xmlns:dc="http://purl.org/dc/elements/1.1/"
   xmlns:cc="http://creativecommons.org/ns#"
   xmlns:rdf="http://www.w3.org/1999/02/22-rdf-syntax-ns#"
   xmlns:svg="http://www.w3.org/2000/svg"
   xmlns="http://www.w3.org/2000/svg"
   xmlns:sodipodi="http://sodipodi.sourceforge.net/DTD/sodipodi-0.dtd"
   xmlns:inkscape="http://www.inkscape.org/namespaces/inkscape"
   width="150"
   height="150"
   viewBox="0 0 39.6875 39.6875"
   version="1.1"
   id="svg922"
   inkscape:version="0.92.4 (5da689c313, 2019-01-14)"
   sodipodi:docname="USO_games_ufoalieninvasion.svg">
  <title
     id="title1437">USOICON</title>
  <defs
     id="defs916">
    <clipPath
       id="clipPath1521"
       clipPathUnits="userSpaceOnUse">
      <rect
         y="66.644836"
         x="57.114269"
         height="151.42299"
         width="172.87534"
         id="rect1523"
         style="opacity:0.875;fill:#000000;fill-opacity:1;stroke:#000000;stroke-width:0.60403091;stroke-linejoin:round;stroke-miterlimit:4;stroke-dasharray:none;stroke-opacity:1" />
    </clipPath>
  </defs>
  <sodipodi:namedview
     id="base"
     pagecolor="#ffffff"
     bordercolor="#666666"
     borderopacity="1.0"
     inkscape:pageopacity="0.0"
     inkscape:pageshadow="2"
     inkscape:zoom="1.6436183"
     inkscape:cx="78.662564"
     inkscape:cy="64.182888"
     inkscape:document-units="px"
     inkscape:current-layer="layer7"
     showgrid="false"
     inkscape:window-width="838"
     inkscape:window-height="542"
     inkscape:window-x="2874"
     inkscape:window-y="408"
     inkscape:window-maximized="0"
     units="px" />
  <metadata
     id="metadata919">
    <rdf:RDF>
      <cc:Work
         rdf:about="">
        <dc:format>image/svg+xml</dc:format>
        <dc:type
           rdf:resource="http://purl.org/dc/dcmitype/StillImage" />
        <dc:title>USOICON</dc:title>
        <cc:license
           rdf:resource="http://creativecommons.org/licenses/by-sa/4.0/" />
      </cc:Work>
      <cc:License
         rdf:about="http://creativecommons.org/licenses/by-sa/4.0/">
        <cc:permits
           rdf:resource="http://creativecommons.org/ns#Reproduction" />
        <cc:permits
           rdf:resource="http://creativecommons.org/ns#Distribution" />
        <cc:requires
           rdf:resource="http://creativecommons.org/ns#Notice" />
        <cc:requires
           rdf:resource="http://creativecommons.org/ns#Attribution" />
        <cc:permits
           rdf:resource="http://creativecommons.org/ns#DerivativeWorks" />
        <cc:requires
           rdf:resource="http://creativecommons.org/ns#ShareAlike" />
      </cc:License>
    </rdf:RDF>
  </metadata>
  <g
     style="display:inline"
     transform="translate(-35.46637,-112.59198)"
     id="layer1"
     inkscape:groupmode="layer"
     inkscape:label="toonbox" />
  <g
     inkscape:label="text"
     id="layer3"
     inkscape:groupmode="layer" />
  <g
     style="display:inline"
     inkscape:label="icon_games"
     id="layer7"
     inkscape:groupmode="layer">
    <g
       id="g4600">
      <path
         style="display:inline;opacity:0.875;fill:#999999;fill-opacity:1;stroke:none;stroke-width:0.11845408;stroke-linejoin:round;stroke-miterlimit:4;stroke-dasharray:none;stroke-opacity:0.97175137"
         d="M 1.435191,10.12791 C 2.670256,9.29705 4.324329,9.43582 5.75553,9.20511 14.11545,8.61268 22.517162,8.68995 30.881762,9.1576 c 2.392119,0.20608 4.838324,0.26932 7.150425,0.97031 0.872353,1.67498 0.817461,3.66984 1.026746,5.51683 0.208491,4.02511 0.362445,8.13136 -0.532305,12.08777 -0.230317,1.64927 -2.017724,2.0517 -3.40708,2.25864 C 28.802681,30.85612 22.40423,30.81147 16.04062,30.81293 11.303807,30.71862 6.537542,30.74635 1.839737,30.07418 0.173005,29.52829 0.822947,27.03924 0.434179,25.65651 0.154966,21.09087 0.021365,16.47217 0.692557,11.93449 0.848231,11.32021 0.903907,10.54918 1.435191,10.12791 Z"
         id="rect49496"
         inkscape:connector-curvature="0" />
      <path
         style="display:inline;fill:#000000;stroke-width:0.37203047"
         d="M 1.803349,30.70864 C 0.056742,30.0892 0.231437,27.93756 0.087588,26.427 -0.022935,21.93179 -0.070132,17.42779 0.099217,12.93387 -0.027874,11.27811 1.27784,10.0868 2.683582,9.49431 4.615709,8.56731 6.836395,8.9315 8.909365,8.7639 16.59615,8.63948 24.285544,8.62691 31.972812,8.67993 c 2.150882,0.14121 4.537543,-0.0199 6.403551,1.23592 1.58486,1.37874 1.255708,3.71898 1.302004,5.60595 -0.178243,4.07095 0.01584,8.16305 -0.388876,12.21995 -0.293352,1.71142 -2.120394,2.65314 -3.654582,3.02944 -6.368162,0.39372 -12.757085,0.28816 -19.135233,0.3134 C 11.668868,31.0283 6.826658,31.10952 2.006621,30.75364 L 1.803349,30.7086 Z m 34.717949,-1.05781 c 1.660436,-0.66982 2.120657,-2.56797 2.182495,-4.18169 C 38.903556,21.6571 38.926032,17.82461 38.6784,14.01451 38.609934,12.47205 38.055319,10.73538 36.494762,10.11382 34.51138,9.13075 32.202264,9.50823 30.063573,9.36171 22.019563,9.34057 13.971808,9.23982 5.930238,9.4697 4.247551,9.52117 2.061367,9.74531 1.291134,11.49417 c -0.682107,2.6627 -0.37748,5.45735 -0.46467,8.18069 0.080658,2.82901 -0.202804,5.71611 0.421771,8.49628 0.655233,1.84726 2.893842,2.0042 4.558802,2.11114 8.176545,0.4213 16.369453,0.15886 24.551012,0.03302 2.04628,-0.14679 4.225389,0.10711 6.163249,-0.66447 z M 4.297406,28.9474 c -0.939032,0.02717 -2.493051,-2.1182 -0.727168,-0.88447 1.706475,0.99084 3.797167,0.59334 5.679761,0.73138 0.843628,0.09701 3.276883,-0.14441 3.328971,0.24148 -2.712643,0.43249 -5.596207,0.56419 -8.281564,-0.08839 z m 31.24001,-17.1062 c -1.499147,-0.78086 -3.308903,-0.4003 -4.94344,-0.53994 -1.173066,-0.10336 -4.022293,-0.01807 -4.347208,-0.50636 2.904245,-0.07023 5.874879,-0.31161 8.734279,0.31742 0.913242,-0.14345 1.834744,2.01352 0.556369,0.72888 z"
         id="path49494"
         inkscape:connector-curvature="0" />
      <path
         style="font-style:normal;font-variant:normal;font-weight:normal;font-stretch:normal;font-size:4.18746758px;font-family:Insaniburger;-inkscape-font-specification:Insaniburger;opacity:1;vector-effect:none;fill:#000000;fill-opacity:1;stroke:none;stroke-width:0.04907188;stroke-linecap:butt;stroke-linejoin:miter;stroke-miterlimit:4;stroke-dasharray:none;stroke-dashoffset:0;stroke-opacity:1"
         d="m 4.6932288,26.155215 c -0.094293,1.261059 -2.2704602,1.064852 -2.016784,-0.2951 0.091614,-0.599467 -0.21144,-1.426745 0.2111084,-1.851216 0.8562234,-0.145411 0.4431538,1.143615 0.5394991,1.736921 0.2442944,1.256286 0.7192113,-0.251725 0.515569,-0.89893 -0.2639279,-1.169135 1.0902531,-0.967458 0.7506075,0.111995 0,0.398777 0,0.797553 0,1.19633 z m 0.9401551,0.423474 C 5.250234,25.48683 6.4240484,26.160007 6.3657475,25.312679 5.934686,25.24668 5.1374925,24.701402 6.0560627,24.68629 7.0193009,24.42639 5.9579363,23.69253 5.4070854,23.984912 4.5925596,23.892149 4.9661133,25.07113 4.8827763,25.647452 4.7511159,26.275931 5.0326997,27.74422 5.6333839,26.578689 Z m 3.6980689,-1.133675 c 0.026104,2.665079 -3.8026369,1.382138 -2.4972866,-0.887888 0.6792864,-1.221381 2.5959268,-0.654408 2.4972866,0.887888 z M 8.4329983,24.891411 c -1.9520588,-1.072331 -0.513334,2.964406 0.1705926,0.551397 l -0.042648,-0.304371 z m 3.3227657,0.84033 c -0.114103,-1.19125 -0.599986,0.287367 0,0 z m -0.549687,0.70579 c -0.609067,1.323021 -1.003683,-0.42321 -0.403175,-1.057962 0.193997,-0.609005 0.709927,-2.087692 1.216727,-0.915897 0.243694,0.690906 0.589358,1.341404 0.763482,2.059877 -0.433524,1.165249 -0.766846,-0.577831 -1.577034,-0.08602 z m 3.076353,0.524932 c -0.494653,-0.05325 -1.48713,0.275476 -1.338204,-0.678874 0.05275,-0.727313 -0.111689,-1.520428 0.09383,-2.202733 0.905419,-0.443527 0.614728,0.969744 0.656782,1.566596 -0.424375,1.109638 1.30142,0.150928 0.690426,1.293092 z m 1.175194,-0.383774 c -0.544833,1.088913 -0.938191,-0.413122 -0.750608,-1.082034 -0.0627,-0.603925 -0.06339,-2.053403 0.727151,-1.29587 0.05302,0.78669 0.0091,1.587284 0.02346,2.377904 z m 1.474678,0.383774 c 1.001078,-0.763141 -0.756332,-0.435132 -0.534524,-1.094847 0.676534,0.251905 1.085132,-0.944885 0.120562,-0.75344 -0.636646,-0.685933 0.946237,-0.10313 0.687621,-0.932001 -0.359827,-0.282735 -1.513442,-0.451533 -1.55879,0.284878 0.05415,0.792571 -0.113651,1.652031 0.09383,2.399466 0.363213,0.186949 0.800686,0.05731 1.191305,0.09594 z m 2.028158,-1.649784 c -0.277862,-0.72559 0.436222,-2.033631 0.750607,-0.845626 -0.05415,0.792571 0.113652,1.652031 -0.09383,2.399466 -0.693796,0.334589 -0.986178,-0.768299 -1.427399,-1.200974 0.145898,0.467634 -0.261753,2.040455 -0.776089,0.913144 0.05482,-0.824819 -0.114593,-1.717208 0.09383,-2.496731 0.660056,-0.400483 1.032195,0.831816 1.452881,1.230721 z m 2.630917,1.26601 c -0.544834,1.088913 -0.938191,-0.413122 -0.750609,-1.082034 -0.0627,-0.603925 -0.06339,-2.053403 0.727152,-1.29587 0.05302,0.78669 0.0091,1.587284 0.02346,2.377904 z m 1.736253,-1.26601 c -0.277862,-0.72559 0.436223,-2.033631 0.750608,-0.845626 -0.05415,0.792571 0.113651,1.652031 -0.09383,2.399466 -0.693795,0.334589 -0.986179,-0.768299 -1.427398,-1.200974 0.145896,0.467634 -0.261754,2.040455 -0.77609,0.913144 0.05482,-0.824819 -0.114594,-1.717208 0.09383,-2.496731 0.660056,-0.400483 1.032194,0.831816 1.45288,1.230721 z m 2.105871,1.658605 c -0.576303,-0.357162 -0.653581,-1.291412 -0.987297,-1.922389 -0.640816,-1.241993 0.716546,-1.220605 0.810371,-0.05306 0.212224,0.996973 0.421238,-0.389872 0.631682,-0.714967 0.982375,-0.937511 0.653656,0.908388 0.255579,1.460575 -0.222551,0.40664 -0.261593,1.08741 -0.710335,1.229841 z m 2.268883,-1.239543 c -0.114103,-1.19125 -0.599986,0.287367 0,0 z m -0.549688,0.70579 c -0.609066,1.323021 -1.003681,-0.42321 -0.403174,-1.057962 0.193996,-0.609005 0.709927,-2.087692 1.216727,-0.915897 0.243694,0.690906 0.589358,1.341404 0.763482,2.059877 -0.433524,1.165249 -0.766846,-0.577831 -1.577035,-0.08602 z m 2.75981,0.533753 c -0.999188,0.380257 -1.503153,-1.575961 -0.206606,-0.74935 1.316772,-0.265297 -1.785702,-0.936087 -0.458705,-2.051751 0.757076,-1.124534 2.315784,0.908054 0.731653,0.441669 -0.974166,0.310776 1.835218,0.978926 0.54021,2.101378 -0.163135,0.18165 -0.387177,0.259652 -0.606552,0.258054 z m 1.768477,-0.392595 c -0.544833,1.088913 -0.93819,-0.413122 -0.750608,-1.082034 -0.0627,-0.603925 -0.06339,-2.053403 0.727152,-1.29587 0.05302,0.78669 0.0091,1.587284 0.02346,2.377904 z m 2.871643,-1.133675 c 0.0261,2.665079 -3.802637,1.382138 -2.497287,-0.887888 0.679287,-1.221381 2.595927,-0.654408 2.497287,0.887888 z m -0.898454,-0.553603 c -1.952059,-1.072331 -0.513335,2.964406 0.170592,0.551397 l -0.04265,-0.304371 z m 2.606276,0.421268 c -0.277862,-0.72559 0.436223,-2.033631 0.750609,-0.845626 -0.05415,0.792571 0.11365,1.652031 -0.09383,2.399466 -0.693796,0.334589 -0.986178,-0.768299 -1.427398,-1.200974 0.145896,0.467634 -0.261754,2.040455 -0.77609,0.913144 0.05482,-0.824819 -0.114594,-1.717208 0.09383,-2.496731 0.660056,-0.400483 1.032195,0.831816 1.45288,1.230721 z"
         id="text49550"
         inkscape:connector-curvature="0" />
      <g
         id="g53695"
         transform="matrix(0.23216083,0,0,0.26739887,-40.66702,-79.695953)">
        <path
           style="fill:#000000;fill-opacity:1;stroke-width:0.56041962"
           d="m 225.79653,381.36576 c -5.04874,-5.70045 -3.09798,-14.35633 -2.45039,-21.29598 2.14357,-8.89697 7.83465,-18.94365 17.6609,-20.54413 7.25222,-1.3964 13.14991,3.76259 20.06409,4.17152 6.86243,-0.25136 12.65893,-5.79643 19.79539,-4.07863 10.07438,0.99305 15.61039,11.35051 17.88548,20.14 0.72391,7.0246 2.71218,15.81255 -2.37779,21.60722 -6.22795,4.55619 -12.2931,-2.23293 -16.91721,-5.91504 -5.78798,-5.77763 -14.55245,-3.45633 -21.84303,-3.96964 -6.37158,-0.56289 -12.86431,0.86093 -17.22384,5.87987 -3.90129,3.36771 -9.44686,8.07986 -14.5936,4.00481 z"
           id="path53677"
           inkscape:connector-curvature="0" />
        <path
           style="fill:#ffffff;fill-opacity:1;stroke-width:0.56041962"
           d="m 277.9872,362.41501 c 5.58994,-5.40079 -8.06317,-7.57497 -4.77264,-0.67341 1.23932,1.3571 3.24548,2.00683 4.77264,0.67341 z"
           id="path53675"
           inkscape:connector-curvature="0" />
        <path
           style="fill:#ffffff;fill-opacity:1;stroke-width:0.56041962"
           d="m 247.09052,359.86347 c 0.27723,-3.25746 8.70112,-2.32963 4.12382,-6.78295 -5.26871,1.19244 -3.64993,-8.73224 -9.37797,-3.68051 1.20337,5.19333 -8.41269,2.02905 -5.05105,7.57352 3.38408,0.29645 5.45041,0.84964 5.40535,4.6496 1.57622,0.88603 5.19447,0.91959 4.89985,-1.75966 z"
           id="path53673"
           inkscape:connector-curvature="0" />
        <path
           style="fill:#fffffc;fill-opacity:1;stroke-width:0.56041962"
           d="m 288.72216,357.58638 c 4.50178,-7.79772 -11.51832,-3.99212 -3.56811,0.81562 1.22542,0.443 2.60725,-0.0116 3.56811,-0.81562 z"
           id="path53671"
           inkscape:connector-curvature="0" />
        <path
           style="fill:#f8ffff;fill-opacity:1;stroke-width:0.56041962"
           d="m 278.37813,352.42476 c 4.38079,-8.166 -11.41132,-4.0188 -3.58973,0.81533 1.23238,0.44154 2.62307,-0.004 3.58973,-0.81533 z"
           id="path53664"
           inkscape:connector-curvature="0" />
      </g>
    </g>
  </g>
</svg>
