<?xml version="1.0" encoding="UTF-8" standalone="no"?>
<!-- Created with Inkscape (http://www.inkscape.org/) -->

<svg
   xmlns:dc="http://purl.org/dc/elements/1.1/"
   xmlns:cc="http://creativecommons.org/ns#"
   xmlns:rdf="http://www.w3.org/1999/02/22-rdf-syntax-ns#"
   xmlns:svg="http://www.w3.org/2000/svg"
   xmlns="http://www.w3.org/2000/svg"
   xmlns:sodipodi="http://sodipodi.sourceforge.net/DTD/sodipodi-0.dtd"
   xmlns:inkscape="http://www.inkscape.org/namespaces/inkscape"
   width="150"
   height="150"
   viewBox="0 0 39.6875 39.6875"
   version="1.1"
   id="svg922"
   inkscape:version="0.92.4 (5da689c313, 2019-01-14)"
   sodipodi:docname="USO_games_talesofmajeyal.svg">
  <title
     id="title1437">USOICON</title>
  <defs
     id="defs916">
    <clipPath
       id="clipPath1521"
       clipPathUnits="userSpaceOnUse">
      <rect
         y="66.644836"
         x="57.114269"
         height="151.42299"
         width="172.87534"
         id="rect1523"
         style="opacity:0.875;fill:#000000;fill-opacity:1;stroke:#000000;stroke-width:0.60403091;stroke-linejoin:round;stroke-miterlimit:4;stroke-dasharray:none;stroke-opacity:1" />
    </clipPath>
  </defs>
  <sodipodi:namedview
     id="base"
     pagecolor="#ffffff"
     bordercolor="#666666"
     borderopacity="1.0"
     inkscape:pageopacity="0.0"
     inkscape:pageshadow="2"
     inkscape:zoom="3.0205124"
     inkscape:cx="73.388435"
     inkscape:cy="62.695903"
     inkscape:document-units="px"
     inkscape:current-layer="layer7"
     showgrid="false"
     inkscape:window-width="1132"
     inkscape:window-height="645"
     inkscape:window-x="2002"
     inkscape:window-y="118"
     inkscape:window-maximized="0"
     units="px" />
  <metadata
     id="metadata919">
    <rdf:RDF>
      <cc:Work
         rdf:about="">
        <dc:format>image/svg+xml</dc:format>
        <dc:type
           rdf:resource="http://purl.org/dc/dcmitype/StillImage" />
        <dc:title>USOICON</dc:title>
        <cc:license
           rdf:resource="http://creativecommons.org/licenses/by-sa/4.0/" />
      </cc:Work>
      <cc:License
         rdf:about="http://creativecommons.org/licenses/by-sa/4.0/">
        <cc:permits
           rdf:resource="http://creativecommons.org/ns#Reproduction" />
        <cc:permits
           rdf:resource="http://creativecommons.org/ns#Distribution" />
        <cc:requires
           rdf:resource="http://creativecommons.org/ns#Notice" />
        <cc:requires
           rdf:resource="http://creativecommons.org/ns#Attribution" />
        <cc:permits
           rdf:resource="http://creativecommons.org/ns#DerivativeWorks" />
        <cc:requires
           rdf:resource="http://creativecommons.org/ns#ShareAlike" />
      </cc:License>
    </rdf:RDF>
  </metadata>
  <g
     style="display:inline"
     transform="translate(-35.46637,-112.59198)"
     id="layer1"
     inkscape:groupmode="layer"
     inkscape:label="toonbox" />
  <g
     inkscape:label="text"
     id="layer3"
     inkscape:groupmode="layer" />
  <g
     style="display:inline"
     inkscape:label="icon_games"
     id="layer7"
     inkscape:groupmode="layer">
    <g
       id="g2704">
      <path
         style="display:inline;opacity:0.875;fill:#999999;fill-opacity:1;stroke:none;stroke-width:0.11845408;stroke-linejoin:round;stroke-miterlimit:4;stroke-dasharray:none;stroke-opacity:0.97175137"
         d="M 1.435191,10.12791 C 2.670256,9.29705 4.324329,9.43582 5.75553,9.20511 14.11545,8.61268 22.517162,8.68995 30.881762,9.1576 c 2.392119,0.20608 4.838324,0.26932 7.150425,0.97031 0.872353,1.67498 0.817461,3.66984 1.026746,5.51683 0.208491,4.02511 0.362445,8.13136 -0.532305,12.08777 -0.230317,1.64927 -2.017724,2.0517 -3.40708,2.25864 C 28.802681,30.85612 22.40423,30.81147 16.04062,30.81293 11.303807,30.71862 6.537542,30.74635 1.839737,30.07418 0.173005,29.52829 0.822947,27.03924 0.434179,25.65651 0.154966,21.09087 0.021365,16.47217 0.692557,11.93449 0.848231,11.32021 0.903907,10.54918 1.435191,10.12791 Z"
         id="rect49496"
         inkscape:connector-curvature="0" />
      <path
         style="display:inline;fill:#000000;stroke-width:0.37203047"
         d="M 1.803349,30.70864 C 0.056742,30.0892 0.231437,27.93756 0.087588,26.427 -0.022935,21.93179 -0.070132,17.42779 0.099217,12.93387 -0.027874,11.27811 1.27784,10.0868 2.683582,9.49431 4.615709,8.56731 6.836395,8.9315 8.909365,8.7639 16.59615,8.63948 24.285544,8.62691 31.972812,8.67993 c 2.150882,0.14121 4.537543,-0.0199 6.403551,1.23592 1.58486,1.37874 1.255708,3.71898 1.302004,5.60595 -0.178243,4.07095 0.01584,8.16305 -0.388876,12.21995 -0.293352,1.71142 -2.120394,2.65314 -3.654582,3.02944 -6.368162,0.39372 -12.757085,0.28816 -19.135233,0.3134 C 11.668868,31.0283 6.826658,31.10952 2.006621,30.75364 L 1.803349,30.7086 Z m 34.717949,-1.05781 c 1.660436,-0.66982 2.120657,-2.56797 2.182495,-4.18169 C 38.903556,21.6571 38.926032,17.82461 38.6784,14.01451 38.609934,12.47205 38.055319,10.73538 36.494762,10.11382 34.51138,9.13075 32.202264,9.50823 30.063573,9.36171 22.019563,9.34057 13.971808,9.23982 5.930238,9.4697 4.247551,9.52117 2.061367,9.74531 1.291134,11.49417 c -0.682107,2.6627 -0.37748,5.45735 -0.46467,8.18069 0.080658,2.82901 -0.202804,5.71611 0.421771,8.49628 0.655233,1.84726 2.893842,2.0042 4.558802,2.11114 8.176545,0.4213 16.369453,0.15886 24.551012,0.03302 2.04628,-0.14679 4.225389,0.10711 6.163249,-0.66447 z M 4.297406,28.9474 c -0.939032,0.02717 -2.493051,-2.1182 -0.727168,-0.88447 1.706475,0.99084 3.797167,0.59334 5.679761,0.73138 0.843628,0.09701 3.276883,-0.14441 3.328971,0.24148 -2.712643,0.43249 -5.596207,0.56419 -8.281564,-0.08839 z m 31.24001,-17.1062 c -1.499147,-0.78086 -3.308903,-0.4003 -4.94344,-0.53994 -1.173066,-0.10336 -4.022293,-0.01807 -4.347208,-0.50636 2.904245,-0.07023 5.874879,-0.31161 8.734279,0.31742 0.913242,-0.14345 1.834744,2.01352 0.556369,0.72888 z"
         id="path49494"
         inkscape:connector-curvature="0" />
      <path
         style="font-style:normal;font-variant:normal;font-weight:normal;font-stretch:normal;font-size:4.28559589px;font-family:Insaniburger;-inkscape-font-specification:Insaniburger;opacity:1;vector-effect:none;fill:#000000;fill-opacity:1;stroke:none;stroke-width:0.05022182;stroke-linecap:butt;stroke-linejoin:miter;stroke-miterlimit:4;stroke-dasharray:none;stroke-dashoffset:0;stroke-opacity:1"
         d="m 4.4445467,25.214837 c -0.053247,0.722023 0.1139849,1.507957 -0.098249,2.185227 -0.937354,0.445 -0.6488625,-0.945634 -0.6877391,-1.53773 0.4387884,-0.96784 -1.2210548,-0.427654 -0.5359005,-1.32714 0.6458682,0.0032 1.3420328,-0.117678 1.9609992,0.06577 0.3217285,0.590979 -0.2650151,0.663285 -0.6391111,0.613871 z m 1.8121379,1.045733 c -0.1219391,-1.179284 -0.6246139,0.281991 0,0 z M 5.6810877,26.966549 C 5.0562438,28.284137 4.623623,26.563696 5.2504883,25.928795 5.4613258,25.32133 5.993854,23.816344 6.5312958,24.988064 6.7888717,25.679827 7.146901,26.333566 7.3324555,27.052589 6.8773057,28.215236 6.5286203,26.477055 5.6810877,26.966549 Z m 3.221358,0.525072 c -0.5156719,-0.05537 -1.5530556,0.276356 -1.4012809,-0.672297 0.052027,-0.730648 -0.1121111,-1.524009 0.098249,-2.210085 0.937354,-0.444999 0.6488624,0.945635 0.687739,1.537731 -0.4218966,1.128892 1.1655284,0.155079 0.7998813,1.256955 l -0.076912,0.06577 z m 1.7903053,0 c 1.043998,-0.754673 -0.7774099,-0.446595 -0.559719,-1.086128 0.680746,0.229799 1.154326,-0.934765 0.134352,-0.762656 -0.6858803,-0.672785 0.981505,-0.111874 0.711924,-0.932251 -0.378473,-0.283217 -1.4487181,-0.418208 -1.6322632,0.18656 0.054026,0.826361 -0.1150061,1.716912 0.098248,2.498506 0.3771437,0.186458 0.8405497,0.05763 1.2474577,0.09597 z m 1.57396,0.0088 c -1.094978,0.408597 -1.508093,-1.57855 -0.216345,-0.749551 1.327038,-0.244698 -1.821744,-0.954964 -0.480326,-2.052304 0.56498,-0.989866 2.421831,0.562575 0.970575,0.509629 -1.604269,-0.0445 1.788781,0.928656 0.361237,2.034103 -0.170824,0.181699 -0.405426,0.259721 -0.635141,0.258123 z m 4.858831,-1.52668 c 0.02734,2.665796 -3.981874,1.382508 -2.614997,-0.888128 0.711306,-1.221709 2.718286,-0.654583 2.614997,0.888128 z m -0.940803,-0.553753 c -1.7039,-1.155877 -1.043141,2.664084 0.133479,0.856001 0.08408,-0.283881 0.05697,-0.629086 -0.133479,-0.856001 z m 1.895501,1.687733 c -0.395718,-1.085739 0.824272,-0.423643 0.766883,-1.266351 -0.440905,-0.07163 -1.286291,-0.599943 -0.334416,-0.626557 1.012914,-0.23254 -0.06669,-1.000871 -0.65119,-0.701567 -0.820212,-0.130392 -0.511566,0.981582 -0.567266,1.537559 -0.106851,0.621909 0.07722,2.275385 0.785989,1.056916 z m 3.35831,-1.676702 c 0.249774,-0.63216 1.385977,-1.465846 1.309979,-0.245476 -0.05203,0.730648 0.112111,1.52401 -0.09825,2.210085 -0.925021,0.447311 -0.654994,-0.919449 -0.687739,-1.505722 -0.342547,0.694207 -0.686004,0.754469 -1.030594,0.02696 -0.124015,0.434997 0.294643,1.760842 -0.582318,1.550736 -0.437113,-0.442091 -0.128114,-1.281856 -0.221059,-1.898128 -0.292357,-1.021597 0.691225,-1.38097 1.087631,-0.433268 0.07412,0.09827 0.148232,0.196541 0.222348,0.294811 z m 2.893863,0.829527 c -0.121938,-1.179284 -0.624613,0.281991 0,0 z m -0.575596,0.705979 c -0.624844,1.317588 -1.057465,-0.402853 -0.4306,-1.037754 0.210838,-0.607465 0.743366,-2.112451 1.280808,-0.940731 0.257576,0.691763 0.615605,1.345502 0.80116,2.064525 -0.45515,1.162647 -0.803836,-0.575534 -1.651368,-0.08604 z m 3.646108,-0.282392 c 0.01914,2.004693 -3.084196,-0.142487 -1.221654,-0.204072 0.637723,0.779075 0.392524,-0.824485 0.435667,-1.26985 -0.115637,-1.174684 1.163648,-0.567674 0.785987,0.359893 0,0.371343 0,0.742686 0,1.114029 z m 0.81973,-2.038516 c -1.568898,-0.64246 0.172317,2.476371 0,0 z m 1.591823,2.84598 c 1.043998,-0.754673 -0.77741,-0.446595 -0.559718,-1.086128 0.680746,0.229799 1.154325,-0.934765 0.134352,-0.762656 -0.685882,-0.672785 0.981505,-0.111874 0.711924,-0.932251 -0.378473,-0.283217 -1.448719,-0.418208 -1.632264,0.18656 0.05403,0.826361 -0.115006,1.716912 0.09825,2.498506 0.377144,0.186458 0.84055,0.05763 1.247458,0.09597 z m 1.740685,-2.029691 c 0.246801,-0.97654 1.799091,-1.16761 0.984315,0.04923 -0.32448,0.4668 -0.75162,0.894879 -0.59926,1.541519 -0.465783,1.148247 -0.895458,-0.221673 -0.889947,-0.826667 -0.383366,-0.449844 -1.302006,-1.807184 -0.139181,-1.620088 0.263726,0.235123 0.431645,0.569015 0.644073,0.856001 z m 2.296432,0.79864 c -0.12194,-1.179284 -0.624614,0.281991 0,0 z m -0.575597,0.705979 c -0.624844,1.317588 -1.057465,-0.402853 -0.4306,-1.037754 0.210838,-0.607465 0.743366,-2.112451 1.280808,-0.940731 0.257575,0.691763 0.615605,1.345502 0.801159,2.064525 -0.455149,1.162647 -0.803835,-0.575534 -1.651367,-0.08604 z m 3.221359,0.525072 c -0.515672,-0.05537 -1.553055,0.276356 -1.40128,-0.672297 0.05203,-0.730648 -0.112112,-1.524009 0.09825,-2.210085 0.937354,-0.444999 0.648863,0.945635 0.687739,1.537731 -0.421897,1.128892 1.165528,0.155079 0.799881,1.256955 l -0.07691,0.06577 z"
         id="text49550"
         inkscape:connector-curvature="0" />
      <g
         id="g53695"
         transform="matrix(0.23216083,0,0,0.26739887,-40.66702,-79.695953)">
        <path
           style="fill:#000000;fill-opacity:1;stroke-width:0.56041962"
           d="m 225.79653,381.36576 c -5.04874,-5.70045 -3.09798,-14.35633 -2.45039,-21.29598 2.14357,-8.89697 7.83465,-18.94365 17.6609,-20.54413 7.25222,-1.3964 13.14991,3.76259 20.06409,4.17152 6.86243,-0.25136 12.65893,-5.79643 19.79539,-4.07863 10.07438,0.99305 15.61039,11.35051 17.88548,20.14 0.72391,7.0246 2.71218,15.81255 -2.37779,21.60722 -6.22795,4.55619 -12.2931,-2.23293 -16.91721,-5.91504 -5.78798,-5.77763 -14.55245,-3.45633 -21.84303,-3.96964 -6.37158,-0.56289 -12.86431,0.86093 -17.22384,5.87987 -3.90129,3.36771 -9.44686,8.07986 -14.5936,4.00481 z"
           id="path53677"
           inkscape:connector-curvature="0" />
        <path
           style="fill:#ffffff;fill-opacity:1;stroke-width:0.56041962"
           d="m 277.9872,362.41501 c 5.58994,-5.40079 -8.06317,-7.57497 -4.77264,-0.67341 1.23932,1.3571 3.24548,2.00683 4.77264,0.67341 z"
           id="path53675"
           inkscape:connector-curvature="0" />
        <path
           style="fill:#ffffff;fill-opacity:1;stroke-width:0.56041962"
           d="m 247.09052,359.86347 c 0.27723,-3.25746 8.70112,-2.32963 4.12382,-6.78295 -5.26871,1.19244 -3.64993,-8.73224 -9.37797,-3.68051 1.20337,5.19333 -8.41269,2.02905 -5.05105,7.57352 3.38408,0.29645 5.45041,0.84964 5.40535,4.6496 1.57622,0.88603 5.19447,0.91959 4.89985,-1.75966 z"
           id="path53673"
           inkscape:connector-curvature="0" />
        <path
           style="fill:#fffffc;fill-opacity:1;stroke-width:0.56041962"
           d="m 288.72216,357.58638 c 4.50178,-7.79772 -11.51832,-3.99212 -3.56811,0.81562 1.22542,0.443 2.60725,-0.0116 3.56811,-0.81562 z"
           id="path53671"
           inkscape:connector-curvature="0" />
        <path
           style="fill:#f8ffff;fill-opacity:1;stroke-width:0.56041962"
           d="m 278.37813,352.42476 c 4.38079,-8.166 -11.41132,-4.0188 -3.58973,0.81533 1.23238,0.44154 2.62307,-0.004 3.58973,-0.81533 z"
           id="path53664"
           inkscape:connector-curvature="0" />
      </g>
    </g>
  </g>
</svg>
