<?xml version="1.0" encoding="UTF-8" standalone="no"?>
<!-- Created with Inkscape (http://www.inkscape.org/) -->

<svg
   xmlns:dc="http://purl.org/dc/elements/1.1/"
   xmlns:cc="http://creativecommons.org/ns#"
   xmlns:rdf="http://www.w3.org/1999/02/22-rdf-syntax-ns#"
   xmlns:svg="http://www.w3.org/2000/svg"
   xmlns="http://www.w3.org/2000/svg"
   xmlns:sodipodi="http://sodipodi.sourceforge.net/DTD/sodipodi-0.dtd"
   xmlns:inkscape="http://www.inkscape.org/namespaces/inkscape"
   width="150"
   height="150"
   viewBox="0 0 39.6875 39.6875"
   version="1.1"
   id="svg922"
   inkscape:version="0.92.4 (5da689c313, 2019-01-14)"
   sodipodi:docname="USO_graphics_posterazor.svg">
  <title
     id="title1437">USOICON</title>
  <defs
     id="defs916">
    <clipPath
       id="clipPath1521"
       clipPathUnits="userSpaceOnUse">
      <rect
         y="66.644836"
         x="57.114269"
         height="151.42299"
         width="172.87534"
         id="rect1523"
         style="opacity:0.875;fill:#000000;fill-opacity:1;stroke:#000000;stroke-width:0.60403091;stroke-linejoin:round;stroke-miterlimit:4;stroke-dasharray:none;stroke-opacity:1" />
    </clipPath>
  </defs>
  <sodipodi:namedview
     id="base"
     pagecolor="#ffffff"
     bordercolor="#666666"
     borderopacity="1.0"
     inkscape:pageopacity="0.0"
     inkscape:pageshadow="2"
     inkscape:zoom="1.823801"
     inkscape:cx="63.673711"
     inkscape:cy="64.142396"
     inkscape:document-units="px"
     inkscape:current-layer="layer8"
     showgrid="false"
     inkscape:window-width="879"
     inkscape:window-height="697"
     inkscape:window-x="2516"
     inkscape:window-y="50"
     inkscape:window-maximized="0"
     units="px" />
  <metadata
     id="metadata919">
    <rdf:RDF>
      <cc:Work
         rdf:about="">
        <dc:format>image/svg+xml</dc:format>
        <dc:type
           rdf:resource="http://purl.org/dc/dcmitype/StillImage" />
        <dc:title>USOICON</dc:title>
        <cc:license
           rdf:resource="http://creativecommons.org/licenses/by-sa/4.0/" />
      </cc:Work>
      <cc:License
         rdf:about="http://creativecommons.org/licenses/by-sa/4.0/">
        <cc:permits
           rdf:resource="http://creativecommons.org/ns#Reproduction" />
        <cc:permits
           rdf:resource="http://creativecommons.org/ns#Distribution" />
        <cc:requires
           rdf:resource="http://creativecommons.org/ns#Notice" />
        <cc:requires
           rdf:resource="http://creativecommons.org/ns#Attribution" />
        <cc:permits
           rdf:resource="http://creativecommons.org/ns#DerivativeWorks" />
        <cc:requires
           rdf:resource="http://creativecommons.org/ns#ShareAlike" />
      </cc:License>
    </rdf:RDF>
  </metadata>
  <g
     style="display:inline"
     transform="translate(-35.46637,-112.59198)"
     id="layer1"
     inkscape:groupmode="layer"
     inkscape:label="toonbox" />
  <g
     inkscape:label="text"
     id="layer3"
     inkscape:groupmode="layer" />
  <g
     style="display:inline"
     inkscape:label="icon_graphics"
     id="layer8"
     inkscape:groupmode="layer">
    <g
       id="g5156">
      <path
         style="display:inline;opacity:0.875;fill:#999999;fill-opacity:1;stroke:none;stroke-width:0.11845408;stroke-linejoin:round;stroke-miterlimit:4;stroke-dasharray:none;stroke-opacity:0.97175137"
         d="M 1.435191,10.12791 C 2.670256,9.29705 4.324329,9.43582 5.75553,9.20511 14.11545,8.61268 22.517162,8.68995 30.881762,9.1576 c 2.392119,0.20608 4.838324,0.26932 7.150425,0.97031 0.872353,1.67498 0.817461,3.66984 1.026746,5.51683 0.208491,4.02511 0.362445,8.13136 -0.532305,12.08777 -0.230317,1.64927 -2.017724,2.0517 -3.40708,2.25864 C 28.802681,30.85612 22.40423,30.81147 16.04062,30.81293 11.303807,30.71862 6.537542,30.74635 1.839737,30.07418 0.173005,29.52829 0.822947,27.03924 0.434179,25.65651 0.154966,21.09087 0.021365,16.47217 0.692557,11.93449 0.848231,11.32021 0.903907,10.54918 1.435191,10.12791 Z"
         id="rect49496"
         inkscape:connector-curvature="0" />
      <path
         style="display:inline;fill:#000000;stroke-width:0.37203047"
         d="M 1.803349,30.70864 C 0.056742,30.0892 0.231437,27.93756 0.087588,26.427 -0.022935,21.93179 -0.070132,17.42779 0.099217,12.93387 -0.027874,11.27811 1.27784,10.0868 2.683582,9.49431 4.615709,8.56731 6.836395,8.9315 8.909365,8.7639 16.59615,8.63948 24.285544,8.62691 31.972812,8.67993 c 2.150882,0.14121 4.537543,-0.0199 6.403551,1.23592 1.58486,1.37874 1.255708,3.71898 1.302004,5.60595 -0.178243,4.07095 0.01584,8.16305 -0.388876,12.21995 -0.293352,1.71142 -2.120394,2.65314 -3.654582,3.02944 -6.368162,0.39372 -12.757085,0.28816 -19.135233,0.3134 C 11.668868,31.0283 6.826658,31.10952 2.006621,30.75364 L 1.803349,30.7086 Z m 34.717949,-1.05781 c 1.660436,-0.66982 2.120657,-2.56797 2.182495,-4.18169 C 38.903556,21.6571 38.926032,17.82461 38.6784,14.01451 38.609934,12.47205 38.055319,10.73538 36.494762,10.11382 34.51138,9.13075 32.202264,9.50823 30.063573,9.36171 22.019563,9.34057 13.971808,9.23982 5.930238,9.4697 4.247551,9.52117 2.061367,9.74531 1.291134,11.49417 c -0.682107,2.6627 -0.37748,5.45735 -0.46467,8.18069 0.080658,2.82901 -0.202804,5.71611 0.421771,8.49628 0.655233,1.84726 2.893842,2.0042 4.558802,2.11114 8.176545,0.4213 16.369453,0.15886 24.551012,0.03302 2.04628,-0.14679 4.225389,0.10711 6.163249,-0.66447 z M 4.297406,28.9474 c -0.939032,0.02717 -2.493051,-2.1182 -0.727168,-0.88447 1.706475,0.99084 3.797167,0.59334 5.679761,0.73138 0.843628,0.09701 3.276883,-0.14441 3.328971,0.24148 -2.712643,0.43249 -5.596207,0.56419 -8.281564,-0.08839 z m 31.24001,-17.1062 c -1.499147,-0.78086 -3.308903,-0.4003 -4.94344,-0.53994 -1.173066,-0.10336 -4.022293,-0.01807 -4.347208,-0.50636 2.904245,-0.07023 5.874879,-0.31161 8.734279,0.31742 0.913242,-0.14345 1.834744,2.01352 0.556369,0.72888 z"
         id="path49494"
         inkscape:connector-curvature="0" />
      <path
         style="font-style:normal;font-variant:normal;font-weight:normal;font-stretch:normal;font-size:4.94612217px;font-family:Insaniburger;-inkscape-font-specification:Insaniburger;opacity:1;vector-effect:none;fill:#000000;fill-opacity:1;stroke:none;stroke-width:0.05796236;stroke-linecap:butt;stroke-linejoin:miter;stroke-miterlimit:4;stroke-dasharray:none;stroke-dashoffset:0;stroke-opacity:1"
         d="m 8.0245577,26.816095 c 1.3256235,0.05757 1.1843709,-2.730335 -0.142868,-2.387722 -0.6444654,-0.134033 -1.3935701,0.08186 -1.1659981,1.067408 0.056979,0.794002 -0.1233116,1.663448 0.1083427,2.403582 1.1359442,0.787047 0.3371373,-1.424249 1.1716106,-1.083268 z M 7.8319486,25.142558 c 1.0802349,0.385492 -0.6616747,1.500659 -0.2495162,0.116437 -0.070418,-0.220152 0.1711841,-0.07357 0.2495162,-0.116437 z m 4.4278204,1.039298 c 0.03014,3.220036 -4.3909774,1.669942 -2.8836647,-1.072776 0.7917117,-1.473202 2.9885337,-0.799555 2.8836647,1.072776 z m -1.037463,-0.668882 c -1.547224,-1.391739 -1.5525185,2.725651 -0.0022,1.332435 0.268303,-0.357575 0.267962,-0.973193 0.0022,-1.332435 z m 2.403235,2.51297 c -0.897497,0.52993 -1.805393,-1.558493 -0.536241,-1.015314 1.397307,0.440818 0.377595,-0.716038 -0.322838,-0.898726 -1.173736,-1.660868 2.155254,-2.616389 1.647025,-0.821446 -0.624541,-0.249817 -1.676303,0.04711 -0.496843,0.54763 1.122854,0.240524 0.785983,2.298941 -0.291103,2.187856 z m 2.797209,-2.760803 c -0.05701,0.872755 0.123215,1.820584 -0.108342,2.639552 -0.960995,0.542835 -0.748478,-0.973149 -0.758399,-1.655827 0.202717,-0.971569 -0.226454,-0.939469 -0.766059,-1.222063 -0.09112,-0.986296 0.989838,-0.488485 1.485307,-0.609089 0.749899,-0.415828 1.400812,0.939212 0.341691,0.847427 -0.06473,0 -0.129466,0 -0.194198,0 z m 2.462332,2.750144 c 1.089783,-0.787744 -0.638093,-0.675927 -0.617224,-1.149289 0.09475,-0.286101 1.544869,-0.445578 0.529675,-1.08387 -0.672396,0.337877 -0.73483,-0.830943 -0.03382,-0.516985 1.03989,-0.235357 0.0066,-1.198611 -0.622413,-0.847427 -0.859467,-0.253587 -0.768624,0.875944 -0.740183,1.570508 0.09149,0.651535 -0.221546,1.554236 0.243771,1.998083 0.410116,0.05966 0.827527,0.01535 1.240194,0.02898 z m 2.372593,-1.529634 c 0.751418,0.47974 0.431736,2.205764 -0.344211,1.150033 -0.268377,-0.370144 -0.749479,-1.518255 -0.605702,-0.38109 0.0372,1.398228 -1.250699,0.513412 -0.866741,-0.507957 0.05437,-0.73114 -0.119467,-1.535413 0.108344,-2.213001 0.635438,-0.140008 1.579619,-0.367835 2.015008,0.397564 0.261818,0.497909 0.13985,1.275001 -0.306698,1.554451 z m -0.949913,-1.343093 c -0.411355,1.012917 0.869051,1.096255 0.525298,0.102597 -0.147081,-0.150599 -0.350646,-0.08937 -0.525298,-0.102597 z m 3.193372,1.385731 c -0.07464,-1.412416 -0.720454,0.360706 0,0 z m -0.634735,0.852758 c -0.566394,1.512044 -1.252612,-0.248485 -0.562096,-1.020922 0.33324,-0.643461 0.384985,-1.648478 1.00641,-1.942411 0.627098,0.319018 0.692768,1.341871 1.034195,2.008483 0.693162,0.768046 -0.06497,2.446845 -0.585504,0.95485 -0.297668,0 -0.595337,0 -0.893005,0 z m 3.134275,-2.121235 c -0.521224,0.20543 -1.683414,-0.190596 -0.871118,-0.842098 0.64329,0.06004 1.33704,-0.126972 1.94579,0.106594 0.234118,0.863111 -0.533913,1.519588 -0.828649,2.246482 -0.614364,0.818607 0.72557,0.03145 0.878989,0.635406 0.1179,0.987277 -0.935057,0.489386 -1.415266,0.609089 -0.962622,0.335046 -1.02658,-0.873934 -0.415964,-1.518969 0.235406,-0.412168 0.470812,-0.824336 0.706218,-1.236504 z m 4.438762,0.922044 c 0.03014,3.220036 -4.390977,1.669942 -2.883664,-1.072776 0.791713,-1.473202 2.988535,-0.799555 2.883664,1.072776 z m -1.037462,-0.668882 c -1.547224,-1.391739 -1.552518,2.725651 -0.0022,1.332435 0.268302,-0.357575 0.267962,-0.973193 0.0022,-1.332435 z m 3.040159,0.972677 c 0.751418,0.47974 0.431735,2.205764 -0.344211,1.150033 -0.268378,-0.370144 -0.74948,-1.518255 -0.605702,-0.38109 0.0372,1.398228 -1.250699,0.513412 -0.866741,-0.507957 0.05437,-0.73114 -0.119468,-1.535413 0.108343,-2.213001 0.635438,-0.140008 1.57962,-0.367835 2.015008,0.397564 0.261819,0.497909 0.139851,1.275001 -0.306697,1.554451 z M 31.49222,25.142558 c -0.411356,1.012917 0.86905,1.096255 0.525297,0.102597 -0.147081,-0.150599 -0.350646,-0.08937 -0.525297,-0.102597 z"
         id="text49550"
         inkscape:connector-curvature="0" />
      <g
         id="g16798"
         transform="matrix(0.18646615,0,0,0.17477205,30.894537,-4.0608331)">
        <path
           style="fill:#000005;fill-opacity:1;stroke-width:0.55967355"
           d="m -63.356338,86.683079 c -9.874279,0.20633 -22.300301,5.195348 -24.289917,16.007321 -2.168816,9.38617 16.582128,14.56277 5.927037,22.9884 -8.68926,4.95773 -6.835656,17.53827 1.28174,22.04121 13.85988,10.19372 34.882883,4.74141 43.568825,-9.64199 6.307492,-7.01342 3.09489,-17.89267 10.641114,-23.97674 2.463966,-4.7998 12.829179,-12.1707 8.877144,-16.855161 -7.599313,2.298305 -15.91087,17.073671 -19.946359,3.532341 -5.850096,-8.400878 -15.747732,-14.032593 -26.059584,-14.095381 z m 4.560445,10.802959 c 10.122006,2.812302 -4.753004,12.779612 -3.261741,2.35473 0.483508,-1.363419 1.866321,-2.234835 3.261741,-2.35473 z m -15.621785,4.598682 c 9.863404,3.00815 -4.865571,12.47548 -3.548232,2.5642 0.798309,-1.21437 1.947566,-2.55665 3.548232,-2.5642 z m 29.046288,5.08238 c 9.734204,2.80242 -4.411794,12.63796 -3.446785,2.33949 0.664422,-1.26017 1.929537,-2.39177 3.446785,-2.33949 z m -27.491861,24.95558 c 10.430142,2.81043 -4.670502,12.59468 -3.479806,2.47791 0.773822,-1.21256 1.97216,-2.34358 3.479806,-2.47791 z"
           id="path59299"
           inkscape:connector-curvature="0" />
        <path
           style="fill:#ffffff;fill-opacity:1;stroke:#ffffff;stroke-width:0.55967355;stroke-opacity:1"
           d="m -52.62579,142.87503 c 10.625922,-2.16342 4.562437,-18.88424 -3.99139,-12.36609 -2.70081,5.20001 -9.954547,16.49376 3.99139,12.36609 z"
           id="path59283"
           inkscape:connector-curvature="0" />
        <path
           style="fill:#ffffff;fill-opacity:1;stroke-width:0.55967355"
           d="m -37.66806,124.75342 c 6.420327,-7.65525 13.607006,-14.90345 18.556655,-23.61723 -6.79331,1.55739 -13.197892,10.39767 -19.460998,15.03705 -3.863258,4.35037 -16.481703,11.24747 -6.238257,15.83028 2.683022,-2.08016 4.82603,-4.78751 7.1426,-7.2501 z"
           id="path59281"
           inkscape:connector-curvature="0" />
      </g>
    </g>
  </g>
</svg>
