<?xml version="1.0" encoding="UTF-8" standalone="no"?>
<!-- Created with Inkscape (http://www.inkscape.org/) -->

<svg
   xmlns:dc="http://purl.org/dc/elements/1.1/"
   xmlns:cc="http://creativecommons.org/ns#"
   xmlns:rdf="http://www.w3.org/1999/02/22-rdf-syntax-ns#"
   xmlns:svg="http://www.w3.org/2000/svg"
   xmlns="http://www.w3.org/2000/svg"
   xmlns:sodipodi="http://sodipodi.sourceforge.net/DTD/sodipodi-0.dtd"
   xmlns:inkscape="http://www.inkscape.org/namespaces/inkscape"
   width="150"
   height="150"
   viewBox="0 0 39.6875 39.6875"
   version="1.1"
   id="svg922"
   inkscape:version="0.92.4 (5da689c313, 2019-01-14)"
   sodipodi:docname="USO_system_phoronixtestsuite.svg">
  <title
     id="title1437">USOICON</title>
  <defs
     id="defs916">
    <clipPath
       id="clipPath1521"
       clipPathUnits="userSpaceOnUse">
      <rect
         y="66.644836"
         x="57.114269"
         height="151.42299"
         width="172.87534"
         id="rect1523"
         style="opacity:0.875;fill:#000000;fill-opacity:1;stroke:#000000;stroke-width:0.60403091;stroke-linejoin:round;stroke-miterlimit:4;stroke-dasharray:none;stroke-opacity:1" />
    </clipPath>
  </defs>
  <sodipodi:namedview
     id="base"
     pagecolor="#ffffff"
     bordercolor="#666666"
     borderopacity="1.0"
     inkscape:pageopacity="0.0"
     inkscape:pageshadow="2"
     inkscape:zoom="1.9688262"
     inkscape:cx="72.326898"
     inkscape:cy="69.840453"
     inkscape:document-units="px"
     inkscape:current-layer="layer13"
     showgrid="false"
     inkscape:window-width="958"
     inkscape:window-height="607"
     inkscape:window-x="2609"
     inkscape:window-y="111"
     inkscape:window-maximized="0"
     units="px" />
  <metadata
     id="metadata919">
    <rdf:RDF>
      <cc:Work
         rdf:about="">
        <dc:format>image/svg+xml</dc:format>
        <dc:type
           rdf:resource="http://purl.org/dc/dcmitype/StillImage" />
        <dc:title>USOICON</dc:title>
        <cc:license
           rdf:resource="http://creativecommons.org/licenses/by-sa/4.0/" />
      </cc:Work>
      <cc:License
         rdf:about="http://creativecommons.org/licenses/by-sa/4.0/">
        <cc:permits
           rdf:resource="http://creativecommons.org/ns#Reproduction" />
        <cc:permits
           rdf:resource="http://creativecommons.org/ns#Distribution" />
        <cc:requires
           rdf:resource="http://creativecommons.org/ns#Notice" />
        <cc:requires
           rdf:resource="http://creativecommons.org/ns#Attribution" />
        <cc:permits
           rdf:resource="http://creativecommons.org/ns#DerivativeWorks" />
        <cc:requires
           rdf:resource="http://creativecommons.org/ns#ShareAlike" />
      </cc:License>
    </rdf:RDF>
  </metadata>
  <g
     style="display:inline"
     transform="translate(-35.46637,-112.59198)"
     id="layer1"
     inkscape:groupmode="layer"
     inkscape:label="toonbox" />
  <g
     inkscape:label="text"
     id="layer3"
     inkscape:groupmode="layer" />
  <g
     style="display:inline"
     inkscape:label="icon_system"
     id="layer13"
     inkscape:groupmode="layer">
    <g
       id="g15602">
      <path
         style="display:inline;opacity:0.875;fill:#999999;fill-opacity:1;stroke:none;stroke-width:0.11845408;stroke-linejoin:round;stroke-miterlimit:4;stroke-dasharray:none;stroke-opacity:0.97175137"
         d="M 1.435191,10.12791 C 2.670256,9.29705 4.324329,9.43582 5.75553,9.20511 14.11545,8.61268 22.517162,8.68995 30.881762,9.1576 c 2.392119,0.20608 4.838324,0.26932 7.150425,0.97031 0.872353,1.67498 0.817461,3.66984 1.026746,5.51683 0.208491,4.02511 0.362445,8.13136 -0.532305,12.08777 -0.230317,1.64927 -2.017724,2.0517 -3.40708,2.25864 C 28.802681,30.85612 22.40423,30.81147 16.04062,30.81293 11.303807,30.71862 6.537542,30.74635 1.839737,30.07418 0.173005,29.52829 0.822947,27.03924 0.434179,25.65651 0.154966,21.09087 0.021365,16.47217 0.692557,11.93449 0.848231,11.32021 0.903907,10.54918 1.435191,10.12791 Z"
         id="rect49496"
         inkscape:connector-curvature="0" />
      <path
         style="display:inline;fill:#000000;stroke-width:0.37203047"
         d="M 1.803349,30.70864 C 0.056742,30.0892 0.231437,27.93756 0.087588,26.427 -0.022935,21.93179 -0.070132,17.42779 0.099217,12.93387 -0.027874,11.27811 1.27784,10.0868 2.683582,9.49431 4.615709,8.56731 6.836395,8.9315 8.909365,8.7639 16.59615,8.63948 24.285544,8.62691 31.972812,8.67993 c 2.150882,0.14121 4.537543,-0.0199 6.403551,1.23592 1.58486,1.37874 1.255708,3.71898 1.302004,5.60595 -0.178243,4.07095 0.01584,8.16305 -0.388876,12.21995 -0.293352,1.71142 -2.120394,2.65314 -3.654582,3.02944 -6.368162,0.39372 -12.757085,0.28816 -19.135233,0.3134 C 11.668868,31.0283 6.826658,31.10952 2.006621,30.75364 L 1.803349,30.7086 Z m 34.717949,-1.05781 c 1.660436,-0.66982 2.120657,-2.56797 2.182495,-4.18169 C 38.903556,21.6571 38.926032,17.82461 38.6784,14.01451 38.609934,12.47205 38.055319,10.73538 36.494762,10.11382 34.51138,9.13075 32.202264,9.50823 30.063573,9.36171 22.019563,9.34057 13.971808,9.23982 5.930238,9.4697 4.247551,9.52117 2.061367,9.74531 1.291134,11.49417 c -0.682107,2.6627 -0.37748,5.45735 -0.46467,8.18069 0.080658,2.82901 -0.202804,5.71611 0.421771,8.49628 0.655233,1.84726 2.893842,2.0042 4.558802,2.11114 8.176545,0.4213 16.369453,0.15886 24.551012,0.03302 2.04628,-0.14679 4.225389,0.10711 6.163249,-0.66447 z M 4.297406,28.9474 c -0.939032,0.02717 -2.493051,-2.1182 -0.727168,-0.88447 1.706475,0.99084 3.797167,0.59334 5.679761,0.73138 0.843628,0.09701 3.276883,-0.14441 3.328971,0.24148 -2.712643,0.43249 -5.596207,0.56419 -8.281564,-0.08839 z m 31.24001,-17.1062 c -1.499147,-0.78086 -3.308903,-0.4003 -4.94344,-0.53994 -1.173066,-0.10336 -4.022293,-0.01807 -4.347208,-0.50636 2.904245,-0.07023 5.874879,-0.31161 8.734279,0.31742 0.913242,-0.14345 1.834744,2.01352 0.556369,0.72888 z"
         id="path49494"
         inkscape:connector-curvature="0" />
      <path
         style="font-style:normal;font-variant:normal;font-weight:normal;font-stretch:normal;font-size:3.65574265px;font-family:Insaniburger;-inkscape-font-specification:Insaniburger;opacity:1;vector-effect:none;fill:#000000;fill-opacity:1;stroke:none;stroke-width:0.04284072;stroke-linecap:butt;stroke-linejoin:miter;stroke-miterlimit:4;stroke-dasharray:none;stroke-dashoffset:0;stroke-opacity:1"
         d="m 4.9843272,27.126084 c 1.5352407,-0.52789 0.1372218,-2.420752 -0.8765277,-1.699796 -0.1604071,0.752939 -0.060905,1.61153 -0.059327,2.401897 0.9771327,0.965067 0.2473242,-1.043692 0.9358551,-0.702101 z M 4.8436993,25.873918 c 1.044013,0.752422 -1.0035624,0.820702 0,0 z M 7.1960216,25.331579 C 7.7906623,25.533 7.3998132,26.609931 7.5124346,27.206407 7.740877,28.338683 6.5646633,28.091526 6.8796087,27.065243 6.1322158,26.438536 6.7822621,28.304408 5.993293,28.001654 5.627991,27.528742 5.8989775,26.679111 5.8153107,26.046649 c -0.1396995,-1.15877 0.9632497,-0.618026 0.6328258,0.305804 0.8705523,0.365883 0.039482,-1.011375 0.7478851,-1.020874 z m 2.7374515,1.319958 c 0.022008,2.409279 -3.2059454,1.249477 -2.1054245,-0.802668 0.5726961,-1.10415 2.1885854,-0.591595 2.1054245,0.802668 z M 9.1759993,26.151069 c -1.3718683,-1.044652 -0.8398692,2.407732 0.1074691,0.773632 0.067692,-0.256564 0.045867,-0.568552 -0.1074691,-0.773632 z m 2.2196847,0.727772 c 0.749765,0.613611 -0.02831,1.710628 -0.423649,0.573332 -0.523021,-1.225082 0.04548,1.174502 -0.823625,0.48443 -0.1606527,-0.755575 -0.0606,-1.61687 -0.05933,-2.409872 0.603636,-0.613722 2.180195,0.04253 1.447829,1.22014 z m -0.693552,-1.004923 c -0.294619,1.451942 1.170148,-0.0117 0,0 z m 3.477347,0.777619 c 0.02201,2.409279 -3.205945,1.249477 -2.105424,-0.802668 0.572695,-1.10415 2.188586,-0.591595 2.105424,0.802668 z m -0.757473,-0.500468 c -1.371869,-1.044652 -0.83987,2.407732 0.107468,0.773632 0.06769,-0.256564 0.04587,-0.568552 -0.107468,-0.773632 z m 2.197312,0.380835 c -0.301625,-0.750047 0.522814,-1.848318 0.632825,-0.649668 -0.04538,0.678192 0.09542,1.41699 -0.0791,2.054367 -0.574715,0.444503 -0.952705,-1.046528 -1.224902,-1.015719 0.332203,0.848187 -0.68183,1.658177 -0.632825,0.449937 0.04474,-0.644036 -0.09452,-1.348319 0.0791,-1.951511 0.569471,-0.357435 0.860451,0.745681 1.224902,1.112594 z m 1.425455,1.144495 c -0.526015,1.021201 -0.772154,-0.509629 -0.632825,-1.120453 -0.296919,-0.749464 0.509296,-1.886218 0.632825,-0.67371 0,0.598054 0,1.196108 0,1.794163 z m 1.631604,-0.980997 c 0.505378,0.306455 0.960153,1.740613 0.04327,1.145928 -0.328705,-0.751887 -0.657409,-0.562438 -0.986113,0.07434 -1.057774,0.358291 -0.09587,-0.964232 0.04396,-1.295396 -0.591617,-0.326708 -0.757668,-1.829784 0.06598,-1.026408 0.35011,0.901078 0.652866,0.220837 1.032672,-0.238855 0.982979,-0.03794 0.06325,0.987109 -0.199756,1.340395 z m 2.767814,-0.729765 c -0.04372,0.652181 0.09296,1.363362 -0.0791,1.974953 -0.814343,0.390205 -0.492567,-1.015458 -0.553722,-1.584375 0.133029,-0.537594 -1.196246,-0.702466 -0.156335,-1.024636 0.470097,-0.08298 1.934365,-0.01848 1.030329,0.634058 -0.08039,0 -0.160779,0 -0.241169,0 z m 1.797802,2.0577 c 0.884038,-0.542123 -1.327069,-0.836708 -0.06392,-1.032838 0.806225,-0.483773 -1.241816,-0.953897 0.06392,-1.024862 0.846645,-0.64961 -1.141281,-1.049797 -1.083474,-0.185261 0.04601,0.711999 -0.0963,1.485101 0.0791,2.156227 0.301801,0.170798 0.678251,0.05056 1.004371,0.08673 z m 1.26725,0.008 c -1.2567,0.0092 -0.873625,-1.266321 0.139429,-0.694873 -0.157895,-0.574 -1.644242,-1.176422 -0.484208,-2.013834 1.2412,-0.333846 1.159513,1.013602 0.121052,0.720793 0.749492,0.365469 1.597113,1.626613 0.223727,1.987914 z m 2.042301,-2.065676 c -0.04372,0.652181 0.09296,1.363362 -0.0791,1.974953 -0.814343,0.390205 -0.492567,-1.015458 -0.553722,-1.584375 0.133029,-0.537594 -1.196246,-0.702466 -0.156335,-1.024636 0.470097,-0.08298 1.934365,-0.01848 1.030329,0.634058 -0.08039,0 -0.160779,0 -0.241168,0 z m 2.368302,2.065676 c -1.256699,0.0092 -0.873624,-1.266321 0.13943,-0.694873 -0.157896,-0.574 -1.644242,-1.176422 -0.484208,-2.013834 1.241199,-0.333846 1.159513,1.013602 0.121052,0.720793 0.749492,0.365469 1.597112,1.626613 0.223726,1.987914 z m 2.55847,-0.737741 c -0.547442,1.670794 -2.128069,0.307742 -1.70032,-1.120454 -0.241011,-1.143845 0.944705,-0.930561 0.632826,0.116554 -0.267763,0.96621 0.583051,1.503835 0.434669,0.277097 -0.294776,-0.74926 0.503223,-1.903167 0.632825,-0.684533 0,0.470445 0,0.94089 0,1.411336 z m 0.79263,0.382827 c -0.526014,1.021201 -0.772154,-0.509629 -0.632825,-1.120453 -0.296919,-0.749464 0.509296,-1.886218 0.632825,-0.67371 0,0.598054 0,1.196108 0,1.794163 z m 1.343958,-1.710762 c -0.04372,0.652181 0.09296,1.363362 -0.0791,1.974953 -0.814344,0.390205 -0.492567,-1.015458 -0.553722,-1.584375 0.133028,-0.537594 -1.196247,-0.702466 -0.156336,-1.024636 0.470098,-0.08298 1.934365,-0.01848 1.03033,0.634058 -0.08039,0 -0.16078,0 -0.241168,0 z m 1.797801,2.0577 c 0.884037,-0.542123 -1.32707,-0.836708 -0.06392,-1.032838 0.806226,-0.483773 -1.241816,-0.953897 0.06392,-1.024862 0.846646,-0.64961 -1.141281,-1.049797 -1.083475,-0.185261 0.04601,0.711999 -0.0963,1.485101 0.0791,2.156227 0.301802,0.170798 0.678253,0.05056 1.004372,0.08673 z"
         id="text49550"
         inkscape:connector-curvature="0" />
      <g
         id="g53543"
         style="fill:#000000;fill-opacity:1"
         transform="matrix(0.25341017,0,0,0.27251274,-27.614522,-84.260427)">
        <path
           style="fill:#000000;fill-opacity:1;stroke-width:0.42873418"
           d="m 166.36076,393.32227 c -6.6134,-2.35074 1.40407,-16.00593 4.44822,-9.34291 1.75745,3.52187 10.43794,2.40171 4.44246,7.03363 -2.13986,2.47494 -5.79675,4.34475 -8.89068,2.30928 z"
           id="path53531"
           inkscape:connector-curvature="0" />
        <path
           style="fill:#000000;fill-opacity:1;stroke-width:0.42873418"
           d="m 169.67848,390.43369 c 0.71695,-4.76657 -5.09417,1.66151 0,0 z"
           id="path53529"
           inkscape:connector-curvature="0" />
        <path
           style="fill:#000000;fill-opacity:1;stroke-width:0.42873418"
           d="m 197.74585,392.90821 c -3.72311,-3.26509 -10.96211,-6.37597 -11.77174,-10.99768 2.43562,-3.56617 4.96089,-6.1461 8.33965,-1.75923 3.55128,3.04611 13.85593,8.94102 5.95716,12.815 -0.79619,0.62641 -1.73229,0.225 -2.52507,-0.0581 z"
           id="path53527"
           inkscape:connector-curvature="0" />
        <path
           style="fill:#000000;fill-opacity:1;stroke-width:0.42873418"
           d="m 175.65172,385.33519 c -8.64636,-2.76003 -2.63159,-10.12124 1.58548,-13.87546 3.13419,-3.16351 6.34151,4.71751 10.30312,5.09 -3.04466,3.08279 -6.52036,11.38606 -11.8886,8.78546 z"
           id="path53525"
           inkscape:connector-curvature="0" />
        <path
           style="fill:#000000;fill-opacity:1;stroke-width:0.42873418"
           d="m 188.17484,374.30722 c -6.19614,-1.85432 -10.75606,-8.92336 -7.89961,-15.17655 1.67427,-5.50861 10.13373,-9.09087 14.28734,-6.67497 -3.6462,3.67491 -10.64309,11.94092 -1.97562,14.22704 5.41143,2.3806 9.02121,-10.41422 12.12773,-5.99 1.67197,7.23454 -4.64886,14.21802 -11.86578,14.16487 -1.57427,0.0675 -3.15746,-0.12517 -4.67406,-0.55039 z"
           id="path53523"
           inkscape:connector-curvature="0" />
        <path
           style="fill:#000000;fill-opacity:1;stroke-width:0.42873418"
           d="m 171.0534,368.49238 c -2.25957,-1.53114 -8.99443,-5.85664 -3.06712,-6.81765 1.83418,2.77874 9.30269,5.62109 7.02999,9.05476 -1.60099,0.0425 -2.70108,-1.49148 -3.96287,-2.23711 z"
           id="path53519"
           inkscape:connector-curvature="0" />
      </g>
    </g>
  </g>
</svg>
