<?xml version="1.0" encoding="UTF-8" standalone="no"?>
<!-- Created with Inkscape (http://www.inkscape.org/) -->

<svg
   xmlns:dc="http://purl.org/dc/elements/1.1/"
   xmlns:cc="http://creativecommons.org/ns#"
   xmlns:rdf="http://www.w3.org/1999/02/22-rdf-syntax-ns#"
   xmlns:svg="http://www.w3.org/2000/svg"
   xmlns="http://www.w3.org/2000/svg"
   xmlns:sodipodi="http://sodipodi.sourceforge.net/DTD/sodipodi-0.dtd"
   xmlns:inkscape="http://www.inkscape.org/namespaces/inkscape"
   width="150"
   height="150"
   viewBox="0 0 39.6875 39.6875"
   version="1.1"
   id="svg922"
   inkscape:version="0.92.4 (5da689c313, 2019-01-14)"
   sodipodi:docname="USO_server_minio.svg">
  <title
     id="title1437">USOICON</title>
  <defs
     id="defs916">
    <clipPath
       id="clipPath1521"
       clipPathUnits="userSpaceOnUse">
      <rect
         y="66.644836"
         x="57.114269"
         height="151.42299"
         width="172.87534"
         id="rect1523"
         style="opacity:0.875;fill:#000000;fill-opacity:1;stroke:#000000;stroke-width:0.60403091;stroke-linejoin:round;stroke-miterlimit:4;stroke-dasharray:none;stroke-opacity:1" />
    </clipPath>
  </defs>
  <sodipodi:namedview
     id="base"
     pagecolor="#ffffff"
     bordercolor="#666666"
     borderopacity="1.0"
     inkscape:pageopacity="0.0"
     inkscape:pageshadow="2"
     inkscape:zoom="2.2720606"
     inkscape:cx="65.438618"
     inkscape:cy="54.597428"
     inkscape:document-units="px"
     inkscape:current-layer="layer12"
     showgrid="false"
     inkscape:window-width="981"
     inkscape:window-height="718"
     inkscape:window-x="2754"
     inkscape:window-y="196"
     inkscape:window-maximized="0"
     units="px" />
  <metadata
     id="metadata919">
    <rdf:RDF>
      <cc:Work
         rdf:about="">
        <dc:format>image/svg+xml</dc:format>
        <dc:type
           rdf:resource="http://purl.org/dc/dcmitype/StillImage" />
        <dc:title>USOICON</dc:title>
        <cc:license
           rdf:resource="http://creativecommons.org/licenses/by-sa/4.0/" />
      </cc:Work>
      <cc:License
         rdf:about="http://creativecommons.org/licenses/by-sa/4.0/">
        <cc:permits
           rdf:resource="http://creativecommons.org/ns#Reproduction" />
        <cc:permits
           rdf:resource="http://creativecommons.org/ns#Distribution" />
        <cc:requires
           rdf:resource="http://creativecommons.org/ns#Notice" />
        <cc:requires
           rdf:resource="http://creativecommons.org/ns#Attribution" />
        <cc:permits
           rdf:resource="http://creativecommons.org/ns#DerivativeWorks" />
        <cc:requires
           rdf:resource="http://creativecommons.org/ns#ShareAlike" />
      </cc:License>
    </rdf:RDF>
  </metadata>
  <g
     style="display:inline"
     transform="translate(-35.46637,-112.59198)"
     id="layer1"
     inkscape:groupmode="layer"
     inkscape:label="toonbox" />
  <g
     inkscape:label="text"
     id="layer3"
     inkscape:groupmode="layer" />
  <g
     style="display:inline"
     inkscape:label="icon_server"
     id="layer12"
     inkscape:groupmode="layer">
    <g
       id="g7495">
      <path
         style="display:inline;opacity:0.875;fill:#999999;fill-opacity:1;stroke:none;stroke-width:0.11845408;stroke-linejoin:round;stroke-miterlimit:4;stroke-dasharray:none;stroke-opacity:0.97175137"
         d="M 1.435191,10.12791 C 2.670256,9.29705 4.324329,9.43582 5.75553,9.20511 14.11545,8.61268 22.517162,8.68995 30.881762,9.1576 c 2.392119,0.20608 4.838324,0.26932 7.150425,0.97031 0.872353,1.67498 0.817461,3.66984 1.026746,5.51683 0.208491,4.02511 0.362445,8.13136 -0.532305,12.08777 -0.230317,1.64927 -2.017724,2.0517 -3.40708,2.25864 C 28.802681,30.85612 22.40423,30.81147 16.04062,30.81293 11.303807,30.71862 6.537542,30.74635 1.839737,30.07418 0.173005,29.52829 0.822947,27.03924 0.434179,25.65651 0.154966,21.09087 0.021365,16.47217 0.692557,11.93449 0.848231,11.32021 0.903907,10.54918 1.435191,10.12791 Z"
         id="rect49496"
         inkscape:connector-curvature="0" />
      <path
         style="display:inline;fill:#000000;stroke-width:0.37203047"
         d="M 1.803349,30.70864 C 0.056742,30.0892 0.231437,27.93756 0.087588,26.427 -0.022935,21.93179 -0.070132,17.42779 0.099217,12.93387 -0.027874,11.27811 1.27784,10.0868 2.683582,9.49431 4.615709,8.56731 6.836395,8.9315 8.909365,8.7639 16.59615,8.63948 24.285544,8.62691 31.972812,8.67993 c 2.150882,0.14121 4.537543,-0.0199 6.403551,1.23592 1.58486,1.37874 1.255708,3.71898 1.302004,5.60595 -0.178243,4.07095 0.01584,8.16305 -0.388876,12.21995 -0.293352,1.71142 -2.120394,2.65314 -3.654582,3.02944 -6.368162,0.39372 -12.757085,0.28816 -19.135233,0.3134 C 11.668868,31.0283 6.826658,31.10952 2.006621,30.75364 L 1.803349,30.7086 Z m 34.717949,-1.05781 c 1.660436,-0.66982 2.120657,-2.56797 2.182495,-4.18169 C 38.903556,21.6571 38.926032,17.82461 38.6784,14.01451 38.609934,12.47205 38.055319,10.73538 36.494762,10.11382 34.51138,9.13075 32.202264,9.50823 30.063573,9.36171 22.019563,9.34057 13.971808,9.23982 5.930238,9.4697 4.247551,9.52117 2.061367,9.74531 1.291134,11.49417 c -0.682107,2.6627 -0.37748,5.45735 -0.46467,8.18069 0.080658,2.82901 -0.202804,5.71611 0.421771,8.49628 0.655233,1.84726 2.893842,2.0042 4.558802,2.11114 8.176545,0.4213 16.369453,0.15886 24.551012,0.03302 2.04628,-0.14679 4.225389,0.10711 6.163249,-0.66447 z M 4.297406,28.9474 c -0.939032,0.02717 -2.493051,-2.1182 -0.727168,-0.88447 1.706475,0.99084 3.797167,0.59334 5.679761,0.73138 0.843628,0.09701 3.276883,-0.14441 3.328971,0.24148 -2.712643,0.43249 -5.596207,0.56419 -8.281564,-0.08839 z m 31.24001,-17.1062 c -1.499147,-0.78086 -3.308903,-0.4003 -4.94344,-0.53994 -1.173066,-0.10336 -4.022293,-0.01807 -4.347208,-0.50636 2.904245,-0.07023 5.874879,-0.31161 8.734279,0.31742 0.913242,-0.14345 1.834744,2.01352 0.556369,0.72888 z"
         id="path49494"
         inkscape:connector-curvature="0" />
      <path
         style="font-style:normal;font-variant:normal;font-weight:normal;font-stretch:normal;font-size:4.94612217px;font-family:Insaniburger;-inkscape-font-specification:Insaniburger;opacity:1;vector-effect:none;fill:#000000;fill-opacity:1;stroke:none;stroke-width:0.05796236;stroke-linecap:butt;stroke-linejoin:miter;stroke-miterlimit:4;stroke-dasharray:none;stroke-dashoffset:0;stroke-opacity:1"
         d="m 15.664352,25.526299 c 0.281825,-0.593133 1.263526,-1.794056 1.444567,-0.544279 -0.01722,0.923342 0.03502,1.853513 -0.02708,2.772441 -0.839116,0.896527 -0.932884,-0.694164 -0.839656,-1.410305 -0.02616,-0.705271 -0.591569,1.253068 -0.846742,0.180561 -0.482565,-0.959607 -0.261686,0.39604 -0.308912,0.869267 -0.181425,1.355908 -1.208552,0.156301 -0.866741,-0.747968 0.05288,-0.69934 -0.117267,-1.470072 0.108343,-2.116378 0.636217,-0.464191 0.966225,0.577858 1.336225,0.996661 z m 2.530182,2.0253 c -0.525979,1.251734 -1.104303,-0.307077 -0.86674,-1.106822 0.09149,-0.651535 -0.221546,-1.554237 0.243771,-1.998083 0.924336,-0.21333 0.546091,1.182805 0.622969,1.843389 0,0.420505 0,0.84101 0,1.261516 z m 2.004886,-1.529635 c -0.109851,-0.708062 0.03229,-2.228727 0.839655,-1.343426 0.04366,1.019343 0.0459,2.056606 0,3.075923 -0.627518,0.780676 -1.124026,-0.53403 -1.531767,-1.019858 -0.487323,-0.828463 -0.02457,0.879555 -0.335501,1.16476 -0.960994,0.542834 -0.748478,-0.973149 -0.758399,-1.655827 0.05873,-0.663143 -0.280009,-2.092676 0.671944,-1.772525 0.415517,0.461515 0.738699,1.040324 1.114068,1.550953 z m 1.952355,1.529635 c -0.52598,1.251734 -1.104303,-0.307077 -0.86674,-1.106822 0.09148,-0.651535 -0.221547,-1.554237 0.243771,-1.998083 0.924336,-0.21333 0.546091,1.182805 0.622969,1.843389 0,0.420505 0,0.84101 0,1.261516 z m 3.315941,-1.369743 c 0.03014,3.220036 -4.390977,1.669942 -2.883665,-1.072776 0.791713,-1.473202 2.988534,-0.799555 2.883665,1.072776 z m -1.037463,-0.668882 c -1.547224,-1.391739 -1.552517,2.725651 -0.0022,1.332435 0.268303,-0.357575 0.267963,-0.973193 0.0022,-1.332435 z"
         id="text49550"
         inkscape:connector-curvature="0" />
      <g
         id="g55219"
         transform="matrix(0.07288555,0,0,0.05540308,49.921805,7.7326885)">
        <path
           style="fill:#000003;fill-opacity:1;stroke-width:0.26458332"
           d="m -423.12973,295.18552 c -7.10866,-9.83917 -19.06285,-6.44 -29.96009,-6.92248 -16.81722,0 -33.63443,0 -50.45165,0 -5.71318,-10.83152 16.30112,-5.26376 23.63973,-6.61459 16.591,0 33.182,0 49.773,0 11.36587,-6.57732 6.0176,-20.2126 7.20684,-31.36876 -31.31293,-3.72685 -67.95987,7.14272 -96.31326,-5.957 -5.0209,-18.87744 -7.77016,-55.98401 22.3342,-49.45757 24.65969,0 49.31937,0 73.97906,0 4.89107,-25.25326 -34.812,-5.91873 -49.15358,-11.88594 -23.9139,2.80468 -58.63481,2.68075 -49.56699,-31.02821 -3.95399,-39.8875 49.24217,-19.27406 73.19455,-24.28363 11.60245,-0.87772 30.51153,5.54911 25.52602,-11.91256 -31.45222,-5.78919 -75.46537,12.39566 -98.42647,-10.74836 -2.32953,-20.451567 -3.13318,-53.045536 27.6218,-44.539915 54.54294,0.03353 109.08609,-0.105484 163.62885,0.09065 20.26109,6.412267 20.50026,61.40378 -8.67799,55.19267 -25.75564,0.002 -51.51129,0.004 -77.26693,0.006 -4.96417,25.06902 34.18912,6.08459 48.40312,11.92797 23.66991,-3.05824 59.77543,-3.00578 50.2436,30.84677 6.14121,22.48059 -16.04909,26.62326 -32.85981,24.42473 -21.92894,0.002 -43.85787,0.003 -65.78681,0.005 -2.68886,25.68682 39.34968,5.65755 55.1842,11.88002 28.61548,-7.25441 51.9566,7.4888 43.40621,38.19498 2.35915,21.31988 -22.21706,16.74551 -36.09686,17.12913 -20.83129,0 -41.66257,0 -62.49386,0 2.07832,8.71739 -4.66723,22.34692 4.37851,27.18562 5.65252,8.58813 19.30326,2.45477 28.61932,4.29979 16.22537,0.43645 32.79319,-0.87485 48.80357,0.65881 1.27461,10.99252 -16.65092,3.99687 -24.3887,5.95578 -16.73597,0 -33.47193,0 -50.2079,0 -1.7989,5.77169 -8.69385,8.88307 -14.29168,6.92158 z m 5.31378,-6.2216 c 13.62649,-18.76234 -21.30257,-1.66182 0,0 z m -76.0142,-55.46963 c -6.14555,-8.91291 -21.44791,5.00269 0,0 z m 21.90155,0.11729 c -4.89121,-9.07575 -21.94416,3.88881 -0.58804,0.41187 l 0.5104,-0.35749 z m 22.3487,-0.41498 c -7.31771,-8.47255 -18.76144,4.41067 -1.38609,0.71108 z m 103.50874,-2.10224 c 21.93457,-14.94242 -20.81599,-26.50161 -11.24169,-3.35947 2.50804,3.35469 7.28112,4.95986 11.24169,3.35947 z m -6.14605,-3.1868 c -13.77368,-24.64009 26.90001,-1.9046 0,0 z m -141.61294,-4.20286 c -6.93682,-9.99135 -20.33472,5.67762 0,0 z m 21.90155,0.11729 c -4.89125,-9.07573 -21.94413,3.88881 -0.58804,0.41188 l 0.51039,-0.35749 z m 22.18004,-0.25398 c -5.75367,-8.37423 -19.72298,3.85693 -1.56054,0.67432 z m -43.92753,-9.7696 c -7.74828,-10.2001 -21.00309,6.25594 0,0 z m 21.74749,0.234 c -6.71266,-9.30851 -19.55952,4.7778 0,0 z m 22.18004,-0.25399 c -8.30155,-9.90659 -19.41271,5.82499 0,0 z m -44.08159,-47.4883 c -7.51523,-10.49697 -20.99513,6.07603 0,0 z m 21.90155,0.11729 c -4.89124,-9.07573 -21.94413,3.88881 -0.58804,0.41188 l 0.51039,-0.35749 z m 22.3487,-0.41498 c -7.31771,-8.47255 -18.76143,4.41066 -1.38609,0.71107 z m 104.23534,-2.4307 c 20.38676,-16.00321 -22.12455,-25.15561 -11.83979,-2.83526 2.70413,3.45462 7.85293,4.83685 11.83979,2.83526 z m -6.66892,-2.72052 c -16.63158,-24.70114 28.5397,-3.2017 0,0 z m -141.81667,-4.34067 c -6.93683,-9.99135 -20.33472,5.67762 0,0 z m 21.90155,0.11729 c -4.89123,-9.07573 -21.94414,3.88881 -0.58804,0.41188 l 0.51039,-0.35749 z m 22.2693,-0.29116 c -6.20416,-8.31423 -19.61915,3.95373 -1.52736,0.71282 z m -44.01679,-9.73243 c -7.7483,-10.20008 -21.00307,6.25592 0,0 z m 21.74749,0.23401 c -6.71262,-9.30853 -19.55954,4.77778 0,0 z m 22.18004,-0.25399 c -8.3015,-9.9066 -19.41275,5.82495 0,0 z m -44.08159,-47.4883 c -7.5152,-10.496992 -20.99514,6.07601 0,0 z m 21.90155,0.11729 c -4.89121,-9.075754 -21.94416,3.88881 -0.58804,0.41187 l 0.5104,-0.35749 z m 22.3487,-0.41498 c -7.31771,-8.472555 -18.76144,4.41067 -1.38609,0.711075 z m 103.50874,-2.10224 c 21.92021,-14.92883 -20.80519,-26.505828 -11.24169,-3.359467 2.50805,3.354689 7.28112,4.959828 11.24169,3.359467 z m -5.81003,-2.99462 c -14.77608,-15.954314 20.99232,-10.429135 3.54955,0.338716 z m -141.94896,-4.39504 c -6.93683,-9.991351 -20.33472,5.677618 0,0 z m 21.90155,0.11729 c -4.89124,-9.075732 -21.94413,3.888811 -0.58804,0.41188 l 0.51039,-0.35749 z m 22.18004,-0.25398 c -5.75366,-8.374232 -19.72299,3.856929 -1.56054,0.67432 z m -43.92753,-9.76961 c -7.7483,-10.199995 -21.00306,6.255795 0,0 z m 21.74749,0.23401 c -6.71265,-9.308515 -19.55953,4.777798 0,0 z m 22.02305,-0.0671 c -6.33546,-9.50565 -20.14287,4.958154 0,0 z"
           id="path55207"
           inkscape:connector-curvature="0" />
      </g>
    </g>
  </g>
</svg>
