<?xml version="1.0" encoding="UTF-8" standalone="no"?>
<!-- Created with Inkscape (http://www.inkscape.org/) -->

<svg
   xmlns:dc="http://purl.org/dc/elements/1.1/"
   xmlns:cc="http://creativecommons.org/ns#"
   xmlns:rdf="http://www.w3.org/1999/02/22-rdf-syntax-ns#"
   xmlns:svg="http://www.w3.org/2000/svg"
   xmlns="http://www.w3.org/2000/svg"
   xmlns:sodipodi="http://sodipodi.sourceforge.net/DTD/sodipodi-0.dtd"
   xmlns:inkscape="http://www.inkscape.org/namespaces/inkscape"
   width="150"
   height="150"
   viewBox="0 0 39.6875 39.6875"
   version="1.1"
   id="svg922"
   inkscape:version="0.92.4 (5da689c313, 2019-01-14)"
   sodipodi:docname="USO_system_doublecommander.svg">
  <title
     id="title1437">USOICON</title>
  <defs
     id="defs916">
    <clipPath
       id="clipPath1521"
       clipPathUnits="userSpaceOnUse">
      <rect
         y="66.644836"
         x="57.114269"
         height="151.42299"
         width="172.87534"
         id="rect1523"
         style="opacity:0.875;fill:#000000;fill-opacity:1;stroke:#000000;stroke-width:0.60403091;stroke-linejoin:round;stroke-miterlimit:4;stroke-dasharray:none;stroke-opacity:1" />
    </clipPath>
  </defs>
  <sodipodi:namedview
     id="base"
     pagecolor="#ffffff"
     bordercolor="#666666"
     borderopacity="1.0"
     inkscape:pageopacity="0.0"
     inkscape:pageshadow="2"
     inkscape:zoom="1.9995891"
     inkscape:cx="60.942946"
     inkscape:cy="83.423466"
     inkscape:document-units="px"
     inkscape:current-layer="layer13"
     showgrid="false"
     inkscape:window-width="969"
     inkscape:window-height="614"
     inkscape:window-x="2810"
     inkscape:window-y="169"
     inkscape:window-maximized="0"
     units="px" />
  <metadata
     id="metadata919">
    <rdf:RDF>
      <cc:Work
         rdf:about="">
        <dc:format>image/svg+xml</dc:format>
        <dc:type
           rdf:resource="http://purl.org/dc/dcmitype/StillImage" />
        <dc:title>USOICON</dc:title>
        <cc:license
           rdf:resource="http://creativecommons.org/licenses/by-sa/4.0/" />
      </cc:Work>
      <cc:License
         rdf:about="http://creativecommons.org/licenses/by-sa/4.0/">
        <cc:permits
           rdf:resource="http://creativecommons.org/ns#Reproduction" />
        <cc:permits
           rdf:resource="http://creativecommons.org/ns#Distribution" />
        <cc:requires
           rdf:resource="http://creativecommons.org/ns#Notice" />
        <cc:requires
           rdf:resource="http://creativecommons.org/ns#Attribution" />
        <cc:permits
           rdf:resource="http://creativecommons.org/ns#DerivativeWorks" />
        <cc:requires
           rdf:resource="http://creativecommons.org/ns#ShareAlike" />
      </cc:License>
    </rdf:RDF>
  </metadata>
  <g
     style="display:inline"
     transform="translate(-35.46637,-112.59198)"
     id="layer1"
     inkscape:groupmode="layer"
     inkscape:label="toonbox" />
  <g
     inkscape:label="text"
     id="layer3"
     inkscape:groupmode="layer" />
  <g
     style="display:inline"
     inkscape:label="icon_system"
     id="layer13"
     inkscape:groupmode="layer">
    <g
       id="g18848">
      <path
         style="display:inline;opacity:0.875;fill:#999999;fill-opacity:1;stroke:none;stroke-width:0.11845408;stroke-linejoin:round;stroke-miterlimit:4;stroke-dasharray:none;stroke-opacity:0.97175137"
         d="M 1.435191,10.12791 C 2.670256,9.29705 4.324329,9.43582 5.75553,9.20511 14.11545,8.61268 22.517162,8.68995 30.881762,9.1576 c 2.392119,0.20608 4.838324,0.26932 7.150425,0.97031 0.872353,1.67498 0.817461,3.66984 1.026746,5.51683 0.208491,4.02511 0.362445,8.13136 -0.532305,12.08777 -0.230317,1.64927 -2.017724,2.0517 -3.40708,2.25864 C 28.802681,30.85612 22.40423,30.81147 16.04062,30.81293 11.303807,30.71862 6.537542,30.74635 1.839737,30.07418 0.173005,29.52829 0.822947,27.03924 0.434179,25.65651 0.154966,21.09087 0.021365,16.47217 0.692557,11.93449 0.848231,11.32021 0.903907,10.54918 1.435191,10.12791 Z"
         id="rect49496"
         inkscape:connector-curvature="0" />
      <path
         style="display:inline;fill:#000000;stroke-width:0.37203047"
         d="M 1.803349,30.70864 C 0.056742,30.0892 0.231437,27.93756 0.087588,26.427 -0.022935,21.93179 -0.070132,17.42779 0.099217,12.93387 -0.027874,11.27811 1.27784,10.0868 2.683582,9.49431 4.615709,8.56731 6.836395,8.9315 8.909365,8.7639 16.59615,8.63948 24.285544,8.62691 31.972812,8.67993 c 2.150882,0.14121 4.537543,-0.0199 6.403551,1.23592 1.58486,1.37874 1.255708,3.71898 1.302004,5.60595 -0.178243,4.07095 0.01584,8.16305 -0.388876,12.21995 -0.293352,1.71142 -2.120394,2.65314 -3.654582,3.02944 -6.368162,0.39372 -12.757085,0.28816 -19.135233,0.3134 C 11.668868,31.0283 6.826658,31.10952 2.006621,30.75364 L 1.803349,30.7086 Z m 34.717949,-1.05781 c 1.660436,-0.66982 2.120657,-2.56797 2.182495,-4.18169 C 38.903556,21.6571 38.926032,17.82461 38.6784,14.01451 38.609934,12.47205 38.055319,10.73538 36.494762,10.11382 34.51138,9.13075 32.202264,9.50823 30.063573,9.36171 22.019563,9.34057 13.971808,9.23982 5.930238,9.4697 4.247551,9.52117 2.061367,9.74531 1.291134,11.49417 c -0.682107,2.6627 -0.37748,5.45735 -0.46467,8.18069 0.080658,2.82901 -0.202804,5.71611 0.421771,8.49628 0.655233,1.84726 2.893842,2.0042 4.558802,2.11114 8.176545,0.4213 16.369453,0.15886 24.551012,0.03302 2.04628,-0.14679 4.225389,0.10711 6.163249,-0.66447 z M 4.297406,28.9474 c -0.939032,0.02717 -2.493051,-2.1182 -0.727168,-0.88447 1.706475,0.99084 3.797167,0.59334 5.679761,0.73138 0.843628,0.09701 3.276883,-0.14441 3.328971,0.24148 -2.712643,0.43249 -5.596207,0.56419 -8.281564,-0.08839 z m 31.24001,-17.1062 c -1.499147,-0.78086 -3.308903,-0.4003 -4.94344,-0.53994 -1.173066,-0.10336 -4.022293,-0.01807 -4.347208,-0.50636 2.904245,-0.07023 5.874879,-0.31161 8.734279,0.31742 0.913242,-0.14345 1.834744,2.01352 0.556369,0.72888 z"
         id="path49494"
         inkscape:connector-curvature="0" />
      <path
         style="font-style:normal;font-variant:normal;font-weight:normal;font-stretch:normal;font-size:3.77116919px;font-family:Insaniburger;-inkscape-font-specification:Insaniburger;opacity:1;vector-effect:none;fill:#000000;fill-opacity:1;stroke:none;stroke-width:0.04419338;stroke-linecap:butt;stroke-linejoin:miter;stroke-miterlimit:4;stroke-dasharray:none;stroke-dashoffset:0;stroke-opacity:1"
         d="M 4.1430316,27.495179 C 3.5177459,27.6264 2.8529471,27.42026 3.0777938,26.595392 3.1955509,26.057993 2.7795901,25.078868 3.4293223,24.916896 4.6987468,24.52214 5.6737996,26.289557 4.6392549,27.284142 l -0.2252534,0.140134 z m 0.2680849,-1.31206 c -0.1962337,-1.298541 -0.9049,-0.587023 -0.6302657,0.293623 -0.2344701,0.968178 0.7631206,0.346917 0.6302657,-0.293623 z m 3.3146649,-0.0019 c 0.024451,2.307712 -3.5617417,1.196802 -2.3390847,-0.76883 0.6362538,-1.057603 2.4314756,-0.566656 2.3390847,0.76883 z m -0.841538,-0.479371 c -1.5241188,-1.000612 -0.9330783,2.30623 0.1193955,0.741018 0.075205,-0.245747 0.050958,-0.544583 -0.1193955,-0.741018 z m 2.8814684,1.094339 c -0.5865965,1.583173 -2.359302,0.3218 -1.8890215,-1.04037 -0.3145184,-0.981639 0.9929796,-1.064087 0.7030569,-0.0337 -0.2730911,0.693045 0.4344558,1.769885 0.4829079,0.584986 -0.044266,-0.530936 -0.101294,-1.866104 0.6810864,-1.203268 0.049227,0.559665 0.00882,1.129317 0.02197,1.692356 z m 2.0488072,-0.06494 c 0.115797,0.910435 -1.8874077,1.154461 -1.8712676,0.242466 0.052479,-0.651071 -0.1090745,-1.362014 0.087883,-1.973735 0.975377,-0.4464 2.048547,0.342974 1.57167,1.206302 0.144542,0.125309 0.215922,0.328858 0.211715,0.524967 z m -0.703056,-0.04202 c -0.667993,-1.122479 -0.622025,1.101814 0,0 z m -0.04971,-1.004576 c -0.598073,-1.00991 -0.565345,0.996003 0,0 z m 2.157106,1.810528 c -0.523177,3.65e-4 -1.463761,0.184383 -1.25343,-0.710629 0.05082,-0.588363 -0.106772,-1.235431 0.08788,-1.784576 0.891708,-0.376649 0.553986,0.940768 0.615175,1.478762 -0.308971,0.832095 1.387876,0.03402 0.550374,1.016443 z m 1.601407,0 c 1.06088,-0.626004 -1.173644,-0.557125 -0.324819,-0.989297 0.921811,0.05335 0.276211,-0.801388 -0.175843,-0.705727 -0.05603,-0.37227 1.451568,-0.413521 0.412741,-0.883259 -0.629638,-0.115119 -1.351561,0.03836 -1.115798,0.899786 0.117758,0.5374 -0.298203,1.516524 0.351529,1.678497 0.284063,0 0.568127,0 0.85219,0 z m 3.531264,-0.462181 c -1.182387,1.76922 -3.427886,-1.261387 -1.465146,-2.099391 0.69359,-0.699579 2.236699,0.855477 0.868613,0.663192 -1.459547,-0.575498 -0.93355,2.132298 0.323122,1.080968 0.161627,0.0072 0.275145,0.193521 0.273411,0.355231 z m 2.689724,-0.851788 c 0.02445,2.307712 -3.561741,1.196802 -2.339084,-0.76883 0.636254,-1.057603 2.431475,-0.566656 2.339084,0.76883 z m -0.841537,-0.479371 c -1.52412,-1.000612 -0.933079,2.30623 0.119395,0.741018 0.07521,-0.245747 0.05096,-0.544583 -0.119395,-0.741018 z m 2.164208,0.0096 c 0.242019,-0.655987 1.346315,-1.210038 1.171762,-0.08386 -0.05082,0.588364 0.106771,1.235433 -0.08788,1.784577 -0.911503,0.526087 -0.484557,-1.122267 -0.672179,-1.231459 -0.255696,1.019049 -0.812232,-0.166564 -0.880405,0.120971 0.274685,0.636 -0.400369,1.826319 -0.703057,0.766675 0.05292,-0.683516 -0.109672,-1.426788 0.08788,-2.071179 0.518402,-0.332597 0.781767,0.41233 1.08388,0.71428 z m 2.521064,0 c 0.242018,-0.655987 1.346314,-1.210038 1.171761,-0.08386 -0.05082,0.588364 0.106772,1.235433 -0.08788,1.784577 -0.911504,0.526087 -0.484557,-1.122267 -0.672179,-1.231459 -0.255696,1.019049 -0.812232,-0.166564 -0.880405,0.120971 0.274686,0.636 -0.400369,1.826319 -0.703057,0.766675 0.05292,-0.683516 -0.109672,-1.426788 0.08788,-2.071179 0.518401,-0.332597 0.781768,0.41233 1.08388,0.71428 z m 2.588527,0.7181 c -0.07169,-1.045233 -0.606837,0.220684 0,0 z m -0.514865,0.611149 c -0.625075,1.168222 -0.910179,-0.451859 -0.341318,-1.001625 0.125887,-0.706664 0.874801,-1.661279 1.183975,-0.518549 0.166877,0.611752 0.73493,1.19585 0.547479,1.839116 -0.630934,0.365133 -0.555286,-0.661344 -1.390136,-0.318942 z m 3.076762,-0.974019 c -0.325822,-0.712741 0.570109,-1.770955 0.703057,-0.628252 -0.05248,0.651071 0.109075,1.362014 -0.08788,1.973734 -0.641538,0.415045 -1.051588,-0.985104 -1.360841,-0.975886 0.361429,0.803479 -0.743222,1.596758 -0.703057,0.442915 0.05179,-0.619351 -0.108127,-1.298234 0.08788,-1.878201 0.632773,-0.34071 0.956583,0.714113 1.360841,1.06569 z m 1.945834,1.42856 c -0.625285,0.131221 -1.290084,-0.07492 -1.065237,-0.899787 0.117757,-0.537399 -0.298204,-1.516524 0.351528,-1.678496 1.269425,-0.394756 2.244477,1.372661 1.209932,2.367246 l -0.225252,0.140134 z m 0.268086,-1.31206 c -0.196235,-1.298541 -0.9049,-0.587023 -0.630266,0.293623 -0.23447,0.968178 0.76312,0.346917 0.630266,-0.293623 z m 2.006197,1.31206 c 1.06088,-0.626004 -1.173645,-0.557125 -0.32482,-0.989297 0.921811,0.05335 0.276212,-0.801388 -0.175843,-0.705727 -0.05603,-0.37227 1.45157,-0.413521 0.412741,-0.883259 -0.629637,-0.115119 -1.351561,0.03836 -1.115797,0.899786 0.117757,0.5374 -0.298204,1.516524 0.351528,1.678497 0.284064,0 0.568127,0 0.852191,0 z m 1.924531,-1.096248 c 0.822639,0.578361 -0.01636,1.638979 -0.462346,0.561114 -0.586987,-1.18337 0.04061,1.095176 -0.923351,0.452056 -0.177257,-0.723858 -0.06877,-1.548592 -0.06591,-2.308279 0.612223,-0.496286 2.226781,-0.148642 1.720581,1.007202 l -0.112072,0.1615 z m -0.770522,-0.962559 c -0.319723,1.383163 1.297144,-0.0066 0,0 z"
         id="text49550"
         inkscape:connector-curvature="0" />
      <g
         id="g53543"
         style="fill:#000000;fill-opacity:1"
         transform="matrix(0.25341017,0,0,0.27251274,-27.614522,-84.260427)">
        <path
           style="fill:#000000;fill-opacity:1;stroke-width:0.42873418"
           d="m 166.36076,393.32227 c -6.6134,-2.35074 1.40407,-16.00593 4.44822,-9.34291 1.75745,3.52187 10.43794,2.40171 4.44246,7.03363 -2.13986,2.47494 -5.79675,4.34475 -8.89068,2.30928 z"
           id="path53531"
           inkscape:connector-curvature="0" />
        <path
           style="fill:#000000;fill-opacity:1;stroke-width:0.42873418"
           d="m 169.67848,390.43369 c 0.71695,-4.76657 -5.09417,1.66151 0,0 z"
           id="path53529"
           inkscape:connector-curvature="0" />
        <path
           style="fill:#000000;fill-opacity:1;stroke-width:0.42873418"
           d="m 197.74585,392.90821 c -3.72311,-3.26509 -10.96211,-6.37597 -11.77174,-10.99768 2.43562,-3.56617 4.96089,-6.1461 8.33965,-1.75923 3.55128,3.04611 13.85593,8.94102 5.95716,12.815 -0.79619,0.62641 -1.73229,0.225 -2.52507,-0.0581 z"
           id="path53527"
           inkscape:connector-curvature="0" />
        <path
           style="fill:#000000;fill-opacity:1;stroke-width:0.42873418"
           d="m 175.65172,385.33519 c -8.64636,-2.76003 -2.63159,-10.12124 1.58548,-13.87546 3.13419,-3.16351 6.34151,4.71751 10.30312,5.09 -3.04466,3.08279 -6.52036,11.38606 -11.8886,8.78546 z"
           id="path53525"
           inkscape:connector-curvature="0" />
        <path
           style="fill:#000000;fill-opacity:1;stroke-width:0.42873418"
           d="m 188.17484,374.30722 c -6.19614,-1.85432 -10.75606,-8.92336 -7.89961,-15.17655 1.67427,-5.50861 10.13373,-9.09087 14.28734,-6.67497 -3.6462,3.67491 -10.64309,11.94092 -1.97562,14.22704 5.41143,2.3806 9.02121,-10.41422 12.12773,-5.99 1.67197,7.23454 -4.64886,14.21802 -11.86578,14.16487 -1.57427,0.0675 -3.15746,-0.12517 -4.67406,-0.55039 z"
           id="path53523"
           inkscape:connector-curvature="0" />
        <path
           style="fill:#000000;fill-opacity:1;stroke-width:0.42873418"
           d="m 171.0534,368.49238 c -2.25957,-1.53114 -8.99443,-5.85664 -3.06712,-6.81765 1.83418,2.77874 9.30269,5.62109 7.02999,9.05476 -1.60099,0.0425 -2.70108,-1.49148 -3.96287,-2.23711 z"
           id="path53519"
           inkscape:connector-curvature="0" />
      </g>
    </g>
  </g>
</svg>
