<?xml version="1.0" encoding="UTF-8" standalone="no"?>
<!-- Created with Inkscape (http://www.inkscape.org/) -->

<svg
   xmlns:dc="http://purl.org/dc/elements/1.1/"
   xmlns:cc="http://creativecommons.org/ns#"
   xmlns:rdf="http://www.w3.org/1999/02/22-rdf-syntax-ns#"
   xmlns:svg="http://www.w3.org/2000/svg"
   xmlns="http://www.w3.org/2000/svg"
   xmlns:sodipodi="http://sodipodi.sourceforge.net/DTD/sodipodi-0.dtd"
   xmlns:inkscape="http://www.inkscape.org/namespaces/inkscape"
   width="150"
   height="150"
   viewBox="0 0 39.6875 39.6875"
   version="1.1"
   id="svg922"
   inkscape:version="0.92.4 (5da689c313, 2019-01-14)"
   sodipodi:docname="USO_system_homebrew.svg">
  <title
     id="title1437">USOICON</title>
  <defs
     id="defs916">
    <clipPath
       id="clipPath1521"
       clipPathUnits="userSpaceOnUse">
      <rect
         y="66.644836"
         x="57.114269"
         height="151.42299"
         width="172.87534"
         id="rect1523"
         style="opacity:0.875;fill:#000000;fill-opacity:1;stroke:#000000;stroke-width:0.60403091;stroke-linejoin:round;stroke-miterlimit:4;stroke-dasharray:none;stroke-opacity:1" />
    </clipPath>
  </defs>
  <sodipodi:namedview
     id="base"
     pagecolor="#ffffff"
     bordercolor="#666666"
     borderopacity="1.0"
     inkscape:pageopacity="0.0"
     inkscape:pageshadow="2"
     inkscape:zoom="2.3747788"
     inkscape:cx="84.762659"
     inkscape:cy="92.900152"
     inkscape:document-units="px"
     inkscape:current-layer="layer13"
     showgrid="false"
     inkscape:window-width="991"
     inkscape:window-height="862"
     inkscape:window-x="2803"
     inkscape:window-y="103"
     inkscape:window-maximized="0"
     units="px" />
  <metadata
     id="metadata919">
    <rdf:RDF>
      <cc:Work
         rdf:about="">
        <dc:format>image/svg+xml</dc:format>
        <dc:type
           rdf:resource="http://purl.org/dc/dcmitype/StillImage" />
        <dc:title>USOICON</dc:title>
        <cc:license
           rdf:resource="http://creativecommons.org/licenses/by-sa/4.0/" />
      </cc:Work>
      <cc:License
         rdf:about="http://creativecommons.org/licenses/by-sa/4.0/">
        <cc:permits
           rdf:resource="http://creativecommons.org/ns#Reproduction" />
        <cc:permits
           rdf:resource="http://creativecommons.org/ns#Distribution" />
        <cc:requires
           rdf:resource="http://creativecommons.org/ns#Notice" />
        <cc:requires
           rdf:resource="http://creativecommons.org/ns#Attribution" />
        <cc:permits
           rdf:resource="http://creativecommons.org/ns#DerivativeWorks" />
        <cc:requires
           rdf:resource="http://creativecommons.org/ns#ShareAlike" />
      </cc:License>
    </rdf:RDF>
  </metadata>
  <g
     style="display:inline"
     transform="translate(-35.46637,-112.59198)"
     id="layer1"
     inkscape:groupmode="layer"
     inkscape:label="toonbox" />
  <g
     inkscape:label="text"
     id="layer3"
     inkscape:groupmode="layer" />
  <g
     style="display:inline"
     inkscape:label="icon_system"
     id="layer13"
     inkscape:groupmode="layer">
    <g
       id="g12335">
      <path
         style="display:inline;opacity:0.875;fill:#999999;fill-opacity:1;stroke:none;stroke-width:0.11845408;stroke-linejoin:round;stroke-miterlimit:4;stroke-dasharray:none;stroke-opacity:0.97175137"
         d="M 1.435191,10.12791 C 2.670256,9.29705 4.324329,9.43582 5.75553,9.20511 14.11545,8.61268 22.517162,8.68995 30.881762,9.1576 c 2.392119,0.20608 4.838324,0.26932 7.150425,0.97031 0.872353,1.67498 0.817461,3.66984 1.026746,5.51683 0.208491,4.02511 0.362445,8.13136 -0.532305,12.08777 -0.230317,1.64927 -2.017724,2.0517 -3.40708,2.25864 C 28.802681,30.85612 22.40423,30.81147 16.04062,30.81293 11.303807,30.71862 6.537542,30.74635 1.839737,30.07418 0.173005,29.52829 0.822947,27.03924 0.434179,25.65651 0.154966,21.09087 0.021365,16.47217 0.692557,11.93449 0.848231,11.32021 0.903907,10.54918 1.435191,10.12791 Z"
         id="rect49496"
         inkscape:connector-curvature="0" />
      <path
         style="display:inline;fill:#000000;stroke-width:0.37203047"
         d="M 1.803349,30.70864 C 0.056742,30.0892 0.231437,27.93756 0.087588,26.427 -0.022935,21.93179 -0.070132,17.42779 0.099217,12.93387 -0.027874,11.27811 1.27784,10.0868 2.683582,9.49431 4.615709,8.56731 6.836395,8.9315 8.909365,8.7639 16.59615,8.63948 24.285544,8.62691 31.972812,8.67993 c 2.150882,0.14121 4.537543,-0.0199 6.403551,1.23592 1.58486,1.37874 1.255708,3.71898 1.302004,5.60595 -0.178243,4.07095 0.01584,8.16305 -0.388876,12.21995 -0.293352,1.71142 -2.120394,2.65314 -3.654582,3.02944 -6.368162,0.39372 -12.757085,0.28816 -19.135233,0.3134 C 11.668868,31.0283 6.826658,31.10952 2.006621,30.75364 L 1.803349,30.7086 Z m 34.717949,-1.05781 c 1.660436,-0.66982 2.120657,-2.56797 2.182495,-4.18169 C 38.903556,21.6571 38.926032,17.82461 38.6784,14.01451 38.609934,12.47205 38.055319,10.73538 36.494762,10.11382 34.51138,9.13075 32.202264,9.50823 30.063573,9.36171 22.019563,9.34057 13.971808,9.23982 5.930238,9.4697 4.247551,9.52117 2.061367,9.74531 1.291134,11.49417 c -0.682107,2.6627 -0.37748,5.45735 -0.46467,8.18069 0.080658,2.82901 -0.202804,5.71611 0.421771,8.49628 0.655233,1.84726 2.893842,2.0042 4.558802,2.11114 8.176545,0.4213 16.369453,0.15886 24.551012,0.03302 2.04628,-0.14679 4.225389,0.10711 6.163249,-0.66447 z M 4.297406,28.9474 c -0.939032,0.02717 -2.493051,-2.1182 -0.727168,-0.88447 1.706475,0.99084 3.797167,0.59334 5.679761,0.73138 0.843628,0.09701 3.276883,-0.14441 3.328971,0.24148 -2.712643,0.43249 -5.596207,0.56419 -8.281564,-0.08839 z m 31.24001,-17.1062 c -1.499147,-0.78086 -3.308903,-0.4003 -4.94344,-0.53994 -1.173066,-0.10336 -4.022293,-0.01807 -4.347208,-0.50636 2.904245,-0.07023 5.874879,-0.31161 8.734279,0.31742 0.913242,-0.14345 1.834744,2.01352 0.556369,0.72888 z"
         id="path49494"
         inkscape:connector-curvature="0" />
      <path
         style="font-style:normal;font-variant:normal;font-weight:normal;font-stretch:normal;font-size:4.94612217px;font-family:Insaniburger;-inkscape-font-specification:Insaniburger;opacity:1;vector-effect:none;fill:#000000;fill-opacity:1;stroke:none;stroke-width:0.05796236;stroke-linecap:butt;stroke-linejoin:miter;stroke-miterlimit:4;stroke-dasharray:none;stroke-dashoffset:0;stroke-opacity:1"
         d="m 10.949808,24.417714 c 0.741923,0.136824 0.323509,1.323995 0.433371,1.97299 0.104732,0.710387 -0.02259,2.252575 -0.839656,1.363757 -0.045,-0.624928 0.142351,-1.414629 -0.618045,-1.119577 0.324046,0.857336 -0.600947,2.122724 -0.8667407,0.816094 0.017222,-0.923341 -0.035022,-1.853512 0.027086,-2.77244 1.0120919,-1.108876 0.6127948,1.079841 1.0875819,1.103588 0.822732,0.291066 -0.149124,-1.502182 0.776403,-1.364412 z m 3.74931,1.764142 c 0.03014,3.220036 -4.390976,1.669942 -2.883663,-1.072776 0.791712,-1.473202 2.988533,-0.799555 2.883663,1.072776 z m -1.037462,-0.668882 c -1.547224,-1.391739 -1.552518,2.725651 -0.0022,1.332435 0.268303,-0.357575 0.267962,-0.973193 0.0022,-1.332435 z m 2.668073,0.01333 c 0.281825,-0.593133 1.263526,-1.794056 1.444568,-0.544279 -0.01722,0.923342 0.03502,1.853513 -0.02709,2.772441 -0.839114,0.896527 -0.932882,-0.694164 -0.839655,-1.410305 -0.02616,-0.705271 -0.591568,1.253068 -0.846742,0.180561 -0.482565,-0.959607 -0.261685,0.39604 -0.308912,0.869267 -0.181424,1.355908 -1.208551,0.156301 -0.86674,-0.747968 0.05287,-0.69934 -0.117268,-1.470072 0.108342,-2.116378 0.636217,-0.464191 0.966225,0.577858 1.336225,0.996661 z m 3.147407,2.488986 c 1.089783,-0.787744 -0.638093,-0.675927 -0.617224,-1.149289 0.09475,-0.286101 1.544869,-0.445578 0.529675,-1.08387 -0.672396,0.337877 -0.73483,-0.830943 -0.03382,-0.516985 1.03989,-0.235357 0.0066,-1.198611 -0.622413,-0.847427 -0.859467,-0.253587 -0.768623,0.875944 -0.740183,1.570508 0.09149,0.651535 -0.221546,1.554236 0.24377,1.998083 0.410117,0.05966 0.827528,0.01535 1.240195,0.02898 z m 2.86287,-1.065946 c 0.03534,1.298764 -1.160992,1.053744 -1.87356,1.065946 -0.741923,-0.136824 -0.323509,-1.323995 -0.433371,-1.97299 0.01037,-0.658249 -0.189452,-1.848494 0.681298,-1.624581 0.859832,-0.308774 2.162628,0.67275 1.161621,1.641559 0.28669,0.147234 0.479482,0.510156 0.464012,0.890066 z m -0.86674,-0.05863 c -0.263213,-1.185496 -1.037664,0.384323 -0.325522,0.389071 0.187415,0.03479 0.349237,-0.161562 0.325522,-0.389071 z m -0.06128,-1.401721 c -0.377728,-1.204239 -0.923134,0.836494 -0.06894,0.259825 l 0.05171,-0.10826 z m 2.930723,0.996661 c 0.751418,0.47974 0.431735,2.205764 -0.344211,1.150033 -0.268378,-0.370144 -0.749479,-1.518255 -0.605702,-0.38109 0.0372,1.398228 -1.250699,0.513412 -0.86674,-0.507957 0.05437,-0.73114 -0.119468,-1.535413 0.108342,-2.213001 0.635438,-0.140008 1.57962,-0.367835 2.015008,0.397564 0.261819,0.497909 0.139851,1.275001 -0.306697,1.554451 z m -0.949913,-1.343093 c -0.411356,1.012917 0.86905,1.096255 0.525297,0.102597 -0.147081,-0.150599 -0.350645,-0.08937 -0.525297,-0.102597 z m 3.149595,2.872727 c 1.089784,-0.787744 -0.638092,-0.675927 -0.617224,-1.149289 0.09475,-0.286101 1.544868,-0.445578 0.529675,-1.08387 -0.672395,0.337877 -0.734829,-0.830943 -0.03382,-0.516985 1.039891,-0.235357 0.0066,-1.198611 -0.622413,-0.847427 -0.859467,-0.253587 -0.768624,0.875944 -0.740183,1.570508 0.09149,0.651535 -0.221547,1.554236 0.243771,1.998083 0.410116,0.05966 0.827526,0.01535 1.240194,0.02898 z m 2.97012,0.01066 c -0.571696,-0.196668 -0.625749,-1.728732 -0.930215,-0.378411 -0.674233,1.078973 -1.035185,-0.67938 -1.183685,-1.340206 -0.212171,-0.633977 -0.677873,-2.211567 0.364549,-1.809002 0.31365,0.290953 0.352003,2.115293 0.641865,1.056054 0.521471,-1.60021 1.104431,1.359808 1.20713,-0.116796 -0.01632,-1.353764 1.48833,-1.157107 0.863829,0.188906 -0.257911,0.757378 -0.319378,1.642108 -0.723259,2.304853 l -0.112858,0.07095 z"
         id="text49550"
         inkscape:connector-curvature="0" />
      <g
         id="g53543"
         style="fill:#000000;fill-opacity:1"
         transform="matrix(0.25341017,0,0,0.27251274,-27.614522,-84.260427)">
        <path
           style="fill:#000000;fill-opacity:1;stroke-width:0.42873418"
           d="m 166.36076,393.32227 c -6.6134,-2.35074 1.40407,-16.00593 4.44822,-9.34291 1.75745,3.52187 10.43794,2.40171 4.44246,7.03363 -2.13986,2.47494 -5.79675,4.34475 -8.89068,2.30928 z"
           id="path53531"
           inkscape:connector-curvature="0" />
        <path
           style="fill:#000000;fill-opacity:1;stroke-width:0.42873418"
           d="m 169.67848,390.43369 c 0.71695,-4.76657 -5.09417,1.66151 0,0 z"
           id="path53529"
           inkscape:connector-curvature="0" />
        <path
           style="fill:#000000;fill-opacity:1;stroke-width:0.42873418"
           d="m 197.74585,392.90821 c -3.72311,-3.26509 -10.96211,-6.37597 -11.77174,-10.99768 2.43562,-3.56617 4.96089,-6.1461 8.33965,-1.75923 3.55128,3.04611 13.85593,8.94102 5.95716,12.815 -0.79619,0.62641 -1.73229,0.225 -2.52507,-0.0581 z"
           id="path53527"
           inkscape:connector-curvature="0" />
        <path
           style="fill:#000000;fill-opacity:1;stroke-width:0.42873418"
           d="m 175.65172,385.33519 c -8.64636,-2.76003 -2.63159,-10.12124 1.58548,-13.87546 3.13419,-3.16351 6.34151,4.71751 10.30312,5.09 -3.04466,3.08279 -6.52036,11.38606 -11.8886,8.78546 z"
           id="path53525"
           inkscape:connector-curvature="0" />
        <path
           style="fill:#000000;fill-opacity:1;stroke-width:0.42873418"
           d="m 188.17484,374.30722 c -6.19614,-1.85432 -10.75606,-8.92336 -7.89961,-15.17655 1.67427,-5.50861 10.13373,-9.09087 14.28734,-6.67497 -3.6462,3.67491 -10.64309,11.94092 -1.97562,14.22704 5.41143,2.3806 9.02121,-10.41422 12.12773,-5.99 1.67197,7.23454 -4.64886,14.21802 -11.86578,14.16487 -1.57427,0.0675 -3.15746,-0.12517 -4.67406,-0.55039 z"
           id="path53523"
           inkscape:connector-curvature="0" />
        <path
           style="fill:#000000;fill-opacity:1;stroke-width:0.42873418"
           d="m 171.0534,368.49238 c -2.25957,-1.53114 -8.99443,-5.85664 -3.06712,-6.81765 1.83418,2.77874 9.30269,5.62109 7.02999,9.05476 -1.60099,0.0425 -2.70108,-1.49148 -3.96287,-2.23711 z"
           id="path53519"
           inkscape:connector-curvature="0" />
      </g>
    </g>
  </g>
</svg>
