<?xml version="1.0" encoding="UTF-8" standalone="no"?>
<!-- Created with Inkscape (http://www.inkscape.org/) -->

<svg
   xmlns:dc="http://purl.org/dc/elements/1.1/"
   xmlns:cc="http://creativecommons.org/ns#"
   xmlns:rdf="http://www.w3.org/1999/02/22-rdf-syntax-ns#"
   xmlns:svg="http://www.w3.org/2000/svg"
   xmlns="http://www.w3.org/2000/svg"
   xmlns:sodipodi="http://sodipodi.sourceforge.net/DTD/sodipodi-0.dtd"
   xmlns:inkscape="http://www.inkscape.org/namespaces/inkscape"
   width="150"
   height="150"
   viewBox="0 0 39.6875 39.6875"
   version="1.1"
   id="svg922"
   inkscape:version="0.92.4 (5da689c313, 2019-01-14)"
   sodipodi:docname="USO_system_synaptic.svg">
  <title
     id="title1437">USOICON</title>
  <defs
     id="defs916">
    <clipPath
       id="clipPath1521"
       clipPathUnits="userSpaceOnUse">
      <rect
         y="66.644836"
         x="57.114269"
         height="151.42299"
         width="172.87534"
         id="rect1523"
         style="opacity:0.875;fill:#000000;fill-opacity:1;stroke:#000000;stroke-width:0.60403091;stroke-linejoin:round;stroke-miterlimit:4;stroke-dasharray:none;stroke-opacity:1" />
    </clipPath>
  </defs>
  <sodipodi:namedview
     id="base"
     pagecolor="#ffffff"
     bordercolor="#666666"
     borderopacity="1.0"
     inkscape:pageopacity="0.0"
     inkscape:pageshadow="2"
     inkscape:zoom="2.1131389"
     inkscape:cx="104.5469"
     inkscape:cy="56.31433"
     inkscape:document-units="px"
     inkscape:current-layer="layer13"
     showgrid="false"
     inkscape:window-width="1114"
     inkscape:window-height="766"
     inkscape:window-x="2613"
     inkscape:window-y="84"
     inkscape:window-maximized="0"
     units="px" />
  <metadata
     id="metadata919">
    <rdf:RDF>
      <cc:Work
         rdf:about="">
        <dc:format>image/svg+xml</dc:format>
        <dc:type
           rdf:resource="http://purl.org/dc/dcmitype/StillImage" />
        <dc:title>USOICON</dc:title>
        <cc:license
           rdf:resource="http://creativecommons.org/licenses/by-sa/4.0/" />
      </cc:Work>
      <cc:License
         rdf:about="http://creativecommons.org/licenses/by-sa/4.0/">
        <cc:permits
           rdf:resource="http://creativecommons.org/ns#Reproduction" />
        <cc:permits
           rdf:resource="http://creativecommons.org/ns#Distribution" />
        <cc:requires
           rdf:resource="http://creativecommons.org/ns#Notice" />
        <cc:requires
           rdf:resource="http://creativecommons.org/ns#Attribution" />
        <cc:permits
           rdf:resource="http://creativecommons.org/ns#DerivativeWorks" />
        <cc:requires
           rdf:resource="http://creativecommons.org/ns#ShareAlike" />
      </cc:License>
    </rdf:RDF>
  </metadata>
  <g
     style="display:inline"
     transform="translate(-35.46637,-112.59198)"
     id="layer1"
     inkscape:groupmode="layer"
     inkscape:label="toonbox" />
  <g
     inkscape:label="text"
     id="layer3"
     inkscape:groupmode="layer" />
  <g
     style="display:inline"
     inkscape:label="icon_system"
     id="layer13"
     inkscape:groupmode="layer">
    <g
       id="g2766">
      <path
         inkscape:connector-curvature="0"
         id="rect49496"
         d="m 36.90156,122.71989 c 1.235065,-0.83086 2.889138,-0.69209 4.320339,-0.9228 8.35992,-0.59243 16.761632,-0.51516 25.126232,-0.0475 2.392119,0.20608 4.838324,0.26932 7.150425,0.97031 0.872353,1.67498 0.817461,3.66984 1.026746,5.51683 0.208491,4.02511 0.362445,8.13136 -0.532305,12.08777 -0.230317,1.64927 -2.017724,2.0517 -3.40708,2.25864 -6.316867,0.86497 -12.715318,0.82032 -19.078928,0.82178 -4.736813,-0.0943 -9.503078,-0.0666 -14.200883,-0.73875 -1.666732,-0.54589 -1.01679,-3.03494 -1.405558,-4.41767 -0.279213,-4.56564 -0.412814,-9.18434 0.258378,-13.72202 0.155674,-0.61428 0.21135,-1.38531 0.742634,-1.80658 z"
         style="display:inline;opacity:0.875;fill:#999999;fill-opacity:1;stroke:none;stroke-width:0.11845408;stroke-linejoin:round;stroke-miterlimit:4;stroke-dasharray:none;stroke-opacity:0.97175137"
         transform="translate(-35.466369,-112.59198)" />
      <path
         inkscape:connector-curvature="0"
         id="path49494"
         d="m 37.269718,143.30062 c -1.746607,-0.61944 -1.571912,-2.77108 -1.715761,-4.28164 -0.110523,-4.49521 -0.15772,-8.99921 0.01163,-13.49313 -0.127091,-1.65576 1.178623,-2.84707 2.584365,-3.43956 1.932127,-0.927 4.152813,-0.56281 6.225783,-0.73041 7.686785,-0.12442 15.376179,-0.13699 23.063447,-0.084 2.150882,0.14121 4.537543,-0.0199 6.403551,1.23592 1.58486,1.37874 1.255708,3.71898 1.302004,5.60595 -0.178243,4.07095 0.01584,8.16305 -0.388876,12.21995 -0.293352,1.71142 -2.120394,2.65314 -3.654582,3.02944 -6.368162,0.39372 -12.757085,0.28816 -19.135233,0.3134 -4.830808,-0.0563 -9.673018,0.0249 -14.493055,-0.33095 l -0.203272,-0.045 z m 34.717949,-1.05781 c 1.660436,-0.66982 2.120657,-2.56797 2.182495,-4.18169 0.199763,-3.81204 0.222239,-7.64453 -0.02539,-11.45463 -0.06847,-1.54246 -0.623081,-3.27913 -2.183638,-3.90069 -1.983382,-0.98307 -4.292498,-0.60559 -6.431189,-0.75211 -8.04401,-0.0211 -16.091765,-0.12189 -24.133335,0.10799 -1.682687,0.0515 -3.868871,0.27561 -4.639104,2.02447 -0.682107,2.6627 -0.37748,5.45735 -0.46467,8.18069 0.08066,2.82901 -0.202804,5.71611 0.421771,8.49628 0.655233,1.84726 2.893842,2.0042 4.558802,2.11114 8.176545,0.4213 16.369453,0.15886 24.551012,0.033 2.04628,-0.14679 4.225389,0.10711 6.163249,-0.66447 z m -32.223892,-0.70343 c -0.939032,0.0272 -2.493051,-2.1182 -0.727168,-0.88447 1.706475,0.99084 3.797167,0.59334 5.679761,0.73138 0.843628,0.097 3.276883,-0.14441 3.328971,0.24148 -2.712643,0.43249 -5.596207,0.56419 -8.281564,-0.0884 z m 31.24001,-17.1062 c -1.499147,-0.78086 -3.308903,-0.4003 -4.94344,-0.53994 -1.173066,-0.10336 -4.022293,-0.0181 -4.347208,-0.50636 2.904245,-0.0702 5.874879,-0.31161 8.734279,0.31742 0.913242,-0.14345 1.834744,2.01352 0.556369,0.72888 z"
         style="display:inline;fill:#000000;stroke-width:0.37203047"
         transform="translate(-35.466369,-112.59198)" />
      <path
         inkscape:connector-curvature="0"
         id="text49550"
         d="m 10.622593,28.025944 c -0.8974982,0.52993 -1.8053934,-1.558493 -0.536241,-1.015314 1.397307,0.440818 0.377595,-0.716038 -0.3228394,-0.898726 -1.1737354,-1.660868 2.1552544,-2.616389 1.6470264,-0.821446 -0.624542,-0.249817 -1.6763026,0.04711 -0.496844,0.54763 1.122854,0.240524 0.785984,2.298941 -0.291102,2.187856 z m 2.538938,-2.462338 c 0.243078,-1.007699 1.869769,-1.593303 1.166742,-0.06959 -0.323802,0.595933 -0.905613,1.085277 -0.742127,1.882521 -0.144797,1.358389 -1.215848,0.212676 -0.866741,-0.704341 -0.306658,-0.588812 -0.789949,-1.069807 -0.95429,-1.745488 0.326035,-1.2545 1.102702,0.136755 1.396416,0.636902 z M 16.53,26.021964 c -0.109852,-0.708062 0.03229,-2.228727 0.839655,-1.343426 0.04366,1.019343 0.0459,2.056606 0,3.075923 -0.627519,0.780676 -1.124027,-0.53403 -1.531767,-1.019858 -0.487323,-0.828463 -0.02457,0.879555 -0.335501,1.16476 -0.960995,0.542834 -0.748477,-0.973149 -0.758398,-1.655827 0.05873,-0.663143 -0.280011,-2.092676 0.671942,-1.772525 0.415519,0.461515 0.7387,1.040324 1.114069,1.550953 z m 2.613354,0.506325 c -0.07464,-1.412416 -0.720453,0.360706 0,0 z m -0.634733,0.852758 c -0.566394,1.512044 -1.252612,-0.248485 -0.562096,-1.020922 0.333239,-0.643461 0.384984,-1.648478 1.00641,-1.942411 0.627098,0.319018 0.692768,1.341871 1.034195,2.008483 0.693161,0.768046 -0.06497,2.446845 -0.585504,0.95485 -0.297668,0 -0.595337,0 -0.893005,0 z m 3.315939,-0.564952 c 1.325624,0.05757 1.184371,-2.730335 -0.142867,-2.387722 -0.644466,-0.134033 -1.39357,0.08186 -1.165999,1.067408 0.05698,0.794002 -0.123311,1.663448 0.108342,2.403582 1.135945,0.787047 0.337139,-1.424249 1.171611,-1.083268 z m -0.192609,-1.673537 c 1.080235,0.385492 -0.661675,1.500659 -0.249516,0.116437 -0.07042,-0.220152 0.171184,-0.07357 0.249516,-0.116437 z m 2.95261,0.122583 c -0.05701,0.872755 0.123215,1.820584 -0.108342,2.639552 -0.960994,0.542835 -0.748478,-0.973149 -0.758399,-1.655827 0.202717,-0.971569 -0.226454,-0.939469 -0.766059,-1.222063 -0.09112,-0.986296 0.989838,-0.488485 1.485307,-0.609089 0.749899,-0.415828 1.400813,0.939212 0.341691,0.847427 -0.06473,0 -0.129466,0 -0.194198,0 z m 1.845108,2.286458 c -0.52598,1.251734 -1.104303,-0.307077 -0.866741,-1.106822 0.09149,-0.651535 -0.221546,-1.554237 0.24377,-1.998083 0.924337,-0.21333 0.546092,1.182805 0.622971,1.843389 0,0.420505 0,0.84101 0,1.261516 z m 2.93072,-0.181212 c -1.254253,2.267628 -4.115062,-1.22594 -2.072325,-2.766966 0.59828,-1.027953 2.999411,0.338957 1.573293,0.850926 -1.497949,-1.266161 -1.94107,2.366613 -0.236384,1.537629 0.300062,-0.216886 0.736246,-0.133571 0.735416,0.378411 z"
         style="font-style:normal;font-variant:normal;font-weight:normal;font-stretch:normal;font-size:4.94612217px;font-family:Insaniburger;-inkscape-font-specification:Insaniburger;opacity:1;vector-effect:none;fill:#000000;fill-opacity:1;stroke:none;stroke-width:0.05796236;stroke-linecap:butt;stroke-linejoin:miter;stroke-miterlimit:4;stroke-dasharray:none;stroke-dashoffset:0;stroke-opacity:1" />
      <g
         id="g53543"
         style="fill:#000000;fill-opacity:1"
         transform="matrix(0.25341017,0,0,0.27251274,-27.614522,-84.260427)">
        <path
           inkscape:connector-curvature="0"
           id="path53531"
           d="m 166.36076,393.32227 c -6.6134,-2.35074 1.40407,-16.00593 4.44822,-9.34291 1.75745,3.52187 10.43794,2.40171 4.44246,7.03363 -2.13986,2.47494 -5.79675,4.34475 -8.89068,2.30928 z"
           style="fill:#000000;fill-opacity:1;stroke-width:0.42873418" />
        <path
           inkscape:connector-curvature="0"
           id="path53529"
           d="m 169.67848,390.43369 c 0.71695,-4.76657 -5.09417,1.66151 0,0 z"
           style="fill:#000000;fill-opacity:1;stroke-width:0.42873418" />
        <path
           inkscape:connector-curvature="0"
           id="path53527"
           d="m 197.74585,392.90821 c -3.72311,-3.26509 -10.96211,-6.37597 -11.77174,-10.99768 2.43562,-3.56617 4.96089,-6.1461 8.33965,-1.75923 3.55128,3.04611 13.85593,8.94102 5.95716,12.815 -0.79619,0.62641 -1.73229,0.225 -2.52507,-0.0581 z"
           style="fill:#000000;fill-opacity:1;stroke-width:0.42873418" />
        <path
           inkscape:connector-curvature="0"
           id="path53525"
           d="m 175.65172,385.33519 c -8.64636,-2.76003 -2.63159,-10.12124 1.58548,-13.87546 3.13419,-3.16351 6.34151,4.71751 10.30312,5.09 -3.04466,3.08279 -6.52036,11.38606 -11.8886,8.78546 z"
           style="fill:#000000;fill-opacity:1;stroke-width:0.42873418" />
        <path
           inkscape:connector-curvature="0"
           id="path53523"
           d="m 188.17484,374.30722 c -6.19614,-1.85432 -10.75606,-8.92336 -7.89961,-15.17655 1.67427,-5.50861 10.13373,-9.09087 14.28734,-6.67497 -3.6462,3.67491 -10.64309,11.94092 -1.97562,14.22704 5.41143,2.3806 9.02121,-10.41422 12.12773,-5.99 1.67197,7.23454 -4.64886,14.21802 -11.86578,14.16487 -1.57427,0.0675 -3.15746,-0.12517 -4.67406,-0.55039 z"
           style="fill:#000000;fill-opacity:1;stroke-width:0.42873418" />
        <path
           inkscape:connector-curvature="0"
           id="path53519"
           d="m 171.0534,368.49238 c -2.25957,-1.53114 -8.99443,-5.85664 -3.06712,-6.81765 1.83418,2.77874 9.30269,5.62109 7.02999,9.05476 -1.60099,0.0425 -2.70108,-1.49148 -3.96287,-2.23711 z"
           style="fill:#000000;fill-opacity:1;stroke-width:0.42873418" />
      </g>
    </g>
  </g>
</svg>
