<?xml version="1.0" encoding="UTF-8" standalone="no"?>
<!-- Created with Inkscape (http://www.inkscape.org/) -->

<svg
   xmlns:dc="http://purl.org/dc/elements/1.1/"
   xmlns:cc="http://creativecommons.org/ns#"
   xmlns:rdf="http://www.w3.org/1999/02/22-rdf-syntax-ns#"
   xmlns:svg="http://www.w3.org/2000/svg"
   xmlns="http://www.w3.org/2000/svg"
   xmlns:sodipodi="http://sodipodi.sourceforge.net/DTD/sodipodi-0.dtd"
   xmlns:inkscape="http://www.inkscape.org/namespaces/inkscape"
   width="150"
   height="150"
   viewBox="0 0 39.6875 39.6875"
   version="1.1"
   id="svg922"
   inkscape:version="0.92.4 (5da689c313, 2019-01-14)"
   sodipodi:docname="USO_system_gnomecommander.svg">
  <title
     id="title1437">USOICON</title>
  <defs
     id="defs916">
    <clipPath
       id="clipPath1521"
       clipPathUnits="userSpaceOnUse">
      <rect
         y="66.644836"
         x="57.114269"
         height="151.42299"
         width="172.87534"
         id="rect1523"
         style="opacity:0.875;fill:#000000;fill-opacity:1;stroke:#000000;stroke-width:0.60403091;stroke-linejoin:round;stroke-miterlimit:4;stroke-dasharray:none;stroke-opacity:1" />
    </clipPath>
  </defs>
  <sodipodi:namedview
     id="base"
     pagecolor="#ffffff"
     bordercolor="#666666"
     borderopacity="1.0"
     inkscape:pageopacity="0.0"
     inkscape:pageshadow="2"
     inkscape:zoom="2.2281135"
     inkscape:cx="56.130379"
     inkscape:cy="76.049437"
     inkscape:document-units="px"
     inkscape:current-layer="layer13"
     showgrid="false"
     inkscape:window-width="971"
     inkscape:window-height="702"
     inkscape:window-x="2650"
     inkscape:window-y="156"
     inkscape:window-maximized="0"
     units="px" />
  <metadata
     id="metadata919">
    <rdf:RDF>
      <cc:Work
         rdf:about="">
        <dc:format>image/svg+xml</dc:format>
        <dc:type
           rdf:resource="http://purl.org/dc/dcmitype/StillImage" />
        <dc:title>USOICON</dc:title>
        <cc:license
           rdf:resource="http://creativecommons.org/licenses/by-sa/4.0/" />
      </cc:Work>
      <cc:License
         rdf:about="http://creativecommons.org/licenses/by-sa/4.0/">
        <cc:permits
           rdf:resource="http://creativecommons.org/ns#Reproduction" />
        <cc:permits
           rdf:resource="http://creativecommons.org/ns#Distribution" />
        <cc:requires
           rdf:resource="http://creativecommons.org/ns#Notice" />
        <cc:requires
           rdf:resource="http://creativecommons.org/ns#Attribution" />
        <cc:permits
           rdf:resource="http://creativecommons.org/ns#DerivativeWorks" />
        <cc:requires
           rdf:resource="http://creativecommons.org/ns#ShareAlike" />
      </cc:License>
    </rdf:RDF>
  </metadata>
  <g
     style="display:inline"
     transform="translate(-35.46637,-112.59198)"
     id="layer1"
     inkscape:groupmode="layer"
     inkscape:label="toonbox" />
  <g
     inkscape:label="text"
     id="layer3"
     inkscape:groupmode="layer" />
  <g
     style="display:inline"
     inkscape:label="icon_system"
     id="layer13"
     inkscape:groupmode="layer">
    <g
       id="g18212">
      <path
         style="display:inline;opacity:0.875;fill:#999999;fill-opacity:1;stroke:none;stroke-width:0.11845408;stroke-linejoin:round;stroke-miterlimit:4;stroke-dasharray:none;stroke-opacity:0.97175137"
         d="M 1.435191,10.12791 C 2.670256,9.29705 4.324329,9.43582 5.75553,9.20511 14.11545,8.61268 22.517162,8.68995 30.881762,9.1576 c 2.392119,0.20608 4.838324,0.26932 7.150425,0.97031 0.872353,1.67498 0.817461,3.66984 1.026746,5.51683 0.208491,4.02511 0.362445,8.13136 -0.532305,12.08777 -0.230317,1.64927 -2.017724,2.0517 -3.40708,2.25864 C 28.802681,30.85612 22.40423,30.81147 16.04062,30.81293 11.303807,30.71862 6.537542,30.74635 1.839737,30.07418 0.173005,29.52829 0.822947,27.03924 0.434179,25.65651 0.154966,21.09087 0.021365,16.47217 0.692557,11.93449 0.848231,11.32021 0.903907,10.54918 1.435191,10.12791 Z"
         id="rect49496"
         inkscape:connector-curvature="0" />
      <path
         style="display:inline;fill:#000000;stroke-width:0.37203047"
         d="M 1.803349,30.70864 C 0.056742,30.0892 0.231437,27.93756 0.087588,26.427 -0.022935,21.93179 -0.070132,17.42779 0.099217,12.93387 -0.027874,11.27811 1.27784,10.0868 2.683582,9.49431 4.615709,8.56731 6.836395,8.9315 8.909365,8.7639 16.59615,8.63948 24.285544,8.62691 31.972812,8.67993 c 2.150882,0.14121 4.537543,-0.0199 6.403551,1.23592 1.58486,1.37874 1.255708,3.71898 1.302004,5.60595 -0.178243,4.07095 0.01584,8.16305 -0.388876,12.21995 -0.293352,1.71142 -2.120394,2.65314 -3.654582,3.02944 -6.368162,0.39372 -12.757085,0.28816 -19.135233,0.3134 C 11.668868,31.0283 6.826658,31.10952 2.006621,30.75364 L 1.803349,30.7086 Z m 34.717949,-1.05781 c 1.660436,-0.66982 2.120657,-2.56797 2.182495,-4.18169 C 38.903556,21.6571 38.926032,17.82461 38.6784,14.01451 38.609934,12.47205 38.055319,10.73538 36.494762,10.11382 34.51138,9.13075 32.202264,9.50823 30.063573,9.36171 22.019563,9.34057 13.971808,9.23982 5.930238,9.4697 4.247551,9.52117 2.061367,9.74531 1.291134,11.49417 c -0.682107,2.6627 -0.37748,5.45735 -0.46467,8.18069 0.080658,2.82901 -0.202804,5.71611 0.421771,8.49628 0.655233,1.84726 2.893842,2.0042 4.558802,2.11114 8.176545,0.4213 16.369453,0.15886 24.551012,0.03302 2.04628,-0.14679 4.225389,0.10711 6.163249,-0.66447 z M 4.297406,28.9474 c -0.939032,0.02717 -2.493051,-2.1182 -0.727168,-0.88447 1.706475,0.99084 3.797167,0.59334 5.679761,0.73138 0.843628,0.09701 3.276883,-0.14441 3.328971,0.24148 -2.712643,0.43249 -5.596207,0.56419 -8.281564,-0.08839 z m 31.24001,-17.1062 c -1.499147,-0.78086 -3.308903,-0.4003 -4.94344,-0.53994 -1.173066,-0.10336 -4.022293,-0.01807 -4.347208,-0.50636 2.904245,-0.07023 5.874879,-0.31161 8.734279,0.31742 0.913242,-0.14345 1.834744,2.01352 0.556369,0.72888 z"
         id="path49494"
         inkscape:connector-curvature="0" />
      <path
         style="font-style:normal;font-variant:normal;font-weight:normal;font-stretch:normal;font-size:4.00699425px;font-family:Insaniburger;-inkscape-font-specification:Insaniburger;opacity:1;vector-effect:none;fill:#000000;fill-opacity:1;stroke:none;stroke-width:0.04695696;stroke-linecap:butt;stroke-linejoin:miter;stroke-miterlimit:4;stroke-dasharray:none;stroke-dashoffset:0;stroke-opacity:1"
         d="m 4.6577585,25.719641 c -0.891093,-0.236465 -1.0914943,0.549621 -0.4696506,0.82795 -1.5176343,0.612551 -0.862253,-2.188916 0.4465353,-1.048538 0.9007898,-1.469254 -2.9305643,-0.987941 -2.0985595,0.795036 0.1194207,1.481304 2.8351303,1.485436 2.4183216,-0.133774 0.02371,-0.199454 -0.05339,-0.464399 -0.2966468,-0.440674 z m 2.0591911,0.158982 c -0.2945163,-0.656927 0.4526664,-1.833105 0.762806,-0.757932 -0.055266,0.712705 0.1158381,1.485968 -0.095351,2.15797 C 6.666943,27.57743 6.367001,26.560562 5.9079128,26.164791 6.2012233,26.821724 5.4579734,28.00368 5.1451067,26.926699 5.2004527,26.214358 5.029155,25.441263 5.2404575,24.769722 5.9279837,24.418878 6.2788,25.511969 6.7169496,25.878623 Z m 3.6811174,0.119237 c 0.02653,2.401283 -3.8644355,1.24533 -2.5378714,-0.800004 0.6903259,-1.100485 2.6381134,-0.589631 2.5378714,0.800004 z M 9.4850111,25.499053 c -1.6536456,-1.041185 -1.0123758,2.399741 0.1295422,0.771064 0.081596,-0.255712 0.055289,-0.566665 -0.1295422,-0.771064 z m 2.3481319,0.0099 c 0.235137,-0.586971 1.364225,-1.314943 1.271344,-0.203056 -0.05379,0.651254 0.113758,1.362058 -0.09535,1.972727 -0.981615,0.530198 -0.535078,-1.136852 -0.725665,-1.285801 -0.286294,1.003147 -0.862574,-0.100542 -0.958865,0.118702 0.277134,0.657604 -0.413622,1.915522 -0.762806,0.815137 0.05503,-0.7138 -0.115498,-1.487572 0.09535,-2.160951 0.56029,-0.348271 0.849409,0.430737 1.175992,0.743242 z m 2.769988,1.856117 c 1.025363,-0.702645 -0.796331,-0.372285 -0.54321,-1.002442 0.739801,0.26504 1.067909,-0.868808 0.107043,-0.662896 -0.610067,-0.642051 0.979208,-0.07729 0.714274,-0.83975 -0.366184,-0.254372 -1.541901,-0.411239 -1.584123,0.260672 0.05527,0.712705 -0.115839,1.485968 0.09535,2.15797 0.368586,0.169149 0.814096,0.05113 1.210665,0.08645 z m 3.831367,-0.480921 c -1.282872,1.840958 -3.719204,-1.312533 -1.589661,-2.184515 0.777437,-0.740922 2.396833,0.906893 0.942431,0.690083 -1.806954,-0.253691 -0.692091,1.922519 0.554769,1.238073 l 0.06934,0.119734 z m 2.91831,-0.886326 c 0.02653,2.401283 -3.864435,1.24533 -2.537871,-0.800004 0.690325,-1.100485 2.638114,-0.589631 2.537871,0.800004 z m -0.913056,-0.498807 c -1.653646,-1.041185 -1.012375,2.399741 0.129542,0.771064 0.0816,-0.255712 0.05529,-0.566665 -0.129542,-0.771064 z m 2.348134,0.0099 c 0.235136,-0.586971 1.364224,-1.314943 1.271343,-0.203056 -0.05379,0.651254 0.113758,1.362058 -0.09535,1.972727 -0.981616,0.530198 -0.535079,-1.136852 -0.725665,-1.285801 -0.286294,1.003147 -0.862575,-0.100542 -0.958866,0.118702 0.277134,0.657604 -0.413621,1.915522 -0.762806,0.815137 0.05503,-0.7138 -0.115498,-1.487572 0.09535,-2.160951 0.56029,-0.348271 0.849409,0.430737 1.175993,0.743242 z m 2.735315,0 c 0.235136,-0.586971 1.364225,-1.314943 1.271343,-0.203056 -0.05379,0.651254 0.113759,1.362058 -0.09535,1.972727 -0.981615,0.530198 -0.535079,-1.136852 -0.725664,-1.285801 -0.286295,1.003147 -0.862575,-0.100542 -0.958866,0.118702 0.277134,0.657604 -0.413621,1.915522 -0.762807,0.815137 0.05503,-0.7138 -0.115497,-1.487572 0.09535,-2.160951 0.56029,-0.348271 0.84941,0.430737 1.175993,0.743242 z m 2.808512,0.747216 c -0.108931,-1.093923 -0.619647,0.260459 0,0 z m -0.55862,0.635929 c -0.643389,1.201978 -1.007171,-0.417588 -0.393651,-0.989553 0.164577,-0.625077 0.835816,-1.843666 1.261103,-0.697494 0.234449,0.591916 0.57134,1.14784 0.735211,1.764551 -0.431985,1.040556 -0.808596,-0.531159 -1.602663,-0.0775 z m 3.338241,-1.013512 c -0.294516,-0.656927 0.452666,-1.833105 0.762806,-0.757932 -0.05527,0.712705 0.115838,1.485968 -0.09535,2.15797 -0.717462,0.298769 -1.017405,-0.718099 -1.476492,-1.11387 0.29331,0.656933 -0.44994,1.838889 -0.762806,0.761908 0.05535,-0.712341 -0.115952,-1.485436 0.09535,-2.156977 0.687525,-0.350844 1.038342,0.742247 1.476492,1.108901 z m 2.111199,1.486484 c -0.653358,0.11774 -1.395902,-0.05174 -1.155766,-0.901518 0.09552,-0.569673 -0.218245,-1.34811 0.214539,-1.759695 1.274381,-0.413778 2.552576,0.960086 1.674418,2.223764 -0.161533,0.253649 -0.443494,0.410021 -0.733191,0.437449 z m 0.290869,-1.36526 c -0.310795,-1.470609 -0.947568,-0.464704 -0.683829,0.42706 -0.208969,0.902976 0.914281,0.08079 0.683829,-0.42706 z m 2.176692,1.36526 c 1.025363,-0.702645 -0.79633,-0.372285 -0.543211,-1.002442 0.739803,0.26504 1.067909,-0.868808 0.107044,-0.662896 -0.610066,-0.642051 0.979207,-0.07729 0.714273,-0.83975 -0.366184,-0.254372 -1.5419,-0.411239 -1.584123,0.260672 0.05527,0.712705 -0.115838,1.485968 0.09535,2.15797 0.368588,0.169149 0.814098,0.05113 1.210666,0.08645 z m 2.088087,-1.140698 c 0.822907,0.491702 0.108364,1.725126 -0.430998,0.681185 -0.602489,-1.024555 -0.195997,0.02301 -0.619546,0.437902 -0.885186,0.121983 -0.441945,-1.073622 -0.548266,-1.620883 -0.19764,-0.765065 0.271098,-1.234107 1.009856,-1.040331 0.882343,-0.18915 1.365228,1.078863 0.588954,1.542127 z m -0.836004,-1.001587 c -0.384745,1.184228 1.228823,0.200816 0.129816,0 h -0.08978 z"
         id="text49550"
         inkscape:connector-curvature="0" />
      <g
         id="g53543"
         style="fill:#000000;fill-opacity:1"
         transform="matrix(0.25341017,0,0,0.27251274,-27.614522,-84.260427)">
        <path
           style="fill:#000000;fill-opacity:1;stroke-width:0.42873418"
           d="m 166.36076,393.32227 c -6.6134,-2.35074 1.40407,-16.00593 4.44822,-9.34291 1.75745,3.52187 10.43794,2.40171 4.44246,7.03363 -2.13986,2.47494 -5.79675,4.34475 -8.89068,2.30928 z"
           id="path53531"
           inkscape:connector-curvature="0" />
        <path
           style="fill:#000000;fill-opacity:1;stroke-width:0.42873418"
           d="m 169.67848,390.43369 c 0.71695,-4.76657 -5.09417,1.66151 0,0 z"
           id="path53529"
           inkscape:connector-curvature="0" />
        <path
           style="fill:#000000;fill-opacity:1;stroke-width:0.42873418"
           d="m 197.74585,392.90821 c -3.72311,-3.26509 -10.96211,-6.37597 -11.77174,-10.99768 2.43562,-3.56617 4.96089,-6.1461 8.33965,-1.75923 3.55128,3.04611 13.85593,8.94102 5.95716,12.815 -0.79619,0.62641 -1.73229,0.225 -2.52507,-0.0581 z"
           id="path53527"
           inkscape:connector-curvature="0" />
        <path
           style="fill:#000000;fill-opacity:1;stroke-width:0.42873418"
           d="m 175.65172,385.33519 c -8.64636,-2.76003 -2.63159,-10.12124 1.58548,-13.87546 3.13419,-3.16351 6.34151,4.71751 10.30312,5.09 -3.04466,3.08279 -6.52036,11.38606 -11.8886,8.78546 z"
           id="path53525"
           inkscape:connector-curvature="0" />
        <path
           style="fill:#000000;fill-opacity:1;stroke-width:0.42873418"
           d="m 188.17484,374.30722 c -6.19614,-1.85432 -10.75606,-8.92336 -7.89961,-15.17655 1.67427,-5.50861 10.13373,-9.09087 14.28734,-6.67497 -3.6462,3.67491 -10.64309,11.94092 -1.97562,14.22704 5.41143,2.3806 9.02121,-10.41422 12.12773,-5.99 1.67197,7.23454 -4.64886,14.21802 -11.86578,14.16487 -1.57427,0.0675 -3.15746,-0.12517 -4.67406,-0.55039 z"
           id="path53523"
           inkscape:connector-curvature="0" />
        <path
           style="fill:#000000;fill-opacity:1;stroke-width:0.42873418"
           d="m 171.0534,368.49238 c -2.25957,-1.53114 -8.99443,-5.85664 -3.06712,-6.81765 1.83418,2.77874 9.30269,5.62109 7.02999,9.05476 -1.60099,0.0425 -2.70108,-1.49148 -3.96287,-2.23711 z"
           id="path53519"
           inkscape:connector-curvature="0" />
      </g>
    </g>
  </g>
</svg>
