<?xml version="1.0" encoding="UTF-8" standalone="no"?>
<!-- Created with Inkscape (http://www.inkscape.org/) -->

<svg
   xmlns:dc="http://purl.org/dc/elements/1.1/"
   xmlns:cc="http://creativecommons.org/ns#"
   xmlns:rdf="http://www.w3.org/1999/02/22-rdf-syntax-ns#"
   xmlns:svg="http://www.w3.org/2000/svg"
   xmlns="http://www.w3.org/2000/svg"
   xmlns:sodipodi="http://sodipodi.sourceforge.net/DTD/sodipodi-0.dtd"
   xmlns:inkscape="http://www.inkscape.org/namespaces/inkscape"
   width="150"
   height="150"
   viewBox="0 0 39.6875 39.6875"
   version="1.1"
   id="svg922"
   inkscape:version="0.92.4 (5da689c313, 2019-01-14)"
   sodipodi:docname="USO_system_smartmontools.svg">
  <title
     id="title1437">USOICON</title>
  <defs
     id="defs916">
    <clipPath
       id="clipPath1521"
       clipPathUnits="userSpaceOnUse">
      <rect
         y="66.644836"
         x="57.114269"
         height="151.42299"
         width="172.87534"
         id="rect1523"
         style="opacity:0.875;fill:#000000;fill-opacity:1;stroke:#000000;stroke-width:0.60403091;stroke-linejoin:round;stroke-miterlimit:4;stroke-dasharray:none;stroke-opacity:1" />
    </clipPath>
  </defs>
  <sodipodi:namedview
     id="base"
     pagecolor="#ffffff"
     bordercolor="#666666"
     borderopacity="1.0"
     inkscape:pageopacity="0.0"
     inkscape:pageshadow="2"
     inkscape:zoom="1.687385"
     inkscape:cx="116.68484"
     inkscape:cy="62.680138"
     inkscape:document-units="px"
     inkscape:current-layer="layer13"
     showgrid="false"
     inkscape:window-width="1042"
     inkscape:window-height="702"
     inkscape:window-x="2704"
     inkscape:window-y="97"
     inkscape:window-maximized="0"
     units="px" />
  <metadata
     id="metadata919">
    <rdf:RDF>
      <cc:Work
         rdf:about="">
        <dc:format>image/svg+xml</dc:format>
        <dc:type
           rdf:resource="http://purl.org/dc/dcmitype/StillImage" />
        <dc:title>USOICON</dc:title>
        <cc:license
           rdf:resource="http://creativecommons.org/licenses/by-sa/4.0/" />
      </cc:Work>
      <cc:License
         rdf:about="http://creativecommons.org/licenses/by-sa/4.0/">
        <cc:permits
           rdf:resource="http://creativecommons.org/ns#Reproduction" />
        <cc:permits
           rdf:resource="http://creativecommons.org/ns#Distribution" />
        <cc:requires
           rdf:resource="http://creativecommons.org/ns#Notice" />
        <cc:requires
           rdf:resource="http://creativecommons.org/ns#Attribution" />
        <cc:permits
           rdf:resource="http://creativecommons.org/ns#DerivativeWorks" />
        <cc:requires
           rdf:resource="http://creativecommons.org/ns#ShareAlike" />
      </cc:License>
    </rdf:RDF>
  </metadata>
  <g
     style="display:inline"
     transform="translate(-35.46637,-112.59198)"
     id="layer1"
     inkscape:groupmode="layer"
     inkscape:label="toonbox" />
  <g
     inkscape:label="text"
     id="layer3"
     inkscape:groupmode="layer" />
  <g
     style="display:inline"
     inkscape:label="icon_system"
     id="layer13"
     inkscape:groupmode="layer">
    <g
       id="g16874">
      <path
         style="display:inline;opacity:0.875;fill:#999999;fill-opacity:1;stroke:none;stroke-width:0.11845408;stroke-linejoin:round;stroke-miterlimit:4;stroke-dasharray:none;stroke-opacity:0.97175137"
         d="M 1.435191,10.12791 C 2.670256,9.29705 4.324329,9.43582 5.75553,9.20511 14.11545,8.61268 22.517162,8.68995 30.881762,9.1576 c 2.392119,0.20608 4.838324,0.26932 7.150425,0.97031 0.872353,1.67498 0.817461,3.66984 1.026746,5.51683 0.208491,4.02511 0.362445,8.13136 -0.532305,12.08777 -0.230317,1.64927 -2.017724,2.0517 -3.40708,2.25864 C 28.802681,30.85612 22.40423,30.81147 16.04062,30.81293 11.303807,30.71862 6.537542,30.74635 1.839737,30.07418 0.173005,29.52829 0.822947,27.03924 0.434179,25.65651 0.154966,21.09087 0.021365,16.47217 0.692557,11.93449 0.848231,11.32021 0.903907,10.54918 1.435191,10.12791 Z"
         id="rect49496"
         inkscape:connector-curvature="0" />
      <path
         style="display:inline;fill:#000000;stroke-width:0.37203047"
         d="M 1.803349,30.70864 C 0.056742,30.0892 0.231437,27.93756 0.087588,26.427 -0.022935,21.93179 -0.070132,17.42779 0.099217,12.93387 -0.027874,11.27811 1.27784,10.0868 2.683582,9.49431 4.615709,8.56731 6.836395,8.9315 8.909365,8.7639 16.59615,8.63948 24.285544,8.62691 31.972812,8.67993 c 2.150882,0.14121 4.537543,-0.0199 6.403551,1.23592 1.58486,1.37874 1.255708,3.71898 1.302004,5.60595 -0.178243,4.07095 0.01584,8.16305 -0.388876,12.21995 -0.293352,1.71142 -2.120394,2.65314 -3.654582,3.02944 -6.368162,0.39372 -12.757085,0.28816 -19.135233,0.3134 C 11.668868,31.0283 6.826658,31.10952 2.006621,30.75364 L 1.803349,30.7086 Z m 34.717949,-1.05781 c 1.660436,-0.66982 2.120657,-2.56797 2.182495,-4.18169 C 38.903556,21.6571 38.926032,17.82461 38.6784,14.01451 38.609934,12.47205 38.055319,10.73538 36.494762,10.11382 34.51138,9.13075 32.202264,9.50823 30.063573,9.36171 22.019563,9.34057 13.971808,9.23982 5.930238,9.4697 4.247551,9.52117 2.061367,9.74531 1.291134,11.49417 c -0.682107,2.6627 -0.37748,5.45735 -0.46467,8.18069 0.080658,2.82901 -0.202804,5.71611 0.421771,8.49628 0.655233,1.84726 2.893842,2.0042 4.558802,2.11114 8.176545,0.4213 16.369453,0.15886 24.551012,0.03302 2.04628,-0.14679 4.225389,0.10711 6.163249,-0.66447 z M 4.297406,28.9474 c -0.939032,0.02717 -2.493051,-2.1182 -0.727168,-0.88447 1.706475,0.99084 3.797167,0.59334 5.679761,0.73138 0.843628,0.09701 3.276883,-0.14441 3.328971,0.24148 -2.712643,0.43249 -5.596207,0.56419 -8.281564,-0.08839 z m 31.24001,-17.1062 c -1.499147,-0.78086 -3.308903,-0.4003 -4.94344,-0.53994 -1.173066,-0.10336 -4.022293,-0.01807 -4.347208,-0.50636 2.904245,-0.07023 5.874879,-0.31161 8.734279,0.31742 0.913242,-0.14345 1.834744,2.01352 0.556369,0.72888 z"
         id="path49494"
         inkscape:connector-curvature="0" />
      <path
         style="font-style:normal;font-variant:normal;font-weight:normal;font-stretch:normal;font-size:4.1515131px;font-family:Insaniburger;-inkscape-font-specification:Insaniburger;opacity:1;vector-effect:none;fill:#000000;fill-opacity:1;stroke:none;stroke-width:0.04865054;stroke-linecap:butt;stroke-linejoin:miter;stroke-miterlimit:4;stroke-dasharray:none;stroke-dashoffset:0;stroke-opacity:1"
         d="M 4.8037049,28.030421 C 3.7749946,28.393449 3.2561383,26.525861 4.5909938,27.315022 5.9466725,27.061744 2.7525306,26.421345 4.1187359,25.356227 c 0.779445,-1.073584 2.384207,0.866914 0.7532708,0.421659 -1.0258151,0.304252 1.8797931,0.938345 0.5561714,2.006173 L 5.1481409,27.96883 Z m 2.33592,-1.975113 c 0.2421044,-0.611763 1.3718809,-1.396397 1.287976,-0.225401 -0.055606,0.6932 0.1169122,1.450433 -0.096598,2.100494 -0.9091202,0.428246 -0.644518,-0.878309 -0.6761873,-1.437115 -0.3420993,0.693457 -0.6852119,0.702798 -1.0293712,0.0055 -0.07908,0.522779 0.28705,1.665777 -0.5564491,1.500331 -0.433059,-0.436388 -0.1238104,-1.255972 -0.217346,-1.85906 -0.2859079,-0.981157 0.7215395,-1.226989 1.0799496,-0.352483 0.069342,0.08925 0.1386842,0.178501 0.2080263,0.267752 z m 2.8452561,0.791729 c -0.1166147,-1.142068 -0.6191111,0.276114 0,0 z M 9.4189519,27.52085 c -0.6318478,1.265135 -1.0308874,-0.411426 -0.4119553,-1.017428 0.1969601,-0.582131 0.7306622,-1.984558 1.2501744,-0.865524 0.24998,0.659369 0.607362,1.279274 0.785411,1.965072 -0.445854,1.113452 -0.789219,-0.552497 -1.6236301,-0.08212 z m 3.4092331,-0.707503 c 0.819747,0.514754 0.126032,1.82465 -0.429046,0.732703 -0.603846,-1.066637 -0.2165,-0.01575 -0.635242,0.453049 -0.884504,0.137008 -0.454593,-1.100618 -0.555439,-1.669613 -0.155303,-0.729261 0.144911,-1.378894 0.913117,-1.150135 0.932703,-0.225151 1.5518,1.038874 0.70661,1.633996 z m -0.846942,-1.061255 c -0.384554,1.24402 1.239377,0.222952 0.134682,0 h -0.08779 z m 2.931121,0.09686 c -0.05651,0.688009 0.118259,1.44091 -0.0966,2.085661 -0.936109,0.422904 -0.630981,-0.934592 -0.676188,-1.506193 0.426415,-0.906144 -1.222833,-0.361972 -0.526898,-1.228143 0.635424,6.49e-4 1.318892,-0.108821 1.928061,0.06277 0.316031,0.563798 -0.260197,0.633675 -0.628377,0.5859 z m 2.160287,0.206356 c 0.242105,-0.611763 1.371882,-1.396397 1.287976,-0.225401 -0.05561,0.6932 0.116912,1.450433 -0.0966,2.100494 -0.90912,0.428246 -0.644518,-0.878309 -0.676187,-1.437115 -0.3421,0.693457 -0.685213,0.702798 -1.029371,0.0055 -0.07908,0.522779 0.28705,1.665777 -0.55645,1.500331 -0.433059,-0.436388 -0.12381,-1.255972 -0.217346,-1.85906 -0.285908,-0.981157 0.72154,-1.226989 1.07995,-0.352483 0.06934,0.08925 0.138685,0.178501 0.208026,0.267752 z m 4.244466,0.517994 c 0.02688,2.544333 -3.914992,1.319516 -2.571073,-0.847662 0.699357,-1.166044 2.672627,-0.624759 2.571073,0.847662 z m -0.925001,-0.528523 c -2.009735,-1.023747 -0.5285,2.830099 0.175634,0.526417 l -0.04391,-0.290582 z m 2.683283,0.402182 c -0.288413,-0.693313 0.450987,-1.941657 0.772786,-0.806501 -0.05705,0.756041 0.118917,1.577156 -0.0966,2.289941 -0.717797,0.31848 -1.019572,-0.740997 -1.476851,-1.155898 0.172001,0.49846 -0.276466,1.936039 -0.791744,0.881109 0.05774,-0.787098 -0.119868,-1.639918 0.0966,-2.383612 0.679249,-0.382956 1.062609,0.794134 1.495808,1.174961 z m 2.413979,-0.598009 c -0.05651,0.688009 0.118259,1.44091 -0.0966,2.085661 -0.936108,0.422904 -0.63098,-0.934592 -0.676187,-1.506193 0.426415,-0.906144 -1.222834,-0.361972 -0.5269,-1.228143 0.635425,6.49e-4 1.318894,-0.108821 1.928061,0.06277 0.316033,0.563798 -0.260196,0.633675 -0.628376,0.5859 z m 3.633653,0.72435 c 0.02688,2.544333 -3.914993,1.319516 -2.571073,-0.847662 0.699356,-1.166044 2.672628,-0.624759 2.571073,0.847662 z M 28.19803,26.044779 c -2.009735,-1.023747 -0.528501,2.830099 0.175633,0.526417 l -0.04391,-0.290582 z m 3.852219,0.528523 c 0.02688,2.544333 -3.914993,1.319516 -2.571073,-0.847662 0.699356,-1.166044 2.672627,-0.624759 2.571073,0.847662 z m -0.925001,-0.528523 c -2.009735,-1.023747 -0.528501,2.830099 0.175633,0.526417 l -0.04391,-0.290582 z m 2.46862,1.97722 c -0.510153,-0.05007 -1.532638,0.262775 -1.377743,-0.650556 0.05561,-0.6932 -0.116912,-1.450433 0.0966,-2.100495 0.936109,-0.422905 0.630981,0.934592 0.676188,1.506192 -0.43543,1.054442 1.34767,0.128953 0.710826,1.223933 z m 1.488978,0.0084 c -1.02871,0.363028 -1.547567,-1.50456 -0.212711,-0.715399 1.355679,-0.253278 -1.838463,-0.893677 -0.472258,-1.958795 0.779445,-1.073584 2.384207,0.866914 0.753271,0.421659 -1.025815,0.304252 1.879793,0.938345 0.556171,2.006173 l -0.280037,0.184771 z"
         id="text49550"
         inkscape:connector-curvature="0" />
      <g
         id="g53543"
         style="fill:#000000;fill-opacity:1"
         transform="matrix(0.25341017,0,0,0.27251274,-27.614522,-84.260427)">
        <path
           style="fill:#000000;fill-opacity:1;stroke-width:0.42873418"
           d="m 166.36076,393.32227 c -6.6134,-2.35074 1.40407,-16.00593 4.44822,-9.34291 1.75745,3.52187 10.43794,2.40171 4.44246,7.03363 -2.13986,2.47494 -5.79675,4.34475 -8.89068,2.30928 z"
           id="path53531"
           inkscape:connector-curvature="0" />
        <path
           style="fill:#000000;fill-opacity:1;stroke-width:0.42873418"
           d="m 169.67848,390.43369 c 0.71695,-4.76657 -5.09417,1.66151 0,0 z"
           id="path53529"
           inkscape:connector-curvature="0" />
        <path
           style="fill:#000000;fill-opacity:1;stroke-width:0.42873418"
           d="m 197.74585,392.90821 c -3.72311,-3.26509 -10.96211,-6.37597 -11.77174,-10.99768 2.43562,-3.56617 4.96089,-6.1461 8.33965,-1.75923 3.55128,3.04611 13.85593,8.94102 5.95716,12.815 -0.79619,0.62641 -1.73229,0.225 -2.52507,-0.0581 z"
           id="path53527"
           inkscape:connector-curvature="0" />
        <path
           style="fill:#000000;fill-opacity:1;stroke-width:0.42873418"
           d="m 175.65172,385.33519 c -8.64636,-2.76003 -2.63159,-10.12124 1.58548,-13.87546 3.13419,-3.16351 6.34151,4.71751 10.30312,5.09 -3.04466,3.08279 -6.52036,11.38606 -11.8886,8.78546 z"
           id="path53525"
           inkscape:connector-curvature="0" />
        <path
           style="fill:#000000;fill-opacity:1;stroke-width:0.42873418"
           d="m 188.17484,374.30722 c -6.19614,-1.85432 -10.75606,-8.92336 -7.89961,-15.17655 1.67427,-5.50861 10.13373,-9.09087 14.28734,-6.67497 -3.6462,3.67491 -10.64309,11.94092 -1.97562,14.22704 5.41143,2.3806 9.02121,-10.41422 12.12773,-5.99 1.67197,7.23454 -4.64886,14.21802 -11.86578,14.16487 -1.57427,0.0675 -3.15746,-0.12517 -4.67406,-0.55039 z"
           id="path53523"
           inkscape:connector-curvature="0" />
        <path
           style="fill:#000000;fill-opacity:1;stroke-width:0.42873418"
           d="m 171.0534,368.49238 c -2.25957,-1.53114 -8.99443,-5.85664 -3.06712,-6.81765 1.83418,2.77874 9.30269,5.62109 7.02999,9.05476 -1.60099,0.0425 -2.70108,-1.49148 -3.96287,-2.23711 z"
           id="path53519"
           inkscape:connector-curvature="0" />
      </g>
    </g>
  </g>
</svg>
