<?xml version="1.0" encoding="UTF-8" standalone="no"?>
<!-- Created with Inkscape (http://www.inkscape.org/) -->

<svg
   xmlns:dc="http://purl.org/dc/elements/1.1/"
   xmlns:cc="http://creativecommons.org/ns#"
   xmlns:rdf="http://www.w3.org/1999/02/22-rdf-syntax-ns#"
   xmlns:svg="http://www.w3.org/2000/svg"
   xmlns="http://www.w3.org/2000/svg"
   xmlns:sodipodi="http://sodipodi.sourceforge.net/DTD/sodipodi-0.dtd"
   xmlns:inkscape="http://www.inkscape.org/namespaces/inkscape"
   width="150"
   height="150"
   viewBox="0 0 39.6875 39.6875"
   version="1.1"
   id="svg922"
   inkscape:version="0.92.4 (5da689c313, 2019-01-14)"
   sodipodi:docname="USO_wm_moksha.svg">
  <title
     id="title1437">USOICON</title>
  <defs
     id="defs916">
    <clipPath
       id="clipPath1521"
       clipPathUnits="userSpaceOnUse">
      <rect
         y="66.644836"
         x="57.114269"
         height="151.42299"
         width="172.87534"
         id="rect1523"
         style="opacity:0.875;fill:#000000;fill-opacity:1;stroke:#000000;stroke-width:0.60403091;stroke-linejoin:round;stroke-miterlimit:4;stroke-dasharray:none;stroke-opacity:1" />
    </clipPath>
  </defs>
  <sodipodi:namedview
     id="base"
     pagecolor="#ffffff"
     bordercolor="#666666"
     borderopacity="1.0"
     inkscape:pageopacity="0.0"
     inkscape:pageshadow="2"
     inkscape:zoom="1.3140157"
     inkscape:cx="69.202989"
     inkscape:cy="70.139487"
     inkscape:document-units="px"
     inkscape:current-layer="layer4"
     showgrid="false"
     inkscape:window-width="763"
     inkscape:window-height="587"
     inkscape:window-x="2921"
     inkscape:window-y="151"
     inkscape:window-maximized="0"
     units="px" />
  <metadata
     id="metadata919">
    <rdf:RDF>
      <cc:Work
         rdf:about="">
        <dc:format>image/svg+xml</dc:format>
        <dc:type
           rdf:resource="http://purl.org/dc/dcmitype/StillImage" />
        <dc:title>USOICON</dc:title>
        <cc:license
           rdf:resource="http://creativecommons.org/licenses/by-sa/4.0/" />
      </cc:Work>
      <cc:License
         rdf:about="http://creativecommons.org/licenses/by-sa/4.0/">
        <cc:permits
           rdf:resource="http://creativecommons.org/ns#Reproduction" />
        <cc:permits
           rdf:resource="http://creativecommons.org/ns#Distribution" />
        <cc:requires
           rdf:resource="http://creativecommons.org/ns#Notice" />
        <cc:requires
           rdf:resource="http://creativecommons.org/ns#Attribution" />
        <cc:permits
           rdf:resource="http://creativecommons.org/ns#DerivativeWorks" />
        <cc:requires
           rdf:resource="http://creativecommons.org/ns#ShareAlike" />
      </cc:License>
    </rdf:RDF>
  </metadata>
  <g
     style="display:inline"
     transform="translate(-35.46637,-112.59198)"
     id="layer1"
     inkscape:groupmode="layer"
     inkscape:label="toonbox" />
  <g
     inkscape:label="text"
     id="layer3"
     inkscape:groupmode="layer" />
  <g
     style="display:inline"
     inkscape:label="icon_wm"
     id="layer4"
     inkscape:groupmode="layer">
    <g
       id="g1412">
      <path
         style="display:inline;opacity:0.875;fill:#999999;fill-opacity:1;stroke:none;stroke-width:0.11845408;stroke-linejoin:round;stroke-miterlimit:4;stroke-dasharray:none;stroke-opacity:0.97175137"
         d="M 1.435191,10.12791 C 2.670256,9.29705 4.324329,9.43582 5.75553,9.20511 14.11545,8.61268 22.517162,8.68995 30.881762,9.1576 c 2.392119,0.20608 4.838324,0.26932 7.150425,0.97031 0.872353,1.67498 0.817461,3.66984 1.026746,5.51683 0.208491,4.02511 0.362445,8.13136 -0.532305,12.08777 -0.230317,1.64927 -2.017724,2.0517 -3.40708,2.25864 C 28.802681,30.85612 22.40423,30.81147 16.04062,30.81293 11.303807,30.71862 6.537542,30.74635 1.839737,30.07418 0.173005,29.52829 0.822947,27.03924 0.434179,25.65651 0.154966,21.09087 0.021365,16.47217 0.692557,11.93449 0.848231,11.32021 0.903907,10.54918 1.435191,10.12791 Z"
         id="rect49496"
         inkscape:connector-curvature="0" />
      <path
         style="display:inline;fill:#000000;stroke-width:0.37203047"
         d="M 1.803349,30.70864 C 0.056742,30.0892 0.231437,27.93756 0.087588,26.427 -0.022935,21.93179 -0.070132,17.42779 0.099217,12.93387 -0.027874,11.27811 1.27784,10.0868 2.683582,9.49431 4.615709,8.56731 6.836395,8.9315 8.909365,8.7639 16.59615,8.63948 24.285544,8.62691 31.972812,8.67993 c 2.150882,0.14121 4.537543,-0.0199 6.403551,1.23592 1.58486,1.37874 1.255708,3.71898 1.302004,5.60595 -0.178243,4.07095 0.01584,8.16305 -0.388876,12.21995 -0.293352,1.71142 -2.120394,2.65314 -3.654582,3.02944 -6.368162,0.39372 -12.757085,0.28816 -19.135233,0.3134 C 11.668868,31.0283 6.826658,31.10952 2.006621,30.75364 L 1.803349,30.7086 Z m 34.717949,-1.05781 c 1.660436,-0.66982 2.120657,-2.56797 2.182495,-4.18169 C 38.903556,21.6571 38.926032,17.82461 38.6784,14.01451 38.609934,12.47205 38.055319,10.73538 36.494762,10.11382 34.51138,9.13075 32.202264,9.50823 30.063573,9.36171 22.019563,9.34057 13.971808,9.23982 5.930238,9.4697 4.247551,9.52117 2.061367,9.74531 1.291134,11.49417 c -0.682107,2.6627 -0.37748,5.45735 -0.46467,8.18069 0.080658,2.82901 -0.202804,5.71611 0.421771,8.49628 0.655233,1.84726 2.893842,2.0042 4.558802,2.11114 8.176545,0.4213 16.369453,0.15886 24.551012,0.03302 2.04628,-0.14679 4.225389,0.10711 6.163249,-0.66447 z M 4.297406,28.9474 c -0.939032,0.02717 -2.493051,-2.1182 -0.727168,-0.88447 1.706475,0.99084 3.797167,0.59334 5.679761,0.73138 0.843628,0.09701 3.276883,-0.14441 3.328971,0.24148 -2.712643,0.43249 -5.596207,0.56419 -8.281564,-0.08839 z m 31.24001,-17.1062 c -1.499147,-0.78086 -3.308903,-0.4003 -4.94344,-0.53994 -1.173066,-0.10336 -4.022293,-0.01807 -4.347208,-0.50636 2.904245,-0.07023 5.874879,-0.31161 8.734279,0.31742 0.913242,-0.14345 1.834744,2.01352 0.556369,0.72888 z"
         id="path49494"
         inkscape:connector-curvature="0" />
      <path
         style="font-style:normal;font-variant:normal;font-weight:normal;font-stretch:normal;font-size:4.94612217px;font-family:Insaniburger;-inkscape-font-specification:Insaniburger;opacity:1;vector-effect:none;fill:#000000;fill-opacity:1;stroke:none;stroke-width:0.05796236;stroke-linecap:butt;stroke-linejoin:miter;stroke-miterlimit:4;stroke-dasharray:none;stroke-dashoffset:0;stroke-opacity:1"
         d="m 12.926238,25.526299 c 0.281826,-0.593133 1.263526,-1.794056 1.444569,-0.544279 -0.01722,0.923342 0.03502,1.853513 -0.02709,2.772441 -0.839114,0.896527 -0.932883,-0.694164 -0.839656,-1.410305 -0.02616,-0.705271 -0.591568,1.253068 -0.846741,0.180561 -0.482566,-0.959607 -0.261686,0.39604 -0.308913,0.869267 -0.181424,1.355908 -1.20855,0.156301 -0.86674,-0.747968 0.05287,-0.69934 -0.117268,-1.470072 0.108343,-2.116378 0.636217,-0.464191 0.966225,0.577858 1.336224,0.996661 z m 4.760509,0.655557 c 0.03014,3.220036 -4.390977,1.669942 -2.883664,-1.072776 0.791712,-1.473202 2.988534,-0.799555 2.883664,1.072776 z m -1.037463,-0.668882 c -1.547223,-1.391739 -1.552518,2.725651 -0.0022,1.332435 0.268303,-0.357575 0.267963,-0.973193 0.0022,-1.332435 z m 2.891325,0.695531 c 0.32077,0.498787 1.393069,1.446705 0.442126,1.80678 -0.520868,-0.288376 -0.824415,-0.969289 -1.243204,-1.439028 0.312192,0.858954 -0.564315,2.211198 -0.866741,0.874721 0.01722,-0.923341 -0.03502,-1.853512 0.02709,-2.77244 0.911914,-1.176699 0.77787,1.154662 0.951919,1.019847 0.443547,-0.397757 0.786332,-1.550852 1.417665,-1.142098 0.40437,0.627807 -0.490225,1.153594 -0.72885,1.652218 z m 2.232514,1.817439 c -0.897498,0.52993 -1.805393,-1.558493 -0.536241,-1.015314 1.397307,0.440818 0.377595,-0.716038 -0.322839,-0.898726 -1.173736,-1.660868 2.155254,-2.616389 1.647026,-0.821446 -0.624541,-0.249817 -1.676303,0.04711 -0.496843,0.54763 1.122853,0.240524 0.785983,2.298941 -0.291103,2.187856 z m 3.066424,-3.60823 c 0.741923,0.136824 0.323509,1.323995 0.43337,1.97299 0.104733,0.710387 -0.02259,2.252575 -0.839655,1.363757 -0.045,-0.624928 0.142351,-1.414629 -0.618045,-1.119577 0.324045,0.857336 -0.600947,2.122724 -0.866741,0.816094 0.01722,-0.923341 -0.03502,-1.853512 0.02708,-2.77244 1.012092,-1.108876 0.612796,1.079841 1.087584,1.103588 0.822731,0.291066 -0.149125,-1.502182 0.776402,-1.364412 z m 2.179984,2.110575 c -0.07464,-1.412416 -0.720454,0.360706 0,0 z m -0.634734,0.852758 c -0.566393,1.512044 -1.252612,-0.248485 -0.562096,-1.020922 0.33324,-0.643461 0.384985,-1.648478 1.00641,-1.942411 0.627099,0.319018 0.692768,1.341871 1.034196,2.008483 0.693161,0.768046 -0.06497,2.446845 -0.585504,0.95485 -0.297669,0 -0.595338,0 -0.893006,0 z"
         id="text49550"
         inkscape:connector-curvature="0" />
      <g
         id="g4210"
         transform="matrix(0.09897996,0,0,0.07361682,21.8141,-12.949579)">
        <path
           style="opacity:0.875;fill:#ffffff;fill-opacity:1;stroke:none;stroke-width:0.61755061;stroke-linejoin:round;stroke-miterlimit:4;stroke-dasharray:none;stroke-opacity:1"
           d="m -64.158226,332.36594 c 38.706978,0 77.413956,0 116.120934,0 0,34.85575 0,69.71151 0,104.56726 -38.706978,0 -77.413956,0 -116.120934,0 0,-34.85575 0,-69.71151 0,-104.56726 z"
           id="rect4158-7"
           inkscape:connector-curvature="0" />
        <path
           style="opacity:1;fill:#ffffff;fill-opacity:0.85641025;stroke:none;stroke-width:0.62430251;stroke-linejoin:round;stroke-miterlimit:4;stroke-dasharray:none;stroke-opacity:1"
           d="m -97.566437,378.20181 c 39.560555,0 79.121109,0 118.681664,0 0,34.85351 0,69.70701 0,104.56052 -39.560555,0 -79.121109,0 -118.681664,0 0,-34.85351 0,-69.70701 0,-104.56052 z"
           id="rect4158"
           inkscape:connector-curvature="0" />
        <path
           style="fill:#000000;stroke:none;stroke-width:0.26458335"
           d="m -97.132117,487.46251 c -11.198703,-3.94023 -6.162353,-17.10919 -7.256303,-25.98453 0.3448,-27.34895 -0.53578,-54.97495 0.57085,-82.15165 4.801568,-10.28287 17.131585,-4.81034 25.914423,-6.17875 33.542445,0 67.084891,0 100.627336,0 13.838057,10.56689 4.024495,32.70029 7.026207,48.15041 -0.04944,19.72988 0.134122,39.46647 -0.314597,59.19126 -3.648452,11.28055 -16.478295,6.04102 -25.136801,7.23812 -33.809129,-0.0927 -67.63218,0.38367 -101.431115,-0.26486 z M 20.145289,437.63977 c -0.02233,-13.5599 -0.04467,-27.11979 -0.067,-40.67969 -38.276385,0 -76.552771,0 -114.829156,0 -0.01292,27.00948 -0.182395,54.01966 -0.0102,81.02865 38.313844,0.65105 76.649714,0.20349 114.973256,0.33073 -0.0223,-13.5599 -0.0446,-27.11979 -0.0669,-40.67969 z M -85.039717,388.87233 c 9.535582,-19.49351 -21.900813,-0.20269 0,0 z m 14.27601,0.048 c 9.424207,-19.62493 -21.137297,-0.37398 0,0 z m 14.24926,0.27374 c 12.312798,-16.70084 -21.19971,-5.01548 0,0 z m 76.725036,-4.27351 c -1.091743,-5.39761 -12.066611,-0.89228 -17.0923303,-2.34802 -16.6598457,0.0334 -33.3196907,0.0668 -49.9795357,0.10015 -2.434126,8.32805 8.973122,3.26413 13.734646,4.63021 17.779073,0 35.5581467,0 53.33722,0 0,-0.79411 0,-1.58823 0,-2.38234 z m 14.81667,55.30846 c -2.151958,-8.6573 9.71159,-3.2991 14.744007,-4.77203 4.344818,-2.35031 0.748992,-12.64126 1.924743,-18.16064 0,-21.02215 0,-42.0443 0,-63.06645 -38.364582,0 -76.729164,0 -115.093746,0 -1.30524,4.69542 3.609852,15.61117 -4.77281,13.22917 -8.712755,2.12571 -3.22569,-9.87634 -4.696703,-14.95563 0.766119,-7.87633 -3.116332,-18.9421 7.220553,-22.21833 39.775692,0 79.551384,0 119.327076,0 11.712285,4.4685 6.34141,17.98752 7.525894,27.43098 -0.346563,26.94998 0.532683,54.17717 -0.575779,80.95486 -3.004042,7.79096 -23.631442,9.48411 -25.603232,3.12531 l -2e-6,-1.06827 z m -88.750216,-94.06517 c 10.156311,-19.18354 -21.885128,-1.24978 0,0 z m 13.90697,0.28395 c 12.367897,-18.5682 -21.739729,-2.98666 0,0 z m 14.43488,0.0924 c 12.492728,-19.02391 -21.068887,-3.39106 0,0 z m 76.944826,-4.34879 c -1.093048,-5.40035 -12.066789,-0.93978 -17.09233,-2.4155 -16.659849,-0.0334 -33.3196974,-0.0668 -49.979546,-0.10015 -2.372859,8.68385 8.8370856,3.75765 13.8875184,5.00331 17.7281196,-0.0355 35.4562386,-0.0711 53.1843576,-0.10657 0,-0.7937 0,-1.58739 0,-2.38109 z"
           id="path4016"
           inkscape:connector-curvature="0" />
      </g>
    </g>
  </g>
</svg>
