<?xml version="1.0" encoding="UTF-8" standalone="no"?>
<!-- Created with Inkscape (http://www.inkscape.org/) -->

<svg
   xmlns:dc="http://purl.org/dc/elements/1.1/"
   xmlns:cc="http://creativecommons.org/ns#"
   xmlns:rdf="http://www.w3.org/1999/02/22-rdf-syntax-ns#"
   xmlns:svg="http://www.w3.org/2000/svg"
   xmlns="http://www.w3.org/2000/svg"
   xmlns:sodipodi="http://sodipodi.sourceforge.net/DTD/sodipodi-0.dtd"
   xmlns:inkscape="http://www.inkscape.org/namespaces/inkscape"
   width="150"
   height="150"
   viewBox="0 0 39.6875 39.6875"
   version="1.1"
   id="svg922"
   inkscape:version="0.92.4 (5da689c313, 2019-01-14)"
   sodipodi:docname="USO_science_octoprint.svg">
  <title
     id="title1437">USOICON</title>
  <defs
     id="defs916">
    <clipPath
       id="clipPath1521"
       clipPathUnits="userSpaceOnUse">
      <rect
         y="66.644836"
         x="57.114269"
         height="151.42299"
         width="172.87534"
         id="rect1523"
         style="opacity:0.875;fill:#000000;fill-opacity:1;stroke:#000000;stroke-width:0.60403091;stroke-linejoin:round;stroke-miterlimit:4;stroke-dasharray:none;stroke-opacity:1" />
    </clipPath>
  </defs>
  <sodipodi:namedview
     id="base"
     pagecolor="#ffffff"
     bordercolor="#666666"
     borderopacity="1.0"
     inkscape:pageopacity="0.0"
     inkscape:pageshadow="2"
     inkscape:zoom="1.9599305"
     inkscape:cx="83.188008"
     inkscape:cy="78.610473"
     inkscape:document-units="px"
     inkscape:current-layer="layer11"
     showgrid="false"
     inkscape:window-width="1019"
     inkscape:window-height="496"
     inkscape:window-x="548"
     inkscape:window-y="352"
     inkscape:window-maximized="0"
     units="px" />
  <metadata
     id="metadata919">
    <rdf:RDF>
      <cc:Work
         rdf:about="">
        <dc:format>image/svg+xml</dc:format>
        <dc:type
           rdf:resource="http://purl.org/dc/dcmitype/StillImage" />
        <dc:title>USOICON</dc:title>
        <cc:license
           rdf:resource="http://creativecommons.org/licenses/by-sa/4.0/" />
      </cc:Work>
      <cc:License
         rdf:about="http://creativecommons.org/licenses/by-sa/4.0/">
        <cc:permits
           rdf:resource="http://creativecommons.org/ns#Reproduction" />
        <cc:permits
           rdf:resource="http://creativecommons.org/ns#Distribution" />
        <cc:requires
           rdf:resource="http://creativecommons.org/ns#Notice" />
        <cc:requires
           rdf:resource="http://creativecommons.org/ns#Attribution" />
        <cc:permits
           rdf:resource="http://creativecommons.org/ns#DerivativeWorks" />
        <cc:requires
           rdf:resource="http://creativecommons.org/ns#ShareAlike" />
      </cc:License>
    </rdf:RDF>
  </metadata>
  <g
     style="display:inline"
     transform="translate(-35.46637,-112.59198)"
     id="layer1"
     inkscape:groupmode="layer"
     inkscape:label="toonbox" />
  <g
     inkscape:label="text"
     id="layer3"
     inkscape:groupmode="layer">
    <flowRoot
       xml:space="preserve"
       id="flowRoot3846"
       style="font-variant-east_asian:normal;opacity:1;vector-effect:none;fill:#000000;fill-opacity:1;stroke:none;stroke-width:0.99999999;stroke-linecap:butt;stroke-linejoin:miter;stroke-miterlimit:4;stroke-dasharray:none;stroke-dashoffset:0;stroke-opacity:1;line-height:1.25;letter-spacing:0px;word-spacing:0px;-inkscape-font-specification:Insaniburger;font-family:Insaniburger;font-weight:normal;font-style:normal;font-stretch:normal;font-variant:normal"><flowRegion
         id="flowRegion3848"><rect
           id="rect3850"
           width="201.53775"
           height="162.25064"
           x="-16.837332"
           y="-7.1484256" /></flowRegion><flowPara
         id="flowPara3852"></flowPara></flowRoot>    <flowRoot
       xml:space="preserve"
       id="flowRoot3860"
       style="font-variant-east_asian:normal;opacity:1;vector-effect:none;fill:#000000;fill-opacity:1;stroke:none;stroke-width:0.99999999;stroke-linecap:butt;stroke-linejoin:miter;stroke-miterlimit:4;stroke-dasharray:none;stroke-dashoffset:0;stroke-opacity:1;line-height:1.25;letter-spacing:0px;word-spacing:0px;-inkscape-font-specification:Insaniburger;font-family:Insaniburger;font-weight:normal;font-style:normal;font-stretch:normal;font-variant:normal"><flowRegion
         id="flowRegion3862"><rect
           id="rect3864"
           width="235.72264"
           height="162.25064"
           x="-28.572441"
           y="-3.5768704" /></flowRegion><flowPara
         id="flowPara3866"></flowPara></flowRoot>  </g>
  <g
     style="display:inline"
     inkscape:label="icon_science"
     id="layer11"
     inkscape:groupmode="layer">
    <g
       id="g3877">
      <path
         style="display:inline;opacity:0.875;fill:#999999;fill-opacity:1;stroke:none;stroke-width:0.11845408;stroke-linejoin:round;stroke-miterlimit:4;stroke-dasharray:none;stroke-opacity:0.97175137"
         d="M 1.435191,10.12791 C 2.670256,9.29705 4.324329,9.43582 5.75553,9.20511 14.11545,8.61268 22.517162,8.68995 30.881762,9.1576 c 2.392119,0.20608 4.838324,0.26932 7.150425,0.97031 0.872353,1.67498 0.817461,3.66984 1.026746,5.51683 0.208491,4.02511 0.362445,8.13136 -0.532305,12.08777 -0.230317,1.64927 -2.017724,2.0517 -3.40708,2.25864 C 28.802681,30.85612 22.40423,30.81147 16.04062,30.81293 11.303807,30.71862 6.537542,30.74635 1.839737,30.07418 0.173005,29.52829 0.822947,27.03924 0.434179,25.65651 0.154966,21.09087 0.021365,16.47217 0.692557,11.93449 0.848231,11.32021 0.903907,10.54918 1.435191,10.12791 Z"
         id="rect49496"
         inkscape:connector-curvature="0" />
      <path
         style="display:inline;fill:#000000;stroke-width:0.37203047"
         d="M 1.803349,30.70864 C 0.056742,30.0892 0.231437,27.93756 0.087588,26.427 -0.022935,21.93179 -0.070132,17.42779 0.099217,12.93387 -0.027874,11.27811 1.27784,10.0868 2.683582,9.49431 4.615709,8.56731 6.836395,8.9315 8.909365,8.7639 16.59615,8.63948 24.285544,8.62691 31.972812,8.67993 c 2.150882,0.14121 4.537543,-0.0199 6.403551,1.23592 1.58486,1.37874 1.255708,3.71898 1.302004,5.60595 -0.178243,4.07095 0.01584,8.16305 -0.388876,12.21995 -0.293352,1.71142 -2.120394,2.65314 -3.654582,3.02944 -6.368162,0.39372 -12.757085,0.28816 -19.135233,0.3134 C 11.668868,31.0283 6.826658,31.10952 2.006621,30.75364 L 1.803349,30.7086 Z m 34.717949,-1.05781 c 1.660436,-0.66982 2.120657,-2.56797 2.182495,-4.18169 C 38.903556,21.6571 38.926032,17.82461 38.6784,14.01451 38.609934,12.47205 38.055319,10.73538 36.494762,10.11382 34.51138,9.13075 32.202264,9.50823 30.063573,9.36171 22.019563,9.34057 13.971808,9.23982 5.930238,9.4697 4.247551,9.52117 2.061367,9.74531 1.291134,11.49417 c -0.682107,2.6627 -0.37748,5.45735 -0.46467,8.18069 0.080658,2.82901 -0.202804,5.71611 0.421771,8.49628 0.655233,1.84726 2.893842,2.0042 4.558802,2.11114 8.176545,0.4213 16.369453,0.15886 24.551012,0.03302 2.04628,-0.14679 4.225389,0.10711 6.163249,-0.66447 z M 4.297406,28.9474 c -0.939032,0.02717 -2.493051,-2.1182 -0.727168,-0.88447 1.706475,0.99084 3.797167,0.59334 5.679761,0.73138 0.843628,0.09701 3.276883,-0.14441 3.328971,0.24148 -2.712643,0.43249 -5.596207,0.56419 -8.281564,-0.08839 z m 31.24001,-17.1062 c -1.499147,-0.78086 -3.308903,-0.4003 -4.94344,-0.53994 -1.173066,-0.10336 -4.022293,-0.01807 -4.347208,-0.50636 2.904245,-0.07023 5.874879,-0.31161 8.734279,0.31742 0.913242,-0.14345 1.834744,2.01352 0.556369,0.72888 z"
         id="path49494"
         inkscape:connector-curvature="0" />
      <path
         style="font-style:normal;font-variant:normal;font-weight:normal;font-stretch:normal;font-size:4.94612217px;font-family:Insaniburger;-inkscape-font-specification:Insaniburger;opacity:1;vector-effect:none;fill:#000000;fill-opacity:1;stroke:none;stroke-width:0.05796236;stroke-linecap:butt;stroke-linejoin:miter;stroke-miterlimit:4;stroke-dasharray:none;stroke-dashoffset:0;stroke-opacity:1"
         d="m 11.233249,26.181856 c 0.03014,3.220036 -4.3909762,1.669942 -2.8836636,-1.072776 0.7917125,-1.473202 2.9885346,-0.799555 2.8836636,1.072776 z m -1.037462,-0.668882 c -1.5472239,-1.391739 -1.5525179,2.725651 -0.0022,1.332435 0.268303,-0.357575 0.267962,-0.973193 0.0022,-1.332435 z m 3.935353,1.857413 c -1.254253,2.267628 -4.115062,-1.22594 -2.072326,-2.766966 0.598282,-1.027953 2.999411,0.338957 1.573293,0.850926 -1.497948,-1.266161 -1.941069,2.366613 -0.236383,1.537629 0.300062,-0.216886 0.736246,-0.133571 0.735416,0.378411 z m 1.84073,-2.105246 c -0.05701,0.872755 0.123215,1.820584 -0.108342,2.639552 -0.960995,0.542835 -0.748478,-0.973149 -0.758399,-1.655827 0.202717,-0.971569 -0.226454,-0.939469 -0.766059,-1.222063 -0.09112,-0.986296 0.989838,-0.488485 1.485307,-0.609089 0.749899,-0.415828 1.400813,0.939212 0.341691,0.847427 -0.06473,0 -0.129465,0 -0.194198,0 z m 4.075432,0.916715 c 0.03014,3.220036 -4.390976,1.669942 -2.883664,-1.072776 0.791713,-1.473202 2.988534,-0.799555 2.883664,1.072776 z M 19.00984,25.512974 c -1.547224,-1.391739 -1.552518,2.725651 -0.0022,1.332435 0.268303,-0.357575 0.267962,-0.973193 0.0022,-1.332435 z m 2.532371,1.303121 c 1.325624,0.05757 1.184371,-2.730335 -0.142868,-2.387722 -0.644465,-0.134033 -1.39357,0.08186 -1.165998,1.067408 0.05698,0.794002 -0.123312,1.663448 0.108343,2.403582 1.135944,0.787047 0.337137,-1.424249 1.171611,-1.083268 z m -0.192609,-1.673537 c 1.080235,0.385492 -0.661675,1.500659 -0.249516,0.116437 -0.07042,-0.220152 0.171184,-0.07357 0.249516,-0.116437 z m 3.147407,1.343093 c 0.751419,0.47974 0.431736,2.205764 -0.344211,1.150033 -0.268377,-0.370144 -0.749479,-1.518255 -0.605702,-0.38109 0.0372,1.398228 -1.250699,0.513412 -0.86674,-0.507957 0.05437,-0.73114 -0.119468,-1.535413 0.108342,-2.213001 0.635438,-0.140008 1.57962,-0.367835 2.015008,0.397564 0.261818,0.497909 0.13985,1.275001 -0.306697,1.554451 z m -0.949913,-1.343093 c -0.411355,1.012917 0.869051,1.096255 0.525298,0.102597 -0.147082,-0.150599 -0.350646,-0.08937 -0.525298,-0.102597 z m 2.532371,2.409041 c -0.525979,1.251734 -1.104303,-0.307077 -0.86674,-1.106822 0.09149,-0.651535 -0.221546,-1.554237 0.243771,-1.998083 0.924336,-0.21333 0.546091,1.182805 0.622969,1.843389 0,0.420505 0,0.84101 0,1.261516 z m 2.004886,-1.529635 c -0.109851,-0.708062 0.03229,-2.228727 0.839655,-1.343426 0.04366,1.019343 0.0459,2.056606 0,3.075923 -0.627518,0.780676 -1.124026,-0.53403 -1.531767,-1.019858 -0.487323,-0.828463 -0.02457,0.879555 -0.335501,1.16476 -0.960994,0.542834 -0.748477,-0.973149 -0.758398,-1.655827 0.05873,-0.663143 -0.28001,-2.092676 0.671943,-1.772525 0.415517,0.461515 0.738699,1.040324 1.114068,1.550953 z m 2.70747,-0.756823 c -0.05701,0.872755 0.123216,1.820584 -0.108342,2.639552 -0.960994,0.542835 -0.748477,-0.973149 -0.758398,-1.655827 0.202717,-0.971569 -0.226453,-0.939469 -0.766058,-1.222063 -0.09112,-0.986296 0.989838,-0.488485 1.485305,-0.609089 0.749901,-0.415828 1.400813,0.939212 0.341692,0.847427 -0.06473,0 -0.129465,0 -0.194199,0 z"
         id="text49550"
         inkscape:connector-curvature="0" />
      <path
         style="fill:#000000;fill-opacity:1;stroke-width:0.09010038"
         d="m 15.016226,22.938323 c -0.678651,-0.162544 -0.890782,-0.992093 -0.419134,-1.458718 1.025192,-1.606426 2.050381,-3.212853 3.075569,-4.819282 0,-0.650713 0,-1.301427 0,-1.95214 -0.650954,0.09287 -0.497178,-0.722235 0.07728,-0.63158 1.239486,0.02262 2.495781,-0.04456 3.724985,0.03298 0.791413,0.232466 -0.08948,0.561563 0.0069,0.962006 0.05127,0.756418 -0.205433,1.602281 0.390777,2.200436 0.970994,1.530685 1.941986,3.06137 2.912978,4.592056 0.201304,0.797554 -0.729454,1.284261 -1.421379,1.188899 -2.716889,-0.02425 -5.450757,0.04073 -8.157065,-0.03912 -0.06299,-0.02547 -0.128539,-0.04978 -0.190889,-0.07554 z m 5.535325,-3.40286 c 0.996335,-0.215326 2.456484,-0.193758 1.234488,-1.390686 -0.332533,-0.702192 -1.109145,-1.273801 -0.939008,-2.12129 -0.124785,-0.415615 0.322666,-1.403467 -0.364758,-1.256444 -0.724889,0 -1.449779,0 -2.174668,0 -0.06516,0.675338 0.129669,1.426867 -0.09844,2.05445 -0.581879,0.963479 -1.291701,1.869464 -1.753219,2.89217 1.365366,0.279255 2.761459,0.235569 4.095606,-0.1782 z m -1.38583,-6.02638 c -0.868146,-0.323649 -0.609115,-1.389029 0.169026,-1.503732 0.650208,-0.09968 1.549507,0.09254 1.512231,0.937971 -0.203192,0.579811 -1.097404,0.875287 -1.681257,0.565761 z m 0.875606,-0.20978 c 0.619638,-0.06711 0.569853,-0.983684 -0.04182,-1.013181 -0.518953,-0.24751 -1.355434,0.284519 -0.94856,0.865761 0.31942,0.104199 0.646557,0.349958 0.990376,0.14742 z m 1.12489,-1.20623 c -0.699885,-0.111839 -1.142031,-1.033069 -0.615791,-1.541794 0.529822,-0.6399552 1.578263,-0.7283984 2.27032,-0.287476 0.803507,0.334667 0.630576,1.681515 -0.247564,1.784961 -0.444339,0.185187 -0.955713,0.25675 -1.406965,0.04431 z m 1.487723,-0.38911 c 0.510608,-0.206523 0.404845,-0.994368 -0.03808,-1.226114 -0.448837,-0.278054 -1.005076,-0.279358 -1.471813,-0.01805 -0.468263,0.223152 -0.655129,0.860859 -0.202486,1.204272 0.409678,0.340711 1.001711,0.316388 1.47692,0.210588 0.07849,-0.0569 0.156974,-0.113798 0.235461,-0.170697 z m -4.452146,-0.23608 c -0.659123,-0.480454 0.402853,-1.152693 0.905181,-0.790428 0.85812,0.649483 -0.406026,1.288188 -0.905181,0.790428 z m 0.885451,-0.16231 c 0.43868,-0.407317 -0.424469,-0.716121 -0.733137,-0.44754 -0.575427,0.413488 0.509922,0.88411 0.733137,0.44754 z"
         id="path55131"
         inkscape:connector-curvature="0" />
    </g>
  </g>
</svg>
