<?xml version="1.0" encoding="UTF-8" standalone="no"?>
<!-- Created with Inkscape (http://www.inkscape.org/) -->

<svg
   xmlns:dc="http://purl.org/dc/elements/1.1/"
   xmlns:cc="http://creativecommons.org/ns#"
   xmlns:rdf="http://www.w3.org/1999/02/22-rdf-syntax-ns#"
   xmlns:svg="http://www.w3.org/2000/svg"
   xmlns="http://www.w3.org/2000/svg"
   xmlns:sodipodi="http://sodipodi.sourceforge.net/DTD/sodipodi-0.dtd"
   xmlns:inkscape="http://www.inkscape.org/namespaces/inkscape"
   width="150"
   height="150"
   viewBox="0 0 39.6875 39.6875"
   version="1.1"
   id="svg922"
   inkscape:version="0.92.4 (5da689c313, 2019-01-14)"
   sodipodi:docname="USO_system_diskusageanalyzer.svg">
  <title
     id="title1437">USOICON</title>
  <defs
     id="defs916">
    <clipPath
       id="clipPath1521"
       clipPathUnits="userSpaceOnUse">
      <rect
         y="66.644836"
         x="57.114269"
         height="151.42299"
         width="172.87534"
         id="rect1523"
         style="opacity:0.875;fill:#000000;fill-opacity:1;stroke:#000000;stroke-width:0.60403091;stroke-linejoin:round;stroke-miterlimit:4;stroke-dasharray:none;stroke-opacity:1" />
    </clipPath>
  </defs>
  <sodipodi:namedview
     id="base"
     pagecolor="#ffffff"
     bordercolor="#666666"
     borderopacity="1.0"
     inkscape:pageopacity="0.0"
     inkscape:pageshadow="2"
     inkscape:zoom="2.0786937"
     inkscape:cx="94.846764"
     inkscape:cy="70.139487"
     inkscape:document-units="px"
     inkscape:current-layer="layer13"
     showgrid="false"
     inkscape:window-width="1004"
     inkscape:window-height="632"
     inkscape:window-x="2666"
     inkscape:window-y="76"
     inkscape:window-maximized="0"
     units="px" />
  <metadata
     id="metadata919">
    <rdf:RDF>
      <cc:Work
         rdf:about="">
        <dc:format>image/svg+xml</dc:format>
        <dc:type
           rdf:resource="http://purl.org/dc/dcmitype/StillImage" />
        <dc:title>USOICON</dc:title>
        <cc:license
           rdf:resource="http://creativecommons.org/licenses/by-sa/4.0/" />
      </cc:Work>
      <cc:License
         rdf:about="http://creativecommons.org/licenses/by-sa/4.0/">
        <cc:permits
           rdf:resource="http://creativecommons.org/ns#Reproduction" />
        <cc:permits
           rdf:resource="http://creativecommons.org/ns#Distribution" />
        <cc:requires
           rdf:resource="http://creativecommons.org/ns#Notice" />
        <cc:requires
           rdf:resource="http://creativecommons.org/ns#Attribution" />
        <cc:permits
           rdf:resource="http://creativecommons.org/ns#DerivativeWorks" />
        <cc:requires
           rdf:resource="http://creativecommons.org/ns#ShareAlike" />
      </cc:License>
    </rdf:RDF>
  </metadata>
  <g
     style="display:inline"
     transform="translate(-35.46637,-112.59198)"
     id="layer1"
     inkscape:groupmode="layer"
     inkscape:label="toonbox" />
  <g
     inkscape:label="text"
     id="layer3"
     inkscape:groupmode="layer" />
  <g
     style="display:inline"
     inkscape:label="icon_system"
     id="layer13"
     inkscape:groupmode="layer">
    <g
       id="g12422">
      <path
         style="display:inline;opacity:0.875;fill:#999999;fill-opacity:1;stroke:none;stroke-width:0.11845408;stroke-linejoin:round;stroke-miterlimit:4;stroke-dasharray:none;stroke-opacity:0.97175137"
         d="M 1.435191,10.12791 C 2.670256,9.29705 4.324329,9.43582 5.75553,9.20511 14.11545,8.61268 22.517162,8.68995 30.881762,9.1576 c 2.392119,0.20608 4.838324,0.26932 7.150425,0.97031 0.872353,1.67498 0.817461,3.66984 1.026746,5.51683 0.208491,4.02511 0.362445,8.13136 -0.532305,12.08777 -0.230317,1.64927 -2.017724,2.0517 -3.40708,2.25864 C 28.802681,30.85612 22.40423,30.81147 16.04062,30.81293 11.303807,30.71862 6.537542,30.74635 1.839737,30.07418 0.173005,29.52829 0.822947,27.03924 0.434179,25.65651 0.154966,21.09087 0.021365,16.47217 0.692557,11.93449 0.848231,11.32021 0.903907,10.54918 1.435191,10.12791 Z"
         id="rect49496"
         inkscape:connector-curvature="0" />
      <path
         style="display:inline;fill:#000000;stroke-width:0.37203047"
         d="M 1.803349,30.70864 C 0.056742,30.0892 0.231437,27.93756 0.087588,26.427 -0.022935,21.93179 -0.070132,17.42779 0.099217,12.93387 -0.027874,11.27811 1.27784,10.0868 2.683582,9.49431 4.615709,8.56731 6.836395,8.9315 8.909365,8.7639 16.59615,8.63948 24.285544,8.62691 31.972812,8.67993 c 2.150882,0.14121 4.537543,-0.0199 6.403551,1.23592 1.58486,1.37874 1.255708,3.71898 1.302004,5.60595 -0.178243,4.07095 0.01584,8.16305 -0.388876,12.21995 -0.293352,1.71142 -2.120394,2.65314 -3.654582,3.02944 -6.368162,0.39372 -12.757085,0.28816 -19.135233,0.3134 C 11.668868,31.0283 6.826658,31.10952 2.006621,30.75364 L 1.803349,30.7086 Z m 34.717949,-1.05781 c 1.660436,-0.66982 2.120657,-2.56797 2.182495,-4.18169 C 38.903556,21.6571 38.926032,17.82461 38.6784,14.01451 38.609934,12.47205 38.055319,10.73538 36.494762,10.11382 34.51138,9.13075 32.202264,9.50823 30.063573,9.36171 22.019563,9.34057 13.971808,9.23982 5.930238,9.4697 4.247551,9.52117 2.061367,9.74531 1.291134,11.49417 c -0.682107,2.6627 -0.37748,5.45735 -0.46467,8.18069 0.080658,2.82901 -0.202804,5.71611 0.421771,8.49628 0.655233,1.84726 2.893842,2.0042 4.558802,2.11114 8.176545,0.4213 16.369453,0.15886 24.551012,0.03302 2.04628,-0.14679 4.225389,0.10711 6.163249,-0.66447 z M 4.297406,28.9474 c -0.939032,0.02717 -2.493051,-2.1182 -0.727168,-0.88447 1.706475,0.99084 3.797167,0.59334 5.679761,0.73138 0.843628,0.09701 3.276883,-0.14441 3.328971,0.24148 -2.712643,0.43249 -5.596207,0.56419 -8.281564,-0.08839 z m 31.24001,-17.1062 c -1.499147,-0.78086 -3.308903,-0.4003 -4.94344,-0.53994 -1.173066,-0.10336 -4.022293,-0.01807 -4.347208,-0.50636 2.904245,-0.07023 5.874879,-0.31161 8.734279,0.31742 0.913242,-0.14345 1.834744,2.01352 0.556369,0.72888 z"
         id="path49494"
         inkscape:connector-curvature="0" />
      <path
         style="font-style:normal;font-variant:normal;font-weight:normal;font-stretch:normal;font-size:3.45537686px;font-family:Insaniburger;-inkscape-font-specification:Insaniburger;opacity:1;vector-effect:none;fill:#000000;fill-opacity:1;stroke:none;stroke-width:0.04049269;stroke-linecap:butt;stroke-linejoin:miter;stroke-miterlimit:4;stroke-dasharray:none;stroke-dashoffset:0;stroke-opacity:1"
         d="m 4.6757449,28.02618 c -0.6698154,0.175544 -1.1742472,-0.188568 -0.9721003,-0.970452 0.046422,-0.53345 -0.2450728,-1.591396 0.583493,-1.401495 1.3646296,-0.336026 1.7186027,2.155133 0.3886073,2.371947 z m 0.2446452,-1.207058 c -0.3556684,-1.424641 -0.7699018,-0.226171 -0.5751593,0.547521 -0.012261,0.5489 0.7919042,-0.233618 0.5751593,-0.547521 z m 1.3739018,0.90134 c -0.5624987,0.91251 -0.7732153,-0.503626 -0.6415862,-1.044583 -0.346263,-0.762799 0.6830605,-1.541733 0.6415862,-0.431042 0,0.491875 0,0.98375 0,1.475625 z m 1.0352869,0.312746 c -1.1190488,0.176557 -1.0419234,-1.24334 0.011341,-0.572782 0.5211076,-0.496889 -1.598643,-0.727699 -0.5800197,-1.658605 0.7930026,-0.899756 1.9464043,0.878924 0.4779492,0.333829 -0.3550533,0.500822 1.610612,0.764472 0.6091829,1.691989 l -0.232494,0.154176 z M 9.4341759,26.834935 C 10.039628,27.1311 10.268564,28.532123 9.4062326,27.742432 8.8786611,26.991337 8.8250863,27.08921 8.7609964,27.94975 7.9137948,28.28797 8.2730641,26.999609 8.1996085,26.485956 c -0.310173,-0.952764 0.9158072,-1.063131 0.6415862,-0.05119 0.1650516,0.354794 0.7549995,-1.319462 1.2078353,-0.589015 0.07135,0.397258 -0.4369502,0.684708 -0.6148541,0.989189 z m 3.3067611,0.548183 c -0.592527,1.501784 -2.165094,0.223506 -1.723858,-1.044582 -0.155785,-1.111892 0.993793,-0.576775 0.641587,0.286148 -0.211259,1.079116 0.698362,0.874969 0.440685,-0.103167 -0.322535,-0.961273 0.904537,-1.129312 0.641586,-0.08676 0,0.316119 0,0.632238 0,0.948357 z m 1.035286,0.65009 c -1.119048,0.176557 -1.041923,-1.24334 0.01134,-0.572782 0.521108,-0.496889 -1.598643,-0.727699 -0.58002,-1.658605 0.793004,-0.899756 1.946405,0.878924 0.47795,0.333829 -0.355053,0.500822 1.610612,0.764472 0.609183,1.691989 l -0.232494,0.154176 z m 2.000907,-0.987433 c -0.08268,-0.977866 -0.516735,0.258178 0,0 z m -0.469849,0.562239 c -0.614609,1.091929 -0.803085,-0.487792 -0.28101,-0.993798 0.121285,-0.869383 0.947019,-1.257875 1.135282,-0.203198 0.33042,0.459247 0.799859,2.081666 -0.131677,1.37621 -0.02153,-0.367807 -0.51143,-0.09682 -0.722595,-0.179214 z m 3.266258,-1.036628 c -0.901066,-0.149128 -0.70954,0.446509 -0.442711,0.798555 -1.452571,0.03982 -0.3684,-1.768397 0.590146,-1.099002 -0.187871,-1.751709 -3.059608,0.135962 -1.626647,1.437223 0.898935,0.9889 2.411497,-0.177614 1.479212,-1.136776 z m 1.508376,1.454794 c 0.90131,-0.478436 -1.353366,-0.732659 -0.06481,-0.910126 0.823253,-0.425162 -1.267681,-0.838802 0.06481,-0.903096 0.884075,-0.592509 -1.314319,-0.959537 -1.098474,-0.06308 0.04689,0.593874 -0.09804,1.242094 0.0802,1.799876 0.308577,0.151449 0.685688,0.04399 1.018276,0.07643 z m 2.346002,-0.980405 c -0.08268,-0.977866 -0.516735,0.258178 0,0 z m -0.469849,0.562239 c -0.61461,1.091929 -0.803086,-0.487792 -0.28101,-0.993798 0.121285,-0.869383 0.947018,-1.257875 1.13528,-0.203198 0.330421,0.459247 0.79986,2.081666 -0.131676,1.37621 -0.02153,-0.367807 -0.511429,-0.09682 -0.722594,-0.179214 z m 2.80775,-0.896069 c -0.342852,-0.762215 0.661716,-1.603249 0.641586,-0.467108 -0.08933,0.568545 0.197047,1.335368 -0.180446,1.762236 -0.529103,0.305312 -1.075101,-1.451663 -1.141611,-0.757234 0.257946,1.047655 -0.967538,0.860455 -0.641585,-0.09915 0.03527,-0.516505 -0.233348,-1.890532 0.615663,-1.352382 0.235464,0.304546 0.470929,0.609092 0.706393,0.913638 z m 1.934479,0.33383 c -0.08268,-0.977866 -0.516735,0.258178 0,0 z m -0.469849,0.562239 c -0.61461,1.091929 -0.803086,-0.487792 -0.28101,-0.993798 0.121286,-0.869383 0.947018,-1.257875 1.135281,-0.203198 0.33042,0.459247 0.799859,2.081666 -0.131676,1.37621 -0.02153,-0.367807 -0.51143,-0.09682 -0.722595,-0.179214 z m 2.629532,0.418166 c -0.554172,0.05456 -1.377242,0.09079 -1.143838,-0.780528 0.109368,-0.516028 -0.318645,-1.655398 0.46114,-1.572312 0.374653,0.43863 0.09276,1.214275 0.180446,1.794115 0.359591,-0.09169 1.105146,0.112191 0.502252,0.558725 z m 0.87813,-1.616438 c 0.340123,-1.037128 1.533252,-0.633595 0.655605,0.248308 -0.612217,0.303314 0.0014,1.466167 -0.802433,1.349023 -0.286542,-0.44617 -0.115868,-1.157705 -0.654063,-1.54953 -0.723389,-1.118272 0.5757,-0.814123 0.800891,-0.0478 z m 2.005767,-0.200298 c -0.940832,0.300182 -1.000923,-0.82754 -0.03186,-0.555211 0.934671,-0.282802 1.015277,0.638094 0.4184,1.222432 -0.934075,0.940594 0.602829,0.206064 0.408152,1.079674 -0.506687,0.02047 -1.688656,0.402088 -1.621788,-0.431783 0.255393,-0.452111 0.553642,-0.875511 0.827096,-1.315112 z m 2.091635,1.816736 c 0.901312,-0.478436 -1.353366,-0.732659 -0.06481,-0.910126 0.823253,-0.425162 -1.267681,-0.838802 0.06481,-0.903096 0.884075,-0.592509 -1.314318,-0.959537 -1.098473,-0.06308 0.04689,0.593874 -0.09804,1.242094 0.0802,1.799876 0.308577,0.151449 0.685687,0.04399 1.018275,0.07643 z m 1.756263,-1.008518 c 0.817511,0.640976 -0.143985,1.43951 -0.496386,0.408371 -0.263949,-0.823529 -0.225079,1.509948 -0.848353,0.294429 0.04815,-0.65693 -0.09979,-1.369056 0.0802,-1.989799 0.776032,-0.374237 2.307731,0.25638 1.264541,1.286999 z m -0.703152,-0.885526 c -0.270146,1.26656 1.166894,-0.0053 0,0 z"
         id="text49550"
         inkscape:connector-curvature="0" />
      <g
         id="g53543"
         style="fill:#000000;fill-opacity:1"
         transform="matrix(0.25341017,0,0,0.27251274,-27.614522,-84.260427)">
        <path
           style="fill:#000000;fill-opacity:1;stroke-width:0.42873418"
           d="m 166.36076,393.32227 c -6.6134,-2.35074 1.40407,-16.00593 4.44822,-9.34291 1.75745,3.52187 10.43794,2.40171 4.44246,7.03363 -2.13986,2.47494 -5.79675,4.34475 -8.89068,2.30928 z"
           id="path53531"
           inkscape:connector-curvature="0" />
        <path
           style="fill:#000000;fill-opacity:1;stroke-width:0.42873418"
           d="m 169.67848,390.43369 c 0.71695,-4.76657 -5.09417,1.66151 0,0 z"
           id="path53529"
           inkscape:connector-curvature="0" />
        <path
           style="fill:#000000;fill-opacity:1;stroke-width:0.42873418"
           d="m 197.74585,392.90821 c -3.72311,-3.26509 -10.96211,-6.37597 -11.77174,-10.99768 2.43562,-3.56617 4.96089,-6.1461 8.33965,-1.75923 3.55128,3.04611 13.85593,8.94102 5.95716,12.815 -0.79619,0.62641 -1.73229,0.225 -2.52507,-0.0581 z"
           id="path53527"
           inkscape:connector-curvature="0" />
        <path
           style="fill:#000000;fill-opacity:1;stroke-width:0.42873418"
           d="m 175.65172,385.33519 c -8.64636,-2.76003 -2.63159,-10.12124 1.58548,-13.87546 3.13419,-3.16351 6.34151,4.71751 10.30312,5.09 -3.04466,3.08279 -6.52036,11.38606 -11.8886,8.78546 z"
           id="path53525"
           inkscape:connector-curvature="0" />
        <path
           style="fill:#000000;fill-opacity:1;stroke-width:0.42873418"
           d="m 188.17484,374.30722 c -6.19614,-1.85432 -10.75606,-8.92336 -7.89961,-15.17655 1.67427,-5.50861 10.13373,-9.09087 14.28734,-6.67497 -3.6462,3.67491 -10.64309,11.94092 -1.97562,14.22704 5.41143,2.3806 9.02121,-10.41422 12.12773,-5.99 1.67197,7.23454 -4.64886,14.21802 -11.86578,14.16487 -1.57427,0.0675 -3.15746,-0.12517 -4.67406,-0.55039 z"
           id="path53523"
           inkscape:connector-curvature="0" />
        <path
           style="fill:#000000;fill-opacity:1;stroke-width:0.42873418"
           d="m 171.0534,368.49238 c -2.25957,-1.53114 -8.99443,-5.85664 -3.06712,-6.81765 1.83418,2.77874 9.30269,5.62109 7.02999,9.05476 -1.60099,0.0425 -2.70108,-1.49148 -3.96287,-2.23711 z"
           id="path53519"
           inkscape:connector-curvature="0" />
      </g>
    </g>
  </g>
</svg>
