<?xml version="1.0" encoding="UTF-8" standalone="no"?>
<!-- Created with Inkscape (http://www.inkscape.org/) -->

<svg
   xmlns:dc="http://purl.org/dc/elements/1.1/"
   xmlns:cc="http://creativecommons.org/ns#"
   xmlns:rdf="http://www.w3.org/1999/02/22-rdf-syntax-ns#"
   xmlns:svg="http://www.w3.org/2000/svg"
   xmlns="http://www.w3.org/2000/svg"
   xmlns:sodipodi="http://sodipodi.sourceforge.net/DTD/sodipodi-0.dtd"
   xmlns:inkscape="http://www.inkscape.org/namespaces/inkscape"
   width="150"
   height="150"
   viewBox="0 0 39.6875 39.6875"
   version="1.1"
   id="svg922"
   inkscape:version="0.92.4 (5da689c313, 2019-01-14)"
   sodipodi:docname="USO_graphics_tupitube.svg">
  <title
     id="title1437">USOICON</title>
  <defs
     id="defs916">
    <clipPath
       id="clipPath1521"
       clipPathUnits="userSpaceOnUse">
      <rect
         y="66.644836"
         x="57.114269"
         height="151.42299"
         width="172.87534"
         id="rect1523"
         style="opacity:0.875;fill:#000000;fill-opacity:1;stroke:#000000;stroke-width:0.60403091;stroke-linejoin:round;stroke-miterlimit:4;stroke-dasharray:none;stroke-opacity:1" />
    </clipPath>
  </defs>
  <sodipodi:namedview
     id="base"
     pagecolor="#ffffff"
     bordercolor="#666666"
     borderopacity="1.0"
     inkscape:pageopacity="0.0"
     inkscape:pageshadow="2"
     inkscape:zoom="2.2456923"
     inkscape:cx="81.254494"
     inkscape:cy="69.722021"
     inkscape:document-units="px"
     inkscape:current-layer="layer8"
     showgrid="false"
     inkscape:window-width="1004"
     inkscape:window-height="670"
     inkscape:window-x="2553"
     inkscape:window-y="105"
     inkscape:window-maximized="0"
     units="px" />
  <metadata
     id="metadata919">
    <rdf:RDF>
      <cc:Work
         rdf:about="">
        <dc:format>image/svg+xml</dc:format>
        <dc:type
           rdf:resource="http://purl.org/dc/dcmitype/StillImage" />
        <dc:title>USOICON</dc:title>
        <cc:license
           rdf:resource="http://creativecommons.org/licenses/by-sa/4.0/" />
      </cc:Work>
      <cc:License
         rdf:about="http://creativecommons.org/licenses/by-sa/4.0/">
        <cc:permits
           rdf:resource="http://creativecommons.org/ns#Reproduction" />
        <cc:permits
           rdf:resource="http://creativecommons.org/ns#Distribution" />
        <cc:requires
           rdf:resource="http://creativecommons.org/ns#Notice" />
        <cc:requires
           rdf:resource="http://creativecommons.org/ns#Attribution" />
        <cc:permits
           rdf:resource="http://creativecommons.org/ns#DerivativeWorks" />
        <cc:requires
           rdf:resource="http://creativecommons.org/ns#ShareAlike" />
      </cc:License>
    </rdf:RDF>
  </metadata>
  <g
     style="display:inline"
     transform="translate(-35.46637,-112.59198)"
     id="layer1"
     inkscape:groupmode="layer"
     inkscape:label="toonbox" />
  <g
     inkscape:label="text"
     id="layer3"
     inkscape:groupmode="layer" />
  <g
     style="display:inline"
     inkscape:label="icon_graphics"
     id="layer8"
     inkscape:groupmode="layer">
    <g
       id="g6423">
      <path
         style="display:inline;opacity:0.875;fill:#999999;fill-opacity:1;stroke:none;stroke-width:0.11845408;stroke-linejoin:round;stroke-miterlimit:4;stroke-dasharray:none;stroke-opacity:0.97175137"
         d="M 1.435191,10.12791 C 2.670256,9.29705 4.324329,9.43582 5.75553,9.20511 14.11545,8.61268 22.517162,8.68995 30.881762,9.1576 c 2.392119,0.20608 4.838324,0.26932 7.150425,0.97031 0.872353,1.67498 0.817461,3.66984 1.026746,5.51683 0.208491,4.02511 0.362445,8.13136 -0.532305,12.08777 -0.230317,1.64927 -2.017724,2.0517 -3.40708,2.25864 C 28.802681,30.85612 22.40423,30.81147 16.04062,30.81293 11.303807,30.71862 6.537542,30.74635 1.839737,30.07418 0.173005,29.52829 0.822947,27.03924 0.434179,25.65651 0.154966,21.09087 0.021365,16.47217 0.692557,11.93449 0.848231,11.32021 0.903907,10.54918 1.435191,10.12791 Z"
         id="rect49496"
         inkscape:connector-curvature="0" />
      <path
         style="display:inline;fill:#000000;stroke-width:0.37203047"
         d="M 1.803349,30.70864 C 0.056742,30.0892 0.231437,27.93756 0.087588,26.427 -0.022935,21.93179 -0.070132,17.42779 0.099217,12.93387 -0.027874,11.27811 1.27784,10.0868 2.683582,9.49431 4.615709,8.56731 6.836395,8.9315 8.909365,8.7639 16.59615,8.63948 24.285544,8.62691 31.972812,8.67993 c 2.150882,0.14121 4.537543,-0.0199 6.403551,1.23592 1.58486,1.37874 1.255708,3.71898 1.302004,5.60595 -0.178243,4.07095 0.01584,8.16305 -0.388876,12.21995 -0.293352,1.71142 -2.120394,2.65314 -3.654582,3.02944 -6.368162,0.39372 -12.757085,0.28816 -19.135233,0.3134 C 11.668868,31.0283 6.826658,31.10952 2.006621,30.75364 L 1.803349,30.7086 Z m 34.717949,-1.05781 c 1.660436,-0.66982 2.120657,-2.56797 2.182495,-4.18169 C 38.903556,21.6571 38.926032,17.82461 38.6784,14.01451 38.609934,12.47205 38.055319,10.73538 36.494762,10.11382 34.51138,9.13075 32.202264,9.50823 30.063573,9.36171 22.019563,9.34057 13.971808,9.23982 5.930238,9.4697 4.247551,9.52117 2.061367,9.74531 1.291134,11.49417 c -0.682107,2.6627 -0.37748,5.45735 -0.46467,8.18069 0.080658,2.82901 -0.202804,5.71611 0.421771,8.49628 0.655233,1.84726 2.893842,2.0042 4.558802,2.11114 8.176545,0.4213 16.369453,0.15886 24.551012,0.03302 2.04628,-0.14679 4.225389,0.10711 6.163249,-0.66447 z M 4.297406,28.9474 c -0.939032,0.02717 -2.493051,-2.1182 -0.727168,-0.88447 1.706475,0.99084 3.797167,0.59334 5.679761,0.73138 0.843628,0.09701 3.276883,-0.14441 3.328971,0.24148 -2.712643,0.43249 -5.596207,0.56419 -8.281564,-0.08839 z m 31.24001,-17.1062 c -1.499147,-0.78086 -3.308903,-0.4003 -4.94344,-0.53994 -1.173066,-0.10336 -4.022293,-0.01807 -4.347208,-0.50636 2.904245,-0.07023 5.874879,-0.31161 8.734279,0.31742 0.913242,-0.14345 1.834744,2.01352 0.556369,0.72888 z"
         id="path49494"
         inkscape:connector-curvature="0" />
      <path
         style="font-style:normal;font-variant:normal;font-weight:normal;font-stretch:normal;font-size:4.94612217px;font-family:Insaniburger;-inkscape-font-specification:Insaniburger;opacity:1;vector-effect:none;fill:#000000;fill-opacity:1;stroke:none;stroke-width:0.05796236;stroke-linecap:butt;stroke-linejoin:miter;stroke-miterlimit:4;stroke-dasharray:none;stroke-dashoffset:0;stroke-opacity:1"
         d="m 12.410791,25.265141 c -0.05701,0.872755 0.123215,1.820584 -0.108343,2.639552 -0.960994,0.542835 -0.748477,-0.973149 -0.758398,-1.655827 0.202716,-0.971569 -0.226454,-0.939469 -0.766059,-1.222063 -0.09112,-0.986296 0.989838,-0.488485 1.485307,-0.609089 0.749899,-0.415828 1.400812,0.939212 0.341691,0.847427 -0.06473,0 -0.129466,0 -0.194198,0 z m 3.307185,1.774803 c -0.09899,1.496696 -2.573256,1.305934 -2.328819,-0.301861 0.05476,-0.728171 -0.120075,-1.529894 0.108343,-2.204447 0.960994,-0.542836 0.748477,0.973149 0.758398,1.655827 -0.311338,1.081753 0.857243,1.249661 0.595337,0.0922 0.07573,-0.658722 -0.299342,-2.04907 0.62297,-1.834966 0.46534,0.458978 0.152034,1.377871 0.243771,2.044629 0,0.182873 0,0.365748 0,0.548621 z m 1.52774,-0.223849 c 1.325624,0.05757 1.18437,-2.730335 -0.142869,-2.387722 -0.644464,-0.134033 -1.39357,0.08186 -1.165997,1.067408 0.05698,0.794002 -0.123312,1.663448 0.108342,2.403582 1.135945,0.787047 0.337137,-1.424249 1.171611,-1.083268 z m -0.192609,-1.673537 c 1.080235,0.385492 -0.661675,1.500659 -0.249516,0.116437 -0.07042,-0.220152 0.171184,-0.07357 0.249516,-0.116437 z m 2.197494,2.409041 c -0.52598,1.251734 -1.104303,-0.307077 -0.866741,-1.106822 0.09149,-0.651535 -0.221547,-1.554237 0.24377,-1.998083 0.924337,-0.21333 0.546092,1.182805 0.622971,1.843389 0,0.420505 0,0.84101 0,1.261516 z m 1.84073,-2.286458 c -0.05701,0.872755 0.123215,1.820584 -0.108343,2.639552 -0.960994,0.542835 -0.748477,-0.973149 -0.758398,-1.655827 0.202717,-0.971569 -0.226453,-0.939469 -0.766058,-1.222063 -0.09112,-0.986296 0.989837,-0.488485 1.485305,-0.609089 0.749901,-0.415828 1.400813,0.939212 0.341692,0.847427 -0.06473,0 -0.129465,0 -0.194198,0 z m 3.307185,1.774803 c -0.09899,1.496696 -2.573256,1.305934 -2.328818,-0.301861 0.05476,-0.728171 -0.120075,-1.529894 0.108342,-2.204447 0.960994,-0.542836 0.748477,0.973149 0.758398,1.655827 -0.311339,1.081753 0.857243,1.249661 0.595338,0.0922 0.07572,-0.658722 -0.299342,-2.04907 0.622969,-1.834966 0.465341,0.458978 0.152035,1.377871 0.243771,2.044629 0,0.182873 0,0.365748 0,0.548621 z m 2.525805,-0.09061 c 0.03534,1.298764 -1.160993,1.053744 -1.873561,1.065946 -0.741923,-0.136824 -0.323508,-1.323995 -0.433371,-1.97299 0.01037,-0.658249 -0.189451,-1.848494 0.681299,-1.624581 0.859831,-0.308774 2.162627,0.67275 1.16162,1.641559 0.28669,0.147234 0.479482,0.510156 0.464013,0.890066 z m -0.866741,-0.05863 c -0.263213,-1.185496 -1.037664,0.384323 -0.325522,0.389071 0.187415,0.03479 0.349237,-0.161562 0.325522,-0.389071 z m -0.06129,-1.401721 c -0.377728,-1.204239 -0.923133,0.836494 -0.06894,0.259825 l 0.05171,-0.10826 z m 2.598034,2.526295 c 1.089784,-0.787744 -0.638092,-0.675927 -0.617223,-1.149289 0.09475,-0.286101 1.544868,-0.445578 0.529674,-1.08387 -0.672395,0.337877 -0.734829,-0.830943 -0.03382,-0.516985 1.039891,-0.235357 0.0066,-1.198611 -0.622413,-0.847427 -0.859467,-0.253587 -0.768624,0.875944 -0.740182,1.570508 0.09149,0.651535 -0.221547,1.554236 0.24377,1.998083 0.410116,0.05966 0.827527,0.01535 1.240194,0.02898 z"
         id="text49550"
         inkscape:connector-curvature="0" />
      <g
         id="g16798"
         transform="matrix(0.18646615,0,0,0.17477205,30.894537,-4.0608331)">
        <path
           style="fill:#000005;fill-opacity:1;stroke-width:0.55967355"
           d="m -63.356338,86.683079 c -9.874279,0.20633 -22.300301,5.195348 -24.289917,16.007321 -2.168816,9.38617 16.582128,14.56277 5.927037,22.9884 -8.68926,4.95773 -6.835656,17.53827 1.28174,22.04121 13.85988,10.19372 34.882883,4.74141 43.568825,-9.64199 6.307492,-7.01342 3.09489,-17.89267 10.641114,-23.97674 2.463966,-4.7998 12.829179,-12.1707 8.877144,-16.855161 -7.599313,2.298305 -15.91087,17.073671 -19.946359,3.532341 -5.850096,-8.400878 -15.747732,-14.032593 -26.059584,-14.095381 z m 4.560445,10.802959 c 10.122006,2.812302 -4.753004,12.779612 -3.261741,2.35473 0.483508,-1.363419 1.866321,-2.234835 3.261741,-2.35473 z m -15.621785,4.598682 c 9.863404,3.00815 -4.865571,12.47548 -3.548232,2.5642 0.798309,-1.21437 1.947566,-2.55665 3.548232,-2.5642 z m 29.046288,5.08238 c 9.734204,2.80242 -4.411794,12.63796 -3.446785,2.33949 0.664422,-1.26017 1.929537,-2.39177 3.446785,-2.33949 z m -27.491861,24.95558 c 10.430142,2.81043 -4.670502,12.59468 -3.479806,2.47791 0.773822,-1.21256 1.97216,-2.34358 3.479806,-2.47791 z"
           id="path59299"
           inkscape:connector-curvature="0" />
        <path
           style="fill:#ffffff;fill-opacity:1;stroke:#ffffff;stroke-width:0.55967355;stroke-opacity:1"
           d="m -52.62579,142.87503 c 10.625922,-2.16342 4.562437,-18.88424 -3.99139,-12.36609 -2.70081,5.20001 -9.954547,16.49376 3.99139,12.36609 z"
           id="path59283"
           inkscape:connector-curvature="0" />
        <path
           style="fill:#ffffff;fill-opacity:1;stroke-width:0.55967355"
           d="m -37.66806,124.75342 c 6.420327,-7.65525 13.607006,-14.90345 18.556655,-23.61723 -6.79331,1.55739 -13.197892,10.39767 -19.460998,15.03705 -3.863258,4.35037 -16.481703,11.24747 -6.238257,15.83028 2.683022,-2.08016 4.82603,-4.78751 7.1426,-7.2501 z"
           id="path59281"
           inkscape:connector-curvature="0" />
      </g>
    </g>
  </g>
</svg>
