<?xml version="1.0" encoding="UTF-8" standalone="no"?>
<!-- Created with Inkscape (http://www.inkscape.org/) -->

<svg
   xmlns:dc="http://purl.org/dc/elements/1.1/"
   xmlns:cc="http://creativecommons.org/ns#"
   xmlns:rdf="http://www.w3.org/1999/02/22-rdf-syntax-ns#"
   xmlns:svg="http://www.w3.org/2000/svg"
   xmlns="http://www.w3.org/2000/svg"
   xmlns:sodipodi="http://sodipodi.sourceforge.net/DTD/sodipodi-0.dtd"
   xmlns:inkscape="http://www.inkscape.org/namespaces/inkscape"
   width="150"
   height="150"
   viewBox="0 0 39.6875 39.6875"
   version="1.1"
   id="svg922"
   inkscape:version="0.92.4 (5da689c313, 2019-01-14)"
   sodipodi:docname="USO_internet_sylpheed.svg">
  <title
     id="title1437">USOICON</title>
  <defs
     id="defs916">
    <clipPath
       id="clipPath1521"
       clipPathUnits="userSpaceOnUse">
      <rect
         y="66.644836"
         x="57.114269"
         height="151.42299"
         width="172.87534"
         id="rect1523"
         style="opacity:0.875;fill:#000000;fill-opacity:1;stroke:#000000;stroke-width:0.60403091;stroke-linejoin:round;stroke-miterlimit:4;stroke-dasharray:none;stroke-opacity:1" />
    </clipPath>
  </defs>
  <sodipodi:namedview
     id="base"
     pagecolor="#ffffff"
     bordercolor="#666666"
     borderopacity="1.0"
     inkscape:pageopacity="0.0"
     inkscape:pageshadow="2"
     inkscape:zoom="1.277192"
     inkscape:cx="75.503705"
     inkscape:cy="62.007874"
     inkscape:document-units="px"
     inkscape:current-layer="layer9"
     showgrid="false"
     inkscape:window-width="720"
     inkscape:window-height="415"
     inkscape:window-x="2543"
     inkscape:window-y="72"
     inkscape:window-maximized="0"
     units="px" />
  <metadata
     id="metadata919">
    <rdf:RDF>
      <cc:Work
         rdf:about="">
        <dc:format>image/svg+xml</dc:format>
        <dc:type
           rdf:resource="http://purl.org/dc/dcmitype/StillImage" />
        <dc:title>USOICON</dc:title>
        <cc:license
           rdf:resource="http://creativecommons.org/licenses/by-sa/4.0/" />
      </cc:Work>
      <cc:License
         rdf:about="http://creativecommons.org/licenses/by-sa/4.0/">
        <cc:permits
           rdf:resource="http://creativecommons.org/ns#Reproduction" />
        <cc:permits
           rdf:resource="http://creativecommons.org/ns#Distribution" />
        <cc:requires
           rdf:resource="http://creativecommons.org/ns#Notice" />
        <cc:requires
           rdf:resource="http://creativecommons.org/ns#Attribution" />
        <cc:permits
           rdf:resource="http://creativecommons.org/ns#DerivativeWorks" />
        <cc:requires
           rdf:resource="http://creativecommons.org/ns#ShareAlike" />
      </cc:License>
    </rdf:RDF>
  </metadata>
  <g
     style="display:inline"
     transform="translate(-35.46637,-112.59198)"
     id="layer1"
     inkscape:groupmode="layer"
     inkscape:label="toonbox" />
  <g
     inkscape:label="text"
     id="layer3"
     inkscape:groupmode="layer" />
  <g
     style="display:inline"
     inkscape:label="icon_internet"
     id="layer9"
     inkscape:groupmode="layer">
    <g
       id="g4164">
      <path
         style="display:inline;opacity:0.875;fill:#999999;fill-opacity:1;stroke:none;stroke-width:0.11845408;stroke-linejoin:round;stroke-miterlimit:4;stroke-dasharray:none;stroke-opacity:0.97175137"
         d="M 1.435191,10.12791 C 2.670256,9.29705 4.324329,9.43582 5.75553,9.20511 14.11545,8.61268 22.517162,8.68995 30.881762,9.1576 c 2.392119,0.20608 4.838324,0.26932 7.150425,0.97031 0.872353,1.67498 0.817461,3.66984 1.026746,5.51683 0.208491,4.02511 0.362445,8.13136 -0.532305,12.08777 -0.230317,1.64927 -2.017724,2.0517 -3.40708,2.25864 C 28.802681,30.85612 22.40423,30.81147 16.04062,30.81293 11.303807,30.71862 6.537542,30.74635 1.839737,30.07418 0.173005,29.52829 0.822947,27.03924 0.434179,25.65651 0.154966,21.09087 0.021365,16.47217 0.692557,11.93449 0.848231,11.32021 0.903907,10.54918 1.435191,10.12791 Z"
         id="rect49496"
         inkscape:connector-curvature="0" />
      <path
         style="display:inline;fill:#000000;stroke-width:0.37203047"
         d="M 1.803349,30.70864 C 0.056742,30.0892 0.231437,27.93756 0.087588,26.427 -0.022935,21.93179 -0.070132,17.42779 0.099217,12.93387 -0.027874,11.27811 1.27784,10.0868 2.683582,9.49431 4.615709,8.56731 6.836395,8.9315 8.909365,8.7639 16.59615,8.63948 24.285544,8.62691 31.972812,8.67993 c 2.150882,0.14121 4.537543,-0.0199 6.403551,1.23592 1.58486,1.37874 1.255708,3.71898 1.302004,5.60595 -0.178243,4.07095 0.01584,8.16305 -0.388876,12.21995 -0.293352,1.71142 -2.120394,2.65314 -3.654582,3.02944 -6.368162,0.39372 -12.757085,0.28816 -19.135233,0.3134 C 11.668868,31.0283 6.826658,31.10952 2.006621,30.75364 L 1.803349,30.7086 Z m 34.717949,-1.05781 c 1.660436,-0.66982 2.120657,-2.56797 2.182495,-4.18169 C 38.903556,21.6571 38.926032,17.82461 38.6784,14.01451 38.609934,12.47205 38.055319,10.73538 36.494762,10.11382 34.51138,9.13075 32.202264,9.50823 30.063573,9.36171 22.019563,9.34057 13.971808,9.23982 5.930238,9.4697 4.247551,9.52117 2.061367,9.74531 1.291134,11.49417 c -0.682107,2.6627 -0.37748,5.45735 -0.46467,8.18069 0.080658,2.82901 -0.202804,5.71611 0.421771,8.49628 0.655233,1.84726 2.893842,2.0042 4.558802,2.11114 8.176545,0.4213 16.369453,0.15886 24.551012,0.03302 2.04628,-0.14679 4.225389,0.10711 6.163249,-0.66447 z M 4.297406,28.9474 c -0.939032,0.02717 -2.493051,-2.1182 -0.727168,-0.88447 1.706475,0.99084 3.797167,0.59334 5.679761,0.73138 0.843628,0.09701 3.276883,-0.14441 3.328971,0.24148 -2.712643,0.43249 -5.596207,0.56419 -8.281564,-0.08839 z m 31.24001,-17.1062 c -1.499147,-0.78086 -3.308903,-0.4003 -4.94344,-0.53994 -1.173066,-0.10336 -4.022293,-0.01807 -4.347208,-0.50636 2.904245,-0.07023 5.874879,-0.31161 8.734279,0.31742 0.913242,-0.14345 1.834744,2.01352 0.556369,0.72888 z"
         id="path49494"
         inkscape:connector-curvature="0" />
      <path
         style="font-style:normal;font-variant:normal;font-weight:normal;font-stretch:normal;font-size:4.94612217px;font-family:Insaniburger;-inkscape-font-specification:Insaniburger;opacity:1;vector-effect:none;fill:#000000;fill-opacity:1;stroke:none;stroke-width:0.05796236;stroke-linecap:butt;stroke-linejoin:miter;stroke-miterlimit:4;stroke-dasharray:none;stroke-dashoffset:0;stroke-opacity:1"
         d="m 11.612996,28.025944 c -0.897498,0.52993 -1.8053933,-1.558493 -0.536241,-1.015314 1.397307,0.440818 0.377594,-0.716038 -0.32284,-0.898726 -1.1737343,-1.660868 2.155255,-2.616389 1.647027,-0.821446 -0.624541,-0.249817 -1.676303,0.04711 -0.496844,0.54763 1.122855,0.240524 0.785984,2.298941 -0.291102,2.187856 z m 2.538937,-2.462338 c 0.24308,-1.007699 1.86977,-1.593303 1.166743,-0.06959 -0.323802,0.595933 -0.905614,1.085277 -0.742128,1.882521 -0.144796,1.358389 -1.215848,0.212676 -0.86674,-0.704341 -0.306658,-0.588812 -0.789949,-1.069807 -0.954291,-1.745488 0.326037,-1.2545 1.102703,0.136755 1.396416,0.636902 z m 3.127708,2.451679 c -0.512243,-0.118117 -1.495733,0.357784 -1.545249,-0.564307 0.01722,-0.923341 -0.03502,-1.853512 0.02708,-2.77244 0.839116,-0.896527 0.932883,0.694164 0.839656,1.410305 -0.06156,0.702945 -0.06924,1.340283 0.66114,1.079015 0.387501,-0.05324 0.397493,0.871305 0.01737,0.847427 z m 1.799145,-1.19919 c 1.325624,0.05757 1.18437,-2.730335 -0.142869,-2.387722 -0.644465,-0.134033 -1.39357,0.08186 -1.165997,1.067408 0.05698,0.794002 -0.123312,1.663448 0.108342,2.403582 1.135945,0.787047 0.337137,-1.424249 1.171611,-1.083268 z m -0.192609,-1.673537 c 1.080235,0.385492 -0.661675,1.500659 -0.249517,0.116437 -0.07042,-0.220152 0.171185,-0.07357 0.249517,-0.116437 z m 3.221824,-0.724844 c 0.741923,0.136824 0.323508,1.323995 0.43337,1.97299 0.104733,0.710387 -0.02259,2.252575 -0.839656,1.363757 -0.045,-0.624928 0.142352,-1.414629 -0.618044,-1.119577 0.324045,0.857336 -0.600947,2.122724 -0.866741,0.816094 0.01722,-0.923341 -0.03502,-1.853512 0.02709,-2.77244 1.01209,-1.108876 0.612795,1.079841 1.087582,1.103588 0.822732,0.291066 -0.149124,-1.502182 0.776403,-1.364412 z m 2.13621,3.597571 c 1.089783,-0.787744 -0.638094,-0.675927 -0.617225,-1.149289 0.09475,-0.286101 1.544869,-0.445578 0.529675,-1.08387 -0.672395,0.337877 -0.734829,-0.830943 -0.03382,-0.516985 1.03989,-0.235357 0.0066,-1.198611 -0.622413,-0.847427 -0.859467,-0.253587 -0.768623,0.875944 -0.740183,1.570508 0.09149,0.651535 -0.221546,1.554236 0.243771,1.998083 0.410116,0.05966 0.827527,0.01535 1.240195,0.02898 z m 2.039904,0 c 1.089783,-0.787744 -0.638093,-0.675927 -0.617225,-1.149289 0.09475,-0.286101 1.544869,-0.445578 0.529675,-1.08387 -0.672395,0.337877 -0.734829,-0.830943 -0.03382,-0.516985 1.03989,-0.235357 0.0066,-1.198611 -0.622413,-0.847427 -0.859467,-0.253587 -0.768624,0.875944 -0.740184,1.570508 0.09149,0.651535 -0.221545,1.554236 0.243772,1.998083 0.410115,0.05966 0.827527,0.01535 1.240194,0.02898 z m 1.869184,0 c -0.552927,0.01537 -1.516621,0.173422 -1.313244,-0.866168 0.05821,-0.864363 -0.125038,-1.805092 0.108343,-2.615481 0.753888,-0.244972 1.907306,-0.272018 2.202966,0.859419 0.35243,0.976701 0.0022,2.516016 -0.998065,2.62223 z m 0.330499,-1.830764 c -0.09402,-1.532687 -1.131309,-1.089496 -0.777002,0.165479 -0.329795,1.413575 0.801791,1.06446 0.777002,-0.165479 z"
         id="text49550"
         inkscape:connector-curvature="0" />
      <g
         id="g54240"
         transform="matrix(0.24562229,0,0,0.24186217,34.917034,-33.749499)">
        <path
           style="fill:#cbcbcb;fill-opacity:1;stroke-width:0.51272714"
           d="m -70.218567,235.17822 c -12.862837,-3.37294 -22.146947,-16.9426 -19.892899,-30.19854 1.688093,-14.0586 15.885809,-24.83833 29.891373,-22.99407 14.099424,0.8715 26.133071,14.67954 24.479911,28.85743 -0.402665,14.62378 -14.991058,26.80176 -29.463762,24.94656 -1.681818,-0.0827 -3.375866,-0.19674 -5.014623,-0.61138 z"
           id="path54193"
           inkscape:connector-curvature="0" />
        <path
           style="fill:#000000;fill-opacity:1;stroke-width:0.51272714"
           d="m -68.146067,228.07933 c 1.470528,-3.72107 4.77959,-6.4705 5.104901,-10.34151 -1.439345,-4.2219 -14.349032,-9.09597 -12.782087,-1.63123 5.124665,3.81778 1.691695,12.1514 5.912533,15.36428 0.05995,-1.31926 0.770982,-2.5505 1.764653,-3.39154 z"
           id="path54191"
           inkscape:connector-curvature="0" />
        <path
           style="fill:#000000;fill-opacity:1;stroke-width:0.51272714"
           d="m -48.847606,224.70851 c 2.86438,-3.57631 3.228577,-10.50306 4.57644,-14.07082 -4.491468,-0.0116 -5.053504,-8.16525 -0.61116,-3.19763 4.710403,3.53409 -1.039291,-6.81819 4.479531,-1.89099 5.313001,5.73787 1.283188,-6.86306 -0.4997,-8.88354 -1.706281,-4.69221 -5.768384,-6.3154 -9.927866,-4.87703 -3.642316,-4.38542 -6.542548,7.2949 -3.151819,1.39543 6.088595,-0.63837 1.465629,5.46747 -2.315691,5.43788 -3.321169,2.77965 -1.601068,4.11104 1.03286,0.89995 2.579905,3.69837 7.418376,-1.68097 8.627862,1.71094 -1.67634,6.7895 -10.054964,0.79241 -14.228188,5.20654 -4.912207,7.91667 10.052866,3.94578 8.183017,11.8621 0.554077,1.69683 0.866763,8.41181 3.834714,6.40717 z"
           id="path54189"
           inkscape:connector-curvature="0" />
        <path
           style="fill:#000000;fill-opacity:1;stroke-width:0.51272714"
           d="m -79.787677,209.37505 c -1.905053,-4.05621 6.04785,-1.90569 6.459076,-6.41382 2.177539,-1.47186 5.294288,-8.91296 0.57912,-6.05261 -0.06466,6.31432 -8.590587,-2.62897 -3.07858,-4.69815 -6.184998,-3.50321 -11.886093,5.85384 -10.75832,11.70703 2.259719,1.91776 3.980124,7.8008 7.322628,6.05908 z"
           id="path54187"
           inkscape:connector-curvature="0" />
        <path
           style="fill:#cbcbcb;fill-opacity:1;stroke-width:0.51272714"
           d="m -58.355813,197.45702 c -1.296964,-1.99326 -1.422422,1.07058 0,0 z"
           id="path54185"
           inkscape:connector-curvature="0" />
        <path
           style="fill:#000000;fill-opacity:1;stroke-width:0.51272714"
           d="m -61.012137,191.00686 c 6.737387,-2.64092 -0.738329,-11.02485 -3.669517,-4.47734 1.166941,2.1812 -2.315061,10.79008 2.403268,5.5982 l 0.620097,-0.54445 z"
           id="path54183"
           inkscape:connector-curvature="0" />
        <path
           style="fill:#cbcbcb;fill-opacity:1;stroke-width:0.51272714"
           d="m -70.218567,190.29113 c -2.411731,-9.1819 -0.656215,7.68451 0,0 z"
           id="path54156"
           inkscape:connector-curvature="0" />
        <path
           style="fill:#000000;fill-opacity:1;stroke-width:0.51272714"
           d="m -69.702797,234.58781 c -12.896189,-3.23592 -22.45669,-17.00854 -19.65614,-30.29117 -0.203782,-2.99828 2.279054,-6.42173 2.24444,-1.39984 -0.03898,3.09592 1.420455,6.12879 3.25573,4.77333 0.966106,4.85189 8.348088,3.6916 7.577901,9.79148 6.214632,3.23851 0.531542,13.4232 6.991639,14.97256 1.414135,-5.15254 5.518999,-9.09451 6.807237,-13.84206 -0.898195,-7.48961 -10.920417,-5.2796 -15.650267,-8.48185 -4.350336,-4.37696 4.24357,-0.61823 4.02863,-5.10066 2.895821,-2.06038 8.075619,-11.70637 1.018394,-8.8412 -0.05635,5.95934 -6.945323,-2.1054 -1.546634,-3.67618 1.417549,-4.16012 -10.1198,-0.65642 -9.321072,0.22968 1.536992,-1.78295 7.113194,-8.63483 6.626892,-3.84943 3.863868,-3.17829 5.281869,0.61351 6.246319,4.35741 3.611153,-2.39103 -0.834511,-7.05715 -1.793572,-8.64525 2.613649,-1.81707 13.032563,-4.17628 7.644271,1.65688 1.023297,2.59874 -1.474992,6.70293 0.964485,8.10624 4.471629,-2.08982 9.385238,-7.72574 4.849497,-11.42493 5.579789,0.0853 12.53602,3.49902 15.102531,7.59434 -3.535438,-0.0902 -6.424902,1.02254 -9.508291,0.12767 -5.008363,2.48272 -1.262317,7.37654 1.657859,3.4753 0.829205,4.08332 -6.082455,3.20052 -7.631683,2.34805 0.97158,1.66704 0.815457,5.66618 2.295898,6.36381 1.929106,-4.49525 6.747689,0.32468 9.844132,-2.05582 -1.598713,7.56413 -11.87996,-1.05277 -14.583875,6.5064 -2.400834,8.08742 11.284136,3.57961 8.804021,12.38552 0.291315,3.65908 4.783828,9.28076 6.425628,3.06587 2.293319,-3.6821 2.435243,-8.93687 3.569648,-12.37305 -3.072102,-0.5377 -5.72069,-5.42345 -1.196896,-1.83085 5.437259,2.86179 0.509073,-6.66089 4.848057,-1.41882 7.323717,2.56995 1.577609,12.1395 -1.083219,16.74602 -6.223517,9.08123 -18.188526,13.5647 -28.83156,10.73055 z"
           id="path54175"
           inkscape:connector-curvature="0" />
        <path
           style="fill:#cbcbcb;fill-opacity:1;stroke-width:0.51272714"
           d="m -42.673768,192.45736 c -2.262572,-2.97887 3.560552,3.49723 0,0 z"
           id="path54154"
           inkscape:connector-curvature="0" />
        <path
           style="fill:#fffffb;fill-opacity:1;stroke-width:0.51272714"
           d="m -67.639707,234.41169 c -2.885131,-3.5202 3.518245,-8.34978 4.06691,-12.07886 6.634033,-6.19112 -5.865837,-12.72229 -11.835072,-11.45014 -3.845502,-0.22462 -4.165174,-4.86862 -0.322743,-2.06695 2.233486,-3.80378 12.576731,-13.56778 3.058384,-14.06609 -0.679378,2.12812 -3.822614,3.74533 -2.966129,0.38819 3.465101,-2.73349 3.002768,-5.74838 -2.01013,-5.10156 -5.04478,0.0341 -0.388739,-2.03811 1.921905,-0.67352 3.819284,-3.15693 3.991132,9.48968 6.93421,2.52816 -0.6616,-4.27752 -3.020914,-10.70209 4.247295,-8.31138 -2.989321,3.24551 -2.616439,16.51934 3.353689,9.51775 3.311163,-1.94084 6.187427,-6.26736 2.939792,-9.63218 3.700099,0.62068 11.186467,3.31476 11.492261,6.06148 -3.167477,3.26615 -6.948186,-3.1377 -9.212427,2.46356 -3.696814,1.91659 2.579643,7.46394 -2.697952,3.43222 -5.404993,1.13965 3.406554,9.18191 -3.388463,10.28162 -3.967169,6.32093 3.364064,7.76972 7.309161,9.29014 0.535365,4.05315 2.072714,15.17266 7.98131,9.4393 2.981639,-4.90243 1.840043,-11.50991 5.835799,-15.9998 7.275421,0.44662 2.400203,11.72182 -0.839637,15.61521 -5.809953,7.90767 -16.171507,12.26994 -25.868163,10.36285 z"
           id="path54167"
           inkscape:connector-curvature="0" />
        <path
           style="fill:#ffffff;fill-opacity:1;stroke-width:0.51272714"
           d="m -73.436247,232.64342 c -10.999955,-4.38011 -18.094185,-17.40958 -14.985344,-28.91287 1.361744,7.85318 11.882619,6.88113 12.035033,14.8961 4.164902,3.21377 3.334423,13.82786 5.094233,14.8697 l -0.980302,-0.385 -1.16362,-0.46796 z"
           id="path54165"
           inkscape:connector-curvature="0" />
        <path
           style="fill:#cbcbcb;fill-opacity:1;stroke-width:0.51272714"
           d="m -54.874351,202.92342 c -4.157463,-2.04926 2.940749,-1.86935 1.043094,0.17239 z"
           id="path54163"
           inkscape:connector-curvature="0" />
        <path
           style="fill:#cbcbcb;fill-opacity:1;stroke-width:0.51272714"
           d="m -51.263947,202.95092 c 2.359267,-0.59778 1.804997,0.57205 0,0 z"
           id="path54152"
           inkscape:connector-curvature="0" />
      </g>
    </g>
  </g>
</svg>
