<?xml version="1.0" encoding="UTF-8" standalone="no"?>
<!-- Created with Inkscape (http://www.inkscape.org/) -->

<svg
   xmlns:dc="http://purl.org/dc/elements/1.1/"
   xmlns:cc="http://creativecommons.org/ns#"
   xmlns:rdf="http://www.w3.org/1999/02/22-rdf-syntax-ns#"
   xmlns:svg="http://www.w3.org/2000/svg"
   xmlns="http://www.w3.org/2000/svg"
   xmlns:sodipodi="http://sodipodi.sourceforge.net/DTD/sodipodi-0.dtd"
   xmlns:inkscape="http://www.inkscape.org/namespaces/inkscape"
   width="150"
   height="150"
   viewBox="0 0 39.6875 39.6875"
   version="1.1"
   id="svg922"
   inkscape:version="0.92.4 (5da689c313, 2019-01-14)"
   sodipodi:docname="USO_server_webmin.svg">
  <title
     id="title1437">USOICON</title>
  <defs
     id="defs916">
    <clipPath
       id="clipPath1521"
       clipPathUnits="userSpaceOnUse">
      <rect
         y="66.644836"
         x="57.114269"
         height="151.42299"
         width="172.87534"
         id="rect1523"
         style="opacity:0.875;fill:#000000;fill-opacity:1;stroke:#000000;stroke-width:0.60403091;stroke-linejoin:round;stroke-miterlimit:4;stroke-dasharray:none;stroke-opacity:1" />
    </clipPath>
  </defs>
  <sodipodi:namedview
     id="base"
     pagecolor="#ffffff"
     bordercolor="#666666"
     borderopacity="1.0"
     inkscape:pageopacity="0.0"
     inkscape:pageshadow="2"
     inkscape:zoom="1.598832"
     inkscape:cx="85.442377"
     inkscape:cy="106.55873"
     inkscape:document-units="px"
     inkscape:current-layer="layer12"
     showgrid="false"
     inkscape:window-width="771"
     inkscape:window-height="589"
     inkscape:window-x="2749"
     inkscape:window-y="130"
     inkscape:window-maximized="0"
     units="px" />
  <metadata
     id="metadata919">
    <rdf:RDF>
      <cc:Work
         rdf:about="">
        <dc:format>image/svg+xml</dc:format>
        <dc:type
           rdf:resource="http://purl.org/dc/dcmitype/StillImage" />
        <dc:title>USOICON</dc:title>
        <cc:license
           rdf:resource="http://creativecommons.org/licenses/by-sa/4.0/" />
      </cc:Work>
      <cc:License
         rdf:about="http://creativecommons.org/licenses/by-sa/4.0/">
        <cc:permits
           rdf:resource="http://creativecommons.org/ns#Reproduction" />
        <cc:permits
           rdf:resource="http://creativecommons.org/ns#Distribution" />
        <cc:requires
           rdf:resource="http://creativecommons.org/ns#Notice" />
        <cc:requires
           rdf:resource="http://creativecommons.org/ns#Attribution" />
        <cc:permits
           rdf:resource="http://creativecommons.org/ns#DerivativeWorks" />
        <cc:requires
           rdf:resource="http://creativecommons.org/ns#ShareAlike" />
      </cc:License>
    </rdf:RDF>
  </metadata>
  <g
     style="display:inline"
     transform="translate(-35.46637,-112.59198)"
     id="layer1"
     inkscape:groupmode="layer"
     inkscape:label="toonbox">
    <path
       inkscape:connector-curvature="0"
       id="path49494"
       d="m 37.269718,143.30062 c -1.641726,-0.64434 -1.803348,-1.59457 -1.803348,-10.60246 0,-8.6181 0,-8.6181 1.184803,-9.66955 0.651642,-0.57829 1.906815,-1.21394 2.789275,-1.41254 1.014238,-0.22826 7.228924,-0.36098 16.893825,-0.36076 20.576488,3.7e-4 18.888124,-0.98916 18.718084,10.97136 -0.122927,8.64687 -0.122927,8.64687 -1.155993,9.6823 -0.568185,0.56949 -1.705467,1.20373 -2.527298,1.40941 -1.972575,0.49371 -32.837149,0.47762 -34.099348,-0.0178 z m 34.717949,-1.05781 c 2.057419,-1.09405 2.321925,-2.20712 2.321925,-9.77101 0,-7.72677 -0.261904,-8.73763 -2.557796,-9.87221 -1.306397,-0.6456 -2.051043,-0.67602 -16.574417,-0.67722 -12.68509,-0.001 -15.404566,0.0817 -16.40064,0.49925 -2.429502,1.01833 -2.483917,1.2385 -2.483917,10.05018 0,8.63256 0.07681,8.98184 2.190626,9.96194 1.290086,0.59816 7.836312,0.78195 20.969628,0.58874 10.114957,-0.14881 11.511591,-0.23568 12.534591,-0.77967 z m -32.223892,-0.70343 c -0.704624,-0.24864 -1.401002,-0.70525 -1.547504,-1.0147 -0.218464,-0.46145 -0.07094,-0.43803 0.820336,0.13023 0.940358,0.59955 1.705219,0.69805 5.679761,0.73138 3.569034,0.0299 4.224546,0.1003 2.940161,0.31564 -2.52326,0.42304 -6.463123,0.3419 -7.892754,-0.16255 z m 31.24001,-17.1062 c -0.376607,-0.36781 -1.414169,-0.50758 -3.872935,-0.52171 -1.847182,-0.0106 -4.102321,-0.14401 -5.01142,-0.29643 -1.299481,-0.21787 -0.707245,-0.28535 2.769834,-0.31564 4.414966,-0.0385 6.277427,0.2894 6.698657,1.17915 0.282918,0.5976 0.05617,0.57999 -0.584136,-0.0454 z"
       style="fill:#000000;stroke-width:0.37203047" />
  </g>
  <g
     inkscape:label="text"
     id="layer3"
     inkscape:groupmode="layer" />
  <g
     style="display:inline"
     inkscape:label="icon_server"
     id="layer12"
     inkscape:groupmode="layer">
    <g
       id="g4459">
      <path
         style="display:inline;opacity:0.875;fill:#999999;fill-opacity:1;stroke:none;stroke-width:0.11845408;stroke-linejoin:round;stroke-miterlimit:4;stroke-dasharray:none;stroke-opacity:0.97175137"
         d="M 1.435191,10.12791 C 2.670256,9.29705 4.324329,9.43582 5.75553,9.20511 14.004544,8.61678 22.29426,8.69317 30.548916,9.13632 c 2.502755,0.20976 5.062643,0.26506 7.483271,0.99159 0.850353,1.61288 0.806269,3.53749 1.012673,5.32026 0.223197,4.08933 0.38886,8.26339 -0.518232,12.28434 -0.230317,1.64927 -2.017724,2.0517 -3.40708,2.25864 C 28.868382,30.8481 22.536755,30.80929 16.239135,30.8146 11.436301,30.72149 6.603394,30.75327 1.839737,30.07418 0.210447,29.57489 0.822153,27.17281 0.448636,25.84025 0.154343,21.21449 0.013551,16.53295 0.692557,11.93449 0.848231,11.32021 0.903907,10.54918 1.435191,10.12791 Z"
         id="rect49496"
         inkscape:connector-curvature="0" />
      <path
         style="font-style:normal;font-variant:normal;font-weight:normal;font-stretch:normal;font-size:4.94612217px;font-family:Insaniburger;-inkscape-font-specification:Insaniburger;opacity:1;vector-effect:none;fill:#000000;fill-opacity:1;stroke:none;stroke-width:0.05796236;stroke-linecap:butt;stroke-linejoin:miter;stroke-miterlimit:4;stroke-dasharray:none;stroke-dashoffset:0;stroke-opacity:1"
         d="m 14.726478,28.025944 c -0.571287,-0.199895 -0.626103,-1.721647 -0.930215,-0.378411 -0.63271,1.082274 -1.023245,-0.5779 -1.152402,-1.222552 -0.138713,-0.655445 -0.79688,-2.088217 0.231353,-1.996442 0.425473,0.08716 0.395127,1.950557 0.672779,1.31344 0.265958,-1.483962 1.099773,0.220527 1.174314,0.08145 0.06063,-0.707098 0.670059,-2.168098 1.120427,-0.931373 -0.159549,0.940214 -0.469349,1.834924 -0.69383,2.755473 -0.06759,0.206333 -0.234151,0.385077 -0.422426,0.378411 z m 2.786265,-0.01066 c 1.085261,-0.779408 -0.627595,-0.686289 -0.617225,-1.14397 0.08679,-0.298307 1.547557,-0.446099 0.529675,-1.089189 -0.663144,0.335012 -0.739645,-0.820515 -0.04256,-0.516985 1.043082,-0.210973 0.03482,-1.20337 -0.600574,-0.847427 -0.858808,-0.260582 -0.788283,0.850655 -0.753286,1.551009 0.0535,0.637113 -0.118438,1.3471 0.108342,1.93064 0.417806,0.222361 0.926145,0.07151 1.375623,0.115922 z m 2.86287,-1.065946 c 0.03506,1.298967 -1.160757,1.053398 -1.87356,1.065946 -0.7377,-0.130475 -0.325989,-1.304658 -0.433371,-1.946398 0.0476,-0.614284 -0.242275,-1.798367 0.595743,-1.651173 1.195743,-0.402901 1.853533,0.954302 1.450181,1.799118 0.178194,0.174849 0.266194,0.458867 0.261007,0.732507 z m -0.866741,-0.05863 c -0.261779,-1.178049 -1.03394,0.371462 -0.329889,0.389071 0.188789,0.03613 0.353881,-0.158278 0.329889,-0.389071 z m -0.06129,-1.401721 c -0.290848,-1.154128 -0.963466,0.643876 -0.155126,0.324782 0.113172,-0.03873 0.161171,-0.195745 0.155126,-0.324782 z m 2.558637,0.03731 c 0.284216,-0.591774 1.261915,-1.793485 1.444568,-0.546051 -0.01813,0.923843 0.03629,1.854818 -0.02709,2.774213 -0.82886,0.893285 -0.936154,-0.674914 -0.839655,-1.389032 -0.012,-0.764584 -0.585586,1.230176 -0.842005,0.166018 -0.479272,-0.953498 -0.271799,0.353297 -0.313649,0.839491 -0.145313,1.371008 -1.2155,0.21119 -0.866741,-0.708967 0.05597,-0.703794 -0.12203,-1.482041 0.108343,-2.132333 0.636756,-0.463515 0.96604,0.577652 1.336225,0.996661 z m 2.530183,2.0253 c -0.51562,1.2448 -1.105878,-0.288461 -0.866741,-1.087323 0.0535,-0.637113 -0.118437,-1.3471 0.108342,-1.93064 0.952081,-0.542954 0.752276,0.953671 0.758399,1.632782 0,0.461726 0,0.923453 0,1.385181 z m 2.004885,-1.529635 c -0.107814,-0.708525 0.03276,-2.228906 0.839655,-1.343426 0.04273,1.019275 0.04718,2.0567 0,3.075923 -0.619769,0.778666 -1.116615,-0.516962 -1.518648,-1.000864 -0.4997,-0.860577 -0.04096,0.843427 -0.34862,1.145766 -0.952081,0.542954 -0.752275,-0.953672 -0.758398,-1.632782 0.100232,-0.615319 -0.293118,-1.738219 0.433371,-1.848867 0.607119,0.194522 0.907185,1.092573 1.35264,1.60425 z"
         id="text49550"
         inkscape:connector-curvature="0" />
      <g
         id="g55219"
         transform="matrix(0.07288555,0,0,0.05540308,49.921805,7.7326885)">
        <path
           style="fill:#000003;fill-opacity:1;stroke-width:0.26458332"
           d="m -423.12973,295.18552 c -7.03897,-9.75063 -18.82374,-6.4864 -29.63143,-6.92248 -16.92677,0 -33.85354,0 -50.78031,0 -5.77755,-10.76015 16.02819,-5.30507 23.28578,-6.61459 16.70898,0 33.41797,0 50.12695,0 11.28716,-6.47394 6.06234,-19.90364 7.20684,-30.93896 -30.45464,-4.73271 -68.10246,7.00387 -96.31326,-6.3868 -4.96433,-18.80488 -7.84144,-55.91423 22.20779,-49.45757 24.70182,0 49.40365,0 74.10547,0 4.79708,-25.15947 -34.75745,-5.97316 -49.15358,-11.88594 -23.9139,2.80468 -58.63481,2.68075 -49.56699,-31.02821 -3.95399,-39.8875 49.24217,-19.27406 73.19455,-24.28363 11.61526,-0.86491 30.50159,5.53917 25.52602,-11.91256 -31.5438,-3.50135 -68.07521,7.25838 -96.3735,-5.89625 -5.57226,-20.193964 -6.93227,-58.407372 25.56883,-49.392025 54.54294,0.03353 109.08609,-0.105484 163.62885,0.09065 20.23667,6.390733 20.50974,61.3236 -8.60214,55.19266 -25.78093,0.002 -51.56185,0.004 -77.34278,0.006 -4.87079,24.97594 34.13518,6.13836 48.40312,11.92797 23.4957,-2.93317 60.47527,-3.58082 50.2436,30.84677 6.11044,22.31135 -15.81939,26.65141 -32.58171,24.42471 -22.02164,0.002 -44.04327,0.003 -66.06491,0.005 -3.76151,24.92739 35.42876,6.20293 49.99626,11.88458 26.11863,-5.04386 59.17081,0.51452 48.63954,34.54347 4.85258,22.21322 -19.28922,21.65399 -34.40385,20.77608 -21.41076,0 -42.82151,0 -64.23226,0 1.98052,8.77183 -4.51872,22.26425 4.37851,27.18562 5.51772,8.55703 18.98857,2.47558 28.16424,4.29979 16.37657,0.43897 33.09725,-0.8783 49.25865,0.65881 1.34747,10.93537 -16.38597,4.03298 -24.03475,5.95578 -16.85395,0 -33.7079,0 -50.56185,0 -1.7989,5.77169 -8.69385,8.88307 -14.29168,6.92158 z m 5.31378,-6.2216 c 13.57144,-18.70779 -21.25912,-1.71163 0,0 z m -76.0142,-55.46963 c -0.76986,-8.17771 -22.84824,1.7439 -5.01111,0.5944 z m 21.90155,0.11729 c -1.46419,-8.66534 -23.29156,2.40399 -3.40436,0.3603 1.52216,1.14858 2.4381,0.31174 3.40436,-0.3603 z m 22.3487,-0.41498 c -6.78679,-7.9799 -19.0328,4.15823 -1.38609,0.71108 z m 103.50874,-2.10224 c 23.55392,-19.9562 -28.43052,-21.81829 -8.10138,-0.64672 l 4.01987,1.23568 z m -6.14605,-3.1868 c -13.77368,-24.64009 26.90001,-1.9046 0,0 z m -141.61294,-4.20286 c -6.93682,-9.99135 -20.33472,5.67762 0,0 z m 21.90155,0.11729 c -1.46423,-8.66532 -23.29154,2.40398 -3.40437,0.36031 1.52214,1.14853 2.43813,0.31176 3.40437,-0.36031 z m 22.18004,-0.25398 c -5.75367,-8.37423 -19.72298,3.85693 -1.56054,0.67432 z m -43.92753,-9.7696 c -7.74828,-10.2001 -21.00309,6.25594 0,0 z m 21.74749,0.234 c -6.71266,-9.30851 -19.55952,4.7778 0,0 z m 22.18004,-0.25399 c -8.30155,-9.90659 -19.41271,5.82499 0,0 z m -44.08159,-47.4883 c -7.51523,-10.49697 -20.99513,6.07603 0,0 z m 21.90155,0.11729 c -1.46422,-8.66532 -23.29154,2.40399 -3.40437,0.36031 1.52214,1.14853 2.43813,0.31176 3.40437,-0.36031 z m 22.3487,-0.41498 c -6.7868,-7.97989 -19.03279,4.15822 -1.38609,0.71107 z m 104.23534,-2.4307 c 20.38676,-16.00321 -22.12455,-25.15561 -11.83979,-2.83526 2.70413,3.45462 7.85293,4.83685 11.83979,2.83526 z m -6.66892,-2.72052 c -15.60981,-22.61555 27.78875,-4.70554 0,0 z m -141.81667,-4.34067 c -6.93683,-9.99135 -20.33472,5.67762 0,0 z m 21.90155,0.11729 c -1.46421,-8.66532 -23.29155,2.40398 -3.40437,0.36031 1.52214,1.14853 2.43813,0.31176 3.40437,-0.36031 z m 22.2693,-0.29116 c -6.20416,-8.31423 -19.61915,3.95373 -1.52736,0.71282 z m -44.01679,-9.73243 c -7.7483,-10.20008 -21.00307,6.25592 0,0 z m 21.74749,0.23401 c -6.71262,-9.30853 -19.55954,4.77778 0,0 z m 22.18004,-0.25399 c -8.3015,-9.9066 -19.41275,5.82495 0,0 z m -44.08159,-47.4883 c -7.5152,-10.496992 -20.99514,6.07601 0,0 z m 21.90155,0.11729 c -1.46419,-8.665341 -23.29156,2.40399 -3.40436,0.360298 1.52216,1.148582 2.4381,0.311743 3.40436,-0.360298 z m 22.3487,-0.41498 c -6.78679,-7.979902 -19.0328,4.15823 -1.38609,0.711075 z m 103.50874,-2.10224 c 23.53962,-19.941236 -28.41814,-21.822746 -8.10138,-0.646722 l 4.01987,1.235675 z m -5.81003,-2.99462 c -15.48455,-24.06721 26.61355,-2.804315 0,0 z m -141.94896,-4.39504 c -6.93683,-9.991351 -20.33472,5.677618 0,0 z m 21.90155,0.11729 c -1.46422,-8.665319 -23.29154,2.403985 -3.40437,0.360305 1.52214,1.148537 2.43813,0.311765 3.40437,-0.360305 z m 22.18004,-0.25398 c -5.75366,-8.374232 -19.72299,3.856929 -1.56054,0.67432 z m -43.92753,-9.76961 c -7.7483,-10.199995 -21.00306,6.255795 0,0 z m 21.74749,0.23401 c -6.71265,-9.308515 -19.55953,4.777798 0,0 z m 22.02305,-0.0671 c -6.33546,-9.50565 -20.14287,4.958154 0,0 z"
           id="path55207"
           inkscape:connector-curvature="0" />
      </g>
    </g>
  </g>
</svg>
