<?xml version="1.0" encoding="UTF-8" standalone="no"?>
<!-- Created with Inkscape (http://www.inkscape.org/) -->

<svg
   xmlns:dc="http://purl.org/dc/elements/1.1/"
   xmlns:cc="http://creativecommons.org/ns#"
   xmlns:rdf="http://www.w3.org/1999/02/22-rdf-syntax-ns#"
   xmlns:svg="http://www.w3.org/2000/svg"
   xmlns="http://www.w3.org/2000/svg"
   xmlns:sodipodi="http://sodipodi.sourceforge.net/DTD/sodipodi-0.dtd"
   xmlns:inkscape="http://www.inkscape.org/namespaces/inkscape"
   width="150"
   height="150"
   viewBox="0 0 39.6875 39.6875"
   version="1.1"
   id="svg922"
   inkscape:version="0.92.4 (5da689c313, 2019-01-14)"
   sodipodi:docname="USO_games_imperiumgalactica.svg">
  <title
     id="title1437">USOICON</title>
  <defs
     id="defs916">
    <clipPath
       id="clipPath1521"
       clipPathUnits="userSpaceOnUse">
      <rect
         y="66.644836"
         x="57.114269"
         height="151.42299"
         width="172.87534"
         id="rect1523"
         style="opacity:0.875;fill:#000000;fill-opacity:1;stroke:#000000;stroke-width:0.60403091;stroke-linejoin:round;stroke-miterlimit:4;stroke-dasharray:none;stroke-opacity:1" />
    </clipPath>
  </defs>
  <sodipodi:namedview
     id="base"
     pagecolor="#ffffff"
     bordercolor="#666666"
     borderopacity="1.0"
     inkscape:pageopacity="0.0"
     inkscape:pageshadow="2"
     inkscape:zoom="1.9556421"
     inkscape:cx="81.70241"
     inkscape:cy="67.276793"
     inkscape:document-units="px"
     inkscape:current-layer="layer7"
     showgrid="false"
     inkscape:window-width="939"
     inkscape:window-height="604"
     inkscape:window-x="2478"
     inkscape:window-y="179"
     inkscape:window-maximized="0"
     units="px" />
  <metadata
     id="metadata919">
    <rdf:RDF>
      <cc:Work
         rdf:about="">
        <dc:format>image/svg+xml</dc:format>
        <dc:type
           rdf:resource="http://purl.org/dc/dcmitype/StillImage" />
        <dc:title>USOICON</dc:title>
        <cc:license
           rdf:resource="http://creativecommons.org/licenses/by-sa/4.0/" />
      </cc:Work>
      <cc:License
         rdf:about="http://creativecommons.org/licenses/by-sa/4.0/">
        <cc:permits
           rdf:resource="http://creativecommons.org/ns#Reproduction" />
        <cc:permits
           rdf:resource="http://creativecommons.org/ns#Distribution" />
        <cc:requires
           rdf:resource="http://creativecommons.org/ns#Notice" />
        <cc:requires
           rdf:resource="http://creativecommons.org/ns#Attribution" />
        <cc:permits
           rdf:resource="http://creativecommons.org/ns#DerivativeWorks" />
        <cc:requires
           rdf:resource="http://creativecommons.org/ns#ShareAlike" />
      </cc:License>
    </rdf:RDF>
  </metadata>
  <g
     style="display:inline"
     transform="translate(-35.46637,-112.59198)"
     id="layer1"
     inkscape:groupmode="layer"
     inkscape:label="toonbox" />
  <g
     inkscape:label="text"
     id="layer3"
     inkscape:groupmode="layer" />
  <g
     style="display:inline"
     inkscape:label="icon_games"
     id="layer7"
     inkscape:groupmode="layer">
    <g
       id="g11571">
      <path
         style="display:inline;opacity:0.875;fill:#999999;fill-opacity:1;stroke:none;stroke-width:0.11845408;stroke-linejoin:round;stroke-miterlimit:4;stroke-dasharray:none;stroke-opacity:0.97175137"
         d="M 1.435191,10.12791 C 2.670256,9.29705 4.324329,9.43582 5.75553,9.20511 14.11545,8.61268 22.517162,8.68995 30.881762,9.1576 c 2.392119,0.20608 4.838324,0.26932 7.150425,0.97031 0.872353,1.67498 0.817461,3.66984 1.026746,5.51683 0.208491,4.02511 0.362445,8.13136 -0.532305,12.08777 -0.230317,1.64927 -2.017724,2.0517 -3.40708,2.25864 C 28.802681,30.85612 22.40423,30.81147 16.04062,30.81293 11.303807,30.71862 6.537542,30.74635 1.839737,30.07418 0.173005,29.52829 0.822947,27.03924 0.434179,25.65651 0.154966,21.09087 0.021365,16.47217 0.692557,11.93449 0.848231,11.32021 0.903907,10.54918 1.435191,10.12791 Z"
         id="rect49496"
         inkscape:connector-curvature="0" />
      <path
         style="display:inline;fill:#000000;stroke-width:0.37203047"
         d="M 1.803349,30.70864 C 0.056742,30.0892 0.231437,27.93756 0.087588,26.427 -0.022935,21.93179 -0.070132,17.42779 0.099217,12.93387 -0.027874,11.27811 1.27784,10.0868 2.683582,9.49431 4.615709,8.56731 6.836395,8.9315 8.909365,8.7639 16.59615,8.63948 24.285544,8.62691 31.972812,8.67993 c 2.150882,0.14121 4.537543,-0.0199 6.403551,1.23592 1.58486,1.37874 1.255708,3.71898 1.302004,5.60595 -0.178243,4.07095 0.01584,8.16305 -0.388876,12.21995 -0.293352,1.71142 -2.120394,2.65314 -3.654582,3.02944 -6.368162,0.39372 -12.757085,0.28816 -19.135233,0.3134 C 11.668868,31.0283 6.826658,31.10952 2.006621,30.75364 L 1.803349,30.7086 Z m 34.717949,-1.05781 c 1.660436,-0.66982 2.120657,-2.56797 2.182495,-4.18169 C 38.903556,21.6571 38.926032,17.82461 38.6784,14.01451 38.609934,12.47205 38.055319,10.73538 36.494762,10.11382 34.51138,9.13075 32.202264,9.50823 30.063573,9.36171 22.019563,9.34057 13.971808,9.23982 5.930238,9.4697 4.247551,9.52117 2.061367,9.74531 1.291134,11.49417 c -0.682107,2.6627 -0.37748,5.45735 -0.46467,8.18069 0.080658,2.82901 -0.202804,5.71611 0.421771,8.49628 0.655233,1.84726 2.893842,2.0042 4.558802,2.11114 8.176545,0.4213 16.369453,0.15886 24.551012,0.03302 2.04628,-0.14679 4.225389,0.10711 6.163249,-0.66447 z M 4.297406,28.9474 c -0.939032,0.02717 -2.493051,-2.1182 -0.727168,-0.88447 1.706475,0.99084 3.797167,0.59334 5.679761,0.73138 0.843628,0.09701 3.276883,-0.14441 3.328971,0.24148 -2.712643,0.43249 -5.596207,0.56419 -8.281564,-0.08839 z m 31.24001,-17.1062 c -1.499147,-0.78086 -3.308903,-0.4003 -4.94344,-0.53994 -1.173066,-0.10336 -4.022293,-0.01807 -4.347208,-0.50636 2.904245,-0.07023 5.874879,-0.31161 8.734279,0.31742 0.913242,-0.14345 1.834744,2.01352 0.556369,0.72888 z"
         id="path49494"
         inkscape:connector-curvature="0" />
      <path
         style="font-style:normal;font-variant:normal;font-weight:normal;font-stretch:normal;font-size:3.97038674px;font-family:Insaniburger;-inkscape-font-specification:Insaniburger;opacity:1;vector-effect:none;fill:#000000;fill-opacity:1;stroke:none;stroke-width:0.04652796;stroke-linecap:butt;stroke-linejoin:miter;stroke-miterlimit:4;stroke-dasharray:none;stroke-dashoffset:0;stroke-opacity:1"
         d="M 3.2298099,26.600962 C 2.6829849,27.646199 2.3455027,26.156648 2.516278,25.521713 2.3257038,24.8911 2.7192605,23.485082 3.2298099,24.510918 c 0,0.696681 0,1.393363 0,2.090044 z m 1.3694046,-1.585263 c 0.2190195,-0.618843 1.2785253,-1.379359 1.1892198,-0.21044 -0.051566,0.682306 0.1082726,1.428376 -0.089191,2.067909 -0.9192357,0.559203 -0.4992121,-1.198059 -0.6792915,-1.34891 -0.2666259,1.061621 -0.8093936,-0.116922 -0.8964247,0.125702 0.2620668,0.69076 -0.389866,2.008242 -0.7135319,0.852889 0.052728,-0.748554 -0.1098816,-1.561306 0.089192,-2.267266 0.5240514,-0.365706 0.7944789,0.452076 1.1000283,0.780116 z m 2.4469098,1.009562 c 1.6493296,-0.513022 0.2918701,-2.412769 -0.8768244,-1.846257 -0.4041004,0.453212 -0.1115217,1.291101 -0.2006808,1.910075 -0.3032925,1.038654 1.0020599,1.103364 0.7135318,0.02131 -0.05815,-0.183113 0.2893344,-0.03914 0.3639734,-0.08513 z M 6.8875616,24.715333 c 0.9214922,0.565109 -0.7430866,0.926092 -0.1206568,0 h 0.084754 z m 2.317177,2.248571 c 0.9533774,-0.727163 -0.7606452,-0.414181 -0.5081213,-1.080482 0.8368717,0.318845 0.8840002,-0.974656 0.012278,-0.667479 -0.3211503,-0.759624 1.3146489,-0.123786 0.6172434,-1.047238 -0.4865499,0.01515 -1.4884317,-0.296594 -1.3430531,0.636554 0.051566,0.682306 -0.1082726,1.428376 0.089192,2.067909 0.344673,0.177697 0.7615878,0.05356 1.1324617,0.09074 z m 1.9532034,-1.197291 c 0.818888,0.615739 0.0075,1.790077 -0.455816,0.633576 -0.604206,-1.176825 0.0017,0.573448 -0.682952,0.563715 -0.6540758,-0.178493 -0.2400829,-1.246309 -0.356766,-1.834646 -0.2173726,-0.859145 0.406192,-1.129123 1.034797,-0.981282 0.79269,-0.142705 1.140323,1.194123 0.460737,1.618637 z m -0.782003,-1.05128 c -0.361217,1.245927 1.150798,0.208071 0.120658,0 h -0.08475 z m 2.084739,1.885629 c -0.546825,1.045237 -0.884307,-0.444314 -0.713532,-1.079249 -0.190574,-0.630613 0.202983,-2.036631 0.713532,-1.010795 0,0.696681 0,1.393363 0,2.090044 z m 2.097352,-0.400488 c -0.432496,1.5747 -2.369174,0.568278 -1.917167,-0.883021 -0.332277,-0.769814 0.614057,-1.798332 0.713533,-0.610307 -0.03576,0.528996 -0.07572,2.217588 0.490102,1.274234 0.116608,-0.587985 -0.297197,-1.655216 0.356765,-1.833404 0.654076,0.178493 0.240084,1.246309 0.356767,1.834646 0,0.07262 0,0.145234 0,0.217852 z m 1.369404,-1.184775 c 0.219019,-0.618843 1.278525,-1.379359 1.18922,-0.21044 -0.05157,0.682306 0.108272,1.428376 -0.08919,2.067909 -0.919236,0.559203 -0.499213,-1.198059 -0.679293,-1.34891 -0.266625,1.061621 -0.809393,-0.116922 -0.896424,0.125702 0.262067,0.69076 -0.389866,2.008242 -0.713532,0.852889 0.05273,-0.748554 -0.109882,-1.561306 0.08919,-2.267266 0.524051,-0.365706 0.794478,0.452076 1.100028,0.780116 z m 4.243353,0.221103 c -0.833775,-0.249186 -1.020754,0.577355 -0.439313,0.869026 -1.419602,0.642941 -0.806555,-2.297513 0.417691,-1.100558 0.842602,-1.542148 -2.741262,-1.036955 -1.963001,0.834479 0.113855,1.558847 2.656193,1.556224 2.262107,-0.146684 0.02233,-0.208072 -0.05324,-0.481109 -0.277484,-0.456263 z m 1.713557,0.563185 c -0.08971,-1.124545 -0.591888,0.252569 0,0 z m -0.522536,0.667478 c -0.606673,1.263778 -0.939473,-0.446446 -0.365006,-1.046799 0.150611,-0.658778 0.782992,-1.92374 1.177393,-0.721502 0.218275,0.620746 0.534806,1.202756 0.68675,1.849651 -0.404435,1.093305 -0.75595,-0.558804 -1.499137,-0.08135 z m 2.924401,0.496439 c -0.521438,-0.0088 -1.47632,0.208617 -1.272105,-0.755397 0.05073,-0.649789 -0.107101,-1.362703 0.08919,-1.969795 0.883176,-0.415822 0.573306,0.971917 0.624341,1.547682 -0.381455,1.093393 1.447531,-0.06752 0.558573,1.17751 z m 1.661302,-1.163917 c -0.08971,-1.124545 -0.591887,0.252569 0,0 z m -0.522536,0.667478 c -0.606672,1.263778 -0.939472,-0.446446 -0.365004,-1.046799 0.15061,-0.658778 0.782991,-1.92374 1.177392,-0.721502 0.218275,0.620746 0.534806,1.202756 0.68675,1.849651 -0.404434,1.093305 -0.755951,-0.558804 -1.499138,-0.08135 z m 3.884785,-0.0083 c -1.200004,1.932291 -3.478959,-1.377651 -1.486975,-2.292894 0.703924,-0.764061 2.270022,0.934327 0.881554,0.724318 -1.484763,-0.58705 -0.916405,2.265235 0.327936,1.180603 0.164036,0.0079 0.279245,0.211357 0.277485,0.387973 z m 1.515354,-1.647839 c -0.05167,0.681659 0.108425,1.427186 -0.08919,2.066055 -0.883177,0.415823 -0.573306,-0.971915 -0.62434,-1.547682 0.342165,-0.754303 -1.300215,-0.518459 -0.36037,-1.181681 0.547428,0.04572 1.132877,-0.0972 1.654096,0.08291 0.291439,0.558133 -0.239804,0.628605 -0.580195,0.580394 z m 1.518958,1.789678 c -0.546825,1.045237 -0.884307,-0.444314 -0.713531,-1.079249 -0.190575,-0.630613 0.202982,-2.036631 0.713531,-1.010795 0,0.696681 0,1.393363 0,2.090044 z m 2.412676,-0.141839 c -1.200004,1.932291 -3.478959,-1.377651 -1.486976,-2.292894 0.703924,-0.764061 2.270024,0.934327 0.881554,0.724318 -1.484762,-0.58705 -0.916404,2.265235 0.327937,1.180603 0.164035,0.0079 0.279244,0.211357 0.277485,0.387973 z m 1.437873,-0.659136 c -0.08971,-1.124545 -0.591888,0.252569 0,0 z m -0.522536,0.667478 c -0.606673,1.263778 -0.939473,-0.446446 -0.365006,-1.046799 0.150611,-0.658778 0.782992,-1.92374 1.177393,-0.721502 0.218275,0.620746 0.534806,1.202756 0.68675,1.849651 -0.404435,1.093305 -0.755951,-0.558804 -1.499137,-0.08135 z"
         id="text49550"
         inkscape:connector-curvature="0" />
      <g
         id="g53695"
         transform="matrix(0.23216083,0,0,0.26739887,-40.66702,-79.695953)">
        <path
           style="fill:#000000;fill-opacity:1;stroke-width:0.56041962"
           d="m 225.79653,381.36576 c -5.04874,-5.70045 -3.09798,-14.35633 -2.45039,-21.29598 2.14357,-8.89697 7.83465,-18.94365 17.6609,-20.54413 7.25222,-1.3964 13.14991,3.76259 20.06409,4.17152 6.86243,-0.25136 12.65893,-5.79643 19.79539,-4.07863 10.07438,0.99305 15.61039,11.35051 17.88548,20.14 0.72391,7.0246 2.71218,15.81255 -2.37779,21.60722 -6.22795,4.55619 -12.2931,-2.23293 -16.91721,-5.91504 -5.78798,-5.77763 -14.55245,-3.45633 -21.84303,-3.96964 -6.37158,-0.56289 -12.86431,0.86093 -17.22384,5.87987 -3.90129,3.36771 -9.44686,8.07986 -14.5936,4.00481 z"
           id="path53677"
           inkscape:connector-curvature="0" />
        <path
           style="fill:#ffffff;fill-opacity:1;stroke-width:0.56041962"
           d="m 277.9872,362.41501 c 5.58994,-5.40079 -8.06317,-7.57497 -4.77264,-0.67341 1.23932,1.3571 3.24548,2.00683 4.77264,0.67341 z"
           id="path53675"
           inkscape:connector-curvature="0" />
        <path
           style="fill:#ffffff;fill-opacity:1;stroke-width:0.56041962"
           d="m 247.09052,359.86347 c 0.27723,-3.25746 8.70112,-2.32963 4.12382,-6.78295 -5.26871,1.19244 -3.64993,-8.73224 -9.37797,-3.68051 1.20337,5.19333 -8.41269,2.02905 -5.05105,7.57352 3.38408,0.29645 5.45041,0.84964 5.40535,4.6496 1.57622,0.88603 5.19447,0.91959 4.89985,-1.75966 z"
           id="path53673"
           inkscape:connector-curvature="0" />
        <path
           style="fill:#fffffc;fill-opacity:1;stroke-width:0.56041962"
           d="m 288.72216,357.58638 c 4.50178,-7.79772 -11.51832,-3.99212 -3.56811,0.81562 1.22542,0.443 2.60725,-0.0116 3.56811,-0.81562 z"
           id="path53671"
           inkscape:connector-curvature="0" />
        <path
           style="fill:#f8ffff;fill-opacity:1;stroke-width:0.56041962"
           d="m 278.37813,352.42476 c 4.38079,-8.166 -11.41132,-4.0188 -3.58973,0.81533 1.23238,0.44154 2.62307,-0.004 3.58973,-0.81533 z"
           id="path53664"
           inkscape:connector-curvature="0" />
      </g>
    </g>
  </g>
</svg>
