<?xml version="1.0" encoding="UTF-8" standalone="no"?>
<!-- Created with Inkscape (http://www.inkscape.org/) -->

<svg
   xmlns:dc="http://purl.org/dc/elements/1.1/"
   xmlns:cc="http://creativecommons.org/ns#"
   xmlns:rdf="http://www.w3.org/1999/02/22-rdf-syntax-ns#"
   xmlns:svg="http://www.w3.org/2000/svg"
   xmlns="http://www.w3.org/2000/svg"
   xmlns:sodipodi="http://sodipodi.sourceforge.net/DTD/sodipodi-0.dtd"
   xmlns:inkscape="http://www.inkscape.org/namespaces/inkscape"
   width="150"
   height="150"
   viewBox="0 0 39.6875 39.6875"
   version="1.1"
   id="svg922"
   inkscape:version="0.92.4 (5da689c313, 2019-01-14)"
   sodipodi:docname="USO_server_lighttpd.svg">
  <title
     id="title1437">USOICON</title>
  <defs
     id="defs916">
    <clipPath
       id="clipPath1521"
       clipPathUnits="userSpaceOnUse">
      <rect
         y="66.644836"
         x="57.114269"
         height="151.42299"
         width="172.87534"
         id="rect1523"
         style="opacity:0.875;fill:#000000;fill-opacity:1;stroke:#000000;stroke-width:0.60403091;stroke-linejoin:round;stroke-miterlimit:4;stroke-dasharray:none;stroke-opacity:1" />
    </clipPath>
  </defs>
  <sodipodi:namedview
     id="base"
     pagecolor="#ffffff"
     bordercolor="#666666"
     borderopacity="1.0"
     inkscape:pageopacity="0.0"
     inkscape:pageshadow="2"
     inkscape:zoom="1.5029878"
     inkscape:cx="96.990474"
     inkscape:cy="70.555325"
     inkscape:document-units="px"
     inkscape:current-layer="layer12"
     showgrid="false"
     inkscape:window-width="806"
     inkscape:window-height="703"
     inkscape:window-x="2744"
     inkscape:window-y="134"
     inkscape:window-maximized="0"
     units="px" />
  <metadata
     id="metadata919">
    <rdf:RDF>
      <cc:Work
         rdf:about="">
        <dc:format>image/svg+xml</dc:format>
        <dc:type
           rdf:resource="http://purl.org/dc/dcmitype/StillImage" />
        <dc:title>USOICON</dc:title>
        <cc:license
           rdf:resource="http://creativecommons.org/licenses/by-sa/4.0/" />
      </cc:Work>
      <cc:License
         rdf:about="http://creativecommons.org/licenses/by-sa/4.0/">
        <cc:permits
           rdf:resource="http://creativecommons.org/ns#Reproduction" />
        <cc:permits
           rdf:resource="http://creativecommons.org/ns#Distribution" />
        <cc:requires
           rdf:resource="http://creativecommons.org/ns#Notice" />
        <cc:requires
           rdf:resource="http://creativecommons.org/ns#Attribution" />
        <cc:permits
           rdf:resource="http://creativecommons.org/ns#DerivativeWorks" />
        <cc:requires
           rdf:resource="http://creativecommons.org/ns#ShareAlike" />
      </cc:License>
    </rdf:RDF>
  </metadata>
  <g
     style="display:inline"
     transform="translate(-35.46637,-112.59198)"
     id="layer1"
     inkscape:groupmode="layer"
     inkscape:label="toonbox" />
  <g
     inkscape:label="text"
     id="layer3"
     inkscape:groupmode="layer" />
  <g
     style="display:inline"
     inkscape:label="icon_server"
     id="layer12"
     inkscape:groupmode="layer">
    <g
       id="g16743">
      <path
         style="display:inline;opacity:0.875;fill:#999999;fill-opacity:1;stroke:none;stroke-width:0.11845408;stroke-linejoin:round;stroke-miterlimit:4;stroke-dasharray:none;stroke-opacity:0.97175137"
         d="m 36.90156,122.71989 c 0.831696,-1.81518 32.136082,-1.74537 36.596996,0 1.360957,1.25668 1.965827,18.83145 -0.529263,19.1107 -2.34387,2.23409 -34.78045,1.7797 -36.294559,0.62834 -1.133237,-0.86173 -1.587784,-18.83144 0.226826,-19.73904 z"
         id="rect49496"
         inkscape:connector-curvature="0"
         sodipodi:nodetypes="cccsc"
         transform="translate(-35.466369,-112.59198)" />
      <path
         style="display:inline;fill:#000000;stroke-width:0.37203047"
         d="m 37.269718,143.30062 c -1.641726,-0.64434 -1.803348,-1.59457 -1.803348,-10.60246 0,-8.6181 0,-8.6181 1.184803,-9.66955 0.651642,-0.57829 1.906815,-1.21394 2.789275,-1.41254 1.014238,-0.22826 7.228924,-0.36098 16.893825,-0.36076 20.576488,3.7e-4 18.888124,-0.98916 18.718084,10.97136 -0.122927,8.64687 -0.122927,8.64687 -1.155993,9.6823 -0.568185,0.56949 -1.705467,1.20373 -2.527298,1.40941 -1.972575,0.49371 -32.837149,0.47762 -34.099348,-0.0178 z m 34.717949,-1.05781 c 2.057419,-1.09405 2.321925,-2.20712 2.321925,-9.77101 0,-7.72677 -0.261904,-8.73763 -2.557796,-9.87221 -1.306397,-0.6456 -2.051043,-0.67602 -16.574417,-0.67722 -12.68509,-0.001 -15.404566,0.0817 -16.40064,0.49925 -2.429502,1.01833 -2.483917,1.2385 -2.483917,10.05018 0,8.63256 0.07681,8.98184 2.190626,9.96194 1.290086,0.59816 7.836312,0.78195 20.969628,0.58874 10.114957,-0.14881 11.511591,-0.23568 12.534591,-0.77967 z m -32.223892,-0.70343 c -0.704624,-0.24864 -1.401002,-0.70525 -1.547504,-1.0147 -0.218464,-0.46145 -0.07094,-0.43803 0.820336,0.13023 0.940358,0.59955 1.705219,0.69805 5.679761,0.73138 3.569034,0.0299 4.224546,0.1003 2.940161,0.31564 -2.52326,0.42304 -6.463123,0.3419 -7.892754,-0.16255 z m 31.24001,-17.1062 c -0.376607,-0.36781 -1.414169,-0.50758 -3.872935,-0.52171 -1.847182,-0.0106 -4.102321,-0.14401 -5.01142,-0.29643 -1.299481,-0.21787 -0.707245,-0.28535 2.769834,-0.31564 4.414966,-0.0385 6.277427,0.2894 6.698657,1.17915 0.282918,0.5976 0.05617,0.57999 -0.584136,-0.0454 z"
         id="path49494"
         inkscape:connector-curvature="0"
         transform="translate(-35.466369,-112.59198)" />
      <g
         id="g16731">
        <path
           inkscape:connector-curvature="0"
           id="text49550"
           d="m 12.02995,28.015285 c -0.476833,-0.04738 -0.990894,0.111588 -1.436907,-0.115922 -0.204518,-0.490236 -0.06921,-1.088801 -0.108342,-1.630232 0.01347,-0.529761 -0.02973,-1.065094 0.02709,-1.590593 0.455262,-0.711951 1.008313,0.101714 0.839656,0.760457 0,0.576288 0,1.152575 0,1.728863 0.334991,0.05811 0.949313,-0.21352 0.949913,0.423713 0.01698,0.197126 -0.07977,0.447507 -0.271405,0.423714 z m 1.357019,-0.463686 c -0.185851,0.968222 -1.107615,0.255365 -0.866741,-0.501836 0.01548,-0.789774 -0.03258,-1.585795 0.02709,-2.371225 0.455262,-0.711951 1.008312,0.101714 0.839655,0.760457 0,0.7042 0,1.408402 0,2.112604 z m 2.624299,-1.742825 c -0.365447,0.05416 -1.008693,-0.207535 -1.050596,0.447699 -0.104661,0.583435 0.968701,0.308344 0.345137,0.825109 -1.24093,0.365208 -1.105349,-2.386475 0.115593,-1.795788 0.505304,0.619342 1.339277,-0.304648 0.574544,-0.740168 -0.838278,-0.548887 -2.108416,-0.162515 -2.361376,1.055247 -0.330895,1.166588 0.439718,2.535682 1.477125,2.446391 0.603343,0.106811 1.396409,-0.298525 1.236638,-1.168458 -0.03256,-0.370628 0.135106,-1.059152 -0.337065,-1.070032 z m 2.444821,-1.39106 c 0.57683,-0.02415 0.409429,0.786626 0.433371,1.244319 -0.01495,0.696894 0.03183,1.399857 -0.02709,2.092428 -0.455262,0.711951 -1.008313,-0.101714 -0.839656,-0.760457 0.134025,-0.505924 -0.286498,-0.336667 -0.549563,-0.35912 -0.109858,0.270582 0.01578,0.769993 -0.06848,1.119577 -0.455262,0.711951 -1.008313,-0.101714 -0.839655,-0.760457 0.01539,-0.771197 -0.03245,-1.54861 0.02708,-2.315466 0.455262,-0.711951 1.008313,0.101714 0.839655,0.760457 -0.134839,0.501586 0.297761,0.312294 0.549564,0.343131 0.10982,-0.265746 -0.01573,-0.75858 0.06848,-1.103588 0.05733,-0.204871 0.249626,-0.264495 0.406285,-0.260824 z m 2.2741,0.847427 c -0.0166,0.830805 0.03417,1.668234 -0.02708,2.49465 -0.455262,0.711951 -1.008313,-0.101715 -0.839656,-0.760457 0,-0.578065 0,-1.156129 0,-1.734193 -0.558331,0.276371 -1.215203,-0.696549 -0.39195,-0.847427 0.617576,0.0163 1.238986,-0.0335 1.854028,0.02648 0.599827,0.600913 -0.154645,0.935243 -0.595337,0.820945 z m 2.600223,0 c -0.0166,0.830805 0.03417,1.668234 -0.02709,2.49465 -0.455262,0.711951 -1.008312,-0.101715 -0.839655,-0.760457 0,-0.578065 0,-1.156129 0,-1.734193 -0.558332,0.276371 -1.215203,-0.696549 -0.39195,-0.847427 0.617576,0.0163 1.238986,-0.0335 1.854028,0.02648 0.599826,0.600913 -0.154645,0.935243 -0.595337,0.820945 z m 2.287232,1.550954 c 0.978793,0.05976 1.322923,-1.806435 0.440483,-2.299782 -0.48547,-0.145485 -1.00812,-0.09316 -1.505579,-0.05896 -0.398857,0.246765 -0.19191,0.881881 -0.24377,1.326858 0.01493,0.65617 -0.03182,1.318404 0.02709,1.97025 0.455262,0.711951 1.008312,-0.101714 0.839655,-0.760457 -0.08652,-0.336434 0.297964,-0.114494 0.442125,-0.177909 z m -0.192609,-1.673537 c 0.896737,0.03384 -0.08813,1.342673 -0.249516,0.6535 0.05244,-0.291163 -0.162747,-0.792164 0.249516,-0.6535 z m 2.643998,2.872727 c -0.40025,-0.04157 -0.83505,0.102424 -1.204902,-0.115922 -0.204518,-0.490236 -0.06921,-1.088801 -0.108342,-1.630232 0.01347,-0.529761 -0.02973,-1.065094 0.02709,-1.590593 0.25531,-0.438219 0.759263,-0.19903 1.139036,-0.260824 1.105802,-0.06163 1.564866,1.694266 1.109227,2.72847 -0.159445,0.481406 -0.534886,0.828477 -0.962105,0.869101 z m 0.330499,-1.830764 c 0.285393,-0.595533 -0.854606,-1.586802 -0.777002,-0.707407 0,0.599113 0,1.198226 0,1.797339 0.521938,0.107677 0.824476,-0.521409 0.777002,-1.089932 z"
           style="font-style:normal;font-variant:normal;font-weight:normal;font-stretch:normal;font-size:4.94612217px;font-family:Insaniburger;-inkscape-font-specification:Insaniburger;opacity:1;vector-effect:none;fill:#000000;fill-opacity:1;stroke:none;stroke-width:0.05796236;stroke-linecap:butt;stroke-linejoin:miter;stroke-miterlimit:4;stroke-dasharray:none;stroke-dashoffset:0;stroke-opacity:1" />
        <g
           transform="matrix(0.07288555,0,0,0.05540308,49.921805,7.7326885)"
           id="g55219">
          <path
             inkscape:connector-curvature="0"
             id="path55207"
             d="m -423.12973,295.18552 c -5.53378,-5.88353 -11.73372,-8.15397 -20.05236,-6.92248 -20.11979,0 -40.23959,0 -60.35938,0 -7.39746,-7.73336 7.22461,-6.91302 12.29698,-6.61459 20.37192,0 40.74383,0 61.11575,0 6.44537,-5.16182 8.4234,-10.53847 7.20684,-18.90186 -0.3013,-6.62783 2.70296,-16.55927 -8.20632,-12.60266 -26.4446,-0.0323 -52.8904,0.19218 -79.33395,-0.13599 -16.61974,-4.15472 -9.48838,-24.06718 -11.19885,-36.45593 -2.9097,-13.57599 10.42144,-21.20678 22.35633,-18.68689 25.46093,0 50.92186,0 76.38279,0 1.01627,-8.62078 0.32941,-15.55263 -10.92074,-11.9239 -26.35343,-0.42698 -52.91661,0.99293 -79.13781,-0.76618 -14.03905,-7.05899 -6.72032,-25.16771 -8.63939,-37.69151 -2.1736,-19.99942 21.71089,-17.2874 34.88288,-16.80797 21.27169,-0.004 42.54337,-0.009 63.81506,-0.0145 1.03503,-8.65554 0.29107,-15.55026 -10.97251,-11.92923 -25.60324,-0.0172 -51.20775,0.18576 -76.80987,-0.1433 -16.36745,-4.37658 -9.21867,-24.101668 -10.95674,-36.444471 -3.49451,-19.978602 19.61353,-20.287374 33.38876,-18.674728 53.65837,0.298475 107.40172,-0.659237 161.00682,0.513939 15.54277,5.811926 8.22261,24.898429 9.81427,37.487219 2.85855,13.725191 -11.31809,19.425831 -22.58606,17.279451 -25.33514,0.002 -50.67027,0.004 -76.00541,0.006 -0.95584,8.50401 -0.45149,15.56285 10.75431,11.93558 26.05313,0.31717 52.19508,-0.65844 78.19202,0.54471 15.37504,6.02125 8.03209,24.97603 9.64447,37.59478 2.79148,13.67147 -11.39736,19.23533 -22.58529,17.12365 -25.33514,0.002 -50.67027,0.004 -76.00541,0.006 -5.74126,20.09351 20.59695,9.3335 31.83642,11.92967 19.09694,0.23432 38.30188,-0.71161 57.32957,0.6197 15.11881,6.20795 7.79987,24.95087 9.42442,37.52563 2.81573,13.90052 -11.75172,19.19219 -23.00823,17.12913 -25.19416,0 -50.38833,0 -75.58249,0 0.002,8.15799 0.004,16.31597 0.006,24.47396 5.34383,6.19642 10.75272,8.23217 19.08992,7.01145 20.36296,0 40.72591,0 61.08887,0 8.09575,6.84991 -6.3124,7.34285 -11.42934,6.61459 -20.51688,0 -41.03377,0 -61.55065,0 -1.80046,5.76571 -8.68632,8.88295 -14.29168,6.92158 z m 5.31378,-6.2216 c 10.93573,-9.66114 -14.43305,-9.63311 -3.21458,0.1491 1.10369,0.51268 2.15081,0.035 3.21458,-0.1491 z m -76.0142,-55.46963 c -1.34291,-8.60615 -22.25027,2.0611 -5.01111,0.5944 l 2.63076,-0.0432 z m 21.90155,0.11729 c 1.40165,-7.66156 -22.64714,0.4341 -6.26971,0.46414 1.85859,-1.09097 4.63821,1.15835 6.26971,-0.46414 z m 22.3487,-0.41498 c -1.56582,-7.39523 -20.31549,1.11131 -6.71156,0.77378 2.20649,-0.4764 4.77997,0.8449 6.71156,-0.77378 z m 103.50874,-2.10224 c 17.63065,-8.06871 -8.34187,-28.64501 -12.77241,-9.91059 -1.2427,6.92862 6.50581,12.503 12.77241,9.91059 z m -6.14605,-3.1868 c -12.93335,-9.48859 13.89183,-17.05604 7.93399,-1.90873 -1.66469,2.44148 -5.34559,3.21991 -7.93399,1.90873 z m -141.61294,-4.20286 c 0.7844,-7.65023 -20.98206,0.13027 -7.49214,0.46935 2.48954,0.0539 5.09923,0.51787 7.49214,-0.46935 z m 21.90155,0.11729 c 1.40162,-7.66154 -22.64713,0.4341 -6.26971,0.46415 1.85858,-1.09099 4.63823,1.15837 6.26971,-0.46415 z m 22.18004,-0.25398 c -2.25945,-7.85118 -20.70527,1.78884 -5.34596,0.60885 1.76706,0.0505 3.78391,0.57787 5.34596,-0.60885 z m -43.92753,-9.7696 c -1.40114,-7.69939 -21.16989,1.11103 -6.65788,0.54668 2.21274,0.007 4.5609,0.43851 6.65788,-0.54668 z m 21.74749,0.234 c 0.83833,-7.96831 -23.08877,0.90326 -5.57261,0.46325 l 2.86247,-0.0293 z m 22.18004,-0.25399 c -1.59946,-7.63429 -20.92945,1.24302 -6.03126,0.6045 1.99529,0.0559 4.2252,0.61905 6.03126,-0.6045 z m -44.08159,-47.4883 c -0.79189,-7.86021 -21.16156,0.89895 -6.78011,0.47475 2.25197,0.0498 4.63279,0.49504 6.78011,-0.47475 z m 21.90155,0.11729 c 1.40163,-7.66153 -22.64713,0.4341 -6.26971,0.46415 1.85858,-1.09099 4.63823,1.15837 6.26971,-0.46415 z m 22.3487,-0.41498 c -1.56582,-7.39523 -20.31548,1.1113 -6.71156,0.77377 2.20649,-0.47639 4.77996,0.84489 6.71156,-0.77377 z m 104.23534,-2.4307 c 16.4765,-8.96546 -9.64066,-27.70374 -13.49905,-9.51635 -1.28486,7.27205 7.20924,12.76174 13.49905,9.51635 z m -6.66892,-2.72052 c -14.12411,-11.3349 17.04172,-15.60806 6.45404,-0.71888 -1.84496,1.32614 -4.35815,1.50467 -6.45404,0.71888 z m -141.81667,-4.34067 c 0.7844,-7.65023 -20.98206,0.13027 -7.49214,0.46935 2.48954,0.0539 5.09923,0.51787 7.49214,-0.46935 z m 21.90155,0.11729 c 1.40164,-7.66153 -22.64713,0.4341 -6.26971,0.46415 1.85858,-1.09099 4.63823,1.15837 6.26971,-0.46415 z m 22.2693,-0.29116 c -0.77393,-7.36158 -20.30911,0.34524 -7.26514,0.70304 2.3951,-0.4619 5.12237,0.93502 7.26514,-0.70304 z m -44.01679,-9.73243 c -1.40114,-7.69938 -21.16988,1.11101 -6.65789,0.54669 2.21275,0.007 4.56087,0.43832 6.65789,-0.54669 z m 21.74749,0.23401 c 0.83836,-7.96833 -23.08878,0.90325 -5.57261,0.46324 l 2.86247,-0.0293 z m 22.18004,-0.25399 c -1.59944,-7.63431 -20.92946,1.24302 -6.03126,0.60449 1.99529,0.0559 4.22519,0.61903 6.03126,-0.60449 z m -44.08159,-47.4883 c -0.79185,-7.86023 -21.16157,0.898941 -6.78011,0.47474 2.25197,0.04977 4.63279,0.49502 6.78011,-0.47474 z m 21.90155,0.11729 c 1.40165,-7.661559 -22.64714,0.434103 -6.26971,0.464145 1.85859,-1.090971 4.63821,1.158345 6.26971,-0.464145 z m 22.3487,-0.41498 c -1.56582,-7.395233 -20.31549,1.111309 -6.71156,0.77378 2.20649,-0.476398 4.77997,0.8449 6.71156,-0.77378 z m 103.50874,-2.10224 c 17.62534,-8.05511 -8.34542,-28.654261 -12.76702,-9.909372 -1.25455,6.928475 6.50488,12.501212 12.76702,9.909372 z m -5.81003,-2.99462 c -13.47137,-8.572348 12.39296,-18.04461 7.92008,-2.755955 -1.57106,2.783353 -4.97216,3.88963 -7.92008,2.755955 z m -141.94896,-4.39504 c 0.7844,-7.650231 -20.98206,0.130266 -7.49214,0.469351 2.48954,0.05387 5.09923,0.517864 7.49214,-0.469351 z m 21.90155,0.11729 c 1.40163,-7.661534 -22.64713,0.434098 -6.26971,0.464154 1.85858,-1.09099 4.63823,1.158366 6.26971,-0.464154 z m 22.18004,-0.25398 c -2.25944,-7.851183 -20.70527,1.788842 -5.34596,0.60885 1.76706,0.05052 3.78391,0.577874 5.34596,-0.60885 z m -43.92753,-9.76961 c -1.40115,-7.699385 -21.16987,1.111071 -6.65789,0.546618 2.21275,0.0071 4.56082,0.438207 6.65789,-0.546618 z m 21.74749,0.23401 c 0.83834,-7.96831 -23.08878,0.903254 -5.57261,0.463254 l 2.86247,-0.02933 z m 22.02305,-0.0671 c 1.87566,-7.363791 -21.13175,-0.251056 -7.33732,0.422213 2.43947,0.0574 4.97864,0.473489 7.33732,-0.422213 z"
             style="fill:#000003;fill-opacity:1;stroke-width:0.26458332" />
        </g>
      </g>
    </g>
  </g>
</svg>
