<?xml version="1.0" encoding="UTF-8" standalone="no"?>
<!-- Created with Inkscape (http://www.inkscape.org/) -->

<svg
   xmlns:dc="http://purl.org/dc/elements/1.1/"
   xmlns:cc="http://creativecommons.org/ns#"
   xmlns:rdf="http://www.w3.org/1999/02/22-rdf-syntax-ns#"
   xmlns:svg="http://www.w3.org/2000/svg"
   xmlns="http://www.w3.org/2000/svg"
   xmlns:sodipodi="http://sodipodi.sourceforge.net/DTD/sodipodi-0.dtd"
   xmlns:inkscape="http://www.inkscape.org/namespaces/inkscape"
   width="150"
   height="150"
   viewBox="0 0 39.6875 39.6875"
   version="1.1"
   id="svg922"
   inkscape:version="0.92.4 (5da689c313, 2019-01-14)"
   sodipodi:docname="USO_games_terminal-overload.svg">
  <title
     id="title1437">USOICON</title>
  <defs
     id="defs916">
    <clipPath
       id="clipPath1521"
       clipPathUnits="userSpaceOnUse">
      <rect
         y="66.644836"
         x="57.114269"
         height="151.42299"
         width="172.87534"
         id="rect1523"
         style="opacity:0.875;fill:#000000;fill-opacity:1;stroke:#000000;stroke-width:0.60403091;stroke-linejoin:round;stroke-miterlimit:4;stroke-dasharray:none;stroke-opacity:1" />
    </clipPath>
  </defs>
  <sodipodi:namedview
     id="base"
     pagecolor="#ffffff"
     bordercolor="#666666"
     borderopacity="1.0"
     inkscape:pageopacity="0.0"
     inkscape:pageshadow="2"
     inkscape:zoom="3.6124444"
     inkscape:cx="109.94526"
     inkscape:cy="32.91492"
     inkscape:document-units="px"
     inkscape:current-layer="layer7"
     showgrid="false"
     inkscape:window-width="1920"
     inkscape:window-height="981"
     inkscape:window-x="1920"
     inkscape:window-y="50"
     inkscape:window-maximized="1"
     units="px" />
  <metadata
     id="metadata919">
    <rdf:RDF>
      <cc:Work
         rdf:about="">
        <dc:format>image/svg+xml</dc:format>
        <dc:type
           rdf:resource="http://purl.org/dc/dcmitype/StillImage" />
        <dc:title>USOICON</dc:title>
        <cc:license
           rdf:resource="http://creativecommons.org/licenses/by-sa/4.0/" />
      </cc:Work>
      <cc:License
         rdf:about="http://creativecommons.org/licenses/by-sa/4.0/">
        <cc:permits
           rdf:resource="http://creativecommons.org/ns#Reproduction" />
        <cc:permits
           rdf:resource="http://creativecommons.org/ns#Distribution" />
        <cc:requires
           rdf:resource="http://creativecommons.org/ns#Notice" />
        <cc:requires
           rdf:resource="http://creativecommons.org/ns#Attribution" />
        <cc:permits
           rdf:resource="http://creativecommons.org/ns#DerivativeWorks" />
        <cc:requires
           rdf:resource="http://creativecommons.org/ns#ShareAlike" />
      </cc:License>
    </rdf:RDF>
  </metadata>
  <g
     style="display:inline"
     transform="translate(-35.46637,-112.59198)"
     id="layer1"
     inkscape:groupmode="layer"
     inkscape:label="toonbox" />
  <g
     inkscape:label="text"
     id="layer3"
     inkscape:groupmode="layer" />
  <g
     style="display:inline"
     inkscape:label="icon_games"
     id="layer7"
     inkscape:groupmode="layer">
    <g
       id="g15971">
      <path
         style="display:inline;opacity:0.875;fill:#999999;fill-opacity:1;stroke:none;stroke-width:0.11845408;stroke-linejoin:round;stroke-miterlimit:4;stroke-dasharray:none;stroke-opacity:0.97175137"
         d="M 1.435191,10.12791 C 2.670256,9.29705 4.324329,9.43582 5.75553,9.20511 14.11545,8.61268 22.517162,8.68995 30.881762,9.1576 c 2.392119,0.20608 4.838324,0.26932 7.150425,0.97031 0.872353,1.67498 0.817461,3.66984 1.026746,5.51683 0.208491,4.02511 0.362445,8.13136 -0.532305,12.08777 -0.230317,1.64927 -2.017724,2.0517 -3.40708,2.25864 C 28.802681,30.85612 22.40423,30.81147 16.04062,30.81293 11.303807,30.71862 6.537542,30.74635 1.839737,30.07418 0.173005,29.52829 0.822947,27.03924 0.434179,25.65651 0.154966,21.09087 0.021365,16.47217 0.692557,11.93449 0.848231,11.32021 0.903907,10.54918 1.435191,10.12791 Z"
         id="rect49496"
         inkscape:connector-curvature="0" />
      <path
         style="display:inline;fill:#000000;stroke-width:0.37203047"
         d="M 1.803349,30.70864 C 0.056742,30.0892 0.231437,27.93756 0.087588,26.427 -0.022935,21.93179 -0.070132,17.42779 0.099217,12.93387 -0.027874,11.27811 1.27784,10.0868 2.683582,9.49431 4.615709,8.56731 6.836395,8.9315 8.909365,8.7639 16.59615,8.63948 24.285544,8.62691 31.972812,8.67993 c 2.150882,0.14121 4.537543,-0.0199 6.403551,1.23592 1.58486,1.37874 1.255708,3.71898 1.302004,5.60595 -0.178243,4.07095 0.01584,8.16305 -0.388876,12.21995 -0.293352,1.71142 -2.120394,2.65314 -3.654582,3.02944 -6.368162,0.39372 -12.757085,0.28816 -19.135233,0.3134 C 11.668868,31.0283 6.826658,31.10952 2.006621,30.75364 L 1.803349,30.7086 Z m 34.717949,-1.05781 c 1.660436,-0.66982 2.120657,-2.56797 2.182495,-4.18169 C 38.903556,21.6571 38.926032,17.82461 38.6784,14.01451 38.609934,12.47205 38.055319,10.73538 36.494762,10.11382 34.51138,9.13075 32.202264,9.50823 30.063573,9.36171 22.019563,9.34057 13.971808,9.23982 5.930238,9.4697 4.247551,9.52117 2.061367,9.74531 1.291134,11.49417 c -0.682107,2.6627 -0.37748,5.45735 -0.46467,8.18069 0.080658,2.82901 -0.202804,5.71611 0.421771,8.49628 0.655233,1.84726 2.893842,2.0042 4.558802,2.11114 8.176545,0.4213 16.369453,0.15886 24.551012,0.03302 2.04628,-0.14679 4.225389,0.10711 6.163249,-0.66447 z M 4.297406,28.9474 c -0.939032,0.02717 -2.493051,-2.1182 -0.727168,-0.88447 1.706475,0.99084 3.797167,0.59334 5.679761,0.73138 0.843628,0.09701 3.276883,-0.14441 3.328971,0.24148 -2.712643,0.43249 -5.596207,0.56419 -8.281564,-0.08839 z m 31.24001,-17.1062 c -1.499147,-0.78086 -3.308903,-0.4003 -4.94344,-0.53994 -1.173066,-0.10336 -4.022293,-0.01807 -4.347208,-0.50636 2.904245,-0.07023 5.874879,-0.31161 8.734279,0.31742 0.913242,-0.14345 1.834744,2.01352 0.556369,0.72888 z"
         id="path49494"
         inkscape:connector-curvature="0" />
      <path
         style="font-style:normal;font-variant:normal;font-weight:normal;font-stretch:normal;font-size:3.68505955px;font-family:Insaniburger;-inkscape-font-specification:Insaniburger;opacity:1;vector-effect:none;fill:#000000;fill-opacity:1;stroke:none;stroke-width:0.04318429;stroke-linecap:butt;stroke-linejoin:miter;stroke-miterlimit:4;stroke-dasharray:none;stroke-dashoffset:0;stroke-opacity:1"
         d="M 3.3791664,25.133985 C 3.3301104,25.715337 3.4839448,26.34859 3.288967,26.893873 2.3638255,27.242307 2.7255122,25.996695 2.6575711,25.491418 2.8209968,25.002685 1.290488,24.860171 2.4778253,24.568973 c 0.5360211,-0.07329 2.2069342,-0.0157 1.1770795,0.565012 -0.091913,0 -0.1838256,0 -0.2757384,0 z m 2.0499867,1.833624 C 6.4364872,26.484591 3.9170714,26.221382 5.3562647,26.047244 6.2746794,25.615998 3.9415856,25.196964 5.4291531,25.133985 6.3944443,24.55486 4.1285282,24.199479 4.1936945,24.968176 c 0.051443,0.634952 -0.1082949,1.323494 0.090199,1.922143 0.3442329,0.15207 0.7733559,0.04516 1.1452592,0.07729 z m 1.9752763,-1.019865 c 0.8521513,0.544507 -0.028249,1.524491 -0.480857,0.513788 -0.5979143,-1.093938 0.049188,1.039341 -0.9413783,0.428787 -0.183572,-0.673298 -0.068508,-1.440811 -0.06765,-2.147445 0.6884051,-0.546268 2.486028,0.0378 1.6509227,1.087271 z M 6.61359,25.052253 c -0.3338829,1.291858 1.3335227,-0.0092 0,0 z m 2.5893609,0.255855 c 0.2476813,-0.618507 1.3889511,-1.121541 1.2026591,-0.0698 -0.09538,0.552907 0.21378,1.299303 -0.202949,1.709976 C 9.2330754,27.32744 10.010935,25.354701 9.5043895,25.883339 9.2479072,26.844373 8.6100059,25.10383 8.7218872,26.04141 9.1016289,26.888294 7.8216141,27.367794 8.0002918,26.298271 8.0954379,25.74468 7.7868845,24.997349 8.2032405,24.586297 8.6985573,24.46021 8.9062944,25.045765 9.2029509,25.308108 Z m 2.1064751,1.350343 c -0.595202,0.90814 -0.881912,-0.44655 -0.721594,-0.990496 -0.334115,-0.666394 0.572164,-1.693334 0.721594,-0.609734 0,0.533409 0,1.06682 0,1.60023 z m 1.669145,-1.019864 c -0.34144,-0.666964 0.593312,-1.647191 0.721595,-0.580366 -0.05074,0.605063 0.107303,1.263286 -0.0902,1.832098 -0.656116,0.393504 -1.084552,-0.928372 -1.396725,-0.905833 0.376741,0.753622 -0.773678,1.479687 -0.721594,0.40383 0.05004,-0.574861 -0.106302,-1.202581 0.0902,-1.741166 0.649354,-0.318132 0.98135,0.664475 1.396725,0.991437 z m 2.175719,0.337586 c -0.11454,-0.952461 -0.568682,0.235632 0,0 z m -0.528441,0.568565 c -0.654431,1.091441 -0.926498,-0.43903 -0.341556,-0.950536 0.131643,-0.752657 0.982724,-1.457641 1.248474,-0.374405 0.14466,0.550247 1.051142,1.454637 0.213742,1.747812 -0.384289,-0.418538 -0.473978,-0.48908 -1.12066,-0.422871 z m 2.957448,0.422871 c -0.541719,0.0041 -1.506714,0.168914 -1.28648,-0.669338 0.09538,-0.552907 -0.21378,-1.299303 0.202948,-1.709976 0.864506,-0.09189 0.40253,1.037806 0.518646,1.550468 -0.16945,0.532347 1.435821,0.0138 0.564886,0.828846 z m 0.699728,-0.904374 c -1.043418,-0.640726 1.700097,-0.937244 1.308348,-0.07063 -0.41348,0.141449 -0.875658,0.04009 -1.308348,0.07063 z m 4.141886,-0.318042 c 0.02509,2.146917 -3.655659,1.113412 -2.400763,-0.71526 0.65303,-0.983912 2.495589,-0.527173 2.400763,0.71526 z m -0.863728,-0.445969 c -1.564308,-0.930894 -0.957682,2.145539 0.122543,0.689386 0.07719,-0.228625 0.0523,-0.506639 -0.122543,-0.689386 z m 2.139275,1.675492 c -0.590364,-0.339116 -0.678269,-1.162993 -1.032331,-1.725364 -0.284497,-1.317389 0.963386,-0.251294 1.014606,0.458133 0.09528,-0.40045 1.068675,-1.907637 1.107406,-0.587715 -0.308591,0.591861 -0.519747,1.239737 -0.897438,1.791871 z m 2.534694,-0.0071 c 1.007334,-0.483018 -1.512082,-0.746227 -0.07289,-0.920365 0.918414,-0.431246 -1.41468,-0.85028 0.07289,-0.913259 0.965291,-0.579125 -1.300625,-0.934506 -1.235459,-0.165809 0.05144,0.634952 -0.108295,1.323494 0.0902,1.922143 0.344233,0.15207 0.773356,0.04516 1.145259,0.07729 z m 1.975277,-1.019865 c 0.852151,0.544507 -0.02825,1.524491 -0.480858,0.513788 -0.597913,-1.093938 0.04919,1.039341 -0.941378,0.428787 -0.183572,-0.673298 -0.06851,-1.440811 -0.06765,-2.147445 0.688405,-0.546268 2.486028,0.0378 1.650923,1.087271 z M 27.41959,25.052253 c -0.333884,1.291858 1.333522,-0.0092 0,0 z m 2.673182,1.915356 c -0.541719,0.0041 -1.506714,0.168914 -1.286481,-0.669338 0.09538,-0.552907 -0.21378,-1.299303 0.202948,-1.709976 0.864507,-0.09189 0.40253,1.037806 0.518647,1.550468 -0.169451,0.532347 1.43582,0.0138 0.564886,0.828846 z m 2.986602,-1.222416 c 0.0251,2.146917 -3.655658,1.113412 -2.400761,-0.71526 0.65303,-0.983912 2.495589,-0.527173 2.400761,0.71526 z m -0.863727,-0.445969 c -1.564308,-0.930894 -0.957682,2.145539 0.122544,0.689386 0.07719,-0.228625 0.0523,-0.506639 -0.122544,-0.689386 z m 2.290519,0.676949 c -0.114541,-0.952461 -0.568682,0.235632 0,0 z m -0.528441,0.568565 c -0.654432,1.091441 -0.926499,-0.43903 -0.341557,-0.950536 0.131644,-0.752657 0.982724,-1.457641 1.248474,-0.374405 0.14466,0.550247 1.051141,1.454637 0.213743,1.747812 -0.384289,-0.418538 -0.473979,-0.48908 -1.12066,-0.422871 z m 2.764295,0.422871 c -0.720587,0.157229 -1.321795,-0.155266 -1.093327,-0.939473 0.09339,-0.5035 -0.315475,-1.555863 0.545495,-1.459163 1.60505,-0.380956 2.109552,2.091936 0.547832,2.398636 z m 0.275154,-1.22064 c -0.217117,-1.228326 -0.925937,-0.52203 -0.646886,0.295781 -0.224177,0.87154 0.807022,0.269573 0.646886,-0.295781 z"
         id="text49550"
         inkscape:connector-curvature="0" />
      <g
         id="g53695"
         transform="matrix(0.23216083,0,0,0.26739887,-40.66702,-79.695953)">
        <path
           style="fill:#000000;fill-opacity:1;stroke-width:0.56041962"
           d="m 225.79653,381.36576 c -5.04874,-5.70045 -3.09798,-14.35633 -2.45039,-21.29598 2.14357,-8.89697 7.83465,-18.94365 17.6609,-20.54413 7.25222,-1.3964 13.14991,3.76259 20.06409,4.17152 6.86243,-0.25136 12.65893,-5.79643 19.79539,-4.07863 10.07438,0.99305 15.61039,11.35051 17.88548,20.14 0.72391,7.0246 2.71218,15.81255 -2.37779,21.60722 -6.22795,4.55619 -12.2931,-2.23293 -16.91721,-5.91504 -5.78798,-5.77763 -14.55245,-3.45633 -21.84303,-3.96964 -6.37158,-0.56289 -12.86431,0.86093 -17.22384,5.87987 -3.90129,3.36771 -9.44686,8.07986 -14.5936,4.00481 z"
           id="path53677"
           inkscape:connector-curvature="0" />
        <path
           style="fill:#ffffff;fill-opacity:1;stroke-width:0.56041962"
           d="m 277.9872,362.41501 c 5.58994,-5.40079 -8.06317,-7.57497 -4.77264,-0.67341 1.23932,1.3571 3.24548,2.00683 4.77264,0.67341 z"
           id="path53675"
           inkscape:connector-curvature="0" />
        <path
           style="fill:#ffffff;fill-opacity:1;stroke-width:0.56041962"
           d="m 247.09052,359.86347 c 0.27723,-3.25746 8.70112,-2.32963 4.12382,-6.78295 -5.26871,1.19244 -3.64993,-8.73224 -9.37797,-3.68051 1.20337,5.19333 -8.41269,2.02905 -5.05105,7.57352 3.38408,0.29645 5.45041,0.84964 5.40535,4.6496 1.57622,0.88603 5.19447,0.91959 4.89985,-1.75966 z"
           id="path53673"
           inkscape:connector-curvature="0" />
        <path
           style="fill:#fffffc;fill-opacity:1;stroke-width:0.56041962"
           d="m 288.72216,357.58638 c 4.50178,-7.79772 -11.51832,-3.99212 -3.56811,0.81562 1.22542,0.443 2.60725,-0.0116 3.56811,-0.81562 z"
           id="path53671"
           inkscape:connector-curvature="0" />
        <path
           style="fill:#f8ffff;fill-opacity:1;stroke-width:0.56041962"
           d="m 278.37813,352.42476 c 4.38079,-8.166 -11.41132,-4.0188 -3.58973,0.81533 1.23238,0.44154 2.62307,-0.004 3.58973,-0.81533 z"
           id="path53664"
           inkscape:connector-curvature="0" />
      </g>
    </g>
  </g>
</svg>
