<?xml version="1.0" encoding="UTF-8" standalone="no"?>
<!-- Created with Inkscape (http://www.inkscape.org/) -->

<svg
   xmlns:dc="http://purl.org/dc/elements/1.1/"
   xmlns:cc="http://creativecommons.org/ns#"
   xmlns:rdf="http://www.w3.org/1999/02/22-rdf-syntax-ns#"
   xmlns:svg="http://www.w3.org/2000/svg"
   xmlns="http://www.w3.org/2000/svg"
   xmlns:sodipodi="http://sodipodi.sourceforge.net/DTD/sodipodi-0.dtd"
   xmlns:inkscape="http://www.inkscape.org/namespaces/inkscape"
   width="150"
   height="150"
   viewBox="0 0 39.6875 39.6875"
   version="1.1"
   id="svg922"
   inkscape:version="0.92.4 (5da689c313, 2019-01-14)"
   sodipodi:docname="USO_development_vscode.svg">
  <title
     id="title1437">USOICON</title>
  <defs
     id="defs916">
    <clipPath
       id="clipPath1521"
       clipPathUnits="userSpaceOnUse">
      <rect
         y="66.644836"
         x="57.114269"
         height="151.42299"
         width="172.87534"
         id="rect1523"
         style="opacity:0.875;fill:#000000;fill-opacity:1;stroke:#000000;stroke-width:0.60403091;stroke-linejoin:round;stroke-miterlimit:4;stroke-dasharray:none;stroke-opacity:1" />
    </clipPath>
  </defs>
  <sodipodi:namedview
     id="base"
     pagecolor="#ffffff"
     bordercolor="#666666"
     borderopacity="1.0"
     inkscape:pageopacity="0.0"
     inkscape:pageshadow="2"
     inkscape:zoom="1.6084607"
     inkscape:cx="63.624969"
     inkscape:cy="107.61773"
     inkscape:document-units="px"
     inkscape:current-layer="layer5"
     showgrid="false"
     inkscape:window-width="830"
     inkscape:window-height="642"
     inkscape:window-x="2842"
     inkscape:window-y="99"
     inkscape:window-maximized="0"
     units="px" />
  <metadata
     id="metadata919">
    <rdf:RDF>
      <cc:Work
         rdf:about="">
        <dc:format>image/svg+xml</dc:format>
        <dc:type
           rdf:resource="http://purl.org/dc/dcmitype/StillImage" />
        <dc:title>USOICON</dc:title>
        <cc:license
           rdf:resource="http://creativecommons.org/licenses/by-sa/4.0/" />
      </cc:Work>
      <cc:License
         rdf:about="http://creativecommons.org/licenses/by-sa/4.0/">
        <cc:permits
           rdf:resource="http://creativecommons.org/ns#Reproduction" />
        <cc:permits
           rdf:resource="http://creativecommons.org/ns#Distribution" />
        <cc:requires
           rdf:resource="http://creativecommons.org/ns#Notice" />
        <cc:requires
           rdf:resource="http://creativecommons.org/ns#Attribution" />
        <cc:permits
           rdf:resource="http://creativecommons.org/ns#DerivativeWorks" />
        <cc:requires
           rdf:resource="http://creativecommons.org/ns#ShareAlike" />
      </cc:License>
    </rdf:RDF>
  </metadata>
  <g
     style="display:inline"
     transform="translate(-35.46637,-112.59198)"
     id="layer1"
     inkscape:groupmode="layer"
     inkscape:label="toonbox" />
  <g
     inkscape:label="text"
     id="layer3"
     inkscape:groupmode="layer" />
  <g
     style="display:inline"
     inkscape:label="icon_development"
     id="layer5"
     inkscape:groupmode="layer">
    <g
       id="g2414">
      <path
         style="display:inline;opacity:0.875;fill:#999999;fill-opacity:1;stroke:none;stroke-width:0.11845408;stroke-linejoin:round;stroke-miterlimit:4;stroke-dasharray:none;stroke-opacity:0.97175137"
         d="M 1.435191,10.12791 C 2.670256,9.29705 4.324329,9.43582 5.75553,9.20511 14.11545,8.61268 22.517162,8.68995 30.881762,9.1576 c 2.392119,0.20608 4.838324,0.26932 7.150425,0.97031 0.872353,1.67498 0.817461,3.66984 1.026746,5.51683 0.208491,4.02511 0.362445,8.13136 -0.532305,12.08777 -0.230317,1.64927 -2.017724,2.0517 -3.40708,2.25864 C 28.802681,30.85612 22.40423,30.81147 16.04062,30.81293 11.303807,30.71862 6.537542,30.74635 1.839737,30.07418 0.173005,29.52829 0.822947,27.03924 0.434179,25.65651 0.154966,21.09087 0.021365,16.47217 0.692557,11.93449 0.848231,11.32021 0.903907,10.54918 1.435191,10.12791 Z"
         id="rect49496"
         inkscape:connector-curvature="0" />
      <path
         style="display:inline;fill:#000000;stroke-width:0.37203047"
         d="M 1.803349,30.70864 C 0.056742,30.0892 0.231437,27.93756 0.087588,26.427 -0.022935,21.93179 -0.070132,17.42779 0.099217,12.93387 -0.027874,11.27811 1.27784,10.0868 2.683582,9.49431 4.615709,8.56731 6.836395,8.9315 8.909365,8.7639 16.59615,8.63948 24.285544,8.62691 31.972812,8.67993 c 2.150882,0.14121 4.537543,-0.0199 6.403551,1.23592 1.58486,1.37874 1.255708,3.71898 1.302004,5.60595 -0.178243,4.07095 0.01584,8.16305 -0.388876,12.21995 -0.293352,1.71142 -2.120394,2.65314 -3.654582,3.02944 -6.368162,0.39372 -12.757085,0.28816 -19.135233,0.3134 C 11.668868,31.0283 6.826658,31.10952 2.006621,30.75364 L 1.803349,30.7086 Z m 34.717949,-1.05781 c 1.660436,-0.66982 2.120657,-2.56797 2.182495,-4.18169 C 38.903556,21.6571 38.926032,17.82461 38.6784,14.01451 38.609934,12.47205 38.055319,10.73538 36.494762,10.11382 34.51138,9.13075 32.202264,9.50823 30.063573,9.36171 22.019563,9.34057 13.971808,9.23982 5.930238,9.4697 4.247551,9.52117 2.061367,9.74531 1.291134,11.49417 c -0.682107,2.6627 -0.37748,5.45735 -0.46467,8.18069 0.080658,2.82901 -0.202804,5.71611 0.421771,8.49628 0.655233,1.84726 2.893842,2.0042 4.558802,2.11114 8.176545,0.4213 16.369453,0.15886 24.551012,0.03302 2.04628,-0.14679 4.225389,0.10711 6.163249,-0.66447 z M 4.297406,28.9474 c -0.939032,0.02717 -2.493051,-2.1182 -0.727168,-0.88447 1.706475,0.99084 3.797167,0.59334 5.679761,0.73138 0.843628,0.09701 3.276883,-0.14441 3.328971,0.24148 -2.712643,0.43249 -5.596207,0.56419 -8.281564,-0.08839 z m 31.24001,-17.1062 c -1.499147,-0.78086 -3.308903,-0.4003 -4.94344,-0.53994 -1.173066,-0.10336 -4.022293,-0.01807 -4.347208,-0.50636 2.904245,-0.07023 5.874879,-0.31161 8.734279,0.31742 0.913242,-0.14345 1.834744,2.01352 0.556369,0.72888 z"
         id="path49494"
         inkscape:connector-curvature="0" />
      <path
         style="font-style:normal;font-variant:normal;font-weight:normal;font-stretch:normal;font-size:4.94612217px;font-family:Insaniburger;-inkscape-font-specification:Insaniburger;opacity:1;vector-effect:none;fill:#000000;fill-opacity:1;stroke:none;stroke-width:0.05796236;stroke-linecap:butt;stroke-linejoin:miter;stroke-miterlimit:4;stroke-dasharray:none;stroke-dashoffset:0;stroke-opacity:1"
         d="m 12.698611,28.025944 c -0.600228,-0.302307 -0.665236,-1.297288 -0.993156,-1.933024 -0.669672,-0.788297 -0.07588,-2.586376 0.56678,-1.043704 0.210833,0.436541 0.422691,1.670085 0.631561,0.583032 0.05157,-1.158897 1.575409,-1.702726 1.00026,-0.114082 -0.374208,0.814341 -0.537845,1.830754 -1.082603,2.484128 z m 2.740301,0 c -0.897498,0.52993 -1.805394,-1.558493 -0.536241,-1.015314 1.397307,0.440818 0.377595,-0.716038 -0.322839,-0.898726 -1.173736,-1.660868 2.155254,-2.616389 1.647026,-0.821446 -0.624542,-0.249817 -1.676303,0.04711 -0.496844,0.54763 1.122854,0.240524 0.785984,2.298941 -0.291102,2.187856 z m 4.972815,-0.655557 c -1.254253,2.267628 -4.115061,-1.22594 -2.072325,-2.766966 0.598281,-1.027953 2.999411,0.338957 1.573293,0.850926 -1.497949,-1.266161 -1.94107,2.366613 -0.236384,1.537629 0.300061,-0.216886 0.736245,-0.133571 0.735416,0.378411 z m 3.315941,-1.188531 c 0.03014,3.220036 -4.390978,1.669942 -2.883665,-1.072776 0.791713,-1.473202 2.988535,-0.799555 2.883665,1.072776 z m -1.037463,-0.668882 c -1.547224,-1.391739 -1.552518,2.725651 -0.0022,1.332435 0.268302,-0.357575 0.267963,-0.973193 0.0022,-1.332435 z m 2.536749,2.502311 c -0.552927,0.01537 -1.516622,0.173422 -1.313244,-0.866168 0.05821,-0.864363 -0.125038,-1.805092 0.108343,-2.615481 0.753887,-0.244972 1.907306,-0.272018 2.202966,0.859419 0.352431,0.976701 0.0022,2.516016 -0.998065,2.62223 z m 0.330499,-1.830764 c -0.09402,-1.532687 -1.13131,-1.089496 -0.777002,0.165479 -0.329794,1.413575 0.801791,1.06446 0.777002,-0.165479 z m 2.473276,1.830764 c 1.089783,-0.787744 -0.638093,-0.675927 -0.617225,-1.149289 0.09475,-0.286101 1.544869,-0.445578 0.529675,-1.08387 -0.672395,0.337877 -0.734829,-0.830943 -0.03382,-0.516985 1.03989,-0.235357 0.0066,-1.198611 -0.622413,-0.847427 -0.859467,-0.253587 -0.768624,0.875944 -0.740183,1.570508 0.09149,0.651535 -0.221546,1.554236 0.243771,1.998083 0.410116,0.05966 0.827527,0.01535 1.240194,0.02898 z"
         id="text49550"
         inkscape:connector-curvature="0" />
      <g
         id="g55062"
         transform="matrix(0.09345129,0,0,0.08906515,23.447707,-20.751848)">
        <path
           style="fill:#8c8c8c;fill-opacity:1;stroke-width:0.26458332"
           d="m -18.197595,491.89564 c -6.909995,-3.20867 -1.994182,-14.36904 -12.879485,-14.36821 -3.688427,-3.62866 -9.636542,4.35902 -13.384123,-0.9047 -3.077553,-3.9904 -6.44676,-10.75604 -0.23207,-13.7211 4.876759,-4.06321 4.344426,-14.93672 -2.129247,-17.91357 -3.950155,-4.35111 1.042865,-12.09926 5.580164,-13.74022 7.037776,2.94476 11.973653,1.27464 18.240136,-3.44921 -0.753313,-6.40634 3.429616,-12.03537 10.073612,-10.25204 9.7991689,1.12548 9.9548703,21.89738 23.931509,13.77372 7.160054,-0.95157 13.320307,12.03775 5.429687,15.56199 -5.34635,5.15265 -3.121977,15.89327 3.593556,19.60263 0.971963,6.08635 -5.218366,15.41944 -12.075927,10.75596 -7.14289385,-1.66481 -15.141671,6.40019 -15.877529,13.54173 -2.677597,2.52467 -7.034662,0.93569 -10.270283,1.11302 z m 5.89394,-26.46149 c 10.8672955,-1.23192 11.97891803,-17.82721 1.703467,-20.86359 -9.886374,-3.86592 -18.817154,9.63586 -11.663962,17.23828 2.308362,2.84388 6.357035,4.34291 9.960495,3.62531 z m -84.941918,10.55379 c -7.959047,-1.10081 -11.368307,-9.61668 -9.921877,-16.82826 0,-29.3583 0,-58.71661 0,-88.07491 2.48633,-8.94336 12.530765,-9.96671 20.337787,-9.10068 31.661453,0.19227 63.393171,-0.38209 95.011083,0.28523 11.360703,1.72638 10.231948,14.22841 9.931331,22.7462 -0.01075,12.60643 0.03416,25.21325 -0.06615,37.81932 -4.437297,-3.94153 -14.8906172,4.07195 -13.16302,-4.84933 0,-7.90742 0,-15.81483 0,-23.72225 -32.896525,0 -65.793049,0 -98.689574,0 0,22.84236 0,45.68472 0,68.52708 12.328727,0 24.657453,0 36.98618,0 -4.499306,4.97822 5.385354,15.81817 -4.086636,13.48601 -12.105324,-0.17132 -24.265696,0.26888 -36.339124,-0.28841 z m 10.95389,-92.66688 c 6.463706,-4.24859 -2.422544,-13.16702 -6.85285,-7.41567 -3.769059,4.44282 2.356843,10.87365 6.85285,7.41567 z m 14.2603,0.53057 c 6.278903,-2.38776 1.337598,-12.46038 -4.25651,-9.19367 -6.307374,3.01794 -1.246639,11.74091 4.25651,9.19367 z m 15.08125,0 c 8.63091,-3.9843 -3.800176,-15.70088 -6.94656,-6.05047 -1.450772,4.039 3.289414,7.80241 6.94656,6.05047 z"
           id="path55037"
           inkscape:connector-curvature="0" />
        <path
           style="fill:#606060;fill-opacity:1;stroke-width:0.26458332"
           d="m -17.012326,491.98232 c -7.060105,-2.80497 -8.963022,-20.03318 -20.10228,-14.41957 -6.538624,3.72113 -11.84968,-5.51719 -11.016487,-11.07574 7.82341,-4.04646 9.324742,-16.8956 1.662286,-21.41193 -4.910368,-4.36484 1.705036,-15.84982 8.071513,-13.42552 5.884631,4.67245 9.594558,-2.6503 15.40689,-3.71079 0.10297,-5.25988 2.181913,-12.19295 8.95628,-10.26025 11.3571439,-1.71025 6.6015292,15.26558 18.3611573,15.57967 3.5851944,0.25609 9.2651357,-4.65269 12.1575897,0.25535 4.906794,4.54488 4.835401,11.68744 -1.558641,14.53788 -2.74824,5.97741 -1.7573,14.28532 4.571063,17.88206 2.028443,4.51364 -2.11461,11.85024 -7.048817,12.46691 -7.0116086,-3.98721 -17.1807467,-0.1584 -18.4379705,8.10327 -0.055654,6.26838 -6.6081135,5.68319 -11.0225835,5.47866 z m 6.756461,-27.02814 c 11.01085788,-3.39544 7.8599285,-21.12708 -3.378321,-20.94706 -12.472986,-1.14705 -15.681711,18.71308 -3.178062,21.28635 2.069028,0.67107 4.553793,0.44417 6.556383,-0.33929 z m -88.640198,10.55154 c -12.406247,-4.68541 -7.385217,-18.8883 -8.403677,-28.90729 0.27533,-25.14786 -0.54985,-50.43665 0.41063,-75.49677 3.65453,-12.56243 18.036773,-8.41755 27.679254,-9.11355 29.546165,0.33497 59.169288,-0.67327 88.666816,0.51058 9.516127,2.83262 9.147299,13.80765 8.655791,21.84571 0,12.81279 0,25.62558 0,38.43837 -4.098705,-3.96553 -13.9033576,3.65372 -13.229166,-3.74971 0,-8.2566 0,-16.5132 0,-24.7698 -32.984719,0 -65.969439,0 -98.954158,0 0,22.84236 0,45.68472 0,68.52708 12.276489,0.13483 25.097057,-0.26625 37.03866,0.19844 -3.818075,6.33552 5.442394,16.01696 -5.98692,13.02592 -11.926183,-0.33157 -24.080595,0.63005 -35.87723,-0.50898 z m 11.96924,-91.70117 c 10.235231,-7.66995 -9.055619,-14.49051 -7.45001,-3.43192 1.119786,2.96959 4.439466,5.1525 7.45001,3.43192 z m 15.51869,-0.27849 c 9.459067,-6.85224 -10.713585,-14.49098 -7.41062,-2.28855 0.904709,2.85855 4.976338,4.15098 7.41062,2.28855 z m 14.95463,0.0961 c 6.851244,-3.28847 -1.50212,-13.81933 -6.32229,-7.79123 -4.172635,3.86275 1.51891,11.04156 6.32229,7.79123 z"
           id="path55035"
           inkscape:connector-curvature="0" />
        <path
           style="fill:#000000;fill-opacity:1;stroke-width:0.26458332"
           d="m -19.061206,491.45392 c -1.67903,-7.89004 -7.483714,-12.95796 -14.84216,-15.14257 -6.631553,5.08269 -13.982221,-1.26517 -14.431592,-8.44617 3.880788,-5.75371 9.217771,-9.00492 6.341972,-17.56512 -0.307146,-3.93652 -9.182688,-6.14042 -5.630706,-11.52762 2.018189,-10.97051 10.999465,-4.68269 16.571991,-6.49822 11.762872,0.48604 5.304696,-15.37276 15.774633,-14.46323 4.674593,-1.13229 9.9408748,1.18125 9.458869,6.67311 2.0332523,5.53903 11.0815614,11.41903 17.336131,6.82059 11.444139,2.04979 9.297943,14.34664 2.31276,18.72387 -3.649936,9.00817 3.68307,11.95052 6.256642,18.3178 -0.543139,7.78124 -8.348445,13.0967 -15.190223,7.6731 -7.9253529,3.23222 -10.0356675,8.739 -13.5782975,15.18803 -2.9793105,1.18635 -7.3023875,0.8746 -10.3800195,0.24643 z"
           id="path55052"
           inkscape:connector-curvature="0" />
        <path
           style="fill:#ffffff;fill-opacity:1;stroke-width:0.26458332"
           d="m -9.276311,464.53823 c 10.4961697,-4.15202 6.1061017,-21.9938 -5.286978,-20.46546 -10.435573,-0.38474 -14.572989,15.68168 -4.775385,20.25632 2.900355,1.76982 7.127862,1.89108 10.062363,0.20914 z"
           id="path55050"
           inkscape:connector-curvature="0" />
        <path
           style="fill:#000000;fill-opacity:1;stroke-width:0.26458332"
           d="m -98.893483,475.39915 c -9.230327,-2.48795 -8.723237,-13.13472 -8.292047,-20.76675 0.14542,-27.57167 -0.45652,-55.21933 0.15467,-82.74363 1.36456,-8.57076 10.568007,-10.67108 17.855048,-9.52103 32.590144,0.12366 65.269117,-0.43901 97.8037561,0.11352 9.9057739,1.89149 10.1497989,13.22881 9.4798969,21.21331 0.0016,13.02051 0.0032,26.04102 0.0048,39.06153 -4.100437,-3.97227 -13.9322134,3.6112 -13.2283367,-3.8434 -3.375e-4,-8.21677 -5.976e-4,-16.43353 -8.453e-4,-24.65029 -32.98469,0 -65.96938,0 -98.95407,0 0,22.84236 0,45.68472 0,68.52708 12.0659,0.31688 25.983163,-0.62469 36.91506,0.46302 0.88888,10.76727 2.139237,14.90419 -9.801029,12.7624 -10.60047,-0.40095 -21.509593,0.79582 -31.936941,-0.61576 z"
           id="path55048"
           inkscape:connector-curvature="0" />
        <path
           style="fill:#ffffff;fill-opacity:1;stroke-width:0.26458332"
           d="m -86.267073,383.48278 c 5.949705,-3.47267 -0.773679,-13.09405 -6.140128,-8.34742 -5.403962,3.90813 1.037442,12.28478 6.140128,8.34742 z"
           id="path55046"
           inkscape:connector-curvature="0" />
        <path
           style="fill:#ffffff;fill-opacity:1;stroke-width:0.26458332"
           d="m -72.581393,384.19745 c 6.38602,-1.48474 3.58756,-12.01165 -2.67795,-10.04379 -7.036313,1.51009 -4.089265,12.09707 2.67795,10.04379 z"
           id="path55044"
           inkscape:connector-curvature="0" />
        <path
           style="fill:#ffffff;fill-opacity:1;stroke-width:0.26458332"
           d="m -57.500153,384.19745 c 6.488477,-1.54287 3.455873,-12.09563 -2.7292,-10.0393 -6.762449,1.27246 -4.127856,12.27287 2.7292,10.0393 z"
           id="path55033"
           inkscape:connector-curvature="0" />
      </g>
    </g>
  </g>
</svg>
