<?xml version="1.0" encoding="UTF-8" standalone="no"?>
<!-- Created with Inkscape (http://www.inkscape.org/) -->

<svg
   xmlns:dc="http://purl.org/dc/elements/1.1/"
   xmlns:cc="http://creativecommons.org/ns#"
   xmlns:rdf="http://www.w3.org/1999/02/22-rdf-syntax-ns#"
   xmlns:svg="http://www.w3.org/2000/svg"
   xmlns="http://www.w3.org/2000/svg"
   xmlns:sodipodi="http://sodipodi.sourceforge.net/DTD/sodipodi-0.dtd"
   xmlns:inkscape="http://www.inkscape.org/namespaces/inkscape"
   width="150"
   height="150"
   viewBox="0 0 39.6875 39.6875"
   version="1.1"
   id="svg922"
   inkscape:version="0.92.4 (5da689c313, 2019-01-14)"
   sodipodi:docname="USO_DE_nx.svg">
  <title
     id="title1437">USOICON</title>
  <defs
     id="defs916">
    <clipPath
       id="clipPath1521"
       clipPathUnits="userSpaceOnUse">
      <rect
         y="66.644836"
         x="57.114269"
         height="151.42299"
         width="172.87534"
         id="rect1523"
         style="opacity:0.875;fill:#000000;fill-opacity:1;stroke:#000000;stroke-width:0.60403091;stroke-linejoin:round;stroke-miterlimit:4;stroke-dasharray:none;stroke-opacity:1" />
    </clipPath>
  </defs>
  <sodipodi:namedview
     id="base"
     pagecolor="#ffffff"
     bordercolor="#666666"
     borderopacity="1.0"
     inkscape:pageopacity="0.0"
     inkscape:pageshadow="2"
     inkscape:zoom="2.2852447"
     inkscape:cx="65.521743"
     inkscape:cy="73.421411"
     inkscape:document-units="px"
     inkscape:current-layer="layer2"
     showgrid="false"
     inkscape:window-width="1187"
     inkscape:window-height="679"
     inkscape:window-x="2339"
     inkscape:window-y="138"
     inkscape:window-maximized="0"
     units="px" />
  <metadata
     id="metadata919">
    <rdf:RDF>
      <cc:Work
         rdf:about="">
        <dc:format>image/svg+xml</dc:format>
        <dc:type
           rdf:resource="http://purl.org/dc/dcmitype/StillImage" />
        <dc:title>USOICON</dc:title>
        <cc:license
           rdf:resource="http://creativecommons.org/licenses/by-sa/4.0/" />
      </cc:Work>
      <cc:License
         rdf:about="http://creativecommons.org/licenses/by-sa/4.0/">
        <cc:permits
           rdf:resource="http://creativecommons.org/ns#Reproduction" />
        <cc:permits
           rdf:resource="http://creativecommons.org/ns#Distribution" />
        <cc:requires
           rdf:resource="http://creativecommons.org/ns#Notice" />
        <cc:requires
           rdf:resource="http://creativecommons.org/ns#Attribution" />
        <cc:permits
           rdf:resource="http://creativecommons.org/ns#DerivativeWorks" />
        <cc:requires
           rdf:resource="http://creativecommons.org/ns#ShareAlike" />
      </cc:License>
    </rdf:RDF>
  </metadata>
  <g
     style="display:inline"
     transform="translate(-35.46637,-112.59198)"
     id="layer1"
     inkscape:groupmode="layer"
     inkscape:label="toonbox" />
  <g
     inkscape:label="text"
     id="layer3"
     inkscape:groupmode="layer" />
  <g
     style="display:inline"
     inkscape:label="icon_de"
     id="layer2"
     inkscape:groupmode="layer">
    <g
       id="g1409">
      <path
         style="display:inline;opacity:0.875;fill:#999999;fill-opacity:1;stroke:none;stroke-width:0.11845408;stroke-linejoin:round;stroke-miterlimit:4;stroke-dasharray:none;stroke-opacity:0.97175137"
         d="M 1.435191,10.12791 C 2.670256,9.29705 4.324329,9.43582 5.75553,9.20511 14.11545,8.61268 22.517162,8.68995 30.881762,9.1576 c 2.392119,0.20608 4.838324,0.26932 7.150425,0.97031 0.872353,1.67498 0.817461,3.66984 1.026746,5.51683 0.208491,4.02511 0.362445,8.13136 -0.532305,12.08777 -0.230317,1.64927 -2.017724,2.0517 -3.40708,2.25864 C 28.802681,30.85612 22.40423,30.81147 16.04062,30.81293 11.303807,30.71862 6.537542,30.74635 1.839737,30.07418 0.173005,29.52829 0.822947,27.03924 0.434179,25.65651 0.154966,21.09087 0.021365,16.47217 0.692557,11.93449 0.848231,11.32021 0.903907,10.54918 1.435191,10.12791 Z"
         id="rect49496"
         inkscape:connector-curvature="0" />
      <path
         style="display:inline;fill:#000000;stroke-width:0.37203047"
         d="M 1.803349,30.70864 C 0.056742,30.0892 0.231437,27.93756 0.087588,26.427 -0.022935,21.93179 -0.070132,17.42779 0.099217,12.93387 -0.027874,11.27811 1.27784,10.0868 2.683582,9.49431 4.615709,8.56731 6.836395,8.9315 8.909365,8.7639 16.59615,8.63948 24.285544,8.62691 31.972812,8.67993 c 2.150882,0.14121 4.537543,-0.0199 6.403551,1.23592 1.58486,1.37874 1.255708,3.71898 1.302004,5.60595 -0.178243,4.07095 0.01584,8.16305 -0.388876,12.21995 -0.293352,1.71142 -2.120394,2.65314 -3.654582,3.02944 -6.368162,0.39372 -12.757085,0.28816 -19.135233,0.3134 C 11.668868,31.0283 6.826658,31.10952 2.006621,30.75364 L 1.803349,30.7086 Z m 34.717949,-1.05781 c 1.660436,-0.66982 2.120657,-2.56797 2.182495,-4.18169 C 38.903556,21.6571 38.926032,17.82461 38.6784,14.01451 38.609934,12.47205 38.055319,10.73538 36.494762,10.11382 34.51138,9.13075 32.202264,9.50823 30.063573,9.36171 22.019563,9.34057 13.971808,9.23982 5.930238,9.4697 4.247551,9.52117 2.061367,9.74531 1.291134,11.49417 c -0.682107,2.6627 -0.37748,5.45735 -0.46467,8.18069 0.080658,2.82901 -0.202804,5.71611 0.421771,8.49628 0.655233,1.84726 2.893842,2.0042 4.558802,2.11114 8.176545,0.4213 16.369453,0.15886 24.551012,0.03302 2.04628,-0.14679 4.225389,0.10711 6.163249,-0.66447 z M 4.297406,28.9474 c -0.939032,0.02717 -2.493051,-2.1182 -0.727168,-0.88447 1.706475,0.99084 3.797167,0.59334 5.679761,0.73138 0.843628,0.09701 3.276883,-0.14441 3.328971,0.24148 -2.712643,0.43249 -5.596207,0.56419 -8.281564,-0.08839 z m 31.24001,-17.1062 c -1.499147,-0.78086 -3.308903,-0.4003 -4.94344,-0.53994 -1.173066,-0.10336 -4.022293,-0.01807 -4.347208,-0.50636 2.904245,-0.07023 5.874879,-0.31161 8.734279,0.31742 0.913242,-0.14345 1.834744,2.01352 0.556369,0.72888 z"
         id="path49494"
         inkscape:connector-curvature="0" />
      <path
         style="font-style:normal;font-variant:normal;font-weight:normal;font-stretch:normal;font-size:4.94612217px;font-family:Insaniburger;-inkscape-font-specification:Insaniburger;opacity:1;vector-effect:none;fill:#000000;fill-opacity:1;stroke:none;stroke-width:0.05796236;stroke-linecap:butt;stroke-linejoin:miter;stroke-miterlimit:4;stroke-dasharray:none;stroke-dashoffset:0;stroke-opacity:1"
         d="m 18.737343,26.021964 c -0.109852,-0.708062 0.03229,-2.228727 0.839655,-1.343426 0.04366,1.019343 0.0459,2.056606 0,3.075923 -0.627519,0.780676 -1.124027,-0.53403 -1.531768,-1.019858 -0.487323,-0.828463 -0.02457,0.879555 -0.3355,1.16476 -0.960995,0.542834 -0.748478,-0.973149 -0.758399,-1.655827 0.05873,-0.663143 -0.280009,-2.092676 0.671943,-1.772525 0.415518,0.461515 0.7387,1.040324 1.114069,1.550953 z m 3.101443,0.218519 c 0.260496,0.518774 1.137489,0.971389 0.766059,1.641559 -0.664537,0.695724 -1.010283,-1.081142 -1.456885,-0.791169 -0.244744,0.686651 -1.50858,1.465072 -1.270284,0.194239 0.173777,-0.447324 1.103896,-0.888864 0.582247,-1.341503 -0.606809,-0.379034 -0.981209,-1.923539 0.08751,-1.376663 0.349128,0.357101 0.698255,1.390457 1.047383,0.507643 0.303438,-1.050697 1.699747,-0.487499 0.82994,0.390757 -0.195323,0.258379 -0.390645,0.516758 -0.585967,0.775137 z"
         id="text49550"
         inkscape:connector-curvature="0" />
      <g
         id="g4156"
         transform="matrix(0.2732641,0,0,0.19323011,-5.5356592,31.892613)">
        <path
           style="opacity:0.875;fill:#ffffff;fill-opacity:1;stroke:#000000;stroke-width:0.51171541;stroke-linejoin:round;stroke-miterlimit:4;stroke-dasharray:none;stroke-opacity:1"
           d="m 64.02668,-104.6446 c 19.362888,0 38.72578,0 58.08867,0 0,16.937522 0,33.875043 0,50.812565 -19.36289,0 -38.725782,0 -58.08867,0 0,-16.937522 0,-33.875043 0,-50.812565 z"
           id="rect4150"
           inkscape:connector-curvature="0" />
        <path
           style="fill:#000000;stroke-width:0.16786209"
           d="m 65.362833,-46.160321 c -4.878287,-2.897985 -2.192423,-6.699799 2.274272,-5.212309 18.412638,0 36.825275,0 55.237915,0 0.85324,4.127559 -2.7322,6.162465 -6.23669,5.299006 -17.091622,-0.01522 -34.18543,0.128184 -51.275497,-0.0867 z m -2.48781,-31.597502 c 0.0833,-8.582914 -0.191291,-17.181999 0.22728,-25.753227 4.514422,-5.1424 13.594076,-1.36263 20.017304,-2.53493 12.634118,0.18739 25.331433,-0.39396 37.926153,0.35491 3.73426,6.035161 0.91166,14.360806 1.82814,21.318657 0.002,10.550649 6.5e-4,21.1013 0.001,31.65195 -20,0 -39.999998,0 -59.999997,0 0,-8.345787 0,-16.691573 0,-25.03736 z m 26.35622,20.967665 c 3.558326,-5.375872 0.910808,-13.195441 1.741513,-19.55706 -0.138338,-7.885508 0.311475,-15.820769 -0.303233,-23.671882 -1.304026,-3.08865 -5.157784,-1.19556 -7.729206,-1.73983 -5.250641,0.084 -10.597471,-0.35988 -15.769246,0.26908 -3.179924,6.031042 -0.690208,13.988633 -1.515463,20.774113 0.135273,7.387388 -0.288517,14.818388 0.277015,22.178334 4.420204,3.900142 12.226805,1.075675 18.033455,1.936869 1.754916,-0.03839 3.518116,0.0043 5.265165,-0.189624 z m -21.98635,-1.689683 c -0.821937,-2.622309 -0.118979,-5.850099 -0.36352,-8.701671 -0.01985,-9.171436 -0.03971,-18.342872 -0.05956,-27.514308 7.710297,0 15.420593,0 23.13089,0 -0.02587,11.884902 -0.05173,23.769805 -0.0776,35.654707 -1.529603,1.925314 -4.577138,0.483641 -6.773803,0.92932 -5.276009,-0.13377 -10.675201,0.363476 -15.856407,-0.368048 z m 8.87685,-2.244809 c 5.875747,-8.420847 -12.054502,-6.295319 -4.93725,0.10933 1.645448,-0.01907 3.297126,0.05232 4.93725,-0.10933 z m -5.08818,-1.446063 c -2.226254,-6.604999 10.571387,-0.373345 2.354101,0.197999 l -1.52407,-0.05119 -0.829991,-0.146756 z m 15.11378,1.227681 c 5.001666,-6.472493 -9.519388,-7.975268 -6.374698,-0.729987 1.089586,1.815218 4.595477,0.998829 6.374698,0.729987 z m -5.38939,-1.250767 c -1.945022,-6.772623 10.667501,-0.134002 2.334329,0.2346 l -1.546467,-0.065 -0.787862,-0.1696 z m 6.00066,-7.093453 c 3.117957,-4.011191 1.072518,-11.542397 -5.410365,-9.053716 -5.424694,0.06554 -15.292142,-2.11515 -12.579621,6.724875 1.649976,5.352986 13.193533,1.33588 17.989986,2.328841 z m -16.67627,-1.346128 c -3.364505,-7.781644 4.944559,-6.558998 10.081732,-6.34485 4.955779,-1.175307 8.745844,0.801885 6.427888,6.344075 -5.485614,0.28744 -11.024013,0.28159 -16.50962,7.75e-4 z m 7.8385,-10.62553 c -1.342605,-2.124122 -14.487607,0.251386 -5.912963,0.587262 1.608773,-0.477234 5.115775,0.734874 5.912963,-0.587262 z m 9.29678,0.223638 c 1.692224,-4.873792 1.73136,-13.592325 -5.901671,-10.925476 -3.637755,1.148284 -2.219515,7.637828 -1.645909,10.759372 1.869124,1.150788 5.42599,0.514754 7.54758,0.166104 z m -6.89587,-1.179761 c -1.605078,-5.807056 0.268901,-9.891723 6.33373,-8.341027 0,2.824031 0,5.648062 0,8.472093 -2.102587,-0.04747 -4.265889,0.2857 -6.33373,-0.131066 z m -4.17494,-3.746043 c -1.726083,-2.896722 -12.14097,0.719295 -3.68636,0.314994 1.13326,-0.184072 2.708795,0.340491 3.68636,-0.314994 z m 1.56982,-4.367014 c 0.01386,-2.672109 -14.601914,-0.339132 -5.828088,0.248879 1.935365,-0.07927 3.923504,0.194412 5.828088,-0.248879 z m -10.89039,-7.43137 c -0.582775,-4.3028 4.387277,-2.236614 6.853113,-2.71278 5.155044,0.0595 10.329856,-0.17514 15.468047,0.23003 2.672037,3.604784 -0.268415,4.9819 -3.564452,4.19856 -6.252236,0 -12.504472,0 -18.756708,0 0,-0.571937 0,-1.143873 0,-1.71581 z m 33.04168,40.788546 c 2.934857,-4.011899 0.377837,-11.131052 -5.067167,-8.334285 -1.267687,2.249495 -1.792935,8.114985 1.437232,8.526416 1.210032,0.01512 2.437709,0.06127 3.629935,-0.192131 z m -4.62216,-1.371935 c -2.291913,-3.924814 2.170009,-8.132359 4.447023,-5.04062 0.144076,3.776455 0.805734,6.626677 -4.447023,5.04062 z m 14.492807,1.017498 c 1.07885,-1.985788 0.25011,-4.689369 0.57092,-6.960392 -1.75082,-2.994076 -8.5746,-1.519034 -6.80067,2.90976 -1.27051,4.902257 3.09658,5.594921 6.22975,4.050632 z m -4.9733,-1.005191 c -2.14181,-3.829523 1.7762,-8.794668 4.46492,-4.714728 0.32061,3.896 0.40192,6.003342 -4.46492,4.714728 z m 14.16333,1.274501 c 2.54732,-4.162109 0.7351,-10.452401 -5.00292,-8.565103 -1.89064,3.088685 -1.94308,10.642044 3.44508,8.842927 l 0.74955,-0.0481 z m -4.82891,-1.428189 c -3.29843,-5.004509 5.29165,-8.979764 4.67778,-2.708322 1.01297,3.560481 -2.2886,3.667622 -4.67778,2.708322 z M 99.819563,-68.974643 c 4.312207,-4.312071 -2.028711,-13.315928 -5.696897,-6.770016 -0.407274,4.577701 -0.591029,8.741036 5.696897,6.770016 z m -4.51945,-1.377669 c -2.75229,-3.937498 2.667009,-9.176919 4.445272,-4.389721 0.523765,3.948331 -0.02698,5.805096 -4.445272,4.389721 z m 14.059247,1.335625 c 4.22014,-4.374721 -2.1107,-13.205602 -5.73192,-6.757858 -0.3759,4.670241 -0.68614,8.817749 5.73192,6.757858 z m -4.52092,-1.241021 c -2.82462,-3.898557 2.54049,-9.296827 4.41902,-4.528453 0.35956,3.846771 0.20461,5.802007 -4.41902,4.528453 z m 13.83397,1.293555 c 1.24906,-1.84966 2.33574,-7.906448 -0.69399,-8.691212 -2.01481,0.01017 -5.45224,-0.698792 -4.99836,2.448303 -0.41045,4.138597 -0.008,8.156083 5.69235,6.242909 z m -4.48202,-1.437702 c -3.49075,-4.947199 5.28891,-9.327083 4.58708,-2.841008 0.83708,3.553779 -1.95769,3.789007 -4.58708,2.841008 z M 99.941513,-81.041352 c 2.763637,-4.164812 0.290967,-11.064088 -5.140757,-8.332283 -1.61396,1.951701 -0.358675,4.870008 -0.754993,7.231915 1.001143,2.386018 3.912198,0.969706 5.89575,1.100368 z m -4.69575,-1.369935 c -2.019638,-3.723439 1.777849,-8.774528 4.469107,-4.718474 0.48807,3.635235 0.09814,6.341143 -4.469107,4.718474 z m 14.546337,0.924231 c 1.14982,-1.966251 0.17448,-4.648437 0.49756,-6.893204 -0.97843,-2.223896 -4.2776,-1.29091 -5.97671,-0.993377 -1.61397,1.951694 -0.35868,4.87001 -0.755,7.231917 0.97843,2.223896 4.27761,1.290917 5.97672,0.993378 l 0.24012,-0.315944 z m -5.03415,-0.924231 c -1.91988,-3.686962 1.74959,-8.785132 4.46912,-4.718474 0.48807,3.635244 0.0981,6.341141 -4.46912,4.718474 z m 14.08309,1.391145 c 4.45075,-4.583774 -2.28865,-12.95457 -5.83785,-6.71607 -0.70495,5.00467 -0.013,8.284888 5.83785,6.71607 z m -4.74135,-1.532525 c -2.77876,-4.284178 3.82369,-8.993599 4.66582,-3.644692 0.76166,3.952627 -1.05705,4.970414 -4.66582,3.644692 z M 99.897803,-93.05806 c 4.142407,-4.422601 -2.111797,-13.25366 -5.773247,-6.746481 -0.65612,4.844425 -0.133812,8.63605 5.773247,6.746481 z m -4.59769,-1.36269 c -2.49601,-3.817473 2.631796,-9.23623 4.445272,-4.389721 0.523765,3.948342 -0.02698,5.805075 -4.445272,4.389721 z m 14.033307,1.37676 c 4.26297,-4.334472 -2.06165,-13.27398 -5.70602,-6.799975 -0.36482,4.68232 -0.71092,8.748479 5.70602,6.799975 z m -4.57547,-1.30524 c -2.57748,-3.953513 2.61745,-9.28191 4.49962,-4.461241 0.74859,3.880775 -0.3725,5.787122 -4.49962,4.461241 z m 14.49271,0.85313 c 1.15926,-3.274128 1.26904,-10.23858 -4.38964,-8.24684 -4.19685,2.190245 -2.20469,11.380193 3.66617,8.881013 0.42969,0.159546 0.45088,-0.484631 0.72347,-0.634173 z m -5.06027,-0.9742 c -3.42124,-4.971504 5.16144,-9.29399 4.58708,-2.79145 0.837,3.532713 -2.00636,3.720176 -4.58708,2.79145 z"
           id="path4148"
           inkscape:connector-curvature="0" />
      </g>
    </g>
  </g>
</svg>
