<?xml version="1.0" encoding="UTF-8" standalone="no"?>
<!-- Created with Inkscape (http://www.inkscape.org/) -->

<svg
   xmlns:dc="http://purl.org/dc/elements/1.1/"
   xmlns:cc="http://creativecommons.org/ns#"
   xmlns:rdf="http://www.w3.org/1999/02/22-rdf-syntax-ns#"
   xmlns:svg="http://www.w3.org/2000/svg"
   xmlns="http://www.w3.org/2000/svg"
   xmlns:sodipodi="http://sodipodi.sourceforge.net/DTD/sodipodi-0.dtd"
   xmlns:inkscape="http://www.inkscape.org/namespaces/inkscape"
   width="150"
   height="150"
   viewBox="0 0 39.6875 39.6875"
   version="1.1"
   id="svg922"
   inkscape:version="0.92.4 (5da689c313, 2019-01-14)"
   sodipodi:docname="USO_graphics_phoitofilmstrip.svg">
  <title
     id="title1437">USOICON</title>
  <defs
     id="defs916">
    <clipPath
       id="clipPath1521"
       clipPathUnits="userSpaceOnUse">
      <rect
         y="66.644836"
         x="57.114269"
         height="151.42299"
         width="172.87534"
         id="rect1523"
         style="opacity:0.875;fill:#000000;fill-opacity:1;stroke:#000000;stroke-width:0.60403091;stroke-linejoin:round;stroke-miterlimit:4;stroke-dasharray:none;stroke-opacity:1" />
    </clipPath>
  </defs>
  <sodipodi:namedview
     id="base"
     pagecolor="#ffffff"
     bordercolor="#666666"
     borderopacity="1.0"
     inkscape:pageopacity="0.0"
     inkscape:pageshadow="2"
     inkscape:zoom="2.3555599"
     inkscape:cx="68.631864"
     inkscape:cy="79.691356"
     inkscape:document-units="px"
     inkscape:current-layer="layer8"
     showgrid="false"
     inkscape:window-width="1053"
     inkscape:window-height="695"
     inkscape:window-x="2626"
     inkscape:window-y="80"
     inkscape:window-maximized="0"
     units="px" />
  <metadata
     id="metadata919">
    <rdf:RDF>
      <cc:Work
         rdf:about="">
        <dc:format>image/svg+xml</dc:format>
        <dc:type
           rdf:resource="http://purl.org/dc/dcmitype/StillImage" />
        <dc:title>USOICON</dc:title>
        <cc:license
           rdf:resource="http://creativecommons.org/licenses/by-sa/4.0/" />
      </cc:Work>
      <cc:License
         rdf:about="http://creativecommons.org/licenses/by-sa/4.0/">
        <cc:permits
           rdf:resource="http://creativecommons.org/ns#Reproduction" />
        <cc:permits
           rdf:resource="http://creativecommons.org/ns#Distribution" />
        <cc:requires
           rdf:resource="http://creativecommons.org/ns#Notice" />
        <cc:requires
           rdf:resource="http://creativecommons.org/ns#Attribution" />
        <cc:permits
           rdf:resource="http://creativecommons.org/ns#DerivativeWorks" />
        <cc:requires
           rdf:resource="http://creativecommons.org/ns#ShareAlike" />
      </cc:License>
    </rdf:RDF>
  </metadata>
  <g
     style="display:inline"
     transform="translate(-35.46637,-112.59198)"
     id="layer1"
     inkscape:groupmode="layer"
     inkscape:label="toonbox" />
  <g
     inkscape:label="text"
     id="layer3"
     inkscape:groupmode="layer" />
  <g
     style="display:inline"
     inkscape:label="icon_graphics"
     id="layer8"
     inkscape:groupmode="layer">
    <g
       id="g7047">
      <path
         style="display:inline;opacity:0.875;fill:#999999;fill-opacity:1;stroke:none;stroke-width:0.11845408;stroke-linejoin:round;stroke-miterlimit:4;stroke-dasharray:none;stroke-opacity:0.97175137"
         d="M 1.435191,10.12791 C 2.670256,9.29705 4.324329,9.43582 5.75553,9.20511 14.11545,8.61268 22.517162,8.68995 30.881762,9.1576 c 2.392119,0.20608 4.838324,0.26932 7.150425,0.97031 0.872353,1.67498 0.817461,3.66984 1.026746,5.51683 0.208491,4.02511 0.362445,8.13136 -0.532305,12.08777 -0.230317,1.64927 -2.017724,2.0517 -3.40708,2.25864 C 28.802681,30.85612 22.40423,30.81147 16.04062,30.81293 11.303807,30.71862 6.537542,30.74635 1.839737,30.07418 0.173005,29.52829 0.822947,27.03924 0.434179,25.65651 0.154966,21.09087 0.021365,16.47217 0.692557,11.93449 0.848231,11.32021 0.903907,10.54918 1.435191,10.12791 Z"
         id="rect49496"
         inkscape:connector-curvature="0" />
      <path
         style="display:inline;fill:#000000;stroke-width:0.37203047"
         d="M 1.803349,30.70864 C 0.056742,30.0892 0.231437,27.93756 0.087588,26.427 -0.022935,21.93179 -0.070132,17.42779 0.099217,12.93387 -0.027874,11.27811 1.27784,10.0868 2.683582,9.49431 4.615709,8.56731 6.836395,8.9315 8.909365,8.7639 16.59615,8.63948 24.285544,8.62691 31.972812,8.67993 c 2.150882,0.14121 4.537543,-0.0199 6.403551,1.23592 1.58486,1.37874 1.255708,3.71898 1.302004,5.60595 -0.178243,4.07095 0.01584,8.16305 -0.388876,12.21995 -0.293352,1.71142 -2.120394,2.65314 -3.654582,3.02944 -6.368162,0.39372 -12.757085,0.28816 -19.135233,0.3134 C 11.668868,31.0283 6.826658,31.10952 2.006621,30.75364 L 1.803349,30.7086 Z m 34.717949,-1.05781 c 1.660436,-0.66982 2.120657,-2.56797 2.182495,-4.18169 C 38.903556,21.6571 38.926032,17.82461 38.6784,14.01451 38.609934,12.47205 38.055319,10.73538 36.494762,10.11382 34.51138,9.13075 32.202264,9.50823 30.063573,9.36171 22.019563,9.34057 13.971808,9.23982 5.930238,9.4697 4.247551,9.52117 2.061367,9.74531 1.291134,11.49417 c -0.682107,2.6627 -0.37748,5.45735 -0.46467,8.18069 0.080658,2.82901 -0.202804,5.71611 0.421771,8.49628 0.655233,1.84726 2.893842,2.0042 4.558802,2.11114 8.176545,0.4213 16.369453,0.15886 24.551012,0.03302 2.04628,-0.14679 4.225389,0.10711 6.163249,-0.66447 z M 4.297406,28.9474 c -0.939032,0.02717 -2.493051,-2.1182 -0.727168,-0.88447 1.706475,0.99084 3.797167,0.59334 5.679761,0.73138 0.843628,0.09701 3.276883,-0.14441 3.328971,0.24148 -2.712643,0.43249 -5.596207,0.56419 -8.281564,-0.08839 z m 31.24001,-17.1062 c -1.499147,-0.78086 -3.308903,-0.4003 -4.94344,-0.53994 -1.173066,-0.10336 -4.022293,-0.01807 -4.347208,-0.50636 2.904245,-0.07023 5.874879,-0.31161 8.734279,0.31742 0.913242,-0.14345 1.834744,2.01352 0.556369,0.72888 z"
         id="path49494"
         inkscape:connector-curvature="0" />
      <path
         style="font-style:normal;font-variant:normal;font-weight:normal;font-stretch:normal;font-size:4.58403873px;font-family:Insaniburger;-inkscape-font-specification:Insaniburger;opacity:1;vector-effect:none;fill:#000000;fill-opacity:1;stroke:none;stroke-width:0.0537192;stroke-linecap:butt;stroke-linejoin:miter;stroke-miterlimit:4;stroke-dasharray:none;stroke-dashoffset:0;stroke-opacity:1"
         d="m 5.2776621,26.964148 c 1.4220909,-0.02598 1.0460913,-2.558794 -0.3327357,-2.100585 -0.823242,-0.248449 -1.0882033,0.502324 -0.9451896,1.267535 0.095232,0.605583 -0.2256106,1.441033 0.2380083,1.862537 1.1180882,0.373352 0.1141614,-1.360907 1.039917,-1.029487 z M 5.0896063,25.491863 c 1.035057,0.445951 -0.6849131,1.256952 -0.243618,0 0.081206,0 0.162412,0 0.243618,0 z m 3.1456621,-0.637678 c 0.7420738,0.145707 0.3053397,1.240888 0.4231257,1.840608 0.3105839,0.762714 -0.5284088,2.032785 -0.8462515,0.820899 0.3637024,-0.695763 -0.674734,-1.093199 -0.5769897,-0.328914 0.2558967,1.162498 -1.2129813,0.916424 -0.8462515,-0.148646 0.055156,-0.687712 -0.1196486,-1.441601 0.1057814,-2.081965 1.1565964,-0.703384 0.3231175,1.313639 1.0887195,1.098353 0.5876934,0.135885 -0.182773,-1.365811 0.6518661,-1.200335 z m 3.6606786,1.551996 c 0.02943,2.832808 -4.2871766,1.469122 -2.8154959,-0.943769 0.7658425,-1.29825 2.9267049,-0.695593 2.8154959,0.943769 z M 10.88301,25.817736 c -1.510649,-1.224376 -1.5158177,2.397876 -0.0021,1.172201 0.26196,-0.314574 0.261627,-0.85616 0.0021,-1.172201 z m 2.778098,-0.21803 c -0.0606,0.766424 0.127634,1.603686 -0.105781,2.322132 -0.975754,0.475953 -0.714209,-0.932613 -0.74047,-1.547602 0.413227,-1.090978 -0.813689,-0.467529 -0.747949,-1.310373 0.431535,-0.422209 1.15596,-0.116426 1.713546,-0.209678 0.984127,-0.195248 0.744529,1.046324 -0.119346,0.745521 z m 3.979092,0.806475 c 0.02943,2.832808 -4.287177,1.469122 -2.815496,-0.943769 0.765843,-1.29825 2.926705,-0.695593 2.815496,0.943769 z m -1.012937,-0.588445 c -1.510649,-1.224376 -1.515817,2.397876 -0.0021,1.172201 0.26196,-0.314574 0.261627,-0.85616 0.0021,-1.172201 z m 2.040834,1.793468 c -0.35048,-1.065422 0.612217,-0.555123 0.846251,-1.181579 -0.09953,-0.424957 -1.531027,-0.546311 -0.498002,-0.829919 1.10889,0.01916 0.297603,-1.124376 -0.442115,-0.745521 -0.890162,-0.24093 -0.775757,0.817355 -0.752386,1.45856 0.08461,0.593333 -0.313665,1.861458 0.608243,1.680011 0.155437,-0.03594 0.250255,-0.216013 0.238009,-0.381552 z m 1.991683,0 c -0.558231,1.127152 -1.070242,-0.343738 -0.846252,-1.050633 0.08452,-0.593803 -0.313546,-1.858938 0.608243,-1.68089 0.46298,0.437514 0.1429,1.289097 0.238009,1.910625 0,0.273633 0,0.547265 0,0.820898 z m 1.722421,0.407926 c -0.517894,-0.09015 -1.573231,0.319411 -1.508721,-0.598951 0.05862,-0.814308 -0.12462,-1.697381 0.105781,-2.464012 0.975754,-0.475954 0.714208,0.932613 0.74047,1.547602 -0.23805,0.880708 0.304846,0.745105 0.861211,0.863031 0.114317,0.202144 0.101935,0.672566 -0.198741,0.65233 z m 1.889107,-2.189673 c 0.263754,-0.586145 1.368276,-1.584175 1.410419,-0.376321 -0.05862,0.814309 0.12462,1.697382 -0.105781,2.464012 -0.975755,0.475954 -0.714209,-0.932612 -0.74047,-1.547601 -0.276144,0.347881 -0.687566,0.966603 -1.017443,0.09417 -0.348542,-0.147659 0.188068,1.328129 -0.348901,1.529922 -0.931127,0.173905 -0.518206,-1.117171 -0.608243,-1.7196 -0.155111,-0.710681 0.134526,-2.057488 0.923923,-1.081219 0.162166,0.212214 0.324331,0.424428 0.486496,0.636641 z m 2.775962,2.199051 c -1.178932,0.434195 -1.623723,-1.677446 -0.232933,-0.796511 1.412131,-0.263689 -1.962432,-0.98861 -0.517154,-2.180882 0.647485,-1.113882 2.563125,0.678314 1.044993,0.541558 -1.714292,-0.01587 1.693155,0.819196 0.512346,2.008421 -0.18021,0.283881 -0.496248,0.435576 -0.807252,0.427414 z m 2.731082,-2.428802 c -0.0606,0.766424 0.127634,1.603686 -0.10578,2.322132 -0.975755,0.475953 -0.714209,-0.932613 -0.740471,-1.547602 0.413227,-1.090978 -0.813689,-0.467529 -0.74795,-1.310373 0.431537,-0.422209 1.155961,-0.116426 1.713548,-0.209678 0.984127,-0.195248 0.744528,1.046324 -0.119347,0.745521 z m 2.728949,1.073737 c 0.756219,0.419768 0.399262,1.954724 -0.343715,1.000541 -0.320513,-0.477179 -0.735392,-1.265319 -0.583743,-0.186603 -0.232721,1.209509 -1.17702,0.05226 -0.846252,-0.735785 0.09516,-0.608719 -0.225398,-1.447244 0.238009,-1.871915 0.958414,-0.285079 2.600967,0.312054 1.724558,1.638592 z m -0.927458,-1.18158 c -0.448402,1.262265 1.281408,0.444729 0.243619,0 -0.08121,0 -0.162412,0 -0.243619,0 z m 2.472508,2.119341 c -0.55823,1.127152 -1.07024,-0.343738 -0.84625,-1.050633 0.08452,-0.593803 -0.313547,-1.858938 0.608243,-1.68089 0.46298,0.437514 0.1429,1.289097 0.238007,1.910625 0,0.273633 0,0.547265 0,0.820898 z m 1.491626,-0.647056 c 1.422091,-0.02598 1.046092,-2.558794 -0.332736,-2.100585 -0.823242,-0.248449 -1.088203,0.502324 -0.945189,1.267535 0.09523,0.605583 -0.225611,1.441033 0.238008,1.862537 1.118088,0.373352 0.114161,-1.360907 1.039917,-1.029487 z m -0.188055,-1.472285 c 1.035056,0.445951 -0.684914,1.256952 -0.243619,0 0.08121,0 0.162412,0 0.243619,0 z"
         id="text49550"
         inkscape:connector-curvature="0" />
      <g
         id="g16798"
         transform="matrix(0.18646615,0,0,0.17477205,30.894537,-4.0608331)">
        <path
           style="fill:#000005;fill-opacity:1;stroke-width:0.55967355"
           d="m -63.356338,86.683079 c -9.874279,0.20633 -22.300301,5.195348 -24.289917,16.007321 -2.168816,9.38617 16.582128,14.56277 5.927037,22.9884 -8.68926,4.95773 -6.835656,17.53827 1.28174,22.04121 13.85988,10.19372 34.882883,4.74141 43.568825,-9.64199 6.307492,-7.01342 3.09489,-17.89267 10.641114,-23.97674 2.463966,-4.7998 12.829179,-12.1707 8.877144,-16.855161 -7.599313,2.298305 -15.91087,17.073671 -19.946359,3.532341 -5.850096,-8.400878 -15.747732,-14.032593 -26.059584,-14.095381 z m 4.560445,10.802959 c 10.122006,2.812302 -4.753004,12.779612 -3.261741,2.35473 0.483508,-1.363419 1.866321,-2.234835 3.261741,-2.35473 z m -15.621785,4.598682 c 9.863404,3.00815 -4.865571,12.47548 -3.548232,2.5642 0.798309,-1.21437 1.947566,-2.55665 3.548232,-2.5642 z m 29.046288,5.08238 c 9.734204,2.80242 -4.411794,12.63796 -3.446785,2.33949 0.664422,-1.26017 1.929537,-2.39177 3.446785,-2.33949 z m -27.491861,24.95558 c 10.430142,2.81043 -4.670502,12.59468 -3.479806,2.47791 0.773822,-1.21256 1.97216,-2.34358 3.479806,-2.47791 z"
           id="path59299"
           inkscape:connector-curvature="0" />
        <path
           style="fill:#ffffff;fill-opacity:1;stroke:#ffffff;stroke-width:0.55967355;stroke-opacity:1"
           d="m -52.62579,142.87503 c 10.625922,-2.16342 4.562437,-18.88424 -3.99139,-12.36609 -2.70081,5.20001 -9.954547,16.49376 3.99139,12.36609 z"
           id="path59283"
           inkscape:connector-curvature="0" />
        <path
           style="fill:#ffffff;fill-opacity:1;stroke-width:0.55967355"
           d="m -37.66806,124.75342 c 6.420327,-7.65525 13.607006,-14.90345 18.556655,-23.61723 -6.79331,1.55739 -13.197892,10.39767 -19.460998,15.03705 -3.863258,4.35037 -16.481703,11.24747 -6.238257,15.83028 2.683022,-2.08016 4.82603,-4.78751 7.1426,-7.2501 z"
           id="path59281"
           inkscape:connector-curvature="0" />
      </g>
    </g>
  </g>
</svg>
