<?xml version="1.0" encoding="UTF-8" standalone="no"?>
<!-- Created with Inkscape (http://www.inkscape.org/) -->

<svg
   xmlns:dc="http://purl.org/dc/elements/1.1/"
   xmlns:cc="http://creativecommons.org/ns#"
   xmlns:rdf="http://www.w3.org/1999/02/22-rdf-syntax-ns#"
   xmlns:svg="http://www.w3.org/2000/svg"
   xmlns="http://www.w3.org/2000/svg"
   xmlns:sodipodi="http://sodipodi.sourceforge.net/DTD/sodipodi-0.dtd"
   xmlns:inkscape="http://www.inkscape.org/namespaces/inkscape"
   width="150"
   height="150"
   viewBox="0 0 39.6875 39.6875"
   version="1.1"
   id="svg922"
   inkscape:version="0.92.4 (5da689c313, 2019-01-14)"
   sodipodi:docname="USO_system_partitionmanager.svg">
  <title
     id="title1437">USOICON</title>
  <defs
     id="defs916">
    <clipPath
       id="clipPath1521"
       clipPathUnits="userSpaceOnUse">
      <rect
         y="66.644836"
         x="57.114269"
         height="151.42299"
         width="172.87534"
         id="rect1523"
         style="opacity:0.875;fill:#000000;fill-opacity:1;stroke:#000000;stroke-width:0.60403091;stroke-linejoin:round;stroke-miterlimit:4;stroke-dasharray:none;stroke-opacity:1" />
    </clipPath>
  </defs>
  <sodipodi:namedview
     id="base"
     pagecolor="#ffffff"
     bordercolor="#666666"
     borderopacity="1.0"
     inkscape:pageopacity="0.0"
     inkscape:pageshadow="2"
     inkscape:zoom="2.2456923"
     inkscape:cx="64.187843"
     inkscape:cy="81.946162"
     inkscape:document-units="px"
     inkscape:current-layer="layer13"
     showgrid="false"
     inkscape:window-width="1073"
     inkscape:window-height="670"
     inkscape:window-x="2610"
     inkscape:window-y="102"
     inkscape:window-maximized="0"
     units="px" />
  <metadata
     id="metadata919">
    <rdf:RDF>
      <cc:Work
         rdf:about="">
        <dc:format>image/svg+xml</dc:format>
        <dc:type
           rdf:resource="http://purl.org/dc/dcmitype/StillImage" />
        <dc:title>USOICON</dc:title>
        <cc:license
           rdf:resource="http://creativecommons.org/licenses/by-sa/4.0/" />
      </cc:Work>
      <cc:License
         rdf:about="http://creativecommons.org/licenses/by-sa/4.0/">
        <cc:permits
           rdf:resource="http://creativecommons.org/ns#Reproduction" />
        <cc:permits
           rdf:resource="http://creativecommons.org/ns#Distribution" />
        <cc:requires
           rdf:resource="http://creativecommons.org/ns#Notice" />
        <cc:requires
           rdf:resource="http://creativecommons.org/ns#Attribution" />
        <cc:permits
           rdf:resource="http://creativecommons.org/ns#DerivativeWorks" />
        <cc:requires
           rdf:resource="http://creativecommons.org/ns#ShareAlike" />
      </cc:License>
    </rdf:RDF>
  </metadata>
  <g
     style="display:inline"
     transform="translate(-35.46637,-112.59198)"
     id="layer1"
     inkscape:groupmode="layer"
     inkscape:label="toonbox" />
  <g
     inkscape:label="text"
     id="layer3"
     inkscape:groupmode="layer" />
  <g
     style="display:inline"
     inkscape:label="icon_system"
     id="layer13"
     inkscape:groupmode="layer">
    <g
       id="g11786">
      <path
         style="display:inline;opacity:0.875;fill:#999999;fill-opacity:1;stroke:none;stroke-width:0.11845408;stroke-linejoin:round;stroke-miterlimit:4;stroke-dasharray:none;stroke-opacity:0.97175137"
         d="M 1.435191,10.12791 C 2.670256,9.29705 4.324329,9.43582 5.75553,9.20511 14.11545,8.61268 22.517162,8.68995 30.881762,9.1576 c 2.392119,0.20608 4.838324,0.26932 7.150425,0.97031 0.872353,1.67498 0.817461,3.66984 1.026746,5.51683 0.208491,4.02511 0.362445,8.13136 -0.532305,12.08777 -0.230317,1.64927 -2.017724,2.0517 -3.40708,2.25864 C 28.802681,30.85612 22.40423,30.81147 16.04062,30.81293 11.303807,30.71862 6.537542,30.74635 1.839737,30.07418 0.173005,29.52829 0.822947,27.03924 0.434179,25.65651 0.154966,21.09087 0.021365,16.47217 0.692557,11.93449 0.848231,11.32021 0.903907,10.54918 1.435191,10.12791 Z"
         id="rect49496"
         inkscape:connector-curvature="0" />
      <path
         style="display:inline;fill:#000000;stroke-width:0.37203047"
         d="M 1.803349,30.70864 C 0.056742,30.0892 0.231437,27.93756 0.087588,26.427 -0.022935,21.93179 -0.070132,17.42779 0.099217,12.93387 -0.027874,11.27811 1.27784,10.0868 2.683582,9.49431 4.615709,8.56731 6.836395,8.9315 8.909365,8.7639 16.59615,8.63948 24.285544,8.62691 31.972812,8.67993 c 2.150882,0.14121 4.537543,-0.0199 6.403551,1.23592 1.58486,1.37874 1.255708,3.71898 1.302004,5.60595 -0.178243,4.07095 0.01584,8.16305 -0.388876,12.21995 -0.293352,1.71142 -2.120394,2.65314 -3.654582,3.02944 -6.368162,0.39372 -12.757085,0.28816 -19.135233,0.3134 C 11.668868,31.0283 6.826658,31.10952 2.006621,30.75364 L 1.803349,30.7086 Z m 34.717949,-1.05781 c 1.660436,-0.66982 2.120657,-2.56797 2.182495,-4.18169 C 38.903556,21.6571 38.926032,17.82461 38.6784,14.01451 38.609934,12.47205 38.055319,10.73538 36.494762,10.11382 34.51138,9.13075 32.202264,9.50823 30.063573,9.36171 22.019563,9.34057 13.971808,9.23982 5.930238,9.4697 4.247551,9.52117 2.061367,9.74531 1.291134,11.49417 c -0.682107,2.6627 -0.37748,5.45735 -0.46467,8.18069 0.080658,2.82901 -0.202804,5.71611 0.421771,8.49628 0.655233,1.84726 2.893842,2.0042 4.558802,2.11114 8.176545,0.4213 16.369453,0.15886 24.551012,0.03302 2.04628,-0.14679 4.225389,0.10711 6.163249,-0.66447 z M 4.297406,28.9474 c -0.939032,0.02717 -2.493051,-2.1182 -0.727168,-0.88447 1.706475,0.99084 3.797167,0.59334 5.679761,0.73138 0.843628,0.09701 3.276883,-0.14441 3.328971,0.24148 -2.712643,0.43249 -5.596207,0.56419 -8.281564,-0.08839 z m 31.24001,-17.1062 c -1.499147,-0.78086 -3.308903,-0.4003 -4.94344,-0.53994 -1.173066,-0.10336 -4.022293,-0.01807 -4.347208,-0.50636 2.904245,-0.07023 5.874879,-0.31161 8.734279,0.31742 0.913242,-0.14345 1.834744,2.01352 0.556369,0.72888 z"
         id="path49494"
         inkscape:connector-curvature="0" />
      <path
         style="font-style:normal;font-variant:normal;font-weight:normal;font-stretch:normal;font-size:4.0513835px;font-family:Insaniburger;-inkscape-font-specification:Insaniburger;opacity:1;vector-effect:none;fill:#000000;fill-opacity:1;stroke:none;stroke-width:0.04747715;stroke-linecap:butt;stroke-linejoin:miter;stroke-miterlimit:4;stroke-dasharray:none;stroke-dashoffset:0;stroke-opacity:1"
         d="M 4.7443872,27.010217 C 6.3405875,26.457273 5.0261083,24.415095 3.8960178,25.023386 3.5068889,25.500775 3.78689,26.389652 3.7018495,27.045119 c -0.3050637,1.118857 0.9547268,1.256635 0.6903761,0.06727 -0.06358,-0.21315 0.2759395,-0.05217 0.3521616,-0.102168 z M 4.5909703,25.600552 c 0.889773,0.604636 -0.7145067,1.000573 -0.1183807,0 h 0.080364 z m 2.2768465,1.167238 c -0.1016909,-1.233065 -0.5570793,0.298271 0,0 z m -0.5055785,0.7183 c -0.5767081,1.354872 -0.9145396,-0.461264 -0.3599716,-1.107302 0.1528311,-0.702762 0.7549549,-2.09711 1.1439435,-0.801392 0.2133494,0.66928 0.5166839,1.299106 0.6665154,1.996238 C 7.422158,28.747567 7.0804387,26.975289 6.3622383,27.48609 Z M 9.4079128,26.731875 C 10.148722,27.285144 9.5105589,28.679414 9.0199731,27.504964 8.4765762,26.354159 8.8375705,27.517678 8.45712,27.995915 7.6593914,28.136327 8.0552212,26.795618 7.9609121,26.181128 7.787663,25.32119 8.1912711,24.76537 8.8686482,24.989997 9.6698277,24.772016 10.113323,26.204118 9.4079128,26.731875 Z M 8.6512882,25.600552 c -0.3467115,1.333925 1.1105898,0.23027 0.1183807,0 h -0.080364 z m 2.6185478,0.103255 c -0.04768,0.7343 0.101459,1.53475 -0.0863,2.223364 -0.846254,0.449089 -0.558807,-1.023207 -0.60408,-1.638081 0.343346,-0.83131 -1.2527586,-0.584762 -0.348675,-1.299093 0.529053,0.05289 1.097035,-0.110173 1.600418,0.08923 0.282138,0.600801 -0.232212,0.676035 -0.561367,0.624584 z m 1.469665,1.925944 c -0.518382,1.118569 -0.858493,-0.4559 -0.690377,-1.138203 -0.175123,-0.680402 0.185114,-2.221824 0.690377,-1.110976 0,0.749727 0,1.499452 0,2.249179 z m 1.466177,-1.925944 c -0.04768,0.7343 0.10146,1.53475 -0.0863,2.223364 -0.846253,0.449089 -0.558805,-1.023207 -0.604079,-1.638081 0.343345,-0.83131 -1.252759,-0.584762 -0.348675,-1.299093 0.529053,0.05289 1.097034,-0.110173 1.600417,0.08923 0.282139,0.600801 -0.232212,0.676035 -0.561366,0.624584 z m 1.469664,1.925944 c -0.518381,1.118569 -0.858492,-0.4559 -0.690376,-1.138203 -0.175123,-0.680402 0.185113,-2.221824 0.690376,-1.110976 0,0.749727 0,1.499452 0,2.249179 z m 2.641212,-1.15377 c 0.02401,2.71232 -3.4975,1.406636 -2.296896,-0.903628 0.624779,-1.243031 2.387621,-0.666008 2.296896,0.903628 z m -0.82636,-0.563417 c -1.496628,-1.17605 -0.916248,2.710577 0.117242,0.870939 0.07385,-0.288835 0.05004,-0.640066 -0.117242,-0.870939 z m 2.39714,0.428735 c -0.263738,-0.741053 0.407593,-2.070335 0.690376,-0.857254 -0.04862,0.805853 0.102769,1.678547 -0.0863,2.438638 -0.649352,0.336896 -0.920771,-0.810796 -1.336295,-1.258148 0.262653,0.741079 -0.405116,2.07686 -0.690377,0.861743 0.04869,-0.805443 -0.102869,-1.677941 0.0863,-2.437516 0.622472,-0.395407 0.93974,0.838042 1.336297,1.252537 z m 2.015341,-0.417512 c 0.21389,-0.659529 1.231866,-1.486316 1.150627,-0.232796 -0.04731,0.737193 0.100905,1.540122 -0.0863,2.231692 -0.88723,0.595444 -0.485763,-1.278002 -0.656184,-1.453223 -0.260438,1.122037 -0.777773,-0.09895 -0.868396,0.132658 0.247588,0.742163 -0.370908,2.166574 -0.690377,0.92416 0.04842,-0.807082 -0.102473,-1.680365 0.0863,-2.442005 0.507154,-0.393162 0.768813,0.486543 1.06433,0.839514 z m 2.541839,0.844003 c -0.10169,-1.233065 -0.557079,0.298271 0,0 z m -0.505578,0.7183 c -0.576708,1.354872 -0.914539,-0.461264 -0.359971,-1.107302 0.152831,-0.702762 0.754954,-2.09711 1.143943,-0.801392 0.213349,0.66928 0.516684,1.299106 0.666516,1.996238 -0.390568,1.173933 -0.732288,-0.598345 -1.450488,-0.08754 z m 3.021267,-1.144791 c -0.263737,-0.741053 0.407594,-2.070335 0.690377,-0.857254 -0.04862,0.805853 0.102769,1.678547 -0.0863,2.438638 -0.649352,0.336896 -0.920773,-0.810796 -1.336297,-1.258148 0.262655,0.741079 -0.405115,2.07686 -0.690376,0.861743 0.04869,-0.805443 -0.102868,-1.677941 0.0863,-2.437516 0.622471,-0.395407 0.939739,0.838042 1.336296,1.252537 z m 2.081588,0.426491 c -0.101691,-1.233065 -0.557079,0.298271 0,0 z m -0.505578,0.7183 c -0.576708,1.354872 -0.91454,-0.461264 -0.359972,-1.107302 0.152831,-0.702762 0.754955,-2.09711 1.143943,-0.801392 0.21335,0.66928 0.516684,1.299106 0.666516,1.996238 -0.390567,1.173933 -0.732287,-0.598345 -1.450487,-0.08754 z m 3.514641,-1.324366 c -0.806241,-0.265862 -0.988106,0.620228 -0.425056,0.935193 -1.373532,0.691894 -0.78038,-2.472445 0.404136,-1.184353 0.849132,-1.477626 -2.357033,-1.302068 -1.921198,0.563417 -0.238757,1.736073 2.424166,2.292271 2.210598,0.398467 -0.0012,-0.268885 0.04623,-0.730419 -0.26848,-0.712724 z m 1.623083,1.858602 c 0.926171,-0.789382 -0.714355,-0.42614 -0.491632,-1.127702 0.657604,0.288624 0.974566,-0.976478 0.100441,-0.753346 -0.560661,-0.71827 0.882206,-0.09181 0.64289,-0.948523 -0.331315,-0.287508 -1.39454,-0.463075 -1.433707,0.29329 0.04862,0.805853 -0.10277,1.678547 0.0863,2.438638 0.333713,0.190849 0.736703,0.05791 1.095711,0.09764 z m 1.889817,-1.288451 c 0.74081,0.553269 0.102647,1.947539 -0.387939,0.773089 -0.543396,-1.150805 -0.182402,0.01271 -0.562853,0.490951 -0.797729,0.140412 -0.401899,-1.200297 -0.496208,-1.814787 -0.173249,-0.859938 0.230359,-1.415758 0.907736,-1.191131 0.801179,-0.217981 1.244674,1.214121 0.539264,1.741878 z M 34.80713,25.600552 c -0.346711,1.333925 1.11059,0.23027 0.118381,0 h -0.08036 z"
         id="text49550"
         inkscape:connector-curvature="0" />
      <g
         id="g53543"
         style="fill:#000000;fill-opacity:1"
         transform="matrix(0.25341017,0,0,0.27251274,-27.614522,-84.260427)">
        <path
           style="fill:#000000;fill-opacity:1;stroke-width:0.42873418"
           d="m 166.36076,393.32227 c -6.6134,-2.35074 1.40407,-16.00593 4.44822,-9.34291 1.75745,3.52187 10.43794,2.40171 4.44246,7.03363 -2.13986,2.47494 -5.79675,4.34475 -8.89068,2.30928 z"
           id="path53531"
           inkscape:connector-curvature="0" />
        <path
           style="fill:#000000;fill-opacity:1;stroke-width:0.42873418"
           d="m 169.67848,390.43369 c 0.71695,-4.76657 -5.09417,1.66151 0,0 z"
           id="path53529"
           inkscape:connector-curvature="0" />
        <path
           style="fill:#000000;fill-opacity:1;stroke-width:0.42873418"
           d="m 197.74585,392.90821 c -3.72311,-3.26509 -10.96211,-6.37597 -11.77174,-10.99768 2.43562,-3.56617 4.96089,-6.1461 8.33965,-1.75923 3.55128,3.04611 13.85593,8.94102 5.95716,12.815 -0.79619,0.62641 -1.73229,0.225 -2.52507,-0.0581 z"
           id="path53527"
           inkscape:connector-curvature="0" />
        <path
           style="fill:#000000;fill-opacity:1;stroke-width:0.42873418"
           d="m 175.65172,385.33519 c -8.64636,-2.76003 -2.63159,-10.12124 1.58548,-13.87546 3.13419,-3.16351 6.34151,4.71751 10.30312,5.09 -3.04466,3.08279 -6.52036,11.38606 -11.8886,8.78546 z"
           id="path53525"
           inkscape:connector-curvature="0" />
        <path
           style="fill:#000000;fill-opacity:1;stroke-width:0.42873418"
           d="m 188.17484,374.30722 c -6.19614,-1.85432 -10.75606,-8.92336 -7.89961,-15.17655 1.67427,-5.50861 10.13373,-9.09087 14.28734,-6.67497 -3.6462,3.67491 -10.64309,11.94092 -1.97562,14.22704 5.41143,2.3806 9.02121,-10.41422 12.12773,-5.99 1.67197,7.23454 -4.64886,14.21802 -11.86578,14.16487 -1.57427,0.0675 -3.15746,-0.12517 -4.67406,-0.55039 z"
           id="path53523"
           inkscape:connector-curvature="0" />
        <path
           style="fill:#000000;fill-opacity:1;stroke-width:0.42873418"
           d="m 171.0534,368.49238 c -2.25957,-1.53114 -8.99443,-5.85664 -3.06712,-6.81765 1.83418,2.77874 9.30269,5.62109 7.02999,9.05476 -1.60099,0.0425 -2.70108,-1.49148 -3.96287,-2.23711 z"
           id="path53519"
           inkscape:connector-curvature="0" />
      </g>
    </g>
  </g>
</svg>
