<?xml version="1.0" encoding="UTF-8" standalone="no"?>
<!-- Created with Inkscape (http://www.inkscape.org/) -->

<svg
   xmlns:dc="http://purl.org/dc/elements/1.1/"
   xmlns:cc="http://creativecommons.org/ns#"
   xmlns:rdf="http://www.w3.org/1999/02/22-rdf-syntax-ns#"
   xmlns:svg="http://www.w3.org/2000/svg"
   xmlns="http://www.w3.org/2000/svg"
   xmlns:sodipodi="http://sodipodi.sourceforge.net/DTD/sodipodi-0.dtd"
   xmlns:inkscape="http://www.inkscape.org/namespaces/inkscape"
   width="40"
   height="30"
   viewBox="0 0 10.583333 7.9375002"
   version="1.1"
   id="svg8"
   inkscape:version="0.92.4 (5da689c313, 2019-01-14)"
   sodipodi:docname="USOgraphics_icon.svg">
  <defs
     id="defs2" />
  <sodipodi:namedview
     id="base"
     pagecolor="#ffffff"
     bordercolor="#666666"
     borderopacity="1.0"
     inkscape:pageopacity="0.0"
     inkscape:pageshadow="2"
     inkscape:zoom="7.0270072"
     inkscape:cx="28.405431"
     inkscape:cy="3.5756764"
     inkscape:document-units="mm"
     inkscape:current-layer="layer1"
     showgrid="false"
     units="px"
     inkscape:window-width="1150"
     inkscape:window-height="737"
     inkscape:window-x="2069"
     inkscape:window-y="64"
     inkscape:window-maximized="0" />
  <metadata
     id="metadata5">
    <rdf:RDF>
      <cc:Work
         rdf:about="">
        <dc:format>image/svg+xml</dc:format>
        <dc:type
           rdf:resource="http://purl.org/dc/dcmitype/StillImage" />
        <dc:title></dc:title>
        <cc:license
           rdf:resource="http://creativecommons.org/licenses/by-sa/4.0/" />
      </cc:Work>
      <cc:License
         rdf:about="http://creativecommons.org/licenses/by-sa/4.0/">
        <cc:permits
           rdf:resource="http://creativecommons.org/ns#Reproduction" />
        <cc:permits
           rdf:resource="http://creativecommons.org/ns#Distribution" />
        <cc:requires
           rdf:resource="http://creativecommons.org/ns#Notice" />
        <cc:requires
           rdf:resource="http://creativecommons.org/ns#Attribution" />
        <cc:permits
           rdf:resource="http://creativecommons.org/ns#DerivativeWorks" />
        <cc:requires
           rdf:resource="http://creativecommons.org/ns#ShareAlike" />
      </cc:License>
    </rdf:RDF>
  </metadata>
  <g
     inkscape:label="Layer 1"
     inkscape:groupmode="layer"
     id="layer1"
     transform="translate(0,-289.06249)">
    <g
       style="display:inline"
       transform="matrix(0.11842812,0,0,0.10893111,11.552771,280.1813)"
       id="g16798">
      <path
         inkscape:connector-curvature="0"
         style="fill:#000005;fill-opacity:1;stroke-width:2.11530161"
         d="m -239.45703,327.62109 c -8.94631,-0.0512 -17.8886,1.0193 -26.63086,3.30664 -62.38088,16.32152 -85.55523,66.03325 -45.58008,97.77735 13.44873,10.67958 15.44713,13.91531 15.38477,24.91211 -0.0527,9.31948 -2.99153,13.60816 -17.48828,25.52539 -37.5365,30.85723 -12.41764,81.15403 48.05468,96.2207 25.13802,6.26317 52.7445,2.60167 79.6875,-10.56836 35.29108,-17.25063 66.8674,-64.09171 66.99024,-99.375 0.0323,-9.2804 2.44177,-13.65597 16.76172,-30.43945 16.71691,-19.59285 35.046553,-44.55303 39.878902,-54.30274 3.242608,-6.54225 3.573819,-8.90706 1.591797,-11.36523 -4.410255,-5.46969 -15.583479,0.91834 -45.929689,26.25781 -7.58143,6.3306 -15.08722,11.5087 -16.67969,11.50586 -1.59242,-0.003 -5.47915,-5.09576 -8.63671,-11.3164 -21.12203,-41.61163 -64.29935,-67.89197 -107.4043,-68.13868 z m 17.23633,40.83008 c 2.86684,0 7.08935,1.93232 9.38281,4.29297 2.29349,2.36066 4.16992,6.70538 4.16992,9.65625 0,2.95083 -1.87643,7.29751 -4.16992,9.6582 -2.29346,2.3607 -6.51597,4.29102 -9.38281,4.29102 -2.86685,0 -7.08936,-1.93032 -9.38282,-4.29102 -2.29349,-2.36069 -4.16992,-6.70737 -4.16992,-9.6582 0,-2.95087 1.87643,-7.29559 4.16992,-9.65625 2.29346,-2.36065 6.51597,-4.29297 9.38282,-4.29297 z m -59.04297,17.38086 c 2.50583,0.0934 5.00143,1.27575 7.54883,3.54297 6.53994,5.82055 7.3338,11.96284 2.38281,18.44141 -5.47389,7.16281 -14.67577,7.61107 -20.6543,1.00586 -5.62193,-6.21117 -5.36472,-11.5191 0.86719,-17.9336 3.39496,-3.49441 6.63369,-5.1767 9.85547,-5.05664 z m 109.78125,19.20899 c 6.65272,0.0755 12.85351,5.46623 12.85351,13.84375 0,5.07756 -1.39737,8.27345 -4.63476,10.60742 -6.80833,4.90847 -13.25754,4.08737 -18.14844,-2.3125 -5.44033,-7.11908 -5.45856,-11.59577 -0.0703,-17.54883 2.90671,-3.21141 6.51524,-4.62938 10,-4.58984 z m -103.90625,94.32031 c 5.96288,0 14.5957,8.25003 14.5957,13.94922 0,1.45217 -1.94558,5.1849 -4.32226,8.29492 -2.86549,3.74955 -6.32648,5.6543 -10.27344,5.6543 -5.96296,0 -14.59375,-8.25 -14.59375,-13.94922 0,-5.69919 8.63079,-13.94922 14.59375,-13.94922 z"
         id="path59299"
         transform="scale(0.26458333)" />
      <path
         id="path59283"
         d="m -52.62579,142.87503 c 3.03625,-1.18077 6.24199,-5.26873 6.24199,-7.95976 0,-1.96697 -4.4568,-6.19942 -6.52803,-6.19942 -2.53554,0 -5.30135,2.74955 -6.13213,6.09606 -0.36934,1.48777 -1.04146,3.78492 -1.49361,5.10478 -0.45214,1.31986 -0.66502,2.66132 -0.47307,2.98101 0.45893,0.76431 6.40255,0.74824 8.38485,-0.0226 z"
         style="fill:#ffffff;fill-opacity:1;stroke:#ffffff;stroke-width:0.55967355;stroke-opacity:1"
         inkscape:connector-curvature="0" />
      <path
         id="path59281"
         d="m -37.66806,124.75342 c 3.46101,-3.89489 8.4596,-9.77089 11.108,-13.05779 7.60938,-9.44396 9.2404,-12.490342 5.65884,-10.56936 -3.29518,1.76737 -27.78954,23.85662 -28.46589,25.67082 -0.39125,1.04943 3.4404,5.42765 4.55645,5.20643 0.46743,-0.0927 3.6816,-3.3552 7.1426,-7.2501 z"
         style="fill:#ffffff;fill-opacity:1;stroke-width:0.55967355"
         inkscape:connector-curvature="0" />
    </g>
  </g>
</svg>
