<?xml version="1.0" encoding="UTF-8" standalone="no"?>
<!-- Created with Inkscape (http://www.inkscape.org/) -->

<svg
   xmlns:dc="http://purl.org/dc/elements/1.1/"
   xmlns:cc="http://creativecommons.org/ns#"
   xmlns:rdf="http://www.w3.org/1999/02/22-rdf-syntax-ns#"
   xmlns:svg="http://www.w3.org/2000/svg"
   xmlns="http://www.w3.org/2000/svg"
   xmlns:sodipodi="http://sodipodi.sourceforge.net/DTD/sodipodi-0.dtd"
   xmlns:inkscape="http://www.inkscape.org/namespaces/inkscape"
   width="40"
   height="30"
   viewBox="0 0 10.583333 7.9375002"
   version="1.1"
   id="svg8"
   inkscape:version="0.92.4 (5da689c313, 2019-01-14)"
   sodipodi:docname="USOscience_icon.svg">
  <defs
     id="defs2" />
  <sodipodi:namedview
     id="base"
     pagecolor="#ffffff"
     bordercolor="#666666"
     borderopacity="1.0"
     inkscape:pageopacity="0.0"
     inkscape:pageshadow="2"
     inkscape:zoom="7.0270072"
     inkscape:cx="28.405431"
     inkscape:cy="3.5756764"
     inkscape:document-units="mm"
     inkscape:current-layer="layer1"
     showgrid="false"
     units="px"
     inkscape:window-width="1150"
     inkscape:window-height="737"
     inkscape:window-x="2069"
     inkscape:window-y="64"
     inkscape:window-maximized="0" />
  <metadata
     id="metadata5">
    <rdf:RDF>
      <cc:Work
         rdf:about="">
        <dc:format>image/svg+xml</dc:format>
        <dc:type
           rdf:resource="http://purl.org/dc/dcmitype/StillImage" />
        <dc:title></dc:title>
        <cc:license
           rdf:resource="http://creativecommons.org/licenses/by-sa/4.0/" />
      </cc:Work>
      <cc:License
         rdf:about="http://creativecommons.org/licenses/by-sa/4.0/">
        <cc:permits
           rdf:resource="http://creativecommons.org/ns#Reproduction" />
        <cc:permits
           rdf:resource="http://creativecommons.org/ns#Distribution" />
        <cc:requires
           rdf:resource="http://creativecommons.org/ns#Notice" />
        <cc:requires
           rdf:resource="http://creativecommons.org/ns#Attribution" />
        <cc:permits
           rdf:resource="http://creativecommons.org/ns#DerivativeWorks" />
        <cc:requires
           rdf:resource="http://creativecommons.org/ns#ShareAlike" />
      </cc:License>
    </rdf:RDF>
  </metadata>
  <g
     inkscape:label="Layer 1"
     inkscape:groupmode="layer"
     id="layer1"
     transform="translate(0,-289.06249)">
    <path
       style="display:inline;fill:#000000;fill-opacity:1;stroke-width:0.04728229"
       d="m 3.0227685,296.57128 c -0.075607,-0.033 -0.1796067,-0.11177 -0.2311123,-0.17496 l -0.093647,-0.1149 -0.00319,-0.15189 -0.00319,-0.15189 0.8275398,-1.43764 0.8275393,-1.43765 v -0.53933 -0.53933 l -0.1054693,-0.0222 -0.1054692,-0.0222 v -0.10846 -0.10846 l 0.1020034,-0.0439 0.1020015,-0.0439 h 0.9297839 0.9297869 l 0.1020014,0.0439 0.1020029,0.0439 v 0.10582 0.10582 l -0.079103,0.0244 -0.0791,0.0244 v 0.53851 0.53851 l 0.8232795,1.43887 0.8232779,1.43888 -0.00254,0.15635 -0.00254,0.15637 -0.090284,0.11077 c -0.049659,0.0609 -0.1567745,0.13841 -0.2380384,0.17219 l -0.1477546,0.0614 -2.1251825,-0.002 -2.1251718,-0.002 -0.1374643,-0.0601 z m 2.7587492,-1.88026 c 0.3685641,-0.0968 0.714634,-0.17598 0.7690442,-0.17598 0.054409,0 0.112363,-0.0108 0.1287874,-0.024 0.016422,-0.0132 -0.1457336,-0.33088 -0.3603517,-0.70595 l -0.3902157,-0.68194 v -0.52348 -0.52348 H 5.2959674 4.6631581 v 0.52518 0.52518 l -0.4477494,0.77421 c -0.2462609,0.42581 -0.453901,0.80446 -0.4614232,0.84145 l -0.013676,0.0673 0.3164067,0.0514 0.3164043,0.0514 0.3691393,-0.0127 0.3691408,-0.0127 z m -0.6906835,-3.3299 c -0.170213,-0.0758 -0.2653541,-0.22553 -0.2676049,-0.42104 l -0.00189,-0.16223 0.1541461,-0.12392 0.1541458,-0.12392 0.2281783,9.9e-4 0.2281769,10e-4 0.1124789,0.0732 c 0.1525861,0.0994 0.230294,0.23186 0.230294,0.39266 v 0.1342 l -0.1792962,0.14414 -0.1792967,0.14414 -0.1766622,-0.002 c -0.097161,-5.5e-4 -0.233372,-0.0268 -0.3026916,-0.0577 z m 0.436393,-0.11592 0.1307536,-0.0479 0.061066,-0.11851 0.061064,-0.11852 -0.070807,-0.11877 -0.070807,-0.11876 -0.1427717,-0.0404 -0.1427722,-0.0403 -0.1347362,0.0494 -0.1347382,0.0493 -0.058651,0.10348 -0.058651,0.10347 0.033731,0.10805 0.033726,0.10805 0.1443496,0.063 c 0.1772647,0.0773 0.1871364,0.0778 0.3492411,0.0185 z m 0.5606337,-0.6665 c -0.1001284,-0.0432 -0.2269533,-0.12684 -0.281833,-0.18593 l -0.099782,-0.10744 -0.023444,-0.18502 -0.023444,-0.18502 0.095163,-0.14753 0.095163,-0.14754 0.1791855,-0.0962 0.1791866,-0.0962 h 0.2217081 0.2217082 l 0.1791866,0.0962 0.1791836,0.0962 0.092206,0.14754 c 0.1182568,0.18923 0.1170354,0.36534 -0.00379,0.55094 l -0.096189,0.14771 -0.2313949,0.0954 c -0.2812105,0.11593 -0.4437687,0.11995 -0.6827829,0.0169 z m 0.7414659,-0.21501 0.154146,-0.12392 v -0.18831 -0.18833 l -0.1062935,-0.10863 -0.1062922,-0.10863 -0.1840613,-0.0489 -0.1840598,-0.0488 -0.1974407,0.0776 -0.1974399,0.0776 -0.096479,0.15872 -0.096481,0.15873 0.060747,0.14797 0.060743,0.14796 0.1351333,0.0854 0.1351299,0.0855 h 0.2342496 0.2342511 z m -2.218904,-0.13045 -0.1054691,-0.0848 v -0.0965 c 0,-0.0531 0.036941,-0.13895 0.082092,-0.19078 l 0.082091,-0.0942 h 0.1778135 0.1778125 l 0.082867,0.0666 c 0.1297268,0.10429 0.1255992,0.28915 -0.00916,0.4103 l -0.082515,0.0742 H 4.865924 4.7158947 Z m 0.4412998,-0.0897 0.078138,-0.0897 -0.041287,-0.0905 -0.041287,-0.0905 -0.1425205,-0.0137 -0.142519,-0.0136 -0.075913,0.0507 c -0.1682882,0.11228 -0.055625,0.33703 0.1689488,0.33703 h 0.1182967 z"
       id="path55131"
       inkscape:connector-curvature="0" />
  </g>
</svg>
