<?xml version="1.0" encoding="UTF-8" standalone="no"?>
<!-- Created with Inkscape (http://www.inkscape.org/) -->

<svg
   xmlns:dc="http://purl.org/dc/elements/1.1/"
   xmlns:cc="http://creativecommons.org/ns#"
   xmlns:rdf="http://www.w3.org/1999/02/22-rdf-syntax-ns#"
   xmlns:svg="http://www.w3.org/2000/svg"
   xmlns="http://www.w3.org/2000/svg"
   xmlns:sodipodi="http://sodipodi.sourceforge.net/DTD/sodipodi-0.dtd"
   xmlns:inkscape="http://www.inkscape.org/namespaces/inkscape"
   width="40"
   height="30"
   viewBox="0 0 10.583333 7.9375002"
   version="1.1"
   id="svg8"
   inkscape:version="0.92.4 (5da689c313, 2019-01-14)"
   sodipodi:docname="USOsystem_icon.svg">
  <defs
     id="defs2" />
  <sodipodi:namedview
     id="base"
     pagecolor="#ffffff"
     bordercolor="#666666"
     borderopacity="1.0"
     inkscape:pageopacity="0.0"
     inkscape:pageshadow="2"
     inkscape:zoom="7.0270072"
     inkscape:cx="28.405431"
     inkscape:cy="3.5756764"
     inkscape:document-units="mm"
     inkscape:current-layer="layer1"
     showgrid="false"
     units="px"
     inkscape:window-width="1150"
     inkscape:window-height="737"
     inkscape:window-x="2069"
     inkscape:window-y="64"
     inkscape:window-maximized="0" />
  <metadata
     id="metadata5">
    <rdf:RDF>
      <cc:Work
         rdf:about="">
        <dc:format>image/svg+xml</dc:format>
        <dc:type
           rdf:resource="http://purl.org/dc/dcmitype/StillImage" />
        <dc:title></dc:title>
        <cc:license
           rdf:resource="http://creativecommons.org/licenses/by-sa/4.0/" />
      </cc:Work>
      <cc:License
         rdf:about="http://creativecommons.org/licenses/by-sa/4.0/">
        <cc:permits
           rdf:resource="http://creativecommons.org/ns#Reproduction" />
        <cc:permits
           rdf:resource="http://creativecommons.org/ns#Distribution" />
        <cc:requires
           rdf:resource="http://creativecommons.org/ns#Notice" />
        <cc:requires
           rdf:resource="http://creativecommons.org/ns#Attribution" />
        <cc:permits
           rdf:resource="http://creativecommons.org/ns#DerivativeWorks" />
        <cc:requires
           rdf:resource="http://creativecommons.org/ns#ShareAlike" />
      </cc:License>
    </rdf:RDF>
  </metadata>
  <g
     inkscape:label="Layer 1"
     inkscape:groupmode="layer"
     id="layer1"
     transform="translate(0,-289.06249)">
    <g
       transform="matrix(0.17110645,0,0,0.18224075,-26.366373,225.08579)"
       style="display:inline;fill:#000000;fill-opacity:1"
       id="g53543">
      <path
         inkscape:connector-curvature="0"
         style="fill:#000000;fill-opacity:1;stroke-width:0.42873418"
         d="m 166.36076,393.32227 c -1.75504,-1.02233 -2.98533,-3.61553 -2.60043,-5.48113 0.2742,-1.32897 4.34892,-6.35178 5.15285,-6.35178 0.22971,0 0.75074,0.59791 1.15784,1.32868 0.4071,0.73078 1.06985,1.67021 1.47279,2.08763 0.93947,0.97326 3.80691,2.30724 4.95948,2.30724 1.57133,0 1.43095,0.6749 -0.64975,3.1237 -3.21262,3.78097 -6.40421,4.78479 -9.49278,2.98566 z"
         id="path53531" />
      <path
         inkscape:connector-curvature="0"
         style="fill:#000000;fill-opacity:1;stroke-width:0.42873418"
         d="m 169.67848,390.43369 c 0.69073,-0.62806 0.21021,-1.58548 -0.79574,-1.58548 -0.99124,0 -1.4995,0.6375 -1.15641,1.45047 0.29858,0.7075 1.25016,0.77332 1.95215,0.13501 z"
         id="path53529" />
      <path
         inkscape:connector-curvature="0"
         style="fill:#000000;fill-opacity:1;stroke-width:0.42873418"
         d="m 197.74585,392.90821 c -1.51374,-0.55133 -12.20585,-9.33139 -12.20585,-10.0231 0,-0.58233 0.25583,-0.8993 2.70535,-3.35176 0.73764,-0.73853 1.34116,-1.52041 1.34116,-1.73751 0,-1.13848 2.0015,0.0791 7.42765,4.51856 3.30292,2.70231 6.12942,5.26886 6.28111,5.70345 0.40643,1.16438 -0.59413,4.10871 -1.48037,4.35627 -0.41979,0.11726 -1.11458,0.38374 -1.54398,0.59218 -0.9274,0.45019 -1.14317,0.44522 -2.52507,-0.0581 z"
         id="path53527" />
      <path
         inkscape:connector-curvature="0"
         style="fill:#000000;fill-opacity:1;stroke-width:0.42873418"
         d="m 175.65172,385.33519 c -2.76135,-1.08885 -4.94895,-3.52084 -4.94895,-5.50182 0,-0.79921 7.41499,-9.79111 8.07404,-9.79111 0.153,0 1.04549,0.83468 1.98332,1.85484 0.93782,1.02016 2.80159,2.4175 4.14171,3.1052 1.34012,0.68771 2.52744,1.38405 2.63848,1.54743 0.11105,0.16337 -1.61398,2.35347 -3.83339,4.86688 -4.40623,4.98989 -4.82351,5.19288 -8.05521,3.91858 z"
         id="path53525" />
      <path
         inkscape:connector-curvature="0"
         style="fill:#000000;fill-opacity:1;stroke-width:0.42873418"
         d="m 188.17484,374.30722 c -2.67709,-0.74943 -6.27313,-3.68089 -7.6085,-6.20238 -2.04149,-3.85478 -1.19427,-9.22044 1.99807,-12.65434 1.90944,-2.05393 6.19691,-3.80536 9.31545,-3.80536 1.42963,0 2.71261,0.16668 2.85107,0.37039 0.13847,0.20371 -1.26588,2.06052 -3.12075,4.12623 -3.12916,3.48485 -3.37251,3.89404 -3.37251,5.67103 0,3.02698 2.16738,4.95887 5.56334,4.95887 1.90176,0 3.28253,-0.9954 6.79326,-4.89727 1.42046,-1.57872 2.83959,-2.8704 3.15363,-2.8704 0.77953,0 1.11285,1.34447 1.11492,4.49708 0.005,7.82336 -8.24936,13.1685 -16.68798,10.80615 z"
         id="path53523" />
      <path
         inkscape:connector-curvature="0"
         style="fill:#000000;fill-opacity:1;stroke-width:0.42873418"
         d="m 171.0534,368.49238 c -1.66181,-1.28367 -3.63449,-2.76188 -4.38373,-3.2849 -1.57038,-1.09624 -1.72942,-2.0952 -0.49526,-3.11079 1.10995,-0.91336 2.53912,-0.5295 3.54775,0.95288 0.41569,0.61094 1.96975,2.10173 3.45348,3.31285 2.90903,2.37457 3.2932,2.98549 2.45494,3.9039 -0.84054,0.92091 -1.33823,0.72803 -4.57718,-1.77394 z"
         id="path53519" />
    </g>
  </g>
</svg>
