<?xml version="1.0" encoding="UTF-8" standalone="no"?>
<!-- Created with Inkscape (http://www.inkscape.org/) -->

<svg
   xmlns:dc="http://purl.org/dc/elements/1.1/"
   xmlns:cc="http://creativecommons.org/ns#"
   xmlns:rdf="http://www.w3.org/1999/02/22-rdf-syntax-ns#"
   xmlns:svg="http://www.w3.org/2000/svg"
   xmlns="http://www.w3.org/2000/svg"
   xmlns:sodipodi="http://sodipodi.sourceforge.net/DTD/sodipodi-0.dtd"
   xmlns:inkscape="http://www.inkscape.org/namespaces/inkscape"
   width="150"
   height="150"
   viewBox="0 0 39.6875 39.6875"
   version="1.1"
   id="svg922"
   inkscape:version="0.92.4 (5da689c313, 2019-01-14)"
   sodipodi:docname="USO_games_gigalomania.svg">
  <title
     id="title1437">USOICON</title>
  <defs
     id="defs916">
    <clipPath
       id="clipPath1521"
       clipPathUnits="userSpaceOnUse">
      <rect
         y="66.644836"
         x="57.114269"
         height="151.42299"
         width="172.87534"
         id="rect1523"
         style="opacity:0.875;fill:#000000;fill-opacity:1;stroke:#000000;stroke-width:0.60403091;stroke-linejoin:round;stroke-miterlimit:4;stroke-dasharray:none;stroke-opacity:1" />
    </clipPath>
  </defs>
  <sodipodi:namedview
     id="base"
     pagecolor="#ffffff"
     bordercolor="#666666"
     borderopacity="1.0"
     inkscape:pageopacity="0.0"
     inkscape:pageshadow="2"
     inkscape:zoom="1.8765945"
     inkscape:cx="105.30135"
     inkscape:cy="70.3125"
     inkscape:document-units="px"
     inkscape:current-layer="layer7"
     showgrid="false"
     inkscape:window-width="894"
     inkscape:window-height="597"
     inkscape:window-x="2636"
     inkscape:window-y="147"
     inkscape:window-maximized="0"
     units="px" />
  <metadata
     id="metadata919">
    <rdf:RDF>
      <cc:Work
         rdf:about="">
        <dc:format>image/svg+xml</dc:format>
        <dc:type
           rdf:resource="http://purl.org/dc/dcmitype/StillImage" />
        <dc:title>USOICON</dc:title>
        <cc:license
           rdf:resource="http://creativecommons.org/licenses/by-sa/4.0/" />
      </cc:Work>
      <cc:License
         rdf:about="http://creativecommons.org/licenses/by-sa/4.0/">
        <cc:permits
           rdf:resource="http://creativecommons.org/ns#Reproduction" />
        <cc:permits
           rdf:resource="http://creativecommons.org/ns#Distribution" />
        <cc:requires
           rdf:resource="http://creativecommons.org/ns#Notice" />
        <cc:requires
           rdf:resource="http://creativecommons.org/ns#Attribution" />
        <cc:permits
           rdf:resource="http://creativecommons.org/ns#DerivativeWorks" />
        <cc:requires
           rdf:resource="http://creativecommons.org/ns#ShareAlike" />
      </cc:License>
    </rdf:RDF>
  </metadata>
  <g
     style="display:inline"
     transform="translate(-35.46637,-112.59198)"
     id="layer1"
     inkscape:groupmode="layer"
     inkscape:label="toonbox" />
  <g
     inkscape:label="text"
     id="layer3"
     inkscape:groupmode="layer">
    <flowRoot
       xml:space="preserve"
       id="flowRoot12043"
       style="font-variant-east_asian:normal;opacity:1;vector-effect:none;fill:#000000;fill-opacity:1;stroke:none;stroke-width:0.99999999;stroke-linecap:butt;stroke-linejoin:miter;stroke-miterlimit:4;stroke-dasharray:none;stroke-dashoffset:0;stroke-opacity:1;line-height:1.25;letter-spacing:0px;word-spacing:0px;-inkscape-font-specification:Insaniburger;font-family:Insaniburger;font-weight:normal;font-style:normal;font-stretch:normal;font-variant:normal"><flowRegion
         id="flowRegion12045"><rect
           id="rect12047"
           width="5.9572206"
           height="12.439795"
           x="-0.53288019"
           y="25.838921" /></flowRegion><flowPara
         id="flowPara12049"></flowPara></flowRoot>  </g>
  <g
     style="display:inline"
     inkscape:label="icon_games"
     id="layer7"
     inkscape:groupmode="layer">
    <g
       id="g12065">
      <path
         style="display:inline;opacity:0.875;fill:#999999;fill-opacity:1;stroke:none;stroke-width:0.11845408;stroke-linejoin:round;stroke-miterlimit:4;stroke-dasharray:none;stroke-opacity:0.97175137"
         d="M 1.435191,10.12791 C 2.670256,9.29705 4.324329,9.43582 5.75553,9.20511 14.11545,8.61268 22.517162,8.68995 30.881762,9.1576 c 2.392119,0.20608 4.838324,0.26932 7.150425,0.97031 0.872353,1.67498 0.817461,3.66984 1.026746,5.51683 0.208491,4.02511 0.362445,8.13136 -0.532305,12.08777 -0.230317,1.64927 -2.017724,2.0517 -3.40708,2.25864 C 28.802681,30.85612 22.40423,30.81147 16.04062,30.81293 11.303807,30.71862 6.537542,30.74635 1.839737,30.07418 0.173005,29.52829 0.822947,27.03924 0.434179,25.65651 0.154966,21.09087 0.021365,16.47217 0.692557,11.93449 0.848231,11.32021 0.903907,10.54918 1.435191,10.12791 Z"
         id="rect49496"
         inkscape:connector-curvature="0" />
      <path
         style="display:inline;fill:#000000;stroke-width:0.37203047"
         d="M 1.803349,30.70864 C 0.056742,30.0892 0.231437,27.93756 0.087588,26.427 -0.022935,21.93179 -0.070132,17.42779 0.099217,12.93387 -0.027874,11.27811 1.27784,10.0868 2.683582,9.49431 4.615709,8.56731 6.836395,8.9315 8.909365,8.7639 16.59615,8.63948 24.285544,8.62691 31.972812,8.67993 c 2.150882,0.14121 4.537543,-0.0199 6.403551,1.23592 1.58486,1.37874 1.255708,3.71898 1.302004,5.60595 -0.178243,4.07095 0.01584,8.16305 -0.388876,12.21995 -0.293352,1.71142 -2.120394,2.65314 -3.654582,3.02944 -6.368162,0.39372 -12.757085,0.28816 -19.135233,0.3134 C 11.668868,31.0283 6.826658,31.10952 2.006621,30.75364 L 1.803349,30.7086 Z m 34.717949,-1.05781 c 1.660436,-0.66982 2.120657,-2.56797 2.182495,-4.18169 C 38.903556,21.6571 38.926032,17.82461 38.6784,14.01451 38.609934,12.47205 38.055319,10.73538 36.494762,10.11382 34.51138,9.13075 32.202264,9.50823 30.063573,9.36171 22.019563,9.34057 13.971808,9.23982 5.930238,9.4697 4.247551,9.52117 2.061367,9.74531 1.291134,11.49417 c -0.682107,2.6627 -0.37748,5.45735 -0.46467,8.18069 0.080658,2.82901 -0.202804,5.71611 0.421771,8.49628 0.655233,1.84726 2.893842,2.0042 4.558802,2.11114 8.176545,0.4213 16.369453,0.15886 24.551012,0.03302 2.04628,-0.14679 4.225389,0.10711 6.163249,-0.66447 z M 4.297406,28.9474 c -0.939032,0.02717 -2.493051,-2.1182 -0.727168,-0.88447 1.706475,0.99084 3.797167,0.59334 5.679761,0.73138 0.843628,0.09701 3.276883,-0.14441 3.328971,0.24148 -2.712643,0.43249 -5.596207,0.56419 -8.281564,-0.08839 z m 31.24001,-17.1062 c -1.499147,-0.78086 -3.308903,-0.4003 -4.94344,-0.53994 -1.173066,-0.10336 -4.022293,-0.01807 -4.347208,-0.50636 2.904245,-0.07023 5.874879,-0.31161 8.734279,0.31742 0.913242,-0.14345 1.834744,2.01352 0.556369,0.72888 z"
         id="path49494"
         inkscape:connector-curvature="0" />
      <path
         style="font-style:normal;font-variant:normal;font-weight:normal;font-stretch:normal;font-size:4.283494px;font-family:Insaniburger;-inkscape-font-specification:Insaniburger;opacity:1;vector-effect:none;fill:#000000;fill-opacity:1;stroke:none;stroke-width:0.05019718;stroke-linecap:butt;stroke-linejoin:miter;stroke-miterlimit:4;stroke-dasharray:none;stroke-dashoffset:0;stroke-opacity:1"
         d="M 9.1288233,26.231747 C 8.1918512,25.981454 7.9786407,26.82536 8.6345124,27.130701 7.3023861,27.923682 7.4376161,24.978895 8.8084906,25.888671 10.373956,25.928134 8.141426,24.25644 7.4886387,25.255789 c -1.9525218,1.297499 0.9217908,4.142829 1.9524077,2.15838 -0.072589,-0.368323 0.2065889,-1.118441 -0.3122231,-1.182422 z m 1.3157977,1.411138 c -0.569181,1.058362 -1.0067741,-0.381398 -0.80286,-1.03481 -0.058852,-0.594675 -0.077752,-2.035874 0.77777,-1.291466 0.05669,0.769618 0.0097,1.552845 0.02509,2.326276 z M 12.8755,26.231747 c -0.936973,-0.250293 -1.150183,0.593613 -0.494311,0.898954 -1.332127,0.792981 -1.196897,-2.151806 0.173978,-1.24203 1.565464,0.03946 -0.667065,-1.632231 -1.319852,-0.632882 -1.952522,1.297499 0.921791,4.142829 1.952407,2.15838 -0.07259,-0.368323 0.20659,-1.118441 -0.312222,-1.182422 z m 1.928079,0.58258 c -0.1245,-1.153604 -0.638101,0.27591 0,0 z m -0.587953,0.690465 c -0.638535,1.288756 -1.080027,-0.394417 -0.439663,-1.015369 0.215195,-0.594146 0.759333,-2.065529 1.308157,-0.919555 0.263055,0.676547 0.628851,1.315859 0.818321,2.019076 -0.464896,1.137158 -0.821071,-0.562939 -1.686815,-0.08415 z m 3.290506,0.513535 c -0.526789,-0.05411 -1.586481,0.270264 -1.431359,-0.657663 0.05321,-0.714528 -0.114617,-1.490452 0.100356,-2.16138 0.957708,-0.435194 0.662681,0.925355 0.702502,1.50454 -0.430927,1.10386 1.191045,0.150758 0.817052,1.228734 l -0.07856,0.06433 z m 3.322944,-1.484502 c 0.02792,2.607216 -4.067347,1.352129 -2.671128,-0.868612 0.726573,-1.194861 2.776635,-0.640198 2.671128,0.868612 z m -0.960997,-0.541584 c -1.740475,-1.130477 -1.065533,2.605541 0.136343,0.83719 0.08588,-0.277642 0.05819,-0.615262 -0.136343,-0.83719 z m 2.471428,0.01079 c 0.255079,-0.618397 1.415875,-1.433594 1.338098,-0.239944 -0.05321,0.714529 0.114617,1.490453 -0.100356,2.161381 -0.944872,0.437502 -0.669063,-0.899257 -0.702502,-1.472635 -0.349983,0.679434 -0.7009,0.737619 -1.052972,0.02605 -0.125997,0.427122 0.30092,1.721906 -0.594563,1.516976 -0.446547,-0.4326 -0.130829,-1.254195 -0.225803,-1.857156 -0.298612,-0.999242 0.706726,-1.349224 1.111144,-0.422797 0.07565,0.09604 0.151302,0.19208 0.226954,0.288121 z m 2.955981,0.811297 c -0.124499,-1.153604 -0.6381,0.27591 0,0 z m -0.587953,0.690465 c -0.638534,1.288756 -1.080026,-0.394417 -0.439662,-1.015369 0.215195,-0.594146 0.759333,-2.065529 1.308157,-0.919555 0.263055,0.676547 0.628851,1.315859 0.818321,2.019076 -0.464895,1.137158 -0.821071,-0.562939 -1.686816,-0.08415 z m 3.513523,-1.100429 c -0.290977,-0.70836 0.461444,-1.989013 0.802859,-0.829424 -0.05462,0.776956 0.116669,1.616304 -0.100357,2.349528 -0.732623,0.329767 -1.043405,-0.73167 -1.507194,-1.150133 0.09774,0.320377 -0.261878,2.026668 -0.849684,0.868551 0.05533,-0.807791 -0.117682,-1.678624 0.100357,-2.442522 0.706969,-0.389866 1.104126,0.8134 1.554019,1.204 z m 1.808462,1.238522 c -0.569181,1.058362 -1.006774,-0.381398 -0.80286,-1.03481 -0.05885,-0.594675 -0.07775,-2.035874 0.77777,-1.291466 0.05669,0.769618 0.0097,1.552845 0.02509,2.326276 z m 1.617883,-0.828558 c -0.124499,-1.153604 -0.638101,0.27591 0,0 z m -0.587953,0.690465 c -0.638534,1.288756 -1.080027,-0.394417 -0.439663,-1.015369 0.215196,-0.594146 0.759334,-2.065529 1.308157,-0.919555 0.263056,0.676547 0.628852,1.315859 0.818322,2.019076 -0.464897,1.137158 -0.821072,-0.562939 -1.686816,-0.08415 z"
         id="text49550"
         inkscape:connector-curvature="0" />
      <g
         id="g53695"
         transform="matrix(0.23216083,0,0,0.26739887,-40.66702,-79.695953)">
        <path
           style="fill:#000000;fill-opacity:1;stroke-width:0.56041962"
           d="m 225.79653,381.36576 c -5.04874,-5.70045 -3.09798,-14.35633 -2.45039,-21.29598 2.14357,-8.89697 7.83465,-18.94365 17.6609,-20.54413 7.25222,-1.3964 13.14991,3.76259 20.06409,4.17152 6.86243,-0.25136 12.65893,-5.79643 19.79539,-4.07863 10.07438,0.99305 15.61039,11.35051 17.88548,20.14 0.72391,7.0246 2.71218,15.81255 -2.37779,21.60722 -6.22795,4.55619 -12.2931,-2.23293 -16.91721,-5.91504 -5.78798,-5.77763 -14.55245,-3.45633 -21.84303,-3.96964 -6.37158,-0.56289 -12.86431,0.86093 -17.22384,5.87987 -3.90129,3.36771 -9.44686,8.07986 -14.5936,4.00481 z"
           id="path53677"
           inkscape:connector-curvature="0" />
        <path
           style="fill:#ffffff;fill-opacity:1;stroke-width:0.56041962"
           d="m 277.9872,362.41501 c 5.58994,-5.40079 -8.06317,-7.57497 -4.77264,-0.67341 1.23932,1.3571 3.24548,2.00683 4.77264,0.67341 z"
           id="path53675"
           inkscape:connector-curvature="0" />
        <path
           style="fill:#ffffff;fill-opacity:1;stroke-width:0.56041962"
           d="m 247.09052,359.86347 c 0.27723,-3.25746 8.70112,-2.32963 4.12382,-6.78295 -5.26871,1.19244 -3.64993,-8.73224 -9.37797,-3.68051 1.20337,5.19333 -8.41269,2.02905 -5.05105,7.57352 3.38408,0.29645 5.45041,0.84964 5.40535,4.6496 1.57622,0.88603 5.19447,0.91959 4.89985,-1.75966 z"
           id="path53673"
           inkscape:connector-curvature="0" />
        <path
           style="fill:#fffffc;fill-opacity:1;stroke-width:0.56041962"
           d="m 288.72216,357.58638 c 4.50178,-7.79772 -11.51832,-3.99212 -3.56811,0.81562 1.22542,0.443 2.60725,-0.0116 3.56811,-0.81562 z"
           id="path53671"
           inkscape:connector-curvature="0" />
        <path
           style="fill:#f8ffff;fill-opacity:1;stroke-width:0.56041962"
           d="m 278.37813,352.42476 c 4.38079,-8.166 -11.41132,-4.0188 -3.58973,0.81533 1.23238,0.44154 2.62307,-0.004 3.58973,-0.81533 z"
           id="path53664"
           inkscape:connector-curvature="0" />
      </g>
    </g>
  </g>
</svg>
