<?xml version="1.0" encoding="UTF-8" standalone="no"?>
<!-- Created with Inkscape (http://www.inkscape.org/) -->

<svg
   xmlns:dc="http://purl.org/dc/elements/1.1/"
   xmlns:cc="http://creativecommons.org/ns#"
   xmlns:rdf="http://www.w3.org/1999/02/22-rdf-syntax-ns#"
   xmlns:svg="http://www.w3.org/2000/svg"
   xmlns="http://www.w3.org/2000/svg"
   xmlns:sodipodi="http://sodipodi.sourceforge.net/DTD/sodipodi-0.dtd"
   xmlns:inkscape="http://www.inkscape.org/namespaces/inkscape"
   width="150"
   height="150"
   viewBox="0 0 39.6875 39.6875"
   version="1.1"
   id="svg922"
   inkscape:version="0.92.4 (5da689c313, 2019-01-14)"
   sodipodi:docname="USO_games_ihavenotomatoes.svg">
  <title
     id="title1437">USOICON</title>
  <defs
     id="defs916">
    <clipPath
       id="clipPath1521"
       clipPathUnits="userSpaceOnUse">
      <rect
         y="66.644836"
         x="57.114269"
         height="151.42299"
         width="172.87534"
         id="rect1523"
         style="opacity:0.875;fill:#000000;fill-opacity:1;stroke:#000000;stroke-width:0.60403091;stroke-linejoin:round;stroke-miterlimit:4;stroke-dasharray:none;stroke-opacity:1" />
    </clipPath>
  </defs>
  <sodipodi:namedview
     id="base"
     pagecolor="#ffffff"
     bordercolor="#666666"
     borderopacity="1.0"
     inkscape:pageopacity="0.0"
     inkscape:pageshadow="2"
     inkscape:zoom="1.4656796"
     inkscape:cx="72.351193"
     inkscape:cy="49.727721"
     inkscape:document-units="px"
     inkscape:current-layer="layer7"
     showgrid="false"
     inkscape:window-width="942"
     inkscape:window-height="638"
     inkscape:window-x="2762"
     inkscape:window-y="79"
     inkscape:window-maximized="0"
     units="px" />
  <metadata
     id="metadata919">
    <rdf:RDF>
      <cc:Work
         rdf:about="">
        <dc:format>image/svg+xml</dc:format>
        <dc:type
           rdf:resource="http://purl.org/dc/dcmitype/StillImage" />
        <dc:title>USOICON</dc:title>
        <cc:license
           rdf:resource="http://creativecommons.org/licenses/by-sa/4.0/" />
      </cc:Work>
      <cc:License
         rdf:about="http://creativecommons.org/licenses/by-sa/4.0/">
        <cc:permits
           rdf:resource="http://creativecommons.org/ns#Reproduction" />
        <cc:permits
           rdf:resource="http://creativecommons.org/ns#Distribution" />
        <cc:requires
           rdf:resource="http://creativecommons.org/ns#Notice" />
        <cc:requires
           rdf:resource="http://creativecommons.org/ns#Attribution" />
        <cc:permits
           rdf:resource="http://creativecommons.org/ns#DerivativeWorks" />
        <cc:requires
           rdf:resource="http://creativecommons.org/ns#ShareAlike" />
      </cc:License>
    </rdf:RDF>
  </metadata>
  <g
     style="display:inline"
     transform="translate(-35.46637,-112.59198)"
     id="layer1"
     inkscape:groupmode="layer"
     inkscape:label="toonbox" />
  <g
     inkscape:label="text"
     id="layer3"
     inkscape:groupmode="layer" />
  <g
     style="display:inline"
     inkscape:label="icon_games"
     id="layer7"
     inkscape:groupmode="layer">
    <g
       id="g8443">
      <path
         style="display:inline;opacity:0.875;fill:#999999;fill-opacity:1;stroke:none;stroke-width:0.11845408;stroke-linejoin:round;stroke-miterlimit:4;stroke-dasharray:none;stroke-opacity:0.97175137"
         d="M 1.435191,10.12791 C 2.670256,9.29705 4.324329,9.43582 5.75553,9.20511 14.11545,8.61268 22.517162,8.68995 30.881762,9.1576 c 2.392119,0.20608 4.838324,0.26932 7.150425,0.97031 0.872353,1.67498 0.817461,3.66984 1.026746,5.51683 0.208491,4.02511 0.362445,8.13136 -0.532305,12.08777 -0.230317,1.64927 -2.017724,2.0517 -3.40708,2.25864 C 28.802681,30.85612 22.40423,30.81147 16.04062,30.81293 11.303807,30.71862 6.537542,30.74635 1.839737,30.07418 0.173005,29.52829 0.822947,27.03924 0.434179,25.65651 0.154966,21.09087 0.021365,16.47217 0.692557,11.93449 0.848231,11.32021 0.903907,10.54918 1.435191,10.12791 Z"
         id="rect49496"
         inkscape:connector-curvature="0" />
      <path
         style="display:inline;fill:#000000;stroke-width:0.37203047"
         d="M 1.803349,30.70864 C 0.056742,30.0892 0.231437,27.93756 0.087588,26.427 -0.022935,21.93179 -0.070132,17.42779 0.099217,12.93387 -0.027874,11.27811 1.27784,10.0868 2.683582,9.49431 4.615709,8.56731 6.836395,8.9315 8.909365,8.7639 16.59615,8.63948 24.285544,8.62691 31.972812,8.67993 c 2.150882,0.14121 4.537543,-0.0199 6.403551,1.23592 1.58486,1.37874 1.255708,3.71898 1.302004,5.60595 -0.178243,4.07095 0.01584,8.16305 -0.388876,12.21995 -0.293352,1.71142 -2.120394,2.65314 -3.654582,3.02944 -6.368162,0.39372 -12.757085,0.28816 -19.135233,0.3134 C 11.668868,31.0283 6.826658,31.10952 2.006621,30.75364 L 1.803349,30.7086 Z m 34.717949,-1.05781 c 1.660436,-0.66982 2.120657,-2.56797 2.182495,-4.18169 C 38.903556,21.6571 38.926032,17.82461 38.6784,14.01451 38.609934,12.47205 38.055319,10.73538 36.494762,10.11382 34.51138,9.13075 32.202264,9.50823 30.063573,9.36171 22.019563,9.34057 13.971808,9.23982 5.930238,9.4697 4.247551,9.52117 2.061367,9.74531 1.291134,11.49417 c -0.682107,2.6627 -0.37748,5.45735 -0.46467,8.18069 0.080658,2.82901 -0.202804,5.71611 0.421771,8.49628 0.655233,1.84726 2.893842,2.0042 4.558802,2.11114 8.176545,0.4213 16.369453,0.15886 24.551012,0.03302 2.04628,-0.14679 4.225389,0.10711 6.163249,-0.66447 z M 4.297406,28.9474 c -0.939032,0.02717 -2.493051,-2.1182 -0.727168,-0.88447 1.706475,0.99084 3.797167,0.59334 5.679761,0.73138 0.843628,0.09701 3.276883,-0.14441 3.328971,0.24148 -2.712643,0.43249 -5.596207,0.56419 -8.281564,-0.08839 z m 31.24001,-17.1062 c -1.499147,-0.78086 -3.308903,-0.4003 -4.94344,-0.53994 -1.173066,-0.10336 -4.022293,-0.01807 -4.347208,-0.50636 2.904245,-0.07023 5.874879,-0.31161 8.734279,0.31742 0.913242,-0.14345 1.834744,2.01352 0.556369,0.72888 z"
         id="path49494"
         inkscape:connector-curvature="0" />
      <path
         style="font-style:normal;font-variant:normal;font-weight:normal;font-stretch:normal;font-size:3.42678833px;font-family:Insaniburger;-inkscape-font-specification:Insaniburger;opacity:1;vector-effect:none;fill:#000000;fill-opacity:1;stroke:none;stroke-width:0.04015767;stroke-linecap:butt;stroke-linejoin:miter;stroke-miterlimit:4;stroke-dasharray:none;stroke-dashoffset:0;stroke-opacity:1"
         d="M 4.1104394,27.641546 C 3.5092659,28.489463 3.2919999,27.166816 3.4300058,26.664751 3.0598107,25.9549 4.1633086,25.249721 4.1104394,26.2753 c 0,0.455416 0,0.910831 0,1.366246 z M 6.619109,25.725388 c 0.651654,0.186172 0.2112925,1.104394 0.3402168,1.615507 0.1507636,0.949574 -1.0448775,0.50085 -0.6804336,-0.259857 -0.830264,-0.341583 -0.1556045,1.407769 -1.1231021,0.684545 0.00463,-0.646978 -0.1166364,-1.353346 0.063791,-1.969316 0.9251669,-0.498587 0.2889026,1.294227 1.0593115,0.674568 0.028926,-0.266661 -0.1325753,-0.777501 0.3402168,-0.745447 z m 1.7113936,1.290474 c -0.087044,-0.910722 -0.5488771,0.24172 0,0 z m -0.4982974,0.521404 c -0.7552815,1.039551 -0.779794,-0.54406 -0.2558996,-1.009073 0.1455367,-0.890634 1.0443387,-0.921507 1.2028976,-0.01628 0.4477384,0.426595 0.6487991,1.976837 -0.2133427,1.108332 -0.1108609,-0.187215 -0.5170345,-0.03254 -0.7336553,-0.08298 z m 2.1615797,0.394311 c -0.5809548,-0.346285 -0.6745928,-1.148575 -1.0309601,-1.70108 0.090207,-1.458163 0.9838033,0.652137 1.1084602,0.411864 0.05608,-0.901013 1.420424,-1.209389 0.793774,-0.08904 -0.297023,0.440985 -0.356298,1.142647 -0.8712741,1.37826 z m 2.3901081,-0.0065 c 0.956756,-0.443815 -1.436664,-0.678782 -0.06873,-0.844021 0.874014,-0.39412 -1.345811,-0.777648 0.06873,-0.837505 0.937787,-0.549848 -1.395781,-0.890378 -1.164984,-0.05703 0.05077,0.550005 -0.105524,1.151264 0.08505,1.667681 0.327183,0.140536 0.727247,0.04075 1.07993,0.07088 z M 15.0747,26.706278 c -0.365726,-0.709015 0.705249,-1.486125 0.680434,-0.430978 -0.09593,0.526059 0.210883,1.237641 -0.191372,1.63204 -0.560016,0.286568 -1.144329,-1.354447 -1.210734,-0.700031 0.271135,0.973947 -1.028897,0.790486 -0.680434,-0.09856 0.03647,-0.478174 -0.246882,-1.748556 0.652942,-1.249752 0.249721,0.282428 0.499443,0.564855 0.749164,0.847281 z m 3.283608,0.09776 c 0.02366,1.968833 -3.44713,1.021056 -2.263817,-0.65593 0.61578,-0.902298 2.353234,-0.483445 2.263817,0.65593 z m -0.814459,-0.408976 c -1.475075,-0.853677 -0.903053,1.967568 0.115554,0.632202 0.07278,-0.209661 0.04932,-0.464614 -0.115554,-0.632202 z m 3.086007,-0.151533 c -0.09443,0.538309 0.20828,1.260005 -0.191371,1.667065 -0.837482,0.0687 -0.366462,-1.018356 -0.489062,-1.508988 -0.450796,-0.148161 -0.882409,-0.787048 0.124563,-0.676222 0.631521,-0.206131 2.0209,0.380053 0.55587,0.518145 z m 3.199413,0.560509 c 0.02367,1.968833 -3.44713,1.021056 -2.263816,-0.65593 0.615781,-0.902298 2.353235,-0.483445 2.263816,0.65593 z m -0.814458,-0.408976 c -1.475075,-0.853677 -0.903053,1.967568 0.115553,0.632202 0.07279,-0.209661 0.04932,-0.464614 -0.115553,-0.632202 z m 2.094568,0.0081 c 0.27926,-0.666935 1.380594,-0.954299 1.134056,0.04969 -0.115908,0.47759 0.338122,1.532102 -0.489062,1.454441 -0.479668,-0.167758 0.130213,-1.689391 -0.494946,-0.827185 -0.369794,0.273402 -0.75824,-0.794718 -0.603671,0.286826 0.09325,0.979742 -1.05201,0.389322 -0.680433,-0.347032 -0.03052,-0.492046 -0.134942,-1.76572 0.713101,-1.092901 0.140318,0.158721 0.280637,0.317443 0.420955,0.476164 z m 2.505232,0.61265 c -0.08704,-0.910722 -0.548876,0.24172 0,0 z m -0.498297,0.521404 c -0.755281,1.039551 -0.779794,-0.54406 -0.2559,-1.009073 0.145537,-0.890634 1.044339,-0.921507 1.202898,-0.01628 0.447739,0.426595 0.648799,1.976837 -0.213343,1.108332 -0.11086,-0.187215 -0.517034,-0.03254 -0.733655,-0.08298 z m 2.431347,-1.293733 c -0.09443,0.538309 0.208281,1.260005 -0.191371,1.667065 -0.837482,0.0687 -0.366462,-1.018356 -0.489062,-1.508988 -0.450796,-0.148161 -0.882409,-0.787048 0.124565,-0.676222 0.63152,-0.206131 2.020898,0.380053 0.555868,0.518145 z m 3.199413,0.560509 c 0.02366,1.968833 -3.447131,1.021056 -2.263817,-0.65593 0.615781,-0.902298 2.353235,-0.483445 2.263817,0.65593 z m -0.814459,-0.408976 c -1.475075,-0.853677 -0.903053,1.967568 0.115554,0.632202 0.07278,-0.209661 0.04932,-0.464614 -0.115554,-0.632202 z m 2.125497,1.529993 c 0.956755,-0.443815 -1.436665,-0.678782 -0.06873,-0.844021 0.874014,-0.39412 -1.345812,-0.777648 0.06873,-0.837505 0.937786,-0.549848 -1.395781,-0.890378 -1.164985,-0.05703 0.05077,0.550005 -0.105523,1.151264 0.08505,1.667681 0.327183,0.140536 0.727247,0.04075 1.079931,0.07088 z m 1.362585,0.0065 c -1.186806,0.163734 -1.105011,-1.153036 0.01203,-0.53118 0.552661,-0.4608 -1.695439,-0.674846 -0.61514,-1.53814 0.841019,-0.834407 2.064258,0.815088 0.506889,0.309583 -0.376551,0.464446 1.708133,0.708948 0.646069,1.569099 l -0.246571,0.142979 z"
         id="text49550"
         inkscape:connector-curvature="0" />
      <g
         id="g53695"
         transform="matrix(0.23216083,0,0,0.26739887,-40.66702,-79.695953)">
        <path
           style="fill:#000000;fill-opacity:1;stroke-width:0.56041962"
           d="m 225.79653,381.36576 c -5.04874,-5.70045 -3.09798,-14.35633 -2.45039,-21.29598 2.14357,-8.89697 7.83465,-18.94365 17.6609,-20.54413 7.25222,-1.3964 13.14991,3.76259 20.06409,4.17152 6.86243,-0.25136 12.65893,-5.79643 19.79539,-4.07863 10.07438,0.99305 15.61039,11.35051 17.88548,20.14 0.72391,7.0246 2.71218,15.81255 -2.37779,21.60722 -6.22795,4.55619 -12.2931,-2.23293 -16.91721,-5.91504 -5.78798,-5.77763 -14.55245,-3.45633 -21.84303,-3.96964 -6.37158,-0.56289 -12.86431,0.86093 -17.22384,5.87987 -3.90129,3.36771 -9.44686,8.07986 -14.5936,4.00481 z"
           id="path53677"
           inkscape:connector-curvature="0" />
        <path
           style="fill:#ffffff;fill-opacity:1;stroke-width:0.56041962"
           d="m 277.9872,362.41501 c 5.58994,-5.40079 -8.06317,-7.57497 -4.77264,-0.67341 1.23932,1.3571 3.24548,2.00683 4.77264,0.67341 z"
           id="path53675"
           inkscape:connector-curvature="0" />
        <path
           style="fill:#ffffff;fill-opacity:1;stroke-width:0.56041962"
           d="m 247.09052,359.86347 c 0.27723,-3.25746 8.70112,-2.32963 4.12382,-6.78295 -5.26871,1.19244 -3.64993,-8.73224 -9.37797,-3.68051 1.20337,5.19333 -8.41269,2.02905 -5.05105,7.57352 3.38408,0.29645 5.45041,0.84964 5.40535,4.6496 1.57622,0.88603 5.19447,0.91959 4.89985,-1.75966 z"
           id="path53673"
           inkscape:connector-curvature="0" />
        <path
           style="fill:#fffffc;fill-opacity:1;stroke-width:0.56041962"
           d="m 288.72216,357.58638 c 4.50178,-7.79772 -11.51832,-3.99212 -3.56811,0.81562 1.22542,0.443 2.60725,-0.0116 3.56811,-0.81562 z"
           id="path53671"
           inkscape:connector-curvature="0" />
        <path
           style="fill:#f8ffff;fill-opacity:1;stroke-width:0.56041962"
           d="m 278.37813,352.42476 c 4.38079,-8.166 -11.41132,-4.0188 -3.58973,0.81533 1.23238,0.44154 2.62307,-0.004 3.58973,-0.81533 z"
           id="path53664"
           inkscape:connector-curvature="0" />
      </g>
    </g>
  </g>
</svg>
