<?xml version="1.0" encoding="UTF-8" standalone="no"?>
<!-- Created with Inkscape (http://www.inkscape.org/) -->

<svg
   xmlns:dc="http://purl.org/dc/elements/1.1/"
   xmlns:cc="http://creativecommons.org/ns#"
   xmlns:rdf="http://www.w3.org/1999/02/22-rdf-syntax-ns#"
   xmlns:svg="http://www.w3.org/2000/svg"
   xmlns="http://www.w3.org/2000/svg"
   xmlns:sodipodi="http://sodipodi.sourceforge.net/DTD/sodipodi-0.dtd"
   xmlns:inkscape="http://www.inkscape.org/namespaces/inkscape"
   width="150"
   height="150"
   viewBox="0 0 39.6875 39.6875"
   version="1.1"
   id="svg922"
   inkscape:version="0.92.4 (5da689c313, 2019-01-14)"
   sodipodi:docname="USO_graphics_structuredsynth.svg">
  <title
     id="title1437">USOICON</title>
  <defs
     id="defs916">
    <clipPath
       id="clipPath1521"
       clipPathUnits="userSpaceOnUse">
      <rect
         y="66.644836"
         x="57.114269"
         height="151.42299"
         width="172.87534"
         id="rect1523"
         style="opacity:0.875;fill:#000000;fill-opacity:1;stroke:#000000;stroke-width:0.60403091;stroke-linejoin:round;stroke-miterlimit:4;stroke-dasharray:none;stroke-opacity:1" />
    </clipPath>
  </defs>
  <sodipodi:namedview
     id="base"
     pagecolor="#ffffff"
     bordercolor="#666666"
     borderopacity="1.0"
     inkscape:pageopacity="0.0"
     inkscape:pageshadow="2"
     inkscape:zoom="1.5226005"
     inkscape:cx="61.318365"
     inkscape:cy="66.923448"
     inkscape:document-units="px"
     inkscape:current-layer="g1412"
     showgrid="false"
     inkscape:window-width="961"
     inkscape:window-height="509"
     inkscape:window-x="757"
     inkscape:window-y="52"
     inkscape:window-maximized="0"
     units="px" />
  <metadata
     id="metadata919">
    <rdf:RDF>
      <cc:Work
         rdf:about="">
        <dc:format>image/svg+xml</dc:format>
        <dc:type
           rdf:resource="http://purl.org/dc/dcmitype/StillImage" />
        <dc:title>USOICON</dc:title>
        <cc:license
           rdf:resource="http://creativecommons.org/licenses/by-sa/4.0/" />
      </cc:Work>
      <cc:License
         rdf:about="http://creativecommons.org/licenses/by-sa/4.0/">
        <cc:permits
           rdf:resource="http://creativecommons.org/ns#Reproduction" />
        <cc:permits
           rdf:resource="http://creativecommons.org/ns#Distribution" />
        <cc:requires
           rdf:resource="http://creativecommons.org/ns#Notice" />
        <cc:requires
           rdf:resource="http://creativecommons.org/ns#Attribution" />
        <cc:permits
           rdf:resource="http://creativecommons.org/ns#DerivativeWorks" />
        <cc:requires
           rdf:resource="http://creativecommons.org/ns#ShareAlike" />
      </cc:License>
    </rdf:RDF>
  </metadata>
  <g
     style="display:inline"
     transform="translate(-35.46637,-112.59198)"
     id="layer1"
     inkscape:groupmode="layer"
     inkscape:label="toonbox" />
  <g
     inkscape:label="text"
     id="layer3"
     inkscape:groupmode="layer" />
  <g
     style="display:inline"
     inkscape:label="icon_graphics"
     id="layer8"
     inkscape:groupmode="layer">
    <g
       id="g1412">
      <g
         id="g1574">
        <path
           style="display:inline;opacity:0.875;fill:#999999;fill-opacity:1;stroke:none;stroke-width:0.11845408;stroke-linejoin:round;stroke-miterlimit:4;stroke-dasharray:none;stroke-opacity:0.97175137"
           d="M 1.435191,10.12791 C 2.670256,9.29705 4.324329,9.43582 5.75553,9.20511 14.11545,8.61268 22.517162,8.68995 30.881762,9.1576 c 2.392119,0.20608 4.838324,0.26932 7.150425,0.97031 0.872353,1.67498 0.817461,3.66984 1.026746,5.51683 0.208491,4.02511 0.362445,8.13136 -0.532305,12.08777 -0.230317,1.64927 -2.017724,2.0517 -3.40708,2.25864 C 28.802681,30.85612 22.40423,30.81147 16.04062,30.81293 11.303807,30.71862 6.537542,30.74635 1.839737,30.07418 0.173005,29.52829 0.822947,27.03924 0.434179,25.65651 0.154966,21.09087 0.021365,16.47217 0.692557,11.93449 0.848231,11.32021 0.903907,10.54918 1.435191,10.12791 Z"
           id="rect49496"
           inkscape:connector-curvature="0" />
        <path
           style="display:inline;fill:#000000;stroke-width:0.37203047"
           d="M 1.803349,30.70864 C 0.056742,30.0892 0.231437,27.93756 0.087588,26.427 -0.022935,21.93179 -0.070132,17.42779 0.099217,12.93387 -0.027874,11.27811 1.27784,10.0868 2.683582,9.49431 4.615709,8.56731 6.836395,8.9315 8.909365,8.7639 16.59615,8.63948 24.285544,8.62691 31.972812,8.67993 c 2.150882,0.14121 4.537543,-0.0199 6.403551,1.23592 1.58486,1.37874 1.255708,3.71898 1.302004,5.60595 -0.178243,4.07095 0.01584,8.16305 -0.388876,12.21995 -0.293352,1.71142 -2.120394,2.65314 -3.654582,3.02944 -6.368162,0.39372 -12.757085,0.28816 -19.135233,0.3134 C 11.668868,31.0283 6.826658,31.10952 2.006621,30.75364 L 1.803349,30.7086 Z m 34.717949,-1.05781 c 1.660436,-0.66982 2.120657,-2.56797 2.182495,-4.18169 C 38.903556,21.6571 38.926032,17.82461 38.6784,14.01451 38.609934,12.47205 38.055319,10.73538 36.494762,10.11382 34.51138,9.13075 32.202264,9.50823 30.063573,9.36171 22.019563,9.34057 13.971808,9.23982 5.930238,9.4697 4.247551,9.52117 2.061367,9.74531 1.291134,11.49417 c -0.682107,2.6627 -0.37748,5.45735 -0.46467,8.18069 0.080658,2.82901 -0.202804,5.71611 0.421771,8.49628 0.655233,1.84726 2.893842,2.0042 4.558802,2.11114 8.176545,0.4213 16.369453,0.15886 24.551012,0.03302 2.04628,-0.14679 4.225389,0.10711 6.163249,-0.66447 z M 4.297406,28.9474 c -0.939032,0.02717 -2.493051,-2.1182 -0.727168,-0.88447 1.706475,0.99084 3.797167,0.59334 5.679761,0.73138 0.843628,0.09701 3.276883,-0.14441 3.328971,0.24148 -2.712643,0.43249 -5.596207,0.56419 -8.281564,-0.08839 z m 31.24001,-17.1062 c -1.499147,-0.78086 -3.308903,-0.4003 -4.94344,-0.53994 -1.173066,-0.10336 -4.022293,-0.01807 -4.347208,-0.50636 2.904245,-0.07023 5.874879,-0.31161 8.734279,0.31742 0.913242,-0.14345 1.834744,2.01352 0.556369,0.72888 z"
           id="path49494"
           inkscape:connector-curvature="0" />
        <path
           style="font-style:normal;font-variant:normal;font-weight:normal;font-stretch:normal;font-size:3.69742537px;font-family:Insaniburger;-inkscape-font-specification:Insaniburger;opacity:1;vector-effect:none;fill:#000000;fill-opacity:1;stroke:none;stroke-width:0.0433292;stroke-linecap:butt;stroke-linejoin:miter;stroke-miterlimit:4;stroke-dasharray:none;stroke-dashoffset:0;stroke-opacity:1"
           d="m 4.4693843,28.032885 c -1.0357268,0.339478 -1.3727564,-1.261886 -0.1976768,-0.610617 1.2598602,-0.21618 -1.7085219,-0.762782 -0.438879,-1.671896 0.8876551,-0.920371 2.1787261,0.899064 0.5349971,0.341479 -0.3974323,0.512296 1.8028538,0.781988 0.6818945,1.730755 l -0.2602443,0.15771 z M 6.7871005,26.17093 c -0.054593,0.586671 0.1129166,1.230684 -0.089771,1.78018 -0.9193113,0.352752 -0.5615226,-0.904272 -0.6283949,-1.414665 0.249508,-0.556485 -1.384,-0.50916 -0.271108,-0.937042 0.5162509,0.119941 1.6032981,-0.318798 1.627643,0.410785 -0.094518,0.24575 -0.4404709,0.134959 -0.6383694,0.160742 z m 2.3159025,0.823143 c 0.8469504,0.549825 -0.026441,1.542122 -0.4776502,0.520931 -0.595717,-1.107535 0.04785,1.048271 -0.9378252,0.432511 -0.1828669,-0.681061 -0.067924,-1.457431 -0.067328,-2.172205 0.6851734,-0.552306 2.4742144,0.0382 1.6430758,1.099807 z M 8.3159225,26.088256 c -0.3314475,1.305952 1.3268664,-0.0089 0,0 z m 3.3097275,1.279645 c -0.613132,1.500081 -2.4132376,0.286787 -1.929616,-0.998566 -0.3130499,-0.925868 1.027454,-0.958706 0.718165,-0.0033 -0.296859,0.756218 0.552352,1.600228 0.493285,0.443747 -0.257169,-0.600578 0.353359,-1.842709 0.718166,-0.806863 0,0.454999 0,0.909998 0,1.364997 z m 2.428343,0.22286 c -1.207796,1.664924 -3.501551,-1.187029 -1.496632,-1.975632 1.048818,-0.730547 2.230751,1.177916 0.549959,0.545018 -1.3191,0.220912 -0.212952,1.890217 0.768038,1.121935 0.106976,0.06354 0.181937,0.18304 0.178635,0.308679 z m 1.525196,-1.419831 c -0.05459,0.586671 0.112916,1.230684 -0.08977,1.78018 -0.919312,0.352752 -0.561523,-0.904272 -0.628395,-1.414665 0.249508,-0.556485 -1.384001,-0.50916 -0.271109,-0.937042 0.516252,0.119941 1.603299,-0.318798 1.627644,0.410785 -0.09452,0.24575 -0.440471,0.134959 -0.638369,0.160742 z m 2.740273,1.196971 c -0.613133,1.500081 -2.413239,0.286787 -1.929617,-0.998566 -0.313049,-0.925868 1.027454,-0.958706 0.718166,-0.0033 -0.29686,0.756218 0.552352,1.600228 0.493285,0.443747 -0.25717,-0.600578 0.353358,-1.842709 0.718166,-0.806863 0,0.454999 0,0.909998 0,1.364997 z m 1.6866,-0.373828 c 0.846951,0.549825 -0.02644,1.542122 -0.47765,0.520931 -0.595717,-1.107535 0.04785,1.048271 -0.937825,0.432511 -0.182867,-0.681061 -0.06792,-1.457431 -0.06733,-2.172205 0.685173,-0.552306 2.474214,0.0382 1.643076,1.099807 z m -0.78708,-0.905817 c -0.331447,1.305952 1.326866,-0.0089 0,0 z m 2.609697,1.937441 c 1.002256,-0.48856 -1.504427,-0.755099 -0.07254,-0.930978 0.913676,-0.436283 -1.407405,-0.860195 0.07254,-0.923789 0.960657,-0.585902 -1.294138,-0.944883 -1.229587,-0.168026 0.05079,0.642476 -0.107165,1.338808 0.08977,1.944611 0.342637,0.15377 0.769663,0.04572 1.139816,0.07818 z m 1.548772,0 c -0.715558,0.158039 -1.315517,-0.155287 -1.088129,-0.948175 0.09336,-0.509589 -0.314373,-1.575174 0.542287,-1.478119 1.597942,-0.385702 2.100363,2.115734 0.545842,2.426294 z m 0.273846,-1.234714 c -0.213805,-1.239515 -0.921959,-0.531629 -0.643809,0.29584 -0.223189,0.883293 0.800209,0.281174 0.643809,-0.29584 z m 2.696748,1.241902 c -1.035726,0.339478 -1.372756,-1.261886 -0.197676,-0.610617 1.25986,-0.21618 -1.708522,-0.762782 -0.438879,-1.671896 0.887655,-0.920371 2.178726,0.899064 0.534997,0.341479 -0.397433,0.512296 1.802854,0.781988 0.681894,1.730755 l -0.260243,0.15771 z m 2.103718,-1.660662 c 0.289069,-0.93782 1.706812,-0.792353 0.813033,0.151688 -0.596652,0.359435 -0.300495,1.080286 -0.663189,1.48224 -0.887607,0.115465 -0.222582,-1.076163 -0.901525,-1.394174 -0.918039,-0.775434 0.276794,-1.378568 0.68171,-0.330962 l 0.05544,0.07227 z m 2.791052,0.309127 c -0.338785,-0.674068 0.589309,-1.666242 0.718166,-0.587668 -0.0501,0.612342 0.106186,1.27811 -0.08977,1.853833 -0.653329,0.396945 -1.078645,-0.937306 -1.390087,-0.916582 0.3741,0.76139 -0.768423,1.497619 -0.718165,0.409705 0.04941,-0.58189 -0.105201,-1.216911 0.08977,-1.762156 0.646273,-0.321633 0.976762,0.672124 1.390085,1.002868 z m 2.24336,-0.51042 c -0.05459,0.586671 0.112917,1.230684 -0.08977,1.78018 -0.919311,0.352752 -0.561522,-0.904272 -0.628394,-1.414665 0.249507,-0.556485 -1.384001,-0.50916 -0.271109,-0.937042 0.516251,0.119941 1.603298,-0.318798 1.627644,0.410785 -0.09452,0.24575 -0.440472,0.134959 -0.63837,0.160742 z m 2.377564,-0.571527 c 0.672561,0.177577 0.232711,1.141142 0.359083,1.674405 0.270636,1.023261 -1.06988,0.831243 -0.718166,-0.105506 -0.83703,-0.580984 -0.11771,1.11074 -1.00584,0.837849 -0.413495,-0.421167 -0.107749,-1.180789 -0.201983,-1.745637 -0.171926,-1.056694 1.092062,-0.586035 0.718165,0.259083 0.985567,0.327839 0.04638,-0.91065 0.848741,-0.920194 z"
           id="text49550"
           inkscape:connector-curvature="0" />
        <g
           transform="matrix(0.18646615,0,0,0.17477205,30.894537,-4.0608331)"
           id="g16798">
          <path
             style="fill:#000005;fill-opacity:1;stroke-width:0.55967355"
             d="m -63.356338,86.683079 c -9.874279,0.20633 -22.300301,5.195348 -24.289917,16.007321 -2.168816,9.38617 16.582128,14.56277 5.927037,22.9884 -8.68926,4.95773 -6.835656,17.53827 1.28174,22.04121 13.85988,10.19372 34.882883,4.74141 43.568825,-9.64199 6.307492,-7.01342 3.09489,-17.89267 10.641114,-23.97674 2.463966,-4.7998 12.829179,-12.1707 8.877144,-16.855161 -7.599313,2.298305 -15.91087,17.073671 -19.946359,3.532341 -5.850096,-8.400878 -15.747732,-14.032593 -26.059584,-14.095381 z m 4.560445,10.802959 c 10.122006,2.812302 -4.753004,12.779612 -3.261741,2.35473 0.483508,-1.363419 1.866321,-2.234835 3.261741,-2.35473 z m -15.621785,4.598682 c 9.863404,3.00815 -4.865571,12.47548 -3.548232,2.5642 0.798309,-1.21437 1.947566,-2.55665 3.548232,-2.5642 z m 29.046288,5.08238 c 9.734204,2.80242 -4.411794,12.63796 -3.446785,2.33949 0.664422,-1.26017 1.929537,-2.39177 3.446785,-2.33949 z m -27.491861,24.95558 c 10.430142,2.81043 -4.670502,12.59468 -3.479806,2.47791 0.773822,-1.21256 1.97216,-2.34358 3.479806,-2.47791 z"
             id="path59299"
             inkscape:connector-curvature="0" />
          <path
             style="fill:#ffffff;fill-opacity:1;stroke:#ffffff;stroke-width:0.55967355;stroke-opacity:1"
             d="m -52.62579,142.87503 c 10.625922,-2.16342 4.562437,-18.88424 -3.99139,-12.36609 -2.70081,5.20001 -9.954547,16.49376 3.99139,12.36609 z"
             id="path59283"
             inkscape:connector-curvature="0" />
          <path
             style="fill:#ffffff;fill-opacity:1;stroke-width:0.55967355"
             d="m -37.66806,124.75342 c 6.420327,-7.65525 13.607006,-14.90345 18.556655,-23.61723 -6.79331,1.55739 -13.197892,10.39767 -19.460998,15.03705 -3.863258,4.35037 -16.481703,11.24747 -6.238257,15.83028 2.683022,-2.08016 4.82603,-4.78751 7.1426,-7.2501 z"
             id="path59281"
             inkscape:connector-curvature="0" />
        </g>
      </g>
    </g>
  </g>
</svg>
