<?xml version="1.0" encoding="UTF-8" standalone="no"?>
<!-- Created with Inkscape (http://www.inkscape.org/) -->

<svg
   xmlns:dc="http://purl.org/dc/elements/1.1/"
   xmlns:cc="http://creativecommons.org/ns#"
   xmlns:rdf="http://www.w3.org/1999/02/22-rdf-syntax-ns#"
   xmlns:svg="http://www.w3.org/2000/svg"
   xmlns="http://www.w3.org/2000/svg"
   xmlns:sodipodi="http://sodipodi.sourceforge.net/DTD/sodipodi-0.dtd"
   xmlns:inkscape="http://www.inkscape.org/namespaces/inkscape"
   width="150"
   height="150"
   viewBox="0 0 39.6875 39.6875"
   version="1.1"
   id="svg922"
   inkscape:version="0.92.4 (5da689c313, 2019-01-14)"
   sodipodi:docname="USO_system_jenkins.svg">
  <title
     id="title1437">USOICON</title>
  <defs
     id="defs916">
    <clipPath
       id="clipPath1521"
       clipPathUnits="userSpaceOnUse">
      <rect
         y="66.644836"
         x="57.114269"
         height="151.42299"
         width="172.87534"
         id="rect1523"
         style="opacity:0.875;fill:#000000;fill-opacity:1;stroke:#000000;stroke-width:0.60403091;stroke-linejoin:round;stroke-miterlimit:4;stroke-dasharray:none;stroke-opacity:1" />
    </clipPath>
  </defs>
  <sodipodi:namedview
     id="base"
     pagecolor="#ffffff"
     bordercolor="#666666"
     borderopacity="1.0"
     inkscape:pageopacity="0.0"
     inkscape:pageshadow="2"
     inkscape:zoom="1.6548152"
     inkscape:cx="88.629765"
     inkscape:cy="90.089496"
     inkscape:document-units="px"
     inkscape:current-layer="layer13"
     showgrid="false"
     inkscape:window-width="842"
     inkscape:window-height="547"
     inkscape:window-x="2640"
     inkscape:window-y="223"
     inkscape:window-maximized="0"
     units="px" />
  <metadata
     id="metadata919">
    <rdf:RDF>
      <cc:Work
         rdf:about="">
        <dc:format>image/svg+xml</dc:format>
        <dc:type
           rdf:resource="http://purl.org/dc/dcmitype/StillImage" />
        <dc:title>USOICON</dc:title>
        <cc:license
           rdf:resource="http://creativecommons.org/licenses/by-sa/4.0/" />
      </cc:Work>
      <cc:License
         rdf:about="http://creativecommons.org/licenses/by-sa/4.0/">
        <cc:permits
           rdf:resource="http://creativecommons.org/ns#Reproduction" />
        <cc:permits
           rdf:resource="http://creativecommons.org/ns#Distribution" />
        <cc:requires
           rdf:resource="http://creativecommons.org/ns#Notice" />
        <cc:requires
           rdf:resource="http://creativecommons.org/ns#Attribution" />
        <cc:permits
           rdf:resource="http://creativecommons.org/ns#DerivativeWorks" />
        <cc:requires
           rdf:resource="http://creativecommons.org/ns#ShareAlike" />
      </cc:License>
    </rdf:RDF>
  </metadata>
  <g
     style="display:inline"
     transform="translate(-35.46637,-112.59198)"
     id="layer1"
     inkscape:groupmode="layer"
     inkscape:label="toonbox" />
  <g
     inkscape:label="text"
     id="layer3"
     inkscape:groupmode="layer" />
  <g
     style="display:inline"
     inkscape:label="icon_system"
     id="layer13"
     inkscape:groupmode="layer">
    <g
       id="g2125">
      <path
         style="display:inline;opacity:0.875;fill:#999999;fill-opacity:1;stroke:none;stroke-width:0.11845408;stroke-linejoin:round;stroke-miterlimit:4;stroke-dasharray:none;stroke-opacity:0.97175137"
         d="M 1.435191,10.12791 C 2.670256,9.29705 4.324329,9.43582 5.75553,9.20511 14.11545,8.61268 22.517162,8.68995 30.881762,9.1576 c 2.392119,0.20608 4.838324,0.26932 7.150425,0.97031 0.872353,1.67498 0.817461,3.66984 1.026746,5.51683 0.208491,4.02511 0.362445,8.13136 -0.532305,12.08777 -0.230317,1.64927 -2.017724,2.0517 -3.40708,2.25864 C 28.802681,30.85612 22.40423,30.81147 16.04062,30.81293 11.303807,30.71862 6.537542,30.74635 1.839737,30.07418 0.173005,29.52829 0.822947,27.03924 0.434179,25.65651 0.154966,21.09087 0.021365,16.47217 0.692557,11.93449 0.848231,11.32021 0.903907,10.54918 1.435191,10.12791 Z"
         id="rect49496"
         inkscape:connector-curvature="0" />
      <path
         style="display:inline;fill:#000000;stroke-width:0.37203047"
         d="M 1.803349,30.70864 C 0.056742,30.0892 0.231437,27.93756 0.087588,26.427 -0.022935,21.93179 -0.070132,17.42779 0.099217,12.93387 -0.027874,11.27811 1.27784,10.0868 2.683582,9.49431 4.615709,8.56731 6.836395,8.9315 8.909365,8.7639 16.59615,8.63948 24.285544,8.62691 31.972812,8.67993 c 2.150882,0.14121 4.537543,-0.0199 6.403551,1.23592 1.58486,1.37874 1.255708,3.71898 1.302004,5.60595 -0.178243,4.07095 0.01584,8.16305 -0.388876,12.21995 -0.293352,1.71142 -2.120394,2.65314 -3.654582,3.02944 -6.368162,0.39372 -12.757085,0.28816 -19.135233,0.3134 C 11.668868,31.0283 6.826658,31.10952 2.006621,30.75364 L 1.803349,30.7086 Z m 34.717949,-1.05781 c 1.660436,-0.66982 2.120657,-2.56797 2.182495,-4.18169 C 38.903556,21.6571 38.926032,17.82461 38.6784,14.01451 38.609934,12.47205 38.055319,10.73538 36.494762,10.11382 34.51138,9.13075 32.202264,9.50823 30.063573,9.36171 22.019563,9.34057 13.971808,9.23982 5.930238,9.4697 4.247551,9.52117 2.061367,9.74531 1.291134,11.49417 c -0.682107,2.6627 -0.37748,5.45735 -0.46467,8.18069 0.080658,2.82901 -0.202804,5.71611 0.421771,8.49628 0.655233,1.84726 2.893842,2.0042 4.558802,2.11114 8.176545,0.4213 16.369453,0.15886 24.551012,0.03302 2.04628,-0.14679 4.225389,0.10711 6.163249,-0.66447 z M 4.297406,28.9474 c -0.939032,0.02717 -2.493051,-2.1182 -0.727168,-0.88447 1.706475,0.99084 3.797167,0.59334 5.679761,0.73138 0.843628,0.09701 3.276883,-0.14441 3.328971,0.24148 -2.712643,0.43249 -5.596207,0.56419 -8.281564,-0.08839 z m 31.24001,-17.1062 c -1.499147,-0.78086 -3.308903,-0.4003 -4.94344,-0.53994 -1.173066,-0.10336 -4.022293,-0.01807 -4.347208,-0.50636 2.904245,-0.07023 5.874879,-0.31161 8.734279,0.31742 0.913242,-0.14345 1.834744,2.01352 0.556369,0.72888 z"
         id="path49494"
         inkscape:connector-curvature="0" />
      <path
         style="font-style:normal;font-variant:normal;font-weight:normal;font-stretch:normal;font-size:4.94612217px;font-family:Insaniburger;-inkscape-font-specification:Insaniburger;opacity:1;vector-effect:none;fill:#000000;fill-opacity:1;stroke:none;stroke-width:0.05796236;stroke-linecap:butt;stroke-linejoin:miter;stroke-miterlimit:4;stroke-dasharray:none;stroke-dashoffset:0;stroke-opacity:1"
         d="m 13.8775,27.039944 c 0.134782,1.951188 -3.122813,0.593897 -1.610913,-0.314455 0.784555,0.871242 0.804807,-0.203343 0.744172,-1.047551 -0.384367,-1.024322 0.913036,-1.891008 0.866741,-0.494677 0,0.618894 0,1.237789 0,1.856683 z m 1.702839,0.975341 c 1.089784,-0.787744 -0.638093,-0.675927 -0.617224,-1.149289 0.09475,-0.286101 1.544868,-0.445578 0.529675,-1.08387 -0.672396,0.337877 -0.73483,-0.830943 -0.03382,-0.516985 1.039891,-0.235357 0.0066,-1.198611 -0.622413,-0.847427 -0.859467,-0.253587 -0.768623,0.875944 -0.740182,1.570508 0.09149,0.651535 -0.221547,1.554236 0.24377,1.998083 0.410117,0.05966 0.827527,0.01535 1.240195,0.02898 z m 2.341951,-1.993321 c -0.109851,-0.708062 0.03229,-2.228727 0.839655,-1.343426 0.04366,1.019343 0.0459,2.056606 0,3.075923 -0.627518,0.780676 -1.124027,-0.53403 -1.531767,-1.019858 -0.487323,-0.828463 -0.02457,0.879555 -0.335502,1.16476 -0.960994,0.542834 -0.748476,-0.973149 -0.758397,-1.655827 0.05873,-0.663143 -0.28001,-2.092676 0.671943,-1.772525 0.415517,0.461515 0.738698,1.040324 1.114068,1.550953 z m 2.753434,0.186541 c 0.32077,0.498787 1.393069,1.446705 0.442125,1.80678 -0.520867,-0.288376 -0.824414,-0.969289 -1.243204,-1.439028 0.312192,0.858954 -0.564314,2.211198 -0.866741,0.874721 0.01722,-0.923341 -0.03502,-1.853512 0.02709,-2.77244 0.911914,-1.176699 0.77787,1.154662 0.95192,1.019847 0.443546,-0.397757 0.78633,-1.550852 1.417664,-1.142098 0.40437,0.627807 -0.490226,1.153594 -0.72885,1.652218 z m 1.919524,1.343094 c -0.52598,1.251734 -1.104303,-0.307077 -0.86674,-1.106822 0.09148,-0.651535 -0.221547,-1.554237 0.24377,-1.998083 0.924336,-0.21333 0.546091,1.182805 0.62297,1.843389 0,0.420505 0,0.84101 0,1.261516 z m 2.004885,-1.529635 c -0.109851,-0.708062 0.03229,-2.228727 0.839656,-1.343426 0.04366,1.019343 0.0459,2.056606 0,3.075923 -0.627519,0.780676 -1.124027,-0.53403 -1.531768,-1.019858 -0.487323,-0.828463 -0.02457,0.879555 -0.3355,1.16476 -0.960995,0.542834 -0.748478,-0.973149 -0.758399,-1.655827 0.05873,-0.663143 -0.280009,-2.092676 0.671943,-1.772525 0.415518,0.461515 0.7387,1.040324 1.114068,1.550953 z m 2.265346,2.00398 c -0.897498,0.52993 -1.805393,-1.558493 -0.536241,-1.015314 1.397307,0.440818 0.377594,-0.716038 -0.322839,-0.898726 -1.173735,-1.660868 2.155254,-2.616389 1.647026,-0.821446 -0.624541,-0.249817 -1.676303,0.04711 -0.496844,0.54763 1.122855,0.240524 0.785984,2.298941 -0.291102,2.187856 z"
         id="text49550"
         inkscape:connector-curvature="0" />
      <g
         id="g53543"
         style="fill:#000000;fill-opacity:1"
         transform="matrix(0.25341017,0,0,0.27251274,-27.614522,-84.260427)">
        <path
           style="fill:#000000;fill-opacity:1;stroke-width:0.42873418"
           d="m 166.36076,393.32227 c -6.6134,-2.35074 1.40407,-16.00593 4.44822,-9.34291 1.75745,3.52187 10.43794,2.40171 4.44246,7.03363 -2.13986,2.47494 -5.79675,4.34475 -8.89068,2.30928 z"
           id="path53531"
           inkscape:connector-curvature="0" />
        <path
           style="fill:#000000;fill-opacity:1;stroke-width:0.42873418"
           d="m 169.67848,390.43369 c 0.71695,-4.76657 -5.09417,1.66151 0,0 z"
           id="path53529"
           inkscape:connector-curvature="0" />
        <path
           style="fill:#000000;fill-opacity:1;stroke-width:0.42873418"
           d="m 197.74585,392.90821 c -3.72311,-3.26509 -10.96211,-6.37597 -11.77174,-10.99768 2.43562,-3.56617 4.96089,-6.1461 8.33965,-1.75923 3.55128,3.04611 13.85593,8.94102 5.95716,12.815 -0.79619,0.62641 -1.73229,0.225 -2.52507,-0.0581 z"
           id="path53527"
           inkscape:connector-curvature="0" />
        <path
           style="fill:#000000;fill-opacity:1;stroke-width:0.42873418"
           d="m 175.65172,385.33519 c -8.64636,-2.76003 -2.63159,-10.12124 1.58548,-13.87546 3.13419,-3.16351 6.34151,4.71751 10.30312,5.09 -3.04466,3.08279 -6.52036,11.38606 -11.8886,8.78546 z"
           id="path53525"
           inkscape:connector-curvature="0" />
        <path
           style="fill:#000000;fill-opacity:1;stroke-width:0.42873418"
           d="m 188.17484,374.30722 c -6.19614,-1.85432 -10.75606,-8.92336 -7.89961,-15.17655 1.67427,-5.50861 10.13373,-9.09087 14.28734,-6.67497 -3.6462,3.67491 -10.64309,11.94092 -1.97562,14.22704 5.41143,2.3806 9.02121,-10.41422 12.12773,-5.99 1.67197,7.23454 -4.64886,14.21802 -11.86578,14.16487 -1.57427,0.0675 -3.15746,-0.12517 -4.67406,-0.55039 z"
           id="path53523"
           inkscape:connector-curvature="0" />
        <path
           style="fill:#000000;fill-opacity:1;stroke-width:0.42873418"
           d="m 171.0534,368.49238 c -2.25957,-1.53114 -8.99443,-5.85664 -3.06712,-6.81765 1.83418,2.77874 9.30269,5.62109 7.02999,9.05476 -1.60099,0.0425 -2.70108,-1.49148 -3.96287,-2.23711 z"
           id="path53519"
           inkscape:connector-curvature="0" />
      </g>
    </g>
  </g>
</svg>
