<?xml version="1.0" encoding="UTF-8" standalone="no"?>
<!-- Created with Inkscape (http://www.inkscape.org/) -->

<svg
   xmlns:dc="http://purl.org/dc/elements/1.1/"
   xmlns:cc="http://creativecommons.org/ns#"
   xmlns:rdf="http://www.w3.org/1999/02/22-rdf-syntax-ns#"
   xmlns:svg="http://www.w3.org/2000/svg"
   xmlns="http://www.w3.org/2000/svg"
   xmlns:sodipodi="http://sodipodi.sourceforge.net/DTD/sodipodi-0.dtd"
   xmlns:inkscape="http://www.inkscape.org/namespaces/inkscape"
   width="150"
   height="150"
   viewBox="0 0 39.6875 39.6875"
   version="1.1"
   id="svg922"
   inkscape:version="0.92.4 (5da689c313, 2019-01-14)"
   sodipodi:docname="USO_utilitiies_simplescreenrecorder.svg">
  <title
     id="title1437">USOICON</title>
  <defs
     id="defs916">
    <clipPath
       id="clipPath1521"
       clipPathUnits="userSpaceOnUse">
      <rect
         y="66.644836"
         x="57.114269"
         height="151.42299"
         width="172.87534"
         id="rect1523"
         style="opacity:0.875;fill:#000000;fill-opacity:1;stroke:#000000;stroke-width:0.60403091;stroke-linejoin:round;stroke-miterlimit:4;stroke-dasharray:none;stroke-opacity:1" />
    </clipPath>
  </defs>
  <sodipodi:namedview
     id="base"
     pagecolor="#ffffff"
     bordercolor="#666666"
     borderopacity="1.0"
     inkscape:pageopacity="0.0"
     inkscape:pageshadow="2"
     inkscape:zoom="1.6932001"
     inkscape:cx="87.054868"
     inkscape:cy="72.528306"
     inkscape:document-units="px"
     inkscape:current-layer="layer14"
     showgrid="false"
     inkscape:window-width="882"
     inkscape:window-height="549"
     inkscape:window-x="2631"
     inkscape:window-y="289"
     inkscape:window-maximized="0"
     units="px" />
  <metadata
     id="metadata919">
    <rdf:RDF>
      <cc:Work
         rdf:about="">
        <dc:format>image/svg+xml</dc:format>
        <dc:type
           rdf:resource="http://purl.org/dc/dcmitype/StillImage" />
        <dc:title>USOICON</dc:title>
        <cc:license
           rdf:resource="http://creativecommons.org/licenses/by-sa/4.0/" />
      </cc:Work>
      <cc:License
         rdf:about="http://creativecommons.org/licenses/by-sa/4.0/">
        <cc:permits
           rdf:resource="http://creativecommons.org/ns#Reproduction" />
        <cc:permits
           rdf:resource="http://creativecommons.org/ns#Distribution" />
        <cc:requires
           rdf:resource="http://creativecommons.org/ns#Notice" />
        <cc:requires
           rdf:resource="http://creativecommons.org/ns#Attribution" />
        <cc:permits
           rdf:resource="http://creativecommons.org/ns#DerivativeWorks" />
        <cc:requires
           rdf:resource="http://creativecommons.org/ns#ShareAlike" />
      </cc:License>
    </rdf:RDF>
  </metadata>
  <g
     style="display:inline"
     transform="translate(-35.46637,-112.59198)"
     id="layer1"
     inkscape:groupmode="layer"
     inkscape:label="toonbox" />
  <g
     inkscape:label="text"
     id="layer3"
     inkscape:groupmode="layer" />
  <g
     style="display:inline"
     inkscape:label="icon_utilities"
     id="layer14"
     inkscape:groupmode="layer">
    <g
       id="g3166">
      <path
         style="display:inline;opacity:0.875;fill:#999999;fill-opacity:1;stroke:none;stroke-width:0.11845408;stroke-linejoin:round;stroke-miterlimit:4;stroke-dasharray:none;stroke-opacity:0.97175137"
         d="M 1.435191,10.12791 C 2.670256,9.29705 4.324329,9.43582 5.75553,9.20511 14.11545,8.61268 22.517162,8.68995 30.881762,9.1576 c 2.392119,0.20608 4.838324,0.26932 7.150425,0.97031 0.872353,1.67498 0.817461,3.66984 1.026746,5.51683 0.208491,4.02511 0.362445,8.13136 -0.532305,12.08777 -0.230317,1.64927 -2.017724,2.0517 -3.40708,2.25864 C 28.802681,30.85612 22.40423,30.81147 16.04062,30.81293 11.303807,30.71862 6.537542,30.74635 1.839737,30.07418 0.173005,29.52829 0.822947,27.03924 0.434179,25.65651 0.154966,21.09087 0.021365,16.47217 0.692557,11.93449 0.848231,11.32021 0.903907,10.54918 1.435191,10.12791 Z"
         id="rect49496"
         inkscape:connector-curvature="0" />
      <path
         style="display:inline;fill:#000000;stroke-width:0.37203047"
         d="M 1.803349,30.70864 C 0.056742,30.0892 0.231437,27.93756 0.087588,26.427 -0.022935,21.93179 -0.070132,17.42779 0.099217,12.93387 -0.027874,11.27811 1.27784,10.0868 2.683582,9.49431 4.615709,8.56731 6.836395,8.9315 8.909365,8.7639 16.59615,8.63948 24.285544,8.62691 31.972812,8.67993 c 2.150882,0.14121 4.537543,-0.0199 6.403551,1.23592 1.58486,1.37874 1.255708,3.71898 1.302004,5.60595 -0.178243,4.07095 0.01584,8.16305 -0.388876,12.21995 -0.293352,1.71142 -2.120394,2.65314 -3.654582,3.02944 -6.368162,0.39372 -12.757085,0.28816 -19.135233,0.3134 C 11.668868,31.0283 6.826658,31.10952 2.006621,30.75364 L 1.803349,30.7086 Z m 34.717949,-1.05781 c 1.660436,-0.66982 2.120657,-2.56797 2.182495,-4.18169 C 38.903556,21.6571 38.926032,17.82461 38.6784,14.01451 38.609934,12.47205 38.055319,10.73538 36.494762,10.11382 34.51138,9.13075 32.202264,9.50823 30.063573,9.36171 22.019563,9.34057 13.971808,9.23982 5.930238,9.4697 4.247551,9.52117 2.061367,9.74531 1.291134,11.49417 c -0.682107,2.6627 -0.37748,5.45735 -0.46467,8.18069 0.080658,2.82901 -0.202804,5.71611 0.421771,8.49628 0.655233,1.84726 2.893842,2.0042 4.558802,2.11114 8.176545,0.4213 16.369453,0.15886 24.551012,0.03302 2.04628,-0.14679 4.225389,0.10711 6.163249,-0.66447 z M 4.297406,28.9474 c -0.939032,0.02717 -2.493051,-2.1182 -0.727168,-0.88447 1.706475,0.99084 3.797167,0.59334 5.679761,0.73138 0.843628,0.09701 3.276883,-0.14441 3.328971,0.24148 -2.712643,0.43249 -5.596207,0.56419 -8.281564,-0.08839 z m 31.24001,-17.1062 c -1.499147,-0.78086 -3.308903,-0.4003 -4.94344,-0.53994 -1.173066,-0.10336 -4.022293,-0.01807 -4.347208,-0.50636 2.904245,-0.07023 5.874879,-0.31161 8.734279,0.31742 0.913242,-0.14345 1.834744,2.01352 0.556369,0.72888 z"
         id="path49494"
         inkscape:connector-curvature="0" />
      <path
         style="font-style:normal;font-variant:normal;font-weight:normal;font-stretch:normal;font-size:3.06212449px;font-family:Insaniburger;-inkscape-font-specification:Insaniburger;opacity:1;vector-effect:none;fill:#000000;fill-opacity:1;stroke:none;stroke-width:0.03588427;stroke-linecap:butt;stroke-linejoin:miter;stroke-miterlimit:4;stroke-dasharray:none;stroke-dashoffset:0;stroke-opacity:1"
         d="M 4.045757,27.530571 C 3.049758,27.686358 3.1184027,26.4335 4.0558511,27.025173 4.4461198,26.661719 2.4813687,26.086198 3.7346423,25.424487 c 1.3093248,-0.137679 0.7982702,0.655999 0.1348283,0.637174 0.8470087,0.07448 1.2312763,1.37577 0.1762864,1.46891 z M 5.3911568,27.254617 C 4.7000755,28.062905 4.7952737,26.540142 4.8201189,26.02545 c -0.015381,-1.125225 0.9005086,-0.220322 0.5710379,0.526727 0,0.234147 0,0.468293 0,0.70244 z M 6.487088,26.076388 c 0.2838151,-0.765539 1.2066101,-0.769555 0.9517297,0.192135 0.2425584,0.603024 -0.3101081,1.896248 -0.5710379,0.796991 0.1618972,-1.237531 -0.2589318,0.144861 -0.6096325,-0.473224 -0.2992247,-0.512705 0.041761,1.791536 -0.7227891,0.662327 0.044391,-0.579999 -0.091047,-1.209972 0.07138,-1.758042 0.4319836,-0.266617 0.6313254,0.335356 0.88035,0.579813 z m 1.9582563,0.750346 c 1.5832507,-0.419272 -0.2448688,-2.1524 -0.8623248,-1.119317 0.044926,0.576976 -0.091822,1.204737 0.07138,1.749514 0.9098328,0.471405 0.1233532,-0.869108 0.7909451,-0.630197 z M 8.3184469,25.853145 c 0.9327912,0.790244 -0.8746271,0.456032 0,0 z m 1.8948081,1.671224 c -0.6556782,0.146633 -1.2392391,-0.11988 -1.0180631,-0.931611 -0.3123224,-0.694492 0.5025196,-1.74951 0.5710375,-0.607889 -0.012514,0.607498 -0.1599563,1.230478 0.5811326,1.108129 0.07042,0.133633 0.08002,0.437364 -0.134107,0.431371 z m 1.300697,0 c 0.65299,-0.448333 -1.239836,-0.717884 0.108872,-0.865067 0.177237,-0.439993 -1.141438,-0.681361 -0.108872,-0.734843 0.768641,-0.620505 -1.404189,-0.825616 -0.977687,0.154961 0.07508,0.531413 -0.289511,1.601773 0.549361,1.444949 0.142775,0 0.28555,0 0.428326,0 z m 1.858756,0.0062 c -0.995999,0.155787 -0.927355,-1.097071 0.01009,-0.505398 0.390269,-0.363454 -1.574482,-0.938975 -0.321209,-1.600686 1.309325,-0.137679 0.798271,0.655999 0.134828,0.637174 0.847009,0.07448 1.231277,1.37577 0.176287,1.46891 z m 2.561019,-0.381374 c -0.96036,1.436154 -2.784203,-1.023925 -1.190023,-1.704169 0.819693,-0.601278 1.794258,0.961109 0.437292,0.470128 -1.110367,0.320459 -0.0592,1.516393 0.683514,1.034052 z m 1.341074,-0.5147 c 0.784314,0.717119 -0.257072,1.185018 -0.530517,0.232965 0.07025,-0.08989 -0.534264,1.352662 -0.666356,0.198052 0.124986,-0.527212 -0.31775,-1.549828 0.373466,-1.634051 0.702348,-0.183816 1.628512,0.466264 0.823407,1.203034 z m -0.625835,-0.781352 c -0.274223,1.130977 1.043167,-0.0068 0,0 z m 2.07506,1.671224 c 0.65299,-0.448333 -1.239836,-0.717884 0.108872,-0.865067 0.177237,-0.439993 -1.141439,-0.681361 -0.108872,-0.734843 0.768641,-0.620505 -1.404188,-0.825616 -0.977687,0.154961 0.07509,0.531413 -0.289511,1.601773 0.549361,1.444949 0.142775,0 0.28555,0 0.428326,0 z m 1.343956,0 c 0.65299,-0.448333 -1.239835,-0.717884 0.108873,-0.865067 0.177237,-0.439993 -1.141439,-0.681361 -0.108873,-0.734843 0.768642,-0.620505 -1.404187,-0.825616 -0.977686,0.154961 0.07509,0.531413 -0.289511,1.601773 0.549361,1.444949 0.142775,0 0.28555,0 0.428325,0 z m 1.542958,-1.159625 c -0.339187,-0.894195 0.786696,-1.245418 0.571037,-0.190772 0.05389,0.526823 0.08316,1.871831 -0.649635,1.087843 -0.426056,-0.663244 -0.615829,-0.776585 -0.544894,0.110819 -0.843926,0.493036 -0.476819,-0.92324 -0.553193,-1.441735 0.01667,-1.281385 0.927448,0.114531 1.176685,0.433845 z m 2.62735,0.269753 c 0.784315,0.717119 -0.257071,1.185018 -0.530516,0.232965 0.07025,-0.08989 -0.534264,1.352662 -0.666356,0.198052 0.124986,-0.527212 -0.317751,-1.549828 0.373466,-1.634051 0.702348,-0.183816 1.628512,0.466264 0.823406,1.203034 z m -0.625835,-0.781352 c -0.274222,1.130977 1.043168,-0.0068 0,0 z m 2.07506,1.671224 c 0.65299,-0.448333 -1.239835,-0.717884 0.108873,-0.865067 0.177237,-0.439993 -1.141439,-0.681361 -0.108873,-0.734843 0.768642,-0.620505 -1.404188,-0.825616 -0.977686,0.154961 0.07509,0.531413 -0.289511,1.601773 0.549361,1.444949 0.142775,0 0.28555,0 0.428325,0 z m 2.152928,-0.375172 c -0.96036,1.436154 -2.784203,-1.023925 -1.190023,-1.704169 0.819693,-0.601278 1.794257,0.961109 0.437291,0.470128 -1.110366,0.320459 -0.0592,1.516393 0.683515,1.034052 z m 2.184652,-0.691434 c 0.01986,1.873271 -2.892923,0.971497 -1.899855,-0.624094 0.516779,-0.858502 1.974896,-0.459979 1.899855,0.624094 z M 29.34158,26.068637 c -1.237922,-0.812243 -0.757867,1.872069 0.09698,0.601516 0.06108,-0.199483 0.04139,-0.442062 -0.09698,-0.601516 z m 2.002958,0.56586 c 0.784315,0.717119 -0.257071,1.185018 -0.530516,0.232965 0.07025,-0.08989 -0.534264,1.352662 -0.666356,0.198052 0.124987,-0.527212 -0.31775,-1.549828 0.373466,-1.634051 0.702347,-0.183816 1.628512,0.466264 0.823406,1.203034 z m -0.625834,-0.781352 c -0.274222,1.130977 1.043167,-0.0068 0,0 z m 1.962583,1.671224 c -0.768695,0.226632 -1.006645,-0.4047 -0.865209,-1.120713 -0.246916,-0.842615 0.411683,-1.182461 1.085296,-0.914639 0.777092,0.357184 0.681388,1.939398 -0.220087,2.035352 z m 0.217743,-1.065056 c -0.385524,-1.342571 -0.660929,-0.04778 -0.511915,0.622998 0.310307,0.105596 0.563369,-0.306417 0.511915,-0.622998 z m 1.629477,1.065056 c 0.65299,-0.448333 -1.239836,-0.717884 0.108872,-0.865067 0.177238,-0.439993 -1.141438,-0.681361 -0.108872,-0.734843 0.768641,-0.620505 -1.404189,-0.825616 -0.977687,0.154961 0.07509,0.531413 -0.289511,1.601773 0.549361,1.444949 0.142775,0 0.285551,0 0.428326,0 z m 1.563145,-0.889872 c 0.784314,0.717119 -0.257072,1.185018 -0.530516,0.232965 0.07025,-0.08989 -0.534265,1.352662 -0.666357,0.198052 0.124987,-0.527212 -0.31775,-1.549828 0.373467,-1.634051 0.702347,-0.183816 1.628512,0.466264 0.823406,1.203034 z m -0.625834,-0.781352 c -0.274223,1.130977 1.043166,-0.0068 0,0 z"
         id="text49550"
         inkscape:connector-curvature="0" />
      <path
         style="fill:#000000;fill-opacity:1;stroke-width:0.13434657"
         clip-path="none"
         d="m 23.58184,10.450486 c -1.363413,1.031704 -2.337509,2.570163 -3.536959,3.810538 -1.122489,2.12145 -2.307167,-0.565334 -3.295703,-1.485327 -0.747014,-0.833448 -2.588333,-3.6896535 -3.085388,-1.225917 -0.51639,2.17381 1.581269,3.915894 3.467474,4.451288 2.052573,0.358955 -0.350767,1.549495 -1.063545,2.047887 -1.74491,-0.12186 -3.857786,1.167767 -3.583166,3.115954 0.593715,2.725323 4.841369,3.148637 6.095207,0.729932 1.007285,-1.527702 -1.202687,-2.940725 0.28864,-4.247872 1.369278,0.313658 1.130931,1.934728 0.572476,2.902113 -0.216303,2.588391 3.311464,3.764344 5.159443,2.332906 1.725027,-0.966113 1.578813,-3.58573 -0.259839,-4.334572 -1.465066,-0.573517 -3.593549,-0.552612 -4.269982,-2.17915 1.626691,-0.607237 3.50879,-1.299839 4.206913,-3.063763 0.36377,-0.878322 0.432851,-2.518442 -0.695571,-2.854017 z m -4.524079,5.54386 c 1.105062,0.43756 -1.060478,0.508491 5e-6,-2e-5 z m -3.462553,3.1841 c 1.922132,-0.211618 2.670829,2.649994 0.678675,3.13103 -1.490334,0.612622 -3.5694,-1.367025 -1.946401,-2.604657 0.34999,-0.303687 0.796845,-0.522416 1.267726,-0.526373 z m 7.055514,0 c 1.682401,-0.27272 2.693694,2.240088 1.040701,2.98947 -1.410279,0.987167 -3.783587,-0.646347 -2.676135,-2.237075 0.437323,-0.452623 0.967204,-0.843472 1.635434,-0.752395 z"
         id="path53795"
         inkscape:connector-curvature="0" />
    </g>
  </g>
</svg>
