<?xml version="1.0" encoding="UTF-8" standalone="no"?>
<!-- Created with Inkscape (http://www.inkscape.org/) -->

<svg
   xmlns:dc="http://purl.org/dc/elements/1.1/"
   xmlns:cc="http://creativecommons.org/ns#"
   xmlns:rdf="http://www.w3.org/1999/02/22-rdf-syntax-ns#"
   xmlns:svg="http://www.w3.org/2000/svg"
   xmlns="http://www.w3.org/2000/svg"
   xmlns:sodipodi="http://sodipodi.sourceforge.net/DTD/sodipodi-0.dtd"
   xmlns:inkscape="http://www.inkscape.org/namespaces/inkscape"
   width="150"
   height="150"
   viewBox="0 0 39.6875 39.6875"
   version="1.1"
   id="svg922"
   inkscape:version="0.92.4 (5da689c313, 2019-01-14)"
   sodipodi:docname="USO_games_dustracing2d.svg">
  <title
     id="title1437">USOICON</title>
  <defs
     id="defs916">
    <clipPath
       id="clipPath1521"
       clipPathUnits="userSpaceOnUse">
      <rect
         y="66.644836"
         x="57.114269"
         height="151.42299"
         width="172.87534"
         id="rect1523"
         style="opacity:0.875;fill:#000000;fill-opacity:1;stroke:#000000;stroke-width:0.60403091;stroke-linejoin:round;stroke-miterlimit:4;stroke-dasharray:none;stroke-opacity:1" />
    </clipPath>
  </defs>
  <sodipodi:namedview
     id="base"
     pagecolor="#ffffff"
     bordercolor="#666666"
     borderopacity="1.0"
     inkscape:pageopacity="0.0"
     inkscape:pageshadow="2"
     inkscape:zoom="1.373326"
     inkscape:cx="62.720683"
     inkscape:cy="49.543413"
     inkscape:document-units="px"
     inkscape:current-layer="layer7"
     showgrid="false"
     inkscape:window-width="776"
     inkscape:window-height="660"
     inkscape:window-x="2844"
     inkscape:window-y="114"
     inkscape:window-maximized="0"
     units="px" />
  <metadata
     id="metadata919">
    <rdf:RDF>
      <cc:Work
         rdf:about="">
        <dc:format>image/svg+xml</dc:format>
        <dc:type
           rdf:resource="http://purl.org/dc/dcmitype/StillImage" />
        <dc:title>USOICON</dc:title>
        <cc:license
           rdf:resource="http://creativecommons.org/licenses/by-sa/4.0/" />
      </cc:Work>
      <cc:License
         rdf:about="http://creativecommons.org/licenses/by-sa/4.0/">
        <cc:permits
           rdf:resource="http://creativecommons.org/ns#Reproduction" />
        <cc:permits
           rdf:resource="http://creativecommons.org/ns#Distribution" />
        <cc:requires
           rdf:resource="http://creativecommons.org/ns#Notice" />
        <cc:requires
           rdf:resource="http://creativecommons.org/ns#Attribution" />
        <cc:permits
           rdf:resource="http://creativecommons.org/ns#DerivativeWorks" />
        <cc:requires
           rdf:resource="http://creativecommons.org/ns#ShareAlike" />
      </cc:License>
    </rdf:RDF>
  </metadata>
  <g
     style="display:inline"
     transform="translate(-35.46637,-112.59198)"
     id="layer1"
     inkscape:groupmode="layer"
     inkscape:label="toonbox" />
  <g
     inkscape:label="text"
     id="layer3"
     inkscape:groupmode="layer" />
  <g
     style="display:inline"
     inkscape:label="icon_games"
     id="layer7"
     inkscape:groupmode="layer">
    <g
       id="g10554">
      <path
         style="display:inline;opacity:0.875;fill:#999999;fill-opacity:1;stroke:none;stroke-width:0.11845408;stroke-linejoin:round;stroke-miterlimit:4;stroke-dasharray:none;stroke-opacity:0.97175137"
         d="M 1.435191,10.12791 C 2.670256,9.29705 4.324329,9.43582 5.75553,9.20511 14.11545,8.61268 22.517162,8.68995 30.881762,9.1576 c 2.392119,0.20608 4.838324,0.26932 7.150425,0.97031 0.872353,1.67498 0.817461,3.66984 1.026746,5.51683 0.208491,4.02511 0.362445,8.13136 -0.532305,12.08777 -0.230317,1.64927 -2.017724,2.0517 -3.40708,2.25864 C 28.802681,30.85612 22.40423,30.81147 16.04062,30.81293 11.303807,30.71862 6.537542,30.74635 1.839737,30.07418 0.173005,29.52829 0.822947,27.03924 0.434179,25.65651 0.154966,21.09087 0.021365,16.47217 0.692557,11.93449 0.848231,11.32021 0.903907,10.54918 1.435191,10.12791 Z"
         id="rect49496"
         inkscape:connector-curvature="0" />
      <path
         style="display:inline;fill:#000000;stroke-width:0.37203047"
         d="M 1.803349,30.70864 C 0.056742,30.0892 0.231437,27.93756 0.087588,26.427 -0.022935,21.93179 -0.070132,17.42779 0.099217,12.93387 -0.027874,11.27811 1.27784,10.0868 2.683582,9.49431 4.615709,8.56731 6.836395,8.9315 8.909365,8.7639 16.59615,8.63948 24.285544,8.62691 31.972812,8.67993 c 2.150882,0.14121 4.537543,-0.0199 6.403551,1.23592 1.58486,1.37874 1.255708,3.71898 1.302004,5.60595 -0.178243,4.07095 0.01584,8.16305 -0.388876,12.21995 -0.293352,1.71142 -2.120394,2.65314 -3.654582,3.02944 -6.368162,0.39372 -12.757085,0.28816 -19.135233,0.3134 C 11.668868,31.0283 6.826658,31.10952 2.006621,30.75364 L 1.803349,30.7086 Z m 34.717949,-1.05781 c 1.660436,-0.66982 2.120657,-2.56797 2.182495,-4.18169 C 38.903556,21.6571 38.926032,17.82461 38.6784,14.01451 38.609934,12.47205 38.055319,10.73538 36.494762,10.11382 34.51138,9.13075 32.202264,9.50823 30.063573,9.36171 22.019563,9.34057 13.971808,9.23982 5.930238,9.4697 4.247551,9.52117 2.061367,9.74531 1.291134,11.49417 c -0.682107,2.6627 -0.37748,5.45735 -0.46467,8.18069 0.080658,2.82901 -0.202804,5.71611 0.421771,8.49628 0.655233,1.84726 2.893842,2.0042 4.558802,2.11114 8.176545,0.4213 16.369453,0.15886 24.551012,0.03302 2.04628,-0.14679 4.225389,0.10711 6.163249,-0.66447 z M 4.297406,28.9474 c -0.939032,0.02717 -2.493051,-2.1182 -0.727168,-0.88447 1.706475,0.99084 3.797167,0.59334 5.679761,0.73138 0.843628,0.09701 3.276883,-0.14441 3.328971,0.24148 -2.712643,0.43249 -5.596207,0.56419 -8.281564,-0.08839 z m 31.24001,-17.1062 c -1.499147,-0.78086 -3.308903,-0.4003 -4.94344,-0.53994 -1.173066,-0.10336 -4.022293,-0.01807 -4.347208,-0.50636 2.904245,-0.07023 5.874879,-0.31161 8.734279,0.31742 0.913242,-0.14345 1.834744,2.01352 0.556369,0.72888 z"
         id="path49494"
         inkscape:connector-curvature="0" />
      <path
         style="font-style:normal;font-variant:normal;font-weight:normal;font-stretch:normal;font-size:4.24622107px;font-family:Insaniburger;-inkscape-font-specification:Insaniburger;opacity:1;vector-effect:none;fill:#000000;fill-opacity:1;stroke:none;stroke-width:0.0497604;stroke-linecap:butt;stroke-linejoin:miter;stroke-miterlimit:4;stroke-dasharray:none;stroke-dashoffset:0;stroke-opacity:1"
         d="m 6.0432222,28.021883 c -0.6024526,0.07544 -1.4561809,0.04255 -1.2193971,-0.833195 0.052774,-0.637664 -0.114165,-1.335394 0.1006002,-1.930313 1.0438382,-0.434628 2.5044505,0.285146 2.1400421,1.665719 -0.09076,0.536334 -0.4578551,1.066111 -1.0212452,1.097789 z M 6.3501038,26.56874 C 6.067571,25.063276 5.3398369,25.996325 5.6286272,26.951088 5.3813013,27.976783 6.5391543,27.207319 6.3501038,26.56874 Z m 3.0810103,0.67898 C 9.330903,28.455147 7.0006865,28.270381 7.2687164,26.96863 7.3652085,26.391733 7.0449197,25.598885 7.495067,25.189366 c 0.9130281,-0.142335 0.4779206,1.082587 0.5784516,1.647463 0.1405736,1.154638 0.819403,-0.08212 0.5527934,-0.735121 -0.3733897,-0.935868 1.0246588,-1.308313 0.8048021,-0.19518 0,0.447064 0,0.894128 0,1.341192 z m 1.2986579,0.782623 c -1.0765059,0.397788 -1.6102298,-1.522106 -0.221524,-0.718638 1.371924,-0.239928 -1.8382831,-0.927551 -0.491823,-1.967664 0.578504,-0.949043 2.479804,0.539373 0.993808,0.488611 -1.6426715,-0.04266 1.8316,0.890357 0.369884,1.950213 -0.174913,0.174206 -0.415131,0.249011 -0.650345,0.247478 z m 2.597317,-2.191346 c -0.05571,0.691939 0.118495,1.446227 -0.100601,2.095105 -0.964172,0.426152 -0.6623,-0.915888 -0.704202,-1.485423 0.447764,-0.922865 -1.257021,-0.396588 -0.548728,-1.261296 0.661096,0.0042 1.374494,-0.114564 2.007941,0.06306 0.329339,0.566536 -0.271245,0.636103 -0.65441,0.588554 z m 3.603318,0.968761 c 0.804819,0.438394 0.247112,1.817182 -0.388354,0.817282 -0.453738,-0.792278 -0.555449,-0.675395 -0.518827,0.189818 -0.863299,0.730895 -0.836309,-0.693178 -0.779652,-1.27738 -0.02665,-0.613141 -0.137739,-1.612053 0.759942,-1.371115 0.974088,-0.252 1.928124,0.885827 0.926891,1.641395 z m -0.88203,-1.06606 c -0.445162,1.159437 1.227459,0.39105 0.231685,0 -0.07723,0 -0.154457,0 -0.231685,0 z m 2.965166,1.099904 c -0.123808,-1.135127 -0.641043,0.272486 0,0 z m -0.589374,0.676864 c -0.645052,1.26546 -1.080176,-0.394005 -0.437495,-1.002731 0.212727,-0.583004 0.761283,-2.016076 1.30874,-0.892606 0.262785,0.662974 0.630949,1.288599 0.819652,1.977829 -0.465577,1.115825 -0.822722,-0.552741 -1.690897,-0.08249 z m 4.381699,-0.0085 c -1.164621,1.799896 -3.820992,-0.973071 -1.924233,-2.196237 0.555527,-0.815924 2.785068,0.269041 1.460863,0.67541 -1.984245,-0.671735 -1.177053,2.045183 0.365819,1.247967 l 0.07316,0.12744 z m 1.008037,0.143834 c -0.575785,1.04013 -1.00797,-0.382424 -0.804803,-1.023329 -0.06214,-0.581443 -0.07403,-1.985607 0.779652,-1.257121 0.05683,0.754454 0.0097,1.522247 0.02515,2.28045 z m 1.861612,-1.214124 c -0.294058,-0.694941 0.464551,-1.95001 0.804802,-0.812275 -0.05598,0.761062 0.118786,1.584398 -0.1006,2.302433 -0.738038,0.322368 -1.05031,-0.724748 -1.518351,-1.136769 0.120255,0.365281 -0.2693,1.975576 -0.844231,0.860735 0.0567,-0.791557 -0.119806,-1.646034 0.1006,-2.394405 0.708286,-0.382939 1.106795,0.797547 1.55778,1.180281 z m 3.241565,-0.169216 c -0.939254,-0.246094 -1.152841,0.582285 -0.495508,0.881245 -1.601187,0.651981 -0.909723,-2.329818 0.47112,-1.116033 0.989871,-1.392385 -2.747698,-1.226955 -2.239626,0.530916 -0.279765,1.621945 2.799377,2.164061 2.576992,0.397851 -0.0057,-0.256852 0.06517,-0.708687 -0.312978,-0.693979 z m 2.532281,1.078752 c 1.75704,-0.830536 0.26945,-3.356876 -1.016164,-1.793689 -0.04547,0.863116 1.734091,-0.352251 1.056557,0.83894 -0.880904,0.533299 -1.580563,1.941925 -0.06102,1.623151 0.870617,0.381982 1.247732,-0.895323 0.211847,-0.668402 -0.06374,0 -0.127484,0 -0.191225,0 z m 2.290434,0.672633 c -0.602453,0.07544 -1.456181,0.04255 -1.219397,-0.833195 0.05277,-0.637664 -0.114166,-1.335394 0.1006,-1.930313 1.043838,-0.434628 2.50445,0.285146 2.140041,1.665719 -0.09076,0.536334 -0.457854,1.066111 -1.021244,1.097789 z m 0.306881,-1.453143 c -0.282533,-1.505464 -1.010267,-0.572415 -0.721477,0.382348 -0.247326,1.025695 0.910528,0.256231 0.721477,-0.382348 z"
         id="text49550"
         inkscape:connector-curvature="0" />
      <g
         id="g53695"
         transform="matrix(0.23216083,0,0,0.26739887,-40.66702,-79.695953)">
        <path
           style="fill:#000000;fill-opacity:1;stroke-width:0.56041962"
           d="m 225.79653,381.36576 c -5.04874,-5.70045 -3.09798,-14.35633 -2.45039,-21.29598 2.14357,-8.89697 7.83465,-18.94365 17.6609,-20.54413 7.25222,-1.3964 13.14991,3.76259 20.06409,4.17152 6.86243,-0.25136 12.65893,-5.79643 19.79539,-4.07863 10.07438,0.99305 15.61039,11.35051 17.88548,20.14 0.72391,7.0246 2.71218,15.81255 -2.37779,21.60722 -6.22795,4.55619 -12.2931,-2.23293 -16.91721,-5.91504 -5.78798,-5.77763 -14.55245,-3.45633 -21.84303,-3.96964 -6.37158,-0.56289 -12.86431,0.86093 -17.22384,5.87987 -3.90129,3.36771 -9.44686,8.07986 -14.5936,4.00481 z"
           id="path53677"
           inkscape:connector-curvature="0" />
        <path
           style="fill:#ffffff;fill-opacity:1;stroke-width:0.56041962"
           d="m 277.9872,362.41501 c 5.58994,-5.40079 -8.06317,-7.57497 -4.77264,-0.67341 1.23932,1.3571 3.24548,2.00683 4.77264,0.67341 z"
           id="path53675"
           inkscape:connector-curvature="0" />
        <path
           style="fill:#ffffff;fill-opacity:1;stroke-width:0.56041962"
           d="m 247.09052,359.86347 c 0.27723,-3.25746 8.70112,-2.32963 4.12382,-6.78295 -5.26871,1.19244 -3.64993,-8.73224 -9.37797,-3.68051 1.20337,5.19333 -8.41269,2.02905 -5.05105,7.57352 3.38408,0.29645 5.45041,0.84964 5.40535,4.6496 1.57622,0.88603 5.19447,0.91959 4.89985,-1.75966 z"
           id="path53673"
           inkscape:connector-curvature="0" />
        <path
           style="fill:#fffffc;fill-opacity:1;stroke-width:0.56041962"
           d="m 288.72216,357.58638 c 4.50178,-7.79772 -11.51832,-3.99212 -3.56811,0.81562 1.22542,0.443 2.60725,-0.0116 3.56811,-0.81562 z"
           id="path53671"
           inkscape:connector-curvature="0" />
        <path
           style="fill:#f8ffff;fill-opacity:1;stroke-width:0.56041962"
           d="m 278.37813,352.42476 c 4.38079,-8.166 -11.41132,-4.0188 -3.58973,0.81533 1.23238,0.44154 2.62307,-0.004 3.58973,-0.81533 z"
           id="path53664"
           inkscape:connector-curvature="0" />
      </g>
    </g>
  </g>
</svg>
