<?xml version="1.0" encoding="UTF-8" standalone="no"?>
<!-- Created with Inkscape (http://www.inkscape.org/) -->

<svg
   xmlns:dc="http://purl.org/dc/elements/1.1/"
   xmlns:cc="http://creativecommons.org/ns#"
   xmlns:rdf="http://www.w3.org/1999/02/22-rdf-syntax-ns#"
   xmlns:svg="http://www.w3.org/2000/svg"
   xmlns="http://www.w3.org/2000/svg"
   xmlns:sodipodi="http://sodipodi.sourceforge.net/DTD/sodipodi-0.dtd"
   xmlns:inkscape="http://www.inkscape.org/namespaces/inkscape"
   width="150"
   height="150"
   viewBox="0 0 39.6875 39.6875"
   version="1.1"
   id="svg922"
   inkscape:version="0.92.4 (5da689c313, 2019-01-14)"
   sodipodi:docname="USO_utilities_kakoune.svg">
  <title
     id="title1437">USOICON</title>
  <defs
     id="defs916">
    <clipPath
       id="clipPath1521"
       clipPathUnits="userSpaceOnUse">
      <rect
         y="66.644836"
         x="57.114269"
         height="151.42299"
         width="172.87534"
         id="rect1523"
         style="opacity:0.875;fill:#000000;fill-opacity:1;stroke:#000000;stroke-width:0.60403091;stroke-linejoin:round;stroke-miterlimit:4;stroke-dasharray:none;stroke-opacity:1" />
    </clipPath>
  </defs>
  <sodipodi:namedview
     id="base"
     pagecolor="#ffffff"
     bordercolor="#666666"
     borderopacity="1.0"
     inkscape:pageopacity="0.0"
     inkscape:pageshadow="2"
     inkscape:zoom="1.215368"
     inkscape:cx="78.562597"
     inkscape:cy="42.756956"
     inkscape:document-units="px"
     inkscape:current-layer="layer14"
     showgrid="false"
     inkscape:window-width="857"
     inkscape:window-height="575"
     inkscape:window-x="2855"
     inkscape:window-y="214"
     inkscape:window-maximized="0"
     units="px" />
  <metadata
     id="metadata919">
    <rdf:RDF>
      <cc:Work
         rdf:about="">
        <dc:format>image/svg+xml</dc:format>
        <dc:type
           rdf:resource="http://purl.org/dc/dcmitype/StillImage" />
        <dc:title>USOICON</dc:title>
        <cc:license
           rdf:resource="http://creativecommons.org/licenses/by-sa/4.0/" />
      </cc:Work>
      <cc:License
         rdf:about="http://creativecommons.org/licenses/by-sa/4.0/">
        <cc:permits
           rdf:resource="http://creativecommons.org/ns#Reproduction" />
        <cc:permits
           rdf:resource="http://creativecommons.org/ns#Distribution" />
        <cc:requires
           rdf:resource="http://creativecommons.org/ns#Notice" />
        <cc:requires
           rdf:resource="http://creativecommons.org/ns#Attribution" />
        <cc:permits
           rdf:resource="http://creativecommons.org/ns#DerivativeWorks" />
        <cc:requires
           rdf:resource="http://creativecommons.org/ns#ShareAlike" />
      </cc:License>
    </rdf:RDF>
  </metadata>
  <g
     style="display:inline"
     transform="translate(-35.46637,-112.59198)"
     id="layer1"
     inkscape:groupmode="layer"
     inkscape:label="toonbox" />
  <g
     inkscape:label="text"
     id="layer3"
     inkscape:groupmode="layer" />
  <g
     style="display:inline"
     inkscape:label="icon_utilities"
     id="layer14"
     inkscape:groupmode="layer">
    <g
       id="g1403">
      <path
         style="display:inline;opacity:0.875;fill:#999999;fill-opacity:1;stroke:none;stroke-width:0.11845408;stroke-linejoin:round;stroke-miterlimit:4;stroke-dasharray:none;stroke-opacity:0.97175137"
         d="M 0.906024,10.12791 C 2.141089,9.29705 3.795162,9.43582 5.226363,9.20511 13.586283,8.61268 21.987995,8.68995 30.352595,9.1576 c 2.392119,0.20608 4.838324,0.26932 7.150425,0.97031 0.872353,1.67498 0.817461,3.66984 1.026746,5.51683 0.208491,4.02511 0.362445,8.13136 -0.532305,12.08777 -0.230317,1.64927 -2.017724,2.0517 -3.40708,2.25864 -6.316867,0.86497 -12.715318,0.82032 -19.078928,0.82178 C 10.77464,30.71862 6.008375,30.74635 1.31057,30.07418 -0.356162,29.52829 0.29378,27.03924 -0.094988,25.65651 -0.374201,21.09087 -0.507802,16.47217 0.16339,11.93449 0.319064,11.32021 0.37474,10.54918 0.906024,10.12791 Z"
         id="rect49496"
         inkscape:connector-curvature="0" />
      <path
         style="display:inline;fill:#000000;stroke-width:0.37203047"
         d="M 1.274182,30.70864 C -0.472425,30.0892 -0.29773,27.93756 -0.441579,26.427 -0.552102,21.93179 -0.599299,17.42779 -0.42995,12.93387 -0.557041,11.27811 0.748673,10.0868 2.154415,9.49431 4.086542,8.56731 6.307228,8.9315 8.380198,8.7639 16.066983,8.63948 23.756377,8.62691 31.443645,8.67993 c 2.150882,0.14121 4.537543,-0.0199 6.403551,1.23592 1.58486,1.37874 1.255708,3.71898 1.302004,5.60595 -0.178243,4.07095 0.01584,8.16305 -0.388876,12.21995 -0.293352,1.71142 -2.120394,2.65314 -3.654582,3.02944 -6.368162,0.39372 -12.757085,0.28816 -19.135233,0.3134 C 11.139701,31.0283 6.297491,31.10952 1.477454,30.75364 L 1.274182,30.7086 Z m 34.717949,-1.05781 c 1.660436,-0.66982 2.120657,-2.56797 2.182495,-4.18169 0.199763,-3.81204 0.222239,-7.64453 -0.02539,-11.45463 -0.06847,-1.54246 -0.623081,-3.27913 -2.183638,-3.90069 C 33.982213,9.13075 31.673097,9.50823 29.534406,9.36171 21.490396,9.34057 13.442641,9.23982 5.401071,9.4697 3.718384,9.52117 1.5322,9.74531 0.761967,11.49417 c -0.682107,2.6627 -0.37748,5.45735 -0.46467,8.18069 0.080658,2.82901 -0.202804,5.71611 0.421771,8.49628 0.655233,1.84726 2.893842,2.0042 4.558802,2.11114 8.176545,0.4213 16.369453,0.15886 24.551012,0.03302 2.04628,-0.14679 4.225389,0.10711 6.163249,-0.66447 z M 3.768239,28.9474 c -0.939032,0.02717 -2.493051,-2.1182 -0.727168,-0.88447 1.706475,0.99084 3.797167,0.59334 5.679761,0.73138 0.843628,0.09701 3.276883,-0.14441 3.328971,0.24148 C 9.33716,29.46828 6.453596,29.59998 3.768239,28.9474 Z m 31.24001,-17.1062 c -1.499147,-0.78086 -3.308903,-0.4003 -4.94344,-0.53994 -1.173066,-0.10336 -4.022293,-0.01807 -4.347208,-0.50636 2.904245,-0.07023 5.874879,-0.31161 8.734279,0.31742 0.913242,-0.14345 1.834744,2.01352 0.556369,0.72888 z"
         id="path49494"
         inkscape:connector-curvature="0" />
      <path
         style="font-style:normal;font-variant:normal;font-weight:normal;font-stretch:normal;font-size:4.94612217px;font-family:Insaniburger;-inkscape-font-specification:Insaniburger;opacity:1;vector-effect:none;fill:#000000;fill-opacity:1;stroke:none;stroke-width:0.05796236;stroke-linecap:butt;stroke-linejoin:miter;stroke-miterlimit:4;stroke-dasharray:none;stroke-dashoffset:0;stroke-opacity:1"
         d="m 11.550031,26.208505 c 0.32077,0.498787 1.393069,1.446705 0.442125,1.80678 -0.520868,-0.288376 -0.824415,-0.969289 -1.243204,-1.439028 0.312192,0.858954 -0.564313,2.211198 -0.8667404,0.874721 0.017222,-0.923341 -0.035022,-1.853512 0.027086,-2.77244 0.9119126,-1.176699 0.7778696,1.154662 0.9519186,1.019847 0.443547,-0.397757 0.786332,-1.550852 1.417665,-1.142098 0.404369,0.627807 -0.490226,1.153594 -0.72885,1.652218 z m 2.580523,0.319784 c -0.07464,-1.412416 -0.720454,0.360706 0,0 z m -0.634734,0.852758 c -0.566393,1.512044 -1.252612,-0.248485 -0.562096,-1.020922 0.33324,-0.643461 0.384984,-1.648478 1.00641,-1.942411 0.627099,0.319018 0.692768,1.341871 1.034196,2.008483 0.693161,0.768046 -0.06497,2.446845 -0.585504,0.95485 -0.297669,0 -0.595338,0 -0.893006,0 z m 3.674894,-1.172542 c 0.32077,0.498787 1.393069,1.446705 0.442124,1.80678 -0.520867,-0.288376 -0.824414,-0.969289 -1.243204,-1.439028 0.312192,0.858954 -0.564313,2.211198 -0.86674,0.874721 0.01722,-0.923341 -0.03502,-1.853512 0.02709,-2.77244 0.911914,-1.176699 0.77787,1.154662 0.95192,1.019847 0.443546,-0.397757 0.786332,-1.550852 1.417664,-1.142098 0.40437,0.627807 -0.490225,1.153594 -0.728849,1.652218 z m 4.149849,-0.02665 c 0.03014,3.220036 -4.390977,1.669942 -2.883664,-1.072776 0.791713,-1.473202 2.988535,-0.799555 2.883664,1.072776 z m -1.037462,-0.668882 c -1.547224,-1.391739 -1.552518,2.725651 -0.0022,1.332435 0.268303,-0.357575 0.267962,-0.973193 0.0022,-1.332435 z m 3.552323,1.52697 c -0.09899,1.496696 -2.573255,1.305934 -2.328818,-0.301861 0.05476,-0.728171 -0.120075,-1.529894 0.108343,-2.204447 0.960994,-0.542836 0.748477,0.973149 0.758398,1.655827 -0.311339,1.081753 0.857243,1.249661 0.595337,0.0922 0.07573,-0.658722 -0.299342,-2.04907 0.62297,-1.834966 0.46534,0.458978 0.152035,1.377871 0.24377,2.044629 0,0.182873 0,0.365748 0,0.548621 z m 2.004885,-1.01798 c -0.109851,-0.708062 0.03229,-2.228727 0.839656,-1.343426 0.04366,1.019343 0.0459,2.056606 0,3.075923 -0.627519,0.780676 -1.124027,-0.53403 -1.531768,-1.019858 -0.487323,-0.828463 -0.02457,0.879555 -0.3355,1.16476 -0.960995,0.542834 -0.748478,-0.973149 -0.758399,-1.655827 0.05873,-0.663143 -0.28001,-2.092676 0.671943,-1.772525 0.415518,0.461515 0.7387,1.040324 1.114068,1.550953 z m 2.56958,1.993321 c 1.089784,-0.787744 -0.638092,-0.675927 -0.617224,-1.149289 0.09475,-0.286101 1.544868,-0.445578 0.529675,-1.08387 -0.672395,0.337877 -0.734829,-0.830943 -0.03382,-0.516985 1.039891,-0.235357 0.0066,-1.198611 -0.622413,-0.847427 -0.859467,-0.253587 -0.768624,0.875944 -0.740183,1.570508 0.09149,0.651535 -0.221546,1.554236 0.243771,1.998083 0.410116,0.05966 0.827527,0.01535 1.240194,0.02898 z"
         id="text49550"
         inkscape:connector-curvature="0" />
      <path
         style="fill:#000000;fill-opacity:1;stroke-width:0.13434657"
         clip-path="none"
         d="m 23.052673,10.450486 c -1.363413,1.031704 -2.337509,2.570163 -3.536959,3.810538 -1.122489,2.12145 -2.307167,-0.565334 -3.295703,-1.485327 -0.747014,-0.833448 -2.588333,-3.6896535 -3.085388,-1.225917 -0.51639,2.17381 1.581269,3.915894 3.467474,4.451288 2.052573,0.358955 -0.350767,1.549495 -1.063545,2.047887 -1.74491,-0.12186 -3.857786,1.167767 -3.583166,3.115954 0.593715,2.725323 4.841369,3.148637 6.095207,0.729932 1.007285,-1.527702 -1.202687,-2.940725 0.28864,-4.247872 1.369278,0.313658 1.130931,1.934728 0.572476,2.902113 -0.216303,2.588391 3.311464,3.764344 5.159443,2.332906 1.725027,-0.966113 1.578813,-3.58573 -0.259839,-4.334572 -1.465066,-0.573517 -3.593549,-0.552612 -4.269982,-2.17915 1.626691,-0.607237 3.50879,-1.299839 4.206913,-3.063763 0.36377,-0.878322 0.432851,-2.518442 -0.695571,-2.854017 z m -4.524079,5.54386 c 1.105062,0.43756 -1.060478,0.508491 5e-6,-2e-5 z m -3.462553,3.1841 c 1.922132,-0.211618 2.670829,2.649994 0.678675,3.13103 -1.490334,0.612622 -3.5694,-1.367025 -1.946401,-2.604657 0.34999,-0.303687 0.796845,-0.522416 1.267726,-0.526373 z m 7.055514,0 c 1.682401,-0.27272 2.693694,2.240088 1.040701,2.98947 -1.410279,0.987167 -3.783587,-0.646347 -2.676135,-2.237075 0.437323,-0.452623 0.967204,-0.843472 1.635434,-0.752395 z"
         id="path53795"
         inkscape:connector-curvature="0" />
    </g>
  </g>
</svg>
