<?xml version="1.0" encoding="UTF-8" standalone="no"?>
<!-- Created with Inkscape (http://www.inkscape.org/) -->

<svg
   xmlns:dc="http://purl.org/dc/elements/1.1/"
   xmlns:cc="http://creativecommons.org/ns#"
   xmlns:rdf="http://www.w3.org/1999/02/22-rdf-syntax-ns#"
   xmlns:svg="http://www.w3.org/2000/svg"
   xmlns="http://www.w3.org/2000/svg"
   xmlns:sodipodi="http://sodipodi.sourceforge.net/DTD/sodipodi-0.dtd"
   xmlns:inkscape="http://www.inkscape.org/namespaces/inkscape"
   width="150"
   height="150"
   viewBox="0 0 39.6875 39.6875"
   version="1.1"
   id="svg922"
   inkscape:version="0.92.4 (5da689c313, 2019-01-14)"
   sodipodi:docname="USO_games_caferino.svg">
  <title
     id="title1437">USOICON</title>
  <defs
     id="defs916">
    <clipPath
       id="clipPath1521"
       clipPathUnits="userSpaceOnUse">
      <rect
         y="66.644836"
         x="57.114269"
         height="151.42299"
         width="172.87534"
         id="rect1523"
         style="opacity:0.875;fill:#000000;fill-opacity:1;stroke:#000000;stroke-width:0.60403091;stroke-linejoin:round;stroke-miterlimit:4;stroke-dasharray:none;stroke-opacity:1" />
    </clipPath>
  </defs>
  <sodipodi:namedview
     id="base"
     pagecolor="#ffffff"
     bordercolor="#666666"
     borderopacity="1.0"
     inkscape:pageopacity="0.0"
     inkscape:pageshadow="2"
     inkscape:zoom="2.0301341"
     inkscape:cx="68.298327"
     inkscape:cy="70.489576"
     inkscape:document-units="px"
     inkscape:current-layer="layer7"
     showgrid="false"
     inkscape:window-width="930"
     inkscape:window-height="684"
     inkscape:window-x="2825"
     inkscape:window-y="149"
     inkscape:window-maximized="0"
     units="px" />
  <metadata
     id="metadata919">
    <rdf:RDF>
      <cc:Work
         rdf:about="">
        <dc:format>image/svg+xml</dc:format>
        <dc:type
           rdf:resource="http://purl.org/dc/dcmitype/StillImage" />
        <dc:title>USOICON</dc:title>
        <cc:license
           rdf:resource="http://creativecommons.org/licenses/by-sa/4.0/" />
      </cc:Work>
      <cc:License
         rdf:about="http://creativecommons.org/licenses/by-sa/4.0/">
        <cc:permits
           rdf:resource="http://creativecommons.org/ns#Reproduction" />
        <cc:permits
           rdf:resource="http://creativecommons.org/ns#Distribution" />
        <cc:requires
           rdf:resource="http://creativecommons.org/ns#Notice" />
        <cc:requires
           rdf:resource="http://creativecommons.org/ns#Attribution" />
        <cc:permits
           rdf:resource="http://creativecommons.org/ns#DerivativeWorks" />
        <cc:requires
           rdf:resource="http://creativecommons.org/ns#ShareAlike" />
      </cc:License>
    </rdf:RDF>
  </metadata>
  <g
     style="display:inline"
     transform="translate(-35.46637,-112.59198)"
     id="layer1"
     inkscape:groupmode="layer"
     inkscape:label="toonbox" />
  <g
     inkscape:label="text"
     id="layer3"
     inkscape:groupmode="layer" />
  <g
     style="display:inline"
     inkscape:label="icon_games"
     id="layer7"
     inkscape:groupmode="layer">
    <g
       id="g6760">
      <path
         style="display:inline;opacity:0.875;fill:#999999;fill-opacity:1;stroke:none;stroke-width:0.11845408;stroke-linejoin:round;stroke-miterlimit:4;stroke-dasharray:none;stroke-opacity:0.97175137"
         d="M 1.435191,10.12791 C 2.670256,9.29705 4.324329,9.43582 5.75553,9.20511 14.11545,8.61268 22.517162,8.68995 30.881762,9.1576 c 2.392119,0.20608 4.838324,0.26932 7.150425,0.97031 0.872353,1.67498 0.817461,3.66984 1.026746,5.51683 0.208491,4.02511 0.362445,8.13136 -0.532305,12.08777 -0.230317,1.64927 -2.017724,2.0517 -3.40708,2.25864 C 28.802681,30.85612 22.40423,30.81147 16.04062,30.81293 11.303807,30.71862 6.537542,30.74635 1.839737,30.07418 0.173005,29.52829 0.822947,27.03924 0.434179,25.65651 0.154966,21.09087 0.021365,16.47217 0.692557,11.93449 0.848231,11.32021 0.903907,10.54918 1.435191,10.12791 Z"
         id="rect49496"
         inkscape:connector-curvature="0" />
      <path
         style="display:inline;fill:#000000;stroke-width:0.37203047"
         d="M 1.803349,30.70864 C 0.056742,30.0892 0.231437,27.93756 0.087588,26.427 -0.022935,21.93179 -0.070132,17.42779 0.099217,12.93387 -0.027874,11.27811 1.27784,10.0868 2.683582,9.49431 4.615709,8.56731 6.836395,8.9315 8.909365,8.7639 16.59615,8.63948 24.285544,8.62691 31.972812,8.67993 c 2.150882,0.14121 4.537543,-0.0199 6.403551,1.23592 1.58486,1.37874 1.255708,3.71898 1.302004,5.60595 -0.178243,4.07095 0.01584,8.16305 -0.388876,12.21995 -0.293352,1.71142 -2.120394,2.65314 -3.654582,3.02944 -6.368162,0.39372 -12.757085,0.28816 -19.135233,0.3134 C 11.668868,31.0283 6.826658,31.10952 2.006621,30.75364 L 1.803349,30.7086 Z m 34.717949,-1.05781 c 1.660436,-0.66982 2.120657,-2.56797 2.182495,-4.18169 C 38.903556,21.6571 38.926032,17.82461 38.6784,14.01451 38.609934,12.47205 38.055319,10.73538 36.494762,10.11382 34.51138,9.13075 32.202264,9.50823 30.063573,9.36171 22.019563,9.34057 13.971808,9.23982 5.930238,9.4697 4.247551,9.52117 2.061367,9.74531 1.291134,11.49417 c -0.682107,2.6627 -0.37748,5.45735 -0.46467,8.18069 0.080658,2.82901 -0.202804,5.71611 0.421771,8.49628 0.655233,1.84726 2.893842,2.0042 4.558802,2.11114 8.176545,0.4213 16.369453,0.15886 24.551012,0.03302 2.04628,-0.14679 4.225389,0.10711 6.163249,-0.66447 z M 4.297406,28.9474 c -0.939032,0.02717 -2.493051,-2.1182 -0.727168,-0.88447 1.706475,0.99084 3.797167,0.59334 5.679761,0.73138 0.843628,0.09701 3.276883,-0.14441 3.328971,0.24148 -2.712643,0.43249 -5.596207,0.56419 -8.281564,-0.08839 z m 31.24001,-17.1062 c -1.499147,-0.78086 -3.308903,-0.4003 -4.94344,-0.53994 -1.173066,-0.10336 -4.022293,-0.01807 -4.347208,-0.50636 2.904245,-0.07023 5.874879,-0.31161 8.734279,0.31742 0.913242,-0.14345 1.834744,2.01352 0.556369,0.72888 z"
         id="path49494"
         inkscape:connector-curvature="0" />
      <path
         style="font-style:normal;font-variant:normal;font-weight:normal;font-stretch:normal;font-size:4.39788723px;font-family:Insaniburger;-inkscape-font-specification:Insaniburger;opacity:1;vector-effect:none;fill:#000000;fill-opacity:1;stroke:none;stroke-width:0.05153773;stroke-linecap:butt;stroke-linejoin:miter;stroke-miterlimit:4;stroke-dasharray:none;stroke-dashoffset:0;stroke-opacity:1"
         d="m 13.393382,26.943521 c -1.152415,1.951221 -3.7809423,-1.054882 -1.904065,-2.380885 0.549705,-0.884522 2.755877,0.291661 1.445552,0.732193 -1.963447,-0.728208 -1.164716,2.217132 0.361985,1.352891 l 0.0724,0.138155 z m 1.6048,-0.724599 c -0.02959,-1.024608 -0.660243,0.180999 0,0 z m -0.583198,0.733771 c -0.618714,1.362744 -1.07838,-0.395525 -0.445582,-1.055399 0.243393,-0.579532 0.644199,-2.158001 1.269527,-1.094104 0.271882,0.750657 0.651019,1.459668 0.849229,2.238932 -0.462362,1.204983 -0.815503,-0.595371 -1.673174,-0.08943 z m 2.640478,0.146755 c -0.341178,-1.055971 0.581695,-0.535347 0.796367,-1.15569 -0.103771,-0.405173 -1.44891,-0.553335 -0.454774,-0.811733 1.04766,-0.01361 0.228542,-1.100713 -0.457667,-0.729185 -0.839384,-0.220537 -0.686943,0.85395 -0.680292,1.470095 0.02621,0.602589 -0.227935,1.992079 0.696821,1.524607 l 0.07466,-0.124397 z m 2.441387,0.398987 c 1.053017,-0.774402 -0.77154,-0.477185 -0.567109,-1.118678 0.659018,0.213254 1.189277,-0.959443 0.145075,-0.802884 -0.716068,-0.684367 0.984066,-0.126044 0.712376,-0.96895 -0.383563,-0.296015 -1.468071,-0.430315 -1.653818,0.193904 0.0568,0.858328 -0.119598,1.785342 0.09955,2.596861 0.382313,0.193397 0.851663,0.06015 1.26393,0.09975 z m 2.179953,-1.316201 c 0.785396,0.472327 0.257742,1.964061 -0.3788,0.894345 -0.443811,-0.840535 -0.557813,-0.75047 -0.518873,0.197425 -0.834758,0.788061 -0.834942,-0.714039 -0.77148,-1.343038 0.02407,-0.605174 -0.214486,-1.736496 0.654377,-1.528126 0.982965,-0.260079 2.05686,0.831846 1.014776,1.779394 z m -0.872786,-1.155689 c -0.431661,1.24608 1.210615,0.429083 0.229257,0 -0.07642,0 -0.152838,0 -0.229257,0 z m 2.326758,2.072903 c -0.549135,1.116131 -1.002155,-0.377895 -0.796367,-1.071108 0.02617,-0.602798 -0.227916,-1.989689 0.696821,-1.525753 0.21564,0.798258 0.04504,1.749174 0.09955,2.596861 z m 1.842101,-1.316202 c -0.231837,-0.688389 0.299725,-2.068139 0.796366,-0.981419 -0.0568,0.858328 0.119597,1.785342 -0.09955,2.596861 -0.715947,0.353239 -1.022148,-0.753449 -1.472989,-1.192413 -0.172119,0.05314 0.17447,1.848786 -0.765284,1.192413 -0.215715,-0.812482 -0.04506,-1.737884 -0.09955,-2.596861 0.382856,-1.029029 1.134652,0.291013 1.477478,0.759048 0.05451,0.07412 0.109014,0.148248 0.16352,0.222371 z m 3.843071,0.137582 c 0.0277,2.770737 -4.034456,1.436932 -2.649528,-0.923089 0.720698,-1.269803 2.754181,-0.680352 2.649528,0.923089 z m -0.953227,-0.575552 c -1.7264,-1.201378 -1.056916,2.768957 0.135242,0.889698 0.08519,-0.295056 0.05772,-0.65385 -0.135242,-0.889698 z"
         id="text49550"
         inkscape:connector-curvature="0" />
      <g
         id="g53695"
         transform="matrix(0.23216083,0,0,0.26739887,-40.66702,-79.695953)">
        <path
           style="fill:#000000;fill-opacity:1;stroke-width:0.56041962"
           d="m 225.79653,381.36576 c -5.04874,-5.70045 -3.09798,-14.35633 -2.45039,-21.29598 2.14357,-8.89697 7.83465,-18.94365 17.6609,-20.54413 7.25222,-1.3964 13.14991,3.76259 20.06409,4.17152 6.86243,-0.25136 12.65893,-5.79643 19.79539,-4.07863 10.07438,0.99305 15.61039,11.35051 17.88548,20.14 0.72391,7.0246 2.71218,15.81255 -2.37779,21.60722 -6.22795,4.55619 -12.2931,-2.23293 -16.91721,-5.91504 -5.78798,-5.77763 -14.55245,-3.45633 -21.84303,-3.96964 -6.37158,-0.56289 -12.86431,0.86093 -17.22384,5.87987 -3.90129,3.36771 -9.44686,8.07986 -14.5936,4.00481 z"
           id="path53677"
           inkscape:connector-curvature="0" />
        <path
           style="fill:#ffffff;fill-opacity:1;stroke-width:0.56041962"
           d="m 277.9872,362.41501 c 5.58994,-5.40079 -8.06317,-7.57497 -4.77264,-0.67341 1.23932,1.3571 3.24548,2.00683 4.77264,0.67341 z"
           id="path53675"
           inkscape:connector-curvature="0" />
        <path
           style="fill:#ffffff;fill-opacity:1;stroke-width:0.56041962"
           d="m 247.09052,359.86347 c 0.27723,-3.25746 8.70112,-2.32963 4.12382,-6.78295 -5.26871,1.19244 -3.64993,-8.73224 -9.37797,-3.68051 1.20337,5.19333 -8.41269,2.02905 -5.05105,7.57352 3.38408,0.29645 5.45041,0.84964 5.40535,4.6496 1.57622,0.88603 5.19447,0.91959 4.89985,-1.75966 z"
           id="path53673"
           inkscape:connector-curvature="0" />
        <path
           style="fill:#fffffc;fill-opacity:1;stroke-width:0.56041962"
           d="m 288.72216,357.58638 c 4.50178,-7.79772 -11.51832,-3.99212 -3.56811,0.81562 1.22542,0.443 2.60725,-0.0116 3.56811,-0.81562 z"
           id="path53671"
           inkscape:connector-curvature="0" />
        <path
           style="fill:#f8ffff;fill-opacity:1;stroke-width:0.56041962"
           d="m 278.37813,352.42476 c 4.38079,-8.166 -11.41132,-4.0188 -3.58973,0.81533 1.23238,0.44154 2.62307,-0.004 3.58973,-0.81533 z"
           id="path53664"
           inkscape:connector-curvature="0" />
      </g>
    </g>
  </g>
</svg>
