<?xml version="1.0" encoding="UTF-8" standalone="no"?>
<!-- Created with Inkscape (http://www.inkscape.org/) -->

<svg
   xmlns:dc="http://purl.org/dc/elements/1.1/"
   xmlns:cc="http://creativecommons.org/ns#"
   xmlns:rdf="http://www.w3.org/1999/02/22-rdf-syntax-ns#"
   xmlns:svg="http://www.w3.org/2000/svg"
   xmlns="http://www.w3.org/2000/svg"
   xmlns:sodipodi="http://sodipodi.sourceforge.net/DTD/sodipodi-0.dtd"
   xmlns:inkscape="http://www.inkscape.org/namespaces/inkscape"
   width="150"
   height="150"
   viewBox="0 0 39.6875 39.6875"
   version="1.1"
   id="svg922"
   inkscape:version="0.92.4 (5da689c313, 2019-01-14)"
   sodipodi:docname="USO_games_thebubsbrothers.svg">
  <title
     id="title1437">USOICON</title>
  <defs
     id="defs916">
    <clipPath
       id="clipPath1521"
       clipPathUnits="userSpaceOnUse">
      <rect
         y="66.644836"
         x="57.114269"
         height="151.42299"
         width="172.87534"
         id="rect1523"
         style="opacity:0.875;fill:#000000;fill-opacity:1;stroke:#000000;stroke-width:0.60403091;stroke-linejoin:round;stroke-miterlimit:4;stroke-dasharray:none;stroke-opacity:1" />
    </clipPath>
  </defs>
  <sodipodi:namedview
     id="base"
     pagecolor="#ffffff"
     bordercolor="#666666"
     borderopacity="1.0"
     inkscape:pageopacity="0.0"
     inkscape:pageshadow="2"
     inkscape:zoom="1.714525"
     inkscape:cx="87.207883"
     inkscape:cy="91.163125"
     inkscape:document-units="px"
     inkscape:current-layer="layer7"
     showgrid="false"
     inkscape:window-width="874"
     inkscape:window-height="554"
     inkscape:window-x="2785"
     inkscape:window-y="89"
     inkscape:window-maximized="0"
     units="px" />
  <metadata
     id="metadata919">
    <rdf:RDF>
      <cc:Work
         rdf:about="">
        <dc:format>image/svg+xml</dc:format>
        <dc:type
           rdf:resource="http://purl.org/dc/dcmitype/StillImage" />
        <dc:title>USOICON</dc:title>
        <cc:license
           rdf:resource="http://creativecommons.org/licenses/by-sa/4.0/" />
      </cc:Work>
      <cc:License
         rdf:about="http://creativecommons.org/licenses/by-sa/4.0/">
        <cc:permits
           rdf:resource="http://creativecommons.org/ns#Reproduction" />
        <cc:permits
           rdf:resource="http://creativecommons.org/ns#Distribution" />
        <cc:requires
           rdf:resource="http://creativecommons.org/ns#Notice" />
        <cc:requires
           rdf:resource="http://creativecommons.org/ns#Attribution" />
        <cc:permits
           rdf:resource="http://creativecommons.org/ns#DerivativeWorks" />
        <cc:requires
           rdf:resource="http://creativecommons.org/ns#ShareAlike" />
      </cc:License>
    </rdf:RDF>
  </metadata>
  <g
     style="display:inline"
     transform="translate(-35.46637,-112.59198)"
     id="layer1"
     inkscape:groupmode="layer"
     inkscape:label="toonbox" />
  <g
     inkscape:label="text"
     id="layer3"
     inkscape:groupmode="layer" />
  <g
     style="display:inline"
     inkscape:label="icon_games"
     id="layer7"
     inkscape:groupmode="layer">
    <g
       id="g5886">
      <path
         style="display:inline;opacity:0.875;fill:#999999;fill-opacity:1;stroke:none;stroke-width:0.11845408;stroke-linejoin:round;stroke-miterlimit:4;stroke-dasharray:none;stroke-opacity:0.97175137"
         d="M 1.435191,10.12791 C 2.670256,9.29705 4.324329,9.43582 5.75553,9.20511 14.11545,8.61268 22.517162,8.68995 30.881762,9.1576 c 2.392119,0.20608 4.838324,0.26932 7.150425,0.97031 0.872353,1.67498 0.817461,3.66984 1.026746,5.51683 0.208491,4.02511 0.362445,8.13136 -0.532305,12.08777 -0.230317,1.64927 -2.017724,2.0517 -3.40708,2.25864 C 28.802681,30.85612 22.40423,30.81147 16.04062,30.81293 11.303807,30.71862 6.537542,30.74635 1.839737,30.07418 0.173005,29.52829 0.822947,27.03924 0.434179,25.65651 0.154966,21.09087 0.021365,16.47217 0.692557,11.93449 0.848231,11.32021 0.903907,10.54918 1.435191,10.12791 Z"
         id="rect49496"
         inkscape:connector-curvature="0" />
      <path
         style="display:inline;fill:#000000;stroke-width:0.37203047"
         d="M 1.803349,30.70864 C 0.056742,30.0892 0.231437,27.93756 0.087588,26.427 -0.022935,21.93179 -0.070132,17.42779 0.099217,12.93387 -0.027874,11.27811 1.27784,10.0868 2.683582,9.49431 4.615709,8.56731 6.836395,8.9315 8.909365,8.7639 16.59615,8.63948 24.285544,8.62691 31.972812,8.67993 c 2.150882,0.14121 4.537543,-0.0199 6.403551,1.23592 1.58486,1.37874 1.255708,3.71898 1.302004,5.60595 -0.178243,4.07095 0.01584,8.16305 -0.388876,12.21995 -0.293352,1.71142 -2.120394,2.65314 -3.654582,3.02944 -6.368162,0.39372 -12.757085,0.28816 -19.135233,0.3134 C 11.668868,31.0283 6.826658,31.10952 2.006621,30.75364 L 1.803349,30.7086 Z m 34.717949,-1.05781 c 1.660436,-0.66982 2.120657,-2.56797 2.182495,-4.18169 C 38.903556,21.6571 38.926032,17.82461 38.6784,14.01451 38.609934,12.47205 38.055319,10.73538 36.494762,10.11382 34.51138,9.13075 32.202264,9.50823 30.063573,9.36171 22.019563,9.34057 13.971808,9.23982 5.930238,9.4697 4.247551,9.52117 2.061367,9.74531 1.291134,11.49417 c -0.682107,2.6627 -0.37748,5.45735 -0.46467,8.18069 0.080658,2.82901 -0.202804,5.71611 0.421771,8.49628 0.655233,1.84726 2.893842,2.0042 4.558802,2.11114 8.176545,0.4213 16.369453,0.15886 24.551012,0.03302 2.04628,-0.14679 4.225389,0.10711 6.163249,-0.66447 z M 4.297406,28.9474 c -0.939032,0.02717 -2.493051,-2.1182 -0.727168,-0.88447 1.706475,0.99084 3.797167,0.59334 5.679761,0.73138 0.843628,0.09701 3.276883,-0.14441 3.328971,0.24148 -2.712643,0.43249 -5.596207,0.56419 -8.281564,-0.08839 z m 31.24001,-17.1062 c -1.499147,-0.78086 -3.308903,-0.4003 -4.94344,-0.53994 -1.173066,-0.10336 -4.022293,-0.01807 -4.347208,-0.50636 2.904245,-0.07023 5.874879,-0.31161 8.734279,0.31742 0.913242,-0.14345 1.834744,2.01352 0.556369,0.72888 z"
         id="path49494"
         inkscape:connector-curvature="0" />
      <path
         style="font-style:normal;font-variant:normal;font-weight:normal;font-stretch:normal;font-size:3.46350908px;font-family:Insaniburger;-inkscape-font-specification:Insaniburger;opacity:1;vector-effect:none;fill:#000000;fill-opacity:1;stroke:none;stroke-width:0.040588;stroke-linecap:butt;stroke-linejoin:miter;stroke-miterlimit:4;stroke-dasharray:none;stroke-dashoffset:0;stroke-opacity:1"
         d="m 5.3593289,26.299365 c -0.092761,0.553561 0.2052379,1.29399 -0.1902586,1.712951 -0.8293532,0.07306 -0.3662628,-1.036052 -0.4862164,-1.536979 -0.231667,-0.159937 -1.0719154,-0.686711 -0.065319,-0.708378 0.6238946,-0.219441 2.0502429,0.31018 0.8105297,0.532406 z m 2.239542,-0.532406 c 0.6458501,0.187521 0.2113535,1.124414 0.3382375,1.645462 0.1613897,0.986183 -1.0375959,0.540305 -0.676475,-0.252499 -0.8936002,-0.361427 -0.053988,1.279271 -1.0531485,0.794424 -0.1721388,-0.63428 -0.064641,-1.357762 -0.063419,-2.023522 0.9579547,-0.748429 0.2739712,1.0554 1.1158931,0.693343 0.047227,-0.29003 -0.1652237,-0.881827 0.3389123,-0.857208 z m 1.6672715,2.260216 c 0.9500816,-0.455862 -1.4265851,-0.698337 -0.068331,-0.867253 0.8677614,-0.405183 -1.3362293,-0.79936 0.068331,-0.860557 0.9320986,-0.564487 -1.3852648,-0.914189 -1.158207,-0.06054 0.049159,0.566111 -0.1029506,1.183765 0.084559,1.715518 0.3253774,0.144291 0.7229625,0.04193 1.0736477,0.07283 z m 3.0817196,-0.669693 c 0.112006,0.798101 -1.83903,1.026631 -1.800517,0.197823 0.04916,-0.566109 -0.10295,-1.183764 0.08456,-1.715517 0.900999,-0.367755 2.04567,0.249836 1.512246,1.057488 0.139077,0.109851 0.207759,0.288289 0.203712,0.460206 z m -0.676475,-0.03683 c -0.644748,-0.990679 -0.605253,0.974776 0,0 z m -0.04783,-0.880647 c -0.572805,-0.882716 -0.533084,0.867817 0,0 z m 2.687108,0.974404 c -0.623049,1.429851 -2.282513,0.214937 -1.817599,-0.99304 -0.217346,-0.956918 1.032476,-0.661466 0.676475,0.178569 -0.269588,0.938643 0.690104,1.108179 0.464649,0.08543 -0.370313,-0.822033 0.844178,-1.320845 0.676475,-0.265984 0,0.331675 0,0.66335 0,0.995024 z m 1.971345,-0.05692 c 0.112006,0.798101 -1.83903,1.026631 -1.800517,0.197823 0.04916,-0.566109 -0.102951,-1.183764 0.08456,-1.715517 0.900998,-0.367755 2.045669,0.249836 1.512246,1.057488 0.139078,0.109851 0.207759,0.288289 0.203712,0.460206 z m -0.676475,-0.03683 c -0.644747,-0.990679 -0.605253,0.974776 0,0 z m -0.04783,-0.880647 c -0.572805,-0.882716 -0.533083,0.867817 0,0 z m 1.404197,-0.572588 c -1.152509,-0.492324 -0.0016,1.676474 0.06064,0.111755 z m 1.132584,2.166459 c -1.179902,0.168242 -1.098582,-1.184772 0.01196,-0.5458 0.549444,-0.473484 -1.685576,-0.693422 -0.611561,-1.580478 0.836126,-0.857372 2.052248,0.837524 0.50394,0.318105 -0.37436,0.47723 1.698195,0.728462 0.64231,1.612287 l -0.245138,0.146915 z m 3.565159,-0.67639 c 0.112008,0.798101 -1.839029,1.026631 -1.800516,0.197823 0.04916,-0.566109 -0.10295,-1.183764 0.08456,-1.715517 0.900999,-0.367755 2.04567,0.249836 1.512247,1.057488 0.139077,0.109851 0.207758,0.288289 0.20371,0.460206 z m -0.676475,-0.03683 c -0.644746,-0.990679 -0.605252,0.974776 0,0 z m -0.04783,-0.880647 c -0.572806,-0.882716 -0.533085,0.867817 0,0 z m 2.287373,0.626164 c 0.861112,0.609896 -0.150511,1.372024 -0.522599,0.390154 -0.279458,-0.787576 -0.237686,1.437791 -0.895265,0.279539 0.05048,-0.626056 -0.104796,-1.304463 0.08456,-1.89607 0.818232,-0.356375 2.433275,0.244312 1.333305,1.226377 z M 22.48132,26.222351 c -0.284396,1.206697 1.230091,-0.005 0,0 z m 3.717194,0.652951 c 0.02353,2.023024 -3.427075,1.049161 -2.250646,-0.673984 0.612198,-0.927133 2.339543,-0.496751 2.250646,0.673984 z m -0.80972,-0.420233 c -1.466494,-0.877173 -0.8978,2.021725 0.114881,0.649603 0.07236,-0.215432 0.04903,-0.477402 -0.114881,-0.649603 z m 2.220752,-0.155704 c -0.09276,0.553561 0.205238,1.29399 -0.190258,1.712951 -0.829354,0.07306 -0.366263,-1.036052 -0.486217,-1.536979 -0.231667,-0.159937 -1.071915,-0.686711 -0.06532,-0.708378 0.623894,-0.219441 2.050243,0.31018 0.81053,0.532406 z m 2.239541,-0.532406 c 0.645851,0.187521 0.211354,1.124414 0.338238,1.645462 0.16139,0.986183 -1.037596,0.540305 -0.676474,-0.252499 -0.893601,-0.361427 -0.05399,1.279271 -1.053149,0.794424 -0.172139,-0.63428 -0.06464,-1.357762 -0.06342,-2.023522 0.957954,-0.748429 0.273971,1.0554 1.115893,0.693343 0.04723,-0.29003 -0.165224,-0.881827 0.338911,-0.857208 z m 1.667272,2.260216 c 0.950083,-0.455862 -1.426585,-0.698337 -0.06833,-0.867253 0.867762,-0.405183 -1.336228,-0.79936 0.06833,-0.860557 0.9321,-0.564487 -1.385264,-0.914189 -1.158207,-0.06054 0.04916,0.566111 -0.102951,1.183765 0.08456,1.715518 0.325378,0.144291 0.722962,0.04193 1.073647,0.07283 z m 1.851764,-0.96101 c 0.861112,0.609896 -0.150512,1.372024 -0.522599,0.390154 -0.279459,-0.787576 -0.237686,1.437791 -0.895265,0.279539 0.05048,-0.626056 -0.104796,-1.304463 0.08456,-1.89607 0.818231,-0.356375 2.433274,0.244312 1.333305,1.226377 z m -0.741389,-0.843814 c -0.284397,1.206697 1.23009,-0.005 0,0 z m 2.220751,1.811521 c -1.179901,0.168242 -1.098582,-1.184772 0.01196,-0.5458 0.549444,-0.473484 -1.685576,-0.693422 -0.611561,-1.580478 0.836125,-0.857372 2.052247,0.837524 0.503939,0.318105 -0.374361,0.47723 1.698196,0.728462 0.64231,1.612287 l -0.245137,0.146915 z"
         id="text49550"
         inkscape:connector-curvature="0" />
      <g
         id="g53695"
         transform="matrix(0.23216083,0,0,0.26739887,-40.66702,-79.695953)">
        <path
           style="fill:#000000;fill-opacity:1;stroke-width:0.56041962"
           d="m 225.79653,381.36576 c -5.04874,-5.70045 -3.09798,-14.35633 -2.45039,-21.29598 2.14357,-8.89697 7.83465,-18.94365 17.6609,-20.54413 7.25222,-1.3964 13.14991,3.76259 20.06409,4.17152 6.86243,-0.25136 12.65893,-5.79643 19.79539,-4.07863 10.07438,0.99305 15.61039,11.35051 17.88548,20.14 0.72391,7.0246 2.71218,15.81255 -2.37779,21.60722 -6.22795,4.55619 -12.2931,-2.23293 -16.91721,-5.91504 -5.78798,-5.77763 -14.55245,-3.45633 -21.84303,-3.96964 -6.37158,-0.56289 -12.86431,0.86093 -17.22384,5.87987 -3.90129,3.36771 -9.44686,8.07986 -14.5936,4.00481 z"
           id="path53677"
           inkscape:connector-curvature="0" />
        <path
           style="fill:#ffffff;fill-opacity:1;stroke-width:0.56041962"
           d="m 277.9872,362.41501 c 5.58994,-5.40079 -8.06317,-7.57497 -4.77264,-0.67341 1.23932,1.3571 3.24548,2.00683 4.77264,0.67341 z"
           id="path53675"
           inkscape:connector-curvature="0" />
        <path
           style="fill:#ffffff;fill-opacity:1;stroke-width:0.56041962"
           d="m 247.09052,359.86347 c 0.27723,-3.25746 8.70112,-2.32963 4.12382,-6.78295 -5.26871,1.19244 -3.64993,-8.73224 -9.37797,-3.68051 1.20337,5.19333 -8.41269,2.02905 -5.05105,7.57352 3.38408,0.29645 5.45041,0.84964 5.40535,4.6496 1.57622,0.88603 5.19447,0.91959 4.89985,-1.75966 z"
           id="path53673"
           inkscape:connector-curvature="0" />
        <path
           style="fill:#fffffc;fill-opacity:1;stroke-width:0.56041962"
           d="m 288.72216,357.58638 c 4.50178,-7.79772 -11.51832,-3.99212 -3.56811,0.81562 1.22542,0.443 2.60725,-0.0116 3.56811,-0.81562 z"
           id="path53671"
           inkscape:connector-curvature="0" />
        <path
           style="fill:#f8ffff;fill-opacity:1;stroke-width:0.56041962"
           d="m 278.37813,352.42476 c 4.38079,-8.166 -11.41132,-4.0188 -3.58973,0.81533 1.23238,0.44154 2.62307,-0.004 3.58973,-0.81533 z"
           id="path53664"
           inkscape:connector-curvature="0" />
      </g>
    </g>
  </g>
</svg>
