<?xml version="1.0" encoding="UTF-8" standalone="no"?>
<!-- Created with Inkscape (http://www.inkscape.org/) -->

<svg
   xmlns:dc="http://purl.org/dc/elements/1.1/"
   xmlns:cc="http://creativecommons.org/ns#"
   xmlns:rdf="http://www.w3.org/1999/02/22-rdf-syntax-ns#"
   xmlns:svg="http://www.w3.org/2000/svg"
   xmlns="http://www.w3.org/2000/svg"
   xmlns:sodipodi="http://sodipodi.sourceforge.net/DTD/sodipodi-0.dtd"
   xmlns:inkscape="http://www.inkscape.org/namespaces/inkscape"
   width="150"
   height="150"
   viewBox="0 0 39.6875 39.6875"
   version="1.1"
   id="svg922"
   inkscape:version="0.92.4 (5da689c313, 2019-01-14)"
   sodipodi:docname="USO_science_simulide.svg">
  <title
     id="title1437">USOICON</title>
  <defs
     id="defs916">
    <clipPath
       id="clipPath1521"
       clipPathUnits="userSpaceOnUse">
      <rect
         y="66.644836"
         x="57.114269"
         height="151.42299"
         width="172.87534"
         id="rect1523"
         style="opacity:0.875;fill:#000000;fill-opacity:1;stroke:#000000;stroke-width:0.60403091;stroke-linejoin:round;stroke-miterlimit:4;stroke-dasharray:none;stroke-opacity:1" />
    </clipPath>
  </defs>
  <sodipodi:namedview
     id="base"
     pagecolor="#ffffff"
     bordercolor="#666666"
     borderopacity="1.0"
     inkscape:pageopacity="0.0"
     inkscape:pageshadow="2"
     inkscape:zoom="1.8595346"
     inkscape:cx="105.98802"
     inkscape:cy="85.162257"
     inkscape:document-units="px"
     inkscape:current-layer="layer11"
     showgrid="false"
     inkscape:window-width="913"
     inkscape:window-height="588"
     inkscape:window-x="2645"
     inkscape:window-y="332"
     inkscape:window-maximized="0"
     units="px" />
  <metadata
     id="metadata919">
    <rdf:RDF>
      <cc:Work
         rdf:about="">
        <dc:format>image/svg+xml</dc:format>
        <dc:type
           rdf:resource="http://purl.org/dc/dcmitype/StillImage" />
        <dc:title>USOICON</dc:title>
        <cc:license
           rdf:resource="http://creativecommons.org/licenses/by-sa/4.0/" />
      </cc:Work>
      <cc:License
         rdf:about="http://creativecommons.org/licenses/by-sa/4.0/">
        <cc:permits
           rdf:resource="http://creativecommons.org/ns#Reproduction" />
        <cc:permits
           rdf:resource="http://creativecommons.org/ns#Distribution" />
        <cc:requires
           rdf:resource="http://creativecommons.org/ns#Notice" />
        <cc:requires
           rdf:resource="http://creativecommons.org/ns#Attribution" />
        <cc:permits
           rdf:resource="http://creativecommons.org/ns#DerivativeWorks" />
        <cc:requires
           rdf:resource="http://creativecommons.org/ns#ShareAlike" />
      </cc:License>
    </rdf:RDF>
  </metadata>
  <g
     style="display:inline"
     transform="translate(-35.46637,-112.59198)"
     id="layer1"
     inkscape:groupmode="layer"
     inkscape:label="toonbox" />
  <g
     inkscape:label="text"
     id="layer3"
     inkscape:groupmode="layer" />
  <g
     style="display:inline"
     inkscape:label="icon_science"
     id="layer11"
     inkscape:groupmode="layer">
    <g
       id="g3320">
      <path
         style="display:inline;opacity:0.875;fill:#999999;fill-opacity:1;stroke:none;stroke-width:0.11845408;stroke-linejoin:round;stroke-miterlimit:4;stroke-dasharray:none;stroke-opacity:0.97175137"
         d="M 1.435191,10.12791 C 2.670256,9.29705 4.324329,9.43582 5.75553,9.20511 14.11545,8.61268 22.517162,8.68995 30.881762,9.1576 c 2.392119,0.20608 4.838324,0.26932 7.150425,0.97031 0.872353,1.67498 0.817461,3.66984 1.026746,5.51683 0.208491,4.02511 0.362445,8.13136 -0.532305,12.08777 -0.230317,1.64927 -2.017724,2.0517 -3.40708,2.25864 C 28.802681,30.85612 22.40423,30.81147 16.04062,30.81293 11.303807,30.71862 6.537542,30.74635 1.839737,30.07418 0.173005,29.52829 0.822947,27.03924 0.434179,25.65651 0.154966,21.09087 0.021365,16.47217 0.692557,11.93449 0.848231,11.32021 0.903907,10.54918 1.435191,10.12791 Z"
         id="rect49496"
         inkscape:connector-curvature="0" />
      <path
         style="display:inline;fill:#000000;stroke-width:0.37203047"
         d="M 1.803349,30.70864 C 0.056742,30.0892 0.231437,27.93756 0.087588,26.427 -0.022935,21.93179 -0.070132,17.42779 0.099217,12.93387 -0.027874,11.27811 1.27784,10.0868 2.683582,9.49431 4.615709,8.56731 6.836395,8.9315 8.909365,8.7639 16.59615,8.63948 24.285544,8.62691 31.972812,8.67993 c 2.150882,0.14121 4.537543,-0.0199 6.403551,1.23592 1.58486,1.37874 1.255708,3.71898 1.302004,5.60595 -0.178243,4.07095 0.01584,8.16305 -0.388876,12.21995 -0.293352,1.71142 -2.120394,2.65314 -3.654582,3.02944 -6.368162,0.39372 -12.757085,0.28816 -19.135233,0.3134 C 11.668868,31.0283 6.826658,31.10952 2.006621,30.75364 L 1.803349,30.7086 Z m 34.717949,-1.05781 c 1.660436,-0.66982 2.120657,-2.56797 2.182495,-4.18169 C 38.903556,21.6571 38.926032,17.82461 38.6784,14.01451 38.609934,12.47205 38.055319,10.73538 36.494762,10.11382 34.51138,9.13075 32.202264,9.50823 30.063573,9.36171 22.019563,9.34057 13.971808,9.23982 5.930238,9.4697 4.247551,9.52117 2.061367,9.74531 1.291134,11.49417 c -0.682107,2.6627 -0.37748,5.45735 -0.46467,8.18069 0.080658,2.82901 -0.202804,5.71611 0.421771,8.49628 0.655233,1.84726 2.893842,2.0042 4.558802,2.11114 8.176545,0.4213 16.369453,0.15886 24.551012,0.03302 2.04628,-0.14679 4.225389,0.10711 6.163249,-0.66447 z M 4.297406,28.9474 c -0.939032,0.02717 -2.493051,-2.1182 -0.727168,-0.88447 1.706475,0.99084 3.797167,0.59334 5.679761,0.73138 0.843628,0.09701 3.276883,-0.14441 3.328971,0.24148 -2.712643,0.43249 -5.596207,0.56419 -8.281564,-0.08839 z m 31.24001,-17.1062 c -1.499147,-0.78086 -3.308903,-0.4003 -4.94344,-0.53994 -1.173066,-0.10336 -4.022293,-0.01807 -4.347208,-0.50636 2.904245,-0.07023 5.874879,-0.31161 8.734279,0.31742 0.913242,-0.14345 1.834744,2.01352 0.556369,0.72888 z"
         id="path49494"
         inkscape:connector-curvature="0" />
      <path
         style="font-style:normal;font-variant:normal;font-weight:normal;font-stretch:normal;font-size:4.94612217px;font-family:Insaniburger;-inkscape-font-specification:Insaniburger;opacity:1;vector-effect:none;fill:#000000;fill-opacity:1;stroke:none;stroke-width:0.05796236;stroke-linecap:butt;stroke-linejoin:miter;stroke-miterlimit:4;stroke-dasharray:none;stroke-dashoffset:0;stroke-opacity:1"
         d="m 12.161275,28.025944 c -0.897498,0.52993 -1.805393,-1.558493 -0.536241,-1.015314 1.397307,0.440818 0.377595,-0.716038 -0.322839,-0.898726 -1.173735,-1.660868 2.155255,-2.616389 1.647026,-0.821446 -0.624541,-0.249817 -1.676302,0.04711 -0.496844,0.54763 1.122855,0.240524 0.785985,2.298941 -0.291102,2.187856 z m 2.042094,-0.474345 c -0.525981,1.251734 -1.104303,-0.307077 -0.866741,-1.106822 0.09149,-0.651535 -0.221547,-1.554237 0.243771,-1.998083 0.924336,-0.21333 0.546091,1.182805 0.62297,1.843389 0,0.420505 0,0.84101 0,1.261516 z m 1.663441,-2.0253 c 0.281825,-0.593133 1.263526,-1.794056 1.444568,-0.544279 -0.01722,0.923342 0.03502,1.853513 -0.02709,2.772441 -0.839114,0.896527 -0.932882,-0.694164 -0.839654,-1.410305 -0.02616,-0.705271 -0.591569,1.253068 -0.846742,0.180561 -0.482566,-0.959607 -0.261686,0.39604 -0.308913,0.869267 -0.181424,1.355908 -1.208551,0.156301 -0.86674,-0.747968 0.05287,-0.69934 -0.117268,-1.470072 0.108342,-2.116378 0.636217,-0.464191 0.966226,0.577858 1.336225,0.996661 z m 3.992261,1.513645 c -0.09899,1.496696 -2.573255,1.305934 -2.328819,-0.301861 0.05476,-0.728171 -0.120075,-1.529894 0.108343,-2.204447 0.960994,-0.542836 0.748478,0.973149 0.758399,1.655827 -0.311339,1.081753 0.857243,1.249661 0.595336,0.0922 0.07573,-0.658722 -0.299342,-2.04907 0.622971,-1.834966 0.465339,0.458978 0.152034,1.377871 0.24377,2.044629 0,0.182873 0,0.365748 0,0.548621 z m 1.764124,0.975341 c -0.512245,-0.118117 -1.495733,0.357784 -1.54525,-0.564307 0.01722,-0.923341 -0.03502,-1.853512 0.02709,-2.77244 0.839114,-0.896527 0.932883,0.694164 0.839655,1.410305 -0.06156,0.702945 -0.06924,1.340283 0.66114,1.079015 0.387502,-0.05324 0.397494,0.871305 0.01737,0.847427 z m 2.442633,-0.463686 c -0.52598,1.251734 -1.104303,-0.307077 -0.866741,-1.106822 0.09149,-0.651535 -0.221546,-1.554237 0.243771,-1.998083 0.924337,-0.21333 0.546092,1.182805 0.62297,1.843389 0,0.420505 0,0.84101 0,1.261516 z m 1.532117,0.463686 c -0.552926,0.01537 -1.516621,0.173422 -1.313243,-0.866168 0.05821,-0.864363 -0.125038,-1.805092 0.108343,-2.615481 0.753887,-0.244972 1.907306,-0.272018 2.202965,0.859419 0.352432,0.976701 0.0022,2.516016 -0.998065,2.62223 z m 0.3305,-1.830764 c -0.09402,-1.532687 -1.13131,-1.089496 -0.777002,0.165479 -0.329794,1.413575 0.80179,1.06446 0.777002,-0.165479 z m 2.473275,1.830764 c 1.089784,-0.787744 -0.638092,-0.675927 -0.617225,-1.149289 0.09475,-0.286101 1.544869,-0.445578 0.529675,-1.08387 -0.672395,0.337877 -0.734829,-0.830943 -0.03382,-0.516985 1.039891,-0.235357 0.0066,-1.198611 -0.622413,-0.847427 -0.859467,-0.253587 -0.768624,0.875944 -0.740183,1.570508 0.09149,0.651535 -0.221546,1.554236 0.243771,1.998083 0.410116,0.05966 0.827527,0.01535 1.240194,0.02898 z"
         id="text49550"
         inkscape:connector-curvature="0" />
      <path
         style="fill:#000000;fill-opacity:1;stroke-width:0.09010038"
         d="m 15.016226,22.938323 c -0.678651,-0.162544 -0.890782,-0.992093 -0.419134,-1.458718 1.025192,-1.606426 2.050381,-3.212853 3.075569,-4.819282 0,-0.650713 0,-1.301427 0,-1.95214 -0.650954,0.09287 -0.497178,-0.722235 0.07728,-0.63158 1.239486,0.02262 2.495781,-0.04456 3.724985,0.03298 0.791413,0.232466 -0.08948,0.561563 0.0069,0.962006 0.05127,0.756418 -0.205433,1.602281 0.390777,2.200436 0.970994,1.530685 1.941986,3.06137 2.912978,4.592056 0.201304,0.797554 -0.729454,1.284261 -1.421379,1.188899 -2.716889,-0.02425 -5.450757,0.04073 -8.157065,-0.03912 -0.06299,-0.02547 -0.128539,-0.04978 -0.190889,-0.07554 z m 5.535325,-3.40286 c 0.996335,-0.215326 2.456484,-0.193758 1.234488,-1.390686 -0.332533,-0.702192 -1.109145,-1.273801 -0.939008,-2.12129 -0.124785,-0.415615 0.322666,-1.403467 -0.364758,-1.256444 -0.724889,0 -1.449779,0 -2.174668,0 -0.06516,0.675338 0.129669,1.426867 -0.09844,2.05445 -0.581879,0.963479 -1.291701,1.869464 -1.753219,2.89217 1.365366,0.279255 2.761459,0.235569 4.095606,-0.1782 z m -1.38583,-6.02638 c -0.868146,-0.323649 -0.609115,-1.389029 0.169026,-1.503732 0.650208,-0.09968 1.549507,0.09254 1.512231,0.937971 -0.203192,0.579811 -1.097404,0.875287 -1.681257,0.565761 z m 0.875606,-0.20978 c 0.619638,-0.06711 0.569853,-0.983684 -0.04182,-1.013181 -0.518953,-0.24751 -1.355434,0.284519 -0.94856,0.865761 0.31942,0.104199 0.646557,0.349958 0.990376,0.14742 z m 1.12489,-1.20623 c -0.699885,-0.111839 -1.142031,-1.033069 -0.615791,-1.541794 0.529822,-0.6399552 1.578263,-0.7283984 2.27032,-0.287476 0.803507,0.334667 0.630576,1.681515 -0.247564,1.784961 -0.444339,0.185187 -0.955713,0.25675 -1.406965,0.04431 z m 1.487723,-0.38911 c 0.510608,-0.206523 0.404845,-0.994368 -0.03808,-1.226114 -0.448837,-0.278054 -1.005076,-0.279358 -1.471813,-0.01805 -0.468263,0.223152 -0.655129,0.860859 -0.202486,1.204272 0.409678,0.340711 1.001711,0.316388 1.47692,0.210588 0.07849,-0.0569 0.156974,-0.113798 0.235461,-0.170697 z m -4.452146,-0.23608 c -0.659123,-0.480454 0.402853,-1.152693 0.905181,-0.790428 0.85812,0.649483 -0.406026,1.288188 -0.905181,0.790428 z m 0.885451,-0.16231 c 0.43868,-0.407317 -0.424469,-0.716121 -0.733137,-0.44754 -0.575427,0.413488 0.509922,0.88411 0.733137,0.44754 z"
         id="path55131"
         inkscape:connector-curvature="0" />
    </g>
  </g>
</svg>
