<?xml version="1.0" encoding="UTF-8" standalone="no"?>
<!-- Created with Inkscape (http://www.inkscape.org/) -->

<svg
   xmlns:dc="http://purl.org/dc/elements/1.1/"
   xmlns:cc="http://creativecommons.org/ns#"
   xmlns:rdf="http://www.w3.org/1999/02/22-rdf-syntax-ns#"
   xmlns:svg="http://www.w3.org/2000/svg"
   xmlns="http://www.w3.org/2000/svg"
   xmlns:sodipodi="http://sodipodi.sourceforge.net/DTD/sodipodi-0.dtd"
   xmlns:inkscape="http://www.inkscape.org/namespaces/inkscape"
   width="150"
   height="150"
   viewBox="0 0 39.6875 39.6875"
   version="1.1"
   id="svg922"
   inkscape:version="0.92.4 (5da689c313, 2019-01-14)"
   sodipodi:docname="USO_office_kexi.svg">
  <title
     id="title1437">USOICON</title>
  <defs
     id="defs916">
    <clipPath
       id="clipPath1521"
       clipPathUnits="userSpaceOnUse">
      <rect
         y="66.644836"
         x="57.114269"
         height="151.42299"
         width="172.87534"
         id="rect1523"
         style="opacity:0.875;fill:#000000;fill-opacity:1;stroke:#000000;stroke-width:0.60403091;stroke-linejoin:round;stroke-miterlimit:4;stroke-dasharray:none;stroke-opacity:1" />
    </clipPath>
  </defs>
  <sodipodi:namedview
     id="base"
     pagecolor="#ffffff"
     bordercolor="#666666"
     borderopacity="1.0"
     inkscape:pageopacity="0.0"
     inkscape:pageshadow="2"
     inkscape:zoom="1.6292252"
     inkscape:cx="59.43362"
     inkscape:cy="86.773256"
     inkscape:document-units="px"
     inkscape:current-layer="layer10"
     showgrid="false"
     inkscape:window-width="884"
     inkscape:window-height="534"
     inkscape:window-x="2571"
     inkscape:window-y="298"
     inkscape:window-maximized="0"
     units="px" />
  <metadata
     id="metadata919">
    <rdf:RDF>
      <cc:Work
         rdf:about="">
        <dc:format>image/svg+xml</dc:format>
        <dc:type
           rdf:resource="http://purl.org/dc/dcmitype/StillImage" />
        <dc:title>USOICON</dc:title>
        <cc:license
           rdf:resource="http://creativecommons.org/licenses/by-sa/4.0/" />
      </cc:Work>
      <cc:License
         rdf:about="http://creativecommons.org/licenses/by-sa/4.0/">
        <cc:permits
           rdf:resource="http://creativecommons.org/ns#Reproduction" />
        <cc:permits
           rdf:resource="http://creativecommons.org/ns#Distribution" />
        <cc:requires
           rdf:resource="http://creativecommons.org/ns#Notice" />
        <cc:requires
           rdf:resource="http://creativecommons.org/ns#Attribution" />
        <cc:permits
           rdf:resource="http://creativecommons.org/ns#DerivativeWorks" />
        <cc:requires
           rdf:resource="http://creativecommons.org/ns#ShareAlike" />
      </cc:License>
    </rdf:RDF>
  </metadata>
  <g
     style="display:inline"
     transform="translate(-35.46637,-112.59198)"
     id="layer1"
     inkscape:groupmode="layer"
     inkscape:label="toonbox" />
  <g
     inkscape:label="text"
     id="layer3"
     inkscape:groupmode="layer" />
  <g
     style="display:inline"
     inkscape:label="icon_office"
     id="layer10"
     inkscape:groupmode="layer">
    <g
       id="g2367">
      <path
         style="display:inline;opacity:0.875;fill:#999999;fill-opacity:1;stroke:none;stroke-width:0.11845408;stroke-linejoin:round;stroke-miterlimit:4;stroke-dasharray:none;stroke-opacity:0.97175137"
         d="M 1.435191,10.12791 C 2.670256,9.29705 4.324329,9.43582 5.75553,9.20511 14.11545,8.61268 22.517162,8.68995 30.881762,9.1576 c 2.392119,0.20608 4.838324,0.26932 7.150425,0.97031 0.872353,1.67498 0.817461,3.66984 1.026746,5.51683 0.208491,4.02511 0.362445,8.13136 -0.532305,12.08777 -0.230317,1.64927 -2.017724,2.0517 -3.40708,2.25864 C 28.802681,30.85612 22.40423,30.81147 16.04062,30.81293 11.303807,30.71862 6.537542,30.74635 1.839737,30.07418 0.173005,29.52829 0.822947,27.03924 0.434179,25.65651 0.154966,21.09087 0.021365,16.47217 0.692557,11.93449 0.848231,11.32021 0.903907,10.54918 1.435191,10.12791 Z"
         id="rect49496"
         inkscape:connector-curvature="0" />
      <path
         style="display:inline;fill:#000000;stroke-width:0.37203047"
         d="M 1.803349,30.70864 C 0.056742,30.0892 0.231437,27.93756 0.087588,26.427 -0.022935,21.93179 -0.070132,17.42779 0.099217,12.93387 -0.027874,11.27811 1.27784,10.0868 2.683582,9.49431 4.615709,8.56731 6.836395,8.9315 8.909365,8.7639 16.59615,8.63948 24.285544,8.62691 31.972812,8.67993 c 2.150882,0.14121 4.537543,-0.0199 6.403551,1.23592 1.58486,1.37874 1.255708,3.71898 1.302004,5.60595 -0.178243,4.07095 0.01584,8.16305 -0.388876,12.21995 -0.293352,1.71142 -2.120394,2.65314 -3.654582,3.02944 -6.368162,0.39372 -12.757085,0.28816 -19.135233,0.3134 C 11.668868,31.0283 6.826658,31.10952 2.006621,30.75364 L 1.803349,30.7086 Z m 34.717949,-1.05781 c 1.660436,-0.66982 2.120657,-2.56797 2.182495,-4.18169 C 38.903556,21.6571 38.926032,17.82461 38.6784,14.01451 38.609934,12.47205 38.055319,10.73538 36.494762,10.11382 34.51138,9.13075 32.202264,9.50823 30.063573,9.36171 22.019563,9.34057 13.971808,9.23982 5.930238,9.4697 4.247551,9.52117 2.061367,9.74531 1.291134,11.49417 c -0.682107,2.6627 -0.37748,5.45735 -0.46467,8.18069 0.080658,2.82901 -0.202804,5.71611 0.421771,8.49628 0.655233,1.84726 2.893842,2.0042 4.558802,2.11114 8.176545,0.4213 16.369453,0.15886 24.551012,0.03302 2.04628,-0.14679 4.225389,0.10711 6.163249,-0.66447 z M 4.297406,28.9474 c -0.939032,0.02717 -2.493051,-2.1182 -0.727168,-0.88447 1.706475,0.99084 3.797167,0.59334 5.679761,0.73138 0.843628,0.09701 3.276883,-0.14441 3.328971,0.24148 -2.712643,0.43249 -5.596207,0.56419 -8.281564,-0.08839 z m 31.24001,-17.1062 c -1.499147,-0.78086 -3.308903,-0.4003 -4.94344,-0.53994 -1.173066,-0.10336 -4.022293,-0.01807 -4.347208,-0.50636 2.904245,-0.07023 5.874879,-0.31161 8.734279,0.31742 0.913242,-0.14345 1.834744,2.01352 0.556369,0.72888 z"
         id="path49494"
         inkscape:connector-curvature="0" />
      <path
         style="font-style:normal;font-variant:normal;font-weight:normal;font-stretch:normal;font-size:4.94612217px;font-family:Insaniburger;-inkscape-font-specification:Insaniburger;opacity:1;vector-effect:none;fill:#000000;fill-opacity:1;stroke:none;stroke-width:0.05796236;stroke-linecap:butt;stroke-linejoin:miter;stroke-miterlimit:4;stroke-dasharray:none;stroke-dashoffset:0;stroke-opacity:1"
         d="m 17.148318,26.208505 c 0.320771,0.498787 1.39307,1.446705 0.442125,1.80678 -0.520867,-0.288376 -0.824414,-0.969289 -1.243204,-1.439028 0.312193,0.858954 -0.564313,2.211198 -0.86674,0.874721 0.01722,-0.923341 -0.03502,-1.853512 0.02709,-2.77244 0.911913,-1.176699 0.777869,1.154662 0.951919,1.019847 0.443546,-0.397757 0.786331,-1.550852 1.417664,-1.142098 0.40437,0.627807 -0.490226,1.153594 -0.72885,1.652218 z m 2.536749,1.80678 c 1.089784,-0.787744 -0.638092,-0.675927 -0.617224,-1.149289 0.09475,-0.286101 1.544868,-0.445578 0.529675,-1.08387 -0.672395,0.337877 -0.734829,-0.830943 -0.03382,-0.516985 1.039891,-0.235357 0.0066,-1.198611 -0.622413,-0.847427 -0.859467,-0.253587 -0.768623,0.875944 -0.740182,1.570508 0.09149,0.651535 -0.221547,1.554236 0.24377,1.998083 0.410117,0.05966 0.827527,0.01535 1.240195,0.02898 z m 2.571769,-1.774802 c 0.260495,0.518774 1.137489,0.971389 0.766058,1.641559 -0.664536,0.695724 -1.010281,-1.081142 -1.456885,-0.791169 -0.244743,0.686651 -1.508579,1.465072 -1.270284,0.194239 0.173777,-0.447324 1.103896,-0.888864 0.582247,-1.341503 -0.606809,-0.379034 -0.981208,-1.923539 0.08751,-1.376663 0.349128,0.357101 0.698255,1.390457 1.047384,0.507643 0.303437,-1.050697 1.699747,-0.487499 0.829939,0.390757 -0.195322,0.258379 -0.390644,0.516758 -0.585966,0.775137 z m 1.950166,1.311116 c -0.52598,1.251734 -1.104303,-0.307077 -0.866741,-1.106822 0.09149,-0.651535 -0.221547,-1.554237 0.243771,-1.998083 0.924336,-0.21333 0.546092,1.182805 0.62297,1.843389 0,0.420505 0,0.84101 0,1.261516 z"
         id="text49550"
         inkscape:connector-curvature="0" />
      <g
         transform="matrix(0.18305115,0,0,0.1651771,-46.105739,-23.454333)"
         id="g2455">
        <path
           style="fill:#000000;fill-opacity:1;stroke-width:0.61634219"
           d="m 338.30358,275.11866 c -9.70179,-7.31832 -9.75134,-22.92001 -1.45706,-31.38693 9.38081,-12.14271 18.15386,-24.86583 28.61378,-36.10513 9.274,-4.22849 15.14571,8.10718 19.30075,14.58025 4.07931,7.21295 3.99328,16.413 -1.97686,22.60527 -6.9397,9.34536 -13.5691,19.00508 -21.36987,27.65495 -9.88851,-1.89149 3.33849,-13.70543 6.51238,-18.82697 4.45043,-7.31817 12.63356,-13.49328 13.49532,-22.28567 -2.182,-5.73961 -9.44516,-23.21491 -16.02282,-13.40536 -9.52992,11.89433 -19.02244,23.87031 -27.6144,36.46094 -4.02796,6.95503 4.53215,20.63551 9.49994,9.03891 7.2613,-9.30698 14.79475,-18.481 21.11672,-28.45846 -3.32669,-3.50864 -8.87038,9.19134 -12.461,12.21044 -2.68427,4.4941 -13.28949,17.80635 -12.58614,5.62769 6.56381,-9.22161 13.43554,-18.30469 21.1156,-26.62439 10.19457,-4.41092 12.62387,11.51935 6.66621,16.99307 -8.0252,11.12705 -16.01896,22.45357 -25.56169,32.32769 -2.25464,1.5425 -5.16742,1.14656 -7.27086,-0.4063 z"
           id="path53927"
           inkscape:connector-curvature="0" />
      </g>
    </g>
  </g>
</svg>
