<?xml version="1.0" encoding="UTF-8" standalone="no"?>
<!-- Created with Inkscape (http://www.inkscape.org/) -->

<svg
   xmlns:dc="http://purl.org/dc/elements/1.1/"
   xmlns:cc="http://creativecommons.org/ns#"
   xmlns:rdf="http://www.w3.org/1999/02/22-rdf-syntax-ns#"
   xmlns:svg="http://www.w3.org/2000/svg"
   xmlns="http://www.w3.org/2000/svg"
   xmlns:sodipodi="http://sodipodi.sourceforge.net/DTD/sodipodi-0.dtd"
   xmlns:inkscape="http://www.inkscape.org/namespaces/inkscape"
   width="150"
   height="150"
   viewBox="0 0 39.6875 39.6875"
   version="1.1"
   id="svg922"
   inkscape:version="0.92.4 (5da689c313, 2019-01-14)"
   sodipodi:docname="USO_chromiumbsu.svg">
  <title
     id="title1437">USOICON</title>
  <defs
     id="defs916">
    <clipPath
       id="clipPath1521"
       clipPathUnits="userSpaceOnUse">
      <rect
         y="66.644836"
         x="57.114269"
         height="151.42299"
         width="172.87534"
         id="rect1523"
         style="opacity:0.875;fill:#000000;fill-opacity:1;stroke:#000000;stroke-width:0.60403091;stroke-linejoin:round;stroke-miterlimit:4;stroke-dasharray:none;stroke-opacity:1" />
    </clipPath>
  </defs>
  <sodipodi:namedview
     id="base"
     pagecolor="#ffffff"
     bordercolor="#666666"
     borderopacity="1.0"
     inkscape:pageopacity="0.0"
     inkscape:pageshadow="2"
     inkscape:zoom="1.369061"
     inkscape:cx="108.48531"
     inkscape:cy="49.727721"
     inkscape:document-units="px"
     inkscape:current-layer="layer7"
     showgrid="false"
     inkscape:window-width="775"
     inkscape:window-height="555"
     inkscape:window-x="2646"
     inkscape:window-y="92"
     inkscape:window-maximized="0"
     units="px" />
  <metadata
     id="metadata919">
    <rdf:RDF>
      <cc:Work
         rdf:about="">
        <dc:format>image/svg+xml</dc:format>
        <dc:type
           rdf:resource="http://purl.org/dc/dcmitype/StillImage" />
        <dc:title>USOICON</dc:title>
        <cc:license
           rdf:resource="http://creativecommons.org/licenses/by-sa/4.0/" />
      </cc:Work>
      <cc:License
         rdf:about="http://creativecommons.org/licenses/by-sa/4.0/">
        <cc:permits
           rdf:resource="http://creativecommons.org/ns#Reproduction" />
        <cc:permits
           rdf:resource="http://creativecommons.org/ns#Distribution" />
        <cc:requires
           rdf:resource="http://creativecommons.org/ns#Notice" />
        <cc:requires
           rdf:resource="http://creativecommons.org/ns#Attribution" />
        <cc:permits
           rdf:resource="http://creativecommons.org/ns#DerivativeWorks" />
        <cc:requires
           rdf:resource="http://creativecommons.org/ns#ShareAlike" />
      </cc:License>
    </rdf:RDF>
  </metadata>
  <g
     style="display:inline"
     transform="translate(-35.46637,-112.59198)"
     id="layer1"
     inkscape:groupmode="layer"
     inkscape:label="toonbox" />
  <g
     inkscape:label="text"
     id="layer3"
     inkscape:groupmode="layer" />
  <g
     style="display:inline"
     inkscape:label="icon_games"
     id="layer7"
     inkscape:groupmode="layer">
    <g
       id="g7435">
      <path
         style="display:inline;opacity:0.875;fill:#999999;fill-opacity:1;stroke:none;stroke-width:0.11845408;stroke-linejoin:round;stroke-miterlimit:4;stroke-dasharray:none;stroke-opacity:0.97175137"
         d="M 1.435191,10.12791 C 2.670256,9.29705 4.324329,9.43582 5.75553,9.20511 14.11545,8.61268 22.517162,8.68995 30.881762,9.1576 c 2.392119,0.20608 4.838324,0.26932 7.150425,0.97031 0.872353,1.67498 0.817461,3.66984 1.026746,5.51683 0.208491,4.02511 0.362445,8.13136 -0.532305,12.08777 -0.230317,1.64927 -2.017724,2.0517 -3.40708,2.25864 C 28.802681,30.85612 22.40423,30.81147 16.04062,30.81293 11.303807,30.71862 6.537542,30.74635 1.839737,30.07418 0.173005,29.52829 0.822947,27.03924 0.434179,25.65651 0.154966,21.09087 0.021365,16.47217 0.692557,11.93449 0.848231,11.32021 0.903907,10.54918 1.435191,10.12791 Z"
         id="rect49496"
         inkscape:connector-curvature="0" />
      <path
         style="display:inline;fill:#000000;stroke-width:0.37203047"
         d="M 1.803349,30.70864 C 0.056742,30.0892 0.231437,27.93756 0.087588,26.427 -0.022935,21.93179 -0.070132,17.42779 0.099217,12.93387 -0.027874,11.27811 1.27784,10.0868 2.683582,9.49431 4.615709,8.56731 6.836395,8.9315 8.909365,8.7639 16.59615,8.63948 24.285544,8.62691 31.972812,8.67993 c 2.150882,0.14121 4.537543,-0.0199 6.403551,1.23592 1.58486,1.37874 1.255708,3.71898 1.302004,5.60595 -0.178243,4.07095 0.01584,8.16305 -0.388876,12.21995 -0.293352,1.71142 -2.120394,2.65314 -3.654582,3.02944 -6.368162,0.39372 -12.757085,0.28816 -19.135233,0.3134 C 11.668868,31.0283 6.826658,31.10952 2.006621,30.75364 L 1.803349,30.7086 Z m 34.717949,-1.05781 c 1.660436,-0.66982 2.120657,-2.56797 2.182495,-4.18169 C 38.903556,21.6571 38.926032,17.82461 38.6784,14.01451 38.609934,12.47205 38.055319,10.73538 36.494762,10.11382 34.51138,9.13075 32.202264,9.50823 30.063573,9.36171 22.019563,9.34057 13.971808,9.23982 5.930238,9.4697 4.247551,9.52117 2.061367,9.74531 1.291134,11.49417 c -0.682107,2.6627 -0.37748,5.45735 -0.46467,8.18069 0.080658,2.82901 -0.202804,5.71611 0.421771,8.49628 0.655233,1.84726 2.893842,2.0042 4.558802,2.11114 8.176545,0.4213 16.369453,0.15886 24.551012,0.03302 2.04628,-0.14679 4.225389,0.10711 6.163249,-0.66447 z M 4.297406,28.9474 c -0.939032,0.02717 -2.493051,-2.1182 -0.727168,-0.88447 1.706475,0.99084 3.797167,0.59334 5.679761,0.73138 0.843628,0.09701 3.276883,-0.14441 3.328971,0.24148 -2.712643,0.43249 -5.596207,0.56419 -8.281564,-0.08839 z m 31.24001,-17.1062 c -1.499147,-0.78086 -3.308903,-0.4003 -4.94344,-0.53994 -1.173066,-0.10336 -4.022293,-0.01807 -4.347208,-0.50636 2.904245,-0.07023 5.874879,-0.31161 8.734279,0.31742 0.913242,-0.14345 1.834744,2.01352 0.556369,0.72888 z"
         id="path49494"
         inkscape:connector-curvature="0" />
      <path
         style="font-style:normal;font-variant:normal;font-weight:normal;font-stretch:normal;font-size:4.94612217px;font-family:Insaniburger;-inkscape-font-specification:Insaniburger;opacity:1;vector-effect:none;fill:#000000;fill-opacity:1;stroke:none;stroke-width:0.05796236;stroke-linecap:butt;stroke-linejoin:miter;stroke-miterlimit:4;stroke-dasharray:none;stroke-dashoffset:0;stroke-opacity:1"
         d="M 7.8713457,27.370387 C 6.6170925,29.638015 3.7562841,26.144447 5.79902,24.603421 6.3973014,23.575468 8.798431,24.942378 7.3723131,25.454347 5.8743644,24.188186 5.4312433,27.82096 7.1359294,26.991976 7.4359913,26.77509 7.8721751,26.858405 7.8713457,27.370387 Z M 9.98129,24.417714 c 0.741923,0.136824 0.32351,1.323995 0.433371,1.97299 0.104732,0.710387 -0.02259,2.252575 -0.8396551,1.363757 -0.044998,-0.624928 0.1423501,-1.414629 -0.6180456,-1.119577 0.324046,0.857336 -0.6009468,2.122724 -0.8667407,0.816094 0.017222,-0.923341 -0.035022,-1.853512 0.027086,-2.77244 1.0120915,-1.108876 0.6127952,1.079841 1.0875822,1.103588 C 10.02762,26.073192 9.0557636,24.279944 9.98129,24.417714 Z m 2.468898,2.067937 c 0.751419,0.47974 0.431736,2.205764 -0.344211,1.150033 -0.268377,-0.370144 -0.749479,-1.518255 -0.605702,-0.38109 0.0372,1.398228 -1.250698,0.513412 -0.86674,-0.507957 0.05437,-0.73114 -0.119468,-1.535413 0.108343,-2.213001 0.635438,-0.140008 1.579619,-0.367835 2.015008,0.397564 0.261818,0.497909 0.13985,1.275001 -0.306698,1.554451 z m -0.949913,-1.343093 c -0.411355,1.012917 0.869051,1.096255 0.525298,0.102597 -0.147081,-0.150599 -0.350646,-0.08937 -0.525298,-0.102597 z m 4.762696,1.039298 c 0.03014,3.220036 -4.390976,1.669942 -2.883663,-1.072776 0.791712,-1.473202 2.988534,-0.799555 2.883663,1.072776 z M 15.22551,25.512974 c -1.547224,-1.391739 -1.552519,2.725651 -0.0022,1.332435 0.268302,-0.357575 0.267962,-0.973193 0.0022,-1.332435 z m 2.668073,0.01333 c 0.281824,-0.593133 1.263525,-1.794056 1.444567,-0.544279 -0.01722,0.923342 0.03502,1.853513 -0.02708,2.772441 -0.839115,0.896527 -0.932883,-0.694164 -0.839655,-1.410305 -0.02616,-0.705271 -0.591569,1.253068 -0.846742,0.180561 -0.482565,-0.959607 -0.261686,0.39604 -0.308913,0.869267 -0.181424,1.355908 -1.208551,0.156301 -0.86674,-0.747968 0.05288,-0.69934 -0.117267,-1.470072 0.108342,-2.116378 0.636217,-0.464191 0.966226,0.577858 1.336226,0.996661 z m 2.530183,2.0253 c -0.52598,1.251734 -1.104304,-0.307077 -0.866742,-1.106822 0.09149,-0.651535 -0.221545,-1.554237 0.243772,-1.998083 0.924336,-0.21333 0.546091,1.182805 0.62297,1.843389 0,0.420505 0,0.84101 0,1.261516 z m 2.547692,-0.511655 c -0.09899,1.496696 -2.573256,1.305934 -2.328819,-0.301861 0.05476,-0.728171 -0.120075,-1.529894 0.108342,-2.204447 0.960994,-0.542836 0.748478,0.973149 0.758399,1.655827 -0.311339,1.081753 0.857243,1.249661 0.595337,0.0922 0.07573,-0.658722 -0.299342,-2.04907 0.62297,-1.834966 0.46534,0.458978 0.152034,1.377871 0.243771,2.044629 0,0.182873 0,0.365748 0,0.548621 z M 24.6349,25.526299 c 0.281826,-0.593133 1.263527,-1.794056 1.444568,-0.544279 -0.01722,0.923342 0.03502,1.853513 -0.02708,2.772441 -0.839115,0.896527 -0.932883,-0.694164 -0.839655,-1.410305 -0.02616,-0.705271 -0.591569,1.253068 -0.846742,0.180561 -0.482565,-0.959607 -0.261686,0.39604 -0.308913,0.869267 -0.181424,1.355908 -1.208551,0.156301 -0.86674,-0.747968 0.05287,-0.69934 -0.117268,-1.470072 0.108343,-2.116378 0.636217,-0.464191 0.966225,0.577858 1.336224,0.996661 z m 5.055988,1.42304 c 0.03534,1.298764 -1.160992,1.053744 -1.87356,1.065946 -0.741923,-0.136824 -0.32351,-1.323995 -0.433371,-1.97299 0.01037,-0.658249 -0.189453,-1.848494 0.681298,-1.624581 0.859831,-0.308774 2.162627,0.67275 1.16162,1.641559 0.28669,0.147234 0.479482,0.510156 0.464013,0.890066 z m -0.86674,-0.05863 c -0.263214,-1.185496 -1.037664,0.384323 -0.325523,0.389071 0.187416,0.03479 0.349237,-0.161562 0.325523,-0.389071 z m -0.06129,-1.401721 c -0.37773,-1.204239 -0.923134,0.836494 -0.06894,0.259825 l 0.05171,-0.10826 z m 2.293798,2.536954 c -0.897498,0.52993 -1.805392,-1.558493 -0.536241,-1.015314 1.397307,0.440818 0.377595,-0.716038 -0.322839,-0.898726 -1.173735,-1.660868 2.155255,-2.616389 1.647027,-0.821446 -0.624542,-0.249817 -1.676303,0.04711 -0.496844,0.54763 1.122854,0.240524 0.785984,2.298941 -0.291103,2.187856 z m 3.504172,-0.986 c -0.09899,1.496696 -2.573255,1.305934 -2.328819,-0.301861 0.05476,-0.728171 -0.120075,-1.529894 0.108343,-2.204447 0.960994,-0.542836 0.748478,0.973149 0.758399,1.655827 -0.31134,1.081753 0.857243,1.249661 0.595336,0.0922 0.07573,-0.658722 -0.299342,-2.04907 0.62297,-1.834966 0.46534,0.458978 0.152035,1.377871 0.243771,2.044629 0,0.182873 0,0.365748 0,0.548621 z"
         id="text49550"
         inkscape:connector-curvature="0" />
      <g
         id="g53695"
         transform="matrix(0.23216083,0,0,0.26739887,-40.66702,-79.695953)">
        <path
           style="fill:#000000;fill-opacity:1;stroke-width:0.56041962"
           d="m 225.79653,381.36576 c -5.04874,-5.70045 -3.09798,-14.35633 -2.45039,-21.29598 2.14357,-8.89697 7.83465,-18.94365 17.6609,-20.54413 7.25222,-1.3964 13.14991,3.76259 20.06409,4.17152 6.86243,-0.25136 12.65893,-5.79643 19.79539,-4.07863 10.07438,0.99305 15.61039,11.35051 17.88548,20.14 0.72391,7.0246 2.71218,15.81255 -2.37779,21.60722 -6.22795,4.55619 -12.2931,-2.23293 -16.91721,-5.91504 -5.78798,-5.77763 -14.55245,-3.45633 -21.84303,-3.96964 -6.37158,-0.56289 -12.86431,0.86093 -17.22384,5.87987 -3.90129,3.36771 -9.44686,8.07986 -14.5936,4.00481 z"
           id="path53677"
           inkscape:connector-curvature="0" />
        <path
           style="fill:#ffffff;fill-opacity:1;stroke-width:0.56041962"
           d="m 277.9872,362.41501 c 5.58994,-5.40079 -8.06317,-7.57497 -4.77264,-0.67341 1.23932,1.3571 3.24548,2.00683 4.77264,0.67341 z"
           id="path53675"
           inkscape:connector-curvature="0" />
        <path
           style="fill:#ffffff;fill-opacity:1;stroke-width:0.56041962"
           d="m 247.09052,359.86347 c 0.27723,-3.25746 8.70112,-2.32963 4.12382,-6.78295 -5.26871,1.19244 -3.64993,-8.73224 -9.37797,-3.68051 1.20337,5.19333 -8.41269,2.02905 -5.05105,7.57352 3.38408,0.29645 5.45041,0.84964 5.40535,4.6496 1.57622,0.88603 5.19447,0.91959 4.89985,-1.75966 z"
           id="path53673"
           inkscape:connector-curvature="0" />
        <path
           style="fill:#fffffc;fill-opacity:1;stroke-width:0.56041962"
           d="m 288.72216,357.58638 c 4.50178,-7.79772 -11.51832,-3.99212 -3.56811,0.81562 1.22542,0.443 2.60725,-0.0116 3.56811,-0.81562 z"
           id="path53671"
           inkscape:connector-curvature="0" />
        <path
           style="fill:#f8ffff;fill-opacity:1;stroke-width:0.56041962"
           d="m 278.37813,352.42476 c 4.38079,-8.166 -11.41132,-4.0188 -3.58973,0.81533 1.23238,0.44154 2.62307,-0.004 3.58973,-0.81533 z"
           id="path53664"
           inkscape:connector-curvature="0" />
      </g>
    </g>
  </g>
</svg>
