<?xml version="1.0" encoding="UTF-8" standalone="no"?>
<!-- Created with Inkscape (http://www.inkscape.org/) -->

<svg
   xmlns:dc="http://purl.org/dc/elements/1.1/"
   xmlns:cc="http://creativecommons.org/ns#"
   xmlns:rdf="http://www.w3.org/1999/02/22-rdf-syntax-ns#"
   xmlns:svg="http://www.w3.org/2000/svg"
   xmlns="http://www.w3.org/2000/svg"
   xmlns:sodipodi="http://sodipodi.sourceforge.net/DTD/sodipodi-0.dtd"
   xmlns:inkscape="http://www.inkscape.org/namespaces/inkscape"
   width="150"
   height="150"
   viewBox="0 0 39.6875 39.6875"
   version="1.1"
   id="svg922"
   inkscape:version="0.92.4 (5da689c313, 2019-01-14)"
   sodipodi:docname="USO_multimedia_terminatorx.svg">
  <title
     id="title1437">USOICON</title>
  <defs
     id="defs916">
    <clipPath
       id="clipPath1521"
       clipPathUnits="userSpaceOnUse">
      <rect
         y="66.644836"
         x="57.114269"
         height="151.42299"
         width="172.87534"
         id="rect1523"
         style="opacity:0.875;fill:#000000;fill-opacity:1;stroke:#000000;stroke-width:0.60403091;stroke-linejoin:round;stroke-miterlimit:4;stroke-dasharray:none;stroke-opacity:1" />
    </clipPath>
  </defs>
  <sodipodi:namedview
     id="base"
     pagecolor="#ffffff"
     bordercolor="#666666"
     borderopacity="1.0"
     inkscape:pageopacity="0.0"
     inkscape:pageshadow="2"
     inkscape:zoom="2.4395729"
     inkscape:cx="93.449288"
     inkscape:cy="76.222818"
     inkscape:document-units="px"
     inkscape:current-layer="layer15"
     showgrid="false"
     inkscape:window-width="1083"
     inkscape:window-height="724"
     inkscape:window-x="2554"
     inkscape:window-y="155"
     inkscape:window-maximized="0"
     units="px" />
  <metadata
     id="metadata919">
    <rdf:RDF>
      <cc:Work
         rdf:about="">
        <dc:format>image/svg+xml</dc:format>
        <dc:type
           rdf:resource="http://purl.org/dc/dcmitype/StillImage" />
        <dc:title>USOICON</dc:title>
        <cc:license
           rdf:resource="http://creativecommons.org/licenses/by-sa/4.0/" />
      </cc:Work>
      <cc:License
         rdf:about="http://creativecommons.org/licenses/by-sa/4.0/">
        <cc:permits
           rdf:resource="http://creativecommons.org/ns#Reproduction" />
        <cc:permits
           rdf:resource="http://creativecommons.org/ns#Distribution" />
        <cc:requires
           rdf:resource="http://creativecommons.org/ns#Notice" />
        <cc:requires
           rdf:resource="http://creativecommons.org/ns#Attribution" />
        <cc:permits
           rdf:resource="http://creativecommons.org/ns#DerivativeWorks" />
        <cc:requires
           rdf:resource="http://creativecommons.org/ns#ShareAlike" />
      </cc:License>
    </rdf:RDF>
  </metadata>
  <g
     style="display:inline"
     transform="translate(-35.46637,-112.59198)"
     id="layer1"
     inkscape:groupmode="layer"
     inkscape:label="toonbox" />
  <g
     inkscape:label="text"
     id="layer3"
     inkscape:groupmode="layer" />
  <g
     style="display:inline"
     inkscape:label="icon_multimedia"
     id="layer15"
     inkscape:groupmode="layer">
    <g
       id="g5106">
      <path
         style="display:inline;opacity:0.875;fill:#999999;fill-opacity:1;stroke:none;stroke-width:0.11845408;stroke-linejoin:round;stroke-miterlimit:4;stroke-dasharray:none;stroke-opacity:0.97175137"
         d="M 1.435191,10.12791 C 2.670256,9.29705 4.324329,9.43582 5.75553,9.20511 14.11545,8.61268 22.517162,8.68995 30.881762,9.1576 c 2.392119,0.20608 4.838324,0.26932 7.150425,0.97031 0.872353,1.67498 0.817461,3.66984 1.026746,5.51683 0.208491,4.02511 0.362445,8.13136 -0.532305,12.08777 -0.230317,1.64927 -2.017724,2.0517 -3.40708,2.25864 C 28.802681,30.85612 22.40423,30.81147 16.04062,30.81293 11.303807,30.71862 6.537542,30.74635 1.839737,30.07418 0.173005,29.52829 0.822947,27.03924 0.434179,25.65651 0.154966,21.09087 0.021365,16.47217 0.692557,11.93449 0.848231,11.32021 0.903907,10.54918 1.435191,10.12791 Z"
         id="rect49496"
         inkscape:connector-curvature="0" />
      <path
         style="display:inline;fill:#000000;stroke-width:0.37203047"
         d="M 1.803349,30.70864 C 0.056742,30.0892 0.231437,27.93756 0.087588,26.427 -0.022935,21.93179 -0.070132,17.42779 0.099217,12.93387 -0.027874,11.27811 1.27784,10.0868 2.683582,9.49431 4.615709,8.56731 6.836395,8.9315 8.909365,8.7639 16.59615,8.63948 24.285544,8.62691 31.972812,8.67993 c 2.150882,0.14121 4.537543,-0.0199 6.403551,1.23592 1.58486,1.37874 1.255708,3.71898 1.302004,5.60595 -0.178243,4.07095 0.01584,8.16305 -0.388876,12.21995 -0.293352,1.71142 -2.120394,2.65314 -3.654582,3.02944 -6.368162,0.39372 -12.757085,0.28816 -19.135233,0.3134 C 11.668868,31.0283 6.826658,31.10952 2.006621,30.75364 L 1.803349,30.7086 Z m 34.717949,-1.05781 c 1.660436,-0.66982 2.120657,-2.56797 2.182495,-4.18169 C 38.903556,21.6571 38.926032,17.82461 38.6784,14.01451 38.609934,12.47205 38.055319,10.73538 36.494762,10.11382 34.51138,9.13075 32.202264,9.50823 30.063573,9.36171 22.019563,9.34057 13.971808,9.23982 5.930238,9.4697 4.247551,9.52117 2.061367,9.74531 1.291134,11.49417 c -0.682107,2.6627 -0.37748,5.45735 -0.46467,8.18069 0.080658,2.82901 -0.202804,5.71611 0.421771,8.49628 0.655233,1.84726 2.893842,2.0042 4.558802,2.11114 8.176545,0.4213 16.369453,0.15886 24.551012,0.03302 2.04628,-0.14679 4.225389,0.10711 6.163249,-0.66447 z M 4.297406,28.9474 c -0.939032,0.02717 -2.493051,-2.1182 -0.727168,-0.88447 1.706475,0.99084 3.797167,0.59334 5.679761,0.73138 0.843628,0.09701 3.276883,-0.14441 3.328971,0.24148 -2.712643,0.43249 -5.596207,0.56419 -8.281564,-0.08839 z m 31.24001,-17.1062 c -1.499147,-0.78086 -3.308903,-0.4003 -4.94344,-0.53994 -1.173066,-0.10336 -4.022293,-0.01807 -4.347208,-0.50636 2.904245,-0.07023 5.874879,-0.31161 8.734279,0.31742 0.913242,-0.14345 1.834744,2.01352 0.556369,0.72888 z"
         id="path49494"
         inkscape:connector-curvature="0" />
      <path
         style="font-style:normal;font-variant:normal;font-weight:normal;font-stretch:normal;font-size:4.94612217px;font-family:Insaniburger;-inkscape-font-specification:Insaniburger;opacity:1;vector-effect:none;fill:#000000;fill-opacity:1;stroke:none;stroke-width:0.05796236;stroke-linecap:butt;stroke-linejoin:miter;stroke-miterlimit:4;stroke-dasharray:none;stroke-dashoffset:0;stroke-opacity:1"
         d="m 7.5145809,25.265141 c -0.057009,0.872755 0.1232148,1.820584 -0.1083426,2.639552 -0.9609942,0.542835 -0.7484772,-0.973149 -0.7583982,-1.655827 0.2027168,-0.971569 -0.2264537,-0.939469 -0.7660587,-1.222063 -0.091117,-0.986296 0.9898377,-0.488485 1.485306,-0.609089 0.7498999,-0.415828 1.4008128,0.939212 0.3416914,0.847427 -0.064733,0 -0.1294652,0 -0.1941979,0 z m 2.4623318,2.750144 C 11.066696,27.227541 9.3388202,27.339358 9.359688,26.865996 c 0.094753,-0.286101 1.544869,-0.445578 0.529675,-1.08387 -0.6723949,0.337877 -0.7348289,-0.830943 -0.03382,-0.516985 1.0398913,-0.235357 0.00658,-1.198611 -0.622413,-0.847427 -0.8594664,-0.253587 -0.768623,0.875944 -0.7401823,1.570508 0.091486,0.651535 -0.2215464,1.554236 0.2437709,1.998083 0.4101161,0.05966 0.8275265,0.01535 1.2401944,0.02898 z m 2.3725933,-1.529634 c 0.751418,0.47974 0.431736,2.205764 -0.344212,1.150033 -0.268376,-0.370144 -0.749478,-1.518255 -0.605701,-0.38109 0.0372,1.398228 -1.250699,0.513412 -0.866741,-0.507957 0.05437,-0.73114 -0.119467,-1.535413 0.108344,-2.213001 0.635438,-0.140008 1.579619,-0.367835 2.015007,0.397564 0.261819,0.497909 0.139851,1.275001 -0.306697,1.554451 z m -0.949913,-1.343093 c -0.411356,1.012917 0.869051,1.096255 0.525298,0.102597 -0.147081,-0.150599 -0.350646,-0.08937 -0.525298,-0.102597 z m 3.110198,0.383741 c 0.281826,-0.593133 1.263526,-1.794056 1.444569,-0.544279 -0.01722,0.923342 0.03502,1.853513 -0.02709,2.772441 -0.839115,0.896527 -0.932883,-0.694164 -0.839656,-1.410305 -0.02616,-0.705271 -0.591568,1.253068 -0.846742,0.180561 -0.482565,-0.959607 -0.261685,0.39604 -0.308912,0.869267 -0.181424,1.355908 -1.20855,0.156301 -0.86674,-0.747968 0.05287,-0.69934 -0.117268,-1.470072 0.108343,-2.116378 0.636217,-0.464191 0.966225,0.577858 1.336224,0.996661 z m 2.530183,2.0253 c -0.52598,1.251734 -1.104303,-0.307077 -0.866741,-1.106822 0.09149,-0.651535 -0.221546,-1.554237 0.243771,-1.998083 0.924336,-0.21333 0.546092,1.182805 0.62297,1.843389 0,0.420505 0,0.84101 0,1.261516 z m 2.004886,-1.529635 c -0.109852,-0.708062 0.03229,-2.228727 0.839654,-1.343426 0.04366,1.019343 0.0459,2.056606 0,3.075923 -0.627518,0.780676 -1.124026,-0.53403 -1.531766,-1.019858 -0.487323,-0.828463 -0.02457,0.879555 -0.335502,1.16476 -0.960994,0.542834 -0.748476,-0.973149 -0.758397,-1.655827 0.05872,-0.663143 -0.280011,-2.092676 0.671942,-1.772525 0.415518,0.461515 0.738699,1.040324 1.114069,1.550953 z m 2.613354,0.506325 c -0.07464,-1.412416 -0.720453,0.360706 0,0 z m -0.634733,0.852758 c -0.566395,1.512044 -1.252612,-0.248485 -0.562097,-1.020922 0.33324,-0.643461 0.384984,-1.648478 1.006411,-1.942411 0.627098,0.319018 0.692768,1.341871 1.034194,2.008483 0.693162,0.768046 -0.06497,2.446845 -0.585503,0.95485 -0.297669,0 -0.595337,0 -0.893005,0 z m 3.097066,-2.115906 c -0.05701,0.872755 0.123214,1.820584 -0.108343,2.639552 -0.960994,0.542835 -0.748477,-0.973149 -0.758398,-1.655827 0.202716,-0.971569 -0.226454,-0.939469 -0.766059,-1.222063 -0.09112,-0.986296 0.989838,-0.488485 1.485306,-0.609089 0.7499,-0.415828 1.400813,0.939212 0.341691,0.847427 -0.06473,0 -0.129465,0 -0.194197,0 z m 4.075432,0.916715 c 0.03014,3.220036 -4.390977,1.669942 -2.883665,-1.072776 0.791713,-1.473202 2.988535,-0.799555 2.883665,1.072776 z m -1.037463,-0.668882 c -1.547224,-1.391739 -1.552517,2.725651 -0.0022,1.332435 0.268303,-0.357575 0.267962,-0.973193 0.0022,-1.332435 z m 3.040159,0.972677 c 0.751418,0.47974 0.431736,2.205764 -0.344211,1.150033 -0.268377,-0.370144 -0.749479,-1.518255 -0.605701,-0.38109 0.0372,1.398228 -1.2507,0.513412 -0.866741,-0.507957 0.05437,-0.73114 -0.119467,-1.535413 0.108342,-2.213001 0.635438,-0.140008 1.57962,-0.367835 2.015008,0.397564 0.261819,0.497909 0.139851,1.275001 -0.306697,1.554451 z m -0.949912,-1.343093 c -0.411357,1.012917 0.86905,1.096255 0.525297,0.102597 -0.147081,-0.150599 -0.350646,-0.08937 -0.525297,-0.102597 z m 3.681459,1.097925 c 0.260496,0.518774 1.13749,0.971389 0.766059,1.641559 -0.664536,0.695724 -1.010282,-1.081142 -1.456885,-0.791169 -0.244744,0.686651 -1.508579,1.465072 -1.270284,0.194239 0.173777,-0.447324 1.103895,-0.888864 0.582246,-1.341503 -0.606808,-0.379034 -0.981207,-1.923539 0.08751,-1.376663 0.349128,0.357101 0.698256,1.390457 1.047383,0.507643 0.303437,-1.050697 1.699747,-0.487499 0.82994,0.390757 -0.195322,0.258379 -0.390645,0.516758 -0.585967,0.775137 z"
         id="text49550"
         inkscape:connector-curvature="0" />
      <path
         style="fill:#000000;stroke-width:0.14142624"
         d="m 21.511669,23.32761 c -1.866944,-1.066301 0.310761,-3.390853 1.902313,-2.968101 1.612914,-1.039568 0.560694,-3.411784 0.901347,-5.029124 0.141004,-1.140796 -0.482669,-3.917241 1.408264,-2.61746 2.407805,1.06011 3.369993,4.636887 1.535967,6.605384 -0.500464,0.304863 -0.0539,-1.732809 -0.651348,-2.264473 -0.421606,-1.210102 -1.875719,-1.252003 -1.514582,0.208041 -0.09476,1.728579 0.09371,3.495994 -0.372652,5.185703 -0.703572,0.975334 -2.112236,1.226595 -3.209309,0.88003 z m -4.137314,-1.72927 c -3.702692,-0.914497 -5.408714,-6.018206 -2.903919,-8.934591 2.092249,-2.6972316 6.694078,-3.0393499 8.956831,-0.380283 1.065516,1.597372 -2.180419,2.145554 -1.833871,3.120415 1.059994,-0.295907 2.724492,-0.628934 1.94508,1.10994 0.219975,1.435547 0.516651,3.613523 -1.599625,3.46158 -1.201264,0.987176 -2.394499,2.449555 -4.151904,1.728675 l -0.20748,-0.04862 z M 16.92972,18.77402 c 1.396491,-0.833764 -0.309475,-2.213853 -1.269791,-1.288526 -2.065466,0.369264 0.490466,3.394836 1.269791,1.288526 z m 3.186375,-1.72134 c 1.85281,-1.662192 -2.280726,-3.503965 -2.379519,-0.997157 -0.109361,1.186614 1.620466,2.022295 2.379519,0.997157 z M 17.960039,14.3131 c 1.586398,-1.058588 -0.419159,-3.86946 -1.763309,-2.064828 -1.874561,0.885216 0.854202,3.096441 1.763309,2.064828 z"
         id="path53394"
         inkscape:connector-curvature="0" />
    </g>
  </g>
</svg>
