<?xml version="1.0" encoding="UTF-8" standalone="no"?>
<!-- Created with Inkscape (http://www.inkscape.org/) -->

<svg
   xmlns:dc="http://purl.org/dc/elements/1.1/"
   xmlns:cc="http://creativecommons.org/ns#"
   xmlns:rdf="http://www.w3.org/1999/02/22-rdf-syntax-ns#"
   xmlns:svg="http://www.w3.org/2000/svg"
   xmlns="http://www.w3.org/2000/svg"
   xmlns:sodipodi="http://sodipodi.sourceforge.net/DTD/sodipodi-0.dtd"
   xmlns:inkscape="http://www.inkscape.org/namespaces/inkscape"
   width="150"
   height="150"
   viewBox="0 0 39.6875 39.6875"
   version="1.1"
   id="svg922"
   inkscape:version="0.92.4 (5da689c313, 2019-01-14)"
   sodipodi:docname="USO_games_opensimulatorserver.svg">
  <title
     id="title1437">USOICON</title>
  <defs
     id="defs916">
    <clipPath
       id="clipPath1521"
       clipPathUnits="userSpaceOnUse">
      <rect
         y="66.644836"
         x="57.114269"
         height="151.42299"
         width="172.87534"
         id="rect1523"
         style="opacity:0.875;fill:#000000;fill-opacity:1;stroke:#000000;stroke-width:0.60403091;stroke-linejoin:round;stroke-miterlimit:4;stroke-dasharray:none;stroke-opacity:1" />
    </clipPath>
  </defs>
  <sodipodi:namedview
     id="base"
     pagecolor="#ffffff"
     bordercolor="#666666"
     borderopacity="1.0"
     inkscape:pageopacity="0.0"
     inkscape:pageshadow="2"
     inkscape:zoom="1.8339446"
     inkscape:cx="93.913612"
     inkscape:cy="68.130167"
     inkscape:document-units="px"
     inkscape:current-layer="layer3"
     showgrid="false"
     inkscape:window-width="1024"
     inkscape:window-height="582"
     inkscape:window-x="2615"
     inkscape:window-y="171"
     inkscape:window-maximized="0"
     units="px" />
  <metadata
     id="metadata919">
    <rdf:RDF>
      <cc:Work
         rdf:about="">
        <dc:format>image/svg+xml</dc:format>
        <dc:type
           rdf:resource="http://purl.org/dc/dcmitype/StillImage" />
        <dc:title>USOICON</dc:title>
        <cc:license
           rdf:resource="http://creativecommons.org/licenses/by-sa/4.0/" />
      </cc:Work>
      <cc:License
         rdf:about="http://creativecommons.org/licenses/by-sa/4.0/">
        <cc:permits
           rdf:resource="http://creativecommons.org/ns#Reproduction" />
        <cc:permits
           rdf:resource="http://creativecommons.org/ns#Distribution" />
        <cc:requires
           rdf:resource="http://creativecommons.org/ns#Notice" />
        <cc:requires
           rdf:resource="http://creativecommons.org/ns#Attribution" />
        <cc:permits
           rdf:resource="http://creativecommons.org/ns#DerivativeWorks" />
        <cc:requires
           rdf:resource="http://creativecommons.org/ns#ShareAlike" />
      </cc:License>
    </rdf:RDF>
  </metadata>
  <g
     style="display:inline"
     transform="translate(-35.46637,-112.59198)"
     id="layer1"
     inkscape:groupmode="layer"
     inkscape:label="toonbox">
    <path
       sodipodi:nodetypes="cccsc"
       inkscape:connector-curvature="0"
       id="rect49496"
       d="m 36.90156,122.71989 c 0.831696,-1.81518 32.136082,-1.74537 36.596996,0 1.360957,1.25668 1.965827,18.83145 -0.529263,19.1107 -2.34387,2.23409 -34.78045,1.7797 -36.294559,0.62834 -1.133237,-0.86173 -1.587784,-18.83144 0.226826,-19.73904 z"
       style="opacity:0.875;fill:#999999;fill-opacity:1;stroke:none;stroke-width:0.11845408;stroke-linejoin:round;stroke-miterlimit:4;stroke-dasharray:none;stroke-opacity:0.97175137" />
    <path
       inkscape:connector-curvature="0"
       id="path49494"
       d="m 37.269718,143.30062 c -1.641726,-0.64434 -1.803348,-1.59457 -1.803348,-10.60246 0,-8.6181 0,-8.6181 1.184803,-9.66955 0.651642,-0.57829 1.906815,-1.21394 2.789275,-1.41254 1.014238,-0.22826 7.228924,-0.36098 16.893825,-0.36076 20.576488,3.7e-4 18.888124,-0.98916 18.718084,10.97136 -0.122927,8.64687 -0.122927,8.64687 -1.155993,9.6823 -0.568185,0.56949 -1.705467,1.20373 -2.527298,1.40941 -1.972575,0.49371 -32.837149,0.47762 -34.099348,-0.0178 z m 34.717949,-1.05781 c 2.057419,-1.09405 2.321925,-2.20712 2.321925,-9.77101 0,-7.72677 -0.261904,-8.73763 -2.557796,-9.87221 -1.306397,-0.6456 -2.051043,-0.67602 -16.574417,-0.67722 -12.68509,-0.001 -15.404566,0.0817 -16.40064,0.49925 -2.429502,1.01833 -2.483917,1.2385 -2.483917,10.05018 0,8.63256 0.07681,8.98184 2.190626,9.96194 1.290086,0.59816 7.836312,0.78195 20.969628,0.58874 10.114957,-0.14881 11.511591,-0.23568 12.534591,-0.77967 z m -32.223892,-0.70343 c -0.704624,-0.24864 -1.401002,-0.70525 -1.547504,-1.0147 -0.218464,-0.46145 -0.07094,-0.43803 0.820336,0.13023 0.940358,0.59955 1.705219,0.69805 5.679761,0.73138 3.569034,0.0299 4.224546,0.1003 2.940161,0.31564 -2.52326,0.42304 -6.463123,0.3419 -7.892754,-0.16255 z m 31.24001,-17.1062 c -0.376607,-0.36781 -1.414169,-0.50758 -3.872935,-0.52171 -1.847182,-0.0106 -4.102321,-0.14401 -5.01142,-0.29643 -1.299481,-0.21787 -0.707245,-0.28535 2.769834,-0.31564 4.414966,-0.0385 6.277427,0.2894 6.698657,1.17915 0.282918,0.5976 0.05617,0.57999 -0.584136,-0.0454 z"
       style="fill:#000000;stroke-width:0.37203047" />
  </g>
  <g
     inkscape:label="text"
     id="layer3"
     inkscape:groupmode="layer">
    <text
       transform="scale(0.93386264,1.0708213)"
       id="text49550"
       y="26.182661"
       x="3.6290035"
       style="font-style:normal;font-variant:normal;font-weight:normal;font-stretch:normal;font-size:3.2875669px;font-family:Insaniburger;-inkscape-font-specification:Insaniburger;opacity:1;vector-effect:none;fill:#000000;fill-opacity:1;stroke:none;stroke-width:0.03852617;stroke-linecap:butt;stroke-linejoin:miter;stroke-miterlimit:4;stroke-dasharray:none;stroke-dashoffset:0;stroke-opacity:1"
       xml:space="preserve"><tspan
         style="font-style:normal;font-variant:normal;font-weight:normal;font-stretch:normal;font-family:Insaniburger;-inkscape-font-specification:Insaniburger;stroke-width:0.03852617"
         y="26.182661"
         x="3.6290035"
         id="tspan49548"
         sodipodi:role="line">Opensimulator server</tspan></text>
  </g>
  <g
     style="display:inline"
     inkscape:label="icon_games"
     id="layer7"
     inkscape:groupmode="layer">
    <g
       transform="matrix(0.23216083,0,0,0.26739887,-40.66702,-79.695953)"
       id="g53695">
      <path
         inkscape:connector-curvature="0"
         style="fill:#000000;fill-opacity:1;stroke-width:0.56041962"
         d="m 225.79653,381.36576 c -2.54967,-2.16287 -3.28927,-5.07779 -3.22937,-12.72754 0.0593,-7.57051 1.18595,-12.13608 4.43388,-17.96747 2.67589,-4.80432 5.91972,-8.09226 9.70728,-9.83928 2.93991,-1.35603 3.61581,-1.46275 7.92401,-1.25119 3.99113,0.19599 5.33064,0.52071 8.77702,2.12769 5.78914,2.69936 9.37027,2.66126 15.81605,-0.16825 4.16983,-1.83044 5.18512,-2.06465 8.95016,-2.06465 7.51056,0 12.24218,2.99633 16.63155,10.53204 3.48187,5.97773 4.73552,10.84728 4.79647,18.63111 0.0599,7.64975 -0.67969,10.56467 -3.22937,12.72754 -1.37053,1.16261 -2.27891,1.46692 -4.3788,1.46692 -3.28921,0 -4.23651,-0.53789 -11.50581,-6.53308 -5.84738,-4.82249 -5.84738,-4.82249 -19.40423,-4.82249 -13.55685,0 -13.55685,0 -19.40422,4.82249 -7.2693,5.99519 -8.2166,6.53308 -11.50581,6.53308 -2.0999,0 -3.00827,-0.30431 -4.37881,-1.46692 z"
         id="path53677" />
      <path
         inkscape:connector-curvature="0"
         style="fill:#ffffff;fill-opacity:1;stroke-width:0.56041962"
         d="m 277.9872,362.41501 c 2.48313,-1.47539 1.1115,-5.39043 -1.88854,-5.39043 -3.18922,0 -4.68975,3.85168 -2.09998,5.39043 0.74378,0.44193 1.6412,0.80351 1.99426,0.80351 0.35306,0 1.25048,-0.36158 1.99426,-0.80351 z"
         id="path53675" />
      <path
         inkscape:connector-curvature="0"
         style="fill:#ffffff;fill-opacity:1;stroke-width:0.56041962"
         d="m 247.09052,359.86347 c 0.28974,-1.96633 0.42013,-2.07694 2.73812,-2.32273 2.38318,-0.2527 2.43389,-0.30109 2.43389,-2.32273 0,-2.02164 -0.0507,-2.07003 -2.43389,-2.32273 -2.37843,-0.2522 -2.43819,-0.3087 -2.62261,-2.47993 -0.18873,-2.22185 -0.18873,-2.22185 -2.73813,-2.06465 -2.47869,0.15284 -2.55783,0.21446 -2.85363,2.22185 -0.28975,1.96633 -0.42014,2.07694 -2.73813,2.32273 -2.25128,0.23872 -2.44868,0.38956 -2.63114,2.01052 -0.22767,2.02263 0.53795,2.61563 3.39173,2.62704 1.77717,0.007 1.97754,0.16052 1.97754,1.51417 0,2.64823 0.54785,3.20895 2.96766,3.03739 2.07566,-0.14716 2.22211,-0.27682 2.50859,-2.22093 z"
         id="path53673" />
      <path
         inkscape:connector-curvature="0"
         style="fill:#fffffc;fill-opacity:1;stroke-width:0.56041962"
         d="m 288.72216,357.58638 c 2.66282,-2.496 -0.94822,-6.2938 -4.24303,-4.46246 -2.76721,1.53807 -1.47026,5.44914 1.80699,5.44914 0.76088,0 1.85709,-0.444 2.43604,-0.98668 z"
         id="path53671" />
      <path
         inkscape:connector-curvature="0"
         style="fill:#f8ffff;fill-opacity:1;stroke-width:0.56041962"
         d="m 278.37813,352.42476 c 1.50071,-1.40669 1.03223,-3.70653 -0.94602,-4.64411 -1.43589,-0.68054 -1.76922,-0.66753 -3.19447,0.12466 -2.86196,1.59073 -1.64992,5.50613 1.70445,5.50613 0.76088,0 1.8571,-0.444 2.43604,-0.98668 z"
         id="path53664" />
    </g>
  </g>
</svg>
