<?xml version="1.0" encoding="UTF-8" standalone="no"?>
<!-- Created with Inkscape (http://www.inkscape.org/) -->

<svg
   xmlns:dc="http://purl.org/dc/elements/1.1/"
   xmlns:cc="http://creativecommons.org/ns#"
   xmlns:rdf="http://www.w3.org/1999/02/22-rdf-syntax-ns#"
   xmlns:svg="http://www.w3.org/2000/svg"
   xmlns="http://www.w3.org/2000/svg"
   xmlns:sodipodi="http://sodipodi.sourceforge.net/DTD/sodipodi-0.dtd"
   xmlns:inkscape="http://www.inkscape.org/namespaces/inkscape"
   width="150"
   height="150"
   viewBox="0 0 39.6875 39.6875"
   version="1.1"
   id="svg922"
   inkscape:version="0.92.4 (5da689c313, 2019-01-14)"
   sodipodi:docname="USO_games_pianobooster.svg">
  <title
     id="title1437">USOICON</title>
  <defs
     id="defs916">
    <clipPath
       id="clipPath1521"
       clipPathUnits="userSpaceOnUse">
      <rect
         y="66.644836"
         x="57.114269"
         height="151.42299"
         width="172.87534"
         id="rect1523"
         style="opacity:0.875;fill:#000000;fill-opacity:1;stroke:#000000;stroke-width:0.60403091;stroke-linejoin:round;stroke-miterlimit:4;stroke-dasharray:none;stroke-opacity:1" />
    </clipPath>
  </defs>
  <sodipodi:namedview
     id="base"
     pagecolor="#ffffff"
     bordercolor="#666666"
     borderopacity="1.0"
     inkscape:pageopacity="0.0"
     inkscape:pageshadow="2"
     inkscape:zoom="1.6121653"
     inkscape:cx="70.31315"
     inkscape:cy="69.189998"
     inkscape:document-units="px"
     inkscape:current-layer="layer7"
     showgrid="false"
     inkscape:window-width="832"
     inkscape:window-height="531"
     inkscape:window-x="2378"
     inkscape:window-y="331"
     inkscape:window-maximized="0"
     units="px" />
  <metadata
     id="metadata919">
    <rdf:RDF>
      <cc:Work
         rdf:about="">
        <dc:format>image/svg+xml</dc:format>
        <dc:type
           rdf:resource="http://purl.org/dc/dcmitype/StillImage" />
        <dc:title>USOICON</dc:title>
        <cc:license
           rdf:resource="http://creativecommons.org/licenses/by-sa/4.0/" />
      </cc:Work>
      <cc:License
         rdf:about="http://creativecommons.org/licenses/by-sa/4.0/">
        <cc:permits
           rdf:resource="http://creativecommons.org/ns#Reproduction" />
        <cc:permits
           rdf:resource="http://creativecommons.org/ns#Distribution" />
        <cc:requires
           rdf:resource="http://creativecommons.org/ns#Notice" />
        <cc:requires
           rdf:resource="http://creativecommons.org/ns#Attribution" />
        <cc:permits
           rdf:resource="http://creativecommons.org/ns#DerivativeWorks" />
        <cc:requires
           rdf:resource="http://creativecommons.org/ns#ShareAlike" />
      </cc:License>
    </rdf:RDF>
  </metadata>
  <g
     style="display:inline"
     transform="translate(-35.46637,-112.59198)"
     id="layer1"
     inkscape:groupmode="layer"
     inkscape:label="toonbox" />
  <g
     inkscape:label="text"
     id="layer3"
     inkscape:groupmode="layer" />
  <g
     style="display:inline"
     inkscape:label="icon_games"
     id="layer7"
     inkscape:groupmode="layer">
    <g
       id="g4703">
      <path
         style="display:inline;opacity:0.875;fill:#999999;fill-opacity:1;stroke:none;stroke-width:0.11845408;stroke-linejoin:round;stroke-miterlimit:4;stroke-dasharray:none;stroke-opacity:0.97175137"
         d="M 1.435191,10.12791 C 2.670256,9.29705 4.324329,9.43582 5.75553,9.20511 14.11545,8.61268 22.517162,8.68995 30.881762,9.1576 c 2.392119,0.20608 4.838324,0.26932 7.150425,0.97031 0.872353,1.67498 0.817461,3.66984 1.026746,5.51683 0.208491,4.02511 0.362445,8.13136 -0.532305,12.08777 -0.230317,1.64927 -2.017724,2.0517 -3.40708,2.25864 C 28.802681,30.85612 22.40423,30.81147 16.04062,30.81293 11.303807,30.71862 6.537542,30.74635 1.839737,30.07418 0.173005,29.52829 0.822947,27.03924 0.434179,25.65651 0.154966,21.09087 0.021365,16.47217 0.692557,11.93449 0.848231,11.32021 0.903907,10.54918 1.435191,10.12791 Z"
         id="rect49496"
         inkscape:connector-curvature="0" />
      <path
         style="display:inline;fill:#000000;stroke-width:0.37203047"
         d="M 1.803349,30.70864 C 0.056742,30.0892 0.231437,27.93756 0.087588,26.427 -0.022935,21.93179 -0.070132,17.42779 0.099217,12.93387 -0.027874,11.27811 1.27784,10.0868 2.683582,9.49431 4.615709,8.56731 6.836395,8.9315 8.909365,8.7639 16.59615,8.63948 24.285544,8.62691 31.972812,8.67993 c 2.150882,0.14121 4.537543,-0.0199 6.403551,1.23592 1.58486,1.37874 1.255708,3.71898 1.302004,5.60595 -0.178243,4.07095 0.01584,8.16305 -0.388876,12.21995 -0.293352,1.71142 -2.120394,2.65314 -3.654582,3.02944 -6.368162,0.39372 -12.757085,0.28816 -19.135233,0.3134 C 11.668868,31.0283 6.826658,31.10952 2.006621,30.75364 L 1.803349,30.7086 Z m 34.717949,-1.05781 c 1.660436,-0.66982 2.120657,-2.56797 2.182495,-4.18169 C 38.903556,21.6571 38.926032,17.82461 38.6784,14.01451 38.609934,12.47205 38.055319,10.73538 36.494762,10.11382 34.51138,9.13075 32.202264,9.50823 30.063573,9.36171 22.019563,9.34057 13.971808,9.23982 5.930238,9.4697 4.247551,9.52117 2.061367,9.74531 1.291134,11.49417 c -0.682107,2.6627 -0.37748,5.45735 -0.46467,8.18069 0.080658,2.82901 -0.202804,5.71611 0.421771,8.49628 0.655233,1.84726 2.893842,2.0042 4.558802,2.11114 8.176545,0.4213 16.369453,0.15886 24.551012,0.03302 2.04628,-0.14679 4.225389,0.10711 6.163249,-0.66447 z M 4.297406,28.9474 c -0.939032,0.02717 -2.493051,-2.1182 -0.727168,-0.88447 1.706475,0.99084 3.797167,0.59334 5.679761,0.73138 0.843628,0.09701 3.276883,-0.14441 3.328971,0.24148 -2.712643,0.43249 -5.596207,0.56419 -8.281564,-0.08839 z m 31.24001,-17.1062 c -1.499147,-0.78086 -3.308903,-0.4003 -4.94344,-0.53994 -1.173066,-0.10336 -4.022293,-0.01807 -4.347208,-0.50636 2.904245,-0.07023 5.874879,-0.31161 8.734279,0.31742 0.913242,-0.14345 1.834744,2.01352 0.556369,0.72888 z"
         id="path49494"
         inkscape:connector-curvature="0" />
      <path
         style="font-style:normal;font-variant:normal;font-weight:normal;font-stretch:normal;font-size:4.33042192px;font-family:Insaniburger;-inkscape-font-specification:Insaniburger;opacity:1;vector-effect:none;fill:#000000;fill-opacity:1;stroke:none;stroke-width:0.05074713;stroke-linecap:butt;stroke-linejoin:miter;stroke-miterlimit:4;stroke-dasharray:none;stroke-dashoffset:0;stroke-opacity:1"
         d="M 5.9683372,27.045544 C 7.6542696,26.744307 6.5894957,24.598283 5.266961,25.10281 c -0.8367655,-0.05598 -0.4408831,1.047917 -0.5317189,1.592877 -0.2342978,0.651678 0.2945998,1.982712 0.8165646,0.948288 0.022718,-0.43569 -0.157731,-0.714231 0.4165305,-0.598431 z M 5.7868784,25.683895 c 1.0026702,0.406446 -0.6661246,1.170479 -0.2350717,0 0.078357,0 0.1567144,0 0.2350717,0 z m 2.07028,1.96008 c -0.5723212,1.060165 -1.0254865,-0.372456 -0.8165647,-1.02859 0.023329,-0.566986 -0.2295864,-1.865276 0.7144942,-1.42693 0.2213026,0.754765 0.046039,1.653827 0.1020705,2.45552 z m 1.6455015,-0.832601 c -0.1280226,-1.154226 -0.6471971,0.2747 0,0 z m -0.5979893,0.693834 c -0.6431874,1.292365 -1.1015182,-0.387033 -0.4512154,-1.011004 0.2226667,-0.596438 0.7719798,-2.08679 1.3337234,-0.935219 0.2652084,0.6814 0.6438924,1.322169 0.8331024,2.030784 -0.473367,1.141333 -0.8355287,-0.564548 -1.7156104,-0.08456 z M 12.478172,26.39941 c -0.292993,-0.711166 0.466801,-1.998474 0.816564,-0.834493 -0.06006,0.779929 0.125342,1.62659 -0.102071,2.362011 -0.740549,0.332494 -1.055735,-0.725748 -1.523517,-1.143981 0.07178,0.257715 -0.25819,2.050043 -0.873595,0.861028 0.06076,-0.81057 -0.126317,-1.688527 0.102071,-2.454435 0.719576,-0.390799 1.122929,0.817125 1.580548,1.20987 z m 3.940543,0.130094 c 0.0284,2.619932 -4.13678,1.358723 -2.716727,-0.872847 0.738976,-1.20069 2.824034,-0.643322 2.716727,0.872847 z m -0.977404,-0.544225 c -1.770186,-1.135991 -1.083722,2.618249 0.138672,0.841273 0.08735,-0.278996 0.05918,-0.618263 -0.138672,-0.841273 z m 4.348826,1.168676 c -0.01307,1.100271 -1.364306,0.938532 -2.071312,0.772973 -0.22138,-0.768199 -0.04606,-1.643341 -0.10207,-2.455519 0.292753,-0.651347 2.020555,-0.560056 2.07028,0.320897 -0.381894,0.839866 -0.136225,0.509952 0.103102,1.361649 z m -0.816564,-0.0477 c -0.398921,-1.101191 -0.974016,0.76504 -0.0732,0.23742 l 0.0549,-0.09893 z m -0.05774,-1.140489 c -0.638536,-1.103868 -0.61713,1.10846 0,0 z m 3.967349,0.563739 c 0.0284,2.619932 -4.13678,1.358723 -2.716727,-0.872847 0.738977,-1.20069 2.824034,-0.643322 2.716727,0.872847 z m -0.977403,-0.544225 c -1.770186,-1.135991 -1.083722,2.618249 0.138671,0.841273 0.08735,-0.278996 0.05918,-0.618263 -0.138671,-0.841273 z m 4.070451,0.544225 c 0.0284,2.619932 -4.136781,1.358723 -2.716727,-0.872847 0.738977,-1.20069 2.824034,-0.643322 2.716727,0.872847 z M 24.99883,25.985279 c -1.770186,-1.135991 -1.083723,2.618249 0.138672,0.841273 0.08735,-0.278996 0.05918,-0.618263 -0.138672,-0.841273 z m 2.264111,2.04464 c -1.137575,0.401567 -1.566761,-1.551392 -0.224761,-0.736656 1.376435,-0.252176 -1.911279,-0.900519 -0.499012,-2.016995 0.586958,-0.972835 2.516048,0.552896 1.008334,0.500861 -1.634481,0.003 1.4066,0.635968 0.57943,1.692845 -0.137211,0.361326 -0.507179,0.57093 -0.863991,0.559945 z m 2.635277,-2.246285 c -0.05404,0.709933 0.116475,1.481509 -0.10207,2.147631 -0.968814,0.437881 -0.676483,-0.918769 -0.714494,-1.49856 0.457639,-0.956981 -1.260886,-0.435742 -0.556749,-1.317021 0.671249,0.0018 1.39387,-0.113689 2.037287,0.06464 0.33435,0.580886 -0.275458,0.651682 -0.663974,0.60331 z m 2.319786,2.237612 c 1.082638,-0.737882 -0.800953,-0.443879 -0.581494,-1.063529 0.694479,0.21609 1.207455,-0.914079 0.1433,-0.753446 -0.72136,-0.655474 1.015377,-0.113707 0.735899,-0.916213 -0.393255,-0.279026 -1.505126,-0.409261 -1.695764,0.183351 0.06068,0.810968 -0.126198,1.689107 0.102071,2.455519 0.39188,0.183117 0.873274,0.05671 1.295988,0.09432 z m 2.235242,-1.244563 c 0.810169,0.447814 0.258379,1.859627 -0.390859,0.842224 -0.457445,-0.802564 -0.568124,-0.701529 -0.52958,0.190124 -0.864713,0.746992 -0.852821,-0.690621 -0.791048,-1.287154 0.01918,-0.571252 -0.21293,-1.628003 0.675067,-1.42774 1.006459,-0.247956 2.103059,0.791738 1.03642,1.682546 z m -0.894922,-1.092788 c -0.446529,1.182654 1.243128,0.403591 0.235072,0 -0.07836,0 -0.156714,0 -0.235072,0 z"
         id="text49550"
         inkscape:connector-curvature="0" />
      <g
         id="g53695"
         transform="matrix(0.23216083,0,0,0.26739887,-40.66702,-79.695953)">
        <path
           style="fill:#000000;fill-opacity:1;stroke-width:0.56041962"
           d="m 225.79653,381.36576 c -5.04874,-5.70045 -3.09798,-14.35633 -2.45039,-21.29598 2.14357,-8.89697 7.83465,-18.94365 17.6609,-20.54413 7.25222,-1.3964 13.14991,3.76259 20.06409,4.17152 6.86243,-0.25136 12.65893,-5.79643 19.79539,-4.07863 10.07438,0.99305 15.61039,11.35051 17.88548,20.14 0.72391,7.0246 2.71218,15.81255 -2.37779,21.60722 -6.22795,4.55619 -12.2931,-2.23293 -16.91721,-5.91504 -5.78798,-5.77763 -14.55245,-3.45633 -21.84303,-3.96964 -6.37158,-0.56289 -12.86431,0.86093 -17.22384,5.87987 -3.90129,3.36771 -9.44686,8.07986 -14.5936,4.00481 z"
           id="path53677"
           inkscape:connector-curvature="0" />
        <path
           style="fill:#ffffff;fill-opacity:1;stroke-width:0.56041962"
           d="m 277.9872,362.41501 c 5.58994,-5.40079 -8.06317,-7.57497 -4.77264,-0.67341 1.23932,1.3571 3.24548,2.00683 4.77264,0.67341 z"
           id="path53675"
           inkscape:connector-curvature="0" />
        <path
           style="fill:#ffffff;fill-opacity:1;stroke-width:0.56041962"
           d="m 247.09052,359.86347 c 0.27723,-3.25746 8.70112,-2.32963 4.12382,-6.78295 -5.26871,1.19244 -3.64993,-8.73224 -9.37797,-3.68051 1.20337,5.19333 -8.41269,2.02905 -5.05105,7.57352 3.38408,0.29645 5.45041,0.84964 5.40535,4.6496 1.57622,0.88603 5.19447,0.91959 4.89985,-1.75966 z"
           id="path53673"
           inkscape:connector-curvature="0" />
        <path
           style="fill:#fffffc;fill-opacity:1;stroke-width:0.56041962"
           d="m 288.72216,357.58638 c 4.50178,-7.79772 -11.51832,-3.99212 -3.56811,0.81562 1.22542,0.443 2.60725,-0.0116 3.56811,-0.81562 z"
           id="path53671"
           inkscape:connector-curvature="0" />
        <path
           style="fill:#f8ffff;fill-opacity:1;stroke-width:0.56041962"
           d="m 278.37813,352.42476 c 4.38079,-8.166 -11.41132,-4.0188 -3.58973,0.81533 1.23238,0.44154 2.62307,-0.004 3.58973,-0.81533 z"
           id="path53664"
           inkscape:connector-curvature="0" />
      </g>
    </g>
  </g>
</svg>
