<?xml version="1.0" encoding="UTF-8" standalone="no"?>
<!-- Created with Inkscape (http://www.inkscape.org/) -->

<svg
   xmlns:dc="http://purl.org/dc/elements/1.1/"
   xmlns:cc="http://creativecommons.org/ns#"
   xmlns:rdf="http://www.w3.org/1999/02/22-rdf-syntax-ns#"
   xmlns:svg="http://www.w3.org/2000/svg"
   xmlns="http://www.w3.org/2000/svg"
   xmlns:sodipodi="http://sodipodi.sourceforge.net/DTD/sodipodi-0.dtd"
   xmlns:inkscape="http://www.inkscape.org/namespaces/inkscape"
   width="150"
   height="150"
   viewBox="0 0 39.6875 39.6875"
   version="1.1"
   id="svg922"
   inkscape:version="0.92.4 (5da689c313, 2019-01-14)"
   sodipodi:docname="USO_games_abesamazingadventure.svg">
  <title
     id="title1437">USOICON</title>
  <defs
     id="defs916">
    <clipPath
       id="clipPath1521"
       clipPathUnits="userSpaceOnUse">
      <rect
         y="66.644836"
         x="57.114269"
         height="151.42299"
         width="172.87534"
         id="rect1523"
         style="opacity:0.875;fill:#000000;fill-opacity:1;stroke:#000000;stroke-width:0.60403091;stroke-linejoin:round;stroke-miterlimit:4;stroke-dasharray:none;stroke-opacity:1" />
    </clipPath>
  </defs>
  <sodipodi:namedview
     id="base"
     pagecolor="#ffffff"
     bordercolor="#666666"
     borderopacity="1.0"
     inkscape:pageopacity="0.0"
     inkscape:pageshadow="2"
     inkscape:zoom="1.8758286"
     inkscape:cx="86.754605"
     inkscape:cy="83.917951"
     inkscape:document-units="px"
     inkscape:current-layer="layer7"
     showgrid="false"
     inkscape:window-width="1249"
     inkscape:window-height="774"
     inkscape:window-x="2480"
     inkscape:window-y="90"
     inkscape:window-maximized="0"
     units="px" />
  <metadata
     id="metadata919">
    <rdf:RDF>
      <cc:Work
         rdf:about="">
        <dc:format>image/svg+xml</dc:format>
        <dc:type
           rdf:resource="http://purl.org/dc/dcmitype/StillImage" />
        <dc:title>USOICON</dc:title>
        <cc:license
           rdf:resource="http://creativecommons.org/licenses/by-sa/4.0/" />
      </cc:Work>
      <cc:License
         rdf:about="http://creativecommons.org/licenses/by-sa/4.0/">
        <cc:permits
           rdf:resource="http://creativecommons.org/ns#Reproduction" />
        <cc:permits
           rdf:resource="http://creativecommons.org/ns#Distribution" />
        <cc:requires
           rdf:resource="http://creativecommons.org/ns#Notice" />
        <cc:requires
           rdf:resource="http://creativecommons.org/ns#Attribution" />
        <cc:permits
           rdf:resource="http://creativecommons.org/ns#DerivativeWorks" />
        <cc:requires
           rdf:resource="http://creativecommons.org/ns#ShareAlike" />
      </cc:License>
    </rdf:RDF>
  </metadata>
  <g
     style="display:inline"
     transform="translate(-35.46637,-112.59198)"
     id="layer1"
     inkscape:groupmode="layer"
     inkscape:label="toonbox" />
  <g
     inkscape:label="text"
     id="layer3"
     inkscape:groupmode="layer" />
  <g
     style="display:inline"
     inkscape:label="icon_games"
     id="layer7"
     inkscape:groupmode="layer">
    <g
       id="g9075">
      <path
         style="display:inline;opacity:0.875;fill:#999999;fill-opacity:1;stroke:none;stroke-width:0.11845408;stroke-linejoin:round;stroke-miterlimit:4;stroke-dasharray:none;stroke-opacity:0.97175137"
         d="M 1.435191,10.12791 C 2.670256,9.29705 4.324329,9.43582 5.75553,9.20511 14.11545,8.61268 22.517162,8.68995 30.881762,9.1576 c 2.392119,0.20608 4.838324,0.26932 7.150425,0.97031 0.872353,1.67498 0.817461,3.66984 1.026746,5.51683 0.208491,4.02511 0.362445,8.13136 -0.532305,12.08777 -0.230317,1.64927 -2.017724,2.0517 -3.40708,2.25864 C 28.802681,30.85612 22.40423,30.81147 16.04062,30.81293 11.303807,30.71862 6.537542,30.74635 1.839737,30.07418 0.173005,29.52829 0.822947,27.03924 0.434179,25.65651 0.154966,21.09087 0.021365,16.47217 0.692557,11.93449 0.848231,11.32021 0.903907,10.54918 1.435191,10.12791 Z"
         id="rect49496"
         inkscape:connector-curvature="0" />
      <path
         style="display:inline;fill:#000000;stroke-width:0.37203047"
         d="M 1.803349,30.70864 C 0.056742,30.0892 0.231437,27.93756 0.087588,26.427 -0.022935,21.93179 -0.070132,17.42779 0.099217,12.93387 -0.027874,11.27811 1.27784,10.0868 2.683582,9.49431 4.615709,8.56731 6.836395,8.9315 8.909365,8.7639 16.59615,8.63948 24.285544,8.62691 31.972812,8.67993 c 2.150882,0.14121 4.537543,-0.0199 6.403551,1.23592 1.58486,1.37874 1.255708,3.71898 1.302004,5.60595 -0.178243,4.07095 0.01584,8.16305 -0.388876,12.21995 -0.293352,1.71142 -2.120394,2.65314 -3.654582,3.02944 -6.368162,0.39372 -12.757085,0.28816 -19.135233,0.3134 C 11.668868,31.0283 6.826658,31.10952 2.006621,30.75364 L 1.803349,30.7086 Z m 34.717949,-1.05781 c 1.660436,-0.66982 2.120657,-2.56797 2.182495,-4.18169 C 38.903556,21.6571 38.926032,17.82461 38.6784,14.01451 38.609934,12.47205 38.055319,10.73538 36.494762,10.11382 34.51138,9.13075 32.202264,9.50823 30.063573,9.36171 22.019563,9.34057 13.971808,9.23982 5.930238,9.4697 4.247551,9.52117 2.061367,9.74531 1.291134,11.49417 c -0.682107,2.6627 -0.37748,5.45735 -0.46467,8.18069 0.080658,2.82901 -0.202804,5.71611 0.421771,8.49628 0.655233,1.84726 2.893842,2.0042 4.558802,2.11114 8.176545,0.4213 16.369453,0.15886 24.551012,0.03302 2.04628,-0.14679 4.225389,0.10711 6.163249,-0.66447 z M 4.297406,28.9474 c -0.939032,0.02717 -2.493051,-2.1182 -0.727168,-0.88447 1.706475,0.99084 3.797167,0.59334 5.679761,0.73138 0.843628,0.09701 3.276883,-0.14441 3.328971,0.24148 -2.712643,0.43249 -5.596207,0.56419 -8.281564,-0.08839 z m 31.24001,-17.1062 c -1.499147,-0.78086 -3.308903,-0.4003 -4.94344,-0.53994 -1.173066,-0.10336 -4.022293,-0.01807 -4.347208,-0.50636 2.904245,-0.07023 5.874879,-0.31161 8.734279,0.31742 0.913242,-0.14345 1.834744,2.01352 0.556369,0.72888 z"
         id="path49494"
         inkscape:connector-curvature="0" />
      <path
         style="font-style:normal;font-variant:normal;font-weight:normal;font-stretch:normal;font-size:3.11242986px;font-family:Insaniburger;-inkscape-font-specification:Insaniburger;opacity:1;vector-effect:none;fill:#000000;fill-opacity:1;stroke:none;stroke-width:0.03647379;stroke-linecap:butt;stroke-linejoin:miter;stroke-miterlimit:4;stroke-dasharray:none;stroke-dashoffset:0;stroke-opacity:1"
         d="m 4.9104838,27.044393 c -0.020259,-0.910706 -0.4347513,0.184644 0,0 z m -0.3806867,0.563015 c -0.624961,1.136227 -0.5580434,-0.680796 -0.1624779,-1.186503 0.1829997,-1.180419 0.8621651,-0.544888 0.9727736,0.332834 0.4970433,0.933728 0.070622,1.518189 -0.5110099,0.853669 -0.099762,0 -0.1995239,0 -0.2992858,0 z m 2.5873576,-0.285026 c 0.061672,0.933242 -1.6293234,1.082241 -1.3835997,-0.02466 0.069869,-0.602469 -0.2640558,-1.819465 0.4962183,-1.646794 1.2985321,-0.205396 0.4400119,0.945294 0.8873814,1.67145 z m -0.5198344,-0.03871 c -0.4665245,-1.02412 -0.423073,1.000281 0,0 z m -0.036756,-0.925455 c -0.4157172,-0.916661 -0.3812761,0.899178 0,0 z m 1.5581905,1.66793 c 0.5689405,-0.514399 -1.098623,-0.809273 0.09911,-0.981756 0.1542344,-0.48859 -1.0491246,-0.749124 -0.09911,-0.833965 0.7005209,-0.700843 -1.2730308,-0.93788 -0.8900195,0.168927 0.069869,0.602469 -0.2640558,1.819466 0.4962183,1.646794 0.1312671,0 0.2625341,0 0.3938012,0 z M 8.863063,25.756498 c -0.8856411,-0.517373 -0.0012,1.761773 0.046601,0.117442 z m 0.8703285,2.276689 c -0.9066899,0.176801 -0.844201,-1.245053 0.00919,-0.573571 0.3552747,-0.41248 -1.4333022,-1.065632 -0.2924065,-1.8166 0.8616382,-0.45023 1.1255752,1.050888 0.127005,0.526506 0.2991405,0.455511 1.4938492,1.396733 0.1562127,1.863665 z m 2.2723065,-0.988794 c -0.02026,-0.910706 -0.434751,0.184644 0,0 z m -0.380687,0.563015 c -0.62496,1.136227 -0.558043,-0.680796 -0.162478,-1.186503 0.183001,-1.180419 0.862165,-0.544888 0.972774,0.332834 0.497044,0.933728 0.07062,1.518189 -0.511009,0.853669 -0.09976,0 -0.199524,0 -0.299287,0 z m 2.07015,-1.224556 c 0.256096,-0.858352 1.095348,-0.881786 0.86639,0.207645 0.213797,0.681294 -0.274567,2.165695 -0.519835,0.918371 0.143949,-1.388497 -0.230265,0.140817 -0.551599,-0.535259 -0.278711,-0.600849 0.03548,2.030545 -0.661347,0.746401 0.03891,-0.658731 -0.08068,-1.372453 0.06498,-1.995181 0.393348,-0.302269 0.574681,0.380453 0.801412,0.658023 z m 1.913935,0.661541 c -0.02026,-0.910706 -0.434751,0.184644 0,0 z m -0.380687,0.563015 c -0.62496,1.136227 -0.558043,-0.680796 -0.162478,-1.186503 0.183001,-1.180419 0.862165,-0.544888 0.972774,0.332834 0.497044,0.933728 0.07062,1.518189 -0.511009,0.853669 -0.09976,0 -0.199524,0 -0.299287,0 z m 1.879805,-1.400498 c -0.893167,0.257597 -0.685511,-0.884076 0.107677,-0.555978 0.934733,-0.227149 0.393486,1.027268 0.04288,1.54759 -0.414367,0.394806 1.241702,0.344602 0.211742,0.827627 -0.603805,0.169732 -1.459417,-0.120074 -0.77577,-1.022316 0.137823,-0.265641 0.275646,-0.531282 0.413469,-0.796923 z m 1.324528,1.5131 c -0.622031,0.916327 -0.545787,-0.791003 -0.519835,-1.372421 -0.03317,-1.287304 0.820793,-0.306662 0.519835,0.559621 0,0.270933 0,0.541867 0,0.8128 z m 1.202445,-1.009906 c -0.306158,-1.005293 0.710613,-1.419195 0.519834,-0.225178 0.04516,0.597054 0.0793,2.131725 -0.589718,1.245908 -0.386608,-0.747903 -0.561811,-0.882686 -0.4977,0.123112 -0.76281,0.561527 -0.437016,-1.027956 -0.50359,-1.611929 0.0049,-1.487784 0.837556,0.09051 1.071174,0.468087 z m 2.093777,-0.140754 c -0.735116,-0.133843 -0.497576,0.411644 -0.358698,0.799656 -1.176922,0.03987 -0.29849,-1.770835 0.478155,-1.100516 -0.250361,-1.912255 -2.595797,0.463309 -1.177831,1.587765 0.75733,0.765299 1.760712,-0.476086 1.058374,-1.286905 z m 1.899496,0.475043 c -0.02026,-0.910706 -0.434752,0.184644 0,0 z m -0.380687,0.563015 c -0.624961,1.136227 -0.558043,-0.680796 -0.162478,-1.186503 0.182999,-1.180419 0.862165,-0.544888 0.972774,0.332834 0.497043,0.933728 0.07062,1.518189 -0.51101,0.853669 -0.09976,0 -0.199524,0 -0.299286,0 z m 1.991387,0.418741 c -0.691277,0.251392 -0.918641,-0.444909 -0.787628,-1.256277 -0.22057,-0.956759 0.364397,-1.36474 0.987981,-1.05362 0.707412,0.405361 0.62029,2.201 -0.200353,2.309897 z m 0.19822,-1.208721 c -0.342503,-1.510887 -0.604846,-0.0786 -0.466013,0.684488 0.234433,0.202281 0.535769,-0.346756 0.466013,-0.684488 z m 1.400663,1.215759 c -0.445114,-0.371878 -0.514521,-1.241609 -0.787628,-1.836834 0.10255,-1.723337 0.773382,1.057105 0.88541,0.330991 0.149719,-1.229672 1.084978,-0.791014 0.49008,0.244693 -0.195306,0.405349 -0.229642,1.074158 -0.587862,1.26115 z m 1.825985,-0.007 c 0.568941,-0.514399 -1.098623,-0.809273 0.09911,-0.981756 0.154234,-0.48859 -1.049125,-0.749124 -0.09911,-0.833965 0.700521,-0.700843 -1.273031,-0.93788 -0.89002,0.168927 0.06987,0.602469 -0.264056,1.819466 0.496219,1.646794 0.131267,0 0.262534,0 0.393801,0 z m 1.404603,-1.316045 c -0.306157,-1.005293 0.710614,-1.419195 0.519835,-0.225178 0.04516,0.597054 0.0793,2.131725 -0.589718,1.245908 -0.386609,-0.747903 -0.561812,-0.882686 -0.497701,0.123112 -0.76281,0.561527 -0.437016,-1.027956 -0.50359,-1.611929 0.0049,-1.487784 0.837556,0.09051 1.071174,0.468087 z m 1.623826,-0.499676 c -0.103178,0.591501 0.307726,2.000316 -0.454854,1.742706 -0.244859,-0.472435 0.177003,-1.584184 -0.222514,-1.742706 -0.832329,-0.54059 0.505913,-0.656295 0.918963,-0.559496 0.535174,0.146024 0.08474,0.724289 -0.241595,0.559496 z m 1.983508,1.171774 c -0.54157,1.561397 -1.763544,0.125773 -1.396727,-1.16128 0.132803,-1.257122 0.775315,0.05365 0.519835,0.791858 0.233535,1.164628 0.484122,-0.45054 0.357058,-0.999475 0.5102,-1.033307 0.604858,0.62243 0.519834,1.210617 v 0.105572 z m 1.220826,-0.365959 c 0.710207,0.804857 -0.226104,1.350242 -0.477517,0.274108 4.53e-4,-0.244058 -0.343259,1.564339 -0.612035,0.324089 0.109608,-0.624299 -0.255651,-1.684502 0.259918,-1.963508 0.64199,-0.200652 1.598471,0.438333 0.829634,1.365311 z m -0.569717,-0.886748 c -0.246819,1.278406 0.949108,-0.0045 0,0 z m 1.888993,1.896654 c 0.568939,-0.514399 -1.098623,-0.809273 0.09911,-0.981756 0.154235,-0.48859 -1.049124,-0.749124 -0.09911,-0.833965 0.700521,-0.700843 -1.273031,-0.93788 -0.89002,0.168927 0.06987,0.602469 -0.264056,1.819466 0.496218,1.646794 0.131267,0 0.262534,0 0.393802,0 z"
         id="text49550"
         inkscape:connector-curvature="0" />
      <g
         id="g53695"
         transform="matrix(0.23216083,0,0,0.26739887,-40.66702,-79.695953)">
        <path
           style="fill:#000000;fill-opacity:1;stroke-width:0.56041962"
           d="m 225.79653,381.36576 c -5.04874,-5.70045 -3.09798,-14.35633 -2.45039,-21.29598 2.14357,-8.89697 7.83465,-18.94365 17.6609,-20.54413 7.25222,-1.3964 13.14991,3.76259 20.06409,4.17152 6.86243,-0.25136 12.65893,-5.79643 19.79539,-4.07863 10.07438,0.99305 15.61039,11.35051 17.88548,20.14 0.72391,7.0246 2.71218,15.81255 -2.37779,21.60722 -6.22795,4.55619 -12.2931,-2.23293 -16.91721,-5.91504 -5.78798,-5.77763 -14.55245,-3.45633 -21.84303,-3.96964 -6.37158,-0.56289 -12.86431,0.86093 -17.22384,5.87987 -3.90129,3.36771 -9.44686,8.07986 -14.5936,4.00481 z"
           id="path53677"
           inkscape:connector-curvature="0" />
        <path
           style="fill:#ffffff;fill-opacity:1;stroke-width:0.56041962"
           d="m 277.9872,362.41501 c 5.58994,-5.40079 -8.06317,-7.57497 -4.77264,-0.67341 1.23932,1.3571 3.24548,2.00683 4.77264,0.67341 z"
           id="path53675"
           inkscape:connector-curvature="0" />
        <path
           style="fill:#ffffff;fill-opacity:1;stroke-width:0.56041962"
           d="m 247.09052,359.86347 c 0.27723,-3.25746 8.70112,-2.32963 4.12382,-6.78295 -5.26871,1.19244 -3.64993,-8.73224 -9.37797,-3.68051 1.20337,5.19333 -8.41269,2.02905 -5.05105,7.57352 3.38408,0.29645 5.45041,0.84964 5.40535,4.6496 1.57622,0.88603 5.19447,0.91959 4.89985,-1.75966 z"
           id="path53673"
           inkscape:connector-curvature="0" />
        <path
           style="fill:#fffffc;fill-opacity:1;stroke-width:0.56041962"
           d="m 288.72216,357.58638 c 4.50178,-7.79772 -11.51832,-3.99212 -3.56811,0.81562 1.22542,0.443 2.60725,-0.0116 3.56811,-0.81562 z"
           id="path53671"
           inkscape:connector-curvature="0" />
        <path
           style="fill:#f8ffff;fill-opacity:1;stroke-width:0.56041962"
           d="m 278.37813,352.42476 c 4.38079,-8.166 -11.41132,-4.0188 -3.58973,0.81533 1.23238,0.44154 2.62307,-0.004 3.58973,-0.81533 z"
           id="path53664"
           inkscape:connector-curvature="0" />
      </g>
    </g>
  </g>
</svg>
