<?xml version="1.0" encoding="UTF-8" standalone="no"?>
<!-- Created with Inkscape (http://www.inkscape.org/) -->

<svg
   xmlns:dc="http://purl.org/dc/elements/1.1/"
   xmlns:cc="http://creativecommons.org/ns#"
   xmlns:rdf="http://www.w3.org/1999/02/22-rdf-syntax-ns#"
   xmlns:svg="http://www.w3.org/2000/svg"
   xmlns="http://www.w3.org/2000/svg"
   xmlns:sodipodi="http://sodipodi.sourceforge.net/DTD/sodipodi-0.dtd"
   xmlns:inkscape="http://www.inkscape.org/namespaces/inkscape"
   width="150"
   height="150"
   viewBox="0 0 39.6875 39.6875"
   version="1.1"
   id="svg922"
   inkscape:version="0.92.4 (5da689c313, 2019-01-14)"
   sodipodi:docname="USO_multimedia_sonicvisualiser.svg">
  <title
     id="title1437">USOICON</title>
  <defs
     id="defs916">
    <clipPath
       id="clipPath1521"
       clipPathUnits="userSpaceOnUse">
      <rect
         y="66.644836"
         x="57.114269"
         height="151.42299"
         width="172.87534"
         id="rect1523"
         style="opacity:0.875;fill:#000000;fill-opacity:1;stroke:#000000;stroke-width:0.60403091;stroke-linejoin:round;stroke-miterlimit:4;stroke-dasharray:none;stroke-opacity:1" />
    </clipPath>
  </defs>
  <sodipodi:namedview
     id="base"
     pagecolor="#ffffff"
     bordercolor="#666666"
     borderopacity="1.0"
     inkscape:pageopacity="0.0"
     inkscape:pageshadow="2"
     inkscape:zoom="1.70173"
     inkscape:cx="67.387323"
     inkscape:cy="94.001349"
     inkscape:document-units="px"
     inkscape:current-layer="layer15"
     showgrid="false"
     inkscape:window-width="880"
     inkscape:window-height="551"
     inkscape:window-x="3024"
     inkscape:window-y="176"
     inkscape:window-maximized="0"
     units="px" />
  <metadata
     id="metadata919">
    <rdf:RDF>
      <cc:Work
         rdf:about="">
        <dc:format>image/svg+xml</dc:format>
        <dc:type
           rdf:resource="http://purl.org/dc/dcmitype/StillImage" />
        <dc:title>USOICON</dc:title>
        <cc:license
           rdf:resource="http://creativecommons.org/licenses/by-sa/4.0/" />
      </cc:Work>
      <cc:License
         rdf:about="http://creativecommons.org/licenses/by-sa/4.0/">
        <cc:permits
           rdf:resource="http://creativecommons.org/ns#Reproduction" />
        <cc:permits
           rdf:resource="http://creativecommons.org/ns#Distribution" />
        <cc:requires
           rdf:resource="http://creativecommons.org/ns#Notice" />
        <cc:requires
           rdf:resource="http://creativecommons.org/ns#Attribution" />
        <cc:permits
           rdf:resource="http://creativecommons.org/ns#DerivativeWorks" />
        <cc:requires
           rdf:resource="http://creativecommons.org/ns#ShareAlike" />
      </cc:License>
    </rdf:RDF>
  </metadata>
  <g
     style="display:inline"
     transform="translate(-35.46637,-112.59198)"
     id="layer1"
     inkscape:groupmode="layer"
     inkscape:label="toonbox" />
  <g
     inkscape:label="text"
     id="layer3"
     inkscape:groupmode="layer" />
  <g
     style="display:inline"
     inkscape:label="icon_multimedia"
     id="layer15"
     inkscape:groupmode="layer">
    <g
       id="g5971">
      <path
         style="display:inline;opacity:0.875;fill:#999999;fill-opacity:1;stroke:none;stroke-width:0.11845408;stroke-linejoin:round;stroke-miterlimit:4;stroke-dasharray:none;stroke-opacity:0.97175137"
         d="M 1.435191,10.12791 C 2.670256,9.29705 4.324329,9.43582 5.75553,9.20511 14.11545,8.61268 22.517162,8.68995 30.881762,9.1576 c 2.392119,0.20608 4.838324,0.26932 7.150425,0.97031 0.872353,1.67498 0.817461,3.66984 1.026746,5.51683 0.208491,4.02511 0.362445,8.13136 -0.532305,12.08777 -0.230317,1.64927 -2.017724,2.0517 -3.40708,2.25864 C 28.802681,30.85612 22.40423,30.81147 16.04062,30.81293 11.303807,30.71862 6.537542,30.74635 1.839737,30.07418 0.173005,29.52829 0.822947,27.03924 0.434179,25.65651 0.154966,21.09087 0.021365,16.47217 0.692557,11.93449 0.848231,11.32021 0.903907,10.54918 1.435191,10.12791 Z"
         id="rect49496"
         inkscape:connector-curvature="0" />
      <path
         style="display:inline;fill:#000000;stroke-width:0.37203047"
         d="M 1.803349,30.70864 C 0.056742,30.0892 0.231437,27.93756 0.087588,26.427 -0.022935,21.93179 -0.070132,17.42779 0.099217,12.93387 -0.027874,11.27811 1.27784,10.0868 2.683582,9.49431 4.615709,8.56731 6.836395,8.9315 8.909365,8.7639 16.59615,8.63948 24.285544,8.62691 31.972812,8.67993 c 2.150882,0.14121 4.537543,-0.0199 6.403551,1.23592 1.58486,1.37874 1.255708,3.71898 1.302004,5.60595 -0.178243,4.07095 0.01584,8.16305 -0.388876,12.21995 -0.293352,1.71142 -2.120394,2.65314 -3.654582,3.02944 -6.368162,0.39372 -12.757085,0.28816 -19.135233,0.3134 C 11.668868,31.0283 6.826658,31.10952 2.006621,30.75364 L 1.803349,30.7086 Z m 34.717949,-1.05781 c 1.660436,-0.66982 2.120657,-2.56797 2.182495,-4.18169 C 38.903556,21.6571 38.926032,17.82461 38.6784,14.01451 38.609934,12.47205 38.055319,10.73538 36.494762,10.11382 34.51138,9.13075 32.202264,9.50823 30.063573,9.36171 22.019563,9.34057 13.971808,9.23982 5.930238,9.4697 4.247551,9.52117 2.061367,9.74531 1.291134,11.49417 c -0.682107,2.6627 -0.37748,5.45735 -0.46467,8.18069 0.080658,2.82901 -0.202804,5.71611 0.421771,8.49628 0.655233,1.84726 2.893842,2.0042 4.558802,2.11114 8.176545,0.4213 16.369453,0.15886 24.551012,0.03302 2.04628,-0.14679 4.225389,0.10711 6.163249,-0.66447 z M 4.297406,28.9474 c -0.939032,0.02717 -2.493051,-2.1182 -0.727168,-0.88447 1.706475,0.99084 3.797167,0.59334 5.679761,0.73138 0.843628,0.09701 3.276883,-0.14441 3.328971,0.24148 -2.712643,0.43249 -5.596207,0.56419 -8.281564,-0.08839 z m 31.24001,-17.1062 c -1.499147,-0.78086 -3.308903,-0.4003 -4.94344,-0.53994 -1.173066,-0.10336 -4.022293,-0.01807 -4.347208,-0.50636 2.904245,-0.07023 5.874879,-0.31161 8.734279,0.31742 0.913242,-0.14345 1.834744,2.01352 0.556369,0.72888 z"
         id="path49494"
         inkscape:connector-curvature="0" />
      <path
         style="font-style:normal;font-variant:normal;font-weight:normal;font-stretch:normal;font-size:4.817307px;font-family:Insaniburger;-inkscape-font-specification:Insaniburger;opacity:1;vector-effect:none;fill:#000000;fill-opacity:1;stroke:none;stroke-width:0.05645281;stroke-linecap:butt;stroke-linejoin:miter;stroke-miterlimit:4;stroke-dasharray:none;stroke-dashoffset:0;stroke-opacity:1"
         d="M 4.7652156,28.025944 C 3.9138571,28.555872 3.0526361,26.46745 4.2565421,27.010629 5.7487919,27.341434 4.3381404,26.362889 3.8516796,25.931357 2.9997005,24.114664 6.2824775,23.767278 5.416629,25.354081 4.7790655,24.826666 4.0088769,25.521359 5.0413526,25.838087 c 1.0651292,0.240525 0.7455773,2.298942 -0.276137,2.187857 z M 8.8179934,26.181855 C 8.8465873,29.40189 4.6527529,27.851798 6.082576,25.109079 6.8266363,23.633367 8.9260391,24.318403 8.8179934,26.181855 Z M 7.833866,25.512974 c -1.4676826,-1.391741 -1.4727044,2.725651 -0.00208,1.332433 0.2545095,-0.357574 0.2541864,-0.973191 0.00208,-1.332433 z m 2.8548,0.508989 c -0.107041,-0.707517 0.02957,-2.228501 0.796489,-1.343427 0.042,1.019381 0.04275,2.056553 0,3.075924 C 10.878854,28.537932 10.40824,27.1946 10.013246,26.705772 9.5270397,25.943388 10.122,27.880061 9.5854151,27.986304 8.6989489,28.194479 9.0723823,26.773957 8.9944716,26.105247 c -0.088536,-0.746804 -0.00269,-2.366053 0.8406784,-1.38985 0.284505,0.435522 0.569011,0.871043 0.853516,1.306566 z m 1.851986,1.529634 c -0.513758,1.262008 -1.045097,-0.335364 -0.822181,-1.136418 0.106604,-0.655717 -0.296816,-1.854393 0.41109,-1.997467 0.709739,0.146515 0.30336,1.353317 0.411091,2.013349 0,0.373512 0,0.747024 0,1.120536 z m 2.780057,-0.181211 c -1.189774,2.267627 -3.90351,-1.22594 -1.965789,-2.766966 0.567524,-1.027953 2.845214,0.338956 1.492411,0.850926 -1.408633,-1.258553 -1.814164,2.372306 -0.224231,1.537629 0.284636,-0.216886 0.698395,-0.133571 0.697609,0.378411 z m 1.484495,0.655558 c -0.590165,-0.359035 -0.662042,-1.383157 -0.990539,-2.068489 -0.722859,-1.003976 0.281074,-2.299151 0.655778,-0.71307 0.212527,0.864335 0.424266,1.083875 0.634525,0.09101 0.286059,-1.558616 1.453811,-0.563897 0.706785,0.565675 -0.269277,0.671629 -0.441232,1.416908 -0.787508,2.030267 z m 2.302527,-0.474347 c -0.513759,1.262008 -1.045098,-0.335364 -0.822182,-1.136418 0.106604,-0.655717 -0.296816,-1.854393 0.41109,-1.997467 0.709739,0.146515 0.30336,1.353317 0.411092,2.013349 0,0.373512 0,0.747024 0,1.120536 z m 1.326703,0.474347 c -0.851359,0.529928 -1.712579,-1.558494 -0.508674,-1.015315 1.49225,0.330805 0.0816,-0.64774 -0.404863,-1.079272 -0.851979,-1.816693 2.430798,-2.164079 1.56495,-0.577276 -0.637563,-0.527415 -1.407752,0.167278 -0.375277,0.484006 1.06513,0.240525 0.745578,2.298942 -0.276136,2.187857 z m 3.324025,-0.986001 c -0.09518,1.500637 -2.447916,1.303207 -2.209097,-0.309933 0.04988,-0.726071 -0.11067,-1.52358 0.102773,-2.196376 0.924186,-0.542448 0.704535,1.002653 0.71941,1.690806 -0.289935,1.090285 0.830548,1.172659 0.564731,0.04108 0.07002,-0.654978 -0.282109,-2.033249 0.590944,-1.818824 0.44433,0.471933 0.142359,1.407487 0.231239,2.08768 0,0.168524 0,0.337047 0,0.505571 z m 1.656823,-0.511655 c -0.130969,-1.500895 -0.654588,0.42328 0,0 z m -0.602103,0.852758 c -0.550856,1.519804 -1.183434,-0.270631 -0.525361,-1.042949 0.311885,-0.637579 0.36282,-1.631135 0.946832,-1.920385 0.602237,0.331232 0.666339,1.372741 0.996768,2.0525 0.673074,0.934326 -0.142862,2.208194 -0.651633,0.910834 -0.255536,0 -0.51107,0 -0.766606,0 z m 3.3697,0.634238 c -0.486265,-0.118586 -1.42044,0.35973 -1.465809,-0.566997 0.05577,-0.964005 -0.119297,-2.004625 0.102773,-2.914653 0.924186,-0.542448 0.704534,1.002653 0.719409,1.690806 -0.159201,0.85834 0.122233,1.090563 0.756262,0.969898 0.228953,0.153232 0.203067,0.842969 -0.112635,0.820946 z m 1.287257,-0.463687 c -0.513758,1.262008 -1.045098,-0.335364 -0.822183,-1.136418 0.106606,-0.655717 -0.296815,-1.854393 0.411092,-1.997467 0.709738,0.146515 0.303358,1.353317 0.411091,2.013349 0,0.373512 0,0.747024 0,1.120536 z m 1.326702,0.474347 c -0.851357,0.529928 -1.712579,-1.558494 -0.508673,-1.015315 1.49225,0.330805 0.0816,-0.64774 -0.404862,-1.079272 -0.85198,-1.816693 2.430797,-2.164079 1.564949,-0.577276 -0.637564,-0.527415 -1.407752,0.167278 -0.375276,0.484006 1.065129,0.240525 0.745577,2.298942 -0.276138,2.187857 z m 2.522607,-0.01066 c 1.040288,-0.800303 -0.62046,-0.660264 -0.585494,-1.15736 0.101256,-0.267717 1.461627,-0.444672 0.502446,-1.075799 -0.651276,0.342248 -0.690017,-0.846597 -0.0195,-0.516985 0.980996,-0.272875 -0.03438,-1.190516 -0.62186,-0.847428 -0.815717,-0.242309 -0.700579,0.914375 -0.683263,1.600106 0.106605,0.655717 -0.296816,1.854393 0.411091,1.997466 0.332195,0 0.66439,0 0.996584,0 z m 2.25062,-1.529634 c 0.719945,0.478831 0.402235,2.211369 -0.329029,1.145726 -0.299789,-0.506412 -0.710911,-1.442056 -0.57205,-0.257329 -0.160151,1.390011 -1.154853,0.168053 -0.822183,-0.752246 0.04896,-0.690209 -0.109306,-1.451134 0.102773,-2.088167 0.602793,-0.139828 1.498014,-0.368741 1.911418,0.397565 0.248359,0.49791 0.132661,1.275 -0.290929,1.554451 z m -0.901079,-1.343093 c -0.424851,1.421066 1.239234,0.513163 0.236689,0 -0.0789,0 -0.157793,0 -0.236689,0 z"
         id="text49550"
         inkscape:connector-curvature="0" />
      <path
         style="fill:#000000;stroke-width:0.14142624"
         d="m 21.511669,23.32761 c -1.866944,-1.066301 0.310761,-3.390853 1.902313,-2.968101 1.612914,-1.039568 0.560694,-3.411784 0.901347,-5.029124 0.141004,-1.140796 -0.482669,-3.917241 1.408264,-2.61746 2.407805,1.06011 3.369993,4.636887 1.535967,6.605384 -0.500464,0.304863 -0.0539,-1.732809 -0.651348,-2.264473 -0.421606,-1.210102 -1.875719,-1.252003 -1.514582,0.208041 -0.09476,1.728579 0.09371,3.495994 -0.372652,5.185703 -0.703572,0.975334 -2.112236,1.226595 -3.209309,0.88003 z m -4.137314,-1.72927 c -3.702692,-0.914497 -5.408714,-6.018206 -2.903919,-8.934591 2.092249,-2.6972316 6.694078,-3.0393499 8.956831,-0.380283 1.065516,1.597372 -2.180419,2.145554 -1.833871,3.120415 1.059994,-0.295907 2.724492,-0.628934 1.94508,1.10994 0.219975,1.435547 0.516651,3.613523 -1.599625,3.46158 -1.201264,0.987176 -2.394499,2.449555 -4.151904,1.728675 l -0.20748,-0.04862 z M 16.92972,18.77402 c 1.396491,-0.833764 -0.309475,-2.213853 -1.269791,-1.288526 -2.065466,0.369264 0.490466,3.394836 1.269791,1.288526 z m 3.186375,-1.72134 c 1.85281,-1.662192 -2.280726,-3.503965 -2.379519,-0.997157 -0.109361,1.186614 1.620466,2.022295 2.379519,0.997157 z M 17.960039,14.3131 c 1.586398,-1.058588 -0.419159,-3.86946 -1.763309,-2.064828 -1.874561,0.885216 0.854202,3.096441 1.763309,2.064828 z"
         id="path53394"
         inkscape:connector-curvature="0" />
    </g>
  </g>
</svg>
