<?xml version="1.0" encoding="UTF-8" standalone="no"?>
<!-- Created with Inkscape (http://www.inkscape.org/) -->

<svg
   xmlns:dc="http://purl.org/dc/elements/1.1/"
   xmlns:cc="http://creativecommons.org/ns#"
   xmlns:rdf="http://www.w3.org/1999/02/22-rdf-syntax-ns#"
   xmlns:svg="http://www.w3.org/2000/svg"
   xmlns="http://www.w3.org/2000/svg"
   xmlns:sodipodi="http://sodipodi.sourceforge.net/DTD/sodipodi-0.dtd"
   xmlns:inkscape="http://www.inkscape.org/namespaces/inkscape"
   width="150"
   height="150"
   viewBox="0 0 39.6875 39.6875"
   version="1.1"
   id="svg922"
   inkscape:version="0.92.4 (5da689c313, 2019-01-14)"
   sodipodi:docname="USO_games_eattheehistle.svg">
  <title
     id="title1437">USOICON</title>
  <defs
     id="defs916">
    <clipPath
       id="clipPath1521"
       clipPathUnits="userSpaceOnUse">
      <rect
         y="66.644836"
         x="57.114269"
         height="151.42299"
         width="172.87534"
         id="rect1523"
         style="opacity:0.875;fill:#000000;fill-opacity:1;stroke:#000000;stroke-width:0.60403091;stroke-linejoin:round;stroke-miterlimit:4;stroke-dasharray:none;stroke-opacity:1" />
    </clipPath>
  </defs>
  <sodipodi:namedview
     id="base"
     pagecolor="#ffffff"
     bordercolor="#666666"
     borderopacity="1.0"
     inkscape:pageopacity="0.0"
     inkscape:pageshadow="2"
     inkscape:zoom="1.8765945"
     inkscape:cx="81.167032"
     inkscape:cy="70.3125"
     inkscape:document-units="px"
     inkscape:current-layer="layer7"
     showgrid="false"
     inkscape:window-width="894"
     inkscape:window-height="597"
     inkscape:window-x="2636"
     inkscape:window-y="147"
     inkscape:window-maximized="0"
     units="px" />
  <metadata
     id="metadata919">
    <rdf:RDF>
      <cc:Work
         rdf:about="">
        <dc:format>image/svg+xml</dc:format>
        <dc:type
           rdf:resource="http://purl.org/dc/dcmitype/StillImage" />
        <dc:title>USOICON</dc:title>
        <cc:license
           rdf:resource="http://creativecommons.org/licenses/by-sa/4.0/" />
      </cc:Work>
      <cc:License
         rdf:about="http://creativecommons.org/licenses/by-sa/4.0/">
        <cc:permits
           rdf:resource="http://creativecommons.org/ns#Reproduction" />
        <cc:permits
           rdf:resource="http://creativecommons.org/ns#Distribution" />
        <cc:requires
           rdf:resource="http://creativecommons.org/ns#Notice" />
        <cc:requires
           rdf:resource="http://creativecommons.org/ns#Attribution" />
        <cc:permits
           rdf:resource="http://creativecommons.org/ns#DerivativeWorks" />
        <cc:requires
           rdf:resource="http://creativecommons.org/ns#ShareAlike" />
      </cc:License>
    </rdf:RDF>
  </metadata>
  <g
     style="display:inline"
     transform="translate(-35.46637,-112.59198)"
     id="layer1"
     inkscape:groupmode="layer"
     inkscape:label="toonbox" />
  <g
     inkscape:label="text"
     id="layer3"
     inkscape:groupmode="layer" />
  <g
     style="display:inline"
     inkscape:label="icon_games"
     id="layer7"
     inkscape:groupmode="layer">
    <g
       id="g11315">
      <path
         style="display:inline;opacity:0.875;fill:#999999;fill-opacity:1;stroke:none;stroke-width:0.11845408;stroke-linejoin:round;stroke-miterlimit:4;stroke-dasharray:none;stroke-opacity:0.97175137"
         d="M 1.435191,10.12791 C 2.670256,9.29705 4.324329,9.43582 5.75553,9.20511 14.11545,8.61268 22.517162,8.68995 30.881762,9.1576 c 2.392119,0.20608 4.838324,0.26932 7.150425,0.97031 0.872353,1.67498 0.817461,3.66984 1.026746,5.51683 0.208491,4.02511 0.362445,8.13136 -0.532305,12.08777 -0.230317,1.64927 -2.017724,2.0517 -3.40708,2.25864 C 28.802681,30.85612 22.40423,30.81147 16.04062,30.81293 11.303807,30.71862 6.537542,30.74635 1.839737,30.07418 0.173005,29.52829 0.822947,27.03924 0.434179,25.65651 0.154966,21.09087 0.021365,16.47217 0.692557,11.93449 0.848231,11.32021 0.903907,10.54918 1.435191,10.12791 Z"
         id="rect49496"
         inkscape:connector-curvature="0" />
      <path
         style="display:inline;fill:#000000;stroke-width:0.37203047"
         d="M 1.803349,30.70864 C 0.056742,30.0892 0.231437,27.93756 0.087588,26.427 -0.022935,21.93179 -0.070132,17.42779 0.099217,12.93387 -0.027874,11.27811 1.27784,10.0868 2.683582,9.49431 4.615709,8.56731 6.836395,8.9315 8.909365,8.7639 16.59615,8.63948 24.285544,8.62691 31.972812,8.67993 c 2.150882,0.14121 4.537543,-0.0199 6.403551,1.23592 1.58486,1.37874 1.255708,3.71898 1.302004,5.60595 -0.178243,4.07095 0.01584,8.16305 -0.388876,12.21995 -0.293352,1.71142 -2.120394,2.65314 -3.654582,3.02944 -6.368162,0.39372 -12.757085,0.28816 -19.135233,0.3134 C 11.668868,31.0283 6.826658,31.10952 2.006621,30.75364 L 1.803349,30.7086 Z m 34.717949,-1.05781 c 1.660436,-0.66982 2.120657,-2.56797 2.182495,-4.18169 C 38.903556,21.6571 38.926032,17.82461 38.6784,14.01451 38.609934,12.47205 38.055319,10.73538 36.494762,10.11382 34.51138,9.13075 32.202264,9.50823 30.063573,9.36171 22.019563,9.34057 13.971808,9.23982 5.930238,9.4697 4.247551,9.52117 2.061367,9.74531 1.291134,11.49417 c -0.682107,2.6627 -0.37748,5.45735 -0.46467,8.18069 0.080658,2.82901 -0.202804,5.71611 0.421771,8.49628 0.655233,1.84726 2.893842,2.0042 4.558802,2.11114 8.176545,0.4213 16.369453,0.15886 24.551012,0.03302 2.04628,-0.14679 4.225389,0.10711 6.163249,-0.66447 z M 4.297406,28.9474 c -0.939032,0.02717 -2.493051,-2.1182 -0.727168,-0.88447 1.706475,0.99084 3.797167,0.59334 5.679761,0.73138 0.843628,0.09701 3.276883,-0.14441 3.328971,0.24148 -2.712643,0.43249 -5.596207,0.56419 -8.281564,-0.08839 z m 31.24001,-17.1062 c -1.499147,-0.78086 -3.308903,-0.4003 -4.94344,-0.53994 -1.173066,-0.10336 -4.022293,-0.01807 -4.347208,-0.50636 2.904245,-0.07023 5.874879,-0.31161 8.734279,0.31742 0.913242,-0.14345 1.834744,2.01352 0.556369,0.72888 z"
         id="path49494"
         inkscape:connector-curvature="0" />
      <path
         style="font-style:normal;font-variant:normal;font-weight:normal;font-stretch:normal;font-size:4.283494px;font-family:Insaniburger;-inkscape-font-specification:Insaniburger;opacity:1;vector-effect:none;fill:#000000;fill-opacity:1;stroke:none;stroke-width:0.05019718;stroke-linecap:butt;stroke-linejoin:miter;stroke-miterlimit:4;stroke-dasharray:none;stroke-dashoffset:0;stroke-opacity:1"
         d="m 6.1566224,28.018327 c 1.0664999,-0.738268 -0.7944097,-0.436548 -0.571733,-1.062445 0.695952,0.225208 1.1787197,-0.91444 0.1370621,-0.745713 -0.7001933,-0.658272 1.0027748,-0.109238 0.72738,-0.911765 -0.3865938,-0.27696 -1.4798152,-0.409103 -1.6673014,0.182461 0.055254,0.808183 -0.1175756,1.679209 0.1003575,2.443602 0.3852369,0.182366 0.8585907,0.05636 1.2742348,0.09386 z m 1.930106,-1.204 c -0.1244986,-1.153604 -0.6381004,0.27591 0,0 z m -0.5879525,0.690465 c -0.6385341,1.288756 -1.080027,-0.394417 -0.4396623,-1.015369 0.2151954,-0.594146 0.7593325,-2.065529 1.3081568,-0.919555 0.2630549,0.676547 0.6288511,1.315859 0.8183208,2.019076 -0.4648955,1.137158 -0.8210708,-0.562939 -1.6868153,-0.08415 z m 2.8688031,-1.713217 c -0.05445,0.706139 0.116524,1.474845 -0.100358,2.137207 -0.957707,0.435194 -0.6626799,-0.925355 -0.7025017,-1.504539 0.4481257,-0.946299 -1.2476222,-0.41753 -0.5474041,-1.297376 0.6597201,0.0032 1.3708578,-0.115187 2.0030938,0.06433 0.328629,0.577988 -0.270698,0.64872 -0.65283,0.600382 z m 3.414178,0 c -0.05445,0.706139 0.116524,1.474845 -0.100357,2.137207 -0.957708,0.435194 -0.66268,-0.925355 -0.702502,-1.504539 0.448126,-0.946299 -1.247622,-0.41753 -0.547404,-1.297376 0.65972,0.0032 1.370858,-0.115187 2.003094,0.06433 0.328629,0.577988 -0.270698,0.64872 -0.652831,0.600382 z m 2.657952,-0.686151 c 0.719058,0.156837 0.280566,1.208989 0.401429,1.786546 0.384962,0.869752 -0.836345,1.698009 -0.802859,0.468694 0.19179,-0.790199 -0.907196,-0.528711 -0.547404,0.198487 -0.369482,1.153297 -1.082626,-0.155126 -0.802859,-0.857002 0.03949,-0.578875 -0.254631,-1.93807 0.702502,-1.502865 0.0018,0.500725 0.229802,1.510663 0.647761,0.822738 0.02192,-0.343718 -0.127888,-0.963453 0.40143,-0.916598 z m 1.978763,2.912903 c 1.066501,-0.738268 -0.794409,-0.436548 -0.571733,-1.062445 0.695952,0.225208 1.17872,-0.91444 0.137063,-0.745713 -0.700194,-0.658272 1.002775,-0.109238 0.72738,-0.911765 -0.386594,-0.27696 -1.479816,-0.409103 -1.667301,0.182461 0.05525,0.808183 -0.117577,1.679209 0.100356,2.443602 0.385237,0.182366 0.858591,0.05636 1.274235,0.09386 z m 3.756814,0.0086 c -0.613199,-0.567286 -0.587019,-1.164023 -1.022328,-0.0766 -0.827968,0.184895 -0.749879,-1.086958 -1.04128,-1.661809 -0.673443,-1.038142 0.625918,-1.64693 0.736592,-0.356918 0.05698,1.146784 0.836698,-1.284697 1.198824,0.281198 0.288787,0.39762 0.247081,-1.778304 1.062833,-0.988732 0.211411,0.681682 -0.285679,1.385924 -0.412965,2.070737 -0.09724,0.286733 -0.144002,0.723297 -0.521676,0.732122 z m 2.958009,-2.921533 c 0.719058,0.156837 0.280566,1.208989 0.401429,1.786546 0.384962,0.869752 -0.836345,1.698009 -0.802859,0.468694 0.191791,-0.790199 -0.907195,-0.528711 -0.547404,0.198487 -0.369482,1.153297 -1.082626,-0.155126 -0.802859,-0.857002 0.03949,-0.578875 -0.254631,-1.93807 0.702502,-1.502865 0.0018,0.500725 0.229802,1.510663 0.647761,0.822738 0.02192,-0.343718 -0.127888,-0.963453 0.40143,-0.916598 z m 1.407031,2.537461 c -0.56918,1.058362 -1.006773,-0.381398 -0.802858,-1.03481 -0.05885,-0.594675 -0.07775,-2.035874 0.777769,-1.291466 0.05669,0.769618 0.0097,1.552845 0.02509,2.326276 z m 1.295524,0.384072 c -1.118483,0.399619 -1.540465,-1.543861 -0.220989,-0.73308 1.355522,-0.23932 -1.86085,-0.933979 -0.490637,-2.007206 0.577107,-0.968113 2.473817,0.550213 0.99141,0.49843 -1.638707,-0.04352 1.827178,0.90825 0.368991,1.989405 -0.174492,0.177707 -0.414129,0.254014 -0.648775,0.252451 z m 2.591045,-2.235382 c -0.05445,0.706139 0.116524,1.474845 -0.100358,2.137207 -0.957707,0.435194 -0.662679,-0.925355 -0.702502,-1.504539 0.448126,-0.946299 -1.247621,-0.41753 -0.547403,-1.297376 0.65972,0.0032 1.370857,-0.115187 2.003093,0.06433 0.32863,0.577988 -0.270698,0.64872 -0.65283,0.600382 z m 2.337617,2.226752 c -0.526789,-0.05411 -1.586482,0.270264 -1.43136,-0.657663 0.05321,-0.714528 -0.114616,-1.490452 0.100357,-2.16138 0.957707,-0.435194 0.66268,0.925355 0.702502,1.50454 -0.430927,1.10386 1.191045,0.150758 0.817051,1.228734 l -0.07856,0.06433 z m 1.828735,0 c 1.066499,-0.738268 -0.79441,-0.436548 -0.571733,-1.062445 0.695952,0.225208 1.178719,-0.91444 0.137061,-0.745713 -0.700193,-0.658272 1.002775,-0.109238 0.72738,-0.911765 -0.386594,-0.27696 -1.479815,-0.409103 -1.667301,0.182461 0.05525,0.808183 -0.117576,1.679209 0.100358,2.443602 0.385237,0.182366 0.85859,0.05636 1.274235,0.09386 z"
         id="text49550"
         inkscape:connector-curvature="0" />
      <g
         id="g53695"
         transform="matrix(0.23216083,0,0,0.26739887,-40.66702,-79.695953)">
        <path
           style="fill:#000000;fill-opacity:1;stroke-width:0.56041962"
           d="m 225.79653,381.36576 c -5.04874,-5.70045 -3.09798,-14.35633 -2.45039,-21.29598 2.14357,-8.89697 7.83465,-18.94365 17.6609,-20.54413 7.25222,-1.3964 13.14991,3.76259 20.06409,4.17152 6.86243,-0.25136 12.65893,-5.79643 19.79539,-4.07863 10.07438,0.99305 15.61039,11.35051 17.88548,20.14 0.72391,7.0246 2.71218,15.81255 -2.37779,21.60722 -6.22795,4.55619 -12.2931,-2.23293 -16.91721,-5.91504 -5.78798,-5.77763 -14.55245,-3.45633 -21.84303,-3.96964 -6.37158,-0.56289 -12.86431,0.86093 -17.22384,5.87987 -3.90129,3.36771 -9.44686,8.07986 -14.5936,4.00481 z"
           id="path53677"
           inkscape:connector-curvature="0" />
        <path
           style="fill:#ffffff;fill-opacity:1;stroke-width:0.56041962"
           d="m 277.9872,362.41501 c 5.58994,-5.40079 -8.06317,-7.57497 -4.77264,-0.67341 1.23932,1.3571 3.24548,2.00683 4.77264,0.67341 z"
           id="path53675"
           inkscape:connector-curvature="0" />
        <path
           style="fill:#ffffff;fill-opacity:1;stroke-width:0.56041962"
           d="m 247.09052,359.86347 c 0.27723,-3.25746 8.70112,-2.32963 4.12382,-6.78295 -5.26871,1.19244 -3.64993,-8.73224 -9.37797,-3.68051 1.20337,5.19333 -8.41269,2.02905 -5.05105,7.57352 3.38408,0.29645 5.45041,0.84964 5.40535,4.6496 1.57622,0.88603 5.19447,0.91959 4.89985,-1.75966 z"
           id="path53673"
           inkscape:connector-curvature="0" />
        <path
           style="fill:#fffffc;fill-opacity:1;stroke-width:0.56041962"
           d="m 288.72216,357.58638 c 4.50178,-7.79772 -11.51832,-3.99212 -3.56811,0.81562 1.22542,0.443 2.60725,-0.0116 3.56811,-0.81562 z"
           id="path53671"
           inkscape:connector-curvature="0" />
        <path
           style="fill:#f8ffff;fill-opacity:1;stroke-width:0.56041962"
           d="m 278.37813,352.42476 c 4.38079,-8.166 -11.41132,-4.0188 -3.58973,0.81533 1.23238,0.44154 2.62307,-0.004 3.58973,-0.81533 z"
           id="path53664"
           inkscape:connector-curvature="0" />
      </g>
    </g>
  </g>
</svg>
