<?xml version="1.0" encoding="UTF-8" standalone="no"?>
<!-- Created with Inkscape (http://www.inkscape.org/) -->

<svg
   xmlns:dc="http://purl.org/dc/elements/1.1/"
   xmlns:cc="http://creativecommons.org/ns#"
   xmlns:rdf="http://www.w3.org/1999/02/22-rdf-syntax-ns#"
   xmlns:svg="http://www.w3.org/2000/svg"
   xmlns="http://www.w3.org/2000/svg"
   xmlns:sodipodi="http://sodipodi.sourceforge.net/DTD/sodipodi-0.dtd"
   xmlns:inkscape="http://www.inkscape.org/namespaces/inkscape"
   width="150"
   height="150"
   viewBox="0 0 39.6875 39.6875"
   version="1.1"
   id="svg922"
   inkscape:version="0.92.4 (5da689c313, 2019-01-14)"
   sodipodi:docname="USO_system_gradle.svg">
  <title
     id="title1437">USOICON</title>
  <defs
     id="defs916">
    <clipPath
       id="clipPath1521"
       clipPathUnits="userSpaceOnUse">
      <rect
         y="66.644836"
         x="57.114269"
         height="151.42299"
         width="172.87534"
         id="rect1523"
         style="opacity:0.875;fill:#000000;fill-opacity:1;stroke:#000000;stroke-width:0.60403091;stroke-linejoin:round;stroke-miterlimit:4;stroke-dasharray:none;stroke-opacity:1" />
    </clipPath>
  </defs>
  <sodipodi:namedview
     id="base"
     pagecolor="#ffffff"
     bordercolor="#666666"
     borderopacity="1.0"
     inkscape:pageopacity="0.0"
     inkscape:pageshadow="2"
     inkscape:zoom="1.6548152"
     inkscape:cx="88.629765"
     inkscape:cy="67.600479"
     inkscape:document-units="px"
     inkscape:current-layer="layer13"
     showgrid="false"
     inkscape:window-width="842"
     inkscape:window-height="547"
     inkscape:window-x="2655"
     inkscape:window-y="223"
     inkscape:window-maximized="0"
     units="px" />
  <metadata
     id="metadata919">
    <rdf:RDF>
      <cc:Work
         rdf:about="">
        <dc:format>image/svg+xml</dc:format>
        <dc:type
           rdf:resource="http://purl.org/dc/dcmitype/StillImage" />
        <dc:title>USOICON</dc:title>
        <cc:license
           rdf:resource="http://creativecommons.org/licenses/by-sa/4.0/" />
      </cc:Work>
      <cc:License
         rdf:about="http://creativecommons.org/licenses/by-sa/4.0/">
        <cc:permits
           rdf:resource="http://creativecommons.org/ns#Reproduction" />
        <cc:permits
           rdf:resource="http://creativecommons.org/ns#Distribution" />
        <cc:requires
           rdf:resource="http://creativecommons.org/ns#Notice" />
        <cc:requires
           rdf:resource="http://creativecommons.org/ns#Attribution" />
        <cc:permits
           rdf:resource="http://creativecommons.org/ns#DerivativeWorks" />
        <cc:requires
           rdf:resource="http://creativecommons.org/ns#ShareAlike" />
      </cc:License>
    </rdf:RDF>
  </metadata>
  <g
     style="display:inline"
     transform="translate(-35.46637,-112.59198)"
     id="layer1"
     inkscape:groupmode="layer"
     inkscape:label="toonbox" />
  <g
     inkscape:label="text"
     id="layer3"
     inkscape:groupmode="layer" />
  <g
     style="display:inline"
     inkscape:label="icon_system"
     id="layer13"
     inkscape:groupmode="layer">
    <g
       id="g2529">
      <path
         style="display:inline;opacity:0.875;fill:#999999;fill-opacity:1;stroke:none;stroke-width:0.11845408;stroke-linejoin:round;stroke-miterlimit:4;stroke-dasharray:none;stroke-opacity:0.97175137"
         d="m 36.90156,122.71989 c 0.831696,-1.81518 32.136082,-1.74537 36.596996,0 1.360957,1.25668 1.965827,18.83145 -0.529263,19.1107 -2.34387,2.23409 -34.78045,1.7797 -36.294559,0.62834 -1.133237,-0.86173 -1.587784,-18.83144 0.226826,-19.73904 z"
         id="rect49496"
         inkscape:connector-curvature="0"
         sodipodi:nodetypes="cccsc"
         transform="translate(-35.466369,-112.59198)" />
      <path
         style="display:inline;fill:#000000;stroke-width:0.37203047"
         d="m 37.269718,143.30062 c -1.641726,-0.64434 -1.803348,-1.59457 -1.803348,-10.60246 0,-8.6181 0,-8.6181 1.184803,-9.66955 0.651642,-0.57829 1.906815,-1.21394 2.789275,-1.41254 1.014238,-0.22826 7.228924,-0.36098 16.893825,-0.36076 20.576488,3.7e-4 18.888124,-0.98916 18.718084,10.97136 -0.122927,8.64687 -0.122927,8.64687 -1.155993,9.6823 -0.568185,0.56949 -1.705467,1.20373 -2.527298,1.40941 -1.972575,0.49371 -32.837149,0.47762 -34.099348,-0.0178 z m 34.717949,-1.05781 c 2.057419,-1.09405 2.321925,-2.20712 2.321925,-9.77101 0,-7.72677 -0.261904,-8.73763 -2.557796,-9.87221 -1.306397,-0.6456 -2.051043,-0.67602 -16.574417,-0.67722 -12.68509,-0.001 -15.404566,0.0817 -16.40064,0.49925 -2.429502,1.01833 -2.483917,1.2385 -2.483917,10.05018 0,8.63256 0.07681,8.98184 2.190626,9.96194 1.290086,0.59816 7.836312,0.78195 20.969628,0.58874 10.114957,-0.14881 11.511591,-0.23568 12.534591,-0.77967 z m -32.223892,-0.70343 c -0.704624,-0.24864 -1.401002,-0.70525 -1.547504,-1.0147 -0.218464,-0.46145 -0.07094,-0.43803 0.820336,0.13023 0.940358,0.59955 1.705219,0.69805 5.679761,0.73138 3.569034,0.0299 4.224546,0.1003 2.940161,0.31564 -2.52326,0.42304 -6.463123,0.3419 -7.892754,-0.16255 z m 31.24001,-17.1062 c -0.376607,-0.36781 -1.414169,-0.50758 -3.872935,-0.52171 -1.847182,-0.0106 -4.102321,-0.14401 -5.01142,-0.29643 -1.299481,-0.21787 -0.707245,-0.28535 2.769834,-0.31564 4.414966,-0.0385 6.277427,0.2894 6.698657,1.17915 0.282918,0.5976 0.05617,0.57999 -0.584136,-0.0454 z"
         id="path49494"
         inkscape:connector-curvature="0"
         transform="translate(-35.466369,-112.59198)" />
      <g
         id="g2507">
        <path
           inkscape:connector-curvature="0"
           id="text49550"
           d="m 14.82497,25.808774 c -0.343615,0.05594 -0.80576,-0.164505 -1.025972,0.25183 -0.338054,0.740254 0.972679,0.485808 0.320513,1.020978 -1.015233,0.371742 -1.247612,-1.894065 -0.20068,-1.832429 0.421646,0.05111 1.292211,0.591443 1.194915,-0.368252 -0.507962,-0.749928 -1.571392,-0.745999 -2.177111,-0.171926 -0.926442,0.851516 -0.642501,2.942439 0.525434,3.265963 0.594485,0.158233 1.70221,0.159793 1.699966,-0.852967 -0.04582,-0.427642 0.130408,-0.986014 -0.189599,-1.282884 z m 2.370404,0.676877 c 0.182093,0.362058 0.534709,0.656228 0.518731,1.110584 -0.233453,0.662085 -0.801622,0.366989 -0.981201,-0.152828 -0.162481,-0.264179 -0.324961,-0.528356 -0.487443,-0.792535 -0.03596,0.414531 0.0911,0.886249 -0.108342,1.248491 -0.517276,0.430082 -0.88112,-0.260467 -0.758398,-0.838268 0.01647,-0.793198 -0.03396,-1.595138 0.02708,-2.382557 0.241787,-0.429086 0.725774,-0.204187 1.091156,-0.260824 0.440139,-0.06931 0.926733,0.136392 1.080348,0.692199 0.153017,0.487565 0.0155,1.127032 -0.381936,1.375738 z m -0.949913,-1.343093 c 0.04866,0.247042 -0.100672,0.735158 0.08057,0.820779 0.650108,0.217833 0.680385,-1.032811 0.0078,-0.820779 -0.02946,0 -0.05891,0 -0.08837,0 z m 3.193371,1.385731 c -0.08591,-0.172697 -0.171812,-0.897584 -0.257718,-0.393382 -0.175919,0.459214 -0.121461,0.405042 0.257718,0.393382 z m -0.634735,0.852758 c -0.01952,0.917848 -1.203767,0.703631 -0.871118,-0.197201 0.329975,-0.851673 0.625599,-1.725147 0.978503,-2.56227 0.450128,-0.584762 0.819181,0.207284 0.952263,0.693507 0.245962,0.674399 0.520362,1.334889 0.747156,2.018663 0.09533,0.953775 -0.874009,0.723021 -0.954084,0.0473 -0.28424,0 -0.56848,0 -0.85272,0 z m 3.320319,0.634238 c -0.400617,-0.03953 -0.834458,0.099 -1.204901,-0.115922 -0.203267,-0.40443 -0.06991,-0.920782 -0.108343,-1.377821 0.01562,-0.613442 -0.03277,-1.235303 0.02708,-1.843004 0.241787,-0.429086 0.725775,-0.204187 1.091157,-0.260824 0.772993,-0.103925 1.321221,0.83127 1.326648,1.697021 0.03366,0.839795 -0.360779,1.840447 -1.131646,1.90055 z m 0.3305,-1.830764 c 0.234763,-0.556522 -0.731621,-1.526997 -0.777003,-0.796711 0,0.628881 0,1.257762 0,1.886643 0.534477,0.104959 0.813463,-0.51832 0.777003,-1.089932 z m 2.534558,1.830764 c -0.433446,-0.01477 -0.871199,0.03228 -1.301479,-0.02898 -0.391173,-0.214522 -0.196583,-0.807074 -0.24377,-1.219512 0.01607,-0.695141 -0.03341,-1.398875 0.02708,-2.088255 0.385712,-0.662232 1.014632,-2.13e-4 0.839656,0.644315 0,0.615001 0,1.230003 0,1.845005 0.292489,0.0373 0.626845,-0.09246 0.882061,0.105928 0.121915,0.230548 0.105386,0.758035 -0.203553,0.741499 z m 1.974244,0 c 0.708621,-0.184133 0.154548,-1.091952 -0.362579,-0.847427 -0.335228,0.175372 -0.29096,-0.370981 -0.214359,-0.532974 0.398843,0.07503 1.092737,-0.05424 0.742188,-0.746164 -0.172002,-0.307911 -0.767379,0.12441 -0.782474,-0.253745 -0.111584,-0.438985 0.177712,-0.389887 0.443152,-0.369834 0.705548,0.183623 0.592971,-1.106742 -0.06765,-0.847427 -0.377114,0.03838 -0.786886,-0.09733 -1.133904,0.115922 -0.203266,0.404429 -0.06991,0.92078 -0.108342,1.377821 0.01561,0.613442 -0.03277,1.235303 0.02709,1.843004 0.241786,0.429085 0.725773,0.204187 1.091155,0.260824 0.121909,0 0.243816,0 0.365724,0 z"
           style="font-style:normal;font-variant:normal;font-weight:normal;font-stretch:normal;font-size:4.94612217px;font-family:Insaniburger;-inkscape-font-specification:Insaniburger;opacity:1;vector-effect:none;fill:#000000;fill-opacity:1;stroke:none;stroke-width:0.05796236;stroke-linecap:butt;stroke-linejoin:miter;stroke-miterlimit:4;stroke-dasharray:none;stroke-dashoffset:0;stroke-opacity:1" />
        <g
           transform="matrix(0.25341017,0,0,0.27251274,-27.614522,-84.260427)"
           style="fill:#000000;fill-opacity:1"
           id="g53543">
          <path
             inkscape:connector-curvature="0"
             id="path53531"
             d="m 166.36076,393.32227 c -2.45442,-1.50451 -3.72105,-5.31026 -1.44573,-7.54321 1.43398,-1.91137 4.27677,-6.57718 5.69465,-2.0894 1.40796,2.497 4.48807,3.18688 6.92717,3.86593 -0.82645,2.47483 -3.07147,4.48434 -5.28431,5.86164 -1.81333,1.04259 -4.11529,1.0204 -5.89178,-0.095 z"
             style="fill:#000000;fill-opacity:1;stroke-width:0.42873418" />
          <path
             inkscape:connector-curvature="0"
             id="path53529"
             d="m 169.67848,390.43369 c 1.53835,-2.72448 -4.34071,-1.02348 -1.12735,0.43717 l 0.56816,-0.0895 z"
             style="fill:#000000;fill-opacity:1;stroke-width:0.42873418" />
          <path
             inkscape:connector-curvature="0"
             id="path53527"
             d="m 197.74585,392.90821 c -4.2328,-2.68994 -8.05526,-6.02715 -11.74347,-9.41644 -1.00517,-2.33732 3.20603,-4.05595 3.98165,-6.0945 3.34024,1.46524 5.96301,4.19062 8.82328,6.4097 1.79304,1.91889 5.74288,3.54153 4.23253,6.73282 -0.44212,2.05695 -3.49897,3.22764 -5.29399,2.36842 z"
             style="fill:#000000;fill-opacity:1;stroke-width:0.42873418" />
          <path
             inkscape:connector-curvature="0"
             id="path53525"
             d="m 175.65172,385.33519 c -2.35978,-0.95793 -6.29724,-3.91578 -4.26031,-6.70217 2.2867,-2.99342 4.53429,-6.11519 7.3854,-8.59076 2.22839,1.97295 4.26202,4.2862 7.08704,5.46898 3.72692,1.33693 -1.61033,4.45085 -2.55853,6.35925 -1.80732,1.91202 -4.01426,5.32838 -7.07898,3.68551 z"
             style="fill:#000000;fill-opacity:1;stroke-width:0.42873418" />
          <path
             inkscape:connector-curvature="0"
             id="path53523"
             d="m 188.17484,374.30722 c -4.70818,-1.66305 -9.15773,-6.08359 -8.70276,-11.41764 0.142,-4.57087 3.2066,-8.86505 7.61712,-10.23917 2.16331,-0.7817 6.30235,-1.86153 7.47337,-0.19471 -1.76363,2.96911 -4.92029,4.99314 -6.23798,8.21138 -0.91914,3.4839 2.41128,6.6182 5.82754,6.09245 3.34815,-0.53327 5.18529,-3.85322 7.48999,-5.99966 1.16557,-2.07473 3.53649,-2.12139 3.15524,0.70852 0.67946,4.47269 -1.44757,9.19006 -5.40753,11.44092 -3.32129,2.03294 -7.49399,2.45911 -11.21499,1.39791 z"
             style="fill:#000000;fill-opacity:1;stroke-width:0.42873418" />
          <path
             inkscape:connector-curvature="0"
             id="path53519"
             d="m 171.0534,368.49238 c -1.6709,-1.92338 -5.68472,-2.80236 -5.5431,-5.63534 2.60229,-3.46127 4.98509,1.65555 7.10801,3.04037 1.61837,0.81724 5.37675,4.59405 1.62308,4.76552 -1.17361,-0.53986 -2.15748,-1.40802 -3.18799,-2.17055 z"
             style="fill:#000000;fill-opacity:1;stroke-width:0.42873418" />
        </g>
      </g>
    </g>
  </g>
</svg>
