<?xml version="1.0" encoding="UTF-8" standalone="no"?>
<!-- Created with Inkscape (http://www.inkscape.org/) -->

<svg
   xmlns:dc="http://purl.org/dc/elements/1.1/"
   xmlns:cc="http://creativecommons.org/ns#"
   xmlns:rdf="http://www.w3.org/1999/02/22-rdf-syntax-ns#"
   xmlns:svg="http://www.w3.org/2000/svg"
   xmlns="http://www.w3.org/2000/svg"
   xmlns:sodipodi="http://sodipodi.sourceforge.net/DTD/sodipodi-0.dtd"
   xmlns:inkscape="http://www.inkscape.org/namespaces/inkscape"
   width="150"
   height="150"
   viewBox="0 0 39.6875 39.6875"
   version="1.1"
   id="svg922"
   inkscape:version="0.92.4 (5da689c313, 2019-01-14)"
   sodipodi:docname="USO_utilities_nutmonitor.svg">
  <title
     id="title1437">USOICON</title>
  <defs
     id="defs916">
    <clipPath
       id="clipPath1521"
       clipPathUnits="userSpaceOnUse">
      <rect
         y="66.644836"
         x="57.114269"
         height="151.42299"
         width="172.87534"
         id="rect1523"
         style="opacity:0.875;fill:#000000;fill-opacity:1;stroke:#000000;stroke-width:0.60403091;stroke-linejoin:round;stroke-miterlimit:4;stroke-dasharray:none;stroke-opacity:1" />
    </clipPath>
  </defs>
  <sodipodi:namedview
     id="base"
     pagecolor="#ffffff"
     bordercolor="#666666"
     borderopacity="1.0"
     inkscape:pageopacity="0.0"
     inkscape:pageshadow="2"
     inkscape:zoom="1.8851245"
     inkscape:cx="84.467274"
     inkscape:cy="100.28701"
     inkscape:document-units="px"
     inkscape:current-layer="layer14"
     showgrid="false"
     inkscape:window-width="900"
     inkscape:window-height="594"
     inkscape:window-x="2557"
     inkscape:window-y="310"
     inkscape:window-maximized="0"
     units="px" />
  <metadata
     id="metadata919">
    <rdf:RDF>
      <cc:Work
         rdf:about="">
        <dc:format>image/svg+xml</dc:format>
        <dc:type
           rdf:resource="http://purl.org/dc/dcmitype/StillImage" />
        <dc:title>USOICON</dc:title>
        <cc:license
           rdf:resource="http://creativecommons.org/licenses/by-sa/4.0/" />
      </cc:Work>
      <cc:License
         rdf:about="http://creativecommons.org/licenses/by-sa/4.0/">
        <cc:permits
           rdf:resource="http://creativecommons.org/ns#Reproduction" />
        <cc:permits
           rdf:resource="http://creativecommons.org/ns#Distribution" />
        <cc:requires
           rdf:resource="http://creativecommons.org/ns#Notice" />
        <cc:requires
           rdf:resource="http://creativecommons.org/ns#Attribution" />
        <cc:permits
           rdf:resource="http://creativecommons.org/ns#DerivativeWorks" />
        <cc:requires
           rdf:resource="http://creativecommons.org/ns#ShareAlike" />
      </cc:License>
    </rdf:RDF>
  </metadata>
  <g
     style="display:inline"
     transform="translate(-35.46637,-112.59198)"
     id="layer1"
     inkscape:groupmode="layer"
     inkscape:label="toonbox" />
  <g
     inkscape:label="text"
     id="layer3"
     inkscape:groupmode="layer" />
  <g
     style="display:inline"
     inkscape:label="icon_utilities"
     id="layer14"
     inkscape:groupmode="layer">
    <g
       id="g3813">
      <path
         style="display:inline;opacity:0.875;fill:#999999;fill-opacity:1;stroke:none;stroke-width:0.11845408;stroke-linejoin:round;stroke-miterlimit:4;stroke-dasharray:none;stroke-opacity:0.97175137"
         d="M 1.435191,10.12791 C 2.670256,9.29705 4.324329,9.43582 5.75553,9.20511 14.11545,8.61268 22.517162,8.68995 30.881762,9.1576 c 2.392119,0.20608 4.838324,0.26932 7.150425,0.97031 0.872353,1.67498 0.817461,3.66984 1.026746,5.51683 0.208491,4.02511 0.362445,8.13136 -0.532305,12.08777 -0.230317,1.64927 -2.017724,2.0517 -3.40708,2.25864 C 28.802681,30.85612 22.40423,30.81147 16.04062,30.81293 11.303807,30.71862 6.537542,30.74635 1.839737,30.07418 0.173005,29.52829 0.822947,27.03924 0.434179,25.65651 0.154966,21.09087 0.021365,16.47217 0.692557,11.93449 0.848231,11.32021 0.903907,10.54918 1.435191,10.12791 Z"
         id="rect49496"
         inkscape:connector-curvature="0" />
      <path
         style="display:inline;fill:#000000;stroke-width:0.37203047"
         d="M 1.803349,30.70864 C 0.056742,30.0892 0.231437,27.93756 0.087588,26.427 -0.022935,21.93179 -0.070132,17.42779 0.099217,12.93387 -0.027874,11.27811 1.27784,10.0868 2.683582,9.49431 4.615709,8.56731 6.836395,8.9315 8.909365,8.7639 16.59615,8.63948 24.285544,8.62691 31.972812,8.67993 c 2.150882,0.14121 4.537543,-0.0199 6.403551,1.23592 1.58486,1.37874 1.255708,3.71898 1.302004,5.60595 -0.178243,4.07095 0.01584,8.16305 -0.388876,12.21995 -0.293352,1.71142 -2.120394,2.65314 -3.654582,3.02944 -6.368162,0.39372 -12.757085,0.28816 -19.135233,0.3134 C 11.668868,31.0283 6.826658,31.10952 2.006621,30.75364 L 1.803349,30.7086 Z m 34.717949,-1.05781 c 1.660436,-0.66982 2.120657,-2.56797 2.182495,-4.18169 C 38.903556,21.6571 38.926032,17.82461 38.6784,14.01451 38.609934,12.47205 38.055319,10.73538 36.494762,10.11382 34.51138,9.13075 32.202264,9.50823 30.063573,9.36171 22.019563,9.34057 13.971808,9.23982 5.930238,9.4697 4.247551,9.52117 2.061367,9.74531 1.291134,11.49417 c -0.682107,2.6627 -0.37748,5.45735 -0.46467,8.18069 0.080658,2.82901 -0.202804,5.71611 0.421771,8.49628 0.655233,1.84726 2.893842,2.0042 4.558802,2.11114 8.176545,0.4213 16.369453,0.15886 24.551012,0.03302 2.04628,-0.14679 4.225389,0.10711 6.163249,-0.66447 z M 4.297406,28.9474 c -0.939032,0.02717 -2.493051,-2.1182 -0.727168,-0.88447 1.706475,0.99084 3.797167,0.59334 5.679761,0.73138 0.843628,0.09701 3.276883,-0.14441 3.328971,0.24148 -2.712643,0.43249 -5.596207,0.56419 -8.281564,-0.08839 z m 31.24001,-17.1062 c -1.499147,-0.78086 -3.308903,-0.4003 -4.94344,-0.53994 -1.173066,-0.10336 -4.022293,-0.01807 -4.347208,-0.50636 2.904245,-0.07023 5.874879,-0.31161 8.734279,0.31742 0.913242,-0.14345 1.834744,2.01352 0.556369,0.72888 z"
         id="path49494"
         inkscape:connector-curvature="0" />
      <path
         style="font-style:normal;font-variant:normal;font-weight:normal;font-stretch:normal;font-size:4.94612217px;font-family:Insaniburger;-inkscape-font-specification:Insaniburger;opacity:1;vector-effect:none;fill:#000000;fill-opacity:1;stroke:none;stroke-width:0.05796236;stroke-linecap:butt;stroke-linejoin:miter;stroke-miterlimit:4;stroke-dasharray:none;stroke-dashoffset:0;stroke-opacity:1"
         d="m 7.7881731,26.021964 c -0.1098515,-0.708062 0.032287,-2.228727 0.8396552,-1.343426 0.043662,1.019343 0.045901,2.056606 0,3.075923 -0.6275188,0.780676 -1.1240267,-0.53403 -1.5317674,-1.019858 -0.4873228,-0.828463 -0.02457,0.879555 -0.3355008,1.16476 -0.9609942,0.542834 -0.7484772,-0.973149 -0.7583982,-1.655827 0.058725,-0.663143 -0.2800099,-2.092676 0.6719429,-1.772525 0.4155176,0.461515 0.7386991,1.040324 1.1140683,1.550953 z m 3.4144329,1.01798 c -0.09899,1.496696 -2.5732551,1.305934 -2.3288181,-0.301861 0.054755,-0.728171 -0.120075,-1.529894 0.1083426,-2.204447 0.9609945,-0.542836 0.748477,0.973149 0.758398,1.655827 -0.3113384,1.081753 0.8572425,1.249661 0.5953375,0.0922 0.07573,-0.658722 -0.299342,-2.04907 0.62297,-1.834966 0.46534,0.458978 0.152034,1.377871 0.24377,2.044629 0,0.182873 0,0.365748 0,0.548621 z m 1.84073,-1.774803 c -0.05701,0.872755 0.123215,1.820584 -0.108342,2.639552 -0.960994,0.542835 -0.748478,-0.973149 -0.758399,-1.655827 0.202717,-0.971569 -0.226454,-0.939469 -0.766059,-1.222063 -0.09112,-0.986296 0.989838,-0.488485 1.485307,-0.609089 0.749899,-0.415828 1.400813,0.939212 0.341691,0.847427 -0.06473,0 -0.129465,0 -0.194198,0 z m 3.50855,0.261158 c 0.281825,-0.593133 1.263525,-1.794056 1.444568,-0.544279 -0.01722,0.923342 0.03502,1.853513 -0.02709,2.772441 -0.839115,0.896527 -0.932883,-0.694164 -0.839655,-1.410305 -0.02616,-0.705271 -0.591569,1.253068 -0.846743,0.180561 -0.482564,-0.959607 -0.261684,0.39604 -0.308911,0.869267 -0.181424,1.355908 -1.208552,0.156301 -0.866741,-0.747968 0.05288,-0.69934 -0.117267,-1.470072 0.108342,-2.116378 0.636218,-0.464191 0.966225,0.577858 1.336226,0.996661 z m 4.760507,0.655557 c 0.03014,3.220036 -4.390977,1.669942 -2.883664,-1.072776 0.791713,-1.473202 2.988535,-0.799555 2.883664,1.072776 z m -1.037462,-0.668882 c -1.547224,-1.391739 -1.552518,2.725651 -0.0022,1.332435 0.268303,-0.357575 0.267962,-0.973193 0.0022,-1.332435 z m 3.009517,0.50899 c -0.109852,-0.708062 0.03229,-2.228727 0.839655,-1.343426 0.04366,1.019343 0.0459,2.056606 0,3.075923 -0.627519,0.780676 -1.124026,-0.53403 -1.531767,-1.019858 -0.487323,-0.828463 -0.02457,0.879555 -0.335501,1.16476 -0.960994,0.542834 -0.748477,-0.973149 -0.758398,-1.655827 0.05873,-0.663143 -0.28001,-2.092676 0.671943,-1.772525 0.415517,0.461515 0.738699,1.040324 1.114068,1.550953 z m 1.952356,1.529635 c -0.52598,1.251734 -1.104303,-0.307077 -0.866741,-1.106822 0.09149,-0.651535 -0.221547,-1.554237 0.243771,-1.998083 0.924336,-0.21333 0.546091,1.182805 0.62297,1.843389 0,0.420505 0,0.84101 0,1.261516 z m 1.840728,-2.286458 c -0.05701,0.872755 0.123215,1.820584 -0.108343,2.639552 -0.960994,0.542835 -0.748477,-0.973149 -0.758398,-1.655827 0.202717,-0.971569 -0.226453,-0.939469 -0.766058,-1.222063 -0.09112,-0.986296 0.989838,-0.488485 1.485305,-0.609089 0.749901,-0.415828 1.400813,0.939212 0.341692,0.847427 -0.06473,0 -0.129465,0 -0.194198,0 z m 4.075434,0.916715 c 0.03014,3.220036 -4.390977,1.669942 -2.883664,-1.072776 0.791713,-1.473202 2.988534,-0.799555 2.883664,1.072776 z m -1.037462,-0.668882 c -1.547225,-1.391739 -1.552518,2.725651 -0.0022,1.332435 0.268302,-0.357575 0.267962,-0.973193 0.0022,-1.332435 z m 3.040158,0.972677 c 0.751419,0.47974 0.431736,2.205764 -0.34421,1.150033 -0.268378,-0.370144 -0.74948,-1.518255 -0.605703,-0.38109 0.0372,1.398228 -1.250698,0.513412 -0.86674,-0.507957 0.05437,-0.73114 -0.119468,-1.535413 0.108343,-2.213001 0.635438,-0.140008 1.579619,-0.367835 2.015008,0.397564 0.261818,0.497909 0.13985,1.275001 -0.306698,1.554451 z m -0.949913,-1.343093 c -0.411355,1.012917 0.869051,1.096255 0.525298,0.102597 -0.147081,-0.150599 -0.350646,-0.08937 -0.525298,-0.102597 z"
         id="text49550"
         inkscape:connector-curvature="0" />
      <path
         style="fill:#000000;fill-opacity:1;stroke-width:0.13434657"
         clip-path="none"
         d="m 23.58184,10.450486 c -1.363413,1.031704 -2.337509,2.570163 -3.536959,3.810538 -1.122489,2.12145 -2.307167,-0.565334 -3.295703,-1.485327 -0.747014,-0.833448 -2.588333,-3.6896535 -3.085388,-1.225917 -0.51639,2.17381 1.581269,3.915894 3.467474,4.451288 2.052573,0.358955 -0.350767,1.549495 -1.063545,2.047887 -1.74491,-0.12186 -3.857786,1.167767 -3.583166,3.115954 0.593715,2.725323 4.841369,3.148637 6.095207,0.729932 1.007285,-1.527702 -1.202687,-2.940725 0.28864,-4.247872 1.369278,0.313658 1.130931,1.934728 0.572476,2.902113 -0.216303,2.588391 3.311464,3.764344 5.159443,2.332906 1.725027,-0.966113 1.578813,-3.58573 -0.259839,-4.334572 -1.465066,-0.573517 -3.593549,-0.552612 -4.269982,-2.17915 1.626691,-0.607237 3.50879,-1.299839 4.206913,-3.063763 0.36377,-0.878322 0.432851,-2.518442 -0.695571,-2.854017 z m -4.524079,5.54386 c 1.105062,0.43756 -1.060478,0.508491 5e-6,-2e-5 z m -3.462553,3.1841 c 1.922132,-0.211618 2.670829,2.649994 0.678675,3.13103 -1.490334,0.612622 -3.5694,-1.367025 -1.946401,-2.604657 0.34999,-0.303687 0.796845,-0.522416 1.267726,-0.526373 z m 7.055514,0 c 1.682401,-0.27272 2.693694,2.240088 1.040701,2.98947 -1.410279,0.987167 -3.783587,-0.646347 -2.676135,-2.237075 0.437323,-0.452623 0.967204,-0.843472 1.635434,-0.752395 z"
         id="path53795"
         inkscape:connector-curvature="0" />
    </g>
  </g>
</svg>
