<?xml version="1.0" encoding="UTF-8" standalone="no"?>
<!-- Created with Inkscape (http://www.inkscape.org/) -->

<svg
   xmlns:dc="http://purl.org/dc/elements/1.1/"
   xmlns:cc="http://creativecommons.org/ns#"
   xmlns:rdf="http://www.w3.org/1999/02/22-rdf-syntax-ns#"
   xmlns:svg="http://www.w3.org/2000/svg"
   xmlns="http://www.w3.org/2000/svg"
   xmlns:sodipodi="http://sodipodi.sourceforge.net/DTD/sodipodi-0.dtd"
   xmlns:inkscape="http://www.inkscape.org/namespaces/inkscape"
   width="150"
   height="150"
   viewBox="0 0 39.6875 39.6875"
   version="1.1"
   id="svg922"
   inkscape:version="0.92.4 (5da689c313, 2019-01-14)"
   sodipodi:docname="USO_games_dodgindiamon.svg">
  <title
     id="title1437">USOICON</title>
  <defs
     id="defs916">
    <clipPath
       id="clipPath1521"
       clipPathUnits="userSpaceOnUse">
      <rect
         y="66.644836"
         x="57.114269"
         height="151.42299"
         width="172.87534"
         id="rect1523"
         style="opacity:0.875;fill:#000000;fill-opacity:1;stroke:#000000;stroke-width:0.60403091;stroke-linejoin:round;stroke-miterlimit:4;stroke-dasharray:none;stroke-opacity:1" />
    </clipPath>
  </defs>
  <sodipodi:namedview
     id="base"
     pagecolor="#ffffff"
     bordercolor="#666666"
     borderopacity="1.0"
     inkscape:pageopacity="0.0"
     inkscape:pageshadow="2"
     inkscape:zoom="1.369061"
     inkscape:cx="72.351193"
     inkscape:cy="49.727721"
     inkscape:document-units="px"
     inkscape:current-layer="layer7"
     showgrid="false"
     inkscape:window-width="775"
     inkscape:window-height="555"
     inkscape:window-x="2819"
     inkscape:window-y="135"
     inkscape:window-maximized="0"
     units="px" />
  <metadata
     id="metadata919">
    <rdf:RDF>
      <cc:Work
         rdf:about="">
        <dc:format>image/svg+xml</dc:format>
        <dc:type
           rdf:resource="http://purl.org/dc/dcmitype/StillImage" />
        <dc:title>USOICON</dc:title>
        <cc:license
           rdf:resource="http://creativecommons.org/licenses/by-sa/4.0/" />
      </cc:Work>
      <cc:License
         rdf:about="http://creativecommons.org/licenses/by-sa/4.0/">
        <cc:permits
           rdf:resource="http://creativecommons.org/ns#Reproduction" />
        <cc:permits
           rdf:resource="http://creativecommons.org/ns#Distribution" />
        <cc:requires
           rdf:resource="http://creativecommons.org/ns#Notice" />
        <cc:requires
           rdf:resource="http://creativecommons.org/ns#Attribution" />
        <cc:permits
           rdf:resource="http://creativecommons.org/ns#DerivativeWorks" />
        <cc:requires
           rdf:resource="http://creativecommons.org/ns#ShareAlike" />
      </cc:License>
    </rdf:RDF>
  </metadata>
  <g
     style="display:inline"
     transform="translate(-35.46637,-112.59198)"
     id="layer1"
     inkscape:groupmode="layer"
     inkscape:label="toonbox" />
  <g
     inkscape:label="text"
     id="layer3"
     inkscape:groupmode="layer" />
  <g
     style="display:inline"
     inkscape:label="icon_games"
     id="layer7"
     inkscape:groupmode="layer">
    <g
       id="g8271">
      <path
         style="display:inline;opacity:0.875;fill:#999999;fill-opacity:1;stroke:none;stroke-width:0.11845408;stroke-linejoin:round;stroke-miterlimit:4;stroke-dasharray:none;stroke-opacity:0.97175137"
         d="M 1.435191,10.12791 C 2.670256,9.29705 4.324329,9.43582 5.75553,9.20511 14.11545,8.61268 22.517162,8.68995 30.881762,9.1576 c 2.392119,0.20608 4.838324,0.26932 7.150425,0.97031 0.872353,1.67498 0.817461,3.66984 1.026746,5.51683 0.208491,4.02511 0.362445,8.13136 -0.532305,12.08777 -0.230317,1.64927 -2.017724,2.0517 -3.40708,2.25864 C 28.802681,30.85612 22.40423,30.81147 16.04062,30.81293 11.303807,30.71862 6.537542,30.74635 1.839737,30.07418 0.173005,29.52829 0.822947,27.03924 0.434179,25.65651 0.154966,21.09087 0.021365,16.47217 0.692557,11.93449 0.848231,11.32021 0.903907,10.54918 1.435191,10.12791 Z"
         id="rect49496"
         inkscape:connector-curvature="0" />
      <path
         style="display:inline;fill:#000000;stroke-width:0.37203047"
         d="M 1.803349,30.70864 C 0.056742,30.0892 0.231437,27.93756 0.087588,26.427 -0.022935,21.93179 -0.070132,17.42779 0.099217,12.93387 -0.027874,11.27811 1.27784,10.0868 2.683582,9.49431 4.615709,8.56731 6.836395,8.9315 8.909365,8.7639 16.59615,8.63948 24.285544,8.62691 31.972812,8.67993 c 2.150882,0.14121 4.537543,-0.0199 6.403551,1.23592 1.58486,1.37874 1.255708,3.71898 1.302004,5.60595 -0.178243,4.07095 0.01584,8.16305 -0.388876,12.21995 -0.293352,1.71142 -2.120394,2.65314 -3.654582,3.02944 -6.368162,0.39372 -12.757085,0.28816 -19.135233,0.3134 C 11.668868,31.0283 6.826658,31.10952 2.006621,30.75364 L 1.803349,30.7086 Z m 34.717949,-1.05781 c 1.660436,-0.66982 2.120657,-2.56797 2.182495,-4.18169 C 38.903556,21.6571 38.926032,17.82461 38.6784,14.01451 38.609934,12.47205 38.055319,10.73538 36.494762,10.11382 34.51138,9.13075 32.202264,9.50823 30.063573,9.36171 22.019563,9.34057 13.971808,9.23982 5.930238,9.4697 4.247551,9.52117 2.061367,9.74531 1.291134,11.49417 c -0.682107,2.6627 -0.37748,5.45735 -0.46467,8.18069 0.080658,2.82901 -0.202804,5.71611 0.421771,8.49628 0.655233,1.84726 2.893842,2.0042 4.558802,2.11114 8.176545,0.4213 16.369453,0.15886 24.551012,0.03302 2.04628,-0.14679 4.225389,0.10711 6.163249,-0.66447 z M 4.297406,28.9474 c -0.939032,0.02717 -2.493051,-2.1182 -0.727168,-0.88447 1.706475,0.99084 3.797167,0.59334 5.679761,0.73138 0.843628,0.09701 3.276883,-0.14441 3.328971,0.24148 -2.712643,0.43249 -5.596207,0.56419 -8.281564,-0.08839 z m 31.24001,-17.1062 c -1.499147,-0.78086 -3.308903,-0.4003 -4.94344,-0.53994 -1.173066,-0.10336 -4.022293,-0.01807 -4.347208,-0.50636 2.904245,-0.07023 5.874879,-0.31161 8.734279,0.31742 0.913242,-0.14345 1.834744,2.01352 0.556369,0.72888 z"
         id="path49494"
         inkscape:connector-curvature="0" />
      <path
         style="font-style:normal;font-variant:normal;font-weight:normal;font-stretch:normal;font-size:4.2571373px;font-family:Insaniburger;-inkscape-font-specification:Insaniburger;opacity:1;vector-effect:none;fill:#000000;fill-opacity:1;stroke:none;stroke-width:0.04988832;stroke-linecap:butt;stroke-linejoin:miter;stroke-miterlimit:4;stroke-dasharray:none;stroke-dashoffset:0;stroke-opacity:1"
         d="m 5.8031386,28.022303 c -0.6150017,0.07354 -1.4880827,0.04256 -1.2463926,-0.818172 0.053602,-0.627541 -0.1161663,-1.31385 0.1028273,-1.899401 1.0669045,-0.427107 2.5599159,0.280324 2.187419,1.638032 -0.092769,0.527418 -0.467991,1.04839 -1.0438537,1.079541 z M 6.116814,26.593315 C 5.8300612,25.115485 5.0837443,26.027143 5.3793651,26.966257 5.1270257,27.975814 6.3073254,27.226349 6.116814,26.593315 Z m 3.8783583,-0.0021 c 0.028609,2.513371 -4.167453,1.303459 -2.7368705,-0.837347 0.7444555,-1.151854 2.8449742,-0.617155 2.7368705,0.837347 z M 9.010522,26.069144 C 7.2272109,24.979359 7.918764,28.580901 9.1502218,26.8762 9.2382164,26.608551 9.2098459,26.283084 9.010522,26.069144 Z m 2.407615,1.953159 c -0.615001,0.07354 -1.4880826,0.04256 -1.246392,-0.818172 0.0536,-0.627541 -0.116167,-1.31385 0.102826,-1.899401 1.066905,-0.427107 2.559916,0.280324 2.18742,1.638032 -0.09277,0.527418 -0.467992,1.04839 -1.043854,1.079541 z m 0.313676,-1.428988 c -0.286754,-1.47783 -1.03307,-0.566172 -0.73745,0.372942 -0.252338,1.009557 0.927961,0.260092 0.73745,-0.372942 z m 3.221924,-0.293286 c -0.960039,-0.241789 -1.178401,0.5725 -0.506476,0.866597 -1.636635,0.641144 -0.929864,-2.291091 0.481549,-1.097482 1.011786,-1.369241 -2.808528,-1.206561 -2.289208,0.522091 -0.286024,1.594257 2.859882,2.128289 2.634043,0.392411 -0.0061,-0.252886 0.06717,-0.697961 -0.319908,-0.683617 z m 1.348181,1.360347 c -0.58696,1.022085 -1.030659,-0.373594 -0.822618,-1.00374 -0.06257,-0.57221 -0.07683,-1.955545 0.796911,-1.238804 0.05809,0.741914 0.01,1.496946 0.02571,2.242544 z m 1.902826,-1.193944 c -0.299851,-0.683232 0.474238,-1.917544 0.822619,-0.799008 -0.05685,0.748584 0.120857,1.558081 -0.102827,2.264397 -0.753282,0.317272 -1.072242,-0.71053 -1.549703,-1.11518 0.11619,0.344331 -0.273194,1.946015 -0.865183,0.843735 0.05758,-0.778495 -0.121899,-1.618534 0.102827,-2.354607 0.724081,-0.376357 1.131303,0.784245 1.592267,1.160663 z m 3.307096,1.555871 c -0.615002,0.07354 -1.488083,0.04256 -1.246392,-0.818172 0.0536,-0.627541 -0.116167,-1.31385 0.102826,-1.899401 1.066905,-0.427107 2.559916,0.280324 2.18742,1.638032 -0.09277,0.527418 -0.467992,1.04839 -1.043854,1.079541 z m 0.313676,-1.428988 c -0.286754,-1.47783 -1.03307,-0.566172 -0.73745,0.372942 -0.252339,1.009557 0.927961,0.260092 0.73745,-0.372942 z m 1.761567,1.067061 c -0.586959,1.022085 -1.03066,-0.373594 -0.822619,-1.00374 -0.06256,-0.57221 -0.07683,-1.955545 0.796913,-1.238804 0.05809,0.741914 0.01,1.496946 0.02571,2.242544 z m 1.657702,-0.798736 c -0.126839,-1.115003 -0.654816,0.267378 0,0 z m -0.602424,0.665613 c -0.657835,1.243821 -1.104833,-0.385324 -0.448152,-0.983929 0.218331,-0.573143 0.778115,-1.985096 1.338491,-0.880329 0.268878,0.652024 0.644741,1.267568 0.837993,1.94538 -0.476019,1.096969 -0.841035,-0.543296 -1.728332,-0.08112 z m 3.275936,-1.447709 c 0.260643,-0.5977 1.452622,-1.381493 1.371031,-0.229622 -0.05537,0.688038 0.118729,1.436002 -0.102826,2.081899 -0.968051,0.422005 -0.68564,-0.867028 -0.719792,-1.419628 -0.35968,0.660838 -0.720341,0.70777 -1.082171,0.02128 -0.120313,0.432221 0.307713,1.656993 -0.605913,1.466209 -0.458218,-0.419763 -0.133604,-1.215214 -0.231361,-1.799292 -0.305675,-0.964422 0.732703,-1.283578 1.140653,-0.396014 0.07679,0.09172 0.153586,0.183446 0.230379,0.275168 z m 4.518172,0.511691 c 0.02861,2.513371 -4.167453,1.303459 -2.73687,-0.837347 0.744455,-1.151854 2.844973,-0.617155 2.73687,0.837347 z m -0.98465,-0.522091 c -1.783311,-1.089785 -1.091758,2.511757 0.1397,0.807056 0.08799,-0.267649 0.05962,-0.593116 -0.1397,-0.807056 z m 2.856317,0.397288 c -0.299851,-0.683232 0.474238,-1.917544 0.822619,-0.799008 -0.05685,0.748584 0.120857,1.558081 -0.102828,2.264397 -0.753281,0.317272 -1.072242,-0.71053 -1.549702,-1.11518 0.11619,0.344331 -0.273194,1.946015 -0.865184,0.843735 0.05758,-0.778495 -0.121899,-1.618534 0.102828,-2.354607 0.724081,-0.376357 1.131302,0.784245 1.592267,1.160663 z"
         id="text49550"
         inkscape:connector-curvature="0" />
      <g
         id="g53695"
         transform="matrix(0.23216083,0,0,0.26739887,-40.66702,-79.695953)">
        <path
           style="fill:#000000;fill-opacity:1;stroke-width:0.56041962"
           d="m 225.79653,381.36576 c -5.04874,-5.70045 -3.09798,-14.35633 -2.45039,-21.29598 2.14357,-8.89697 7.83465,-18.94365 17.6609,-20.54413 7.25222,-1.3964 13.14991,3.76259 20.06409,4.17152 6.86243,-0.25136 12.65893,-5.79643 19.79539,-4.07863 10.07438,0.99305 15.61039,11.35051 17.88548,20.14 0.72391,7.0246 2.71218,15.81255 -2.37779,21.60722 -6.22795,4.55619 -12.2931,-2.23293 -16.91721,-5.91504 -5.78798,-5.77763 -14.55245,-3.45633 -21.84303,-3.96964 -6.37158,-0.56289 -12.86431,0.86093 -17.22384,5.87987 -3.90129,3.36771 -9.44686,8.07986 -14.5936,4.00481 z"
           id="path53677"
           inkscape:connector-curvature="0" />
        <path
           style="fill:#ffffff;fill-opacity:1;stroke-width:0.56041962"
           d="m 277.9872,362.41501 c 5.58994,-5.40079 -8.06317,-7.57497 -4.77264,-0.67341 1.23932,1.3571 3.24548,2.00683 4.77264,0.67341 z"
           id="path53675"
           inkscape:connector-curvature="0" />
        <path
           style="fill:#ffffff;fill-opacity:1;stroke-width:0.56041962"
           d="m 247.09052,359.86347 c 0.27723,-3.25746 8.70112,-2.32963 4.12382,-6.78295 -5.26871,1.19244 -3.64993,-8.73224 -9.37797,-3.68051 1.20337,5.19333 -8.41269,2.02905 -5.05105,7.57352 3.38408,0.29645 5.45041,0.84964 5.40535,4.6496 1.57622,0.88603 5.19447,0.91959 4.89985,-1.75966 z"
           id="path53673"
           inkscape:connector-curvature="0" />
        <path
           style="fill:#fffffc;fill-opacity:1;stroke-width:0.56041962"
           d="m 288.72216,357.58638 c 4.50178,-7.79772 -11.51832,-3.99212 -3.56811,0.81562 1.22542,0.443 2.60725,-0.0116 3.56811,-0.81562 z"
           id="path53671"
           inkscape:connector-curvature="0" />
        <path
           style="fill:#f8ffff;fill-opacity:1;stroke-width:0.56041962"
           d="m 278.37813,352.42476 c 4.38079,-8.166 -11.41132,-4.0188 -3.58973,0.81533 1.23238,0.44154 2.62307,-0.004 3.58973,-0.81533 z"
           id="path53664"
           inkscape:connector-curvature="0" />
      </g>
    </g>
  </g>
</svg>
