<svg style="position: absolute; width: 0; height: 0; overflow: hidden;" version="1.1" xmlns="http://www.w3.org/2000/svg" xmlns:xlink="http://www.w3.org/1999/xlink">
<defs>
<!--
Feather free svg icons. [https://github.com/feathericons]
Cole Bemis - MIT
-->
<symbol id="icon-pp-menu" viewBox="0 0 32 32">
<path d="M4 17.333h24c0.736 0 1.333-0.597 1.333-1.333s-0.597-1.333-1.333-1.333h-24c-0.736 0-1.333 0.597-1.333 1.333s0.597 1.333 1.333 1.333zM4 9.333h24c0.736 0 1.333-0.597 1.333-1.333s-0.597-1.333-1.333-1.333h-24c-0.736 0-1.333 0.597-1.333 1.333s0.597 1.333 1.333 1.333zM4 25.333h24c0.736 0 1.333-0.597 1.333-1.333s-0.597-1.333-1.333-1.333h-24c-0.736 0-1.333 0.597-1.333 1.333s0.597 1.333 1.333 1.333z"></path>
</symbol>
<symbol id="icon-pp-search" viewBox="0 0 32 32">
<path d="M21.388 21.141c-0.045 0.035-0.089 0.073-0.132 0.116s-0.080 0.085-0.116 0.132c-0.836 0.805-1.82 1.455-2.907 1.905-1.096 0.453-2.3 0.705-3.567 0.705s-2.471-0.252-3.569-0.707c-1.141-0.472-2.169-1.165-3.031-2.028s-1.555-1.889-2.028-3.031c-0.453-1.097-0.705-2.301-0.705-3.568s0.252-2.471 0.707-3.569c0.472-1.14 1.165-2.169 2.027-3.031s1.891-1.555 3.031-2.027c1.099-0.455 2.303-0.707 3.569-0.707s2.471 0.252 3.569 0.707c1.141 0.472 2.169 1.165 3.031 2.028s1.555 1.889 2.028 3.031c0.453 1.097 0.705 2.301 0.705 3.568s-0.252 2.471-0.707 3.569c-0.451 1.087-1.1 2.071-1.905 2.907zM28.943 27.057l-4.9-4.9c0.7-0.875 1.28-1.849 1.715-2.901 0.587-1.416 0.909-2.967 0.909-4.589s-0.323-3.173-0.909-4.589c-0.608-1.469-1.5-2.791-2.605-3.896s-2.427-1.997-3.896-2.605c-1.416-0.587-2.967-0.909-4.589-0.909s-3.173 0.323-4.589 0.909c-1.469 0.608-2.791 1.5-3.896 2.605s-1.997 2.427-2.605 3.896c-0.587 1.416-0.909 2.967-0.909 4.589s0.323 3.173 0.909 4.589c0.608 1.469 1.5 2.791 2.605 3.896s2.427 1.997 3.896 2.605c1.416 0.587 2.967 0.909 4.589 0.909s3.173-0.323 4.589-0.909c1.051-0.436 2.027-1.016 2.901-1.715l4.9 4.9c0.521 0.521 1.365 0.521 1.885 0s0.521-1.365 0-1.885z"></path>
</symbol>
<symbol id="icon-pp-x" viewBox="0 0 32 32">
<path d="M7.057 8.943l7.057 7.057-7.057 7.057c-0.521 0.521-0.521 1.365 0 1.885s1.365 0.521 1.885 0l7.057-7.057 7.057 7.057c0.521 0.521 1.365 0.521 1.885 0s0.521-1.365 0-1.885l-7.057-7.057 7.057-7.057c0.521-0.521 0.521-1.365 0-1.885s-1.365-0.521-1.885 0l-7.057 7.057-7.057-7.057c-0.521-0.521-1.365-0.521-1.885 0s-0.521 1.365 0 1.885z"></path>
</symbol>
<!--
Icomoon free svg icons. [https://icomoon.io]
Keyamoon - GPL / CC BY 4.0
-->
<symbol id="icon-pp-facebook" viewBox="0 0 32 32">
<path d="M19 6h5v-6h-5c-3.86 0-7 3.14-7 7v3h-4v6h4v16h6v-16h5l1-6h-6v-3c0-0.542 0.458-1 1-1z"></path>
</symbol>
<symbol id="icon-pp-linkedin" viewBox="0 0 32 32">
<path d="M12 12h5.535v2.837h0.079c0.77-1.381 2.655-2.837 5.464-2.837 5.842 0 6.922 3.637 6.922 8.367v9.633h-5.769v-8.54c0-2.037-0.042-4.657-3.001-4.657-3.005 0-3.463 2.218-3.463 4.509v8.688h-5.767v-18z"></path>
<path d="M2 12h6v18h-6v-18z"></path>
<path d="M8 7c0 1.657-1.343 3-3 3s-3-1.343-3-3c0-1.657 1.343-3 3-3s3 1.343 3 3z"></path>
</symbol>
<symbol id="icon-pp-mail" viewBox="0 0 32 32">
<path d="M29 4h-26c-1.65 0-3 1.35-3 3v20c0 1.65 1.35 3 3 3h26c1.65 0 3-1.35 3-3v-20c0-1.65-1.35-3-3-3zM12.461 17.199l-8.461 6.59v-15.676l8.461 9.086zM5.512 8h20.976l-10.488 7.875-10.488-7.875zM12.79 17.553l3.21 3.447 3.21-3.447 6.58 8.447h-19.579l6.58-8.447zM19.539 17.199l8.461-9.086v15.676l-8.461-6.59z"></path>
</symbol>
<symbol id="icon-pp-twitter" viewBox="0 0 32 32">
<path d="M32 7.075c-1.175 0.525-2.444 0.875-3.769 1.031 1.356-0.813 2.394-2.1 2.887-3.631-1.269 0.75-2.675 1.3-4.169 1.594-1.2-1.275-2.906-2.069-4.794-2.069-3.625 0-6.563 2.938-6.563 6.563 0 0.512 0.056 1.012 0.169 1.494-5.456-0.275-10.294-2.888-13.531-6.862-0.563 0.969-0.887 2.1-0.887 3.3 0 2.275 1.156 4.287 2.919 5.463-1.075-0.031-2.087-0.331-2.975-0.819 0 0.025 0 0.056 0 0.081 0 3.181 2.263 5.838 5.269 6.437-0.55 0.15-1.131 0.231-1.731 0.231-0.425 0-0.831-0.044-1.237-0.119 0.838 2.606 3.263 4.506 6.131 4.563-2.25 1.762-5.075 2.813-8.156 2.813-0.531 0-1.050-0.031-1.569-0.094 2.913 1.869 6.362 2.95 10.069 2.95 12.075 0 18.681-10.006 18.681-18.681 0-0.287-0.006-0.569-0.019-0.85 1.281-0.919 2.394-2.075 3.275-3.394z"></path>
</symbol>
<symbol id="icon-pp-play" viewBox="0 0 32 32">
<path d="M6 4l20 12-20 12z"></path>
</symbol>
<symbol id="icon-pp-pause" viewBox="0 0 32 32">
<path d="M4 4h10v24h-10zM18 4h10v24h-10z"></path>
</symbol>
<symbol id="icon-pp-download" viewBox="0 0 32 32">
<path d="M23 14l-8 8-8-8h5v-12h6v12zM15 22h-15v8h30v-8h-15zM28 26h-4v-2h4v2z"></path>
</symbol>
<symbol id="icon-pp-maximize" viewBox="0 0 32 32">
<path d="M32 0h-13l5 5-6 6 3 3 6-6 5 5z"></path>
<path d="M32 32v-13l-5 5-6-6-3 3 6 6-5 5z"></path>
<path d="M0 32h13l-5-5 6-6-3-3-6 6-5-5z"></path>
<path d="M0 0v13l5-5 6 6 3-3-6-6 5-5z"></path>
</symbol>
<symbol id="icon-pp-minimize" viewBox="0 0 32 32">
<path d="M18 14h13l-5-5 6-6-3-3-6 6-5-5z"></path>
<path d="M18 18v13l5-5 6 6 3-3-6-6 5-5z"></path>
<path d="M14 18h-13l5 5-6 6 3 3 6-6 5 5z"></path>
<path d="M14 14v-13l-5 5-6-6-3 3 6 6-5 5z"></path>
</symbol>
<symbol id="icon-pp-refresh" viewBox="0 0 32 32">
<path d="M32 16c-0.040-2.089-0.493-4.172-1.331-6.077-0.834-1.906-2.046-3.633-3.533-5.060-1.486-1.428-3.248-2.557-5.156-3.302-1.906-0.748-3.956-1.105-5.981-1.061-2.025 0.040-4.042 0.48-5.885 1.292-1.845 0.809-3.517 1.983-4.898 3.424s-2.474 3.147-3.193 4.994c-0.722 1.846-1.067 3.829-1.023 5.79 0.040 1.961 0.468 3.911 1.254 5.694 0.784 1.784 1.921 3.401 3.316 4.736 1.394 1.336 3.046 2.391 4.832 3.085 1.785 0.697 3.701 1.028 5.598 0.985 1.897-0.040 3.78-0.455 5.502-1.216 1.723-0.759 3.285-1.859 4.574-3.208 1.29-1.348 2.308-2.945 2.977-4.67 0.407-1.046 0.684-2.137 0.829-3.244 0.039 0.002 0.078 0.004 0.118 0.004 1.105 0 2-0.895 2-2 0-0.056-0.003-0.112-0.007-0.167h0.007zM28.822 21.311c-0.733 1.663-1.796 3.169-3.099 4.412s-2.844 2.225-4.508 2.868c-1.663 0.646-3.447 0.952-5.215 0.909-1.769-0.041-3.519-0.429-5.119-1.14-1.602-0.708-3.053-1.734-4.25-2.991s-2.141-2.743-2.76-4.346c-0.621-1.603-0.913-3.319-0.871-5.024 0.041-1.705 0.417-3.388 1.102-4.928 0.683-1.541 1.672-2.937 2.883-4.088s2.642-2.058 4.184-2.652c1.542-0.596 3.192-0.875 4.832-0.833 1.641 0.041 3.257 0.404 4.736 1.064 1.48 0.658 2.82 1.609 3.926 2.774s1.975 2.54 2.543 4.021c0.57 1.481 0.837 3.064 0.794 4.641h0.007c-0.005 0.055-0.007 0.11-0.007 0.167 0 1.032 0.781 1.88 1.784 1.988-0.195 1.088-0.517 2.151-0.962 3.156z"></path>
</symbol>
<symbol id="icon-pp-text" viewBox="0 0 32 32">
<path d="M27 0h-24c-1.65 0-3 1.35-3 3v26c0 1.65 1.35 3 3 3h24c1.65 0 3-1.35 3-3v-26c0-1.65-1.35-3-3-3zM26 28h-22v-24h22v24zM8 14h14v2h-14zM8 18h14v2h-14zM8 22h14v2h-14zM8 10h14v2h-14z"></path>
</symbol>
<!--
Entypo+ SVG Icons (Refer credits.txt for more info)
Daniel Bruce — CC BY-SA 4.0 [http://www.entypo.com/]
-->
<symbol id="icon-pp-drop-down" viewBox="0 0 32 32">
<path d="M7.226 12.077c0.698-0.714 1.669-0.77 2.522 0l6.253 5.995 6.253-5.995c0.853-0.77 1.826-0.714 2.518 0 0.698 0.712 0.653 1.915 0 2.584-0.65 0.669-7.512 7.203-7.512 7.203-0.347 0.357-0.803 0.536-1.259 0.536s-0.912-0.179-1.262-0.536c0 0-6.859-6.534-7.512-7.203-0.654-0.669-0.698-1.872 0-2.584z"></path>
</symbol>
<symbol id="icon-pp-share" viewBox="0 0 32 32">
<path d="M24 21.507c-1.013 0-1.926 0.394-2.619 1.027l-9.501-5.541c0.074-0.301 0.12-0.614 0.12-0.934s-0.046-0.632-0.12-0.933l9.4-5.486c0.714 0.667 1.667 1.080 2.72 1.080 2.206 0 4-1.794 4-4s-1.794-4-4-4-4 1.794-4 4c0 0.32 0.046 0.634 0.12 0.933l-9.4 5.486c-0.714-0.666-1.667-1.080-2.72-1.080-2.206 0-4 1.794-4 4s1.794 4 4 4c1.053 0 2.006-0.413 2.72-1.080l9.501 5.541c-0.067 0.28-0.107 0.573-0.107 0.874 0 2.147 1.739 3.886 3.886 3.886s3.886-1.741 3.886-3.886-1.739-3.886-3.886-3.886z"></path>
</symbol>
<!--
Mediaelement js svg icons. [https://github.com/mediaelement/mediaelement-plugins]
John Dyer and Rafael Miranda - MIT
-->
<symbol id="icon-pp-rotate-ccw" viewBox="0 0 32 32">
<path d="M19.2 0v7.242l-7.242-3.705 7.242-3.537z"></path>
<path d="M14.653 0v7.242l-7.242-3.705 7.242-3.537z"></path>
<path fill="none" stroke-linejoin="miter" stroke-linecap="butt" stroke-miterlimit="4" stroke-width="3.3684" d="M29.474 17.179v0c0 0 0 0 0 0 0-7.579-6.232-13.642-13.811-13.642"></path>
<path fill="none" stroke-linejoin="miter" stroke-linecap="butt" stroke-miterlimit="4" stroke-width="3.3684" d="M15.663 30.316v0c0 0 0 0 0 0 7.579 0 13.642-6.232 13.642-13.811"></path>
<path fill="none" stroke-linejoin="miter" stroke-linecap="butt" stroke-miterlimit="4" stroke-width="3.3684" d="M2.526 16.674v0c0 0 0 0 0 0 0 7.579 6.232 13.642 13.811 13.642"></path>
</symbol>
<symbol id="icon-pp-rotate-cw" viewBox="0 0 32 32">
<path d="M20.042 3.537l-7.242 3.705v-7.242z"></path>
<path d="M24.589 3.537l-7.242 3.705v-7.242z"></path>
<path fill="none" stroke-linejoin="miter" stroke-linecap="butt" stroke-miterlimit="4" stroke-width="3.3684" d="M16.337 3.537c-0.025-0-0.055-0-0.084-0-7.551 0-13.678 6.098-13.726 13.638l-0 0.005"></path>
<path fill="none" stroke-linejoin="miter" stroke-linecap="butt" stroke-miterlimit="4" stroke-width="3.3684" d="M2.695 16.505c-0 0.025-0 0.055-0 0.084 0 7.551 6.098 13.678 13.638 13.726l0.005 0"></path>
<path fill="none" stroke-linejoin="miter" stroke-linecap="butt" stroke-miterlimit="4" stroke-width="3.3684" d="M15.663 30.316c0.025 0 0.055 0 0.084 0 7.551 0 13.678-6.098 13.726-13.638l0-0.005"></path>
</symbol>
<!--
Font Awesomw svg icons. [https://github.com/FortAwesome/Font-Awesome]
Dave Gandy - CC BY 4.0
-->
<symbol id="icon-pp-circle" viewBox="0 0 32 32">
<path d="M16 0.64c-8.483 0-15.36 6.877-15.36 15.36s6.877 15.36 15.36 15.36c8.482 0 15.36-6.877 15.36-15.362 0-8.482-6.878-15.358-15.36-15.358zM16 28.158c-6.715 0-12.16-5.443-12.16-12.16s5.443-12.158 12.16-12.158c6.715 0 12.162 5.443 12.162 12.16s-5.446 12.158-12.162 12.158z"></path>
</symbol>
</defs>
</svg>
