<?xml version="1.0" encoding="UTF-8" standalone="no"?>
<!-- Created with Inkscape (http://www.inkscape.org/) -->

<svg
   xmlns:dc="http://purl.org/dc/elements/1.1/"
   xmlns:cc="http://creativecommons.org/ns#"
   xmlns:rdf="http://www.w3.org/1999/02/22-rdf-syntax-ns#"
   xmlns:svg="http://www.w3.org/2000/svg"
   xmlns="http://www.w3.org/2000/svg"
   xmlns:sodipodi="http://sodipodi.sourceforge.net/DTD/sodipodi-0.dtd"
   xmlns:inkscape="http://www.inkscape.org/namespaces/inkscape"
   width="150"
   height="150"
   viewBox="0 0 39.6875 39.6875"
   version="1.1"
   id="svg922"
   inkscape:version="0.92.4 (5da689c313, 2019-01-14)"
   sodipodi:docname="USO_UTILITIES_vim.svg">
  <defs
     id="defs916">
    <clipPath
       clipPathUnits="userSpaceOnUse"
       id="clipPath1521">
      <rect
         style="opacity:0.875;fill:#000000;fill-opacity:1;stroke:#000000;stroke-width:0.60403091;stroke-linejoin:round;stroke-miterlimit:4;stroke-dasharray:none;stroke-opacity:1"
         id="rect1523"
         width="172.87534"
         height="151.42299"
         x="57.114269"
         y="66.644836" />
    </clipPath>
  </defs>
  <sodipodi:namedview
     id="base"
     pagecolor="#ffffff"
     bordercolor="#666666"
     borderopacity="1.0"
     inkscape:pageopacity="0.0"
     inkscape:pageshadow="2"
     inkscape:zoom="0.75657248"
     inkscape:cx="181.80406"
     inkscape:cy="219.70631"
     inkscape:document-units="px"
     inkscape:current-layer="layer1"
     showgrid="false"
     inkscape:window-width="1262"
     inkscape:window-height="792"
     inkscape:window-x="1971"
     inkscape:window-y="103"
     inkscape:window-maximized="0"
     units="px" />
  <metadata
     id="metadata919">
    <rdf:RDF>
      <cc:Work
         rdf:about="">
        <dc:format>image/svg+xml</dc:format>
        <dc:type
           rdf:resource="http://purl.org/dc/dcmitype/StillImage" />
        <dc:title></dc:title>
      </cc:Work>
    </rdf:RDF>
  </metadata>
  <g
     inkscape:label="Layer 1"
     inkscape:groupmode="layer"
     id="layer1"
     transform="translate(-35.425468,-112.58038)">
    <g
       id="g3656"
       transform="matrix(0.2980795,0,0,0.28977881,24.865862,99.544917)">
      <path
         style="opacity:0.875;fill:#999999;fill-opacity:1;stroke:none;stroke-width:0.40600324;stroke-linejoin:round;stroke-miterlimit:4;stroke-dasharray:none;stroke-opacity:0.97175137"
         d="m 40.541649,79.335309 c 4.132647,-2.879859 9.751769,-2.413278 14.58294,-3.21176 27.840639,-2.044923 55.827121,-1.782311 83.687971,-0.23939 8.44978,0.729291 17.10358,0.925502 25.25914,3.45115 2.84038,5.409997 2.65096,11.873441 3.36881,17.839295 0.82417,14.162196 1.31119,28.565636 -1.46937,42.549666 -0.41934,5.71762 -6.02423,8.04253 -11.01184,8.61505 -20.19657,3.03328 -40.70475,2.906 -61.081918,3.01564 -17.041409,-0.24022 -34.168681,-0.19989 -51.090555,-2.42806 -6.472855,-0.76422 -4.229449,-9.70709 -5.525019,-14.2761 -1.050395,-16.30828 -1.537946,-32.80636 0.773143,-49.027833 0.528995,-2.131985 0.698082,-4.796009 2.506698,-6.287658 z"
         id="rect49496"
         inkscape:connector-curvature="0" />
      <path
         style="fill:#000000;stroke-width:1.26563919"
         d="m 41.515717,150.96879 c -5.711702,-2.05781 -5.238774,-9.06062 -5.717979,-14.02153 -0.436585,-15.75811 -0.553309,-31.54812 0.0015,-47.303521 -0.436441,-5.625053 3.875375,-9.795276 8.669277,-11.866878 6.455445,-3.192618 13.930493,-1.944564 20.884436,-2.520022 25.785183,-0.429233 51.579629,-0.472642 77.366519,-0.289685 7.22043,0.480561 15.26629,-0.05239 21.48077,4.264067 5.34492,4.83908 4.20747,12.821592 4.36759,19.341185 -0.60054,14.045514 0.0527,28.160374 -1.30449,42.160284 -0.93746,5.8118 -7.04218,9.14968 -12.25933,10.45193 -21.14906,1.35016 -42.37134,0.99396 -63.555869,1.08326 -16.415858,-0.19492 -32.872923,0.0952 -49.250499,-1.14372 l -0.681877,-0.15538 z m 116.461643,-3.64957 c 5.89794,-2.48774 7.14588,-9.3942 7.37251,-15.08897 0.55887,-13.34277 0.79145,-26.75998 -0.26771,-40.08197 -0.22661,-5.235691 -2.71782,-10.65847 -7.89603,-12.600489 -6.52228,-2.878882 -13.9327,-1.775744 -20.87126,-2.228431 -26.98361,-0.0728 -53.980521,-0.420882 -80.955472,0.372513 -5.686102,0.154822 -13.059572,1.026894 -15.561912,6.984748 -2.261649,8.967295 -1.276409,18.362109 -1.558615,27.527999 0.269809,9.99414 -0.711559,20.17732 1.414706,30.00948 2.112716,6.2884 9.661191,6.94096 15.292543,7.2837 27.426906,1.45354 54.91187,0.54809 82.35657,0.11392 6.86318,-0.50478 14.19529,0.36585 20.67467,-2.2925 z M 49.882052,144.89229 c -3.177542,0.0711 -8.355599,-7.29975 -2.439293,-3.05152 5.691698,3.40971 12.738389,2.05204 19.052805,2.52335 2.829236,0.33382 11.00279,-0.49673 11.167062,0.83313 -9.090656,1.49246 -18.786591,1.94553 -27.780574,-0.30496 z M 154.67692,85.873908 c -5.00297,-2.688572 -11.10143,-1.384211 -16.58281,-1.86289 -3.93588,-0.355548 -13.5043,-0.06474 -14.58274,-1.74698 9.37487,-0.304485 18.90303,-0.887454 28.18216,0.794039 3.27525,-1.122296 7.81354,7.281155 2.98339,2.815831 z"
         id="path49494"
         inkscape:connector-curvature="0" />
      <path
         style="font-style:normal;font-variant:normal;font-weight:normal;font-stretch:normal;font-size:16.97093201px;font-family:Insaniburger;-inkscape-font-specification:Insaniburger;opacity:1;vector-effect:none;fill:#000000;fill-opacity:1;stroke:none;stroke-width:0.19887809;stroke-linecap:butt;stroke-linejoin:miter;stroke-miterlimit:4;stroke-dasharray:none;stroke-dashoffset:0;stroke-opacity:1"
         d="m 92.970773,141.06888 c -1.999418,-1.03801 -2.214421,-4.49556 -3.30202,-6.70212 -2.116322,-2.52829 -0.536525,-9.1292 1.752766,-4.07556 0.705083,1.19098 1.414853,6.18315 2.114221,2.72248 0.180368,-3.37767 4.588603,-7.32832 3.711728,-1.39271 -1.332355,3.07461 -1.960796,6.85441 -3.864621,9.3649 z m 8.142437,-1.66474 c -1.734784,4.37231 -3.708915,-1.022 -2.907486,-3.82613 0.303757,-2.30704 -0.737148,-5.49184 0.817724,-7.07073 3.081142,-0.75861 1.841862,4.09279 2.089762,6.39523 0,1.50054 0,3.00108 0,4.50163 z m 5.58003,-7.10792 c 0.95221,-2.07756 4.23393,-6.29463 4.84581,-1.91549 -0.0552,3.24257 0.1138,6.50818 -0.0909,9.73536 -2.78551,3.13674 -3.13872,-2.37862 -2.81663,-4.8859 -0.0472,-2.65288 -1.96736,4.32939 -2.82685,0.59017 -1.60939,-3.34963 -0.90674,1.26207 -1.0498,2.96166 -0.50511,4.8041 -4.07417,0.71277 -2.90749,-2.50835 0.1707,-2.47234 -0.3828,-5.1879 0.36344,-7.47529 2.13573,-1.62708 3.24069,2.02741 4.48238,3.49784 z"
         id="text49550"
         inkscape:connector-curvature="0" />
      <path
         style="fill:#000000;fill-opacity:1;stroke-width:0.45704398"
         clip-path="none"
         d="m 115.3685,82.597346 c -4.59159,3.579015 -7.83863,8.865645 -11.86476,13.146865 -2.23146,4.329689 -5.117726,3.130322 -7.271744,-0.573586 -4.03955,-3.98509 -6.818304,-10.02802 -11.855702,-12.521365 -3.887945,2.879083 -2.99108,9.578062 0.05121,12.970871 2.625318,4.725289 9.557135,4.917829 12.389753,8.221379 -3.493963,4.40572 -8.687162,4.86818 -13.676138,6.60313 -7.372773,3.25522 -6.044771,14.13249 1.380004,16.39368 6.260428,2.56415 15.339372,-1.38394 14.909245,-8.9454 -0.794859,-3.66154 -3.659618,-8.21308 0.815962,-10.57682 6.23084,3.60554 -0.531602,8.86507 1.6851,13.82446 3.24141,8.78531 17.52619,8.37815 20.55335,-0.39227 2.5231,-6.46857 -4.8741,-12.18187 -10.87273,-11.86735 -2.96935,-0.82508 -7.04708,-2.94831 -8.02236,-5.86649 5.14594,-2.0101 11.00118,-4.152961 13.61623,-9.486255 1.66294,-3.10537 2.37455,-9.573383 -1.83742,-10.930849 z M 100.19244,101.7243 c 3.9322,1.81953 -3.670072,1.66659 0,0 z m -11.615161,10.98553 c 6.519488,-0.64682 8.93838,9.10567 2.276621,10.80242 -5.128801,2.08947 -11.945203,-4.80061 -6.529218,-8.98638 1.164524,-1.03944 2.663549,-1.8022 4.252597,-1.81604 z m 23.667781,0 c 5.7357,-0.85925 9.0021,7.72322 3.49104,10.31401 -4.85177,3.42742 -12.70295,-2.36272 -8.97712,-7.71816 1.45538,-1.54464 3.22251,-2.91016 5.48608,-2.59585 z"
         id="path53795"
         inkscape:connector-curvature="0" />
    </g>
  </g>
</svg>
