<?xml version="1.0" encoding="UTF-8" standalone="no"?>
<!-- Created with Inkscape (http://www.inkscape.org/) -->

<svg
   xmlns:dc="http://purl.org/dc/elements/1.1/"
   xmlns:cc="http://creativecommons.org/ns#"
   xmlns:rdf="http://www.w3.org/1999/02/22-rdf-syntax-ns#"
   xmlns:svg="http://www.w3.org/2000/svg"
   xmlns="http://www.w3.org/2000/svg"
   xmlns:sodipodi="http://sodipodi.sourceforge.net/DTD/sodipodi-0.dtd"
   xmlns:inkscape="http://www.inkscape.org/namespaces/inkscape"
   width="150"
   height="150"
   viewBox="0 0 39.6875 39.6875"
   version="1.1"
   id="svg922"
   inkscape:version="0.92.4 (5da689c313, 2019-01-14)"
   sodipodi:docname="USO_GAMES_frozen_bubble.svg">
  <defs
     id="defs916">
    <clipPath
       clipPathUnits="userSpaceOnUse"
       id="clipPath1521">
      <rect
         style="opacity:0.875;fill:#000000;fill-opacity:1;stroke:#000000;stroke-width:0.60403091;stroke-linejoin:round;stroke-miterlimit:4;stroke-dasharray:none;stroke-opacity:1"
         id="rect1523"
         width="172.87534"
         height="151.42299"
         x="57.114269"
         y="66.644836" />
    </clipPath>
  </defs>
  <sodipodi:namedview
     id="base"
     pagecolor="#ffffff"
     bordercolor="#666666"
     borderopacity="1.0"
     inkscape:pageopacity="0.0"
     inkscape:pageshadow="2"
     inkscape:zoom="1.3228155"
     inkscape:cx="334.55389"
     inkscape:cy="153.11515"
     inkscape:document-units="px"
     inkscape:current-layer="layer1"
     showgrid="false"
     inkscape:window-width="1262"
     inkscape:window-height="792"
     inkscape:window-x="2278"
     inkscape:window-y="120"
     inkscape:window-maximized="0"
     units="px" />
  <metadata
     id="metadata919">
    <rdf:RDF>
      <cc:Work
         rdf:about="">
        <dc:format>image/svg+xml</dc:format>
        <dc:type
           rdf:resource="http://purl.org/dc/dcmitype/StillImage" />
        <dc:title></dc:title>
      </cc:Work>
    </rdf:RDF>
  </metadata>
  <g
     inkscape:label="Layer 1"
     inkscape:groupmode="layer"
     id="layer1"
     transform="translate(-35.425468,-112.58038)">
    <g
       id="g5677"
       transform="matrix(0.2980795,0,0,0.28977881,24.865862,99.544917)">
      <path
         style="opacity:0.875;fill:#999999;fill-opacity:1;stroke:none;stroke-width:0.40600324;stroke-linejoin:round;stroke-miterlimit:4;stroke-dasharray:none;stroke-opacity:0.97175137"
         d="m 40.541649,79.335309 c 4.132647,-2.879859 9.751769,-2.413278 14.58294,-3.21176 27.840639,-2.044923 55.827121,-1.782311 83.687971,-0.23939 8.44978,0.729291 17.10358,0.925502 25.25914,3.45115 2.84038,5.409997 2.65096,11.873441 3.36881,17.839295 0.82417,14.162196 1.31119,28.565636 -1.46937,42.549666 -0.41934,5.71762 -6.02423,8.04253 -11.01184,8.61505 -20.19657,3.03328 -40.70475,2.906 -61.081918,3.01564 -17.041409,-0.24022 -34.168681,-0.19989 -51.090555,-2.42806 -6.472855,-0.76422 -4.229449,-9.70709 -5.525019,-14.2761 -1.050395,-16.30828 -1.537946,-32.80636 0.773143,-49.027833 0.528995,-2.131985 0.698082,-4.796009 2.506698,-6.287658 z"
         id="rect49496"
         inkscape:connector-curvature="0" />
      <path
         style="fill:#000000;stroke-width:1.26563919"
         d="m 41.515717,150.96879 c -5.711702,-2.05781 -5.238774,-9.06062 -5.717979,-14.02153 -0.436585,-15.75811 -0.553309,-31.54812 0.0015,-47.303521 -0.436441,-5.625053 3.875375,-9.795276 8.669277,-11.866878 6.455445,-3.192618 13.930493,-1.944564 20.884436,-2.520022 25.785183,-0.429233 51.579629,-0.472642 77.366519,-0.289685 7.22043,0.480561 15.26629,-0.05239 21.48077,4.264067 5.34492,4.83908 4.20747,12.821592 4.36759,19.341185 -0.60054,14.045514 0.0527,28.160374 -1.30449,42.160284 -0.93746,5.8118 -7.04218,9.14968 -12.25933,10.45193 -21.14906,1.35016 -42.37134,0.99396 -63.555869,1.08326 -16.415858,-0.19492 -32.872923,0.0952 -49.250499,-1.14372 l -0.681877,-0.15538 z m 116.461643,-3.64957 c 5.89794,-2.48774 7.14588,-9.3942 7.37251,-15.08897 0.55887,-13.34277 0.79145,-26.75998 -0.26771,-40.08197 -0.22661,-5.235691 -2.71782,-10.65847 -7.89603,-12.600489 -6.52228,-2.878882 -13.9327,-1.775744 -20.87126,-2.228431 -26.98361,-0.0728 -53.980521,-0.420882 -80.955472,0.372513 -5.686102,0.154822 -13.059572,1.026894 -15.561912,6.984748 -2.261649,8.967295 -1.276409,18.362109 -1.558615,27.527999 0.269809,9.99414 -0.711559,20.17732 1.414706,30.00948 2.112716,6.2884 9.661191,6.94096 15.292543,7.2837 27.426906,1.45354 54.91187,0.54809 82.35657,0.11392 6.86318,-0.50478 14.19529,0.36585 20.67467,-2.2925 z M 49.882052,144.89229 c -3.177542,0.0711 -8.355599,-7.29975 -2.439293,-3.05152 5.691698,3.40971 12.738389,2.05204 19.052805,2.52335 2.829236,0.33382 11.00279,-0.49673 11.167062,0.83313 -9.090656,1.49246 -18.786591,1.94553 -27.780574,-0.30496 z M 154.67692,85.873908 c -5.00297,-2.688572 -11.10143,-1.384211 -16.58281,-1.86289 -3.93588,-0.355548 -13.5043,-0.06474 -14.58274,-1.74698 9.37487,-0.304485 18.90303,-0.887454 28.18216,0.794039 3.27525,-1.122296 7.81354,7.281155 2.98339,2.815831 z"
         id="path49494"
         inkscape:connector-curvature="0" />
      <path
         style="font-style:normal;font-variant:normal;font-weight:normal;font-stretch:normal;font-size:16.97093201px;font-family:Insaniburger;-inkscape-font-specification:Insaniburger;opacity:1;vector-effect:none;fill:#000000;fill-opacity:1;stroke:none;stroke-width:0.19887809;stroke-linecap:butt;stroke-linejoin:miter;stroke-miterlimit:4;stroke-dasharray:none;stroke-dashoffset:0;stroke-opacity:1"
         d="m 52.733577,139.40414 c -0.609595,-3.1386 0.573227,-3.3882 2.624817,-3.59137 1.757114,-4.13357 -3.708313,-0.94254 -2.624817,-4.4331 2.480577,1.45476 4.803101,-3.1938 1.251301,-2.9741 -1.985566,-0.25416 -4.911792,-0.20302 -4.15879,3.36648 0.184237,2.92959 -0.402917,6.11504 0.363436,8.85726 0.831471,0.79805 2.665795,0.48624 2.544053,-1.22517 z m 10.029369,-3.74102 c 2.506876,1.68549 1.462692,7.73002 -1.149669,4.04461 -0.894179,-1.28281 -2.504979,-5.30753 -2.036823,-1.37778 0.360008,4.53346 -4.173444,2.30021 -2.907488,-1.36062 0.178548,-2.6975 -0.39452,-5.64653 0.363436,-8.15693 2.000717,-0.50473 4.726404,-1.08919 6.406021,0.79029 1.282254,1.70579 1.022668,4.93828 -0.675477,6.06043 z m -3.186492,-4.71367 c -1.366295,3.54139 2.909729,3.85214 1.762116,0.36007 -0.49337,-0.52856 -1.176341,-0.31356 -1.762116,-0.36007 z m 15.976506,3.64749 c 0.500861,8.12037 -10.284784,8.84961 -10.476207,0.71444 -1.161838,-8.07603 9.473279,-10.17893 10.38443,-2.10855 l 0.06883,0.67966 z m -3.480177,-2.34748 c -5.190174,-4.8844 -5.207933,9.56583 -0.0073,4.67625 0.900024,-1.25492 0.898881,-3.41547 0.0073,-4.67625 z m 7.885463,-0.8885 c -1.749089,0.71126 -5.647268,-0.66934 -2.922173,-2.95539 2.159328,0.2032 4.483014,-0.43437 6.527166,0.3741 0.790759,3.00223 -1.761957,5.288 -2.742479,7.81378 -2.064978,2.69401 1.754915,0.68284 2.735137,1.83568 1.158313,3.65656 -2.627194,2.40533 -4.239955,2.60234 -3.010808,1.15168 -4.210956,-2.41923 -1.896869,-5.01922 0.846391,-1.55043 1.692782,-3.10086 2.539173,-4.65129 z m 9.478713,9.67051 c 3.642751,-2.7397 -2.110461,-2.4032 -2.070488,-4.01759 0.295089,-1.0406 5.18996,-1.56536 1.776797,-3.81982 -2.22908,1.17722 -2.478775,-2.88506 -0.138433,-1.81439 3.497549,-0.75298 0.102832,-4.22094 -2.025429,-2.9741 -2.881264,-0.91099 -2.634604,2.99851 -2.520424,5.45345 0.303759,2.30704 -0.737144,5.49184 0.817731,7.07075 1.375774,0.20926 2.775937,0.0539 4.160246,0.1017 z m 7.856086,-6.99569 c -0.362677,-2.48635 0.109699,-7.82238 2.816635,-4.71483 0.14918,3.57765 0.15013,7.2175 0,10.79514 -2.082871,2.73384 -3.749365,-1.82315 -5.100813,-3.52242 -1.670109,-3.00363 -0.129298,2.97883 -1.162956,4.03097 -3.198195,1.90548 -2.521634,-3.35706 -2.54405,-5.74228 0.206772,-2.34231 -0.953117,-7.41156 2.254036,-6.28974 1.392498,1.61794 2.47891,3.65233 3.737148,5.44316 z m 15.022025,3.25468 c 0.11776,4.5587 -3.89388,3.69715 -6.28487,3.74101 -2.47672,-0.4612 -1.0923,-4.58879 -1.45374,-6.84477 0.0553,-2.31743 -0.66549,-6.55616 2.27292,-5.78113 2.8874,-1.08283 7.27039,2.34913 3.90916,5.76115 0.96171,0.51674 1.60843,1.79042 1.55653,3.12374 z m -2.90749,-0.20576 c -0.87887,-4.13829 -3.47016,1.31034 -1.10445,1.36547 0.63262,0.12616 1.1848,-0.55722 1.10445,-1.36547 z m -0.20557,-4.91942 c -1.26624,-4.22274 -3.09663,2.9296 -0.23128,0.91187 l 0.17345,-0.37994 z m 11.54919,5.44317 c -0.32955,5.245 -8.61812,4.58856 -7.81205,-1.04349 0.17734,-2.56285 -0.39296,-5.3768 0.36344,-7.75256 3.1982,-1.90549 2.52164,3.35706 2.54405,5.74228 -1.11672,3.43026 2.6864,4.81474 1.99707,0.77218 0.30321,-2.22448 -0.73833,-5.32308 0.81773,-6.81958 3.08113,-0.75861 1.84185,4.09279 2.08976,6.39523 0,0.90197 0,1.80395 0,2.70594 z m 8.47283,-0.31799 c 0.11776,4.5587 -3.89388,3.69715 -6.28488,3.74101 -2.47672,-0.4612 -1.09229,-4.58879 -1.45374,-6.84477 0.0553,-2.31743 -0.66548,-6.55616 2.27293,-5.78113 2.88739,-1.08283 7.27038,2.34913 3.90916,5.76115 0.9617,0.51674 1.60842,1.79042 1.55653,3.12374 z m -2.90749,-0.20576 c -0.87887,-4.13829 -3.47016,1.31034 -1.10445,1.36547 0.63261,0.12616 1.18479,-0.55722 1.10445,-1.36547 z m -0.20558,-4.91942 c -1.26624,-4.22274 -3.09661,2.9296 -0.23128,0.91187 l 0.17346,-0.37994 z m 11.47578,5.12518 c 0.11775,4.5587 -3.89389,3.69715 -6.28488,3.74101 -2.47672,-0.4612 -1.0923,-4.58879 -1.45375,-6.84477 0.0553,-2.31743 -0.66548,-6.55616 2.27293,-5.78113 2.88739,-1.08283 7.27039,2.34913 3.90916,5.76115 0.9617,0.51674 1.60842,1.79042 1.55654,3.12374 z m -2.90749,-0.20576 c -0.87888,-4.13829 -3.47018,1.31034 -1.10446,1.36547 0.63262,0.12616 1.1848,-0.55722 1.10446,-1.36547 z m -0.20559,-4.91942 c -1.26623,-4.22274 -3.09661,2.9296 -0.23127,0.91187 l 0.17346,-0.37994 z m 8.92071,8.86619 c -1.71758,-0.41401 -5.01483,1.25303 -5.18355,-1.97517 0.0551,-3.24256 -0.1138,-6.50817 0.0908,-9.73535 2.78552,-3.13674 3.13873,2.37862 2.81664,4.8859 -0.0285,2.13142 -0.52903,4.86409 1.91142,3.85052 1.52383,-0.54398 1.79658,2.92505 0.36464,2.9741 z m 6.62261,0 c 3.64275,-2.7397 -2.11045,-2.4032 -2.07048,-4.01759 0.29509,-1.0406 5.18995,-1.56536 1.7768,-3.81982 -2.22909,1.17722 -2.47878,-2.88506 -0.13843,-1.81439 3.49754,-0.75298 0.10283,-4.22094 -2.02544,-2.9741 -2.88126,-0.91099 -2.6346,2.99851 -2.52042,5.45345 0.30376,2.30704 -0.73714,5.49184 0.81773,7.07075 1.37578,0.20926 2.77594,0.0539 4.16024,0.1017 z"
         id="text49550"
         inkscape:connector-curvature="0" />
      <g
         transform="matrix(0.77878538,0,0,0.92256008,-102.63066,-229.86312)"
         id="g53695">
        <path
           style="fill:#000000;fill-opacity:1;stroke-width:0.56041962"
           d="m 225.79653,381.36576 c -5.04874,-5.70045 -3.09798,-14.35633 -2.45039,-21.29598 2.14357,-8.89697 7.83465,-18.94365 17.6609,-20.54413 6.89198,-1.14917 12.67159,3.11506 19.15746,4.14881 6.85143,0.45746 12.42018,-5.39774 19.38732,-4.1639 10.32595,0.10258 16.39834,10.33535 18.93637,19.13482 1.14366,7.08586 2.62906,15.4104 -1.24072,21.86627 -5.342,5.7642 -12.45787,-0.29209 -16.75787,-4.21205 -4.588,-5.30765 -11.81929,-4.91805 -18.1724,-4.82234 -6.60925,0.30728 -14.46255,-1.33683 -19.60345,3.97346 -4.70927,3.57488 -10.5939,10.63263 -16.91722,5.91504 z"
           id="path53677"
           inkscape:connector-curvature="0" />
        <path
           style="fill:#ffffff;fill-opacity:1;stroke-width:0.56041962"
           d="m 277.9872,362.41501 c 5.58994,-5.40079 -8.06317,-7.57497 -4.77264,-0.67341 1.23932,1.3571 3.24548,2.00683 4.77264,0.67341 z"
           id="path53675"
           inkscape:connector-curvature="0" />
        <path
           style="fill:#ffffff;fill-opacity:1;stroke-width:0.56041962"
           d="m 247.09052,359.86347 c 0.27723,-3.25746 8.70112,-2.32963 4.12382,-6.78295 -5.42377,1.15477 -3.02625,-7.69375 -8.99184,-4.31435 1.10304,5.6301 -8.52036,2.6119 -5.43718,8.20736 3.38408,0.29645 5.45041,0.84964 5.40535,4.6496 1.57622,0.88603 5.19447,0.91959 4.89985,-1.75966 z"
           id="path53673"
           inkscape:connector-curvature="0" />
        <path
           style="fill:#fffffc;fill-opacity:1;stroke-width:0.56041962"
           d="m 288.72216,357.58638 c 4.50178,-7.79772 -11.51832,-3.99212 -3.56811,0.81562 1.22542,0.443 2.60725,-0.0116 3.56811,-0.81562 z"
           id="path53671"
           inkscape:connector-curvature="0" />
        <path
           style="fill:#f8ffff;fill-opacity:1;stroke-width:0.56041962"
           d="m 278.37813,352.42476 c 4.38079,-8.166 -11.41132,-4.0188 -3.58973,0.81533 1.23238,0.44154 2.62307,-0.004 3.58973,-0.81533 z"
           id="path53664"
           inkscape:connector-curvature="0" />
      </g>
    </g>
  </g>
</svg>
