<?xml version="1.0" encoding="UTF-8" standalone="no"?>
<!-- Created with Inkscape (http://www.inkscape.org/) -->

<svg
   xmlns:dc="http://purl.org/dc/elements/1.1/"
   xmlns:cc="http://creativecommons.org/ns#"
   xmlns:rdf="http://www.w3.org/1999/02/22-rdf-syntax-ns#"
   xmlns:svg="http://www.w3.org/2000/svg"
   xmlns="http://www.w3.org/2000/svg"
   xmlns:sodipodi="http://sodipodi.sourceforge.net/DTD/sodipodi-0.dtd"
   xmlns:inkscape="http://www.inkscape.org/namespaces/inkscape"
   width="150"
   height="150"
   viewBox="0 0 39.6875 39.6875"
   version="1.1"
   id="svg922"
   inkscape:version="0.92.4 (5da689c313, 2019-01-14)"
   sodipodi:docname="USO_GRAPHICS_rawtherapee.svg">
  <defs
     id="defs916">
    <clipPath
       clipPathUnits="userSpaceOnUse"
       id="clipPath1521">
      <rect
         style="opacity:0.875;fill:#000000;fill-opacity:1;stroke:#000000;stroke-width:0.60403091;stroke-linejoin:round;stroke-miterlimit:4;stroke-dasharray:none;stroke-opacity:1"
         id="rect1523"
         width="172.87534"
         height="151.42299"
         x="57.114269"
         y="66.644836" />
    </clipPath>
  </defs>
  <sodipodi:namedview
     id="base"
     pagecolor="#ffffff"
     bordercolor="#666666"
     borderopacity="1.0"
     inkscape:pageopacity="0.0"
     inkscape:pageshadow="2"
     inkscape:zoom="0.66140777"
     inkscape:cx="254.96496"
     inkscape:cy="238.16943"
     inkscape:document-units="px"
     inkscape:current-layer="layer1"
     showgrid="false"
     inkscape:window-width="1262"
     inkscape:window-height="792"
     inkscape:window-x="2115"
     inkscape:window-y="111"
     inkscape:window-maximized="0"
     units="px" />
  <metadata
     id="metadata919">
    <rdf:RDF>
      <cc:Work
         rdf:about="">
        <dc:format>image/svg+xml</dc:format>
        <dc:type
           rdf:resource="http://purl.org/dc/dcmitype/StillImage" />
        <dc:title></dc:title>
      </cc:Work>
    </rdf:RDF>
  </metadata>
  <g
     inkscape:label="Layer 1"
     inkscape:groupmode="layer"
     id="layer1"
     transform="translate(-35.425468,-112.58038)">
    <g
       id="g18135"
       transform="matrix(0.2980795,0,0,0.28977881,24.865862,99.544917)">
      <path
         style="opacity:0.875;fill:#999999;fill-opacity:1;stroke:none;stroke-width:0.40600324;stroke-linejoin:round;stroke-miterlimit:4;stroke-dasharray:none;stroke-opacity:0.97175137"
         d="m 40.541649,79.335309 c 4.132647,-2.879859 9.751769,-2.413278 14.58294,-3.21176 27.840639,-2.044923 55.827121,-1.782311 83.687971,-0.23939 8.44978,0.729291 17.10358,0.925502 25.25914,3.45115 2.84038,5.409997 2.65096,11.873441 3.36881,17.839295 0.82417,14.162196 1.31119,28.565636 -1.46937,42.549666 -0.41934,5.71762 -6.02423,8.04253 -11.01184,8.61505 -20.19657,3.03328 -40.70475,2.906 -61.081918,3.01564 -17.041409,-0.24022 -34.168681,-0.19989 -51.090555,-2.42806 -6.472855,-0.76422 -4.229449,-9.70709 -5.525019,-14.2761 -1.050395,-16.30828 -1.537946,-32.80636 0.773143,-49.027833 0.528995,-2.131985 0.698082,-4.796009 2.506698,-6.287658 z"
         id="rect49496"
         inkscape:connector-curvature="0" />
      <path
         style="fill:#000000;stroke-width:1.26563919"
         d="m 41.515717,150.96879 c -5.711702,-2.05781 -5.238774,-9.06062 -5.717979,-14.02153 -0.436585,-15.75811 -0.553309,-31.54812 0.0015,-47.303521 -0.436441,-5.625053 3.875375,-9.795276 8.669277,-11.866878 6.455445,-3.192618 13.930493,-1.944564 20.884436,-2.520022 25.785183,-0.429233 51.579629,-0.472642 77.366519,-0.289685 7.22043,0.480561 15.26629,-0.05239 21.48077,4.264067 5.34492,4.83908 4.20747,12.821592 4.36759,19.341185 -0.60054,14.045514 0.0527,28.160374 -1.30449,42.160284 -0.93746,5.8118 -7.04218,9.14968 -12.25933,10.45193 -21.14906,1.35016 -42.37134,0.99396 -63.555869,1.08326 -16.415858,-0.19492 -32.872923,0.0952 -49.250499,-1.14372 l -0.681877,-0.15538 z m 116.461643,-3.64957 c 5.89794,-2.48774 7.14588,-9.3942 7.37251,-15.08897 0.55887,-13.34277 0.79145,-26.75998 -0.26771,-40.08197 -0.22661,-5.235691 -2.71782,-10.65847 -7.89603,-12.600489 -6.52228,-2.878882 -13.9327,-1.775744 -20.87126,-2.228431 -26.98361,-0.0728 -53.980521,-0.420882 -80.955472,0.372513 -5.686102,0.154822 -13.059572,1.026894 -15.561912,6.984748 -2.261649,8.967295 -1.276409,18.362109 -1.558615,27.527999 0.269809,9.99414 -0.711559,20.17732 1.414706,30.00948 2.112716,6.2884 9.661191,6.94096 15.292543,7.2837 27.426906,1.45354 54.91187,0.54809 82.35657,0.11392 6.86318,-0.50478 14.19529,0.36585 20.67467,-2.2925 z M 49.882052,144.89229 c -3.177542,0.0711 -8.355599,-7.29975 -2.439293,-3.05152 5.691698,3.40971 12.738389,2.05204 19.052805,2.52335 2.829236,0.33382 11.00279,-0.49673 11.167062,0.83313 -9.090656,1.49246 -18.786591,1.94553 -27.780574,-0.30496 z M 154.67692,85.873908 c -5.00297,-2.688572 -11.10143,-1.384211 -16.58281,-1.86289 -3.93588,-0.355548 -13.5043,-0.06474 -14.58274,-1.74698 9.37487,-0.304485 18.90303,-0.887454 28.18216,0.794039 3.27525,-1.122296 7.81354,7.281155 2.98339,2.815831 z"
         id="path49494"
         inkscape:connector-curvature="0" />
      <path
         style="font-style:normal;font-variant:normal;font-weight:normal;font-stretch:normal;font-size:16.97093201px;font-family:Insaniburger;-inkscape-font-specification:Insaniburger;opacity:1;vector-effect:none;fill:#000000;fill-opacity:1;stroke:none;stroke-width:0.19887809;stroke-linecap:butt;stroke-linejoin:miter;stroke-miterlimit:4;stroke-dasharray:none;stroke-dashoffset:0;stroke-opacity:1"
         d="m 58.036739,135.66312 c 2.506877,1.68549 1.462692,7.73002 -1.149667,4.04461 -0.894179,-1.28281 -2.50498,-5.30753 -2.036823,-1.37778 0.360008,4.53346 -4.173445,2.30021 -2.907489,-1.36062 0.178548,-2.6975 -0.39452,-5.64653 0.363437,-8.15693 2.000716,-0.50473 4.726404,-1.08919 6.40602,0.79029 1.282255,1.70579 1.022668,4.93828 -0.675478,6.06043 z m -3.18649,-4.71367 c -1.366295,3.54139 2.909728,3.85214 1.762114,0.36007 -0.49337,-0.52856 -1.176339,-0.31356 -1.762114,-0.36007 z m 10.712188,4.86332 c -0.257919,-4.92081 -2.405176,1.23927 0,0 z m -2.129221,2.99279 c -1.466703,5.19006 -4.396363,-0.50058 -2.014576,-3.22317 1.044285,-2.33716 1.430655,-5.36338 3.068632,-7.09733 2.338496,-0.12234 2.461125,3.94709 3.532635,5.93427 1.036068,2.08505 2.754057,7.51906 -0.814666,6.29416 -0.541042,-2.7456 -2.028776,-1.73838 -3.772025,-1.90793 z m 14.831129,2.26332 c -1.916587,-0.69997 -2.100088,-6.04579 -3.120412,-1.32806 -2.126644,3.8006 -3.433489,-2.0388 -3.868626,-4.30197 -0.466393,-2.29642 -2.666953,-7.31861 0.778961,-6.99529 1.427723,0.29973 1.325581,6.85884 2.257746,4.6071 0.893131,-5.20897 3.689303,0.7856 3.938789,0.28662 0.201783,-2.48162 2.247716,-7.60664 3.758035,-3.26696 -0.535188,3.29975 -1.574449,6.43977 -2.327459,9.6705 -0.226728,0.72414 -0.785461,1.35145 -1.417034,1.32806 z m 13.450812,-9.68921 c -0.203928,3.05905 0.432275,6.39532 -0.363439,9.26367 -3.1982,1.90548 -2.521634,-3.35706 -2.544051,-5.74228 0.400573,-2.85338 -0.107005,-3.95243 -2.349489,-3.89316 -1.226076,-3.64605 2.804792,-2.40243 4.430847,-2.60233 2.236555,-1.34111 5.365906,2.57109 1.763115,2.9741 -0.312325,0 -0.624658,0 -0.936983,0 z m 9.625543,-2.9741 c 2.47672,0.46119 1.09231,4.58879 1.45375,6.84477 0.32681,2.50469 -0.0403,7.99916 -2.816636,4.86575 -0.147381,-2.19761 0.465276,-4.9493 -2.073233,-3.92923 1.073609,3.00388 -2.004459,7.44989 -2.90749,2.86944 0.05516,-3.24256 -0.113801,-6.50817 0.09086,-9.73535 3.114555,-3.68483 2.364559,3.11972 3.362749,3.87311 2.83152,1.11094 0.289182,-3.8288 2.25399,-4.68678 z m 7.16593,12.6259 c 3.64276,-2.7397 -2.11045,-2.4032 -2.07048,-4.01759 0.29509,-1.0406 5.18996,-1.56536 1.7768,-3.81982 -2.22908,1.17722 -2.47878,-2.88506 -0.13843,-1.81439 3.49754,-0.75298 0.10283,-4.22094 -2.02543,-2.9741 -2.88127,-0.91099 -2.63461,2.99851 -2.52043,5.45345 0.30376,2.30704 -0.73714,5.49184 0.81773,7.07075 1.37578,0.20926 2.77594,0.0539 4.16024,0.1017 z m 7.95889,-5.36835 c 2.50688,1.68549 1.46269,7.73002 -1.14967,4.04461 -0.89418,-1.28281 -2.50498,-5.30753 -2.03682,-1.37778 0.36001,4.53346 -4.17345,2.30021 -2.90749,-1.36062 0.17855,-2.6975 -0.39453,-5.64653 0.36344,-8.15693 2.00071,-0.50473 4.7264,-1.08919 6.40602,0.79029 1.28225,1.70579 1.02266,4.93828 -0.67548,6.06043 z m -3.18649,-4.71367 c -1.3663,3.54139 2.90973,3.85214 1.76211,0.36007 -0.49337,-0.52856 -1.17633,-0.31356 -1.76211,-0.36007 z m 10.71219,4.86332 c -0.25792,-4.92081 -2.40518,1.23927 0,0 z m -2.12922,2.99279 c -1.4667,5.19006 -4.39636,-0.50058 -2.01458,-3.22317 1.04428,-2.33716 1.43065,-5.36338 3.06863,-7.09733 2.3385,-0.12234 2.46113,3.94709 3.53264,5.93427 1.03607,2.08505 2.75406,7.51906 -0.81467,6.29416 -0.54104,-2.7456 -2.02878,-1.73838 -3.77202,-1.90793 z m 11.12335,-1.98272 c 4.43837,0.2055 3.97973,-9.56633 -0.46676,-8.37987 -1.95347,-0.33547 -4.6509,-0.026 -3.92385,3.36649 0.18617,2.9149 -0.40588,6.08837 0.36344,8.81518 3.79593,2.75739 1.15146,-4.95784 3.90935,-3.8018 z m -0.64611,-5.87339 c 3.62226,1.32156 -2.1934,5.27398 -0.83701,0.44578 -0.2206,-0.80423 0.53352,-0.30784 0.83701,-0.44578 z m 9.44199,10.08202 c 3.64275,-2.7397 -2.11046,-2.4032 -2.07048,-4.01759 0.29509,-1.0406 5.18996,-1.56536 1.77679,-3.81982 -2.22907,1.17722 -2.47878,-2.88506 -0.13843,-1.81439 3.49755,-0.75298 0.10283,-4.22094 -2.02542,-2.9741 -2.88127,-0.91099 -2.63462,2.99851 -2.52043,5.45345 0.30375,2.30704 -0.73714,5.49184 0.81773,7.07075 1.37577,0.20926 2.77593,0.0539 4.16024,0.1017 z m 6.84288,0 c 3.64275,-2.7397 -2.11046,-2.4032 -2.07049,-4.01759 0.2951,-1.0406 5.18996,-1.56536 1.7768,-3.81982 -2.22908,1.17722 -2.47878,-2.88506 -0.13843,-1.81439 3.49755,-0.75298 0.10283,-4.22094 -2.02544,-2.9741 -2.88126,-0.91099 -2.6346,2.99851 -2.52042,5.45345 0.30376,2.30704 -0.73714,5.49184 0.81774,7.07075 1.37577,0.20926 2.77593,0.0539 4.16024,0.1017 z"
         id="text49550"
         inkscape:connector-curvature="0" />
      <g
         transform="matrix(0.62550222,0,0,0.60298415,137.31195,29.870051)"
         id="g16798">
        <path
           style="fill:#000005;fill-opacity:1;stroke-width:0.55967355"
           d="m -63.356338,86.683079 c -9.874279,0.20633 -22.300301,5.195348 -24.289917,16.007321 -2.168816,9.38617 16.582128,14.56277 5.927037,22.9884 -8.68926,4.95773 -6.835656,17.53827 1.28174,22.04121 13.85988,10.19372 34.882883,4.74141 43.568825,-9.64199 6.307492,-7.01342 3.09489,-17.89267 10.641114,-23.97674 2.463966,-4.7998 12.829179,-12.1707 8.877144,-16.855161 -7.599313,2.298305 -15.91087,17.073671 -19.946359,3.532341 -5.850096,-8.400878 -15.747732,-14.032593 -26.059584,-14.095381 z m 4.560445,10.802959 c 10.122006,2.812302 -4.753004,12.779612 -3.261741,2.35473 0.483508,-1.363419 1.866321,-2.234835 3.261741,-2.35473 z m -15.621785,4.598682 c 9.863404,3.00815 -4.865571,12.47548 -3.548232,2.5642 0.798309,-1.21437 1.947566,-2.55665 3.548232,-2.5642 z m 29.046288,5.08238 c 9.734204,2.80242 -4.411794,12.63796 -3.446785,2.33949 0.664422,-1.26017 1.929537,-2.39177 3.446785,-2.33949 z m -27.491861,24.95558 c 10.430142,2.81043 -4.670502,12.59468 -3.479806,2.47791 0.773822,-1.21256 1.97216,-2.34358 3.479806,-2.47791 z"
           id="path59299"
           inkscape:connector-curvature="0" />
        <path
           style="fill:#ffffff;fill-opacity:1;stroke:#ffffff;stroke-width:0.55967355;stroke-opacity:1"
           d="m -52.62579,142.87503 c 10.625922,-2.16342 4.562437,-18.88424 -3.99139,-12.36609 -2.70081,5.20001 -9.954547,16.49376 3.99139,12.36609 z"
           id="path59283"
           inkscape:connector-curvature="0" />
        <path
           style="fill:#ffffff;fill-opacity:1;stroke-width:0.55967355"
           d="m -37.66806,124.75342 c 6.420327,-7.65525 13.607006,-14.90345 18.556655,-23.61723 -6.79331,1.55739 -13.197892,10.39767 -19.460998,15.03705 -3.860137,4.3562 -16.596761,11.21145 -6.238257,15.83028 2.683022,-2.08016 4.82603,-4.78751 7.1426,-7.2501 z"
           id="path59281"
           inkscape:connector-curvature="0" />
      </g>
    </g>
  </g>
</svg>
