<?xml version="1.0" encoding="UTF-8" standalone="no"?>
<!-- Created with Inkscape (http://www.inkscape.org/) -->

<svg
   xmlns:dc="http://purl.org/dc/elements/1.1/"
   xmlns:cc="http://creativecommons.org/ns#"
   xmlns:rdf="http://www.w3.org/1999/02/22-rdf-syntax-ns#"
   xmlns:svg="http://www.w3.org/2000/svg"
   xmlns="http://www.w3.org/2000/svg"
   xmlns:sodipodi="http://sodipodi.sourceforge.net/DTD/sodipodi-0.dtd"
   xmlns:inkscape="http://www.inkscape.org/namespaces/inkscape"
   width="150"
   height="150"
   viewBox="0 0 39.6875 39.6875"
   version="1.1"
   id="svg922"
   inkscape:version="0.92.4 (5da689c313, 2019-01-14)"
   sodipodi:docname="USO_GRAPHICS_blender.svg">
  <defs
     id="defs916">
    <clipPath
       clipPathUnits="userSpaceOnUse"
       id="clipPath1521">
      <rect
         style="opacity:0.875;fill:#000000;fill-opacity:1;stroke:#000000;stroke-width:0.60403091;stroke-linejoin:round;stroke-miterlimit:4;stroke-dasharray:none;stroke-opacity:1"
         id="rect1523"
         width="172.87534"
         height="151.42299"
         x="57.114269"
         y="66.644836" />
    </clipPath>
  </defs>
  <sodipodi:namedview
     id="base"
     pagecolor="#ffffff"
     bordercolor="#666666"
     borderopacity="1.0"
     inkscape:pageopacity="0.0"
     inkscape:pageshadow="2"
     inkscape:zoom="0.66140776"
     inkscape:cx="319.89574"
     inkscape:cy="216.31381"
     inkscape:document-units="px"
     inkscape:current-layer="layer1"
     showgrid="false"
     inkscape:window-width="1262"
     inkscape:window-height="792"
     inkscape:window-x="2068"
     inkscape:window-y="89"
     inkscape:window-maximized="0"
     units="px" />
  <metadata
     id="metadata919">
    <rdf:RDF>
      <cc:Work
         rdf:about="">
        <dc:format>image/svg+xml</dc:format>
        <dc:type
           rdf:resource="http://purl.org/dc/dcmitype/StillImage" />
        <dc:title></dc:title>
      </cc:Work>
    </rdf:RDF>
  </metadata>
  <g
     inkscape:label="Layer 1"
     inkscape:groupmode="layer"
     id="layer1"
     transform="translate(-35.46637,-112.59198)">
    <g
       id="g3152"
       transform="matrix(0.29733961,0,0,0.28977951,24.932975,99.55641)">
      <path
         style="opacity:0.875;fill:#999999;fill-opacity:1;stroke:none;stroke-width:0.40600324;stroke-linejoin:round;stroke-miterlimit:4;stroke-dasharray:none;stroke-opacity:0.97175137"
         d="m 41.358771,79.335309 c 4.132645,-2.879858 9.751765,-2.413278 14.582934,-3.21176 27.840616,-2.04647 55.827125,-1.780253 83.687935,-0.23939 8.44978,0.729291 17.10358,0.925502 25.25914,3.45115 2.84038,5.409997 2.65096,11.873441 3.36881,17.839295 0.82417,14.162196 1.31119,28.565636 -1.46937,42.549666 -0.41934,5.71762 -6.02423,8.04253 -11.01184,8.61505 -20.19656,3.03328 -40.70474,2.906 -61.081895,3.01564 -17.041402,-0.24022 -34.168669,-0.19989 -51.090536,-2.42806 -6.472854,-0.76422 -4.229449,-9.70709 -5.525019,-14.2761 -1.050395,-16.30828 -1.537946,-32.80636 0.773143,-49.027833 0.528995,-2.131985 0.698082,-4.796009 2.506698,-6.287658 z"
         id="rect49496"
         inkscape:connector-curvature="0" />
      <path
         style="fill:#000000;stroke-width:1.26563919"
         d="m 41.515717,150.96879 c -5.711702,-2.05781 -5.238774,-9.06062 -5.717979,-14.02153 -0.436585,-15.75811 -0.553309,-31.54812 0.0015,-47.303521 -0.436441,-5.625053 3.875375,-9.795276 8.669277,-11.866878 6.455445,-3.192618 13.930493,-1.944564 20.884436,-2.520022 25.785183,-0.429233 51.579629,-0.472642 77.366519,-0.289685 7.22043,0.480561 15.26629,-0.05239 21.48077,4.264067 5.34492,4.83908 4.20747,12.821592 4.36759,19.341185 -0.60054,14.045514 0.0527,28.160374 -1.30449,42.160284 -0.93746,5.8118 -7.04218,9.14968 -12.25933,10.45193 -21.14906,1.35016 -42.37134,0.99396 -63.555869,1.08326 -16.415858,-0.19492 -32.872923,0.0952 -49.250499,-1.14372 l -0.681877,-0.15538 z m 116.461643,-3.64957 c 5.89794,-2.48774 7.14588,-9.3942 7.37251,-15.08897 0.55887,-13.34277 0.79145,-26.75998 -0.26771,-40.08197 -0.22661,-5.235691 -2.71782,-10.65847 -7.89603,-12.600489 -6.52228,-2.878882 -13.9327,-1.775744 -20.87126,-2.228431 -26.98363,-0.07399 -53.980491,-0.418867 -80.955472,0.372513 -5.686102,0.154822 -13.059572,1.026894 -15.561912,6.984748 -2.261649,8.967295 -1.276409,18.362109 -1.558615,27.527999 0.269809,9.99414 -0.711559,20.17732 1.414706,30.00948 2.112716,6.2884 9.661191,6.94096 15.292543,7.2837 27.426906,1.45354 54.91187,0.54809 82.35657,0.11392 6.86318,-0.50478 14.19529,0.36585 20.67467,-2.2925 z M 49.882052,144.89229 c -3.177542,0.0711 -8.355599,-7.29975 -2.439293,-3.05152 5.691698,3.40971 12.738389,2.05204 19.052805,2.52335 2.829236,0.33382 11.00279,-0.49673 11.167062,0.83313 -9.090656,1.49246 -18.786591,1.94553 -27.780574,-0.30496 z M 154.67692,85.873908 c -5.00297,-2.688572 -11.10143,-1.384211 -16.58281,-1.86289 -3.93588,-0.355548 -13.5043,-0.06474 -14.58274,-1.74698 9.37487,-0.304485 18.90303,-0.887454 28.18216,0.794039 3.27525,-1.122296 7.81354,7.281155 2.98339,2.815831 z"
         id="path49494"
         inkscape:connector-curvature="0" />
      <path
         style="font-style:normal;font-variant:normal;font-weight:normal;font-stretch:normal;font-size:16.97093201px;font-family:Insaniburger;-inkscape-font-specification:Insaniburger;opacity:1;vector-effect:none;fill:#000000;fill-opacity:1;stroke:none;stroke-width:0.19887809;stroke-linecap:butt;stroke-linejoin:miter;stroke-miterlimit:4;stroke-dasharray:none;stroke-dashoffset:0;stroke-opacity:1"
         d="m 81.377268,137.29046 c 0.11784,4.55864 -3.893954,3.69726 -6.284875,3.74101 -2.477966,-0.46314 -1.091569,-4.59471 -1.453745,-6.85292 0.05318,-2.31664 -0.66237,-6.54912 2.274207,-5.77298 2.887075,-1.08289 7.268769,2.35034 3.907878,5.76115 0.961704,0.51674 1.608425,1.79042 1.556535,3.12374 z m -2.907489,-0.20576 c -0.879306,-4.14057 -3.471244,1.31427 -1.103179,1.36547 0.632221,0.12577 1.183443,-0.55825 1.103179,-1.36547 z m -0.20558,-4.91942 c -1.266331,-4.2231 -3.096606,2.93022 -0.231278,0.91187 l 0.173459,-0.37994 z m 8.920705,8.86619 c -1.717656,-0.41405 -5.015074,1.25326 -5.183554,-1.97571 0.05543,-3.24235 -0.114178,-6.50785 0.09086,-9.73481 2.788529,-3.13775 3.137774,2.38452 2.816629,4.89242 -0.03061,2.1332 -0.527315,4.8601 1.914413,3.844 1.521913,-0.54122 1.791918,2.92685 0.361653,2.9741 z m 6.622616,0 c 3.64408,-2.74227 -2.11353,-2.40003 -2.070487,-4.01921 0.297422,-1.03686 5.18917,-1.56521 1.776795,-3.8182 -2.231779,1.1781 -2.477368,-2.88827 -0.135872,-1.81439 3.496654,-0.76043 0.09457,-4.21952 -2.031829,-2.9741 -2.881479,-0.90887 -2.628852,3.00625 -2.516584,5.45942 0.304005,2.305 -0.737634,5.48797 0.817733,7.06478 1.37577,0.20926 2.775941,0.0539 4.160244,0.1017 z m 7.85609,-6.99569 c -0.36328,-2.4862 0.10958,-7.82232 2.81663,-4.71483 0.1489,3.57763 0.15054,7.21753 0,10.79514 -2.08515,2.73447 -3.75154,-1.82839 -5.104649,-3.52824 -1.666476,-2.99378 -0.124496,2.98994 -1.159119,4.03679 -3.200818,1.90546 -2.520518,-3.36303 -2.544051,-5.74935 0.205762,-2.34075 -0.951611,-7.40461 2.254036,-6.28267 1.392507,1.61792 2.478893,3.65233 3.737153,5.44316 z m 8.04698,6.99569 c -1.84738,0.045 -5.08017,0.61739 -4.40528,-3.02082 0.18802,-3.04219 -0.40851,-6.34433 0.36344,-9.19825 2.5213,-0.86927 6.41762,-0.93347 7.38987,3.01619 1.17988,3.42493 0.0113,8.84114 -3.34803,9.20288 z m 1.10867,-6.42518 c -0.28443,-5.31986 -3.79526,-3.87908 -2.60646,0.52363 -1.08648,4.91495 2.6544,3.90235 2.60646,-0.52363 z m 8.29662,6.42518 c 3.64408,-2.74227 -2.11353,-2.40003 -2.07048,-4.01921 0.29743,-1.03686 5.18917,-1.56521 1.7768,-3.8182 -2.23179,1.1781 -2.47737,-2.88827 -0.13587,-1.81439 3.49665,-0.76043 0.0945,-4.21952 -2.03183,-2.9741 -2.88149,-0.90887 -2.62886,3.00625 -2.51659,5.45942 0.30401,2.305 -0.73763,5.48797 0.81774,7.06478 1.37577,0.20926 2.77593,0.0539 4.16023,0.1017 z m 7.95889,-5.36835 c 2.50828,1.68531 1.46122,7.73119 -1.15018,4.04374 -0.89482,-1.28453 -2.50588,-5.30956 -2.03631,-1.37365 0.35627,4.53359 -4.17441,2.29127 -2.90749,-1.36768 0.17927,-2.696 -0.39565,-5.64435 0.36344,-8.15313 2.0007,-0.50443 4.72641,-1.08985 6.40602,0.79029 1.28225,1.70579 1.02267,4.93828 -0.67548,6.06043 z m -3.18649,-4.71367 c -1.36769,3.54276 2.91031,3.85164 1.76212,0.36007 -0.49337,-0.52857 -1.17634,-0.31356 -1.76212,-0.36007 z"
         id="text49550"
         inkscape:connector-curvature="0" />
      <g
         transform="matrix(0.62550222,0,0,0.60298415,137.31195,29.870051)"
         id="g16798">
        <path
           style="fill:#000005;fill-opacity:1;stroke-width:0.55967355"
           d="m -63.356338,86.683079 c -9.874279,0.20633 -22.300301,5.195348 -24.289917,16.007321 -2.168816,9.38617 16.582128,14.56277 5.927037,22.9884 -8.68926,4.95773 -6.835656,17.53827 1.28174,22.04121 13.85988,10.19372 34.882883,4.74141 43.568825,-9.64199 6.307492,-7.01342 3.09489,-17.89267 10.641114,-23.97674 2.463966,-4.7998 12.829179,-12.1707 8.877144,-16.855161 -7.599313,2.298305 -15.91087,17.073671 -19.946359,3.532341 -5.850096,-8.400878 -15.747732,-14.032593 -26.059584,-14.095381 z m 4.560445,10.802959 c 10.122006,2.812302 -4.753004,12.779612 -3.261741,2.35473 0.483508,-1.363419 1.866321,-2.234835 3.261741,-2.35473 z m -15.621785,4.598682 c 9.863404,3.00815 -4.865571,12.47548 -3.548232,2.5642 0.798309,-1.21437 1.947566,-2.55665 3.548232,-2.5642 z m 29.046288,5.08238 c 9.734204,2.80242 -4.411794,12.63796 -3.446785,2.33949 0.664422,-1.26017 1.929537,-2.39177 3.446785,-2.33949 z m -27.491861,24.95558 c 10.430142,2.81043 -4.670502,12.59468 -3.479806,2.47791 0.773822,-1.21256 1.97216,-2.34358 3.479806,-2.47791 z"
           id="path59299"
           inkscape:connector-curvature="0" />
        <path
           style="fill:#ffffff;fill-opacity:1;stroke:#ffffff;stroke-width:0.55967355;stroke-opacity:1"
           d="m -52.62579,142.87503 c 10.625922,-2.16342 4.562437,-18.88424 -3.99139,-12.36609 -2.70081,5.20001 -9.954547,16.49376 3.99139,12.36609 z"
           id="path59283"
           inkscape:connector-curvature="0" />
        <path
           style="fill:#ffffff;fill-opacity:1;stroke-width:0.55967355"
           d="m -37.66806,124.75342 c 6.420327,-7.65525 13.607006,-14.90345 18.556655,-23.61723 -6.79331,1.55739 -13.197892,10.39767 -19.460998,15.03705 -4.600081,3.65873 -16.735406,13.51665 -5.411732,15.20606 2.232108,-2.08267 4.275908,-4.35819 6.316075,-6.62588 z"
           id="path59281"
           inkscape:connector-curvature="0" />
      </g>
    </g>
  </g>
</svg>
