<?xml version="1.0" encoding="UTF-8" standalone="no"?>
<!-- Created with Inkscape (http://www.inkscape.org/) -->

<svg
   xmlns:dc="http://purl.org/dc/elements/1.1/"
   xmlns:cc="http://creativecommons.org/ns#"
   xmlns:rdf="http://www.w3.org/1999/02/22-rdf-syntax-ns#"
   xmlns:svg="http://www.w3.org/2000/svg"
   xmlns="http://www.w3.org/2000/svg"
   xmlns:sodipodi="http://sodipodi.sourceforge.net/DTD/sodipodi-0.dtd"
   xmlns:inkscape="http://www.inkscape.org/namespaces/inkscape"
   width="150"
   height="150"
   viewBox="0 0 39.6875 39.6875"
   version="1.1"
   id="svg922"
   inkscape:version="0.92.4 (5da689c313, 2019-01-14)"
   sodipodi:docname="USO_INTERNET_hexchat.svg">
  <defs
     id="defs916">
    <clipPath
       clipPathUnits="userSpaceOnUse"
       id="clipPath1521">
      <rect
         style="opacity:0.875;fill:#000000;fill-opacity:1;stroke:#000000;stroke-width:0.60403091;stroke-linejoin:round;stroke-miterlimit:4;stroke-dasharray:none;stroke-opacity:1"
         id="rect1523"
         width="172.87534"
         height="151.42299"
         x="57.114269"
         y="66.644836" />
    </clipPath>
  </defs>
  <sodipodi:namedview
     id="base"
     pagecolor="#ffffff"
     bordercolor="#666666"
     borderopacity="1.0"
     inkscape:pageopacity="0.0"
     inkscape:pageshadow="2"
     inkscape:zoom="1.8707436"
     inkscape:cx="171.30915"
     inkscape:cy="118.58689"
     inkscape:document-units="px"
     inkscape:current-layer="layer1"
     showgrid="false"
     inkscape:window-width="1262"
     inkscape:window-height="792"
     inkscape:window-x="2159"
     inkscape:window-y="65"
     inkscape:window-maximized="0"
     units="px" />
  <metadata
     id="metadata919">
    <rdf:RDF>
      <cc:Work
         rdf:about="">
        <dc:format>image/svg+xml</dc:format>
        <dc:type
           rdf:resource="http://purl.org/dc/dcmitype/StillImage" />
        <dc:title></dc:title>
      </cc:Work>
    </rdf:RDF>
  </metadata>
  <g
     inkscape:label="Layer 1"
     inkscape:groupmode="layer"
     id="layer1"
     transform="translate(-35.425468,-112.58038)">
    <g
       id="g14393"
       transform="matrix(0.2980795,0,0,0.28977881,24.865862,99.544917)">
      <path
         style="opacity:0.875;fill:#999999;fill-opacity:1;stroke:none;stroke-width:0.40600324;stroke-linejoin:round;stroke-miterlimit:4;stroke-dasharray:none;stroke-opacity:0.97175137"
         d="m 40.541649,79.335309 c 4.132647,-2.879859 9.751769,-2.413278 14.58294,-3.21176 27.840639,-2.044923 55.827121,-1.782311 83.687971,-0.23939 8.44978,0.729291 17.10358,0.925502 25.25914,3.45115 2.84038,5.409997 2.65096,11.873441 3.36881,17.839295 0.82417,14.162196 1.31119,28.565636 -1.46937,42.549666 -0.41934,5.71762 -6.02423,8.04253 -11.01184,8.61505 -20.19657,3.03328 -40.70475,2.906 -61.081918,3.01564 -17.041409,-0.24022 -34.168681,-0.19989 -51.090555,-2.42806 -6.472855,-0.76422 -4.229449,-9.70709 -5.525019,-14.2761 -1.050395,-16.30828 -1.537946,-32.80636 0.773143,-49.027833 0.528995,-2.131985 0.698082,-4.796009 2.506698,-6.287658 z"
         id="rect49496"
         inkscape:connector-curvature="0" />
      <path
         style="fill:#000000;stroke-width:1.26563919"
         d="m 41.515717,150.96879 c -5.711702,-2.05781 -5.238774,-9.06062 -5.717979,-14.02153 -0.436585,-15.75811 -0.553309,-31.54812 0.0015,-47.303521 -0.436441,-5.625053 3.875375,-9.795276 8.669277,-11.866878 6.455445,-3.192618 13.930493,-1.944564 20.884436,-2.520022 25.785183,-0.429233 51.579629,-0.472642 77.366519,-0.289685 7.22043,0.480561 15.26629,-0.05239 21.48077,4.264067 5.34492,4.83908 4.20747,12.821592 4.36759,19.341185 -0.60054,14.045514 0.0527,28.160374 -1.30449,42.160284 -0.93746,5.8118 -7.04218,9.14968 -12.25933,10.45193 -21.14906,1.35016 -42.37134,0.99396 -63.555869,1.08326 -16.415858,-0.19492 -32.872923,0.0952 -49.250499,-1.14372 l -0.681877,-0.15538 z m 116.461643,-3.64957 c 5.89794,-2.48774 7.14588,-9.3942 7.37251,-15.08897 0.55887,-13.34277 0.79145,-26.75998 -0.26771,-40.08197 -0.22661,-5.235691 -2.71782,-10.65847 -7.89603,-12.600489 -6.52228,-2.878882 -13.9327,-1.775744 -20.87126,-2.228431 -26.98361,-0.0728 -53.980521,-0.420882 -80.955472,0.372513 -5.686102,0.154822 -13.059572,1.026894 -15.561912,6.984748 -2.261649,8.967295 -1.276409,18.362109 -1.558615,27.527999 0.269809,9.99414 -0.711559,20.17732 1.414706,30.00948 2.112716,6.2884 9.661191,6.94096 15.292543,7.2837 27.426906,1.45354 54.91187,0.54809 82.35657,0.11392 6.86318,-0.50478 14.19529,0.36585 20.67467,-2.2925 z M 49.882052,144.89229 c -3.177542,0.0711 -8.355599,-7.29975 -2.439293,-3.05152 5.691698,3.40971 12.738389,2.05204 19.052805,2.52335 2.829236,0.33382 11.00279,-0.49673 11.167062,0.83313 -9.090656,1.49246 -18.786591,1.94553 -27.780574,-0.30496 z M 154.67692,85.873908 c -5.00297,-2.688572 -11.10143,-1.384211 -16.58281,-1.86289 -3.93588,-0.355548 -13.5043,-0.06474 -14.58274,-1.74698 9.37487,-0.304485 18.90303,-0.887454 28.18216,0.794039 3.27525,-1.122296 7.81354,7.281155 2.98339,2.815831 z"
         id="path49494"
         inkscape:connector-curvature="0" />
      <path
         style="font-style:normal;font-variant:normal;font-weight:normal;font-stretch:normal;font-size:16.97093201px;font-family:Insaniburger;-inkscape-font-specification:Insaniburger;opacity:1;vector-effect:none;fill:#000000;fill-opacity:1;stroke:none;stroke-width:0.19887809;stroke-linecap:butt;stroke-linejoin:miter;stroke-miterlimit:4;stroke-dasharray:none;stroke-dashoffset:0;stroke-opacity:1"
         d="m 78.394756,128.40557 c 2.476722,0.46119 1.092298,4.58879 1.453745,6.84477 0.326816,2.50469 -0.04032,7.99916 -2.816629,4.86575 -0.147383,-2.19761 0.465276,-4.9493 -2.073239,-3.92923 1.073606,3.00388 -2.004463,7.44989 -2.907488,2.86944 0.05516,-3.24256 -0.113799,-6.50817 0.09086,-9.73535 3.11456,-3.68483 2.364565,3.11972 3.362753,3.87311 2.831525,1.11094 0.289183,-3.8288 2.253988,-4.68678 z m 7.165933,12.6259 c 3.642758,-2.7397 -2.110458,-2.4032 -2.070485,-4.01759 0.29509,-1.0406 5.189955,-1.56536 1.7768,-3.81982 -2.229083,1.17722 -2.478778,-2.88506 -0.138433,-1.81439 3.497549,-0.75298 0.102832,-4.22094 -2.025432,-2.9741 -2.881263,-0.91099 -2.634603,2.99851 -2.520423,5.45345 0.303758,2.30704 -0.737145,5.49184 0.81773,7.07075 1.375774,0.20926 2.775938,0.0539 4.160243,0.1017 z m 8.627016,-6.22878 c 0.876893,1.81851 3.809998,3.41399 2.569754,5.76115 -2.227065,2.41684 -3.385041,-3.75005 -4.881443,-2.78439 -0.831502,2.40281 -5.062477,5.1573 -4.266868,0.68943 0.592317,-1.56464 3.665406,-3.10945 1.964401,-4.69244 -2.024339,-1.34353 -3.318256,-6.76141 0.282298,-4.84713 1.104255,0.92776 2.20852,4.9219 3.312785,2.06232 0.719862,-3.13926 5.538442,-3.11021 3.365832,0.5632 -0.782256,1.08262 -1.564503,2.16524 -2.346759,3.24786 z m 16.372975,3.96547 c -3.01292,6.16648 -11.530853,-0.12357 -8.83993,-6.82033 0.31073,-5.78655 11.46448,-4.70228 7.70925,0.19874 -4.27079,-4.37495 -7.88959,6.06355 -2.13289,5.60216 1.14808,-0.57179 3.18772,-1.52244 3.26357,1.01943 z m 7.07784,-10.36259 c 2.47672,0.46119 1.09229,4.58879 1.45374,6.84477 0.32681,2.50469 -0.0403,7.99916 -2.81663,4.86575 -0.14738,-2.19761 0.46527,-4.9493 -2.07324,-3.92923 1.07361,3.00388 -2.00446,7.44989 -2.90749,2.86944 0.0552,-3.24256 -0.11379,-6.50817 0.0909,-9.73535 3.11457,-3.68483 2.36457,3.11972 3.36275,3.87311 2.83153,1.11094 0.28919,-3.8288 2.25399,-4.68678 z m 7.31276,7.4072 c -0.25791,-4.92081 -2.40517,1.23927 0,0 z m -2.12922,2.99279 c -1.46669,5.19006 -4.39636,-0.50058 -2.01457,-3.22317 1.04428,-2.33716 1.43065,-5.36338 3.06864,-7.09733 2.33849,-0.12234 2.46112,3.94709 3.53263,5.93427 1.03607,2.08505 2.75406,7.51906 -0.81467,6.29416 -0.54104,-2.7456 -2.02878,-1.73838 -3.77203,-1.90793 z m 10.38914,-7.42589 c -0.20392,3.05905 0.43229,6.39532 -0.36344,9.26367 -3.19819,1.90548 -2.52163,-3.35706 -2.54405,-5.74228 0.40058,-2.85338 -0.107,-3.95243 -2.34948,-3.89316 -1.22608,-3.64605 2.80479,-2.40243 4.43085,-2.60233 2.23656,-1.34111 5.36591,2.57109 1.76312,2.9741 -0.31234,0 -0.62466,0 -0.937,0 z"
         id="text49550"
         inkscape:connector-curvature="0" />
      <g
         transform="matrix(0.823942,0,0,0.83445295,152.00754,-69.981661)"
         id="g54240">
        <path
           style="fill:#cbcbcb;fill-opacity:1;stroke-width:0.51272714"
           d="m -70.218567,235.17822 c -12.862837,-3.37294 -22.146947,-16.9426 -19.892899,-30.19854 1.688093,-14.0586 15.885809,-24.83833 29.891373,-22.99407 14.099424,0.8715 26.133071,14.67954 24.479911,28.85743 -0.402665,14.62378 -14.991058,26.80176 -29.463762,24.94656 -1.681818,-0.0827 -3.375866,-0.19674 -5.014623,-0.61138 z"
           id="path54193"
           inkscape:connector-curvature="0" />
        <path
           style="fill:#000000;fill-opacity:1;stroke-width:0.51272714"
           d="m -68.146067,228.07933 c 1.687606,-3.31587 3.856843,-6.28117 5.14831,-9.48891 -1.028026,-4.85373 -9.221277,-7.8387 -13.122851,-5.20055 0.631281,5.46896 5.442173,9.19788 4.049727,15.2745 3.136275,6.34673 1.193715,1.34849 3.924814,-0.58504 z"
           id="path54191"
           inkscape:connector-curvature="0" />
        <path
           style="fill:#000000;fill-opacity:1;stroke-width:0.51272714"
           d="m -48.847606,224.70851 c 2.86438,-3.57631 3.228577,-10.50306 4.57644,-14.07082 -4.491468,-0.0116 -5.053504,-8.16525 -0.61116,-3.19763 4.710403,3.53409 -1.039291,-6.81819 4.479531,-1.89099 5.313001,5.73787 1.283188,-6.86306 -0.4997,-8.88354 -1.706281,-4.69221 -5.768384,-6.3154 -9.927866,-4.87703 -3.642316,-4.38542 -6.542548,7.2949 -3.151819,1.39543 6.088595,-0.63837 1.465629,5.46747 -2.315691,5.43788 -3.321169,2.77965 -1.601068,4.11104 1.03286,0.89995 2.579905,3.69837 7.418376,-1.68097 8.627862,1.71094 -1.67634,6.7895 -10.054964,0.79241 -14.228188,5.20654 -4.912207,7.91667 10.052866,3.94578 8.183017,11.8621 0.554077,1.69683 0.866763,8.41181 3.834714,6.40717 z"
           id="path54189"
           inkscape:connector-curvature="0" />
        <path
           style="fill:#000000;fill-opacity:1;stroke-width:0.51272714"
           d="m -79.787677,209.37505 c -1.905053,-4.05621 6.04785,-1.90569 6.459076,-6.41382 2.177539,-1.47186 5.294288,-8.91296 0.57912,-6.05261 -0.06466,6.31432 -8.590587,-2.62897 -3.07858,-4.69815 -6.184998,-3.50321 -11.886093,5.85384 -10.75832,11.70703 2.259719,1.91776 3.980124,7.8008 7.322628,6.05908 z"
           id="path54187"
           inkscape:connector-curvature="0" />
        <path
           style="fill:#cbcbcb;fill-opacity:1;stroke-width:0.51272714"
           d="m -58.355813,197.45702 c -1.296964,-1.99326 -1.422422,1.07058 0,0 z"
           id="path54185"
           inkscape:connector-curvature="0" />
        <path
           style="fill:#000000;fill-opacity:1;stroke-width:0.51272714"
           d="m -61.012137,191.00686 c 6.737387,-2.64092 -0.738329,-11.02485 -3.669517,-4.47734 1.166941,2.1812 -2.315061,10.79008 2.403268,5.5982 l 0.620097,-0.54445 z"
           id="path54183"
           inkscape:connector-curvature="0" />
        <path
           style="fill:#cbcbcb;fill-opacity:1;stroke-width:0.51272714"
           d="m -70.218567,190.29113 c -2.411731,-9.1819 -0.656215,7.68451 0,0 z"
           id="path54156"
           inkscape:connector-curvature="0" />
        <path
           style="fill:#000000;fill-opacity:1;stroke-width:0.51272714"
           d="m -69.702797,234.58781 c -12.896189,-3.23592 -22.45669,-17.00854 -19.65614,-30.29117 -0.203782,-2.99828 2.279054,-6.42173 2.24444,-1.39984 -0.03898,3.09592 1.420455,6.12879 3.25573,4.77333 0.966106,4.85189 8.348088,3.6916 7.577901,9.79148 6.214632,3.23851 0.531542,13.4232 6.991639,14.97256 1.217268,-3.83318 3.787409,-7.5339 5.58815,-10.8229 4.651354,-5.71606 -5.082097,-10.53478 -10.328215,-9.72167 -4.244977,0.33382 -8.07498,-6.11287 -1.455492,-4.49016 1.033639,-3.14311 10.934794,-11.47122 3.110916,-11.91145 -0.466382,3.27246 -3.468054,3.82925 -4.361084,0.0529 2.016665,-2.65283 4.497334,-5.34062 -0.843295,-4.85908 -3.176453,-1.86604 -9.42404,5.62987 -4.653955,-0.006 1.770629,-1.71945 5.473391,-5.81455 4.906155,-1.80363 3.863868,-3.17829 5.281869,0.61351 6.246319,4.35741 3.611153,-2.39103 -0.834511,-7.05715 -1.793572,-8.64525 2.613649,-1.81707 13.032563,-4.17628 7.644271,1.65688 1.023297,2.59874 -1.474992,6.70293 0.964485,8.10624 4.460896,-2.11737 9.392294,-7.70701 4.849497,-11.42493 5.579789,0.0853 12.53602,3.49902 15.102531,7.59434 -3.535438,-0.0902 -6.424902,1.02254 -9.508291,0.12767 -5.008363,2.48272 -1.262317,7.37654 1.657859,3.4753 0.829205,4.08332 -6.082455,3.20052 -7.631683,2.34805 0.97158,1.66704 0.815457,5.66618 2.295898,6.36381 2.058159,-5.10366 6.084636,1.27746 9.703586,-2.44545 -0.592338,7.79124 -10.136845,0.10407 -13.772225,5.60274 -3.64964,5.54096 2.856941,7.26179 6.748579,8.12398 1.79749,3.24118 1.824449,15.12603 7.574834,9.86023 1.965837,-4.27151 2.752076,-9.69366 3.80478,-13.61258 -3.072102,-0.5377 -5.72069,-5.42345 -1.196896,-1.83085 5.437259,2.86179 0.509073,-6.66089 4.848057,-1.41882 7.323717,2.56995 1.577609,12.1395 -1.083219,16.74602 -6.223517,9.08123 -18.188526,13.5647 -28.83156,10.73055 z"
           id="path54175"
           inkscape:connector-curvature="0" />
        <path
           style="fill:#cbcbcb;fill-opacity:1;stroke-width:0.51272714"
           d="m -42.673768,192.45736 c -2.262572,-2.97887 3.560552,3.49723 0,0 z"
           id="path54154"
           inkscape:connector-curvature="0" />
        <path
           style="fill:#fffffb;fill-opacity:1;stroke-width:0.51272714"
           d="m -67.639707,234.41169 c -2.885131,-3.5202 3.518245,-8.34978 4.06691,-12.07886 6.456964,-5.58495 -4.746395,-12.25029 -10.43156,-11.39884 -3.928873,1.17984 -6.714533,-5.27103 -1.726255,-2.11825 2.233486,-3.80378 12.576731,-13.56778 3.058384,-14.06609 -0.679378,2.12812 -3.822614,3.74533 -2.966129,0.38819 3.465101,-2.73349 3.002768,-5.74838 -2.01013,-5.10156 -5.04478,0.0341 -0.388739,-2.03811 1.921905,-0.67352 3.819284,-3.15693 3.991132,9.48968 6.93421,2.52816 0.3414,-3.87773 -4.0485,-9.3479 2.988358,-8.79325 2.13023,1.49878 -3.62345,11.0824 1.718813,12.29396 3.638869,-2.72702 10.152677,-6.93027 5.833605,-11.92652 3.700099,0.62068 11.186467,3.31476 11.492261,6.06148 -3.167477,3.26615 -6.948186,-3.1377 -9.212427,2.46356 -3.696814,1.91659 2.579643,7.46394 -2.697952,3.43222 -5.404993,1.13965 3.406554,9.18191 -3.388463,10.28162 -3.967169,6.32093 3.364064,7.76972 7.309161,9.29014 0.567966,3.97901 2.071355,15.17161 7.98131,9.4393 2.981639,-4.90243 1.840043,-11.50991 5.835799,-15.9998 7.275421,0.44662 2.400203,11.72182 -0.839637,15.61521 -5.809953,7.90767 -16.171507,12.26994 -25.868163,10.36285 z"
           id="path54167"
           inkscape:connector-curvature="0" />
        <path
           style="fill:#ffffff;fill-opacity:1;stroke-width:0.51272714"
           d="m -73.436247,232.64342 c -10.999955,-4.38011 -18.094185,-17.40958 -14.985344,-28.91287 0.73928,7.74811 11.657234,6.42251 11.402283,13.91932 5.92154,4.01356 1.506803,11.90081 6.725221,16.2085 -1.063355,-0.36274 -2.099076,-0.79942 -3.14216,-1.21495 z"
           id="path54165"
           inkscape:connector-curvature="0" />
        <path
           style="fill:#cbcbcb;fill-opacity:1;stroke-width:0.51272714"
           d="m -54.874351,202.92342 c -4.157463,-2.04926 2.940749,-1.86935 1.043094,0.17239 z"
           id="path54163"
           inkscape:connector-curvature="0" />
        <path
           style="fill:#cbcbcb;fill-opacity:1;stroke-width:0.51272714"
           d="m -51.263947,202.95092 c 2.359267,-0.59778 1.804997,0.57205 0,0 z"
           id="path54152"
           inkscape:connector-curvature="0" />
      </g>
    </g>
  </g>
</svg>
