<?xml version="1.0" encoding="UTF-8" standalone="no"?>
<!-- Created with Inkscape (http://www.inkscape.org/) -->

<svg
   xmlns:dc="http://purl.org/dc/elements/1.1/"
   xmlns:cc="http://creativecommons.org/ns#"
   xmlns:rdf="http://www.w3.org/1999/02/22-rdf-syntax-ns#"
   xmlns:svg="http://www.w3.org/2000/svg"
   xmlns="http://www.w3.org/2000/svg"
   xmlns:sodipodi="http://sodipodi.sourceforge.net/DTD/sodipodi-0.dtd"
   xmlns:inkscape="http://www.inkscape.org/namespaces/inkscape"
   width="150"
   height="150"
   viewBox="0 0 39.6875 39.6875"
   version="1.1"
   id="svg922"
   inkscape:version="0.92.4 (5da689c313, 2019-01-14)"
   sodipodi:docname="USO_OFFICE_gnucash.svg">
  <defs
     id="defs916">
    <clipPath
       clipPathUnits="userSpaceOnUse"
       id="clipPath1521">
      <rect
         style="opacity:0.875;fill:#000000;fill-opacity:1;stroke:#000000;stroke-width:0.60403091;stroke-linejoin:round;stroke-miterlimit:4;stroke-dasharray:none;stroke-opacity:1"
         id="rect1523"
         width="172.87534"
         height="151.42299"
         x="57.114269"
         y="66.644836" />
    </clipPath>
  </defs>
  <sodipodi:namedview
     id="base"
     pagecolor="#ffffff"
     bordercolor="#666666"
     borderopacity="1.0"
     inkscape:pageopacity="0.0"
     inkscape:pageshadow="2"
     inkscape:zoom="0.60862934"
     inkscape:cx="128.86551"
     inkscape:cy="191.24496"
     inkscape:document-units="px"
     inkscape:current-layer="layer1"
     showgrid="false"
     inkscape:window-width="853"
     inkscape:window-height="650"
     inkscape:window-x="2036"
     inkscape:window-y="141"
     inkscape:window-maximized="0"
     units="px" />
  <metadata
     id="metadata919">
    <rdf:RDF>
      <cc:Work
         rdf:about="">
        <dc:format>image/svg+xml</dc:format>
        <dc:type
           rdf:resource="http://purl.org/dc/dcmitype/StillImage" />
        <dc:title></dc:title>
      </cc:Work>
    </rdf:RDF>
  </metadata>
  <g
     inkscape:label="Layer 1"
     inkscape:groupmode="layer"
     id="layer1"
     transform="translate(-35.425468,-112.58038)">
    <g
       id="g9622"
       transform="matrix(0.2980795,0,0,0.28977881,24.865862,99.544917)">
      <path
         style="opacity:0.875;fill:#999999;fill-opacity:1;stroke:none;stroke-width:0.40600324;stroke-linejoin:round;stroke-miterlimit:4;stroke-dasharray:none;stroke-opacity:0.97175137"
         d="m 40.541649,79.335309 c 4.132647,-2.879859 9.751769,-2.413278 14.58294,-3.21176 27.840639,-2.044923 55.827121,-1.782311 83.687971,-0.23939 8.44978,0.729291 17.10358,0.925502 25.25914,3.45115 2.84038,5.409997 2.65096,11.873441 3.36881,17.839295 0.82417,14.162196 1.31119,28.565636 -1.46937,42.549666 -0.41934,5.71762 -6.02423,8.04253 -11.01184,8.61505 -20.19657,3.03328 -40.70475,2.906 -61.081918,3.01564 -17.041409,-0.24022 -34.168681,-0.19989 -51.090555,-2.42806 -6.472855,-0.76422 -4.229449,-9.70709 -5.525019,-14.2761 -1.050395,-16.30828 -1.537946,-32.80636 0.773143,-49.027833 0.528995,-2.131985 0.698082,-4.796009 2.506698,-6.287658 z"
         id="rect49496"
         inkscape:connector-curvature="0" />
      <path
         style="fill:#000000;stroke-width:1.26563919"
         d="m 41.515717,150.96879 c -5.711702,-2.05781 -5.238774,-9.06062 -5.717979,-14.02153 -0.436585,-15.75811 -0.553309,-31.54812 0.0015,-47.303521 -0.436441,-5.625053 3.875375,-9.795276 8.669277,-11.866878 6.455445,-3.192618 13.930493,-1.944564 20.884436,-2.520022 25.785183,-0.429233 51.579629,-0.472642 77.366519,-0.289685 7.22043,0.480561 15.26629,-0.05239 21.48077,4.264067 5.34492,4.83908 4.20747,12.821592 4.36759,19.341185 -0.60054,14.045514 0.0527,28.160374 -1.30449,42.160284 -0.93746,5.8118 -7.04218,9.14968 -12.25933,10.45193 -21.14906,1.35016 -42.37134,0.99396 -63.555869,1.08326 -16.415858,-0.19492 -32.872923,0.0952 -49.250499,-1.14372 l -0.681877,-0.15538 z m 116.461643,-3.64957 c 5.89794,-2.48774 7.14588,-9.3942 7.37251,-15.08897 0.55887,-13.34277 0.79145,-26.75998 -0.26771,-40.08197 -0.22661,-5.235691 -2.71782,-10.65847 -7.89603,-12.600489 -6.52228,-2.878882 -13.9327,-1.775744 -20.87126,-2.228431 -26.98361,-0.0728 -53.980521,-0.420882 -80.955472,0.372513 -5.686102,0.154822 -13.059572,1.026894 -15.561912,6.984748 -2.261649,8.967295 -1.276409,18.362109 -1.558615,27.527999 0.269809,9.99414 -0.711559,20.17732 1.414706,30.00948 2.112716,6.2884 9.661191,6.94096 15.292543,7.2837 27.426906,1.45354 54.91187,0.54809 82.35657,0.11392 6.86318,-0.50478 14.19529,0.36585 20.67467,-2.2925 z M 49.882052,144.89229 c -3.177542,0.0711 -8.355599,-7.29975 -2.439293,-3.05152 5.691698,3.40971 12.738389,2.05204 19.052805,2.52335 2.829236,0.33382 11.00279,-0.49673 11.167062,0.83313 -9.090656,1.49246 -18.786591,1.94553 -27.780574,-0.30496 z M 154.67692,85.873908 c -5.00297,-2.688572 -11.10143,-1.384211 -16.58281,-1.86289 -3.93588,-0.355548 -13.5043,-0.06474 -14.58274,-1.74698 9.37487,-0.304485 18.90303,-0.887454 28.18216,0.794039 3.27525,-1.122296 7.81354,7.281155 2.98339,2.815831 z"
         id="path49494"
         inkscape:connector-curvature="0" />
      <path
         style="font-style:normal;font-variant:normal;font-weight:normal;font-stretch:normal;font-size:16.97093201px;font-family:Insaniburger;-inkscape-font-specification:Insaniburger;opacity:1;vector-effect:none;fill:#000000;fill-opacity:1;stroke:none;stroke-width:0.19887809;stroke-linecap:butt;stroke-linejoin:miter;stroke-miterlimit:4;stroke-dasharray:none;stroke-dashoffset:0;stroke-opacity:1"
         d="m 74.828483,133.28759 c -2.293917,-1.35101 -5.436034,2.72098 -1.747431,3.14244 -2.564906,5.64884 -6.103702,-7.36852 -0.231277,-4.97788 3.73614,3.06915 3.51261,-4.28167 -0.23816,-3.36925 -7.140616,-1.97674 -8.112965,13.65509 -0.800753,13.0608 3.806912,1.29091 5.270432,-4.68438 3.512298,-7.74973 z m 7.848751,0.74819 c -0.362682,-2.48635 0.109697,-7.82238 2.816631,-4.71483 0.149181,3.57765 0.150135,7.2175 0,10.79514 -2.08287,2.73384 -3.749362,-1.82315 -5.100808,-3.52242 -1.670109,-3.00363 -0.129303,2.97883 -1.162959,4.03097 -3.1982,1.90548 -2.521635,-3.35706 -2.544053,-5.74228 0.206776,-2.34231 -0.953119,-7.41156 2.254038,-6.28974 1.392496,1.61794 2.478905,3.65233 3.737151,5.44316 z m 11.453742,3.57267 c -0.329549,5.245 -8.618111,4.58856 -7.812038,-1.04349 0.177337,-2.56285 -0.392963,-5.3768 0.363436,-7.75256 3.198196,-1.90549 2.521634,3.35706 2.544051,5.74228 -1.116719,3.43026 2.68639,4.81474 1.997061,0.77218 0.303225,-2.22448 -0.738318,-5.32308 0.817732,-6.81958 3.081143,-0.75861 1.841865,4.09279 2.089758,6.39523 0,0.90197 0,1.80395 0,2.70594 z m 13.472834,1.15971 c -3.01293,6.16648 -11.530857,-0.12357 -8.839938,-6.82033 0.310738,-5.78655 11.464488,-4.70228 7.709258,0.19874 -4.27079,-4.37495 -7.889591,6.06355 -2.13289,5.60216 1.14807,-0.57179 3.18772,-1.52244 3.26357,1.01943 z m 5.85903,-2.95539 c -0.25792,-4.92081 -2.40517,1.23927 0,0 z m -2.12922,2.99279 c -1.4667,5.19006 -4.39636,-0.50058 -2.01457,-3.22317 1.04428,-2.33716 1.43065,-5.36338 3.06863,-7.09733 2.3385,-0.12234 2.46112,3.94709 3.53263,5.93427 1.03607,2.08505 2.75406,7.51906 -0.81466,6.29416 -0.54104,-2.7456 -2.02878,-1.73838 -3.77203,-1.90793 z m 10.69016,2.26332 c -3.01066,1.85982 -6.0562,-5.46963 -1.79882,-3.56331 4.68728,1.54707 1.26665,-2.51298 -1.08296,-3.15413 -3.93731,-5.82892 7.22981,-9.18238 5.52495,-2.88292 -1.23974,-0.1631 -5.51125,-0.87109 -2.51467,1.51043 4.28062,0.33841 4.17587,8.16442 -0.1285,8.08993 z m 10.28635,-12.66331 c 2.47672,0.46119 1.09229,4.58879 1.45374,6.84477 0.32682,2.50469 -0.0403,7.99916 -2.81663,4.86575 -0.14738,-2.19761 0.46528,-4.9493 -2.07323,-3.92923 1.0736,3.00388 -2.00447,7.44989 -2.90749,2.86944 0.0552,-3.24256 -0.1138,-6.50817 0.0909,-9.73535 3.11456,-3.68483 2.36457,3.11972 3.36276,3.87311 2.83152,1.11094 0.28918,-3.8288 2.25398,-4.68678 z"
         id="text49550"
         inkscape:connector-curvature="0" />
      <g
         id="g2455"
         transform="matrix(0.6140466,0,0,0.56988043,-121.06551,-34.188207)">
        <path
           style="fill:#000000;fill-opacity:1;stroke-width:0.61634219"
           d="m 338.30358,275.11866 c -9.70179,-7.31832 -9.75134,-22.92001 -1.45706,-31.38693 9.38081,-12.14271 18.15386,-24.86583 28.61378,-36.10513 9.274,-4.22849 15.14571,8.10718 19.30075,14.58025 4.07931,7.21295 3.99328,16.413 -1.97686,22.60527 -6.9397,9.34536 -13.5691,19.00508 -21.36987,27.65495 -9.88851,-1.89149 3.33849,-13.70543 6.51238,-18.82697 4.45043,-7.31817 12.63356,-13.49328 13.49532,-22.28567 -2.16302,-5.82812 -6.85164,-16.81363 -13.22861,-16.48708 -10.85654,12.58154 -20.89907,25.9196 -30.40861,39.54266 -4.02796,6.95503 4.53215,20.63551 9.49994,9.03891 7.2613,-9.30698 14.79475,-18.481 21.11672,-28.45846 -3.32669,-3.50864 -8.87038,9.19134 -12.461,12.21044 -2.9064,3.81038 -12.01715,17.82011 -12.97918,6.33833 6.51849,-9.57138 13.70076,-18.7796 21.50864,-27.33503 10.19457,-4.41092 12.62387,11.51935 6.66621,16.99307 -8.0252,11.12705 -16.01896,22.45357 -25.56169,32.32769 -2.25464,1.5425 -5.16742,1.14656 -7.27086,-0.4063 z"
           id="path53927"
           inkscape:connector-curvature="0" />
      </g>
    </g>
  </g>
</svg>
