<?xml version="1.0" encoding="UTF-8" standalone="no"?>
<!-- Created with Inkscape (http://www.inkscape.org/) -->

<svg
   xmlns:dc="http://purl.org/dc/elements/1.1/"
   xmlns:cc="http://creativecommons.org/ns#"
   xmlns:rdf="http://www.w3.org/1999/02/22-rdf-syntax-ns#"
   xmlns:svg="http://www.w3.org/2000/svg"
   xmlns="http://www.w3.org/2000/svg"
   xmlns:sodipodi="http://sodipodi.sourceforge.net/DTD/sodipodi-0.dtd"
   xmlns:inkscape="http://www.inkscape.org/namespaces/inkscape"
   width="150"
   height="150"
   viewBox="0 0 39.6875 39.6875"
   version="1.1"
   id="svg922"
   inkscape:version="0.92.4 (5da689c313, 2019-01-14)"
   sodipodi:docname="USO_MULTIMEDIA_openshot_video_editor.svg">
  <defs
     id="defs916">
    <clipPath
       clipPathUnits="userSpaceOnUse"
       id="clipPath1521">
      <rect
         style="opacity:0.875;fill:#000000;fill-opacity:1;stroke:#000000;stroke-width:0.60403091;stroke-linejoin:round;stroke-miterlimit:4;stroke-dasharray:none;stroke-opacity:1"
         id="rect1523"
         width="172.87534"
         height="151.42299"
         x="57.114269"
         y="66.644836" />
    </clipPath>
  </defs>
  <sodipodi:namedview
     id="base"
     pagecolor="#ffffff"
     bordercolor="#666666"
     borderopacity="1.0"
     inkscape:pageopacity="0.0"
     inkscape:pageshadow="2"
     inkscape:zoom="1.513145"
     inkscape:cx="282.6289"
     inkscape:cy="36.524643"
     inkscape:document-units="px"
     inkscape:current-layer="layer1"
     showgrid="false"
     inkscape:window-width="1262"
     inkscape:window-height="792"
     inkscape:window-x="2160"
     inkscape:window-y="117"
     inkscape:window-maximized="0"
     units="px" />
  <metadata
     id="metadata919">
    <rdf:RDF>
      <cc:Work
         rdf:about="">
        <dc:format>image/svg+xml</dc:format>
        <dc:type
           rdf:resource="http://purl.org/dc/dcmitype/StillImage" />
        <dc:title></dc:title>
      </cc:Work>
    </rdf:RDF>
  </metadata>
  <g
     inkscape:label="Layer 1"
     inkscape:groupmode="layer"
     id="layer1"
     transform="translate(-35.425468,-112.58038)">
    <g
       id="g9658"
       transform="matrix(0.2980795,0,0,0.28977881,24.865862,99.544917)">
      <path
         style="opacity:0.875;fill:#999999;fill-opacity:1;stroke:none;stroke-width:0.40600324;stroke-linejoin:round;stroke-miterlimit:4;stroke-dasharray:none;stroke-opacity:0.97175137"
         d="m 40.541649,79.335309 c 4.132647,-2.879859 9.751769,-2.413278 14.58294,-3.21176 27.840639,-2.044923 55.827121,-1.782311 83.687971,-0.23939 8.44978,0.729291 17.10358,0.925502 25.25914,3.45115 2.84038,5.409997 2.65096,11.873441 3.36881,17.839295 0.82417,14.162196 1.31119,28.565636 -1.46937,42.549666 -0.41934,5.71762 -6.02423,8.04253 -11.01184,8.61505 -20.19657,3.03328 -40.70475,2.906 -61.081918,3.01564 -17.041409,-0.24022 -34.168681,-0.19989 -51.090555,-2.42806 -6.472855,-0.76422 -4.229449,-9.70709 -5.525019,-14.2761 -1.050395,-16.30828 -1.537946,-32.80636 0.773143,-49.027833 0.528995,-2.131985 0.698082,-4.796009 2.506698,-6.287658 z"
         id="rect49496"
         inkscape:connector-curvature="0" />
      <path
         style="fill:#000000;stroke-width:1.26563919"
         d="m 41.515717,150.96879 c -5.711702,-2.05781 -5.238774,-9.06062 -5.717979,-14.02153 -0.436585,-15.75811 -0.553309,-31.54812 0.0015,-47.303521 -0.436441,-5.625053 3.875375,-9.795276 8.669277,-11.866878 6.455445,-3.192618 13.930493,-1.944564 20.884436,-2.520022 25.785183,-0.429233 51.579629,-0.472642 77.366519,-0.289685 7.22043,0.480561 15.26629,-0.05239 21.48077,4.264067 5.34492,4.83908 4.20747,12.821592 4.36759,19.341185 -0.60054,14.045514 0.0527,28.160374 -1.30449,42.160284 -0.93746,5.8118 -7.04218,9.14968 -12.25933,10.45193 -21.14906,1.35016 -42.37134,0.99396 -63.555869,1.08326 -16.415858,-0.19492 -32.872923,0.0952 -49.250499,-1.14372 l -0.681877,-0.15538 z m 116.461643,-3.64957 c 5.89794,-2.48774 7.14588,-9.3942 7.37251,-15.08897 0.55887,-13.34277 0.79145,-26.75998 -0.26771,-40.08197 -0.22661,-5.235691 -2.71782,-10.65847 -7.89603,-12.600489 -6.52228,-2.878882 -13.9327,-1.775744 -20.87126,-2.228431 -26.98361,-0.0728 -53.980521,-0.420882 -80.955472,0.372513 -5.686102,0.154822 -13.059572,1.026894 -15.561912,6.984748 -2.261649,8.967295 -1.276409,18.362109 -1.558615,27.527999 0.269809,9.99414 -0.711559,20.17732 1.414706,30.00948 2.112716,6.2884 9.661191,6.94096 15.292543,7.2837 27.426906,1.45354 54.91187,0.54809 82.35657,0.11392 6.86318,-0.50478 14.19529,0.36585 20.67467,-2.2925 z M 49.882052,144.89229 c -3.177542,0.0711 -8.355599,-7.29975 -2.439293,-3.05152 5.691698,3.40971 12.738389,2.05204 19.052805,2.52335 2.829236,0.33382 11.00279,-0.49673 11.167062,0.83313 -9.090656,1.49246 -18.786591,1.94553 -27.780574,-0.30496 z M 154.67692,85.873908 c -5.00297,-2.688572 -11.10143,-1.384211 -16.58281,-1.86289 -3.93588,-0.355548 -13.5043,-0.06474 -14.58274,-1.74698 9.37487,-0.304485 18.90303,-0.887454 28.18216,0.794039 3.27525,-1.122296 7.81354,7.281155 2.98339,2.815831 z"
         id="path49494"
         inkscape:connector-curvature="0" />
      <path
         style="font-style:normal;font-variant:normal;font-weight:normal;font-stretch:normal;font-size:12.05496979px;font-family:Insaniburger;-inkscape-font-specification:Insaniburger;opacity:1;vector-effect:none;fill:#000000;fill-opacity:1;stroke:none;stroke-width:0.14126918;stroke-linecap:butt;stroke-linejoin:miter;stroke-miterlimit:4;stroke-dasharray:none;stroke-dashoffset:0;stroke-opacity:1"
         d="m 54.016453,136.15084 c 0.0669,8.6186 -9.745126,4.46969 -6.399869,-2.87134 1.740828,-3.94983 6.652655,-2.11629 6.399869,2.87134 z m -2.302496,-1.7903 c -4.170074,-3.73699 -2.552955,8.61307 0.326672,2.76747 0.205766,-0.91779 0.139425,-2.03385 -0.326672,-2.76747 z m 5.620225,3.48788 c 4.666462,-1.88739 0.418026,-8.66213 -2.664384,-6.0806 -0.485036,2.69324 -0.189147,5.76491 -0.180338,8.59218 2.984118,3.46411 0.73739,-3.75015 2.844722,-2.51158 z m -0.427467,-4.47933 c 3.044174,1.65835 -2.586071,3.97424 0,0 z m 6.246853,7.68902 c 2.693439,-1.94039 -4.043782,-2.98508 -0.194304,-3.69472 2.458289,-1.72863 -3.785944,-3.40918 0.194304,-3.66619 2.574729,-2.3199 -3.475787,-3.7687 -3.293442,-0.65366 0.148904,2.54066 -0.306012,5.31142 0.24045,7.7043 0.916683,0.61254 2.061882,0.17976 3.052992,0.31027 z m 5.197615,-5.33524 c -0.937845,-2.70131 1.612593,-6.60985 1.923604,-2.30588 -0.146969,2.41671 0.303376,5.06172 -0.240451,7.33085 -1.740959,1.62194 -2.910275,-3.79551 -3.723338,-3.62441 1.027241,3.06249 -2.104016,5.90514 -1.923604,1.57325 0.144954,-2.29153 -0.300623,-4.81 0.240451,-6.95383 1.779573,-1.22866 2.585393,2.63324 3.723338,3.98002 z m 5.0276,5.36377 c -3.355132,0.71676 -3.123895,-5.04743 0.034,-2.32525 1.562385,-2.01716 -4.79305,-2.95416 -1.739015,-6.73324 2.377581,-3.65263 5.835708,3.56807 1.432988,1.35522 -1.064522,2.03311 4.828936,3.10343 1.826451,6.86875 l -0.697063,0.6259 z m 6.805475,-9.65763 c 1.820722,0.75555 0.611087,4.67051 0.961801,6.84278 0.626547,4.02551 -2.913217,2.86986 -1.923603,-0.69544 -2.337682,-2.09976 -0.253335,4.48637 -2.694138,3.40419 -1.1166,-1.73652 -0.282544,-4.83023 -0.541013,-7.13866 -0.344932,-4.03828 2.933944,-1.95409 1.923603,1.23905 2.661461,1.32655 0.11009,-3.62652 2.27335,-3.65192 z m 8.321045,4.72183 c 0.06689,8.6186 -9.745129,4.46969 -6.399871,-2.87134 1.740829,-3.94983 6.652652,-2.11629 6.399871,2.87134 z m -2.302498,-1.7903 c -4.170075,-3.73699 -2.552953,8.61307 0.326674,2.76747 0.205767,-0.91779 0.139426,-2.03385 -0.326674,-2.76747 z m 6.314859,-0.66334 c -0.14016,2.33038 0.293491,4.88105 -0.240444,7.06491 -2.50357,1.38642 -1.482417,-3.72912 -1.683158,-5.78562 0.3062,-1.80009 -3.608659,-2.44887 -0.462857,-3.54748 1.42904,-0.30352 5.871314,-0.0784 3.113362,2.26819 -0.242301,0 -0.484602,0 -0.726903,0 z m 7.568126,7.38944 c -1.599969,-1.41894 -1.845142,-4.80426 -2.813157,-7.1221 -0.449009,-5.28337 2.636649,-0.44542 2.813157,2.1863 0.13959,-2.65738 3.24344,-7.46982 2.79874,-2.1713 -0.95659,2.28124 -1.22448,5.72795 -2.79874,7.1071 z m 5.38705,-1.26961 c -1.63689,3.67575 -2.33489,-1.91823 -1.9236,-4.10791 -0.94014,-2.70186 1.61913,-6.58795 1.9236,-2.29213 0,2.13334 0,4.26669 0,6.40004 z m 3.40031,1.24108 c -1.96395,0.67121 -3.52272,-0.69352 -2.91455,-3.85521 0.239,-2.00985 -0.83375,-6.19503 1.47047,-5.77389 4.26495,-1.51646 5.60116,8.41135 1.44408,9.6291 z m 0.7335,-4.90014 c -0.63856,-5.04589 -2.45653,-1.95446 -1.72445,1.31904 -0.596,3.44036 2.22719,0.74491 1.72445,-1.31904 z m 5.48907,4.90014 c 2.69344,-1.94039 -4.04378,-2.98508 -0.19431,-3.69472 2.45829,-1.72863 -3.78594,-3.40918 0.19431,-3.66619 2.57473,-2.3199 -3.47579,-3.7687 -3.29344,-0.65366 0.1489,2.54066 -0.30601,5.31142 0.24045,7.7043 0.91668,0.61254 2.06188,0.17976 3.05299,0.31027 z m 8.10731,-4.90727 c 0.0669,8.6186 -9.74512,4.46969 -6.39987,-2.87134 1.74083,-3.94983 6.65265,-2.11629 6.39987,2.87134 z m -2.3025,-1.7903 c -4.17007,-3.73699 -2.55295,8.61307 0.32668,2.76747 0.20576,-0.91779 0.13942,-2.03385 -0.32668,-2.76747 z m 8.41819,6.69757 c 2.69345,-1.94039 -4.04378,-2.98508 -0.1943,-3.69472 2.45829,-1.72863 -3.78594,-3.40918 0.1943,-3.66619 2.57473,-2.3199 -3.47578,-3.7687 -3.29344,-0.65366 0.1489,2.54066 -0.30601,5.31142 0.24046,7.7043 0.91667,0.61254 2.06188,0.17976 3.05298,0.31027 z m 4.14838,0 c -1.96395,0.67121 -3.52272,-0.69352 -2.91455,-3.85521 0.239,-2.00985 -0.83376,-6.19503 1.47047,-5.77389 4.26495,-1.51646 5.60116,8.41135 1.44408,9.6291 z m 0.7335,-4.90014 c -0.63856,-5.04589 -2.45653,-1.95446 -1.72444,1.31904 -0.59601,3.44036 2.22718,0.74491 1.72444,-1.31904 z m 4.11923,3.65906 c -1.6369,3.67575 -2.3349,-1.91823 -1.9236,-4.10791 -0.94015,-2.70186 1.61912,-6.58795 1.9236,-2.29213 0,2.13334 0,4.26669 0,6.40004 z m 4.08523,-6.11983 c -0.14016,2.33038 0.29348,4.88105 -0.24045,7.06491 -2.50357,1.38642 -1.48241,-3.72912 -1.68315,-5.78562 0.30619,-1.80009 -3.60867,-2.44887 -0.46286,-3.54748 1.42904,-0.30352 5.87131,-0.0784 3.11336,2.26819 -0.2423,0 -0.4846,0 -0.7269,0 z m 9.04482,2.45364 c 0.0669,8.6186 -9.74513,4.46969 -6.39987,-2.87134 1.74083,-3.94983 6.65266,-2.11629 6.39987,2.87134 z m -2.3025,-1.7903 c -4.17007,-3.73699 -2.55295,8.61307 0.32667,2.76747 0.20577,-0.91779 0.13943,-2.03385 -0.32667,-2.76747 z m 6.74719,2.60343 c 2.41907,2.55221 -0.3824,5.86135 -1.45873,1.71572 -1.19635,-3.71549 -0.0534,5.48172 -2.51295,1.68031 0.0167,-2.8311 -0.33477,-5.92582 0.18033,-8.62072 2.32696,-1.5061 6.9209,1.04058 3.79135,5.22469 z m -2.10819,-3.59488 c -0.82907,5.14284 3.55416,-0.0191 0,0 z"
         id="text49550"
         inkscape:connector-curvature="0" />
      <path
         style="fill:#000000;stroke-width:0.48120552"
         d="m 101.87198,124.34998 c -5.540189,-2.63738 -0.75377,-10.18428 4.09393,-10.06893 7.27016,0.66588 4.64186,-8.28637 5.24849,-12.80043 0.11651,-5.034893 -0.0286,-10.109088 0.57145,-15.110538 4.63315,0.615253 9.058,4.081854 11.10474,8.350376 2.12852,5.303692 2.33404,12.741062 -2.60148,16.548912 0.68827,-3.89645 -1.14422,-12.472473 -5.99136,-11.975776 -1.1325,7.281556 0.2626,14.879056 -1.65915,22.019486 -2.22995,3.29716 -7.15706,4.26493 -10.76662,3.0369 z M 87.992078,118.38244 C 76.113755,115.13252 70.44484,99.587401 77.057302,89.342525 82.851065,79.322624 98.054016,76.586167 106.63297,84.564624 c 5.99943,4.488696 -1.14795,8.841158 -5.08381,11.101841 -0.73494,4.445685 9.58713,-3.905147 7.33597,3.52889 -1.11679,3.846875 2.74088,12.461585 -2.75193,12.945925 -5.73477,-0.14589 -7.19106,7.56218 -12.49132,7.09097 -1.904061,-0.048 -3.826645,-0.28363 -5.649802,-0.84981 z m -1.491663,-9.74646 c 4.3811,-3.04334 0.154665,-7.56957 -3.582533,-4.48757 -7.700504,0.0916 0.01309,11.5487 3.094591,5.07211 z m 10.68968,-5.94021 c 5.561735,-4.570844 -4.858001,-11.951296 -7.455854,-5.124446 -2.481758,4.499046 4.169009,9.304656 7.455854,5.124446 z m -7.233158,-9.454008 c 4.390717,-1.715775 0.337603,-13.43166 -4.523912,-7.813549 -4.089103,1.5294 -5.281561,5.719764 -0.51569,7.325852 1.87306,1.490197 2.994605,2.737081 5.039602,0.487697 z"
         id="path53394"
         inkscape:connector-curvature="0" />
    </g>
  </g>
</svg>
