<?xml version="1.0" encoding="UTF-8" standalone="no"?>
<!-- Created with Inkscape (http://www.inkscape.org/) -->

<svg
   xmlns:dc="http://purl.org/dc/elements/1.1/"
   xmlns:cc="http://creativecommons.org/ns#"
   xmlns:rdf="http://www.w3.org/1999/02/22-rdf-syntax-ns#"
   xmlns:svg="http://www.w3.org/2000/svg"
   xmlns="http://www.w3.org/2000/svg"
   xmlns:sodipodi="http://sodipodi.sourceforge.net/DTD/sodipodi-0.dtd"
   xmlns:inkscape="http://www.inkscape.org/namespaces/inkscape"
   width="150"
   height="150"
   viewBox="0 0 39.6875 39.6875"
   version="1.1"
   id="svg922"
   inkscape:version="0.92.4 (5da689c313, 2019-01-14)"
   sodipodi:docname="USO_DEVELOPMENT_bash.svg">
  <defs
     id="defs916">
    <clipPath
       clipPathUnits="userSpaceOnUse"
       id="clipPath1521">
      <rect
         style="opacity:0.875;fill:#000000;fill-opacity:1;stroke:#000000;stroke-width:0.60403091;stroke-linejoin:round;stroke-miterlimit:4;stroke-dasharray:none;stroke-opacity:1"
         id="rect1523"
         width="172.87534"
         height="151.42299"
         x="57.114269"
         y="66.644836" />
    </clipPath>
  </defs>
  <sodipodi:namedview
     id="base"
     pagecolor="#ffffff"
     bordercolor="#666666"
     borderopacity="1.0"
     inkscape:pageopacity="0.0"
     inkscape:pageshadow="2"
     inkscape:zoom="0.66140777"
     inkscape:cx="305.74628"
     inkscape:cy="209.07503"
     inkscape:document-units="px"
     inkscape:current-layer="layer1"
     showgrid="false"
     inkscape:window-width="1262"
     inkscape:window-height="792"
     inkscape:window-x="2024"
     inkscape:window-y="113"
     inkscape:window-maximized="0"
     units="px" />
  <metadata
     id="metadata919">
    <rdf:RDF>
      <cc:Work
         rdf:about="">
        <dc:format>image/svg+xml</dc:format>
        <dc:type
           rdf:resource="http://purl.org/dc/dcmitype/StillImage" />
        <dc:title></dc:title>
      </cc:Work>
    </rdf:RDF>
  </metadata>
  <g
     inkscape:label="Layer 1"
     inkscape:groupmode="layer"
     id="layer1"
     transform="translate(-35.425468,-112.58038)">
    <g
       id="g1653"
       transform="matrix(0.2980795,0,0,0.28977881,24.865862,99.544917)">
      <path
         style="opacity:0.875;fill:#999999;fill-opacity:1;stroke:none;stroke-width:0.40600324;stroke-linejoin:round;stroke-miterlimit:4;stroke-dasharray:none;stroke-opacity:0.97175137"
         d="m 40.541649,79.335309 c 4.132647,-2.879859 9.751769,-2.413278 14.58294,-3.21176 27.840639,-2.044923 55.827121,-1.782311 83.687971,-0.23939 8.44978,0.729291 17.10358,0.925502 25.25914,3.45115 2.84038,5.409997 2.65096,11.873441 3.36881,17.839295 0.82417,14.162196 1.31119,28.565636 -1.46937,42.549666 -0.41934,5.71762 -6.02423,8.04253 -11.01184,8.61505 -20.19657,3.03328 -40.70475,2.906 -61.081918,3.01564 -17.041409,-0.24022 -34.168681,-0.19989 -51.090555,-2.42806 -6.472855,-0.76422 -4.229449,-9.70709 -5.525019,-14.2761 -1.050395,-16.30828 -1.537946,-32.80636 0.773143,-49.027833 0.528995,-2.131985 0.698082,-4.796009 2.506698,-6.287658 z"
         id="rect49496"
         inkscape:connector-curvature="0" />
      <path
         style="fill:#000000;stroke-width:1.26563919"
         d="m 41.515717,150.96879 c -5.711702,-2.05781 -5.238774,-9.06062 -5.717979,-14.02153 -0.436585,-15.75811 -0.553309,-31.54812 0.0015,-47.303521 -0.436441,-5.625053 3.875375,-9.795276 8.669277,-11.866878 6.455445,-3.192618 13.930493,-1.944564 20.884436,-2.520022 25.785183,-0.429233 51.579629,-0.472642 77.366519,-0.289685 7.22043,0.480561 15.26629,-0.05239 21.48077,4.264067 5.34492,4.83908 4.20747,12.821592 4.36759,19.341185 -0.60054,14.045514 0.0527,28.160374 -1.30449,42.160284 -0.93746,5.8118 -7.04218,9.14968 -12.25933,10.45193 -21.14906,1.35016 -42.37134,0.99396 -63.555869,1.08326 -16.415858,-0.19492 -32.872923,0.0952 -49.250499,-1.14372 l -0.681877,-0.15538 z m 116.461643,-3.64957 c 5.89794,-2.48774 7.14588,-9.3942 7.37251,-15.08897 0.55887,-13.34277 0.79145,-26.75998 -0.26771,-40.08197 -0.22661,-5.235691 -2.71782,-10.65847 -7.89603,-12.600489 -6.52228,-2.878882 -13.9327,-1.775744 -20.87126,-2.228431 -26.98361,-0.0728 -53.980521,-0.420882 -80.955472,0.372513 -5.686102,0.154822 -13.059572,1.026894 -15.561912,6.984748 -2.261649,8.967295 -1.276409,18.362109 -1.558615,27.527999 0.269809,9.99414 -0.711559,20.17732 1.414706,30.00948 2.112716,6.2884 9.661191,6.94096 15.292543,7.2837 27.426906,1.45354 54.91187,0.54809 82.35657,0.11392 6.86318,-0.50478 14.19529,0.36585 20.67467,-2.2925 z M 49.882052,144.89229 c -3.177542,0.0711 -8.355599,-7.29975 -2.439293,-3.05152 5.691698,3.40971 12.738389,2.05204 19.052805,2.52335 2.829236,0.33382 11.00279,-0.49673 11.167062,0.83313 -9.090656,1.49246 -18.786591,1.94553 -27.780574,-0.30496 z M 154.67692,85.873908 c -5.00297,-2.688572 -11.10143,-1.384211 -16.58281,-1.86289 -3.93588,-0.355548 -13.5043,-0.06474 -14.58274,-1.74698 9.37487,-0.304485 18.90303,-0.887454 28.18216,0.794039 3.27525,-1.122296 7.81354,7.281155 2.98339,2.815831 z"
         id="path49494"
         inkscape:connector-curvature="0" />
      <path
         style="font-style:normal;font-variant:normal;font-weight:normal;font-stretch:normal;font-size:16.97093201px;font-family:Insaniburger;-inkscape-font-specification:Insaniburger;opacity:1;vector-effect:none;fill:#000000;fill-opacity:1;stroke:none;stroke-width:0.19887809;stroke-linecap:butt;stroke-linejoin:miter;stroke-miterlimit:4;stroke-dasharray:none;stroke-dashoffset:0;stroke-opacity:1"
         d="m 88.256452,137.29046 c 0.117758,4.5587 -3.893885,3.69715 -6.284875,3.74101 -2.476721,-0.4612 -1.092298,-4.58879 -1.453744,-6.84477 0.05525,-2.31743 -0.665482,-6.55616 2.272927,-5.78113 2.887393,-1.08283 7.270388,2.34913 3.909158,5.76115 0.961703,0.51674 1.608424,1.79042 1.556534,3.12374 z m -2.907488,-0.20576 c -0.878877,-4.13829 -3.470168,1.31034 -1.104459,1.36547 0.632621,0.12616 1.184803,-0.55722 1.104459,-1.36547 z m -0.205581,-4.91942 c -1.266237,-4.22274 -3.096617,2.9296 -0.231277,0.91187 l 0.173458,-0.37994 z m 8.861969,3.64749 c -0.257923,-4.92081 -2.405175,1.23927 0,0 z m -2.129221,2.99279 c -1.466703,5.19006 -4.396364,-0.50058 -2.014578,-3.22317 1.044289,-2.33716 1.430659,-5.36338 3.068631,-7.09733 2.338501,-0.12234 2.461127,3.94709 3.532636,5.93427 1.036067,2.08505 2.754056,7.51906 -0.814667,6.29416 -0.541044,-2.7456 -2.028772,-1.73838 -3.772022,-1.90793 z m 10.690159,2.26332 c -3.010668,1.85982 -6.05621,-5.46963 -1.79882,-3.56331 4.68727,1.54707 1.26664,-2.51298 -1.082975,-3.15413 -3.937302,-5.82892 7.229825,-9.18238 5.524965,-2.88292 -1.23975,-0.1631 -5.511249,-0.87109 -2.51469,1.51043 4.28064,0.33841 4.17589,8.16442 -0.12848,8.08993 z m 10.28634,-12.66331 c 2.47673,0.46119 1.0923,4.58879 1.45374,6.84477 0.32682,2.50469 -0.0403,7.99916 -2.81662,4.86575 -0.14739,-2.19761 0.46528,-4.9493 -2.07324,-3.92923 1.0736,3.00388 -2.00447,7.44989 -2.90749,2.86944 0.0552,-3.24256 -0.1138,-6.50817 0.0909,-9.73535 3.11456,-3.68483 2.36456,3.11972 3.36275,3.87311 2.83153,1.11094 0.28919,-3.8288 2.25399,-4.68678 z"
         id="text49550"
         inkscape:connector-curvature="0" />
      <g
         transform="matrix(0.31348312,0,0,0.30728525,113.10759,-26.1196)"
         id="g55062">
        <path
           style="fill:#8c8c8c;fill-opacity:1;stroke-width:0.26458332"
           d="m -18.197595,491.89564 c -6.909065,-3.20925 -1.996454,-14.36749 -12.879485,-14.36821 -3.688715,-3.62645 -9.636533,4.35667 -13.384123,-0.9047 -3.078015,-3.9911 -6.444977,-10.75565 -0.23207,-13.7211 4.867143,-4.05664 4.351256,-14.92438 -2.114174,-17.90088 -3.954246,-4.33378 0.979777,-12.12817 5.565091,-13.75291 7.037501,2.94406 11.973105,1.26804 18.240136,-3.44921 -0.754295,-6.40292 3.426599,-12.03299 10.067045,-10.25204 9.8068133,1.11038 9.9450917,21.88685 23.919602,13.78058 7.167729,-0.98974 13.34491,12.0319 5.448161,15.55513 -5.338797,5.14996 -3.130296,15.89221 3.589791,19.59725 0.985466,6.08708 -5.215025,15.42484 -12.072162,10.76134 -7.14248172,-1.662 -15.1417803,6.39665 -15.877529,13.54173 -2.677857,2.52393 -7.034822,0.93559 -10.270283,1.11302 z m 5.89394,-26.46149 c 10.8672216,-1.23223 11.97881126,-17.82689 1.703467,-20.86359 -9.883593,-3.86412 -18.813709,9.6281 -11.668614,17.23364 2.309742,2.84619 6.358216,4.34846 9.965147,3.62995 z m -84.941918,10.55379 c -7.900467,-1.10156 -11.478607,-9.57155 -9.921877,-16.77571 0,-29.37582 0,-58.75164 0,-88.12746 2.47918,-8.91564 12.485499,-9.97181 20.278676,-9.10068 31.681263,0.19111 63.43248,-0.38102 95.070194,0.28523 11.321006,1.71398 10.24538,14.16347 9.931331,22.66082 -0.01076,12.63489 0.03425,25.27017 -0.06615,37.9047 -4.426241,-3.94348 -14.8696167,4.06517 -13.16302,-4.82306 0,-7.91617 0,-15.83235 0,-23.74852 -32.896525,0 -65.793049,0 -98.689574,0 0,22.84236 0,45.68472 0,68.52708 12.328727,0 24.657453,0 36.98618,0 -4.502552,4.9608 5.375387,15.79887 -4.053797,13.48606 -12.115208,-0.18111 -24.288921,0.28069 -36.371963,-0.28846 z m 10.95389,-92.66688 c 6.462716,-4.24865 -2.422079,-13.16656 -6.85285,-7.41567 -3.76823,4.44338 2.356112,10.87336 6.85285,7.41567 z m 14.2603,0.53057 c 6.277998,-2.38835 1.338013,-12.45963 -4.25651,-9.19367 -6.307453,3.01821 -1.246523,11.74062 4.25651,9.19367 z m 15.08125,0 c 8.629806,-3.98417 -3.799066,-15.70132 -6.94656,-6.05047 -1.449926,4.03865 3.288962,7.80242 6.94656,6.05047 z"
           id="path55037"
           inkscape:connector-curvature="0" />
        <path
           style="fill:#606060;fill-opacity:1;stroke-width:0.26458332"
           d="m -17.012326,491.98232 c -7.057462,-2.80562 -8.961733,-20.02462 -20.096116,-14.42184 -6.54192,3.72767 -11.853156,-5.51307 -11.022651,-11.07347 6.965864,-3.47826 9.154489,-14.76779 3.61923,-19.70434 -7.816452,-3.41095 -1.737911,-16.11689 5.176462,-15.47811 6.058494,4.75942 10.033337,-1.23443 15.796055,-3.22419 1.780411,-3.24107 0.901432,-11.34563 7.257822,-10.40185 8.7749521,-2.91427 10.4922018,6.33718 13.296545,11.09321 5.5102184,8.92253 11.9613343,0.55057 18.473651,3.52082 3.718145,3.80339 7.564013,11.2983 0.979602,14.48702 -4.914634,4.12173 -4.301338,15.13965 2.298233,18.04107 3.670589,4.43247 -0.966593,11.47631 -5.318745,13.57975 -7.2619506,-3.02079 -16.9029627,-1.62221 -19.25589,7.12037 0.2910179,6.61011 -6.163811,7.07322 -11.204198,6.46156 z m 6.756461,-27.02814 c 11.00711186,-3.39464 7.8631264,-21.11936 -3.371753,-20.94707 -11.182798,-1.07886 -15.729225,15.88071 -5.382263,20.40889 2.625753,1.53198 5.983597,1.63155 8.754016,0.53818 z m -88.640198,10.55154 c -12.373637,-4.65425 -7.401527,-18.79925 -8.403677,-28.78251 0.27359,-25.18967 -0.54739,-50.51952 0.41063,-75.62155 3.63346,-12.52878 17.963963,-8.43284 27.580736,-9.11355 29.57921,0.33138 59.234697,-0.66857 88.765334,0.51058 9.481584,2.81961 9.158316,13.7485 8.655791,21.7669 0,12.83906 0,25.67812 0,38.51718 -4.093392,-3.96325 -13.8824506,3.64248 -13.229166,-3.73001 0,-8.26317 0,-16.52633 0,-24.7895 -32.984719,0 -65.969439,0 -98.954158,0 0,22.84236 0,45.68472 0,68.52708 12.277022,0.13431 25.096815,-0.26601 37.03866,0.19844 -3.838583,6.30182 5.450633,16.00624 -5.940945,13.02595 -11.942226,-0.32831 -24.110248,0.62554 -35.923205,-0.50901 z m 11.96924,-91.70117 c 10.234882,-7.67037 -9.055056,-14.49043 -7.45001,-3.43192 1.119688,2.96997 4.43959,5.15174 7.45001,3.43192 z m 15.51869,-0.27849 c 9.455807,-6.84711 -10.701392,-14.49437 -7.413482,-2.29446 0.904211,2.86166 4.975964,4.15814 7.413482,2.29446 z m 14.95463,0.0961 c 6.850131,-3.28853 -1.501496,-13.81917 -6.32229,-7.79123 -4.171791,3.86315 1.518541,11.0407 6.32229,7.79123 z"
           id="path55035"
           inkscape:connector-curvature="0" />
        <path
           style="fill:#000000;fill-opacity:1;stroke-width:0.26458332"
           d="m -19.061206,491.45392 c -1.682062,-7.89142 -7.47956,-12.94665 -14.835992,-15.14483 -6.632043,5.08096 -13.981715,-1.25459 -14.437132,-8.43737 3.866266,-5.7611 9.223475,-9.00742 6.341344,-17.57166 -0.305741,-3.93681 -9.176378,-6.13577 -5.633978,-11.52192 2.016967,-10.97683 11.000511,-4.69213 16.575263,-6.50392 11.756082,0.48387 5.308679,-15.34634 15.75493,-14.46323 4.678398,-1.12743 9.9606593,1.16853 9.478572,6.67311 2.0342409,5.53701 11.0803671,11.42151 17.336131,6.82059 11.447061,2.05142 9.293602,14.34453 2.31276,18.72387 -3.650796,9.00832 3.680784,11.95171 6.256642,18.3178 -0.541581,7.78071 -8.349709,13.09817 -15.190223,7.6731 -6.9590228,3.65808 -11.0247395,7.13654 -12.678635,14.75251 -3.158958,1.84248 -7.874036,1.26892 -11.279682,0.68195 z"
           id="path55052"
           inkscape:connector-curvature="0" />
        <path
           style="fill:#ffffff;fill-opacity:1;stroke-width:0.26458332"
           d="m -9.276311,464.53823 c 10.4966687,-4.15272 6.1040076,-21.9928 -5.286978,-20.46546 -10.434964,-0.38415 -14.573371,15.68132 -4.775385,20.25632 2.90131,1.77037 7.126966,1.89004 10.062363,0.20914 z"
           id="path55050"
           inkscape:connector-curvature="0" />
        <path
           style="fill:#000000;fill-opacity:1;stroke-width:0.26458332"
           d="m -98.893483,475.39915 c -9.195827,-2.47523 -8.734807,-13.07539 -8.291927,-20.68794 0.14778,-27.59769 -0.45902,-55.27211 0.15455,-82.82244 1.35954,-8.53895 10.523193,-10.67466 17.795937,-9.52094 32.607599,0.1241 65.30402,-0.43809 97.8565182,0.11175 9.8749938,1.87714 10.1666568,13.17358 9.4862368,21.14274 0.0016,13.0446 0.0032,26.08919 0.0048,39.13378 -4.095107,-3.96994 -13.9113325,3.59996 -13.228336,-3.8237 -3.375e-4,-8.22333 -5.982e-4,-16.44666 -8.46e-4,-24.66999 -32.98469,0 -65.96938,0 -98.95407,0 0,22.84236 0,45.68472 0,68.52708 12.068623,0.31503 25.981063,-0.62326 36.91506,0.46302 0.833034,10.70499 2.202048,14.91892 -9.728782,12.76242 -10.62545,-0.39771 -21.556216,0.78987 -32.009188,-0.61578 z"
           id="path55048"
           inkscape:connector-curvature="0" />
        <path
           style="fill:#ffffff;fill-opacity:1;stroke-width:0.26458332"
           d="m -86.267073,383.48278 c 5.949061,-3.47295 -0.773555,-13.09348 -6.140128,-8.34742 -5.402839,3.90841 1.036827,12.28402 6.140128,8.34742 z"
           id="path55046"
           inkscape:connector-curvature="0" />
        <path
           style="fill:#ffffff;fill-opacity:1;stroke-width:0.26458332"
           d="m -72.581393,384.19745 c 6.385222,-1.48536 3.587633,-12.01092 -2.67795,-10.04379 -7.035167,1.5098 -4.089843,12.09721 2.67795,10.04379 z"
           id="path55044"
           inkscape:connector-curvature="0" />
        <path
           style="fill:#ffffff;fill-opacity:1;stroke-width:0.26458332"
           d="m -57.500153,384.19745 c 6.487588,-1.54349 3.456015,-12.09483 -2.7292,-10.0393 -6.761335,1.27287 -4.128492,12.27245 2.7292,10.0393 z"
           id="path55033"
           inkscape:connector-curvature="0" />
      </g>
    </g>
  </g>
</svg>
