<?xml version="1.0" encoding="UTF-8" standalone="no"?>
<!-- Created with Inkscape (http://www.inkscape.org/) -->

<svg
   xmlns:dc="http://purl.org/dc/elements/1.1/"
   xmlns:cc="http://creativecommons.org/ns#"
   xmlns:rdf="http://www.w3.org/1999/02/22-rdf-syntax-ns#"
   xmlns:svg="http://www.w3.org/2000/svg"
   xmlns="http://www.w3.org/2000/svg"
   xmlns:sodipodi="http://sodipodi.sourceforge.net/DTD/sodipodi-0.dtd"
   xmlns:inkscape="http://www.inkscape.org/namespaces/inkscape"
   width="150"
   height="150"
   viewBox="0 0 39.687499 39.687501"
   version="1.1"
   id="svg922"
   inkscape:version="0.92.4 (5da689c313, 2019-01-14)"
   sodipodi:docname="USO_INTERNET_kvpnc.svg">
  <defs
     id="defs916">
    <clipPath
       clipPathUnits="userSpaceOnUse"
       id="clipPath1521">
      <rect
         style="opacity:0.875;fill:#000000;fill-opacity:1;stroke:#000000;stroke-width:0.60403091;stroke-linejoin:round;stroke-miterlimit:4;stroke-dasharray:none;stroke-opacity:1"
         id="rect1523"
         width="172.87534"
         height="151.42299"
         x="57.114269"
         y="66.644836" />
    </clipPath>
  </defs>
  <sodipodi:namedview
     id="base"
     pagecolor="#ffffff"
     bordercolor="#666666"
     borderopacity="1.0"
     inkscape:pageopacity="0.0"
     inkscape:pageshadow="2"
     inkscape:zoom="3.3378531"
     inkscape:cx="67.851297"
     inkscape:cy="80.649966"
     inkscape:document-units="px"
     inkscape:current-layer="layer1"
     showgrid="false"
     inkscape:window-width="1262"
     inkscape:window-height="792"
     inkscape:window-x="2054"
     inkscape:window-y="217"
     inkscape:window-maximized="0"
     units="px" />
  <metadata
     id="metadata919">
    <rdf:RDF>
      <cc:Work
         rdf:about="">
        <dc:format>image/svg+xml</dc:format>
        <dc:type
           rdf:resource="http://purl.org/dc/dcmitype/StillImage" />
        <dc:title></dc:title>
      </cc:Work>
    </rdf:RDF>
  </metadata>
  <g
     inkscape:label="Layer 1"
     inkscape:groupmode="layer"
     id="layer1"
     transform="translate(0,-257.31249)">
    <g
       id="g1809"
       transform="translate(-0.55019483,3.1603534)">
      <path
         style="opacity:0.875;fill:#999999;fill-opacity:1;stroke:none;stroke-width:0.11882487;stroke-linejoin:round;stroke-miterlimit:4;stroke-dasharray:none;stroke-opacity:0.97175137"
         d="m 2.3835431,264.10054 c 1.2285838,-0.83676 2.8826224,-0.69845 4.310628,-0.93068 8.3407889,-0.59799 16.7241919,-0.51887 25.0697509,-0.0479 2.386945,0.20776 4.82893,0.27191 7.134351,0.97859 0.871261,1.69241 0.815373,3.70143 1.024439,5.56392 0.206748,4.05932 0.363742,8.19965 -0.531109,12.19098 -0.223205,1.65266 -2.005917,2.0711 -3.399421,2.27792 -6.301747,0.87227 -12.686647,0.82734 -19.03604,0.82879 -4.726236,-0.0951 -9.4824873,-0.0672 -14.1689622,-0.74506 -1.6691828,-0.56109 -1.0113016,-3.06182 -1.402398,-4.4554 -0.2753398,-4.69257 -0.43391398,-9.44588 0.309846,-14.10321 0.1450931,-0.53516 0.2148108,-1.20081 0.6889153,-1.55794 z"
         id="rect49496"
         inkscape:connector-curvature="0" />
      <path
         style="fill:#000000;stroke-width:0.37203047"
         d="m 2.3535434,284.85808 c -1.74660736,-0.61944 -1.57191282,-2.77108 -1.71576129,-4.28164 -0.11052294,-4.49521 -0.15772024,-8.99921 0.0116285,-13.49313 -0.12708956,-1.65576 1.17862385,-2.84707 2.58436595,-3.43956 1.9321246,-0.92701 4.1528119,-0.56282 6.2257819,-0.73042 7.6867845,-0.12441 15.3761795,-0.137 23.0634465,-0.084 2.150883,0.1412 4.537544,-0.0199 6.403552,1.23592 1.58486,1.37874 1.255708,3.71898 1.302004,5.60595 -0.178243,4.07095 0.01584,8.16305 -0.388876,12.21995 -0.29335,1.71142 -2.120397,2.65313 -3.654582,3.02944 -6.368162,0.39371 -12.757085,0.28815 -19.135233,0.3134 -4.830808,-0.0563 -9.673018,0.0249 -14.4930549,-0.33095 l -0.2032717,-0.045 z m 34.7179486,-1.05781 c 1.660432,-0.66983 2.120658,-2.56797 2.182495,-4.18169 0.199764,-3.81204 0.22224,-7.64453 -0.02539,-11.45463 -0.06847,-1.54247 -0.623083,-3.27913 -2.183639,-3.9007 -1.983384,-0.98306 -4.292498,-0.60559 -6.431189,-0.75211 -8.04401,-0.0211 -16.091765,-0.12189 -24.1333352,0.10799 -1.6826893,0.0515 -3.8688731,0.27561 -4.6391038,2.02448 -0.6821076,2.6627 -0.3774807,5.45735 -0.4646705,8.18069 0.080657,2.82901 -0.2028043,5.71611 0.42177,8.49627 0.6552312,1.84726 2.8938402,2.00422 4.5588035,2.11115 8.176545,0.4213 16.369453,0.15885 24.551012,0.033 2.046281,-0.14678 4.225386,0.10711 6.163249,-0.66446 z M 4.8476005,283.09683 c -0.9390369,0.0272 -2.4930505,-2.11819 -0.7271686,-0.88447 1.706471,0.99085 3.7971675,0.59333 5.679761,0.73138 0.8436281,0.097 3.2768831,-0.14441 3.3289711,0.24148 -2.712644,0.43249 -5.5962057,0.5642 -8.2815635,-0.0884 z M 36.08761,265.99064 c -1.49914,-0.78088 -3.308904,-0.40031 -4.94344,-0.53995 -1.173065,-0.10337 -4.022296,-0.0181 -4.347208,-0.50636 2.904244,-0.0702 5.874879,-0.3116 8.734279,0.31743 0.913242,-0.14345 1.834744,2.01352 0.556369,0.72888 z"
         id="path49494"
         inkscape:connector-curvature="0" />
      <path
         style="font-style:normal;font-variant:normal;font-weight:normal;font-stretch:normal;font-size:4.98854971px;font-family:Insaniburger;-inkscape-font-specification:Insaniburger;opacity:1;vector-effect:none;fill:#000000;fill-opacity:1;stroke:none;stroke-width:0.05845956;stroke-linecap:butt;stroke-linejoin:miter;stroke-miterlimit:4;stroke-dasharray:none;stroke-dashoffset:0;stroke-opacity:1"
         d="m 14.682703,280.13988 c 0.320881,0.50781 1.393207,1.47222 0.442125,1.83792 -0.520797,-0.2935 -0.824466,-0.98589 -1.243204,-1.46383 0.310153,0.87313 -0.562453,2.24922 -0.86674,0.89062 0.0168,-0.93957 -0.03443,-1.88594 0.02708,-2.82104 0.909778,-1.19281 0.780247,1.1669 0.951011,1.03864 0.443721,-0.40499 0.787346,-1.57863 1.418572,-1.16299 0.403972,0.63871 -0.489997,1.1734 -0.728849,1.68068 z m 2.398857,1.84876 c -0.597974,-0.30393 -0.662487,-1.31069 -0.988416,-1.95355 -0.665703,-0.80196 -0.09359,-2.64787 0.561207,-1.07673 0.210551,0.44133 0.422132,1.69627 0.630737,0.59986 0.05326,-1.17532 1.573525,-1.74385 1.002754,-0.12283 -0.373365,0.83019 -0.540131,1.86217 -1.083438,2.52919 z m 2.869438,-1.2307 c 1.32427,0.0591 1.185455,-2.77489 -0.140864,-2.42886 -0.642056,-0.13336 -1.395274,0.0779 -1.168003,1.08083 0.05568,0.80974 -0.121332,1.69482 0.108343,2.44997 1.133607,0.79986 0.340427,-1.44246 1.16827,-1.10194 z m -0.19261,-1.70237 c 1.080021,0.38724 -0.657482,1.52767 -0.249516,0.12423 -0.06801,-0.22843 0.164852,-0.0828 0.249516,-0.12423 z m 3.116766,0.89456 c -0.108922,-0.72047 0.03253,-2.26721 0.839654,-1.36658 0.04409,1.03694 0.04529,2.092 0,3.12892 -0.62397,0.79321 -1.120625,-0.53526 -1.525746,-1.02856 -0.492993,-0.85772 -0.03209,0.87789 -0.341522,1.17597 -0.95692,0.55225 -0.75022,-0.98084 -0.758398,-1.67361 0.06028,-0.67689 -0.282154,-2.13916 0.671944,-1.81382 0.415122,0.46894 0.738963,1.05862 1.114068,1.57768 z m 3.797462,1.37165 c -1.254253,2.3067 -4.115062,-1.24706 -2.072326,-2.81464 0.616755,-0.99116 2.989994,0.31726 1.573293,0.86559 -1.497948,-1.28797 -1.94107,2.40738 -0.236383,1.56412 0.300061,-0.22062 0.736245,-0.13587 0.735416,0.38493 z"
         id="text49550"
         inkscape:connector-curvature="0" />
      <g
         transform="matrix(0.24562229,0,0,0.24186217,35.291851,220.81665)"
         id="g54240">
        <path
           style="fill:#cbcbcb;fill-opacity:1;stroke-width:0.51272714"
           d="m -70.218567,235.17822 c -12.862837,-3.37294 -22.146947,-16.9426 -19.892899,-30.19854 1.688093,-14.0586 15.885809,-24.83833 29.891373,-22.99407 14.099424,0.8715 26.133071,14.67954 24.479911,28.85743 -0.402665,14.62378 -14.991058,26.80176 -29.463762,24.94656 -1.681818,-0.0827 -3.375866,-0.19674 -5.014623,-0.61138 z"
           id="path54193"
           inkscape:connector-curvature="0" />
        <path
           style="fill:#000000;fill-opacity:1;stroke-width:0.51272714"
           d="m -68.146067,228.07933 c 1.470528,-3.72107 4.77959,-6.4705 5.104901,-10.34151 -1.439345,-4.2219 -14.349032,-9.09597 -12.782087,-1.63123 5.124665,3.81778 1.691695,12.1514 5.912533,15.36428 0.05995,-1.31926 0.770982,-2.5505 1.764653,-3.39154 z"
           id="path54191"
           inkscape:connector-curvature="0" />
        <path
           style="fill:#000000;fill-opacity:1;stroke-width:0.51272714"
           d="m -48.847606,224.70851 c 2.86438,-3.57631 3.228577,-10.50306 4.57644,-14.07082 -4.491468,-0.0116 -5.053504,-8.16525 -0.61116,-3.19763 4.710403,3.53409 -1.039291,-6.81819 4.479531,-1.89099 5.313001,5.73787 1.283188,-6.86306 -0.4997,-8.88354 -1.706281,-4.69221 -5.768384,-6.3154 -9.927866,-4.87703 -3.642316,-4.38542 -6.542548,7.2949 -3.151819,1.39543 6.088595,-0.63837 1.465629,5.46747 -2.315691,5.43788 -3.321169,2.77965 -1.601068,4.11104 1.03286,0.89995 2.579905,3.69837 7.418376,-1.68097 8.627862,1.71094 -1.67634,6.7895 -10.054964,0.79241 -14.228188,5.20654 -4.912207,7.91667 10.052866,3.94578 8.183017,11.8621 0.554077,1.69683 0.866763,8.41181 3.834714,6.40717 z"
           id="path54189"
           inkscape:connector-curvature="0" />
        <path
           style="fill:#000000;fill-opacity:1;stroke-width:0.51272714"
           d="m -79.787677,209.37505 c -1.905053,-4.05621 6.04785,-1.90569 6.459076,-6.41382 2.177539,-1.47186 5.294288,-8.91296 0.57912,-6.05261 -0.06466,6.31432 -8.590587,-2.62897 -3.07858,-4.69815 -6.184998,-3.50321 -11.886093,5.85384 -10.75832,11.70703 2.259719,1.91776 3.980124,7.8008 7.322628,6.05908 z"
           id="path54187"
           inkscape:connector-curvature="0" />
        <path
           style="fill:#cbcbcb;fill-opacity:1;stroke-width:0.51272714"
           d="m -58.355813,197.45702 c -1.296964,-1.99326 -1.422422,1.07058 0,0 z"
           id="path54185"
           inkscape:connector-curvature="0" />
        <path
           style="fill:#000000;fill-opacity:1;stroke-width:0.51272714"
           d="m -61.012137,191.00686 c 6.737387,-2.64092 -0.738329,-11.02485 -3.669517,-4.47734 1.166941,2.1812 -2.315061,10.79008 2.403268,5.5982 l 0.620097,-0.54445 z"
           id="path54183"
           inkscape:connector-curvature="0" />
        <path
           style="fill:#cbcbcb;fill-opacity:1;stroke-width:0.51272714"
           d="m -70.218567,190.29113 c -2.411731,-9.1819 -0.656215,7.68451 0,0 z"
           id="path54156"
           inkscape:connector-curvature="0" />
        <path
           style="fill:#000000;fill-opacity:1;stroke-width:0.51272714"
           d="m -69.702797,234.58781 c -12.896189,-3.23592 -22.45669,-17.00854 -19.65614,-30.29117 -0.203782,-2.99828 2.279054,-6.42173 2.24444,-1.39984 -0.03898,3.09592 1.420455,6.12879 3.25573,4.77333 0.966106,4.85189 8.348088,3.6916 7.577901,9.79148 6.214632,3.23851 0.531542,13.4232 6.991639,14.97256 1.414135,-5.15254 5.518999,-9.09451 6.807237,-13.84206 -0.898195,-7.48961 -10.920417,-5.2796 -15.650267,-8.48185 -4.350336,-4.37696 4.24357,-0.61823 4.02863,-5.10066 2.895821,-2.06038 8.075619,-11.70637 1.018394,-8.8412 -0.05635,5.95934 -6.945323,-2.1054 -1.546634,-3.67618 1.417549,-4.16012 -10.1198,-0.65642 -9.321072,0.22968 1.536992,-1.78295 7.113194,-8.63483 6.626892,-3.84943 3.863868,-3.17829 5.281869,0.61351 6.246319,4.35741 3.611153,-2.39103 -0.834511,-7.05715 -1.793572,-8.64525 2.613649,-1.81707 13.032563,-4.17628 7.644271,1.65688 1.023297,2.59874 -1.474992,6.70293 0.964485,8.10624 4.471629,-2.08982 9.385238,-7.72574 4.849497,-11.42493 5.579789,0.0853 12.53602,3.49902 15.102531,7.59434 -3.535438,-0.0902 -6.424902,1.02254 -9.508291,0.12767 -5.008363,2.48272 -1.262317,7.37654 1.657859,3.4753 0.829205,4.08332 -6.082455,3.20052 -7.631683,2.34805 0.97158,1.66704 0.815457,5.66618 2.295898,6.36381 1.929106,-4.49525 6.747689,0.32468 9.844132,-2.05582 -1.598713,7.56413 -11.87996,-1.05277 -14.583875,6.5064 -2.400834,8.08742 11.284136,3.57961 8.804021,12.38552 0.291315,3.65908 4.783828,9.28076 6.425628,3.06587 2.293319,-3.6821 2.435243,-8.93687 3.569648,-12.37305 -3.072102,-0.5377 -5.72069,-5.42345 -1.196896,-1.83085 5.437259,2.86179 0.509073,-6.66089 4.848057,-1.41882 7.323717,2.56995 1.577609,12.1395 -1.083219,16.74602 -6.223517,9.08123 -18.188526,13.5647 -28.83156,10.73055 z"
           id="path54175"
           inkscape:connector-curvature="0" />
        <path
           style="fill:#cbcbcb;fill-opacity:1;stroke-width:0.51272714"
           d="m -42.673768,192.45736 c -2.262572,-2.97887 3.560552,3.49723 0,0 z"
           id="path54154"
           inkscape:connector-curvature="0" />
        <path
           style="fill:#fffffb;fill-opacity:1;stroke-width:0.51272714"
           d="m -67.639707,234.41169 c -2.885131,-3.5202 3.518245,-8.34978 4.06691,-12.07886 6.634033,-6.19112 -5.865837,-12.72229 -11.835072,-11.45014 -3.845502,-0.22462 -4.165174,-4.86862 -0.322743,-2.06695 2.233486,-3.80378 12.576731,-13.56778 3.058384,-14.06609 -0.679378,2.12812 -3.822614,3.74533 -2.966129,0.38819 3.465101,-2.73349 3.002768,-5.74838 -2.01013,-5.10156 -5.04478,0.0341 -0.388739,-2.03811 1.921905,-0.67352 3.819284,-3.15693 3.991132,9.48968 6.93421,2.52816 -0.6616,-4.27752 -3.020914,-10.70209 4.247295,-8.31138 -2.989321,3.24551 -2.616439,16.51934 3.353689,9.51775 3.311163,-1.94084 6.187427,-6.26736 2.939792,-9.63218 3.700099,0.62068 11.186467,3.31476 11.492261,6.06148 -3.167477,3.26615 -6.948186,-3.1377 -9.212427,2.46356 -3.696814,1.91659 2.579643,7.46394 -2.697952,3.43222 -5.404993,1.13965 3.406554,9.18191 -3.388463,10.28162 -3.967169,6.32093 3.364064,7.76972 7.309161,9.29014 0.535365,4.05315 2.072714,15.17266 7.98131,9.4393 2.981639,-4.90243 1.840043,-11.50991 5.835799,-15.9998 7.275421,0.44662 2.400203,11.72182 -0.839637,15.61521 -5.809953,7.90767 -16.171507,12.26994 -25.868163,10.36285 z"
           id="path54167"
           inkscape:connector-curvature="0" />
        <path
           style="fill:#ffffff;fill-opacity:1;stroke-width:0.51272714"
           d="m -73.436247,232.64342 c -10.999955,-4.38011 -18.094185,-17.40958 -14.985344,-28.91287 1.361744,7.85318 11.882619,6.88113 12.035033,14.8961 4.164902,3.21377 3.334423,13.82786 5.094233,14.8697 l -0.980302,-0.385 -1.16362,-0.46796 z"
           id="path54165"
           inkscape:connector-curvature="0" />
        <path
           style="fill:#cbcbcb;fill-opacity:1;stroke-width:0.51272714"
           d="m -54.874351,202.92342 c -4.157463,-2.04926 2.940749,-1.86935 1.043094,0.17239 z"
           id="path54163"
           inkscape:connector-curvature="0" />
        <path
           style="fill:#cbcbcb;fill-opacity:1;stroke-width:0.51272714"
           d="m -51.263947,202.95092 c 2.359267,-0.59778 1.804997,0.57205 0,0 z"
           id="path54152"
           inkscape:connector-curvature="0" />
      </g>
    </g>
    <flowRoot
       xml:space="preserve"
       id="flowRoot1771"
       style="font-variant-east_asian:normal;opacity:1;vector-effect:none;fill:#000000;fill-opacity:1;stroke:none;stroke-width:0.99999999;stroke-linecap:butt;stroke-linejoin:miter;stroke-miterlimit:4;stroke-dasharray:none;stroke-dashoffset:0;stroke-opacity:1;line-height:1.25;letter-spacing:0px;word-spacing:0px"><flowRegion
         id="flowRegion1773"><rect
           id="rect1775"
           width="186.94652"
           height="104.25863"
           x="-26.064657"
           y="5.8953958" /></flowRegion><flowPara
         id="flowPara1777"></flowPara></flowRoot>  </g>
</svg>
