<?xml version="1.0" encoding="UTF-8" standalone="no"?>
<!-- Created with Inkscape (http://www.inkscape.org/) -->

<svg
   xmlns:dc="http://purl.org/dc/elements/1.1/"
   xmlns:cc="http://creativecommons.org/ns#"
   xmlns:rdf="http://www.w3.org/1999/02/22-rdf-syntax-ns#"
   xmlns:svg="http://www.w3.org/2000/svg"
   xmlns="http://www.w3.org/2000/svg"
   xmlns:sodipodi="http://sodipodi.sourceforge.net/DTD/sodipodi-0.dtd"
   xmlns:inkscape="http://www.inkscape.org/namespaces/inkscape"
   width="150"
   height="150"
   viewBox="0 0 39.6875 39.6875"
   version="1.1"
   id="svg922"
   inkscape:version="0.92.4 (5da689c313, 2019-01-14)"
   sodipodi:docname="USO_GRAPHICS_gimp.svg">
  <defs
     id="defs916">
    <clipPath
       clipPathUnits="userSpaceOnUse"
       id="clipPath1521">
      <rect
         style="opacity:0.875;fill:#000000;fill-opacity:1;stroke:#000000;stroke-width:0.60403091;stroke-linejoin:round;stroke-miterlimit:4;stroke-dasharray:none;stroke-opacity:1"
         id="rect1523"
         width="172.87534"
         height="151.42299"
         x="57.114269"
         y="66.644836" />
    </clipPath>
  </defs>
  <sodipodi:namedview
     id="base"
     pagecolor="#ffffff"
     bordercolor="#666666"
     borderopacity="1.0"
     inkscape:pageopacity="0.0"
     inkscape:pageshadow="2"
     inkscape:zoom="1.3228155"
     inkscape:cx="74.683281"
     inkscape:cy="110.52992"
     inkscape:document-units="px"
     inkscape:current-layer="layer1"
     showgrid="false"
     inkscape:window-width="1262"
     inkscape:window-height="792"
     inkscape:window-x="2140"
     inkscape:window-y="111"
     inkscape:window-maximized="0"
     units="px" />
  <metadata
     id="metadata919">
    <rdf:RDF>
      <cc:Work
         rdf:about="">
        <dc:format>image/svg+xml</dc:format>
        <dc:type
           rdf:resource="http://purl.org/dc/dcmitype/StillImage" />
        <dc:title></dc:title>
      </cc:Work>
    </rdf:RDF>
  </metadata>
  <g
     inkscape:label="Layer 1"
     inkscape:groupmode="layer"
     id="layer1"
     transform="translate(-35.425468,-112.58038)">
    <g
       id="g16843"
       transform="matrix(0.2980795,0,0,0.28977881,24.865862,99.544917)">
      <path
         style="opacity:0.875;fill:#999999;fill-opacity:1;stroke:none;stroke-width:0.40600324;stroke-linejoin:round;stroke-miterlimit:4;stroke-dasharray:none;stroke-opacity:0.97175137"
         d="m 40.541649,79.335309 c 4.132647,-2.879859 9.751769,-2.413278 14.58294,-3.21176 27.840639,-2.044923 55.827121,-1.782311 83.687971,-0.23939 8.44978,0.729291 17.10358,0.925502 25.25914,3.45115 2.84038,5.409997 2.65096,11.873441 3.36881,17.839295 0.82417,14.162196 1.31119,28.565636 -1.46937,42.549666 -0.41934,5.71762 -6.02423,8.04253 -11.01184,8.61505 -20.19657,3.03328 -40.70475,2.906 -61.081918,3.01564 -17.041409,-0.24022 -34.168681,-0.19989 -51.090555,-2.42806 -6.472855,-0.76422 -4.229449,-9.70709 -5.525019,-14.2761 -1.050395,-16.30828 -1.537946,-32.80636 0.773143,-49.027833 0.528995,-2.131985 0.698082,-4.796009 2.506698,-6.287658 z"
         id="rect49496"
         inkscape:connector-curvature="0" />
      <path
         style="fill:#000000;stroke-width:1.26563919"
         d="m 41.515717,150.96879 c -5.711702,-2.05781 -5.238774,-9.06062 -5.717979,-14.02153 -0.436585,-15.75811 -0.553309,-31.54812 0.0015,-47.303521 -0.436441,-5.625053 3.875375,-9.795276 8.669277,-11.866878 6.455445,-3.192618 13.930493,-1.944564 20.884436,-2.520022 25.785183,-0.429233 51.579629,-0.472642 77.366519,-0.289685 7.22043,0.480561 15.26629,-0.05239 21.48077,4.264067 5.34492,4.83908 4.20747,12.821592 4.36759,19.341185 -0.60054,14.045514 0.0527,28.160374 -1.30449,42.160284 -0.93746,5.8118 -7.04218,9.14968 -12.25933,10.45193 -21.14906,1.35016 -42.37134,0.99396 -63.555869,1.08326 -16.415858,-0.19492 -32.872923,0.0952 -49.250499,-1.14372 l -0.681877,-0.15538 z m 116.461643,-3.64957 c 5.89794,-2.48774 7.14588,-9.3942 7.37251,-15.08897 0.55887,-13.34277 0.79145,-26.75998 -0.26771,-40.08197 -0.22661,-5.235691 -2.71782,-10.65847 -7.89603,-12.600489 -6.52228,-2.878882 -13.9327,-1.775744 -20.87126,-2.228431 -26.98361,-0.0728 -53.980521,-0.420882 -80.955472,0.372513 -5.686102,0.154822 -13.059572,1.026894 -15.561912,6.984748 -2.261649,8.967295 -1.276409,18.362109 -1.558615,27.527999 0.269809,9.99414 -0.711559,20.17732 1.414706,30.00948 2.112716,6.2884 9.661191,6.94096 15.292543,7.2837 27.426906,1.45354 54.91187,0.54809 82.35657,0.11392 6.86318,-0.50478 14.19529,0.36585 20.67467,-2.2925 z M 49.882052,144.89229 c -3.177542,0.0711 -8.355599,-7.29975 -2.439293,-3.05152 5.691698,3.40971 12.738389,2.05204 19.052805,2.52335 2.829236,0.33382 11.00279,-0.49673 11.167062,0.83313 -9.090656,1.49246 -18.786591,1.94553 -27.780574,-0.30496 z M 154.67692,85.873908 c -5.00297,-2.688572 -11.10143,-1.384211 -16.58281,-1.86289 -3.93588,-0.355548 -13.5043,-0.06474 -14.58274,-1.74698 9.37487,-0.304485 18.90303,-0.887454 28.18216,0.794039 3.27525,-1.122296 7.81354,7.281155 2.98339,2.815831 z"
         id="path49494"
         inkscape:connector-curvature="0" />
      <path
         style="font-style:normal;font-variant:normal;font-weight:normal;font-stretch:normal;font-size:16.97093201px;font-family:Insaniburger;-inkscape-font-specification:Insaniburger;opacity:1;vector-effect:none;fill:#000000;fill-opacity:1;stroke:none;stroke-width:0.19887809;stroke-linecap:butt;stroke-linejoin:miter;stroke-miterlimit:4;stroke-dasharray:none;stroke-dashoffset:0;stroke-opacity:1"
         d="m 93.878526,133.28759 c -2.293916,-1.35101 -5.436031,2.72098 -1.747423,3.14244 -2.564908,5.64884 -6.103707,-7.36852 -0.23128,-4.97788 3.736138,3.06915 3.512611,-4.28167 -0.238164,-3.36925 -7.140613,-1.97674 -8.112964,13.65509 -0.800747,13.0608 3.806905,1.29091 5.270427,-4.68438 3.512292,-7.74973 z m 4.765055,6.11655 c -1.734788,4.37231 -3.708919,-1.022 -2.90749,-3.82613 0.303757,-2.30704 -0.737148,-5.49184 0.817733,-7.07073 3.081133,-0.75861 1.841856,4.09279 2.089757,6.39523 0,1.50054 0,3.00108 0,4.50163 z m 5.580019,-7.10792 c 0.95222,-2.07756 4.23394,-6.29463 4.84582,-1.91549 -0.0552,3.24257 0.1138,6.50818 -0.0908,9.73536 -2.78552,3.13674 -3.13874,-2.37862 -2.81664,-4.8859 -0.0472,-2.65288 -1.96735,4.32939 -2.82685,0.59017 -1.60938,-3.34963 -0.90674,1.26207 -1.04979,2.96166 -0.50512,4.8041 -4.074179,0.71277 -2.907493,-2.50835 0.170702,-2.47234 -0.382808,-5.1879 0.36343,-7.47529 2.135733,-1.62708 3.240703,2.02741 4.482373,3.49784 z m 9.97064,4.52662 c 4.43838,0.2055 3.97974,-9.56633 -0.46676,-8.37987 -1.95346,-0.33547 -4.6509,-0.026 -3.92384,3.36649 0.18616,2.9149 -0.40588,6.08837 0.36344,8.81518 3.79593,2.75739 1.15145,-4.95784 3.90935,-3.8018 z m -0.64611,-5.87339 c 3.62227,1.32156 -2.1934,5.27398 -0.837,0.44578 -0.22061,-0.80423 0.53351,-0.30784 0.837,-0.44578 z"
         id="text49550"
         inkscape:connector-curvature="0" />
      <g
         transform="matrix(0.62550222,0,0,0.60298415,137.31195,29.870051)"
         id="g16798">
        <path
           style="fill:#000005;fill-opacity:1;stroke-width:0.55967355"
           d="m -63.356338,86.683079 c -9.874279,0.20633 -22.300301,5.195348 -24.289917,16.007321 -2.168816,9.38617 16.582128,14.56277 5.927037,22.9884 -8.68926,4.95773 -6.835656,17.53827 1.28174,22.04121 13.85988,10.19372 34.882883,4.74141 43.568825,-9.64199 6.307492,-7.01342 3.09489,-17.89267 10.641114,-23.97674 2.463966,-4.7998 12.829179,-12.1707 8.877144,-16.855161 -7.599313,2.298305 -15.91087,17.073671 -19.946359,3.532341 -5.850096,-8.400878 -15.747732,-14.032593 -26.059584,-14.095381 z m 4.560445,10.802959 c 10.122006,2.812302 -4.753004,12.779612 -3.261741,2.35473 0.483508,-1.363419 1.866321,-2.234835 3.261741,-2.35473 z m -15.621785,4.598682 c 9.863404,3.00815 -4.865571,12.47548 -3.548232,2.5642 0.798309,-1.21437 1.947566,-2.55665 3.548232,-2.5642 z m 29.046288,5.08238 c 9.734204,2.80242 -4.411794,12.63796 -3.446785,2.33949 0.664422,-1.26017 1.929537,-2.39177 3.446785,-2.33949 z m -27.491861,24.95558 c 10.430142,2.81043 -4.670502,12.59468 -3.479806,2.47791 0.773822,-1.21256 1.97216,-2.34358 3.479806,-2.47791 z"
           id="path59299"
           inkscape:connector-curvature="0" />
        <path
           style="fill:#ffffff;fill-opacity:1;stroke:#ffffff;stroke-width:0.55967355;stroke-opacity:1"
           d="m -52.62579,142.87503 c 10.625922,-2.16342 4.562437,-18.88424 -3.99139,-12.36609 -2.70081,5.20001 -9.954547,16.49376 3.99139,12.36609 z"
           id="path59283"
           inkscape:connector-curvature="0" />
        <path
           style="fill:#ffffff;fill-opacity:1;stroke-width:0.55967355"
           d="m -37.66806,124.75342 c 6.420327,-7.65525 13.607006,-14.90345 18.556655,-23.61723 -6.79331,1.55739 -13.197892,10.39767 -19.460998,15.03705 -3.860137,4.3562 -16.596761,11.21145 -6.238257,15.83028 2.683022,-2.08016 4.82603,-4.78751 7.1426,-7.2501 z"
           id="path59281"
           inkscape:connector-curvature="0" />
      </g>
    </g>
  </g>
</svg>
