<?xml version="1.0" encoding="UTF-8" standalone="no"?>
<!-- Created with Inkscape (http://www.inkscape.org/) -->

<svg
   xmlns:dc="http://purl.org/dc/elements/1.1/"
   xmlns:cc="http://creativecommons.org/ns#"
   xmlns:rdf="http://www.w3.org/1999/02/22-rdf-syntax-ns#"
   xmlns:svg="http://www.w3.org/2000/svg"
   xmlns="http://www.w3.org/2000/svg"
   xmlns:sodipodi="http://sodipodi.sourceforge.net/DTD/sodipodi-0.dtd"
   xmlns:inkscape="http://www.inkscape.org/namespaces/inkscape"
   width="150"
   height="150"
   viewBox="0 0 39.6875 39.6875"
   version="1.1"
   id="svg922"
   inkscape:version="0.92.4 (5da689c313, 2019-01-14)"
   sodipodi:docname="USO_UTILITIES_gnome_terminal.svg">
  <defs
     id="defs916">
    <clipPath
       clipPathUnits="userSpaceOnUse"
       id="clipPath1521">
      <rect
         style="opacity:0.875;fill:#000000;fill-opacity:1;stroke:#000000;stroke-width:0.60403091;stroke-linejoin:round;stroke-miterlimit:4;stroke-dasharray:none;stroke-opacity:1"
         id="rect1523"
         width="172.87534"
         height="151.42299"
         x="57.114269"
         y="66.644836" />
    </clipPath>
  </defs>
  <sodipodi:namedview
     id="base"
     pagecolor="#ffffff"
     bordercolor="#666666"
     borderopacity="1.0"
     inkscape:pageopacity="0.0"
     inkscape:pageshadow="2"
     inkscape:zoom="0.65164257"
     inkscape:cx="220.28257"
     inkscape:cy="249.10257"
     inkscape:document-units="px"
     inkscape:current-layer="layer1"
     showgrid="false"
     inkscape:window-width="1202"
     inkscape:window-height="779"
     inkscape:window-x="2181"
     inkscape:window-y="90"
     inkscape:window-maximized="0"
     units="px" />
  <metadata
     id="metadata919">
    <rdf:RDF>
      <cc:Work
         rdf:about="">
        <dc:format>image/svg+xml</dc:format>
        <dc:type
           rdf:resource="http://purl.org/dc/dcmitype/StillImage" />
        <dc:title></dc:title>
      </cc:Work>
    </rdf:RDF>
  </metadata>
  <g
     inkscape:label="Layer 1"
     inkscape:groupmode="layer"
     id="layer1"
     transform="translate(-35.425468,-112.58038)">
    <g
       id="g5609"
       transform="matrix(0.2980795,0,0,0.28977881,24.865862,99.544917)">
      <path
         style="opacity:0.875;fill:#999999;fill-opacity:1;stroke:none;stroke-width:0.40600324;stroke-linejoin:round;stroke-miterlimit:4;stroke-dasharray:none;stroke-opacity:0.97175137"
         d="m 40.541649,79.335309 c 4.132647,-2.879859 9.751769,-2.413278 14.58294,-3.21176 27.840639,-2.044923 55.827121,-1.782311 83.687971,-0.23939 8.44978,0.729291 17.10358,0.925502 25.25914,3.45115 2.84038,5.409997 2.65096,11.873441 3.36881,17.839295 0.82417,14.162196 1.31119,28.565636 -1.46937,42.549666 -0.41934,5.71762 -6.02423,8.04253 -11.01184,8.61505 -20.19657,3.03328 -40.70475,2.906 -61.081918,3.01564 -17.041409,-0.24022 -34.168681,-0.19989 -51.090555,-2.42806 -6.472855,-0.76422 -4.229449,-9.70709 -5.525019,-14.2761 -1.050395,-16.30828 -1.537946,-32.80636 0.773143,-49.027833 0.528995,-2.131985 0.698082,-4.796009 2.506698,-6.287658 z"
         id="rect49496"
         inkscape:connector-curvature="0" />
      <path
         style="fill:#000000;stroke-width:1.26563919"
         d="m 41.515717,150.96879 c -5.711702,-2.05781 -5.238774,-9.06062 -5.717979,-14.02153 -0.436585,-15.75811 -0.553309,-31.54812 0.0015,-47.303521 -0.436441,-5.625053 3.875375,-9.795276 8.669277,-11.866878 6.455445,-3.192618 13.930493,-1.944564 20.884436,-2.520022 25.785183,-0.429233 51.579629,-0.472642 77.366519,-0.289685 7.22043,0.480561 15.26629,-0.05239 21.48077,4.264067 5.34492,4.83908 4.20747,12.821592 4.36759,19.341185 -0.60054,14.045514 0.0527,28.160374 -1.30449,42.160284 -0.93746,5.8118 -7.04218,9.14968 -12.25933,10.45193 -21.14906,1.35016 -42.37134,0.99396 -63.555869,1.08326 -16.415858,-0.19492 -32.872923,0.0952 -49.250499,-1.14372 l -0.681877,-0.15538 z m 116.461643,-3.64957 c 5.89794,-2.48774 7.14588,-9.3942 7.37251,-15.08897 0.55887,-13.34277 0.79145,-26.75998 -0.26771,-40.08197 -0.22661,-5.235691 -2.71782,-10.65847 -7.89603,-12.600489 -6.52228,-2.878882 -13.9327,-1.775744 -20.87126,-2.228431 -26.98361,-0.0728 -53.980521,-0.420882 -80.955472,0.372513 -5.686102,0.154822 -13.059572,1.026894 -15.561912,6.984748 -2.261649,8.967295 -1.276409,18.362109 -1.558615,27.527999 0.269809,9.99414 -0.711559,20.17732 1.414706,30.00948 2.112716,6.2884 9.661191,6.94096 15.292543,7.2837 27.426906,1.45354 54.91187,0.54809 82.35657,0.11392 6.86318,-0.50478 14.19529,0.36585 20.67467,-2.2925 z M 49.882052,144.89229 c -3.177542,0.0711 -8.355599,-7.29975 -2.439293,-3.05152 5.691698,3.40971 12.738389,2.05204 19.052805,2.52335 2.829236,0.33382 11.00279,-0.49673 11.167062,0.83313 -9.090656,1.49246 -18.786591,1.94553 -27.780574,-0.30496 z M 154.67692,85.873908 c -5.00297,-2.688572 -11.10143,-1.384211 -16.58281,-1.86289 -3.93588,-0.355548 -13.5043,-0.06474 -14.58274,-1.74698 9.37487,-0.304485 18.90303,-0.887454 28.18216,0.794039 3.27525,-1.122296 7.81354,7.281155 2.98339,2.815831 z"
         id="path49494"
         inkscape:connector-curvature="0" />
      <path
         style="font-style:normal;font-variant:normal;font-weight:normal;font-stretch:normal;font-size:16.97093201px;font-family:Insaniburger;-inkscape-font-specification:Insaniburger;opacity:1;vector-effect:none;fill:#000000;fill-opacity:1;stroke:none;stroke-width:0.19887809;stroke-linecap:butt;stroke-linejoin:miter;stroke-miterlimit:4;stroke-dasharray:none;stroke-dashoffset:0;stroke-opacity:1"
         d="m 54.720096,133.28759 c -2.293917,-1.35101 -5.436034,2.72098 -1.74743,3.14244 -2.564907,5.64884 -6.103703,-7.36852 -0.231278,-4.97788 3.736141,3.06915 3.51261,-4.28167 -0.23816,-3.36925 -7.140615,-1.97674 -8.112965,13.65509 -0.800753,13.0608 3.806912,1.29091 5.270432,-4.68438 3.512298,-7.74973 z m 7.848751,0.74819 c -0.362682,-2.48635 0.109697,-7.82238 2.816631,-4.71483 0.149181,3.57765 0.150135,7.2175 0,10.79514 -2.08287,2.73384 -3.749362,-1.82315 -5.100808,-3.52242 -1.670109,-3.00363 -0.129303,2.97883 -1.162959,4.03097 -3.198199,1.90548 -2.521635,-3.35706 -2.544053,-5.74228 0.206776,-2.34231 -0.953119,-7.41156 2.254038,-6.28974 1.392496,1.61794 2.478905,3.65233 3.737151,5.44316 z m 14.030837,0.56116 c 0.500862,8.12037 -10.284784,8.84961 -10.476207,0.71444 -1.161838,-8.07603 9.473279,-10.17893 10.384431,-2.10855 l 0.06883,0.67966 z m -3.480176,-2.34748 c -5.190175,-4.8844 -5.207933,9.56583 -0.0073,4.67625 0.900023,-1.25492 0.898881,-3.41547 0.0073,-4.67625 z m 8.950073,0.0468 c 0.952211,-2.07756 4.233931,-6.29463 4.845815,-1.91549 -0.05516,3.24257 0.113798,6.50818 -0.09086,9.73536 -2.785516,3.13674 -3.138729,-2.37862 -2.816631,-4.8859 -0.0472,-2.65288 -1.967361,4.32939 -2.826854,0.59017 -1.609385,-3.34963 -0.90674,1.26207 -1.049797,2.96166 -0.505109,4.8041 -4.074171,0.71277 -2.907489,-2.50835 0.170701,-2.47234 -0.382807,-5.1879 0.363436,-7.47529 2.13573,-1.62708 3.240694,2.02741 4.482378,3.49784 z m 10.558007,8.73525 c 3.642751,-2.7397 -2.110464,-2.4032 -2.070486,-4.01759 0.295091,-1.0406 5.189958,-1.56536 1.776795,-3.81982 -2.229077,1.17722 -2.478777,-2.88506 -0.138433,-1.81439 3.497549,-0.75298 0.102832,-4.22094 -2.025423,-2.9741 -2.881268,-0.91099 -2.634608,2.99851 -2.520429,5.45345 0.303759,2.30704 -0.737144,5.49184 0.817731,7.07075 1.375771,0.20926 2.775934,0.0539 4.160245,0.1017 z m 10.947132,-9.6518 c -0.20393,3.05905 0.43229,6.39532 -0.36344,9.26367 -3.19819,1.90548 -2.52163,-3.35706 -2.54405,-5.74228 0.40058,-2.85338 -0.107,-3.95243 -2.349485,-3.89316 -1.226076,-3.64605 2.804795,-2.40243 4.430855,-2.60233 2.23655,-1.34111 5.3659,2.57109 1.76311,2.9741 -0.31233,0 -0.62466,0 -0.93699,0 z m 8.25991,9.6518 c 3.64275,-2.7397 -2.11045,-2.4032 -2.07048,-4.01759 0.29509,-1.0406 5.18995,-1.56536 1.7768,-3.81982 -2.22909,1.17722 -2.47879,-2.88506 -0.13843,-1.81439 3.49754,-0.75298 0.10283,-4.22094 -2.02543,-2.9741 -2.88127,-0.91099 -2.63461,2.99851 -2.52043,5.45345 0.30375,2.30704 -0.73714,5.49184 0.81773,7.07075 1.37577,0.20926 2.77594,0.0539 4.16024,0.1017 z m 7.95889,-5.36835 c 2.50687,1.68549 1.46268,7.73002 -1.14967,4.04461 -0.89418,-1.28281 -2.50498,-5.30753 -2.03683,-1.37778 0.36002,4.53346 -4.17344,2.30021 -2.90749,-1.36062 0.17856,-2.6975 -0.39452,-5.64653 0.36344,-8.15693 2.00072,-0.50473 4.7264,-1.08919 6.40602,0.79029 1.28226,1.70579 1.02267,4.93828 -0.67547,6.06043 z m -3.1865,-4.71367 c -1.36629,3.54139 2.90973,3.85214 1.76212,0.36007 -0.49337,-0.52856 -1.17635,-0.31356 -1.76212,-0.36007 z m 10.43319,1.34677 c 0.95221,-2.07756 4.23393,-6.29463 4.84582,-1.91549 -0.0552,3.24257 0.1138,6.50818 -0.0909,9.73536 -2.78552,3.13674 -3.13873,-2.37862 -2.81663,-4.8859 -0.0472,-2.65288 -1.96737,4.32939 -2.82686,0.59017 -1.60938,-3.34963 -0.90674,1.26207 -1.0498,2.96166 -0.5051,4.8041 -4.07416,0.71277 -2.90748,-2.50835 0.1707,-2.47234 -0.38281,-5.1879 0.36343,-7.47529 2.13574,-1.62708 3.2407,2.02741 4.48238,3.49784 z m 8.48752,7.10792 c -1.73479,4.37231 -3.70892,-1.022 -2.90749,-3.82613 0.30376,-2.30704 -0.73715,-5.49184 0.81773,-7.07073 3.08114,-0.75861 1.84186,4.09279 2.08976,6.39523 0,1.50054 0,3.00108 0,4.50163 z m 6.7254,-5.36836 c -0.36269,-2.48635 0.1097,-7.82238 2.81663,-4.71483 0.14918,3.57765 0.15014,7.2175 0,10.79514 -2.08287,2.73384 -3.74936,-1.82315 -5.10081,-3.52242 -1.67011,-3.00363 -0.1293,2.97883 -1.16295,4.03097 -3.19821,1.90548 -2.52164,-3.35706 -2.54406,-5.74228 0.20678,-2.34231 -0.95312,-7.41156 2.25404,-6.28974 1.39249,1.61794 2.4789,3.65233 3.73715,5.44316 z m 8.76652,1.77699 c -0.25792,-4.92081 -2.40517,1.23927 0,0 z m -2.12922,2.99279 c -1.4667,5.19006 -4.39636,-0.50058 -2.01457,-3.22317 1.04428,-2.33716 1.43065,-5.36338 3.06863,-7.09733 2.3385,-0.12234 2.46112,3.94709 3.53263,5.93427 1.03608,2.08505 2.75406,7.51906 -0.81466,6.29416 -0.54104,-2.7456 -2.02878,-1.73838 -3.77203,-1.90793 z m 11.9163,2.22591 c -1.71758,-0.41401 -5.01483,1.25303 -5.18356,-1.97517 0.0552,-3.24256 -0.11379,-6.50817 0.0909,-9.73535 2.78552,-3.13674 3.13873,2.37862 2.81663,4.8859 -0.0285,2.13142 -0.52902,4.86409 1.91143,3.85052 1.52383,-0.54398 1.79658,2.92505 0.36464,2.9741 z"
         id="text49550"
         inkscape:connector-curvature="0" />
      <path
         style="fill:#000000;fill-opacity:1;stroke-width:0.45704398"
         clip-path="none"
         d="m 115.3685,82.597346 c -4.59159,3.579015 -7.83863,8.865645 -11.86476,13.146865 -2.23146,4.329689 -5.117726,3.130322 -7.271744,-0.573586 -4.03955,-3.98509 -6.818304,-10.02802 -11.855702,-12.521365 -3.887945,2.879083 -2.99108,9.578062 0.05121,12.970871 2.625318,4.725289 9.557135,4.917829 12.389753,8.221379 -3.493963,4.40572 -8.687162,4.86818 -13.676138,6.60313 -7.372773,3.25522 -6.044771,14.13249 1.380004,16.39368 6.260428,2.56415 15.339372,-1.38394 14.909245,-8.9454 -0.794859,-3.66154 -3.659618,-8.21308 0.815962,-10.57682 6.23084,3.60554 -0.531602,8.86507 1.6851,13.82446 3.24141,8.78531 17.52619,8.37815 20.55335,-0.39227 2.5231,-6.46857 -4.8741,-12.18187 -10.87273,-11.86735 -2.96935,-0.82508 -7.04708,-2.94831 -8.02236,-5.86649 5.14594,-2.0101 11.00118,-4.152961 13.61623,-9.486255 1.66294,-3.10537 2.37455,-9.573383 -1.83742,-10.930849 z M 100.19244,101.7243 c 3.9322,1.81953 -3.670072,1.66659 0,0 z m -11.615161,10.98553 c 6.519488,-0.64682 8.93838,9.10567 2.276621,10.80242 -5.128801,2.08947 -11.945203,-4.80061 -6.529218,-8.98638 1.164524,-1.03944 2.663549,-1.8022 4.252597,-1.81604 z m 23.667781,0 c 5.7357,-0.85925 9.0021,7.72322 3.49104,10.31401 -4.85177,3.42742 -12.70295,-2.36272 -8.97712,-7.71816 1.45538,-1.54464 3.22251,-2.91016 5.48608,-2.59585 z"
         id="path53795"
         inkscape:connector-curvature="0" />
    </g>
  </g>
</svg>
