<?xml version="1.0" encoding="UTF-8" standalone="no"?>
<!-- Created with Inkscape (http://www.inkscape.org/) -->

<svg
   xmlns:dc="http://purl.org/dc/elements/1.1/"
   xmlns:cc="http://creativecommons.org/ns#"
   xmlns:rdf="http://www.w3.org/1999/02/22-rdf-syntax-ns#"
   xmlns:svg="http://www.w3.org/2000/svg"
   xmlns="http://www.w3.org/2000/svg"
   xmlns:sodipodi="http://sodipodi.sourceforge.net/DTD/sodipodi-0.dtd"
   xmlns:inkscape="http://www.inkscape.org/namespaces/inkscape"
   width="150"
   height="150"
   viewBox="0 0 39.6875 39.6875"
   version="1.1"
   id="svg922"
   inkscape:version="0.92.4 (5da689c313, 2019-01-14)"
   sodipodi:docname="USO_OFFICE_thunderbird.svg">
  <defs
     id="defs916">
    <clipPath
       clipPathUnits="userSpaceOnUse"
       id="clipPath1521">
      <rect
         style="opacity:0.875;fill:#000000;fill-opacity:1;stroke:#000000;stroke-width:0.60403091;stroke-linejoin:round;stroke-miterlimit:4;stroke-dasharray:none;stroke-opacity:1"
         id="rect1523"
         width="172.87534"
         height="151.42299"
         x="57.114269"
         y="66.644836" />
    </clipPath>
  </defs>
  <sodipodi:namedview
     id="base"
     pagecolor="#ffffff"
     bordercolor="#666666"
     borderopacity="1.0"
     inkscape:pageopacity="0.0"
     inkscape:pageshadow="2"
     inkscape:zoom="0.66140777"
     inkscape:cx="213.75278"
     inkscape:cy="355.19041"
     inkscape:document-units="px"
     inkscape:current-layer="layer1"
     showgrid="false"
     inkscape:window-width="1262"
     inkscape:window-height="792"
     inkscape:window-x="2027"
     inkscape:window-y="154"
     inkscape:window-maximized="0"
     units="px" />
  <metadata
     id="metadata919">
    <rdf:RDF>
      <cc:Work
         rdf:about="">
        <dc:format>image/svg+xml</dc:format>
        <dc:type
           rdf:resource="http://purl.org/dc/dcmitype/StillImage" />
        <dc:title></dc:title>
      </cc:Work>
    </rdf:RDF>
  </metadata>
  <g
     inkscape:label="Layer 1"
     inkscape:groupmode="layer"
     id="layer1"
     transform="translate(-35.425468,-112.58038)">
    <g
       id="g11612"
       transform="matrix(0.2980795,0,0,0.28977881,24.865862,99.544917)">
      <path
         style="opacity:0.875;fill:#999999;fill-opacity:1;stroke:none;stroke-width:0.40600324;stroke-linejoin:round;stroke-miterlimit:4;stroke-dasharray:none;stroke-opacity:0.97175137"
         d="m 40.541649,79.335309 c 4.132647,-2.879859 9.751769,-2.413278 14.58294,-3.21176 27.840639,-2.044923 55.827121,-1.782311 83.687971,-0.23939 8.44978,0.729291 17.10358,0.925502 25.25914,3.45115 2.84038,5.409997 2.65096,11.873441 3.36881,17.839295 0.82417,14.162196 1.31119,28.565636 -1.46937,42.549666 -0.41934,5.71762 -6.02423,8.04253 -11.01184,8.61505 -20.19657,3.03328 -40.70475,2.906 -61.081918,3.01564 -17.041409,-0.24022 -34.168681,-0.19989 -51.090555,-2.42806 -6.472855,-0.76422 -4.229449,-9.70709 -5.525019,-14.2761 -1.050395,-16.30828 -1.537946,-32.80636 0.773143,-49.027833 0.528995,-2.131985 0.698082,-4.796009 2.506698,-6.287658 z"
         id="rect49496"
         inkscape:connector-curvature="0" />
      <path
         style="fill:#000000;stroke-width:1.26563919"
         d="m 41.515717,150.96879 c -5.711702,-2.05781 -5.238774,-9.06062 -5.717979,-14.02153 -0.436585,-15.75811 -0.553309,-31.54812 0.0015,-47.303521 -0.436441,-5.625053 3.875375,-9.795276 8.669277,-11.866878 6.455445,-3.192618 13.930493,-1.944564 20.884436,-2.520022 25.785183,-0.429233 51.579629,-0.472642 77.366519,-0.289685 7.22043,0.480561 15.26629,-0.05239 21.48077,4.264067 5.34492,4.83908 4.20747,12.821592 4.36759,19.341185 -0.60054,14.045514 0.0527,28.160374 -1.30449,42.160284 -0.93746,5.8118 -7.04218,9.14968 -12.25933,10.45193 -21.14906,1.35016 -42.37134,0.99396 -63.555869,1.08326 -16.415858,-0.19492 -32.872923,0.0952 -49.250499,-1.14372 l -0.681877,-0.15538 z m 116.461643,-3.64957 c 5.89794,-2.48774 7.14588,-9.3942 7.37251,-15.08897 0.55887,-13.34277 0.79145,-26.75998 -0.26771,-40.08197 -0.22661,-5.235691 -2.71782,-10.65847 -7.89603,-12.600489 -6.52228,-2.878882 -13.9327,-1.775744 -20.87126,-2.228431 -26.98361,-0.0728 -53.980521,-0.420882 -80.955472,0.372513 -5.686102,0.154822 -13.059572,1.026894 -15.561912,6.984748 -2.261649,8.967295 -1.276409,18.362109 -1.558615,27.527999 0.269809,9.99414 -0.711559,20.17732 1.414706,30.00948 2.112716,6.2884 9.661191,6.94096 15.292543,7.2837 27.426906,1.45354 54.91187,0.54809 82.35657,0.11392 6.86318,-0.50478 14.19529,0.36585 20.67467,-2.2925 z M 49.882052,144.89229 c -3.177542,0.0711 -8.355599,-7.29975 -2.439293,-3.05152 5.691698,3.40971 12.738389,2.05204 19.052805,2.52335 2.829236,0.33382 11.00279,-0.49673 11.167062,0.83313 -9.090656,1.49246 -18.786591,1.94553 -27.780574,-0.30496 z M 154.67692,85.873908 c -5.00297,-2.688572 -11.10143,-1.384211 -16.58281,-1.86289 -3.93588,-0.355548 -13.5043,-0.06474 -14.58274,-1.74698 9.37487,-0.304485 18.90303,-0.887454 28.18216,0.794039 3.27525,-1.122296 7.81354,7.281155 2.98339,2.815831 z"
         id="path49494"
         inkscape:connector-curvature="0" />
      <path
         style="font-style:normal;font-variant:normal;font-weight:normal;font-stretch:normal;font-size:16.97093201px;font-family:Insaniburger;-inkscape-font-specification:Insaniburger;opacity:1;vector-effect:none;fill:#000000;fill-opacity:1;stroke:none;stroke-width:0.19887809;stroke-linecap:butt;stroke-linejoin:miter;stroke-miterlimit:4;stroke-dasharray:none;stroke-dashoffset:0;stroke-opacity:1"
         d="m 59.499961,131.37967 c -0.203924,3.05905 0.432283,6.39532 -0.363436,9.26367 -3.1982,1.90548 -2.521636,-3.35706 -2.544053,-5.74228 0.400572,-2.85338 -0.107004,-3.95243 -2.349486,-3.89316 -1.226077,-3.64605 2.804789,-2.40243 4.43085,-2.60233 2.236554,-1.34111 5.365904,2.57109 1.763116,2.9741 -0.312331,0 -0.624661,0 -0.936991,0 z m 9.62555,-2.9741 c 2.476722,0.46119 1.092298,4.58879 1.453745,6.84477 0.326815,2.50469 -0.04032,7.99916 -2.816631,4.86575 -0.147381,-2.19761 0.465277,-4.9493 -2.073237,-3.92923 1.073605,3.00388 -2.004464,7.44989 -2.907489,2.86944 0.05516,-3.24256 -0.113798,-6.50817 0.09086,-9.73535 3.11456,-3.68483 2.364563,3.11972 3.362752,3.87311 2.831526,1.11094 0.289183,-3.8288 2.253987,-4.68678 z m 9.999999,9.20288 c -0.329552,5.245 -8.618114,4.58856 -7.812041,-1.04349 0.177336,-2.56285 -0.392963,-5.3768 0.363436,-7.75256 3.1982,-1.90549 2.521635,3.35706 2.544053,5.74228 -1.116722,3.43026 2.68639,4.81474 1.997063,0.77218 0.303217,-2.22448 -0.738321,-5.32308 0.817731,-6.81958 3.081139,-0.75861 1.841859,4.09279 2.089758,6.39523 0,0.90197 0,1.80395 0,2.70594 z m 6.725403,-3.57267 c -0.362682,-2.48635 0.109697,-7.82238 2.816629,-4.71483 0.14918,3.57765 0.150137,7.2175 0,10.79514 -2.082868,2.73384 -3.74936,-1.82315 -5.100806,-3.52242 -1.670109,-3.00363 -0.129303,2.97883 -1.162959,4.03097 -3.1982,1.90548 -2.521636,-3.35706 -2.544053,-5.74228 0.206776,-2.34231 -0.953119,-7.41156 2.254038,-6.28974 1.392496,1.61794 2.478906,3.65233 3.737151,5.44316 z m 8.04699,6.99569 c -1.846552,0.044 -5.079329,0.6184 -4.405283,-3.01866 0.187235,-3.04314 -0.407307,-6.34539 0.36343,-9.20041 2.52136,-0.86913 6.417647,-0.93338 7.389876,3.01619 1.179879,3.42493 0.01127,8.84114 -3.348023,9.20288 z m 1.108669,-6.42518 c -0.280897,-5.31307 -3.795272,-3.88536 -2.606462,0.51711 -1.08417,4.9098 2.650214,3.92153 2.606462,-0.51711 z m 8.296618,6.42518 c 3.64275,-2.7397 -2.11045,-2.4032 -2.07049,-4.01759 0.2951,-1.0406 5.18996,-1.56536 1.77681,-3.81982 -2.22909,1.17722 -2.47878,-2.88506 -0.13844,-1.81439 3.49754,-0.75298 0.10284,-4.22094 -2.02543,-2.9741 -2.881261,-0.91099 -2.6346,2.99851 -2.520426,5.45345 0.303766,2.30704 -0.737139,5.49184 0.817732,7.07075 1.375784,0.20926 2.775944,0.0539 4.160244,0.1017 z m 7.95888,-5.36835 c 2.50688,1.68549 1.46269,7.73002 -1.14966,4.04461 -0.89418,-1.28281 -2.50499,-5.30753 -2.03683,-1.37778 0.36001,4.53346 -4.17344,2.30021 -2.90749,-1.36062 0.17855,-2.6975 -0.39452,-5.64653 0.36344,-8.15693 2.00071,-0.50473 4.72641,-1.08919 6.40602,0.79029 1.28225,1.70579 1.02267,4.93828 -0.67548,6.06043 z m -3.18649,-4.71367 c -1.3663,3.54139 2.90973,3.85214 1.76212,0.36007 -0.49337,-0.52856 -1.17634,-0.31356 -1.76212,-0.36007 z m 13.326,6.34101 c 0.11776,4.5587 -3.89389,3.69715 -6.28488,3.74101 -2.47672,-0.4612 -1.09229,-4.58879 -1.45374,-6.84477 0.0553,-2.31743 -0.66549,-6.55616 2.27293,-5.78113 2.88739,-1.08283 7.27038,2.34913 3.90916,5.76115 0.9617,0.51674 1.60842,1.79042 1.55653,3.12374 z m -2.90749,-0.20576 c -0.87888,-4.13829 -3.47017,1.31034 -1.10446,1.36547 0.63262,0.12616 1.1848,-0.55722 1.10446,-1.36547 z m -0.20558,-4.91942 c -1.26624,-4.22274 -3.09662,2.9296 -0.23128,0.91187 l 0.17346,-0.37994 z m 6.64464,7.23886 c -1.73479,4.37231 -3.70892,-1.022 -2.90749,-3.82613 0.30375,-2.30704 -0.73714,-5.49184 0.81773,-7.07073 3.08114,-0.75861 1.84186,4.09279 2.08976,6.39523 0,1.50054 0,3.00108 0,4.50163 z m 6.82819,-3.74102 c 2.50688,1.68549 1.46269,7.73002 -1.14967,4.04461 -0.89418,-1.28281 -2.50498,-5.30753 -2.03682,-1.37778 0.36,4.53346 -4.17344,2.30021 -2.90749,-1.36062 0.17855,-2.6975 -0.39452,-5.64653 0.36343,-8.15693 2.00072,-0.50473 4.72641,-1.08919 6.40603,0.79029 1.28225,1.70579 1.02267,4.93828 -0.67548,6.06043 z m -3.18649,-4.71367 c -1.3663,3.54139 2.90973,3.85214 1.76212,0.36007 -0.49338,-0.52856 -1.17635,-0.31356 -1.76212,-0.36007 z m 9.99266,10.08202 c -1.84656,0.044 -5.07933,0.6184 -4.40529,-3.01866 0.18724,-3.04314 -0.40731,-6.34539 0.36344,-9.20041 2.52135,-0.86913 6.41765,-0.93338 7.38987,3.01619 1.17988,3.42493 0.0113,8.84114 -3.34802,9.20288 z m 1.10866,-6.42518 c -0.28089,-5.31307 -3.79526,-3.88536 -2.60646,0.51711 -1.08417,4.9098 2.65022,3.92153 2.60646,-0.51711 z"
         id="text49550"
         inkscape:connector-curvature="0" />
      <g
         id="g2455"
         transform="matrix(0.6140466,0,0,0.56988043,-121.06551,-34.188207)">
        <path
           style="fill:#000000;fill-opacity:1;stroke-width:0.61634219"
           d="m 338.30358,275.11866 c -9.70179,-7.31832 -9.75134,-22.92001 -1.45706,-31.38693 9.38081,-12.14271 18.15386,-24.86583 28.61378,-36.10513 9.274,-4.22849 15.14571,8.10718 19.30075,14.58025 4.07931,7.21295 3.99328,16.413 -1.97686,22.60527 -6.9397,9.34536 -13.5691,19.00508 -21.36987,27.65495 -9.88851,-1.89149 3.33849,-13.70543 6.51238,-18.82697 4.45043,-7.31817 12.63356,-13.49328 13.49532,-22.28567 -2.16302,-5.82812 -6.85164,-16.81363 -13.22861,-16.48708 -10.85654,12.58154 -20.89907,25.9196 -30.40861,39.54266 -4.02796,6.95503 4.53215,20.63551 9.49994,9.03891 7.2613,-9.30698 14.79475,-18.481 21.11672,-28.45846 -3.32669,-3.50864 -8.87038,9.19134 -12.461,12.21044 -2.9064,3.81038 -12.01715,17.82011 -12.97918,6.33833 6.51849,-9.57138 13.70076,-18.7796 21.50864,-27.33503 10.19457,-4.41092 12.62387,11.51935 6.66621,16.99307 -8.0252,11.12705 -16.01896,22.45357 -25.56169,32.32769 -2.25464,1.5425 -5.16742,1.14656 -7.27086,-0.4063 z"
           id="path53927"
           inkscape:connector-curvature="0" />
      </g>
    </g>
  </g>
</svg>
