<?xml version="1.0" encoding="UTF-8" standalone="no"?>
<!-- Created with Inkscape (http://www.inkscape.org/) -->

<svg
   xmlns:dc="http://purl.org/dc/elements/1.1/"
   xmlns:cc="http://creativecommons.org/ns#"
   xmlns:rdf="http://www.w3.org/1999/02/22-rdf-syntax-ns#"
   xmlns:svg="http://www.w3.org/2000/svg"
   xmlns="http://www.w3.org/2000/svg"
   xmlns:sodipodi="http://sodipodi.sourceforge.net/DTD/sodipodi-0.dtd"
   xmlns:inkscape="http://www.inkscape.org/namespaces/inkscape"
   width="150mm"
   height="150mm"
   viewBox="0 0 150 150"
   version="1.1"
   id="svg922"
   inkscape:version="0.92.4 (5da689c313, 2019-01-14)"
   sodipodi:docname="USO_OFFICE_okular.svg">
  <defs
     id="defs916">
    <clipPath
       clipPathUnits="userSpaceOnUse"
       id="clipPath1521">
      <rect
         style="opacity:0.875;fill:#000000;fill-opacity:1;stroke:#000000;stroke-width:0.60403091;stroke-linejoin:round;stroke-miterlimit:4;stroke-dasharray:none;stroke-opacity:1"
         id="rect1523"
         width="172.87534"
         height="151.42299"
         x="57.114269"
         y="66.644836" />
    </clipPath>
  </defs>
  <sodipodi:namedview
     id="base"
     pagecolor="#ffffff"
     bordercolor="#666666"
     borderopacity="1.0"
     inkscape:pageopacity="0.0"
     inkscape:pageshadow="2"
     inkscape:zoom="0.43271484"
     inkscape:cx="246.40173"
     inkscape:cy="12.980964"
     inkscape:document-units="mm"
     inkscape:current-layer="layer1"
     showgrid="false"
     inkscape:window-width="1262"
     inkscape:window-height="792"
     inkscape:window-x="2412"
     inkscape:window-y="80"
     inkscape:window-maximized="0" />
  <metadata
     id="metadata919">
    <rdf:RDF>
      <cc:Work
         rdf:about="">
        <dc:format>image/svg+xml</dc:format>
        <dc:type
           rdf:resource="http://purl.org/dc/dcmitype/StillImage" />
        <dc:title></dc:title>
      </cc:Work>
    </rdf:RDF>
  </metadata>
  <g
     inkscape:label="Layer 1"
     inkscape:groupmode="layer"
     id="layer1"
     transform="translate(-35.425468,-2.2678798)">
    <g
       id="g10322"
       transform="translate(8.4279941,-36.195259)">
      <path
         style="opacity:0.875;fill:#999999;fill-opacity:1;stroke:none;stroke-width:0.40600324;stroke-linejoin:round;stroke-miterlimit:4;stroke-dasharray:none;stroke-opacity:0.97175137"
         d="m 40.541649,79.335309 c 4.132647,-2.879859 9.751769,-2.413278 14.58294,-3.21176 27.840639,-2.044923 55.827121,-1.782311 83.687971,-0.23939 8.44978,0.729291 17.10358,0.925502 25.25914,3.45115 2.84038,5.409997 2.65096,11.873441 3.36881,17.839295 0.82417,14.162196 1.31119,28.565636 -1.46937,42.549666 -0.41934,5.71762 -6.02423,8.04253 -11.01184,8.61505 -20.19657,3.03328 -40.70475,2.906 -61.081918,3.01564 -17.041409,-0.24022 -34.168681,-0.19989 -51.090555,-2.42806 -6.472855,-0.76422 -4.229449,-9.70709 -5.525019,-14.2761 -1.050395,-16.30828 -1.537946,-32.80636 0.773143,-49.027833 0.528995,-2.131985 0.698082,-4.796009 2.506698,-6.287658 z"
         id="rect49496"
         inkscape:connector-curvature="0" />
      <path
         style="fill:#000000;stroke-width:1.26563919"
         d="m 41.515717,150.96879 c -5.711702,-2.05781 -5.238774,-9.06062 -5.717979,-14.02153 -0.436585,-15.75811 -0.553309,-31.54812 0.0015,-47.303521 -0.436441,-5.625053 3.875375,-9.795276 8.669277,-11.866878 6.455445,-3.192618 13.930493,-1.944564 20.884436,-2.520022 25.785183,-0.429233 51.579629,-0.472642 77.366519,-0.289685 7.22043,0.480561 15.26629,-0.05239 21.48077,4.264067 5.34492,4.83908 4.20747,12.821592 4.36759,19.341185 -0.60054,14.045514 0.0527,28.160374 -1.30449,42.160284 -0.93746,5.8118 -7.04218,9.14968 -12.25933,10.45193 -21.14906,1.35016 -42.37134,0.99396 -63.555869,1.08326 -16.415858,-0.19492 -32.872923,0.0952 -49.250499,-1.14372 l -0.681877,-0.15538 z m 116.461643,-3.64957 c 5.89794,-2.48774 7.14588,-9.3942 7.37251,-15.08897 0.55887,-13.34277 0.79145,-26.75998 -0.26771,-40.08197 -0.22661,-5.235691 -2.71782,-10.65847 -7.89603,-12.600489 -6.52228,-2.878882 -13.9327,-1.775744 -20.87126,-2.228431 -26.98361,-0.0728 -53.980521,-0.420882 -80.955472,0.372513 -5.686102,0.154822 -13.059572,1.026894 -15.561912,6.984748 -2.261649,8.967295 -1.276409,18.362109 -1.558615,27.527999 0.269809,9.99414 -0.711559,20.17732 1.414706,30.00948 2.112716,6.2884 9.661191,6.94096 15.292543,7.2837 27.426906,1.45354 54.91187,0.54809 82.35657,0.11392 6.86318,-0.50478 14.19529,0.36585 20.67467,-2.2925 z M 49.882052,144.89229 c -3.177542,0.0711 -8.355599,-7.29975 -2.439293,-3.05152 5.691698,3.40971 12.738389,2.05204 19.052805,2.52335 2.829236,0.33382 11.00279,-0.49673 11.167062,0.83313 -9.090656,1.49246 -18.786591,1.94553 -27.780574,-0.30496 z M 154.67692,85.873908 c -5.00297,-2.688572 -11.10143,-1.384211 -16.58281,-1.86289 -3.93588,-0.355548 -13.5043,-0.06474 -14.58274,-1.74698 9.37487,-0.304485 18.90303,-0.887454 28.18216,0.794039 3.27525,-1.122296 7.81354,7.281155 2.98339,2.815831 z"
         id="path49494"
         inkscape:connector-curvature="0" />
      <path
         style="font-style:normal;font-variant:normal;font-weight:normal;font-stretch:normal;font-size:16.97093201px;font-family:Insaniburger;-inkscape-font-specification:Insaniburger;opacity:1;vector-effect:none;fill:#000000;fill-opacity:1;stroke:none;stroke-width:0.19887809;stroke-linecap:butt;stroke-linejoin:miter;stroke-miterlimit:4;stroke-dasharray:none;stroke-dashoffset:0;stroke-opacity:1"
         d="m 81.381942,134.59694 c 0.500861,8.12037 -10.284785,8.84961 -10.476206,0.71444 -1.161839,-8.07603 9.473278,-10.17893 10.384429,-2.10855 l 0.06883,0.67966 z m -3.480177,-2.34748 c -5.190174,-4.8844 -5.207933,9.56583 -0.0073,4.67625 0.900024,-1.25492 0.898881,-3.41547 0.0073,-4.67625 z m 9.698973,2.44101 c 0.925319,1.82494 4.282383,4.19393 1.986049,6.2124 -2.059869,0.0119 -3.036321,-3.19038 -4.535364,-4.73111 0.486667,1.68672 -1.27814,7.9246 -3.045399,3.23238 0.05548,-3.35848 -0.114227,-6.74011 0.09086,-10.08319 3.045689,-4.10308 2.624202,4.00331 3.187565,3.587 1.489005,-1.39825 2.643998,-5.44992 4.761221,-4.01605 1.4015,2.09218 -1.672875,4.11411 -2.444931,5.79857 z m 11.343614,2.91798 c -0.329558,5.245 -8.618114,4.58856 -7.812041,-1.04349 0.177338,-2.56285 -0.392962,-5.3768 0.36343,-7.75256 3.198205,-1.90549 2.521643,3.35706 2.54406,5.74228 -1.116723,3.43026 2.68639,4.81474 1.997061,0.77218 0.303216,-2.22448 -0.738326,-5.32308 0.817733,-6.81958 3.081133,-0.75861 1.841856,4.09279 2.089757,6.39523 0,0.90197 0,1.80395 0,2.70594 z m 5.917768,3.42302 c -1.71758,-0.41401 -5.014826,1.25303 -5.183552,-1.97517 0.05515,-3.24256 -0.113802,-6.50817 0.09085,-9.73535 2.785522,-3.13674 3.138742,2.37862 2.816632,4.8859 -0.0285,2.13142 -0.52902,4.86409 1.91143,3.85052 1.52383,-0.54398 1.79658,2.92505 0.36464,2.9741 z m 6.76945,-5.2187 c -0.25792,-4.92081 -2.40517,1.23927 0,0 z m -2.12922,2.99279 c -1.4667,5.19006 -4.39636,-0.50058 -2.01458,-3.22317 1.04429,-2.33716 1.43066,-5.36338 3.06864,-7.09733 2.3385,-0.12234 2.46112,3.94709 3.53263,5.93427 1.03607,2.08505 2.75406,7.51906 -0.81466,6.29416 -0.54104,-2.7456 -2.02878,-1.73838 -3.77203,-1.90793 z m 12.82673,-3.14244 c 2.50687,1.68549 1.46269,7.73002 -1.14967,4.04461 -0.89418,-1.28281 -2.50498,-5.30753 -2.03682,-1.37778 0.36001,4.53346 -4.17345,2.30021 -2.90749,-1.36062 0.17855,-2.6975 -0.39452,-5.64653 0.36344,-8.15693 2.00071,-0.50473 4.7264,-1.08919 6.40602,0.79029 1.28225,1.70579 1.02266,4.93828 -0.67548,6.06043 z m -3.18649,-4.71367 c -1.3663,3.54139 2.90973,3.85214 1.76211,0.36007 -0.49337,-0.52856 -1.17633,-0.31356 -1.76211,-0.36007 z"
         id="text49550"
         inkscape:connector-curvature="0" />
      <g
         id="g2455"
         transform="matrix(0.6140466,0,0,0.56988043,-121.06551,-34.188207)">
        <path
           style="fill:#000000;fill-opacity:1;stroke-width:0.61634219"
           d="m 338.30358,275.11866 c -9.70179,-7.31832 -9.75134,-22.92001 -1.45706,-31.38693 9.38081,-12.14271 18.15386,-24.86583 28.61378,-36.10513 9.274,-4.22849 15.14571,8.10718 19.30075,14.58025 4.07931,7.21295 3.99328,16.413 -1.97686,22.60527 -6.9397,9.34536 -13.5691,19.00508 -21.36987,27.65495 -9.88851,-1.89149 3.33849,-13.70543 6.51238,-18.82697 4.45043,-7.31817 12.63356,-13.49328 13.49532,-22.28567 -2.16302,-5.82812 -6.85164,-16.81363 -13.22861,-16.48708 -10.85654,12.58154 -20.89907,25.9196 -30.40861,39.54266 -4.02796,6.95503 4.53215,20.63551 9.49994,9.03891 7.2613,-9.30698 14.79475,-18.481 21.11672,-28.45846 -3.32669,-3.50864 -8.87038,9.19134 -12.461,12.21044 -2.9064,3.81038 -12.01715,17.82011 -12.97918,6.33833 6.51849,-9.57138 13.70076,-18.7796 21.50864,-27.33503 10.19457,-4.41092 12.62387,11.51935 6.66621,16.99307 -8.0252,11.12705 -16.01896,22.45357 -25.56169,32.32769 -2.25464,1.5425 -5.16742,1.14656 -7.27086,-0.4063 z"
           id="path53927"
           inkscape:connector-curvature="0" />
      </g>
    </g>
  </g>
</svg>
