<?xml version="1.0" encoding="UTF-8" standalone="no"?>
<!-- Created with Inkscape (http://www.inkscape.org/) -->

<svg
   xmlns:dc="http://purl.org/dc/elements/1.1/"
   xmlns:cc="http://creativecommons.org/ns#"
   xmlns:rdf="http://www.w3.org/1999/02/22-rdf-syntax-ns#"
   xmlns:svg="http://www.w3.org/2000/svg"
   xmlns="http://www.w3.org/2000/svg"
   xmlns:sodipodi="http://sodipodi.sourceforge.net/DTD/sodipodi-0.dtd"
   xmlns:inkscape="http://www.inkscape.org/namespaces/inkscape"
   width="150mm"
   height="150mm"
   viewBox="0 0 150 150"
   version="1.1"
   id="svg922"
   inkscape:version="0.92.4 (5da689c313, 2019-01-14)"
   sodipodi:docname="USO_GAMES_endless_sky.svg">
  <defs
     id="defs916">
    <clipPath
       clipPathUnits="userSpaceOnUse"
       id="clipPath1521">
      <rect
         style="opacity:0.875;fill:#000000;fill-opacity:1;stroke:#000000;stroke-width:0.60403091;stroke-linejoin:round;stroke-miterlimit:4;stroke-dasharray:none;stroke-opacity:1"
         id="rect1523"
         width="172.87534"
         height="151.42299"
         x="57.114269"
         y="66.644836" />
    </clipPath>
  </defs>
  <sodipodi:namedview
     id="base"
     pagecolor="#ffffff"
     bordercolor="#666666"
     borderopacity="1.0"
     inkscape:pageopacity="0.0"
     inkscape:pageshadow="2"
     inkscape:zoom="0.65450517"
     inkscape:cx="164.77936"
     inkscape:cy="196.32558"
     inkscape:document-units="mm"
     inkscape:current-layer="layer1"
     showgrid="false"
     inkscape:window-width="1262"
     inkscape:window-height="792"
     inkscape:window-x="2240"
     inkscape:window-y="70"
     inkscape:window-maximized="0" />
  <metadata
     id="metadata919">
    <rdf:RDF>
      <cc:Work
         rdf:about="">
        <dc:format>image/svg+xml</dc:format>
        <dc:type
           rdf:resource="http://purl.org/dc/dcmitype/StillImage" />
        <dc:title></dc:title>
      </cc:Work>
    </rdf:RDF>
  </metadata>
  <g
     inkscape:label="Layer 1"
     inkscape:groupmode="layer"
     id="layer1"
     transform="translate(-35.425468,-2.2678798)">
    <g
       id="g6347"
       transform="translate(8.4279941,-36.195259)">
      <path
         style="opacity:0.875;fill:#999999;fill-opacity:1;stroke:none;stroke-width:0.40600324;stroke-linejoin:round;stroke-miterlimit:4;stroke-dasharray:none;stroke-opacity:0.97175137"
         d="m 40.541649,79.335309 c 4.132647,-2.879859 9.751769,-2.413278 14.58294,-3.21176 27.840639,-2.044923 55.827121,-1.782311 83.687971,-0.23939 8.44978,0.729291 17.10358,0.925502 25.25914,3.45115 2.84038,5.409997 2.65096,11.873441 3.36881,17.839295 0.82417,14.162196 1.31119,28.565636 -1.46937,42.549666 -0.41934,5.71762 -6.02423,8.04253 -11.01184,8.61505 -20.19657,3.03328 -40.70475,2.906 -61.081918,3.01564 -17.041409,-0.24022 -34.168681,-0.19989 -51.090555,-2.42806 -6.472855,-0.76422 -4.229449,-9.70709 -5.525019,-14.2761 -1.050395,-16.30828 -1.537946,-32.80636 0.773143,-49.027833 0.528995,-2.131985 0.698082,-4.796009 2.506698,-6.287658 z"
         id="rect49496"
         inkscape:connector-curvature="0" />
      <path
         style="fill:#000000;stroke-width:1.26563919"
         d="m 41.515717,150.96879 c -5.711702,-2.05781 -5.238774,-9.06062 -5.717979,-14.02153 -0.436585,-15.75811 -0.553309,-31.54812 0.0015,-47.303521 -0.436441,-5.625053 3.875375,-9.795276 8.669277,-11.866878 6.455445,-3.192618 13.930493,-1.944564 20.884436,-2.520022 25.785183,-0.429233 51.579629,-0.472642 77.366519,-0.289685 7.22043,0.480561 15.26629,-0.05239 21.48077,4.264067 5.34492,4.83908 4.20747,12.821592 4.36759,19.341185 -0.60054,14.045514 0.0527,28.160374 -1.30449,42.160284 -0.93746,5.8118 -7.04218,9.14968 -12.25933,10.45193 -21.14906,1.35016 -42.37134,0.99396 -63.555869,1.08326 -16.415858,-0.19492 -32.872923,0.0952 -49.250499,-1.14372 l -0.681877,-0.15538 z m 116.461643,-3.64957 c 5.89794,-2.48774 7.14588,-9.3942 7.37251,-15.08897 0.55887,-13.34277 0.79145,-26.75998 -0.26771,-40.08197 -0.22661,-5.235691 -2.71782,-10.65847 -7.89603,-12.600489 -6.52228,-2.878882 -13.9327,-1.775744 -20.87126,-2.228431 -26.98361,-0.0728 -53.980521,-0.420882 -80.955472,0.372513 -5.686102,0.154822 -13.059572,1.026894 -15.561912,6.984748 -2.261649,8.967295 -1.276409,18.362109 -1.558615,27.527999 0.269809,9.99414 -0.711559,20.17732 1.414706,30.00948 2.112716,6.2884 9.661191,6.94096 15.292543,7.2837 27.426906,1.45354 54.91187,0.54809 82.35657,0.11392 6.86318,-0.50478 14.19529,0.36585 20.67467,-2.2925 z M 49.882052,144.89229 c -3.177542,0.0711 -8.355599,-7.29975 -2.439293,-3.05152 5.691698,3.40971 12.738389,2.05204 19.052805,2.52335 2.829236,0.33382 11.00279,-0.49673 11.167062,0.83313 -9.090656,1.49246 -18.786591,1.94553 -27.780574,-0.30496 z M 154.67692,85.873908 c -5.00297,-2.688572 -11.10143,-1.384211 -16.58281,-1.86289 -3.93588,-0.355548 -13.5043,-0.06474 -14.58274,-1.74698 9.37487,-0.304485 18.90303,-0.887454 28.18216,0.794039 3.27525,-1.122296 7.81354,7.281155 2.98339,2.815831 z"
         id="path49494"
         inkscape:connector-curvature="0" />
      <path
         style="font-style:normal;font-variant:normal;font-weight:normal;font-stretch:normal;font-size:16.97093201px;font-family:Insaniburger;-inkscape-font-specification:Insaniburger;opacity:1;vector-effect:none;fill:#000000;fill-opacity:1;stroke:none;stroke-width:0.19887809;stroke-linecap:butt;stroke-linejoin:miter;stroke-miterlimit:4;stroke-dasharray:none;stroke-dashoffset:0;stroke-opacity:1"
         d="m 62.741582,141.03147 c 3.642754,-2.7397 -2.110458,-2.4032 -2.070485,-4.01759 0.295089,-1.0406 5.189957,-1.56536 1.776799,-3.81982 -2.229082,1.17722 -2.478777,-2.88506 -0.138433,-1.81439 3.497547,-0.75298 0.102833,-4.22094 -2.025431,-2.9741 -2.881263,-0.91099 -2.634603,2.99851 -2.520424,5.45345 0.303759,2.30704 -0.737144,5.49184 0.817731,7.07075 1.375774,0.20926 2.775937,0.0539 4.160243,0.1017 z m 7.856093,-6.99569 c -0.362682,-2.48635 0.109697,-7.82238 2.81663,-4.71483 0.149181,3.57765 0.150137,7.2175 0,10.79514 -2.082869,2.73384 -3.749361,-1.82315 -5.100807,-3.52242 -1.670109,-3.00363 -0.129303,2.97883 -1.162959,4.03097 -3.1982,1.90548 -2.521636,-3.35706 -2.544053,-5.74228 0.206777,-2.34231 -0.953119,-7.41156 2.254039,-6.28974 1.392495,1.61794 2.478905,3.65233 3.73715,5.44316 z m 8.046991,6.99569 c -1.846557,0.044 -5.079331,0.6184 -4.405286,-3.01866 0.187233,-3.04314 -0.407307,-6.34539 0.363436,-9.20041 2.521356,-0.86913 6.417645,-0.93338 7.389867,3.01619 1.179883,3.42493 0.01128,8.84114 -3.348017,9.20288 z m 1.108664,-6.42518 c -0.280899,-5.31307 -3.795266,-3.88536 -2.606462,0.51711 -1.08417,4.9098 2.650215,3.92153 2.606462,-0.51711 z m 8.502202,6.42518 c -1.717578,-0.41401 -5.014821,1.25303 -5.183553,-1.97517 0.05516,-3.24256 -0.113798,-6.50817 0.09086,-9.73535 2.785516,-3.13674 3.138729,2.37862 2.816631,4.8859 -0.02851,2.13142 -0.529026,4.86409 1.911427,3.85052 1.523825,-0.54398 1.796589,2.92505 0.364637,2.9741 z m 6.62261,0 c 3.642751,-2.7397 -2.110455,-2.4032 -2.070486,-4.01759 0.295091,-1.0406 5.189958,-1.56536 1.776803,-3.81982 -2.229085,1.17722 -2.478776,-2.88506 -0.138432,-1.81439 3.497539,-0.75298 0.102832,-4.22094 -2.025432,-2.9741 -2.881264,-0.91099 -2.634603,2.99851 -2.520429,5.45345 0.303765,2.30704 -0.73714,5.49184 0.817732,7.07075 1.375779,0.20926 2.775942,0.0539 4.160244,0.1017 z m 5.822328,0.0374 c -3.010671,1.85982 -6.056213,-5.46963 -1.798833,-3.56331 4.687283,1.54707 1.266643,-2.51298 -1.082965,-3.15413 -3.937302,-5.82892 7.229828,-9.18238 5.524968,-2.88292 -1.23976,-0.1631 -5.511252,-0.87109 -2.51469,1.51043 4.28063,0.33841 4.17587,8.16442 -0.12848,8.08993 z m 7.90014,0 c -3.01066,1.85982 -6.0562,-5.46963 -1.79883,-3.56331 4.68728,1.54707 1.26665,-2.51298 -1.08296,-3.15413 -3.9373,-5.82892 7.22982,-9.18238 5.52497,-2.88292 -1.23976,-0.1631 -5.51126,-0.87109 -2.51469,1.51043 4.28063,0.33841 4.17587,8.16442 -0.12849,8.08993 z m 11.54185,0 c -3.01067,1.85982 -6.0562,-5.46963 -1.79882,-3.56331 4.68728,1.54707 1.26664,-2.51298 -1.08297,-3.15413 -3.93731,-5.82892 7.22982,-9.18238 5.52496,-2.88292 -1.23975,-0.1631 -5.51125,-0.87109 -2.51468,1.51043 4.28063,0.33841 4.17588,8.16442 -0.12849,8.08993 z m 9.53745,-6.37841 c 0.92531,1.82494 4.28238,4.19393 1.98604,6.2124 -2.05987,0.0119 -3.03631,-3.19038 -4.53537,-4.73111 0.48667,1.68672 -1.27813,7.9246 -3.04539,3.23238 0.0555,-3.35848 -0.11422,-6.74011 0.0909,-10.08319 3.04569,-4.10308 2.6242,4.00331 3.18756,3.587 1.489,-1.39825 2.644,-5.44992 4.76123,-4.01605 1.4015,2.09218 -1.67288,4.11411 -2.44493,5.79857 z m 8.10572,-2.26332 c 0.82109,-3.51803 6.2556,-5.60846 3.92145,-0.25688 -0.94908,2.02772 -3.00065,3.57892 -2.49707,6.23451 0.10159,4.84481 -4.1805,1.76352 -2.90749,-1.78328 -0.68303,-2.60332 -3.70127,-4.48081 -2.90749,-7.5145 1.97606,-2.17477 3.29874,1.8047 4.3906,3.32015 z"
         id="text49550"
         inkscape:connector-curvature="0" />
      <g
         transform="matrix(0.77878538,0,0,0.92256008,-102.63066,-229.86312)"
         id="g53695">
        <path
           style="fill:#000000;fill-opacity:1;stroke-width:0.56041962"
           d="m 225.79653,381.36576 c -5.04874,-5.70045 -3.09798,-14.35633 -2.45039,-21.29598 2.14357,-8.89697 7.83465,-18.94365 17.6609,-20.54413 6.89198,-1.14917 12.67159,3.11506 19.15746,4.14881 6.85143,0.45746 12.42018,-5.39774 19.38732,-4.1639 10.32595,0.10258 16.39834,10.33535 18.93637,19.13482 1.14366,7.08586 2.62906,15.4104 -1.24072,21.86627 -5.342,5.7642 -12.45787,-0.29209 -16.75787,-4.21205 -4.588,-5.30765 -11.81929,-4.91805 -18.1724,-4.82234 -6.60925,0.30728 -14.46255,-1.33683 -19.60345,3.97346 -4.70927,3.57488 -10.5939,10.63263 -16.91722,5.91504 z"
           id="path53677"
           inkscape:connector-curvature="0" />
        <path
           style="fill:#ffffff;fill-opacity:1;stroke-width:0.56041962"
           d="m 277.9872,362.41501 c 5.58994,-5.40079 -8.06317,-7.57497 -4.77264,-0.67341 1.23932,1.3571 3.24548,2.00683 4.77264,0.67341 z"
           id="path53675"
           inkscape:connector-curvature="0" />
        <path
           style="fill:#ffffff;fill-opacity:1;stroke-width:0.56041962"
           d="m 247.09052,359.86347 c 0.27723,-3.25746 8.70112,-2.32963 4.12382,-6.78295 -5.42377,1.15477 -3.02625,-7.69375 -8.99184,-4.31435 1.10304,5.6301 -8.52036,2.6119 -5.43718,8.20736 3.38408,0.29645 5.45041,0.84964 5.40535,4.6496 1.57622,0.88603 5.19447,0.91959 4.89985,-1.75966 z"
           id="path53673"
           inkscape:connector-curvature="0" />
        <path
           style="fill:#fffffc;fill-opacity:1;stroke-width:0.56041962"
           d="m 288.72216,357.58638 c 4.50178,-7.79772 -11.51832,-3.99212 -3.56811,0.81562 1.22542,0.443 2.60725,-0.0116 3.56811,-0.81562 z"
           id="path53671"
           inkscape:connector-curvature="0" />
        <path
           style="fill:#f8ffff;fill-opacity:1;stroke-width:0.56041962"
           d="m 278.37813,352.42476 c 4.38079,-8.166 -11.41132,-4.0188 -3.58973,0.81533 1.23238,0.44154 2.62307,-0.004 3.58973,-0.81533 z"
           id="path53664"
           inkscape:connector-curvature="0" />
      </g>
    </g>
  </g>
</svg>
