<?xml version="1.0" encoding="UTF-8" standalone="no"?>
<!-- Created with Inkscape (http://www.inkscape.org/) -->

<svg
   xmlns:dc="http://purl.org/dc/elements/1.1/"
   xmlns:cc="http://creativecommons.org/ns#"
   xmlns:rdf="http://www.w3.org/1999/02/22-rdf-syntax-ns#"
   xmlns:svg="http://www.w3.org/2000/svg"
   xmlns="http://www.w3.org/2000/svg"
   xmlns:sodipodi="http://sodipodi.sourceforge.net/DTD/sodipodi-0.dtd"
   xmlns:inkscape="http://www.inkscape.org/namespaces/inkscape"
   width="150mm"
   height="150mm"
   viewBox="0 0 150 150"
   version="1.1"
   id="svg922"
   inkscape:version="0.92.4 (5da689c313, 2019-01-14)"
   sodipodi:docname="USO_MULTIMEDIA_vlc.svg">
  <defs
     id="defs916">
    <clipPath
       clipPathUnits="userSpaceOnUse"
       id="clipPath1521">
      <rect
         style="opacity:0.875;fill:#000000;fill-opacity:1;stroke:#000000;stroke-width:0.60403091;stroke-linejoin:round;stroke-miterlimit:4;stroke-dasharray:none;stroke-opacity:1"
         id="rect1523"
         width="172.87534"
         height="151.42299"
         x="57.114269"
         y="66.644836" />
    </clipPath>
  </defs>
  <sodipodi:namedview
     id="base"
     pagecolor="#ffffff"
     bordercolor="#666666"
     borderopacity="1.0"
     inkscape:pageopacity="0.0"
     inkscape:pageshadow="2"
     inkscape:zoom="0.7"
     inkscape:cx="-81.255649"
     inkscape:cy="241.55239"
     inkscape:document-units="mm"
     inkscape:current-layer="layer1"
     showgrid="false"
     inkscape:window-width="1262"
     inkscape:window-height="792"
     inkscape:window-x="2190"
     inkscape:window-y="117"
     inkscape:window-maximized="0" />
  <metadata
     id="metadata919">
    <rdf:RDF>
      <cc:Work
         rdf:about="">
        <dc:format>image/svg+xml</dc:format>
        <dc:type
           rdf:resource="http://purl.org/dc/dcmitype/StillImage" />
        <dc:title></dc:title>
      </cc:Work>
    </rdf:RDF>
  </metadata>
  <g
     inkscape:label="Layer 1"
     inkscape:groupmode="layer"
     id="layer1"
     transform="translate(-35.425468,-2.2678798)">
    <g
       id="g7571"
       transform="translate(8.4279941,-36.195259)">
      <path
         style="opacity:0.875;fill:#999999;fill-opacity:1;stroke:none;stroke-width:0.40600324;stroke-linejoin:round;stroke-miterlimit:4;stroke-dasharray:none;stroke-opacity:0.97175137"
         d="m 40.541649,79.335309 c 4.132647,-2.879859 9.751769,-2.413278 14.58294,-3.21176 27.840639,-2.044923 55.827121,-1.782311 83.687971,-0.23939 8.44978,0.729291 17.10358,0.925502 25.25914,3.45115 2.84038,5.409997 2.65096,11.873441 3.36881,17.839295 0.82417,14.162196 1.31119,28.565636 -1.46937,42.549666 -0.41934,5.71762 -6.02423,8.04253 -11.01184,8.61505 -20.19657,3.03328 -40.70475,2.906 -61.081918,3.01564 -17.041409,-0.24022 -34.168681,-0.19989 -51.090555,-2.42806 -6.472855,-0.76422 -4.229449,-9.70709 -5.525019,-14.2761 -1.050395,-16.30828 -1.537946,-32.80636 0.773143,-49.027833 0.528995,-2.131985 0.698082,-4.796009 2.506698,-6.287658 z"
         id="rect49496"
         inkscape:connector-curvature="0" />
      <path
         style="fill:#000000;stroke-width:1.26563919"
         d="m 41.515717,150.96879 c -5.711702,-2.05781 -5.238774,-9.06062 -5.717979,-14.02153 -0.436585,-15.75811 -0.553309,-31.54812 0.0015,-47.303521 -0.436441,-5.625053 3.875375,-9.795276 8.669277,-11.866878 6.455445,-3.192618 13.930493,-1.944564 20.884436,-2.520022 25.785183,-0.429233 51.579629,-0.472642 77.366519,-0.289685 7.22043,0.480561 15.26629,-0.05239 21.48077,4.264067 5.34492,4.83908 4.20747,12.821592 4.36759,19.341185 -0.60054,14.045514 0.0527,28.160374 -1.30449,42.160284 -0.93746,5.8118 -7.04218,9.14968 -12.25933,10.45193 -21.14906,1.35016 -42.37134,0.99396 -63.555869,1.08326 -16.415858,-0.19492 -32.872923,0.0952 -49.250499,-1.14372 l -0.681877,-0.15538 z m 116.461643,-3.64957 c 5.89794,-2.48774 7.14588,-9.3942 7.37251,-15.08897 0.55887,-13.34277 0.79145,-26.75998 -0.26771,-40.08197 -0.22661,-5.235691 -2.71782,-10.65847 -7.89603,-12.600489 -6.52228,-2.878882 -13.9327,-1.775744 -20.87126,-2.228431 -26.98361,-0.0728 -53.980521,-0.420882 -80.955472,0.372513 -5.686102,0.154822 -13.059572,1.026894 -15.561912,6.984748 -2.261649,8.967295 -1.276409,18.362109 -1.558615,27.527999 0.269809,9.99414 -0.711559,20.17732 1.414706,30.00948 2.112716,6.2884 9.661191,6.94096 15.292543,7.2837 27.426906,1.45354 54.91187,0.54809 82.35657,0.11392 6.86318,-0.50478 14.19529,0.36585 20.67467,-2.2925 z M 49.882052,144.89229 c -3.177542,0.0711 -8.355599,-7.29975 -2.439293,-3.05152 5.691698,3.40971 12.738389,2.05204 19.052805,2.52335 2.829236,0.33382 11.00279,-0.49673 11.167062,0.83313 -9.090656,1.49246 -18.786591,1.94553 -27.780574,-0.30496 z M 154.67692,85.873908 c -5.00297,-2.688572 -11.10143,-1.384211 -16.58281,-1.86289 -3.93588,-0.355548 -13.5043,-0.06474 -14.58274,-1.74698 9.37487,-0.304485 18.90303,-0.887454 28.18216,0.794039 3.27525,-1.122296 7.81354,7.281155 2.98339,2.815831 z"
         id="path49494"
         inkscape:connector-curvature="0" />
      <path
         style="font-style:normal;font-variant:normal;font-weight:normal;font-stretch:normal;font-size:16.97093201px;font-family:Insaniburger;-inkscape-font-specification:Insaniburger;opacity:1;vector-effect:none;fill:#000000;fill-opacity:1;stroke:none;stroke-width:0.19887809;stroke-linecap:butt;stroke-linejoin:miter;stroke-miterlimit:4;stroke-dasharray:none;stroke-dashoffset:0;stroke-opacity:1"
         d="m 90.324927,141.06888 c -1.999413,-1.03801 -2.214418,-4.49556 -3.302016,-6.70212 -2.11632,-2.52829 -0.536525,-9.1292 1.752762,-4.07556 0.705092,1.19098 1.414862,6.18315 2.114229,2.72248 0.18036,-3.37767 4.588595,-7.32832 3.711729,-1.39271 -1.332355,3.07461 -1.960797,6.85441 -3.864621,9.3649 z m 10.418503,-0.0374 c -1.717572,-0.41401 -5.014817,1.25303 -5.183552,-1.97517 0.05516,-3.24256 -0.113792,-6.50817 0.09086,-9.73535 2.785511,-3.13674 3.138726,2.37862 2.816628,4.8859 -0.02851,2.13142 -0.529029,4.86409 1.911434,3.85052 1.52382,-0.54398 1.79658,2.92505 0.36463,2.9741 z m 10.74156,-2.26331 c -3.01293,6.16648 -11.530859,-0.12357 -8.83994,-6.82033 0.31074,-5.78655 11.46448,-4.70228 7.70925,0.19874 -4.27079,-4.37495 -7.88958,6.06355 -2.1329,5.60216 1.14808,-0.57179 3.18774,-1.52244 3.26359,1.01943 z"
         id="text49550"
         inkscape:connector-curvature="0" />
      <path
         style="fill:#000000;stroke-width:0.48120552"
         d="m 101.87198,124.34998 c -5.540189,-2.63738 -0.75377,-10.18428 4.09393,-10.06893 7.27016,0.66588 4.64186,-8.28637 5.24849,-12.80043 0.11651,-5.034893 -0.0286,-10.109088 0.57145,-15.110538 4.63315,0.615253 9.058,4.081854 11.10474,8.350376 2.12852,5.303692 2.33404,12.741062 -2.60148,16.548912 0.68827,-3.89645 -1.14422,-12.472473 -5.99136,-11.975776 -1.1325,7.281556 0.2626,14.879056 -1.65915,22.019486 -2.22995,3.29716 -7.15706,4.26493 -10.76662,3.0369 z M 87.992078,118.38244 C 76.113755,115.13252 70.44484,99.587401 77.057302,89.342525 82.851065,79.322624 98.054016,76.586167 106.63297,84.564624 c 5.99943,4.488696 -1.14795,8.841158 -5.08381,11.101841 -0.73494,4.445685 9.58713,-3.905147 7.33597,3.52889 -1.11679,3.846875 2.74088,12.461585 -2.75193,12.945925 -5.73477,-0.14589 -7.19106,7.56218 -12.49132,7.09097 -1.904061,-0.048 -3.826645,-0.28363 -5.649802,-0.84981 z m -1.491663,-9.74646 c 4.3811,-3.04334 0.154665,-7.56957 -3.582533,-4.48757 -7.700504,0.0916 0.01309,11.5487 3.094591,5.07211 z m 10.68968,-5.94021 c 5.561735,-4.570844 -4.858001,-11.951296 -7.455854,-5.124446 -2.481758,4.499046 4.169009,9.304656 7.455854,5.124446 z m -7.233158,-9.454008 c 4.390717,-1.715775 0.337603,-13.43166 -4.523912,-7.813549 -4.089103,1.5294 -5.281561,5.719764 -0.51569,7.325852 1.87306,1.490197 2.994605,2.737081 5.039602,0.487697 z"
         id="path53394"
         inkscape:connector-curvature="0" />
    </g>
  </g>
</svg>
