<?xml version="1.0" encoding="UTF-8" standalone="no"?>
<!-- Created with Inkscape (http://www.inkscape.org/) -->

<svg
   xmlns:dc="http://purl.org/dc/elements/1.1/"
   xmlns:cc="http://creativecommons.org/ns#"
   xmlns:rdf="http://www.w3.org/1999/02/22-rdf-syntax-ns#"
   xmlns:svg="http://www.w3.org/2000/svg"
   xmlns="http://www.w3.org/2000/svg"
   xmlns:sodipodi="http://sodipodi.sourceforge.net/DTD/sodipodi-0.dtd"
   xmlns:inkscape="http://www.inkscape.org/namespaces/inkscape"
   width="150mm"
   height="150mm"
   viewBox="0 0 150 150"
   version="1.1"
   id="svg922"
   inkscape:version="0.92.4 (5da689c313, 2019-01-14)"
   sodipodi:docname="USO_GAMES_battle_of_wesnoth.svg">
  <defs
     id="defs916">
    <clipPath
       clipPathUnits="userSpaceOnUse"
       id="clipPath1521">
      <rect
         style="opacity:0.875;fill:#000000;fill-opacity:1;stroke:#000000;stroke-width:0.60403091;stroke-linejoin:round;stroke-miterlimit:4;stroke-dasharray:none;stroke-opacity:1"
         id="rect1523"
         width="172.87534"
         height="151.42299"
         x="57.114269"
         y="66.644836" />
    </clipPath>
  </defs>
  <sodipodi:namedview
     id="base"
     pagecolor="#ffffff"
     bordercolor="#666666"
     borderopacity="1.0"
     inkscape:pageopacity="0.0"
     inkscape:pageshadow="2"
     inkscape:zoom="0.43271484"
     inkscape:cx="259.46131"
     inkscape:cy="12.980964"
     inkscape:document-units="mm"
     inkscape:current-layer="layer1"
     showgrid="false"
     inkscape:window-width="1262"
     inkscape:window-height="792"
     inkscape:window-x="2119"
     inkscape:window-y="99"
     inkscape:window-maximized="0" />
  <metadata
     id="metadata919">
    <rdf:RDF>
      <cc:Work
         rdf:about="">
        <dc:format>image/svg+xml</dc:format>
        <dc:type
           rdf:resource="http://purl.org/dc/dcmitype/StillImage" />
        <dc:title></dc:title>
      </cc:Work>
    </rdf:RDF>
  </metadata>
  <g
     inkscape:label="Layer 1"
     inkscape:groupmode="layer"
     id="layer1"
     transform="translate(-35.425468,-2.2678798)">
    <g
       id="g4278"
       transform="translate(8.4279941,-36.195259)">
      <path
         style="opacity:0.875;fill:#999999;fill-opacity:1;stroke:none;stroke-width:0.40600324;stroke-linejoin:round;stroke-miterlimit:4;stroke-dasharray:none;stroke-opacity:0.97175137"
         d="m 40.541649,79.335309 c 4.132647,-2.879859 9.751769,-2.413278 14.58294,-3.21176 27.840639,-2.044923 55.827121,-1.782311 83.687971,-0.23939 8.44978,0.729291 17.10358,0.925502 25.25914,3.45115 2.84038,5.409997 2.65096,11.873441 3.36881,17.839295 0.82417,14.162196 1.31119,28.565636 -1.46937,42.549666 -0.41934,5.71762 -6.02423,8.04253 -11.01184,8.61505 -20.19657,3.03328 -40.70475,2.906 -61.081918,3.01564 -17.041409,-0.24022 -34.168681,-0.19989 -51.090555,-2.42806 -6.472855,-0.76422 -4.229449,-9.70709 -5.525019,-14.2761 -1.050395,-16.30828 -1.537946,-32.80636 0.773143,-49.027833 0.528995,-2.131985 0.698082,-4.796009 2.506698,-6.287658 z"
         id="rect49496"
         inkscape:connector-curvature="0" />
      <path
         style="fill:#000000;stroke-width:1.26563919"
         d="m 41.515717,150.96879 c -5.711702,-2.05781 -5.238774,-9.06062 -5.717979,-14.02153 -0.436585,-15.75811 -0.553309,-31.54812 0.0015,-47.303521 -0.436441,-5.625053 3.875375,-9.795276 8.669277,-11.866878 6.455445,-3.192618 13.930493,-1.944564 20.884436,-2.520022 25.785183,-0.429233 51.579629,-0.472642 77.366519,-0.289685 7.22043,0.480561 15.26629,-0.05239 21.48077,4.264067 5.34492,4.83908 4.20747,12.821592 4.36759,19.341185 -0.60054,14.045514 0.0527,28.160374 -1.30449,42.160284 -0.93746,5.8118 -7.04218,9.14968 -12.25933,10.45193 -21.14906,1.35016 -42.37134,0.99396 -63.555869,1.08326 -16.415858,-0.19492 -32.872923,0.0952 -49.250499,-1.14372 l -0.681877,-0.15538 z m 116.461643,-3.64957 c 5.89794,-2.48774 7.14588,-9.3942 7.37251,-15.08897 0.55887,-13.34277 0.79145,-26.75998 -0.26771,-40.08197 -0.22661,-5.235691 -2.71782,-10.65847 -7.89603,-12.600489 -6.52228,-2.878882 -13.9327,-1.775744 -20.87126,-2.228431 -26.98361,-0.0728 -53.980521,-0.420882 -80.955472,0.372513 -5.686102,0.154822 -13.059572,1.026894 -15.561912,6.984748 -2.261649,8.967295 -1.276409,18.362109 -1.558615,27.527999 0.269809,9.99414 -0.711559,20.17732 1.414706,30.00948 2.112716,6.2884 9.661191,6.94096 15.292543,7.2837 27.426906,1.45354 54.91187,0.54809 82.35657,0.11392 6.86318,-0.50478 14.19529,0.36585 20.67467,-2.2925 z M 49.882052,144.89229 c -3.177542,0.0711 -8.355599,-7.29975 -2.439293,-3.05152 5.691698,3.40971 12.738389,2.05204 19.052805,2.52335 2.829236,0.33382 11.00279,-0.49673 11.167062,0.83313 -9.090656,1.49246 -18.786591,1.94553 -27.780574,-0.30496 z M 154.67692,85.873908 c -5.00297,-2.688572 -11.10143,-1.384211 -16.58281,-1.86289 -3.93588,-0.355548 -13.5043,-0.06474 -14.58274,-1.74698 9.37487,-0.304485 18.90303,-0.887454 28.18216,0.794039 3.27525,-1.122296 7.81354,7.281155 2.98339,2.815831 z"
         id="path49494"
         inkscape:connector-curvature="0" />
      <path
         style="font-style:normal;font-variant:normal;font-weight:normal;font-stretch:normal;font-size:13.93148994px;font-family:Insaniburger;-inkscape-font-specification:Insaniburger;opacity:1;vector-effect:none;fill:#000000;fill-opacity:1;stroke:none;stroke-width:0.16325964;stroke-linecap:butt;stroke-linejoin:miter;stroke-miterlimit:4;stroke-dasharray:none;stroke-dashoffset:0;stroke-opacity:1"
         d="m 52.867326,137.91117 c 0.181406,3.79142 -5.224725,4.27954 -6.216288,1.7732 0.17755,-2.93316 -0.366723,-6.11422 0.291941,-8.88553 2.339376,-1.45393 7.824724,0.52621 4.674012,4.49179 0.772518,0.43351 1.292017,1.50202 1.250335,2.62054 z m -2.335532,-0.1726 c -1.141957,-3.99921 -2.789506,2.79101 -0.209371,0.85913 z m -0.165138,-4.12696 c -1.982302,-4.11299 -1.852224,4.04152 0,0 z m 7.118653,3.05991 c -0.350224,-4.2707 -1.874724,1.03374 0,0 z m -1.710364,2.5107 c -1.921533,4.72033 -3.109388,-1.55582 -1.237184,-3.81387 0.537642,-2.43991 2.545105,-7.40965 3.883503,-2.87459 0.727646,2.34322 1.746017,4.55474 2.260656,6.99445 -1.346223,4.15178 -2.384521,-2.06118 -4.906975,-0.30599 z m 8.345398,-6.22967 c -0.155258,2.5686 0.334079,5.36146 -0.291942,7.7714 -2.838913,1.57409 -1.902196,-3.50948 -2.04359,-5.64486 1.196992,-2.963 -4.22264,-2.12402 -1.179562,-4.62155 1.790992,0.17757 3.709451,-0.37427 5.414187,0.31188 0.95493,2.10054 -0.786135,2.36167 -1.899093,2.18313 z m 7.006594,0 c -0.155258,2.5686 0.334079,5.36146 -0.291941,7.7714 -2.838914,1.57409 -1.902196,-3.50948 -2.04359,-5.64486 1.196991,-2.963 -4.22264,-2.12402 -1.179562,-4.62155 1.790991,0.17757 3.70945,-0.37427 5.414187,0.31188 0.954929,2.10054 -0.786136,2.36167 -1.899094,2.18313 z m 6.800171,8.09701 c -1.544043,-0.1842 -4.635933,0.97856 -4.163851,-2.43157 0.171416,-2.57931 -0.358283,-5.4011 0.291941,-7.81915 2.838913,-1.5741 1.902195,3.50947 2.04359,5.64486 -1.303488,4.30521 4.703891,-0.0574 1.82832,4.60586 z m 5.319822,0 c 3.123558,-2.73578 -2.383211,-1.52026 -1.663181,-3.91684 2.1616,0.94969 3.339054,-3.38605 0.358471,-2.65805 -1.941295,-2.47318 2.96327,-0.34527 2.156206,-3.31541 -1.120226,-1.00557 -4.713008,-1.61163 -4.850209,1.01893 0.175746,2.81514 -0.364254,5.87661 0.291942,8.53007 1.129593,0.66594 2.491758,0.20325 3.706771,0.3413 z m 12.768753,-5.39801 c 0.08122,9.48046 -11.831985,4.91666 -7.770357,-3.15848 2.113609,-4.34481 8.077278,-2.32792 7.770357,3.15848 z m -2.795562,-1.96933 c -6.073866,-3.8146 -1.597245,10.54525 0.530808,1.96149 l -0.132704,-1.08275 z m 5.632411,6.00215 c -1.203892,-3.90041 2.467648,-1.47749 2.278768,-4.50357 -1.362887,-0.22133 -3.821331,-2.20229 -0.94277,-2.22825 2.98697,-0.99257 -0.379281,-3.51693 -2.07761,-2.49501 -2.513655,-0.26789 -1.319621,3.93511 -1.593925,5.98616 -0.432897,2.23848 0.504746,7.35013 2.335537,3.24067 z m 12.591808,1.39657 c -1.78607,-2.10174 -1.70524,-4.22184 -2.97397,-0.27853 -2.44901,0.63405 -2.20102,-4.10614 -3.07868,-6.24648 -1.83312,-4.66927 2.35449,-4.87983 2.37529,-0.34124 0.1679,1.76082 2.56831,-4.66779 3.31686,0.30625 0.47437,0.88921 1.71738,-7.58059 3.36838,-2.66682 -0.64113,3.0106 -1.15068,6.27418 -2.36059,8.94829 z m 7.50791,-0.0314 c 3.12356,-2.73578 -2.38321,-1.52026 -1.66318,-3.91684 2.1616,0.94969 3.33905,-3.38605 0.35847,-2.65805 -1.9413,-2.47318 2.96327,-0.34527 2.15621,-3.31541 -1.12023,-1.00557 -4.71301,-1.61163 -4.85021,1.01893 0.17574,2.81514 -0.36425,5.87661 0.29194,8.53007 1.12959,0.66594 2.49176,0.20325 3.70677,0.3413 z m 4.67697,0.0314 c -3.109,1.35267 -4.6771,-5.60616 -0.64286,-2.66566 4.09716,-0.94374 -5.55625,-3.32994 -1.42728,-7.29868 2.35566,-4.00029 7.20562,3.23021 2.27656,1.57115 -3.10024,1.13367 5.68116,3.49637 1.68087,7.47522 l -0.84633,0.68848 z m 7.97973,-5.90014 c -0.87754,-2.58528 1.36762,-7.23533 2.33553,-3.00261 -0.17574,2.81514 0.36425,5.87661 -0.29194,8.53007 -2.17808,1.1837 -3.09204,-2.78419 -4.48159,-4.33583 0.57424,2.01767 -0.85308,7.17679 -2.37461,3.31194 0.17779,-2.93172 -0.36708,-6.11213 0.29194,-8.88161 2.10721,-1.3775 3.17886,2.92759 4.52067,4.37804 z m 11.27071,0.47075 c 0.0812,9.48046 -11.83199,4.91666 -7.77037,-3.15848 2.11362,-4.34481 8.07728,-2.32792 7.77037,3.15848 z m -2.79556,-1.96933 c -6.07388,-3.8146 -1.59726,10.54525 0.5308,1.96149 l -0.13271,-1.08275 z m 7.66715,-0.72967 c -0.15526,2.5686 0.33407,5.36146 -0.29195,7.7714 -2.83891,1.57409 -1.90219,-3.50948 -2.04359,-5.64486 1.19699,-2.963 -4.22264,-2.12402 -1.17956,-4.62155 1.79099,0.17757 3.70945,-0.37427 5.41419,0.31188 0.95493,2.10054 -0.78613,2.36167 -1.89909,2.18313 z m 7.73202,-2.49501 c 2.11658,0.62024 0.80092,4.54107 1.16777,6.69708 1.14624,3.19332 -2.57541,5.81281 -2.33554,1.46337 0.41634,-3.0891 -2.62631,-1.53459 -1.59241,1.06638 -1.72291,3.89085 -2.91225,-1.52802 -2.33553,-3.91006 -0.21187,-2.13961 -0.17842,-7.23546 2.26255,-4.54884 -0.83722,2.47807 1.56157,5.09754 1.66539,1.82735 -0.0461,-1.12127 -0.0807,-2.78601 1.16777,-2.59528 z"
         id="text49550"
         inkscape:connector-curvature="0" />
      <g
         transform="matrix(0.77878538,0,0,0.92256008,-102.63066,-229.86312)"
         id="g53695">
        <path
           style="fill:#000000;fill-opacity:1;stroke-width:0.56041962"
           d="m 225.79653,381.36576 c -5.04874,-5.70045 -3.09798,-14.35633 -2.45039,-21.29598 2.14357,-8.89697 7.83465,-18.94365 17.6609,-20.54413 6.89198,-1.14917 12.67159,3.11506 19.15746,4.14881 6.85143,0.45746 12.42018,-5.39774 19.38732,-4.1639 10.32595,0.10258 16.39834,10.33535 18.93637,19.13482 1.14366,7.08586 2.62906,15.4104 -1.24072,21.86627 -5.342,5.7642 -12.45787,-0.29209 -16.75787,-4.21205 -4.588,-5.30765 -11.81929,-4.91805 -18.1724,-4.82234 -6.60925,0.30728 -14.46255,-1.33683 -19.60345,3.97346 -4.70927,3.57488 -10.5939,10.63263 -16.91722,5.91504 z"
           id="path53677"
           inkscape:connector-curvature="0" />
        <path
           style="fill:#ffffff;fill-opacity:1;stroke-width:0.56041962"
           d="m 277.9872,362.41501 c 5.58994,-5.40079 -8.06317,-7.57497 -4.77264,-0.67341 1.23932,1.3571 3.24548,2.00683 4.77264,0.67341 z"
           id="path53675"
           inkscape:connector-curvature="0" />
        <path
           style="fill:#ffffff;fill-opacity:1;stroke-width:0.56041962"
           d="m 247.09052,359.86347 c 0.27723,-3.25746 8.70112,-2.32963 4.12382,-6.78295 -5.42377,1.15477 -3.02625,-7.69375 -8.99184,-4.31435 1.10304,5.6301 -8.52036,2.6119 -5.43718,8.20736 3.38408,0.29645 5.45041,0.84964 5.40535,4.6496 1.57622,0.88603 5.19447,0.91959 4.89985,-1.75966 z"
           id="path53673"
           inkscape:connector-curvature="0" />
        <path
           style="fill:#fffffc;fill-opacity:1;stroke-width:0.56041962"
           d="m 288.72216,357.58638 c 4.50178,-7.79772 -11.51832,-3.99212 -3.56811,0.81562 1.22542,0.443 2.60725,-0.0116 3.56811,-0.81562 z"
           id="path53671"
           inkscape:connector-curvature="0" />
        <path
           style="fill:#f8ffff;fill-opacity:1;stroke-width:0.56041962"
           d="m 278.37813,352.42476 c 4.38079,-8.166 -11.41132,-4.0188 -3.58973,0.81533 1.23238,0.44154 2.62307,-0.004 3.58973,-0.81533 z"
           id="path53664"
           inkscape:connector-curvature="0" />
      </g>
    </g>
  </g>
</svg>
