<?xml version="1.0" encoding="UTF-8" standalone="no"?>
<!-- Created with Inkscape (http://www.inkscape.org/) -->

<svg
   xmlns:dc="http://purl.org/dc/elements/1.1/"
   xmlns:cc="http://creativecommons.org/ns#"
   xmlns:rdf="http://www.w3.org/1999/02/22-rdf-syntax-ns#"
   xmlns:svg="http://www.w3.org/2000/svg"
   xmlns="http://www.w3.org/2000/svg"
   xmlns:sodipodi="http://sodipodi.sourceforge.net/DTD/sodipodi-0.dtd"
   xmlns:inkscape="http://www.inkscape.org/namespaces/inkscape"
   width="150"
   height="150"
   viewBox="0 0 39.6875 39.6875"
   version="1.1"
   id="svg922"
   inkscape:version="0.92.4 (5da689c313, 2019-01-14)"
   sodipodi:docname="USO_KWIN_WM.svg">
  <defs
     id="defs916">
    <clipPath
       clipPathUnits="userSpaceOnUse"
       id="clipPath1521">
      <rect
         style="opacity:0.875;fill:#000000;fill-opacity:1;stroke:#000000;stroke-width:0.60403091;stroke-linejoin:round;stroke-miterlimit:4;stroke-dasharray:none;stroke-opacity:1"
         id="rect1523"
         width="172.87534"
         height="151.42299"
         x="57.114269"
         y="66.644836" />
    </clipPath>
  </defs>
  <sodipodi:namedview
     id="base"
     pagecolor="#ffffff"
     bordercolor="#666666"
     borderopacity="1.0"
     inkscape:pageopacity="0.0"
     inkscape:pageshadow="2"
     inkscape:zoom="2.7394378"
     inkscape:cx="94.798845"
     inkscape:cy="116.21053"
     inkscape:document-units="px"
     inkscape:current-layer="layer1"
     showgrid="false"
     inkscape:window-width="1030"
     inkscape:window-height="732"
     inkscape:window-x="2009"
     inkscape:window-y="76"
     inkscape:window-maximized="0"
     units="px" />
  <metadata
     id="metadata919">
    <rdf:RDF>
      <cc:Work
         rdf:about="">
        <dc:format>image/svg+xml</dc:format>
        <dc:type
           rdf:resource="http://purl.org/dc/dcmitype/StillImage" />
        <dc:title></dc:title>
      </cc:Work>
    </rdf:RDF>
  </metadata>
  <g
     inkscape:label="Layer 1"
     inkscape:groupmode="layer"
     id="layer1"
     transform="translate(-35.46637,-112.59198)">
    <g
       id="g6337"
       transform="matrix(0.29830158,0,0,0.29129077,22.368243,109.9309)">
      <path
         style="opacity:0.875;fill:#999999;fill-opacity:1;stroke:none;stroke-width:0.40600324;stroke-linejoin:round;stroke-miterlimit:4;stroke-dasharray:none;stroke-opacity:0.97175137"
         d="m 48.975627,43.131167 c 4.132647,-2.879859 9.751769,-2.413278 14.58294,-3.21176 27.84064,-2.044923 55.827123,-1.782311 83.687973,-0.23939 8.44978,0.729291 17.10358,0.925502 25.25914,3.45115 2.84038,5.409997 2.65096,11.873441 3.36881,17.839296 0.82417,14.162191 1.31119,28.56564 -1.46937,42.549657 -0.41934,5.71763 -6.02423,8.04254 -11.01184,8.61506 -20.19657,3.03328 -40.70476,2.906 -61.08192,3.01564 -17.041408,-0.24022 -34.168681,-0.19989 -51.090554,-2.42806 -6.472856,-0.76422 -4.22945,-9.70709 -5.52502,-14.276103 -1.050395,-16.308282 -1.537946,-32.80636 0.773143,-49.027832 0.528995,-2.131984 0.698082,-4.796009 2.506698,-6.287658 z"
         id="rect49496"
         inkscape:connector-curvature="0" />
      <path
         style="fill:#000000;stroke-width:1.26563919"
         d="m 49.949695,114.76465 c -5.711702,-2.05781 -5.238774,-9.06063 -5.717979,-14.02153 -0.436585,-15.758108 -0.553309,-31.54812 0.0015,-47.303523 -0.436441,-5.625053 3.875375,-9.795276 8.669277,-11.866878 6.455445,-3.192618 13.930493,-1.944564 20.884437,-2.520022 25.785183,-0.429233 51.57963,-0.472642 77.36652,-0.289685 7.22043,0.480561 15.26629,-0.05239 21.48077,4.264067 5.34492,4.83908 4.20747,12.821592 4.36759,19.341185 -0.60054,14.045514 0.0527,28.160375 -1.30449,42.160286 -0.93746,5.8118 -7.04218,9.14968 -12.25933,10.45193 -21.14906,1.35016 -42.37134,0.99396 -63.55587,1.08326 -16.415859,-0.19492 -32.872924,0.0952 -49.2505,-1.14372 l -0.681877,-0.15538 z m 116.461645,-3.64957 c 5.89794,-2.48774 7.14588,-9.3942 7.37251,-15.088974 0.55887,-13.342771 0.79145,-26.759979 -0.26771,-40.081968 -0.22661,-5.235691 -2.71782,-10.65847 -7.89603,-12.600489 -6.52228,-2.878882 -13.9327,-1.775744 -20.87126,-2.228431 -26.98361,-0.0728 -53.980522,-0.420882 -80.955473,0.372513 -5.686102,0.154822 -13.059573,1.026894 -15.561913,6.984748 -2.261649,8.967295 -1.276409,18.362106 -1.558615,27.528003 0.269809,9.994134 -0.711559,20.177315 1.414706,30.009478 2.112716,6.2884 9.661191,6.94096 15.292543,7.2837 27.426906,1.45354 54.911872,0.54809 82.356572,0.11392 6.86318,-0.50478 14.19529,0.36585 20.67467,-2.2925 z M 58.31603,108.68815 c -3.177542,0.0711 -8.355599,-7.29975 -2.439293,-3.05152 5.691698,3.40971 12.738389,2.05204 19.052805,2.52335 2.829236,0.33382 11.00279,-0.49673 11.167062,0.83313 -9.090656,1.49246 -18.786591,1.94553 -27.780574,-0.30496 z M 163.1109,49.669766 c -5.00297,-2.688572 -11.10143,-1.384211 -16.58281,-1.86289 -3.93588,-0.355548 -13.5043,-0.06474 -14.58274,-1.74698 9.37487,-0.304485 18.90303,-0.887454 28.18216,0.794039 3.27525,-1.122296 7.81354,7.281155 2.98339,2.815831 z"
         id="path49494"
         inkscape:connector-curvature="0" />
      <path
         style="font-style:normal;font-variant:normal;font-weight:normal;font-stretch:normal;font-size:16.97093201px;font-family:Insaniburger;-inkscape-font-specification:Insaniburger;opacity:1;vector-effect:none;fill:#000000;fill-opacity:1;stroke:none;stroke-width:0.19887809;stroke-linecap:butt;stroke-linejoin:miter;stroke-miterlimit:4;stroke-dasharray:none;stroke-dashoffset:0;stroke-opacity:1"
         d="m 98.994271,98.486322 c 0.925314,1.824948 4.282379,4.193938 1.986049,6.212408 -2.059873,0.0119 -3.036319,-3.19038 -4.535363,-4.731103 0.486669,1.686723 -1.278138,7.924603 -3.0454,3.232363 0.05548,-3.358469 -0.114226,-6.740101 0.09086,-10.083183 3.045684,-4.103078 2.624201,4.00331 3.187564,3.587002 1.489004,-1.398251 2.643994,-5.449923 4.761219,-4.016049 1.4015,2.092182 -1.672873,4.114119 -2.444931,5.798562 z m 11.629949,6.378418 c -1.91658,-0.69997 -2.10008,-6.045791 -3.12041,-1.32806 -2.12664,3.8006 -3.43349,-2.0388 -3.86863,-4.301967 -0.46638,-2.296423 -2.66695,-7.318616 0.77896,-6.995289 1.42773,0.299734 1.32559,6.858836 2.25775,4.607097 0.89314,-5.208966 3.68931,0.785597 3.93879,0.286626 0.20179,-2.481621 2.24772,-7.606648 3.75804,-3.266969 -0.53519,3.299746 -1.57445,6.439772 -2.32746,9.670502 -0.22673,0.72414 -0.78546,1.35145 -1.41704,1.32806 z m 7.27607,-1.66475 c -1.73479,4.37232 -3.70892,-1.022 -2.90749,-3.826115 0.30376,-2.307043 -0.73714,-5.491846 0.81773,-7.070737 3.08114,-0.758608 1.84186,4.09279 2.08976,6.395232 0,1.50054 0,3.00108 0,4.50162 z m 6.72541,-5.368345 c -0.36269,-2.486353 0.10969,-7.822387 2.81662,-4.714838 0.14918,3.577652 0.15014,7.217503 0,10.795143 -2.08287,2.73385 -3.74935,-1.82315 -5.1008,-3.52242 -1.67011,-3.003627 -0.12931,2.97883 -1.16297,4.03096 -3.19819,1.90549 -2.52163,-3.35705 -2.54405,-5.742271 0.20678,-2.342312 -0.95311,-7.411554 2.25404,-6.289739 1.3925,1.617937 2.47891,3.652336 3.73716,5.443165 z"
         id="text49550"
         inkscape:connector-curvature="0" />
      <g
         transform="matrix(0.33202908,0,0,0.2539867,116.06295,-34.336697)"
         id="g4210">
        <path
           style="opacity:0.875;fill:#ffffff;fill-opacity:1;stroke:none;stroke-width:0.61755061;stroke-linejoin:round;stroke-miterlimit:4;stroke-dasharray:none;stroke-opacity:1"
           d="m -64.158226,332.36594 c 38.706978,0 77.413956,0 116.120934,0 0,34.85575 0,69.71151 0,104.56726 -38.706978,0 -77.413956,0 -116.120934,0 0,-34.85575 0,-69.71151 0,-104.56726 z"
           id="rect4158-7"
           inkscape:connector-curvature="0" />
        <path
           style="opacity:1;fill:#ffffff;fill-opacity:0.85641025;stroke:none;stroke-width:0.62430251;stroke-linejoin:round;stroke-miterlimit:4;stroke-dasharray:none;stroke-opacity:1"
           d="m -97.566437,378.20181 c 39.560555,0 79.121109,0 118.681664,0 0,34.85351 0,69.70701 0,104.56052 -39.560555,0 -79.121109,0 -118.681664,0 0,-34.85351 0,-69.70701 0,-104.56052 z"
           id="rect4158"
           inkscape:connector-curvature="0" />
        <path
           style="fill:#000000;stroke:none;stroke-width:0.26458335"
           d="m -97.132117,487.46251 c -11.168203,-3.91128 -6.178663,-17.02333 -7.256473,-25.8652 0.3413,-27.38719 -0.52972,-55.04848 0.568,-82.26464 4.764609,-10.26662 17.043359,-4.83058 25.791092,-6.18509 33.584562,0 67.169125,0 100.753687,0 13.750507,8.9671 4.071735,29.73243 7.020475,43.65933 -0.04053,21.22685 0.150545,42.46049 -0.308865,63.68234 -3.620389,11.25044 -16.392042,6.05712 -25.0174693,7.23802 -33.8489207,-0.0922 -67.7117337,0.38395 -101.5504467,-0.26476 z M 20.145289,437.63977 c -0.02233,-13.5599 -0.04467,-27.11979 -0.067,-40.67969 -38.276385,0 -76.552771,0 -114.829156,0 -0.01301,27.00948 -0.181725,54.01966 -0.0102,81.02865 38.313852,0.65072 76.649708,0.2037 114.973256,0.33073 -0.0223,-13.5599 -0.0446,-27.11979 -0.0669,-40.67969 z M -85.039717,388.87233 c 9.535582,-19.49351 -21.900813,-0.20269 0,0 z m 14.27601,0.048 c 9.424207,-19.62493 -21.137297,-0.37398 0,0 z m 14.24926,0.27374 c 11.723291,-19.12294 -21.207024,-2.54684 0,0 z m 76.725036,-4.27351 c -1.06457,-5.3874 -11.9845709,-0.8996 -16.9800182,-2.34825 -16.6972828,0.0335 -33.3945648,0.0669 -50.0918478,0.10038 -2.436112,8.30054 8.894562,3.28128 13.643393,4.63021 17.809491,0 35.6189818,0 53.428473,0 0,-0.79411 0,-1.58823 0,-2.38234 z m 14.81667,55.30846 c -2.147097,-8.6384 9.670921,-3.31169 14.70189,-4.77203 4.420232,-2.24916 0.779491,-12.55929 1.96686,-18.04131 0,-21.06192 0,-42.12385 0,-63.18578 -38.364582,0 -76.729164,0 -115.093746,0 -1.295152,4.70551 3.595092,15.59641 -4.77281,13.22917 -8.682431,2.12813 -3.245048,-9.7919 -4.697203,-14.85735 0.77694,-7.90508 -3.131442,-19.01451 7.221053,-22.31661 39.775692,0 79.551384,0 119.327076,0 11.683254,4.43677 6.356921,17.89737 7.526079,27.30463 -0.343183,26.99054 0.526668,54.25539 -0.572953,81.07487 -3.015644,7.82094 -23.581064,9.45107 -25.606243,3.15271 l -2e-6,-1.06125 z m -88.750216,-94.06517 c 10.156311,-19.18354 -21.885128,-1.24978 0,0 z m 13.90697,0.28395 c 12.367897,-18.5682 -21.739729,-2.98666 0,0 z m 14.43488,0.0924 c 12.492728,-19.02391 -21.068887,-3.39106 0,0 z m 76.944826,-4.34879 c -1.065872,-5.39003 -11.984751,-0.94677 -16.980018,-2.41527 -16.697286,-0.0335 -33.3945721,-0.0669 -50.091858,-0.10038 -2.374057,8.65463 8.7584086,3.77565 13.7962648,5.00349 17.7585372,-0.0356 35.5170742,-0.0712 53.2756112,-0.10675 0,-0.7937 0,-1.58739 0,-2.38109 z"
           id="path4016"
           inkscape:connector-curvature="0" />
      </g>
    </g>
    <flowRoot
       xml:space="preserve"
       id="flowRoot6321"
       style="line-height:1.25;letter-spacing:0px;word-spacing:0px;opacity:1;vector-effect:none;fill:#000000;fill-opacity:1;stroke:none;stroke-width:1;stroke-linecap:butt;stroke-linejoin:miter;stroke-miterlimit:4;stroke-dasharray:none;stroke-dashoffset:0;stroke-opacity:1"><flowRegion
         id="flowRegion6323"><rect
           id="rect6325"
           width="96.412918"
           height="150.33879"
           x="-214.06935"
           y="61.986916" /></flowRegion><flowPara
         id="flowPara6327" /></flowRoot>  </g>
</svg>
