<?xml version="1.0" encoding="UTF-8" standalone="no"?>
<!-- Created with Inkscape (http://www.inkscape.org/) -->

<svg
   xmlns:dc="http://purl.org/dc/elements/1.1/"
   xmlns:cc="http://creativecommons.org/ns#"
   xmlns:rdf="http://www.w3.org/1999/02/22-rdf-syntax-ns#"
   xmlns:svg="http://www.w3.org/2000/svg"
   xmlns="http://www.w3.org/2000/svg"
   xmlns:sodipodi="http://sodipodi.sourceforge.net/DTD/sodipodi-0.dtd"
   xmlns:inkscape="http://www.inkscape.org/namespaces/inkscape"
   width="150mm"
   height="150mm"
   viewBox="0 0 150 150"
   version="1.1"
   id="svg922"
   inkscape:version="0.92.4 (5da689c313, 2019-01-14)"
   sodipodi:docname="USO_SERVER_sendmail.svg">
  <defs
     id="defs916">
    <clipPath
       clipPathUnits="userSpaceOnUse"
       id="clipPath1521">
      <rect
         style="opacity:0.875;fill:#000000;fill-opacity:1;stroke:#000000;stroke-width:0.60403091;stroke-linejoin:round;stroke-miterlimit:4;stroke-dasharray:none;stroke-opacity:1"
         id="rect1523"
         width="172.87534"
         height="151.42299"
         x="57.114269"
         y="66.644836" />
    </clipPath>
  </defs>
  <sodipodi:namedview
     id="base"
     pagecolor="#ffffff"
     bordercolor="#666666"
     borderopacity="1.0"
     inkscape:pageopacity="0.0"
     inkscape:pageshadow="2"
     inkscape:zoom="0.49497475"
     inkscape:cx="-288.27208"
     inkscape:cy="12.980964"
     inkscape:document-units="mm"
     inkscape:current-layer="layer1"
     showgrid="false"
     inkscape:window-width="1453"
     inkscape:window-height="848"
     inkscape:window-x="2051"
     inkscape:window-y="102"
     inkscape:window-maximized="0" />
  <metadata
     id="metadata919">
    <rdf:RDF>
      <cc:Work
         rdf:about="">
        <dc:format>image/svg+xml</dc:format>
        <dc:type
           rdf:resource="http://purl.org/dc/dcmitype/StillImage" />
        <dc:title></dc:title>
      </cc:Work>
    </rdf:RDF>
  </metadata>
  <g
     inkscape:label="Layer 1"
     inkscape:groupmode="layer"
     id="layer1"
     transform="translate(-35.425468,-2.2678798)">
    <g
       id="g12966"
       transform="translate(8.4279941,-36.195259)">
      <path
         style="opacity:0.875;fill:#999999;fill-opacity:1;stroke:none;stroke-width:0.40600324;stroke-linejoin:round;stroke-miterlimit:4;stroke-dasharray:none;stroke-opacity:0.97175137"
         d="m 40.541649,79.335309 c 4.132647,-2.879859 9.751769,-2.413278 14.58294,-3.21176 27.840639,-2.044923 55.827121,-1.782311 83.687971,-0.23939 8.44978,0.729291 17.10358,0.925502 25.25914,3.45115 2.84038,5.409997 2.65096,11.873441 3.36881,17.839295 0.82417,14.162196 1.31119,28.565636 -1.46937,42.549666 -0.41934,5.71762 -6.02423,8.04253 -11.01184,8.61505 -20.19657,3.03328 -40.70475,2.906 -61.081918,3.01564 -17.041409,-0.24022 -34.168681,-0.19989 -51.090555,-2.42806 -6.472855,-0.76422 -4.229449,-9.70709 -5.525019,-14.2761 -1.050395,-16.30828 -1.537946,-32.80636 0.773143,-49.027833 0.528995,-2.131985 0.698082,-4.796009 2.506698,-6.287658 z"
         id="rect49496"
         inkscape:connector-curvature="0" />
      <path
         style="fill:#000000;stroke-width:1.26563919"
         d="m 41.515717,150.96879 c -5.711702,-2.05781 -5.238774,-9.06062 -5.717979,-14.02153 -0.436585,-15.75811 -0.553309,-31.54812 0.0015,-47.303521 -0.436441,-5.625053 3.875375,-9.795276 8.669277,-11.866878 6.455445,-3.192618 13.930493,-1.944564 20.884436,-2.520022 25.785183,-0.429233 51.579629,-0.472642 77.366519,-0.289685 7.22043,0.480561 15.26629,-0.05239 21.48077,4.264067 5.34492,4.83908 4.20747,12.821592 4.36759,19.341185 -0.60054,14.045514 0.0527,28.160374 -1.30449,42.160284 -0.93746,5.8118 -7.04218,9.14968 -12.25933,10.45193 -21.14906,1.35016 -42.37134,0.99396 -63.555869,1.08326 -16.415858,-0.19492 -32.872923,0.0952 -49.250499,-1.14372 l -0.681877,-0.15538 z m 116.461643,-3.64957 c 5.89794,-2.48774 7.14588,-9.3942 7.37251,-15.08897 0.55887,-13.34277 0.79145,-26.75998 -0.26771,-40.08197 -0.22661,-5.235691 -2.71782,-10.65847 -7.89603,-12.600489 -6.52228,-2.878882 -13.9327,-1.775744 -20.87126,-2.228431 -26.98361,-0.0728 -53.980521,-0.420882 -80.955472,0.372513 -5.686102,0.154822 -13.059572,1.026894 -15.561912,6.984748 -2.261649,8.967295 -1.276409,18.362109 -1.558615,27.527999 0.269809,9.99414 -0.711559,20.17732 1.414706,30.00948 2.112716,6.2884 9.661191,6.94096 15.292543,7.2837 27.426906,1.45354 54.91187,0.54809 82.35657,0.11392 6.86318,-0.50478 14.19529,0.36585 20.67467,-2.2925 z M 49.882052,144.89229 c -3.177542,0.0711 -8.355599,-7.29975 -2.439293,-3.05152 5.691698,3.40971 12.738389,2.05204 19.052805,2.52335 2.829236,0.33382 11.00279,-0.49673 11.167062,0.83313 -9.090656,1.49246 -18.786591,1.94553 -27.780574,-0.30496 z M 154.67692,85.873908 c -5.00297,-2.688572 -11.10143,-1.384211 -16.58281,-1.86289 -3.93588,-0.355548 -13.5043,-0.06474 -14.58274,-1.74698 9.37487,-0.304485 18.90303,-0.887454 28.18216,0.794039 3.27525,-1.122296 7.81354,7.281155 2.98339,2.815831 z"
         id="path49494"
         inkscape:connector-curvature="0" />
      <g
         transform="matrix(0.24449518,0,0,0.19114716,198.55382,69.572785)"
         id="g55219">
        <path
           style="fill:#000003;fill-opacity:1;stroke-width:0.26458332"
           d="m -423.12973,295.18552 c -7.08257,-9.80635 -18.97369,-6.45725 -29.83751,-6.92248 -16.85808,0 -33.71615,0 -50.57423,0 -5.73725,-10.80506 16.19938,-5.27911 23.50772,-6.61459 16.635,0 33.27001,0 49.90501,0 11.33673,-6.53865 6.0342,-20.09741 7.20684,-31.20846 -30.99368,-4.10122 -68.0124,7.09035 -96.31326,-6.1173 -4.9998,-18.85033 -7.79678,-55.95808 22.28705,-49.45757 24.6754,0 49.35081,0 74.02621,0 4.85584,-25.21811 -34.79162,-5.93907 -49.15358,-11.88594 -23.9139,2.80468 -58.63481,2.68075 -49.56699,-31.02821 -3.95399,-39.8875 49.24217,-19.27406 73.19455,-24.28363 11.60715,-0.87302 30.50788,5.54546 25.52602,-11.91256 -31.45222,-5.78919 -75.46537,12.39566 -98.42647,-10.74836 -2.32953,-20.451567 -3.13318,-53.045536 27.6218,-44.539915 54.54294,0.03353 109.08609,-0.105484 163.62885,0.09065 20.25196,6.404205 20.50384,61.373925 -8.6497,55.192655 -25.76507,0.002 -51.53015,0.004 -77.29522,0.006 -4.92916,25.03413 34.16897,6.10468 48.40312,11.92797 26.27357,-4.71586 61.01311,-0.53871 50.23307,34.50015 4.86895,22.13357 -19.09906,21.69349 -34.17115,20.77145 -21.48831,0.002 -42.97663,0.003 -64.46494,0.005 -2.68886,25.68682 39.34968,5.65755 55.1842,11.88002 22.88928,-4.33275 52.04989,1.5815 43.46213,30.89464 6.16107,22.6369 -16.32389,26.56314 -33.17903,24.42947 -21.82254,0 -43.64507,0 -65.46761,0 2.04099,8.73817 -4.61086,22.31554 4.37851,27.18562 5.60219,8.57662 19.18592,2.46248 28.44959,4.29979 16.27826,0.45527 32.91137,-0.90053 48.9733,0.65881 1.30183,10.9713 -16.55212,4.01029 -24.25669,5.95578 -16.77997,0 -33.55994,0 -50.33991,0 -1.7989,5.77169 -8.69385,8.88307 -14.29168,6.92158 z m 5.31378,-6.2216 c 13.60612,-18.74226 -21.28644,-1.68008 0,0 z m -76.0142,-55.46963 c -6.14555,-8.91291 -21.44791,5.00269 0,0 z m 21.90155,0.11729 c -4.89121,-9.07575 -21.94416,3.88881 -0.58804,0.41187 l 0.5104,-0.35749 z m 22.3487,-0.41498 c -7.31771,-8.47255 -18.76144,4.41067 -1.38609,0.71108 z m 103.50874,-2.10224 c 23.55392,-19.9562 -28.43052,-21.81829 -8.10138,-0.64672 l 4.01987,1.23568 z m -6.14605,-3.1868 c -13.77368,-24.64009 26.90001,-1.9046 0,0 z m -141.61294,-4.20286 c -6.93682,-9.99135 -20.33472,5.67762 0,0 z m 21.90155,0.11729 c -4.89125,-9.07573 -21.94413,3.88881 -0.58804,0.41188 l 0.51039,-0.35749 z m 22.18004,-0.25398 c -5.75367,-8.37423 -19.72298,3.85693 -1.56054,0.67432 z m -43.92753,-9.7696 c -7.74828,-10.2001 -21.00309,6.25594 0,0 z m 21.74749,0.234 c -6.71266,-9.30851 -19.55952,4.7778 0,0 z m 22.18004,-0.25399 c -8.30155,-9.90659 -19.41271,5.82499 0,0 z m -44.08159,-47.4883 c -7.51523,-10.49697 -20.99513,6.07603 0,0 z m 21.90155,0.11729 c -4.89124,-9.07573 -21.94413,3.88881 -0.58804,0.41188 l 0.51039,-0.35749 z m 22.3487,-0.41498 c -7.31771,-8.47255 -18.76143,4.41066 -1.38609,0.71107 z m 104.23534,-2.4307 c 20.38676,-16.00321 -22.12455,-25.15561 -11.83979,-2.83526 2.70413,3.45462 7.85293,4.83685 11.83979,2.83526 z m -6.66892,-2.72052 c -15.60981,-22.61555 27.78875,-4.70554 0,0 z m -141.81667,-4.34067 c -6.93683,-9.99135 -20.33472,5.67762 0,0 z m 21.90155,0.11729 c -4.89123,-9.07573 -21.94414,3.88881 -0.58804,0.41188 l 0.51039,-0.35749 z m 22.2693,-0.29116 c -6.20416,-8.31423 -19.61915,3.95373 -1.52736,0.71282 z m -44.01679,-9.73243 c -7.7483,-10.20008 -21.00307,6.25592 0,0 z m 21.74749,0.23401 c -6.71262,-9.30853 -19.55954,4.77778 0,0 z m 22.18004,-0.25399 c -8.3015,-9.9066 -19.41275,5.82495 0,0 z m -44.08159,-47.4883 c -7.5152,-10.496992 -20.99514,6.07601 0,0 z m 21.90155,0.11729 c -4.89121,-9.075754 -21.94416,3.88881 -0.58804,0.41187 l 0.5104,-0.35749 z m 22.3487,-0.41498 c -7.31771,-8.472555 -18.76144,4.41067 -1.38609,0.711075 z m 103.50874,-2.10224 c 23.53962,-19.941236 -28.41814,-21.822746 -8.10138,-0.646722 l 4.01987,1.235675 z m -5.81003,-2.99462 c -14.77608,-15.954314 20.99232,-10.429135 3.54955,0.338716 z m -141.94896,-4.39504 c -6.93683,-9.991351 -20.33472,5.677618 0,0 z m 21.90155,0.11729 c -4.89124,-9.075732 -21.94413,3.888811 -0.58804,0.41188 l 0.51039,-0.35749 z m 22.18004,-0.25398 c -5.75366,-8.374232 -19.72299,3.856929 -1.56054,0.67432 z m -43.92753,-9.76961 c -7.7483,-10.199995 -21.00306,6.255795 0,0 z m 21.74749,0.23401 c -6.71265,-9.308515 -19.55953,4.777798 0,0 z m 22.02305,-0.0671 c -6.33546,-9.50565 -20.14287,4.958154 0,0 z"
           id="path55207"
           inkscape:connector-curvature="0" />
      </g>
      <path
         style="font-style:normal;font-variant:normal;font-weight:normal;font-stretch:normal;font-size:16.97093201px;font-family:Insaniburger;-inkscape-font-specification:Insaniburger;opacity:1;vector-effect:none;fill:#000000;fill-opacity:1;stroke:none;stroke-width:0.19887809;stroke-linecap:butt;stroke-linejoin:miter;stroke-miterlimit:4;stroke-dasharray:none;stroke-dashoffset:0;stroke-opacity:1"
         d="m 67.417356,140.45226 c -3.010665,1.85982 -6.056206,-5.46962 -1.798826,-3.56331 4.687278,1.54708 1.266646,-2.51298 -1.082966,-3.15413 -3.937305,-5.82893 7.229818,-9.18238 5.524963,-2.88293 -1.239752,-0.16308 -5.511254,-0.87108 -2.514684,1.51044 4.280629,0.33841 4.175874,8.16442 -0.128487,8.08993 z m 8.920704,-0.0374 c 3.642754,-2.7397 -2.110458,-2.4032 -2.070485,-4.01759 0.295089,-1.0406 5.189957,-1.56535 1.7768,-3.81982 -2.229083,1.17722 -2.478778,-2.88506 -0.138433,-1.81439 3.497546,-0.75298 0.102832,-4.22093 -2.025431,-2.9741 -2.881264,-0.91099 -2.634604,2.99851 -2.520425,5.45346 0.30376,2.30704 -0.737144,5.49184 0.817732,7.07073 1.375773,0.20927 2.775937,0.054 4.160242,0.10171 z m 7.856095,-6.99569 c -0.362682,-2.48634 0.109696,-7.82239 2.816629,-4.71483 0.149182,3.57766 0.150137,7.2175 0,10.79514 -2.082868,2.73384 -3.749361,-1.82315 -5.100807,-3.52242 -1.670109,-3.00363 -0.129303,2.97883 -1.162959,4.03096 -3.1982,1.90549 -2.521636,-3.35705 -2.544053,-5.74227 0.206777,-2.34231 -0.953119,-7.41156 2.254039,-6.28974 1.392495,1.61794 2.478904,3.65234 3.737151,5.44316 z m 8.046984,6.99569 c -1.846552,0.044 -5.079328,0.6184 -4.405283,-3.01865 0.187233,-3.04315 -0.407306,-6.3454 0.363437,-9.20042 2.521352,-0.86913 6.417648,-0.93338 7.389868,3.01619 1.179879,3.42493 0.01127,8.84114 -3.348022,9.20288 z m 1.108668,-6.42518 c -0.280897,-5.31307 -3.795263,-3.88536 -2.606462,0.51711 -1.08417,4.9098 2.650214,3.92152 2.606462,-0.51711 z m 8.164463,-2.31007 c 0.95221,-2.07755 4.23393,-6.29463 4.84581,-1.91548 -0.0552,3.24256 0.1138,6.50817 -0.0909,9.73535 -2.78552,3.13674 -3.13874,-2.37862 -2.81664,-4.8859 -0.0472,-2.65287 -1.96735,4.32939 -2.82685,0.59018 -1.60938,-3.34964 -0.906743,1.26207 -1.049792,2.96165 -0.505115,4.8041 -4.074176,0.71277 -2.90749,-2.50835 0.170702,-2.47234 -0.382808,-5.1879 0.363431,-7.4753 2.135733,-1.62707 3.240701,2.02742 4.482381,3.49785 z m 10.70485,3.51655 c -0.25793,-4.92081 -2.40518,1.23927 0,0 z m -2.12923,2.9928 c -1.4667,5.19005 -4.39636,-0.50059 -2.01457,-3.22318 1.04429,-2.33716 1.43066,-5.36337 3.06863,-7.09733 2.3385,-0.12234 2.46113,3.94709 3.53263,5.93428 1.03608,2.08505 2.75406,7.51904 -0.81465,6.29415 -0.54105,-2.74559 -2.02879,-1.73838 -3.77204,-1.90792 z m 9.64024,0.59856 c -1.73479,4.37232 -3.70892,-1.02199 -2.90749,-3.82612 0.30376,-2.30703 -0.73714,-5.49185 0.81773,-7.07074 3.08114,-0.7586 1.84186,4.0928 2.08976,6.39523 0,1.50055 0,3.00109 0,4.50163 z m 5.91777,1.62734 c -1.71758,-0.41401 -5.01483,1.25303 -5.18356,-1.97517 0.0552,-3.24256 -0.1138,-6.50817 0.0909,-9.73535 2.78552,-3.13674 3.13873,2.37862 2.81663,4.8859 -0.0285,2.13142 -0.52902,4.86409 1.91143,3.85052 1.52383,-0.54399 1.79658,2.92505 0.36464,2.9741 z"
         id="text49550"
         inkscape:connector-curvature="0" />
    </g>
  </g>
</svg>
