<?xml version="1.0" encoding="UTF-8" standalone="no"?>
<!-- Created with Inkscape (http://www.inkscape.org/) -->

<svg
   xmlns:dc="http://purl.org/dc/elements/1.1/"
   xmlns:cc="http://creativecommons.org/ns#"
   xmlns:rdf="http://www.w3.org/1999/02/22-rdf-syntax-ns#"
   xmlns:svg="http://www.w3.org/2000/svg"
   xmlns="http://www.w3.org/2000/svg"
   xmlns:sodipodi="http://sodipodi.sourceforge.net/DTD/sodipodi-0.dtd"
   xmlns:inkscape="http://www.inkscape.org/namespaces/inkscape"
   width="150mm"
   height="150mm"
   viewBox="0 0 150 150"
   version="1.1"
   id="svg922"
   inkscape:version="0.92.4 (5da689c313, 2019-01-14)"
   sodipodi:docname="USO_UTILITIES_midnight_commander.svg">
  <defs
     id="defs916">
    <clipPath
       clipPathUnits="userSpaceOnUse"
       id="clipPath1521">
      <rect
         style="opacity:0.875;fill:#000000;fill-opacity:1;stroke:#000000;stroke-width:0.60403091;stroke-linejoin:round;stroke-miterlimit:4;stroke-dasharray:none;stroke-opacity:1"
         id="rect1523"
         width="172.87534"
         height="151.42299"
         x="57.114269"
         y="66.644836" />
    </clipPath>
  </defs>
  <sodipodi:namedview
     id="base"
     pagecolor="#ffffff"
     bordercolor="#666666"
     borderopacity="1.0"
     inkscape:pageopacity="0.0"
     inkscape:pageshadow="2"
     inkscape:zoom="0.7"
     inkscape:cx="226.81236"
     inkscape:cy="127.26668"
     inkscape:document-units="mm"
     inkscape:current-layer="layer1"
     showgrid="false"
     inkscape:window-width="1262"
     inkscape:window-height="792"
     inkscape:window-x="2155"
     inkscape:window-y="113"
     inkscape:window-maximized="0" />
  <metadata
     id="metadata919">
    <rdf:RDF>
      <cc:Work
         rdf:about="">
        <dc:format>image/svg+xml</dc:format>
        <dc:type
           rdf:resource="http://purl.org/dc/dcmitype/StillImage" />
        <dc:title></dc:title>
      </cc:Work>
    </rdf:RDF>
  </metadata>
  <g
     inkscape:label="Layer 1"
     inkscape:groupmode="layer"
     id="layer1"
     transform="translate(-35.425468,-2.2678798)">
    <g
       id="g6279"
       transform="translate(8.4279941,-36.195259)">
      <path
         style="opacity:0.875;fill:#999999;fill-opacity:1;stroke:none;stroke-width:0.40600324;stroke-linejoin:round;stroke-miterlimit:4;stroke-dasharray:none;stroke-opacity:0.97175137"
         d="m 40.541649,79.335309 c 4.132647,-2.879859 9.751769,-2.413278 14.58294,-3.21176 27.840639,-2.044923 55.827121,-1.782311 83.687971,-0.23939 8.44978,0.729291 17.10358,0.925502 25.25914,3.45115 2.84038,5.409997 2.65096,11.873441 3.36881,17.839295 0.82417,14.162196 1.31119,28.565636 -1.46937,42.549666 -0.41934,5.71762 -6.02423,8.04253 -11.01184,8.61505 -20.19657,3.03328 -40.70475,2.906 -61.081918,3.01564 -17.041409,-0.24022 -34.168681,-0.19989 -51.090555,-2.42806 -6.472855,-0.76422 -4.229449,-9.70709 -5.525019,-14.2761 -1.050395,-16.30828 -1.537946,-32.80636 0.773143,-49.027833 0.528995,-2.131985 0.698082,-4.796009 2.506698,-6.287658 z"
         id="rect49496"
         inkscape:connector-curvature="0" />
      <path
         style="fill:#000000;stroke-width:1.26563919"
         d="m 41.515717,150.96879 c -5.711702,-2.05781 -5.238774,-9.06062 -5.717979,-14.02153 -0.436585,-15.75811 -0.553309,-31.54812 0.0015,-47.303521 -0.436441,-5.625053 3.875375,-9.795276 8.669277,-11.866878 6.455445,-3.192618 13.930493,-1.944564 20.884436,-2.520022 25.785183,-0.429233 51.579629,-0.472642 77.366519,-0.289685 7.22043,0.480561 15.26629,-0.05239 21.48077,4.264067 5.34492,4.83908 4.20747,12.821592 4.36759,19.341185 -0.60054,14.045514 0.0527,28.160374 -1.30449,42.160284 -0.93746,5.8118 -7.04218,9.14968 -12.25933,10.45193 -21.14906,1.35016 -42.37134,0.99396 -63.555869,1.08326 -16.415858,-0.19492 -32.872923,0.0952 -49.250499,-1.14372 l -0.681877,-0.15538 z m 116.461643,-3.64957 c 5.89794,-2.48774 7.14588,-9.3942 7.37251,-15.08897 0.55887,-13.34277 0.79145,-26.75998 -0.26771,-40.08197 -0.22661,-5.235691 -2.71782,-10.65847 -7.89603,-12.600489 -6.52228,-2.878882 -13.9327,-1.775744 -20.87126,-2.228431 -26.98361,-0.0728 -53.980521,-0.420882 -80.955472,0.372513 -5.686102,0.154822 -13.059572,1.026894 -15.561912,6.984748 -2.261649,8.967295 -1.276409,18.362109 -1.558615,27.527999 0.269809,9.99414 -0.711559,20.17732 1.414706,30.00948 2.112716,6.2884 9.661191,6.94096 15.292543,7.2837 27.426906,1.45354 54.91187,0.54809 82.35657,0.11392 6.86318,-0.50478 14.19529,0.36585 20.67467,-2.2925 z M 49.882052,144.89229 c -3.177542,0.0711 -8.355599,-7.29975 -2.439293,-3.05152 5.691698,3.40971 12.738389,2.05204 19.052805,2.52335 2.829236,0.33382 11.00279,-0.49673 11.167062,0.83313 -9.090656,1.49246 -18.786591,1.94553 -27.780574,-0.30496 z M 154.67692,85.873908 c -5.00297,-2.688572 -11.10143,-1.384211 -16.58281,-1.86289 -3.93588,-0.355548 -13.5043,-0.06474 -14.58274,-1.74698 9.37487,-0.304485 18.90303,-0.887454 28.18216,0.794039 3.27525,-1.122296 7.81354,7.281155 2.98339,2.815831 z"
         id="path49494"
         inkscape:connector-curvature="0" />
      <path
         style="font-style:normal;font-variant:normal;font-weight:normal;font-stretch:normal;font-size:12.62447357px;font-family:Insaniburger;-inkscape-font-specification:Insaniburger;opacity:1;vector-effect:none;fill:#000000;fill-opacity:1;stroke:none;stroke-width:0.14794303;stroke-linecap:butt;stroke-linejoin:miter;stroke-miterlimit:4;stroke-dasharray:none;stroke-dashoffset:0;stroke-opacity:1"
         d="m 50.696323,134.39619 c 0.725341,-2.4633 4.048445,-4.5123 3.516079,-0.2997 -0.156567,2.1915 0.326402,4.60696 -0.263706,6.65135 -2.738247,1.97416 -1.450008,-4.20869 -2.018629,-4.59656 -0.763081,3.83982 -2.445776,-0.66364 -2.640175,0.45598 0.833759,2.37828 -1.210184,6.8118 -2.109648,2.85316 0.162844,-2.55025 -0.334975,-5.32832 0.263707,-7.73184 1.555339,-1.24277 2.346082,1.54038 3.252372,2.66761 z m 6.158465,5.42084 c -1.717358,3.63287 -2.585378,-1.74138 -2.109647,-3.92261 -0.830195,-2.37814 1.202751,-6.83278 2.109647,-2.86773 0,2.26345 0,4.52689 0,6.79034 z m 3.729174,1.24108 c -1.887891,0.50138 -3.87254,-0.29525 -3.196435,-3.38069 0.35529,-1.99952 -0.898756,-5.65157 1.054824,-6.24841 3.809278,-1.47862 6.734729,5.12931 3.630617,8.84094 l -0.675913,0.52336 z m 0.804436,-4.90014 c -0.607685,-4.88315 -2.712006,-2.15288 -1.891224,1.13372 -0.709982,3.61334 2.314141,1.1944 1.891224,-1.13372 z m 6.755134,-0.4351 c -0.986047,-2.66816 1.720523,-6.61341 2.109647,-2.33958 -0.161571,2.42793 0.333281,5.08421 -0.263705,7.36455 -1.922203,1.56213 -3.161796,-3.69855 -4.083446,-3.64126 1.091397,3.0107 -2.24318,5.95393 -2.109648,1.64064 0.15952,-2.30833 -0.330485,-4.84377 0.263707,-7.00437 1.898564,-1.27438 2.869912,2.6672 4.083445,3.98002 z m 4.752034,4.09416 c -1.717358,3.63287 -2.585378,-1.74138 -2.109648,-3.92261 -0.830194,-2.37814 1.202751,-6.83278 2.109648,-2.86773 0,2.26345 0,4.52689 0,6.79034 z m 6.387542,-4.66477 c -2.935011,-0.78037 -2.353863,1.98019 -1.45571,3.24179 -4.490702,0.76623 -1.644948,-7.69988 1.66481,-4.14051 1.026413,-6.72215 -9.597426,-1.31904 -5.541486,4.76863 2.135204,4.42014 7.799618,1.5933 5.9477,-3.54537 l -0.25638,-0.24341 z m 5.950697,-3.72325 c 1.969665,0.69066 0.687398,4.48928 1.054824,6.59008 0.913882,3.65409 -3.011716,3.78697 -2.109647,0.0149 -1.847674,-3.03447 -0.826257,2.94101 -2.49322,3.02409 -1.969664,-0.69067 -0.687398,-4.48929 -1.054823,-6.59009 -0.913878,-3.65409 3.011717,-3.78696 2.109647,-0.0149 2.305449,3.30614 0.491154,-3.17348 2.493219,-3.02407 z m 5.535166,2.26818 c -0.156444,2.3296 0.325946,4.88223 -0.263713,7.06492 -2.687664,1.40348 -1.656166,-3.54956 -1.845943,-5.56662 0.665685,-2.01471 -3.993299,-2.15566 -0.799131,-3.76648 1.524898,0.47024 4.139352,-1.09935 4.837299,1.13409 0.06167,1.5046 -1.233236,1.06829 -1.928512,1.13409 z m 11.624359,5.63482 c -3.547955,6.60749 -10.285981,-4.7109 -4.396425,-7.84059 3.059445,-2.90223 6.649155,4.69964 1.61553,2.16298 -3.874923,0.87672 -0.625559,7.5016 2.256155,4.45257 0.31424,0.25218 0.53445,0.72642 0.52474,1.22504 z m 8.071,-3.18118 c 0.0734,8.6186 -10.687639,4.46969 -7.01884,-2.87134 1.90919,-3.94982 7.29607,-2.11629 7.01884,2.87134 z m -2.52518,-1.7903 c -4.57339,-3.73699 -2.79987,8.61307 0.35827,2.76748 0.22566,-0.9178 0.1529,-2.03386 -0.35827,-2.76748 z m 6.49409,0.0357 c 0.72534,-2.4633 4.04845,-4.5123 3.51608,-0.2997 -0.15657,2.1915 0.3264,4.60696 -0.26371,6.65135 -2.73824,1.97416 -1.45001,-4.20869 -2.01862,-4.59656 -0.76308,3.83982 -2.44578,-0.66364 -2.64018,0.45598 0.83376,2.37828 -1.21018,6.8118 -2.10965,2.85316 0.16285,-2.55025 -0.33498,-5.32832 0.26371,-7.73184 1.55534,-1.24277 2.34608,1.54038 3.25237,2.66761 z m 7.56489,0 c 0.72535,-2.4633 4.04845,-4.5123 3.51609,-0.2997 -0.15658,2.1915 0.32639,4.60696 -0.26371,6.65135 -2.73824,1.97416 -1.45001,-4.20869 -2.01863,-4.59656 -0.76308,3.83982 -2.44577,-0.66364 -2.64017,0.45598 0.83376,2.37828 -1.21019,6.8118 -2.10965,2.85316 0.16285,-2.55025 -0.33498,-5.32832 0.2637,-7.73184 1.55535,-1.24277 2.34609,1.54038 3.25237,2.66761 z m 7.76734,2.68189 c -0.36408,-3.85333 -1.64363,0.95903 0,0 z m -1.54494,2.28245 c -1.89108,4.3706 -2.72203,-1.71818 -1.01371,-3.77147 0.39771,-2.99043 2.86074,-5.9408 3.65756,-1.56955 0.42463,2.21447 3.07901,5.86112 0.6325,7.0386 -1.11999,-1.67702 -1.39053,-1.96254 -3.27635,-1.69758 z m 9.23237,-3.63766 c -0.98605,-2.66816 1.72053,-6.61341 2.10965,-2.33958 -0.16157,2.42793 0.33328,5.08421 -0.26371,7.36455 -1.9222,1.56213 -3.16179,-3.69855 -4.08344,-3.64126 1.0914,3.0107 -2.24318,5.95393 -2.10965,1.64064 0.15952,-2.30833 -0.33048,-4.84377 0.26371,-7.00437 1.89856,-1.27438 2.86991,2.6672 4.08344,3.98002 z m 5.83882,5.33524 c -1.8879,0.50138 -3.87254,-0.29525 -3.19643,-3.38069 0.35528,-1.99952 -0.89876,-5.65157 1.05482,-6.24841 3.80928,-1.47862 6.73473,5.12931 3.63061,8.84094 l -0.67591,0.52336 z m 0.80443,-4.90014 c -0.60768,-4.88315 -2.712,-2.15288 -1.89122,1.13372 -0.70998,3.61334 2.31414,1.1944 1.89122,-1.13372 z m 6.01996,4.90014 c 3.18668,-2.33402 -3.53427,-2.08671 -0.96963,-3.69473 2.76498,0.18917 0.81436,-2.98792 -0.53269,-2.63905 -0.16201,-1.37941 4.35551,-1.54804 1.23598,-3.29532 -1.90023,-0.44171 -4.0545,0.1605 -3.34563,3.38068 0.35529,1.99952 -0.89876,5.65157 1.05483,6.24842 0.85237,0 1.70476,0 2.55714,0 z M 155.891,136.964 c 2.47777,2.17054 -0.0628,6.1207 -1.3949,2.08207 -1.75582,-4.40767 0.13077,4.12361 -2.76312,1.70181 -0.53091,-2.7033 -0.20791,-5.78359 -0.19778,-8.62072 2.01309,-2.18882 7.26814,0.15106 4.82661,4.36474 z m -2.31209,-3.59486 c -0.96616,5.17363 3.89491,-0.0296 0,0 z"
         id="text49550"
         inkscape:connector-curvature="0" />
      <path
         style="fill:#000000;fill-opacity:1;stroke-width:0.45704398"
         clip-path="none"
         d="m 115.3685,82.597346 c -4.59159,3.579015 -7.83863,8.865645 -11.86476,13.146865 -2.23146,4.329689 -5.117726,3.130322 -7.271744,-0.573586 -4.03955,-3.98509 -6.818304,-10.02802 -11.855702,-12.521365 -3.887945,2.879083 -2.99108,9.578062 0.05121,12.970871 2.625318,4.725289 9.557135,4.917829 12.389753,8.221379 -3.493963,4.40572 -8.687162,4.86818 -13.676138,6.60313 -7.372773,3.25522 -6.044771,14.13249 1.380004,16.39368 6.260428,2.56415 15.339372,-1.38394 14.909245,-8.9454 -0.794859,-3.66154 -3.659618,-8.21308 0.815962,-10.57682 6.23084,3.60554 -0.531602,8.86507 1.6851,13.82446 3.24141,8.78531 17.52619,8.37815 20.55335,-0.39227 2.5231,-6.46857 -4.8741,-12.18187 -10.87273,-11.86735 -2.96935,-0.82508 -7.04708,-2.94831 -8.02236,-5.86649 5.14594,-2.0101 11.00118,-4.152961 13.61623,-9.486255 1.66294,-3.10537 2.37455,-9.573383 -1.83742,-10.930849 z M 100.19244,101.7243 c 3.9322,1.81953 -3.670072,1.66659 0,0 z m -11.615161,10.98553 c 6.519488,-0.64682 8.93838,9.10567 2.276621,10.80242 -5.128801,2.08947 -11.945203,-4.80061 -6.529218,-8.98638 1.164524,-1.03944 2.663549,-1.8022 4.252597,-1.81604 z m 23.667781,0 c 5.7357,-0.85925 9.0021,7.72322 3.49104,10.31401 -4.85177,3.42742 -12.70295,-2.36272 -8.97712,-7.71816 1.45538,-1.54464 3.22251,-2.91016 5.48608,-2.59585 z"
         id="path53795"
         inkscape:connector-curvature="0" />
    </g>
  </g>
</svg>
