<?xml version="1.0" encoding="UTF-8" standalone="no"?>
<!-- Created with Inkscape (http://www.inkscape.org/) -->

<svg
   xmlns:dc="http://purl.org/dc/elements/1.1/"
   xmlns:cc="http://creativecommons.org/ns#"
   xmlns:rdf="http://www.w3.org/1999/02/22-rdf-syntax-ns#"
   xmlns:svg="http://www.w3.org/2000/svg"
   xmlns="http://www.w3.org/2000/svg"
   xmlns:sodipodi="http://sodipodi.sourceforge.net/DTD/sodipodi-0.dtd"
   xmlns:inkscape="http://www.inkscape.org/namespaces/inkscape"
   width="150mm"
   height="150mm"
   viewBox="0 0 150 150"
   version="1.1"
   id="svg922"
   inkscape:version="0.92.4 (5da689c313, 2019-01-14)"
   sodipodi:docname="USO_GRAPHICS_synfig_studio.svg">
  <defs
     id="defs916">
    <clipPath
       clipPathUnits="userSpaceOnUse"
       id="clipPath1521">
      <rect
         style="opacity:0.875;fill:#000000;fill-opacity:1;stroke:#000000;stroke-width:0.60403091;stroke-linejoin:round;stroke-miterlimit:4;stroke-dasharray:none;stroke-opacity:1"
         id="rect1523"
         width="172.87534"
         height="151.42299"
         x="57.114269"
         y="66.644836" />
    </clipPath>
  </defs>
  <sodipodi:namedview
     id="base"
     pagecolor="#ffffff"
     bordercolor="#666666"
     borderopacity="1.0"
     inkscape:pageopacity="0.0"
     inkscape:pageshadow="2"
     inkscape:zoom="0.41027778"
     inkscape:cx="259.22079"
     inkscape:cy="110.52992"
     inkscape:document-units="mm"
     inkscape:current-layer="layer1"
     showgrid="false"
     inkscape:window-width="1262"
     inkscape:window-height="792"
     inkscape:window-x="2221"
     inkscape:window-y="124"
     inkscape:window-maximized="0" />
  <metadata
     id="metadata919">
    <rdf:RDF>
      <cc:Work
         rdf:about="">
        <dc:format>image/svg+xml</dc:format>
        <dc:type
           rdf:resource="http://purl.org/dc/dcmitype/StillImage" />
        <dc:title></dc:title>
      </cc:Work>
    </rdf:RDF>
  </metadata>
  <g
     inkscape:label="Layer 1"
     inkscape:groupmode="layer"
     id="layer1"
     transform="translate(-35.425468,-2.2678798)">
    <g
       id="g19411"
       transform="translate(8.4279941,-36.195259)">
      <path
         style="opacity:0.875;fill:#999999;fill-opacity:1;stroke:none;stroke-width:0.40600324;stroke-linejoin:round;stroke-miterlimit:4;stroke-dasharray:none;stroke-opacity:0.97175137"
         d="m 40.541649,79.335309 c 4.132647,-2.879859 9.751769,-2.413278 14.58294,-3.21176 27.840639,-2.044923 55.827121,-1.782311 83.687971,-0.23939 8.44978,0.729291 17.10358,0.925502 25.25914,3.45115 2.84038,5.409997 2.65096,11.873441 3.36881,17.839295 0.82417,14.162196 1.31119,28.565636 -1.46937,42.549666 -0.41934,5.71762 -6.02423,8.04253 -11.01184,8.61505 -20.19657,3.03328 -40.70475,2.906 -61.081918,3.01564 -17.041409,-0.24022 -34.168681,-0.19989 -51.090555,-2.42806 -6.472855,-0.76422 -4.229449,-9.70709 -5.525019,-14.2761 -1.050395,-16.30828 -1.537946,-32.80636 0.773143,-49.027833 0.528995,-2.131985 0.698082,-4.796009 2.506698,-6.287658 z"
         id="rect49496"
         inkscape:connector-curvature="0" />
      <path
         style="fill:#000000;stroke-width:1.26563919"
         d="m 41.515717,150.96879 c -5.711702,-2.05781 -5.238774,-9.06062 -5.717979,-14.02153 -0.436585,-15.75811 -0.553309,-31.54812 0.0015,-47.303521 -0.436441,-5.625053 3.875375,-9.795276 8.669277,-11.866878 6.455445,-3.192618 13.930493,-1.944564 20.884436,-2.520022 25.785183,-0.429233 51.579629,-0.472642 77.366519,-0.289685 7.22043,0.480561 15.26629,-0.05239 21.48077,4.264067 5.34492,4.83908 4.20747,12.821592 4.36759,19.341185 -0.60054,14.045514 0.0527,28.160374 -1.30449,42.160284 -0.93746,5.8118 -7.04218,9.14968 -12.25933,10.45193 -21.14906,1.35016 -42.37134,0.99396 -63.555869,1.08326 -16.415858,-0.19492 -32.872923,0.0952 -49.250499,-1.14372 l -0.681877,-0.15538 z m 116.461643,-3.64957 c 5.89794,-2.48774 7.14588,-9.3942 7.37251,-15.08897 0.55887,-13.34277 0.79145,-26.75998 -0.26771,-40.08197 -0.22661,-5.235691 -2.71782,-10.65847 -7.89603,-12.600489 -6.52228,-2.878882 -13.9327,-1.775744 -20.87126,-2.228431 -26.98361,-0.0728 -53.980521,-0.420882 -80.955472,0.372513 -5.686102,0.154822 -13.059572,1.026894 -15.561912,6.984748 -2.261649,8.967295 -1.276409,18.362109 -1.558615,27.527999 0.269809,9.99414 -0.711559,20.17732 1.414706,30.00948 2.112716,6.2884 9.661191,6.94096 15.292543,7.2837 27.426906,1.45354 54.91187,0.54809 82.35657,0.11392 6.86318,-0.50478 14.19529,0.36585 20.67467,-2.2925 z M 49.882052,144.89229 c -3.177542,0.0711 -8.355599,-7.29975 -2.439293,-3.05152 5.691698,3.40971 12.738389,2.05204 19.052805,2.52335 2.829236,0.33382 11.00279,-0.49673 11.167062,0.83313 -9.090656,1.49246 -18.786591,1.94553 -27.780574,-0.30496 z M 154.67692,85.873908 c -5.00297,-2.688572 -11.10143,-1.384211 -16.58281,-1.86289 -3.93588,-0.355548 -13.5043,-0.06474 -14.58274,-1.74698 9.37487,-0.304485 18.90303,-0.887454 28.18216,0.794039 3.27525,-1.122296 7.81354,7.281155 2.98339,2.815831 z"
         id="path49494"
         inkscape:connector-curvature="0" />
      <path
         style="font-style:normal;font-variant:normal;font-weight:normal;font-stretch:normal;font-size:16.97093201px;font-family:Insaniburger;-inkscape-font-specification:Insaniburger;opacity:1;vector-effect:none;fill:#000000;fill-opacity:1;stroke:none;stroke-width:0.19887809;stroke-linecap:butt;stroke-linejoin:miter;stroke-miterlimit:4;stroke-dasharray:none;stroke-dashoffset:0;stroke-opacity:1"
         d="m 55.900175,141.06888 c -3.010664,1.85982 -6.056205,-5.46963 -1.798825,-3.56331 4.687279,1.54707 1.266645,-2.51298 -1.082965,-3.15413 -3.937305,-5.82892 7.229818,-9.18238 5.524962,-2.88292 -1.239752,-0.1631 -5.511254,-0.87109 -2.514684,1.51043 4.280629,0.33841 4.175874,8.16442 -0.128488,8.08993 z m 8.516887,-8.64173 c 0.821091,-3.51803 6.255602,-5.60846 3.921452,-0.25688 -0.949082,2.02772 -3.00066,3.57892 -2.497076,6.23451 0.101595,4.84481 -4.180498,1.76352 -2.907489,-1.78328 -0.683029,-2.60332 -3.701263,-4.48081 -2.907488,-7.5145 1.976063,-2.17477 3.298741,1.8047 4.390601,3.32015 z m 11.29956,1.60863 c -0.362682,-2.48635 0.109696,-7.82238 2.81663,-4.71483 0.149181,3.57765 0.150136,7.2175 0,10.79514 -2.082869,2.73384 -3.749361,-1.82315 -5.100807,-3.52242 -1.67011,-3.00363 -0.129304,2.97883 -1.16296,4.03097 -3.198199,1.90548 -2.521635,-3.35706 -2.544052,-5.74228 0.206776,-2.34231 -0.953119,-7.41156 2.254038,-6.28974 1.392495,1.61794 2.478905,3.65233 3.737151,5.44316 z m 6.549192,5.36836 c -0.609594,-3.1386 0.573227,-3.3882 2.624817,-3.59137 1.757114,-4.13357 -3.708313,-0.94254 -2.624817,-4.4331 2.480577,1.45476 4.803101,-3.1938 1.251301,-2.9741 -1.985566,-0.25416 -4.911792,-0.20302 -4.15879,3.36648 0.184237,2.92959 -0.402917,6.11504 0.363436,8.85726 0.831471,0.79805 2.665795,0.48624 2.544053,-1.22517 z m 6.842881,0 c -1.734791,4.37231 -3.708921,-1.022 -2.907493,-3.82613 0.303759,-2.30704 -0.737144,-5.49184 0.817732,-7.07073 3.081137,-0.75861 1.841859,4.09279 2.089761,6.39523 0,1.50054 0,3.00108 0,4.50163 z m 8.803231,-6.11655 c -2.293924,-1.35101 -5.436034,2.72098 -1.747432,3.14244 -2.564907,5.64884 -6.1037,-7.36852 -0.231279,-4.97788 3.736138,3.06915 3.512611,-4.28167 -0.238165,-3.36925 -7.14061,-1.97674 -8.11296,13.65509 -0.800747,13.0608 3.806914,1.29091 5.270427,-4.68438 3.512301,-7.74973 z m 9.456674,7.78129 c -3.01066,1.85982 -6.0562,-5.46963 -1.79882,-3.56331 4.68728,1.54707 1.26664,-2.51298 -1.08296,-3.15413 -3.93731,-5.82892 7.22981,-9.18238 5.52495,-2.88292 -1.23974,-0.1631 -5.51125,-0.87109 -2.51468,1.51043 4.28063,0.33841 4.17588,8.16442 -0.12849,8.08993 z m 9.38326,-9.68921 c -0.20392,3.05905 0.43229,6.39532 -0.36344,9.26367 -3.19819,1.90548 -2.52163,-3.35706 -2.54405,-5.74228 0.40058,-2.85338 -0.107,-3.95243 -2.34948,-3.89316 -1.22608,-3.64605 2.80479,-2.40243 4.43085,-2.60233 2.23655,-1.34111 5.3659,2.57109 1.76311,2.9741 -0.31233,0 -0.62466,0 -0.93699,0 z m 11.09398,6.22878 c -0.32955,5.245 -8.61811,4.58856 -7.81204,-1.04349 0.17734,-2.56285 -0.39296,-5.3768 0.36344,-7.75256 3.19819,-1.90549 2.52163,3.35706 2.54405,5.74228 -1.11673,3.43026 2.68639,4.81474 1.99706,0.77218 0.30322,-2.22448 -0.73832,-5.32308 0.81773,-6.81958 3.08114,-0.75861 1.84187,4.09279 2.08976,6.39523 0,0.90197 0,1.80395 0,2.70594 z m 5.13951,3.42302 c -1.84656,0.044 -5.07933,0.6184 -4.40529,-3.01866 0.18723,-3.04314 -0.4073,-6.34539 0.36343,-9.20041 2.52136,-0.86913 6.41765,-0.93338 7.38987,3.01619 1.17989,3.42493 0.0113,8.84114 -3.34801,9.20288 z m 1.10866,-6.42518 c -0.2809,-5.31307 -3.79527,-3.88536 -2.60647,0.51711 -1.08417,4.9098 2.65022,3.92153 2.60647,-0.51711 z m 6.22614,4.79785 c -1.73479,4.37231 -3.70892,-1.022 -2.90749,-3.82613 0.30375,-2.30704 -0.73714,-5.49184 0.81773,-7.07073 3.08114,-0.75861 1.84186,4.09279 2.08976,6.39523 0,1.50054 0,3.00108 0,4.50163 z m 11.12334,-4.8072 c 0.50087,8.12037 -10.28478,8.84961 -10.47621,0.71444 -1.16183,-8.07603 9.47328,-10.17893 10.38444,-2.10855 l 0.0688,0.67966 z m -3.48017,-2.34748 c -5.19018,-4.8844 -5.20794,9.56583 -0.007,4.67625 0.90002,-1.25492 0.89888,-3.41547 0.007,-4.67625 z"
         id="text49550"
         inkscape:connector-curvature="0" />
      <g
         transform="matrix(0.62550222,0,0,0.60298415,137.31195,29.870051)"
         id="g16798">
        <path
           style="fill:#000005;fill-opacity:1;stroke-width:0.55967355"
           d="m -63.356338,86.683079 c -9.874279,0.20633 -22.300301,5.195348 -24.289917,16.007321 -2.168816,9.38617 16.582128,14.56277 5.927037,22.9884 -8.68926,4.95773 -6.835656,17.53827 1.28174,22.04121 13.85988,10.19372 34.882883,4.74141 43.568825,-9.64199 6.307492,-7.01342 3.09489,-17.89267 10.641114,-23.97674 2.463966,-4.7998 12.829179,-12.1707 8.877144,-16.855161 -7.599313,2.298305 -15.91087,17.073671 -19.946359,3.532341 -5.850096,-8.400878 -15.747732,-14.032593 -26.059584,-14.095381 z m 4.560445,10.802959 c 10.122006,2.812302 -4.753004,12.779612 -3.261741,2.35473 0.483508,-1.363419 1.866321,-2.234835 3.261741,-2.35473 z m -15.621785,4.598682 c 9.863404,3.00815 -4.865571,12.47548 -3.548232,2.5642 0.798309,-1.21437 1.947566,-2.55665 3.548232,-2.5642 z m 29.046288,5.08238 c 9.734204,2.80242 -4.411794,12.63796 -3.446785,2.33949 0.664422,-1.26017 1.929537,-2.39177 3.446785,-2.33949 z m -27.491861,24.95558 c 10.430142,2.81043 -4.670502,12.59468 -3.479806,2.47791 0.773822,-1.21256 1.97216,-2.34358 3.479806,-2.47791 z"
           id="path59299"
           inkscape:connector-curvature="0" />
        <path
           style="fill:#ffffff;fill-opacity:1;stroke:#ffffff;stroke-width:0.55967355;stroke-opacity:1"
           d="m -52.62579,142.87503 c 10.625922,-2.16342 4.562437,-18.88424 -3.99139,-12.36609 -2.70081,5.20001 -9.954547,16.49376 3.99139,12.36609 z"
           id="path59283"
           inkscape:connector-curvature="0" />
        <path
           style="fill:#ffffff;fill-opacity:1;stroke-width:0.55967355"
           d="m -37.66806,124.75342 c 6.420327,-7.65525 13.607006,-14.90345 18.556655,-23.61723 -6.79331,1.55739 -13.197892,10.39767 -19.460998,15.03705 -3.860137,4.3562 -16.596761,11.21145 -6.238257,15.83028 2.683022,-2.08016 4.82603,-4.78751 7.1426,-7.2501 z"
           id="path59281"
           inkscape:connector-curvature="0" />
      </g>
    </g>
  </g>
</svg>
