<?xml version="1.0" encoding="UTF-8" standalone="no"?>
<!-- Created with Inkscape (http://www.inkscape.org/) -->

<svg
   xmlns:dc="http://purl.org/dc/elements/1.1/"
   xmlns:cc="http://creativecommons.org/ns#"
   xmlns:rdf="http://www.w3.org/1999/02/22-rdf-syntax-ns#"
   xmlns:svg="http://www.w3.org/2000/svg"
   xmlns="http://www.w3.org/2000/svg"
   xmlns:sodipodi="http://sodipodi.sourceforge.net/DTD/sodipodi-0.dtd"
   xmlns:inkscape="http://www.inkscape.org/namespaces/inkscape"
   width="150"
   height="150"
   viewBox="0 0 39.6875 39.6875"
   version="1.1"
   id="svg922"
   inkscape:version="0.92.4 (5da689c313, 2019-01-14)"
   sodipodi:docname="USO_XFCE_DE.svg">
  <defs
     id="defs916">
    <clipPath
       clipPathUnits="userSpaceOnUse"
       id="clipPath1521">
      <rect
         style="opacity:0.875;fill:#000000;fill-opacity:1;stroke:#000000;stroke-width:0.60403091;stroke-linejoin:round;stroke-miterlimit:4;stroke-dasharray:none;stroke-opacity:1"
         id="rect1523"
         width="172.87534"
         height="151.42299"
         x="57.114269"
         y="66.644836" />
    </clipPath>
  </defs>
  <sodipodi:namedview
     id="base"
     pagecolor="#ffffff"
     bordercolor="#666666"
     borderopacity="1.0"
     inkscape:pageopacity="0.0"
     inkscape:pageshadow="2"
     inkscape:zoom="2.1982252"
     inkscape:cx="88.315584"
     inkscape:cy="82.481032"
     inkscape:document-units="px"
     inkscape:current-layer="layer1"
     showgrid="false"
     inkscape:window-width="1063"
     inkscape:window-height="567"
     inkscape:window-x="2142"
     inkscape:window-y="76"
     inkscape:window-maximized="0"
     units="px" />
  <metadata
     id="metadata919">
    <rdf:RDF>
      <cc:Work
         rdf:about="">
        <dc:format>image/svg+xml</dc:format>
        <dc:type
           rdf:resource="http://purl.org/dc/dcmitype/StillImage" />
        <dc:title></dc:title>
      </cc:Work>
    </rdf:RDF>
  </metadata>
  <g
     inkscape:label="Layer 1"
     inkscape:groupmode="layer"
     id="layer1"
     transform="translate(-35.46637,-112.59198)">
    <g
       id="g6009"
       transform="matrix(0.29126363,0,0,0.28659961,23.145454,110.29333)">
      <path
         style="opacity:0.875;fill:#999999;fill-opacity:1;stroke:none;stroke-width:0.40600324;stroke-linejoin:round;stroke-miterlimit:4;stroke-dasharray:none;stroke-opacity:0.97175137"
         d="m 48.975627,43.131167 c 4.132647,-2.879859 9.751769,-2.413278 14.58294,-3.21176 27.84064,-2.044923 55.827123,-1.782311 83.687973,-0.23939 8.44978,0.729291 17.10358,0.925502 25.25914,3.45115 2.84038,5.409997 2.65096,11.873441 3.36881,17.839296 0.82417,14.162191 1.31119,28.56564 -1.46937,42.549657 -0.41934,5.71763 -6.02423,8.04254 -11.01184,8.61506 -20.19657,3.03328 -40.70476,2.906 -61.08192,3.01564 -17.041408,-0.24022 -34.168681,-0.19989 -51.090554,-2.42806 -6.472856,-0.76422 -4.22945,-9.70709 -5.52502,-14.276103 -1.050395,-16.308282 -1.537946,-32.80636 0.773143,-49.027832 0.528995,-2.131984 0.698082,-4.796009 2.506698,-6.287658 z"
         id="rect49496"
         inkscape:connector-curvature="0" />
      <path
         style="font-style:normal;font-variant:normal;font-weight:normal;font-stretch:normal;font-size:16.97093201px;font-family:Insaniburger;-inkscape-font-specification:Insaniburger;opacity:1;vector-effect:none;fill:#000000;fill-opacity:1;stroke:none;stroke-width:0.19887809;stroke-linecap:butt;stroke-linejoin:miter;stroke-miterlimit:4;stroke-dasharray:none;stroke-dashoffset:0;stroke-opacity:1"
         d="m 100.69398,98.598553 c 0.87689,1.818507 3.81,3.413987 2.56976,5.761147 -2.22707,2.41685 -3.385054,-3.75005 -4.881448,-2.78439 -0.83151,2.40281 -5.062477,5.1573 -4.266869,0.68943 0.592318,-1.56465 3.665407,-3.109447 1.964394,-4.692436 -2.024334,-1.343531 -3.318253,-6.761416 0.282297,-4.847134 1.104265,0.927761 2.208529,4.921908 3.312785,2.062316 0.719871,-3.13925 5.538441,-3.110207 3.365831,0.563208 -0.78225,1.08262 -1.5645,2.165239 -2.34675,3.247859 z m 6.54185,4.601437 c -0.60959,-3.13859 0.57323,-3.388186 2.62482,-3.591366 1.75711,-4.133559 -3.70831,-0.942527 -2.62482,-4.433094 2.48058,1.454762 4.8031,-3.1938 1.2513,-2.974101 -1.98557,-0.254159 -4.91179,-0.20302 -4.15879,3.366483 0.18424,2.929588 -0.40291,6.115038 0.36344,8.857258 0.83147,0.79805 2.66579,0.48624 2.54405,-1.22518 z m 13.0323,-0.63597 c -3.01292,6.16649 -11.53085,-0.12357 -8.83994,-6.820324 0.31074,-5.786554 11.46449,-4.70229 7.70926,0.198741 -4.27079,-4.374956 -7.88959,6.063543 -2.13289,5.602163 1.14808,-0.57181 3.18772,-1.52245 3.26357,1.01942 z m 5.7122,2.26331 c 3.64275,-2.73971 -2.11046,-2.40321 -2.07049,-4.01759 0.29509,-1.040591 5.18996,-1.565352 1.7768,-3.819821 -2.22908,1.177224 -2.47877,-2.885061 -0.13843,-1.814389 3.49754,-0.752984 0.10283,-4.220938 -2.02543,-2.974101 -2.88127,-0.91098 -2.6346,2.998508 -2.52043,5.453454 0.30376,2.307044 -0.73714,5.491847 0.81773,7.070737 1.37578,0.20926 2.77594,0.054 4.16025,0.10171 z"
         id="text49550"
         inkscape:connector-curvature="0" />
      <path
         style="fill:#000000;stroke-width:1.26563919"
         d="m 49.949695,114.76465 c -5.711702,-2.05781 -5.238774,-9.06063 -5.717979,-14.02153 -0.436585,-15.758108 -0.553309,-31.54812 0.0015,-47.303523 -0.436441,-5.625053 3.875375,-9.795276 8.669277,-11.866878 6.455445,-3.192618 13.930493,-1.944564 20.884437,-2.520022 25.785183,-0.429233 51.57963,-0.472642 77.36652,-0.289685 7.22043,0.480561 15.26629,-0.05239 21.48077,4.264067 5.34492,4.83908 4.20747,12.821592 4.36759,19.341185 -0.60054,14.045514 0.0527,28.160375 -1.30449,42.160286 -0.93746,5.8118 -7.04218,9.14968 -12.25933,10.45193 -21.14906,1.35016 -42.37134,0.99396 -63.55587,1.08326 -16.415859,-0.19492 -32.872924,0.0952 -49.2505,-1.14372 l -0.681877,-0.15538 z m 116.461645,-3.64957 c 5.89794,-2.48774 7.14588,-9.3942 7.37251,-15.088974 0.55887,-13.342771 0.79145,-26.759979 -0.26771,-40.081968 -0.22661,-5.235691 -2.71782,-10.65847 -7.89603,-12.600489 -6.52228,-2.878882 -13.9327,-1.775744 -20.87126,-2.228431 -26.98361,-0.0728 -53.980522,-0.420882 -80.955473,0.372513 -5.686102,0.154822 -13.059573,1.026894 -15.561913,6.984748 -2.261649,8.967295 -1.276409,18.362106 -1.558615,27.528003 0.269809,9.994134 -0.711559,20.177315 1.414706,30.009478 2.112716,6.2884 9.661191,6.94096 15.292543,7.2837 27.426906,1.45354 54.911872,0.54809 82.356572,0.11392 6.86318,-0.50478 14.19529,0.36585 20.67467,-2.2925 z M 58.31603,108.68815 c -3.177542,0.0711 -8.355599,-7.29975 -2.439293,-3.05152 5.691698,3.40971 12.738389,2.05204 19.052805,2.52335 2.829236,0.33382 11.00279,-0.49673 11.167062,0.83313 -9.090656,1.49246 -18.786591,1.94553 -27.780574,-0.30496 z M 163.1109,49.669766 c -5.00297,-2.688572 -11.10143,-1.384211 -16.58281,-1.86289 -3.93588,-0.355548 -13.5043,-0.06474 -14.58274,-1.74698 9.37487,-0.304485 18.90303,-0.887454 28.18216,0.794039 3.27525,-1.122296 7.81354,7.281155 2.98339,2.815831 z"
         id="path49494"
         inkscape:connector-curvature="0" />
      <path
         style="opacity:0.875;fill:#ffffff;fill-opacity:1;stroke:#000000;stroke-width:0.40002635;stroke-linejoin:round;stroke-miterlimit:4;stroke-dasharray:none;stroke-opacity:1"
         d="m 83.356583,50.611084 c 17.749317,0 35.498627,0 53.247947,0 0,11.291681 0,22.583361 0,33.875042 -17.74932,0 -35.49863,0 -53.247947,0 0,-11.291681 0,-22.583361 0,-33.875042 z"
         id="rect4150"
         inkscape:connector-curvature="0" />
      <path
         style="fill:#000000;stroke-width:0.13122383"
         d="m 84.581389,89.600603 c -4.229287,-1.774497 -1.932299,-4.599362 1.417736,-3.474873 17.100595,0 34.201185,0 51.301775,0 0.51866,2.956817 -2.50334,4.046382 -4.85294,3.532046 -15.95538,-0.01028 -31.91198,0.0856 -47.866571,-0.05717 z M 82.300896,68.535602 c 0.08919,-5.720141 -0.184118,-11.463124 0.20834,-17.168818 4.134872,-3.370924 10.734188,-0.945583 15.918118,-1.688735 12.394996,0.12585 24.820866,-0.268329 37.196716,0.235388 3.51965,4.286465 0.76849,11.278213 1.67666,16.624493 3.7e-4,6.229748 8e-5,12.459497 1.7e-4,18.689245 -18.33333,0 -36.66667,0 -55.000004,0 0,-5.563858 0,-11.127715 0,-16.691573 z m 24.159874,13.978443 c 3.40439,-4.063227 0.71362,-11.009537 1.59622,-16.174441 -0.94949,-4.306362 1.99507,-10.967233 -1.85085,-13.78256 -6.483415,-0.0072 -12.967822,-0.106768 -19.450537,0.0034 -3.912552,3.323245 -0.970775,10.241536 -1.905924,15.037329 1.222513,4.565129 -2.619409,12.90627 2.528658,14.953123 6.35726,0.111482 12.728613,0.208216 19.082433,-0.03682 z M 86.306611,81.38759 c -0.751851,-1.512692 -0.109327,-3.711544 -0.332284,-5.4845 -0.01851,-6.219829 -0.03703,-12.439657 -0.05554,-18.659486 7.067771,0 14.135543,0 21.203313,0 -0.0237,7.923268 -0.0475,15.846536 -0.0712,23.769804 -1.60088,1.312033 -4.03421,0.302619 -5.99193,0.619547 -4.911067,-0.09512 -9.890077,0.251687 -14.752359,-0.245365 z m 8.137113,-1.49654 c 4.786641,-5.238222 -9.95175,-5.122649 -4.889583,0.07316 1.629657,-0.01454 3.262612,0.0386 4.889583,-0.07316 z m -4.664166,-0.964042 c -1.794277,-4.194123 8.657142,-0.882875 2.897728,0.124913 -0.965713,1.51e-4 -1.942013,0.04729 -2.897728,-0.124913 z m 13.854302,0.818454 c 4.15109,-5.232894 -9.726072,-4.936763 -5.241145,0.07841 1.725895,0.09893 3.549085,0.347305 5.241145,-0.07841 z m -4.940277,-0.833844 c -1.529592,-4.300142 8.744617,-0.730017 2.902157,0.150925 -0.96685,-0.0071 -1.949507,0.05486 -2.902157,-0.150925 z m 5.500607,-4.728969 c 3.05949,-2.885381 0.16201,-7.947468 -4.301082,-6.028904 -3.71184,0.962844 -11.221759,-2.317458 -12.21956,2.353195 -1.110079,6.273676 7.152059,2.987304 10.810449,3.794637 1.903013,-0.02317 3.811083,0.01525 5.710193,-0.118928 z M 88.907607,73.28523 c -2.710331,-6.366229 5.698647,-3.696022 9.241588,-4.2299 3.466165,-1.173975 8.938085,0.992202 5.165915,4.284361 -4.79969,0.08015 -9.61136,0.147048 -14.407503,-0.05446 z m 7.185292,-7.083686 c -1.69476,-1.502679 -12.763367,0.334063 -5.42022,0.391505 1.572476,-0.296495 4.382888,0.474281 5.42022,-0.391505 z m 8.522051,0.149092 c 1.73692,-3.490599 0.81438,-9.236896 -4.44619,-7.305883 -4.072971,-0.873848 -3.272537,4.986821 -2.472431,7.195147 1.964497,0.809927 4.801461,0.290605 6.918621,0.110736 z m -6.321217,-0.786507 c -1.576829,-4.587561 1.022199,-6.441629 5.163067,-5.568662 1.4779,0.312337 0.23505,3.311881 0.64285,4.681122 0.47638,2.153042 -4.785689,0.431789 -5.805917,0.88754 z m -3.827028,-2.497362 c -0.979631,-1.70424 -10.485196,-0.01745 -4.361613,0.208623 1.4328,-0.102325 2.973321,0.213744 4.361613,-0.208623 z m 1.439001,-2.911343 c 0.0049,-1.493017 -11.690001,-0.646353 -6.366523,0.153335 2.11915,-0.02461 4.262977,0.146809 6.366523,-0.153335 z m -9.982858,-4.954247 c -0.103521,-3.009184 3.596034,-1.409118 5.448255,-1.80852 5.10597,0.148074 10.379817,-0.401017 15.352127,0.383209 1.89884,3.086525 -1.27422,2.679705 -3.30349,2.569185 -5.832297,0 -11.664594,0 -17.496892,0 0,-0.381291 0,-0.762583 0,-1.143874 z m 30.288212,27.192364 c 2.72583,-3.228998 -0.0662,-7.245498 -4.1724,-5.76682 -2.00977,0.748774 -1.34756,4.437696 -0.40208,5.71722 1.48375,0.339668 3.07128,0.191527 4.57448,0.0496 z m -4.23698,-0.914623 c -2.33211,-3.445233 3.32874,-5.568761 4.08522,-2.965136 0.83352,3.362802 -1.25509,3.537549 -4.08522,2.965136 z m 13.28507,0.678332 c 0.71543,-1.265922 0.82074,-3.8126 0.0581,-5.085396 -2.46581,-1.333371 -7.33969,-0.554427 -5.78318,3.566624 -0.19727,2.722412 4.21647,2.106424 5.72507,1.518772 z m -4.55886,-0.670128 c -2.91155,-6.459238 7.83817,-3.882964 3.23522,0.07979 -1.07441,0.03697 -2.17181,0.120745 -3.23522,-0.07979 z m 12.98305,0.849668 c 2.66107,-3.356327 -0.22296,-7.094066 -4.24123,-5.710069 -2.16523,0.814846 -1.92503,6.921585 1.347,5.904789 0.9657,-0.02207 1.95432,0.08179 2.89423,-0.19472 z m -4.4265,-0.952126 c -2.77554,-5.202358 6.9683,-5.347456 4.1491,0 -1.21107,0.421672 -2.93486,0.422205 -4.1491,0 z m -13.09011,-6.993609 c 4.01268,-3.695135 -2.55592,-8.864864 -5.22216,-4.513344 -1.01064,4.433061 1.25441,5.365864 5.22216,4.513344 z m -4.14283,-0.918446 c -2.95604,-5.07011 6.39951,-5.714057 4.04143,-0.332006 -0.73404,0.945922 -2.92414,0.522636 -4.04143,0.332006 z m 12.88764,0.890417 c 3.92663,-3.754621 -2.63903,-8.777946 -5.25426,-4.505239 -1.0142,4.534109 1.21317,5.387742 5.25426,4.505239 z m -4.14418,-0.827348 c -3.09735,-4.946931 6.22857,-5.912977 4.01681,-0.573345 -0.44474,1.37087 -2.89719,0.507861 -4.01681,0.573345 z m 12.68114,0.86237 c 1.35665,-1.015611 1.93491,-6.027822 -0.83317,-5.794141 -1.50585,0.2025 -4.26981,-0.780141 -4.38134,1.454856 -0.75969,4.229302 1.25148,5.124712 5.21451,4.339285 z m -4.10851,-0.958468 c -2.95025,-6.241264 8.04199,-4.215767 3.29896,0.213458 -1.08449,-0.04998 -2.2813,0.242453 -3.29896,-0.213458 z m -13.06148,-7.092997 c 2.58144,-3.382813 -0.15905,-7.169987 -4.24201,-5.765486 -2.06299,0.669664 -0.83283,3.381819 -1.16242,5.031907 1.19849,1.712661 3.66195,0.535852 5.40443,0.733579 z m -4.30443,-0.91329 c -2.77594,-6.312252 7.73716,-3.986766 3.28732,0.120527 -1.09252,0.03867 -2.21126,0.120219 -3.28732,-0.120527 z m 13.33414,0.616154 c 0.80165,-1.247349 0.7001,-3.763512 0.0108,-5.021607 -1.25399,-1.021954 -3.26491,-0.158047 -4.81321,-0.446743 -1.71305,1.07542 -0.59415,3.360578 -0.9122,5.031907 1.20022,1.667817 3.52059,0.544804 5.25854,0.872882 0.15203,-0.14548 0.30407,-0.290959 0.4561,-0.436439 z m -4.61464,-0.616154 c -2.7146,-6.250178 7.70272,-4.025589 3.28733,0.120527 -1.09252,0.03867 -2.21127,0.120219 -3.28733,-0.120527 z m 12.9095,0.92743 c 4.00104,-3.867303 -2.78817,-8.55155 -5.35136,-4.477381 -1.26387,4.446438 1.62208,5.245423 5.35136,4.477381 z m -4.34624,-1.021684 c -2.90814,-5.873106 7.75313,-4.626957 3.7302,0.209598 -1.21218,-0.06119 -2.60867,0.323164 -3.7302,-0.209598 z m -13.01839,-7.003595 c 3.85458,-3.80121 -2.63757,-8.800507 -5.29214,-4.497654 -1.2329,4.346571 1.48856,5.495384 5.29214,4.497654 z m -4.21455,-0.90846 c -2.95016,-6.377762 8.02834,-4.072398 3.14681,0.162682 -1.03873,-0.0056 -2.15186,0.208595 -3.14681,-0.162682 z m 12.86386,0.91784 c 3.96964,-3.720344 -2.59608,-8.831658 -5.23052,-4.533317 -1.00456,4.541173 1.18451,5.347058 5.23052,4.533317 z m -4.19418,-0.87016 c -2.8422,-5.105386 6.39763,-5.786681 4.09125,-0.379684 -0.67832,1.002427 -2.98087,0.42334 -4.09125,0.379684 z m 13.28499,0.568753 c 1.77157,-3.088542 -0.49563,-7.204669 -4.61389,-5.446372 -3.55569,3.119792 0.14133,7.380175 4.17571,5.866016 l 0.22258,-0.213162 z m -4.63858,-0.649466 c -2.94412,-6.276019 7.95879,-4.116278 3.29727,0.213275 -1.08394,-0.04972 -2.28016,0.242585 -3.29727,-0.213275 z"
         id="path4148"
         inkscape:connector-curvature="0" />
    </g>
    <flowRoot
       xml:space="preserve"
       id="flowRoot5955"
       style="line-height:1.25;letter-spacing:0px;word-spacing:0px;opacity:1;vector-effect:none;fill:#000000;fill-opacity:1;stroke:none;stroke-width:1;stroke-linecap:butt;stroke-linejoin:miter;stroke-miterlimit:4;stroke-dasharray:none;stroke-dashoffset:0;stroke-opacity:1"><flowRegion
         id="flowRegion5957"><rect
           id="rect5959"
           width="851.02264"
           height="432.6886"
           x="-77.924965"
           y="105.53133" /></flowRegion><flowPara
         id="flowPara5961" /></flowRoot>    <flowRoot
       xml:space="preserve"
       id="flowRoot5995"
       style="line-height:1.25;letter-spacing:0px;word-spacing:0px;opacity:1;vector-effect:none;fill:#000000;fill-opacity:1;stroke:none;stroke-width:1;stroke-linecap:butt;stroke-linejoin:miter;stroke-miterlimit:4;stroke-dasharray:none;stroke-dashoffset:0;stroke-opacity:1"><flowRegion
         id="flowRegion5997"><rect
           id="rect5999"
           width="1017.1259"
           height="406.03006"
           x="-51.266422"
           y="80.923447" /></flowRegion><flowPara
         id="flowPara6001" /></flowRoot>  </g>
</svg>
