<?xml version="1.0" encoding="UTF-8" standalone="no"?>
<!-- Created with Inkscape (http://www.inkscape.org/) -->

<svg
   xmlns:dc="http://purl.org/dc/elements/1.1/"
   xmlns:cc="http://creativecommons.org/ns#"
   xmlns:rdf="http://www.w3.org/1999/02/22-rdf-syntax-ns#"
   xmlns:svg="http://www.w3.org/2000/svg"
   xmlns="http://www.w3.org/2000/svg"
   xmlns:sodipodi="http://sodipodi.sourceforge.net/DTD/sodipodi-0.dtd"
   xmlns:inkscape="http://www.inkscape.org/namespaces/inkscape"
   width="150mm"
   height="150mm"
   viewBox="0 0 150 150"
   version="1.1"
   id="svg922"
   inkscape:version="0.92.4 (5da689c313, 2019-01-14)"
   sodipodi:docname="USO_OFFICE_libreoffice.svg">
  <defs
     id="defs916">
    <clipPath
       clipPathUnits="userSpaceOnUse"
       id="clipPath1521">
      <rect
         style="opacity:0.875;fill:#000000;fill-opacity:1;stroke:#000000;stroke-width:0.60403091;stroke-linejoin:round;stroke-miterlimit:4;stroke-dasharray:none;stroke-opacity:1"
         id="rect1523"
         width="172.87534"
         height="151.42299"
         x="57.114269"
         y="66.644836" />
    </clipPath>
  </defs>
  <sodipodi:namedview
     id="base"
     pagecolor="#ffffff"
     bordercolor="#666666"
     borderopacity="1.0"
     inkscape:pageopacity="0.0"
     inkscape:pageshadow="2"
     inkscape:zoom="0.43271484"
     inkscape:cx="49.908615"
     inkscape:cy="13.02481"
     inkscape:document-units="mm"
     inkscape:current-layer="layer1"
     showgrid="false"
     inkscape:window-width="1262"
     inkscape:window-height="792"
     inkscape:window-x="2101"
     inkscape:window-y="105"
     inkscape:window-maximized="0" />
  <metadata
     id="metadata919">
    <rdf:RDF>
      <cc:Work
         rdf:about="">
        <dc:format>image/svg+xml</dc:format>
        <dc:type
           rdf:resource="http://purl.org/dc/dcmitype/StillImage" />
        <dc:title></dc:title>
      </cc:Work>
    </rdf:RDF>
  </metadata>
  <g
     inkscape:label="Layer 1"
     inkscape:groupmode="layer"
     id="layer1"
     transform="translate(-35.46637,-2.279483)">
    <g
       id="g3122"
       transform="translate(8.4688971,-36.183656)">
      <path
         style="opacity:0.875;fill:#999999;fill-opacity:1;stroke:none;stroke-width:0.40600324;stroke-linejoin:round;stroke-miterlimit:4;stroke-dasharray:none;stroke-opacity:0.97175137"
         d="m 40.541649,79.335309 c 4.132647,-2.879859 9.751769,-2.413278 14.58294,-3.21176 27.840639,-2.044923 55.827121,-1.782311 83.687971,-0.23939 8.44978,0.729291 17.10358,0.925502 25.25914,3.45115 2.84038,5.409997 2.65096,11.873441 3.36881,17.839295 0.82417,14.162196 1.31119,28.565636 -1.46937,42.549666 -0.41934,5.71762 -6.02423,8.04253 -11.01184,8.61505 -20.19657,3.03328 -40.70475,2.906 -61.081918,3.01564 -17.041409,-0.24022 -34.168681,-0.19989 -51.090555,-2.42806 -6.472855,-0.76422 -4.229449,-9.70709 -5.525019,-14.2761 -1.050395,-16.30828 -1.537946,-32.80636 0.773143,-49.027833 0.528995,-2.131985 0.698082,-4.796009 2.506698,-6.287658 z"
         id="rect49496"
         inkscape:connector-curvature="0" />
      <path
         style="fill:#000000;stroke-width:1.26563919"
         d="m 41.515717,150.96879 c -5.711702,-2.05781 -5.238774,-9.06062 -5.717979,-14.02153 -0.436585,-15.75811 -0.553309,-31.54812 0.0015,-47.303521 -0.436441,-5.625053 3.875375,-9.795276 8.669277,-11.866878 6.455445,-3.192618 13.930493,-1.944564 20.884436,-2.520022 25.785183,-0.429233 51.579629,-0.472642 77.366519,-0.289685 7.22043,0.480561 15.26629,-0.05239 21.48077,4.264067 5.34492,4.83908 4.20747,12.821592 4.36759,19.341185 -0.60054,14.045514 0.0527,28.160374 -1.30449,42.160284 -0.93746,5.8118 -7.04218,9.14968 -12.25933,10.45193 -21.14906,1.35016 -42.37134,0.99396 -63.555869,1.08326 -16.415858,-0.19492 -32.872923,0.0952 -49.250499,-1.14372 l -0.681877,-0.15538 z m 116.461643,-3.64957 c 5.89794,-2.48774 7.14588,-9.3942 7.37251,-15.08897 0.55887,-13.34277 0.79145,-26.75998 -0.26771,-40.08197 -0.22661,-5.235691 -2.71782,-10.65847 -7.89603,-12.600489 -6.52228,-2.878882 -13.9327,-1.775744 -20.87126,-2.228431 -26.98361,-0.0728 -53.980521,-0.420882 -80.955472,0.372513 -5.686102,0.154822 -13.059572,1.026894 -15.561912,6.984748 -2.261649,8.967295 -1.276409,18.362109 -1.558615,27.527999 0.269809,9.99414 -0.711559,20.17732 1.414706,30.00948 2.112716,6.2884 9.661191,6.94096 15.292543,7.2837 27.426906,1.45354 54.91187,0.54809 82.35657,0.11392 6.86318,-0.50478 14.19529,0.36585 20.67467,-2.2925 z M 49.882052,144.89229 c -3.177542,0.0711 -8.355599,-7.29975 -2.439293,-3.05152 5.691698,3.40971 12.738389,2.05204 19.052805,2.52335 2.829236,0.33382 11.00279,-0.49673 11.167062,0.83313 -9.090656,1.49246 -18.786591,1.94553 -27.780574,-0.30496 z M 154.67692,85.873908 c -5.00297,-2.688572 -11.10143,-1.384211 -16.58281,-1.86289 -3.93588,-0.355548 -13.5043,-0.06474 -14.58274,-1.74698 9.37487,-0.304485 18.90303,-0.887454 28.18216,0.794039 3.27525,-1.122296 7.81354,7.281155 2.98339,2.815831 z"
         id="path49494"
         inkscape:connector-curvature="0" />
      <path
         style="font-style:normal;font-variant:normal;font-weight:normal;font-stretch:normal;font-size:16.97093201px;font-family:Insaniburger;-inkscape-font-specification:Insaniburger;opacity:1;vector-effect:none;fill:#000000;fill-opacity:1;stroke:none;stroke-width:0.19887809;stroke-linecap:butt;stroke-linejoin:miter;stroke-miterlimit:4;stroke-dasharray:none;stroke-dashoffset:0;stroke-opacity:1"
         d="m 64.005498,141.03147 c -1.717578,-0.41401 -5.014821,1.25303 -5.183553,-1.97517 0.05516,-3.24256 -0.113798,-6.50817 0.09086,-9.73535 2.785515,-3.13674 3.138729,2.37862 2.816631,4.8859 -0.02851,2.13142 -0.529026,4.86409 1.911427,3.85052 1.523827,-0.54398 1.796585,2.92505 0.364637,2.9741 z m 4.552129,-1.62733 c -1.734787,4.37231 -3.708918,-1.022 -2.907489,-3.82613 0.303759,-2.30704 -0.737144,-5.49184 0.817731,-7.07073 3.08114,-0.75861 1.841859,4.09279 2.089758,6.39523 0,1.50054 0,3.00108 0,4.50163 z m 8.472834,-2.11368 c 0.117758,4.5587 -3.893886,3.69715 -6.284876,3.74101 -2.476721,-0.4612 -1.092298,-4.58879 -1.453744,-6.84477 0.05525,-2.31743 -0.665482,-6.55616 2.272928,-5.78113 2.887392,-1.08283 7.270388,2.34913 3.909157,5.76115 0.961704,0.51674 1.608424,1.79042 1.556535,3.12374 z m -2.907489,-0.20576 c -0.878876,-4.13829 -3.470168,1.31034 -1.104459,1.36547 0.632622,0.12616 1.184803,-0.55722 1.104459,-1.36547 z m -0.205581,-4.91942 c -1.266236,-4.22274 -3.096616,2.9296 -0.231277,0.91187 l 0.173458,-0.37994 z m 9.83113,3.49784 c 2.506877,1.68549 1.462692,7.73002 -1.149668,4.04461 -0.894178,-1.28281 -2.504979,-5.30753 -2.036822,-1.37778 0.360008,4.53346 -4.173445,2.30021 -2.907489,-1.36062 0.178547,-2.6975 -0.39452,-5.64653 0.363436,-8.15693 2.000717,-0.50473 4.726405,-1.08919 6.40602,0.79029 1.282254,1.70579 1.022668,4.93828 -0.675477,6.06043 z m -3.18649,-4.71367 c -1.366296,3.54139 2.909727,3.85214 1.762114,0.36007 -0.49337,-0.52856 -1.176339,-0.31356 -1.762114,-0.36007 z m 10.565345,10.08202 c 3.642751,-2.7397 -2.110456,-2.4032 -2.070487,-4.01759 0.295091,-1.0406 5.189959,-1.56536 1.776804,-3.81982 -2.229085,1.17722 -2.478779,-2.88506 -0.138433,-1.81439 3.49754,-0.75298 0.102832,-4.22094 -2.025432,-2.9741 -2.881264,-0.91099 -2.634604,2.99851 -2.520425,5.45345 0.303759,2.30704 -0.737144,5.49184 0.817731,7.07075 1.375775,0.20926 2.775939,0.0539 4.160242,0.1017 z m 12.254044,-6.43453 c 0.50086,8.12037 -10.284787,8.84961 -10.476213,0.71444 -1.161839,-8.07603 9.473283,-10.17893 10.384423,-2.10855 l 0.0688,0.67966 z m -3.480185,-2.34748 c -5.190171,-4.8844 -5.207927,9.56583 -0.0073,4.67625 0.900025,-1.25492 0.898885,-3.41547 0.0073,-4.67625 z m 7.011755,7.15468 c -0.6096,-3.1386 0.57322,-3.3882 2.62481,-3.59137 1.75712,-4.13357 -3.70831,-0.94254 -2.62481,-4.4331 2.48058,1.45476 4.8031,-3.1938 1.2513,-2.9741 -1.98557,-0.25416 -4.9118,-0.20302 -4.15879,3.36648 0.18423,2.92959 -0.40292,6.11504 0.36343,8.85726 0.83148,0.79805 2.6658,0.48624 2.54406,-1.22517 z m 6.84287,0 c -0.60959,-3.1386 0.57323,-3.3882 2.62482,-3.59137 1.75712,-4.13357 -3.70831,-0.94254 -2.62482,-4.4331 2.48058,1.45476 4.8031,-3.1938 1.25131,-2.9741 -1.98557,-0.25416 -4.9118,-0.20302 -4.15879,3.36648 0.18423,2.92959 -0.40292,6.11504 0.36343,8.85726 0.83147,0.79805 2.6658,0.48624 2.54405,-1.22517 z m 6.84289,0 c -1.73479,4.37231 -3.70892,-1.022 -2.90749,-3.82613 0.30375,-2.30704 -0.73715,-5.49184 0.81773,-7.07073 3.08113,-0.75861 1.84185,4.09279 2.08976,6.39523 0,1.50054 0,3.00108 0,4.50163 z m 9.83113,-0.63598 c -3.01294,6.16648 -11.53087,-0.12357 -8.83995,-6.82033 0.31074,-5.78655 11.46449,-4.70228 7.70925,0.19874 -4.27078,-4.37495 -7.88959,6.06355 -2.13289,5.60216 1.14808,-0.57179 3.18772,-1.52244 3.26359,1.01943 z m 5.71218,2.26331 c 3.64276,-2.7397 -2.11046,-2.4032 -2.07049,-4.01759 0.29509,-1.0406 5.18996,-1.56536 1.77681,-3.81982 -2.22909,1.17722 -2.47878,-2.88506 -0.13844,-1.81439 3.49755,-0.75298 0.10284,-4.22094 -2.02543,-2.9741 -2.88126,-0.91099 -2.6346,2.99851 -2.52042,5.45345 0.30376,2.30704 -0.73715,5.49184 0.81772,7.07075 1.37578,0.20926 2.77595,0.0539 4.16025,0.1017 z"
         id="text49550"
         inkscape:connector-curvature="0" />
      <g
         id="g2455"
         transform="matrix(0.6140466,0,0,0.56988043,-121.06551,-34.188207)">
        <path
           style="fill:#000000;fill-opacity:1;stroke-width:0.61634219"
           d="m 338.30358,275.11866 c -9.70179,-7.31832 -9.75134,-22.92001 -1.45706,-31.38693 9.38081,-12.14271 18.15386,-24.86583 28.61378,-36.10513 9.274,-4.22849 15.14571,8.10718 19.30075,14.58025 4.07931,7.21295 3.99328,16.413 -1.97686,22.60527 -6.9397,9.34536 -13.5691,19.00508 -21.36987,27.65495 -9.88851,-1.89149 3.33849,-13.70543 6.51238,-18.82697 4.45043,-7.31817 12.63356,-13.49328 13.49532,-22.28567 -2.16302,-5.82812 -6.85164,-16.81363 -13.22861,-16.48708 -10.85654,12.58154 -20.89907,25.9196 -30.40861,39.54266 -4.02796,6.95503 4.53215,20.63551 9.49994,9.03891 7.2613,-9.30698 14.79475,-18.481 21.11672,-28.45846 -3.32669,-3.50864 -8.87038,9.19134 -12.461,12.21044 -2.9064,3.81038 -12.01715,17.82011 -12.97918,6.33833 6.51849,-9.57138 13.70076,-18.7796 21.50864,-27.33503 10.19457,-4.41092 12.62387,11.51935 6.66621,16.99307 -8.0252,11.12705 -16.01896,22.45357 -25.56169,32.32769 -2.25464,1.5425 -5.16742,1.14656 -7.27086,-0.4063 z"
           id="path53927"
           inkscape:connector-curvature="0" />
      </g>
    </g>
  </g>
</svg>
